<svg xmlns="http://www.w3.org/2000/svg" xmlns:xlink="http://www.w3.org/1999/xlink" contentStyleType="text/css" height="1881px" preserveAspectRatio="none" style="width:3937px;height:1881px;background:#FFFFFF;" version="1.1" viewBox="0 0 3937 1881" width="3937px" zoomAndPan="magnify"><defs/><g><!--cluster drivers--><g id="cluster_drivers"><path d="M8.5,6 L304.5,6 A3.75,3.75 0 0 1 307,8.5 L314,28.2969 L2291.5,28.2969 A2.5,2.5 0 0 1 2294,30.7969 L2294,1871.55 A2.5,2.5 0 0 1 2291.5,1874.05 L8.5,1874.05 A2.5,2.5 0 0 1 6,1871.55 L6,8.5 A2.5,2.5 0 0 1 8.5,6 " fill="#87CEEB" style="stroke:#000000;stroke-width:1.5;"/><line style="stroke:#000000;stroke-width:1.5;" x1="6" x2="314" y1="28.2969" y2="28.2969"/><text fill="#000000" font-family="sans-serif" font-size="14" font-weight="bold" lengthAdjust="spacing" textLength="295" x="10" y="20.9951">de.company.prototype.sewer.drivers</text></g><!--cluster adapters--><g id="cluster_adapters"><path d="M48.5,65 L119.5,65 A3.75,3.75 0 0 1 122,67.5 L129,87.2969 L2243.5,87.2969 A2.5,2.5 0 0 1 2246,89.7969 L2246,1831.55 A2.5,2.5 0 0 1 2243.5,1834.05 L48.5,1834.05 A2.5,2.5 0 0 1 46,1831.55 L46,67.5 A2.5,2.5 0 0 1 48.5,65 " fill="#82FFB4" style="stroke:#000000;stroke-width:1.5;"/><line style="stroke:#000000;stroke-width:1.5;" x1="46" x2="129" y1="87.2969" y2="87.2969"/><text fill="#000000" font-family="sans-serif" font-size="14" font-weight="bold" lengthAdjust="spacing" textLength="70" x="50" y="79.9951">adapters</text></g><!--cluster boundary--><g id="cluster_boundary"><path d="M832.5,116 L975.5,116 A3.75,3.75 0 0 1 978,118.5 L985,138.2969 L1053.5,138.2969 A2.5,2.5 0 0 1 1056,140.7969 L1056,228.8 A2.5,2.5 0 0 1 1053.5,231.3 L832.5,231.3 A2.5,2.5 0 0 1 830,228.8 L830,118.5 A2.5,2.5 0 0 1 832.5,116 " fill="#00FF00" style="stroke:#000000;stroke-width:1.5;"/><line style="stroke:#000000;stroke-width:1.5;" x1="830" x2="985" y1="138.2969" y2="138.2969"/><text fill="#000000" font-family="sans-serif" font-size="14" font-weight="bold" lengthAdjust="spacing" textLength="142" x="834" y="130.9951">indicate.boundary</text></g><!--cluster boundary--><g id="cluster_boundary"><path d="M1552.5,116 L1698.5,116 A3.75,3.75 0 0 1 1701,118.5 L1708,138.2969 L1791.5,138.2969 A2.5,2.5 0 0 1 1794,140.7969 L1794,228.8 A2.5,2.5 0 0 1 1791.5,231.3 L1552.5,231.3 A2.5,2.5 0 0 1 1550,228.8 L1550,118.5 A2.5,2.5 0 0 1 1552.5,116 " fill="#00FF00" style="stroke:#000000;stroke-width:1.5;"/><line style="stroke:#000000;stroke-width:1.5;" x1="1550" x2="1708" y1="138.2969" y2="138.2969"/><text fill="#000000" font-family="sans-serif" font-size="14" font-weight="bold" lengthAdjust="spacing" textLength="145" x="1554" y="130.9951">observe.boundary</text></g><!--cluster boundary--><g id="cluster_boundary"><path d="M1906.5,1529.86 L2046.5,1529.86 A3.75,3.75 0 0 1 2049,1532.36 L2056,1552.1569 L2155.5,1552.1569 A2.5,2.5 0 0 1 2158,1554.6569 L2158,1799.55 A2.5,2.5 0 0 1 2155.5,1802.05 L1906.5,1802.05 A2.5,2.5 0 0 1 1904,1799.55 L1904,1532.36 A2.5,2.5 0 0 1 1906.5,1529.86 " fill="#00FF00" style="stroke:#000000;stroke-width:1.5;"/><line style="stroke:#000000;stroke-width:1.5;" x1="1904" x2="2056" y1="1552.1569" y2="1552.1569"/><text fill="#000000" font-family="sans-serif" font-size="14" font-weight="bold" lengthAdjust="spacing" textLength="139" x="1908" y="1544.8551">sewers.boundary</text></g><!--cluster use_cases--><g id="cluster_use_cases"><path d="M88.5,263.3 L171.5,263.3 A3.75,3.75 0 0 1 174,265.8 L181,285.5969 L2195.5,285.5969 A2.5,2.5 0 0 1 2198,288.0969 L2198,1495.36 A2.5,2.5 0 0 1 2195.5,1497.86 L88.5,1497.86 A2.5,2.5 0 0 1 86,1495.36 L86,265.8 A2.5,2.5 0 0 1 88.5,263.3 " fill="#FF9A99" style="stroke:#000000;stroke-width:1.5;"/><line style="stroke:#000000;stroke-width:1.5;" x1="86" x2="181" y1="285.5969" y2="285.5969"/><text fill="#000000" font-family="sans-serif" font-size="14" font-weight="bold" lengthAdjust="spacing" textLength="82" x="90" y="278.2951">use_cases</text></g><!--cluster entities--><g id="cluster_entities"><path d="M128.5,461.6 L188.5,461.6 A3.75,3.75 0 0 1 191,464.1 L198,483.8969 L1869.5,483.8969 A2.5,2.5 0 0 1 1872,486.3969 L1872,1342.77 A2.5,2.5 0 0 1 1869.5,1345.27 L128.5,1345.27 A2.5,2.5 0 0 1 126,1342.77 L126,464.1 A2.5,2.5 0 0 1 128.5,461.6 " fill="#FCFDB0" style="stroke:#000000;stroke-width:1.5;"/><line style="stroke:#000000;stroke-width:1.5;" x1="126" x2="198" y1="483.8969" y2="483.8969"/><text fill="#000000" font-family="sans-serif" font-size="14" font-weight="bold" lengthAdjust="spacing" textLength="59" x="130" y="476.5951">entities</text></g><!--cluster indicate--><g id="cluster_indicate"><path d="M160.5,512.6 L223.5,512.6 A3.75,3.75 0 0 1 226,515.1 L233,534.8969 L1145.5,534.8969 A2.5,2.5 0 0 1 1148,537.3969 L1148,1090.43 A2.5,2.5 0 0 1 1145.5,1092.93 L160.5,1092.93 A2.5,2.5 0 0 1 158,1090.43 L158,515.1 A2.5,2.5 0 0 1 160.5,512.6 " fill="#FFFFFF" style="stroke:#000000;stroke-width:1.5;"/><line style="stroke:#000000;stroke-width:1.5;" x1="158" x2="233" y1="534.8969" y2="534.8969"/><text fill="#000000" font-family="sans-serif" font-size="14" font-weight="bold" lengthAdjust="spacing" textLength="62" x="162" y="527.5951">indicate</text></g><!--cluster boundary--><g id="cluster_boundary"><path d="M764.5,555.6 L840.5,555.6 A3.75,3.75 0 0 1 843,558.1 L850,577.8969 L1121.5,577.8969 A2.5,2.5 0 0 1 1124,580.3969 L1124,816.69 A2.5,2.5 0 0 1 1121.5,819.19 L764.5,819.19 A2.5,2.5 0 0 1 762,816.69 L762,558.1 A2.5,2.5 0 0 1 764.5,555.6 " fill="#00FF00" style="stroke:#000000;stroke-width:1.5;"/><line style="stroke:#000000;stroke-width:1.5;" x1="762" x2="850" y1="577.8969" y2="577.8969"/><text fill="#000000" font-family="sans-serif" font-size="14" font-weight="bold" lengthAdjust="spacing" textLength="75" x="766" y="570.5951">boundary</text></g><!--cluster control--><g id="cluster_control"><path d="M788.5,679.89 L845.5,679.89 A3.75,3.75 0 0 1 848,682.39 L855,702.1869 L1097.5,702.1869 A2.5,2.5 0 0 1 1100,704.6869 L1100,792.69 A2.5,2.5 0 0 1 1097.5,795.19 L788.5,795.19 A2.5,2.5 0 0 1 786,792.69 L786,682.39 A2.5,2.5 0 0 1 788.5,679.89 " fill="#FFA500" style="stroke:#000000;stroke-width:1.5;"/><line style="stroke:#000000;stroke-width:1.5;" x1="786" x2="855" y1="702.1869" y2="702.1869"/><text fill="#000000" font-family="sans-serif" font-size="14" font-weight="bold" lengthAdjust="spacing" textLength="56" x="790" y="694.8851">control</text></g><!--cluster control--><g id="cluster_control"><path d="M184.5,953.64 L360.5,953.64 A3.75,3.75 0 0 1 363,956.14 L370,975.9369 L477.5,975.9369 A2.5,2.5 0 0 1 480,978.4369 L480,1066.43 A2.5,2.5 0 0 1 477.5,1068.93 L184.5,1068.93 A2.5,2.5 0 0 1 182,1066.43 L182,956.14 A2.5,2.5 0 0 1 184.5,953.64 " fill="#FFA500" style="stroke:#000000;stroke-width:1.5;"/><line style="stroke:#000000;stroke-width:1.5;" x1="182" x2="370" y1="975.9369" y2="975.9369"/><text fill="#000000" font-family="sans-serif" font-size="14" font-weight="bold" lengthAdjust="spacing" textLength="175" x="186" y="968.6351">flow.boundary.control</text></g><!--cluster control--><g id="cluster_control"><path d="M506.5,953.64 L692.5,953.64 A3.75,3.75 0 0 1 695,956.14 L702,975.9369 L799.5,975.9369 A2.5,2.5 0 0 1 802,978.4369 L802,1066.43 A2.5,2.5 0 0 1 799.5,1068.93 L506.5,1068.93 A2.5,2.5 0 0 1 504,1066.43 L504,956.14 A2.5,2.5 0 0 1 506.5,953.64 " fill="#FFA500" style="stroke:#000000;stroke-width:1.5;"/><line style="stroke:#000000;stroke-width:1.5;" x1="504" x2="702" y1="975.9369" y2="975.9369"/><text fill="#000000" font-family="sans-serif" font-size="14" font-weight="bold" lengthAdjust="spacing" textLength="185" x="508" y="968.6351">pump.boundary.control</text></g><!--cluster control--><g id="cluster_control"><path d="M828.5,953.64 L1000.5,953.64 A3.75,3.75 0 0 1 1003,956.14 L1010,975.9369 L1121.5,975.9369 A2.5,2.5 0 0 1 1124,978.4369 L1124,1066.43 A2.5,2.5 0 0 1 1121.5,1068.93 L828.5,1068.93 A2.5,2.5 0 0 1 826,1066.43 L826,956.14 A2.5,2.5 0 0 1 828.5,953.64 " fill="#FFA500" style="stroke:#000000;stroke-width:1.5;"/><line style="stroke:#000000;stroke-width:1.5;" x1="826" x2="1010" y1="975.9369" y2="975.9369"/><text fill="#000000" font-family="sans-serif" font-size="14" font-weight="bold" lengthAdjust="spacing" textLength="171" x="830" y="968.6351">rain.boundary.control</text></g><!--cluster boundary--><g id="cluster_boundary"><path d="M1514.5,555.6 L1660.5,555.6 A3.75,3.75 0 0 1 1663,558.1 L1670,577.8969 L1829.5,577.8969 A2.5,2.5 0 0 1 1832,580.3969 L1832,816.69 A2.5,2.5 0 0 1 1829.5,819.19 L1514.5,819.19 A2.5,2.5 0 0 1 1512,816.69 L1512,558.1 A2.5,2.5 0 0 1 1514.5,555.6 " fill="#00FF00" style="stroke:#000000;stroke-width:1.5;"/><line style="stroke:#000000;stroke-width:1.5;" x1="1512" x2="1670" y1="577.8969" y2="577.8969"/><text fill="#000000" font-family="sans-serif" font-size="14" font-weight="bold" lengthAdjust="spacing" textLength="145" x="1516" y="570.5951">observe.boundary</text></g><!--cluster control--><g id="cluster_control"><path d="M1538.5,679.89 L1595.5,679.89 A3.75,3.75 0 0 1 1598,682.39 L1605,702.1869 L1805.5,702.1869 A2.5,2.5 0 0 1 1808,704.6869 L1808,792.69 A2.5,2.5 0 0 1 1805.5,795.19 L1538.5,795.19 A2.5,2.5 0 0 1 1536,792.69 L1536,682.39 A2.5,2.5 0 0 1 1538.5,679.89 " fill="#FFA500" style="stroke:#000000;stroke-width:1.5;"/><line style="stroke:#000000;stroke-width:1.5;" x1="1536" x2="1605" y1="702.1869" y2="702.1869"/><text fill="#000000" font-family="sans-serif" font-size="14" font-weight="bold" lengthAdjust="spacing" textLength="56" x="1540" y="694.8851">control</text></g><!--cluster sewer--><g id="cluster_sewer"><path d="M1174.5,843.19 L1225.5,843.19 A3.75,3.75 0 0 1 1228,845.69 L1235,865.4869 L1829.5,865.4869 A2.5,2.5 0 0 1 1832,867.9869 L1832,1310.77 A2.5,2.5 0 0 1 1829.5,1313.27 L1174.5,1313.27 A2.5,2.5 0 0 1 1172,1310.77 L1172,845.69 A2.5,2.5 0 0 1 1174.5,843.19 " fill="#FFFFFF" style="stroke:#000000;stroke-width:1.5;"/><line style="stroke:#000000;stroke-width:1.5;" x1="1172" x2="1235" y1="865.4869" y2="865.4869"/><text fill="#000000" font-family="sans-serif" font-size="14" font-weight="bold" lengthAdjust="spacing" textLength="50" x="1176" y="858.1851">sewer</text></g><!--cluster boundary--><g id="cluster_boundary"><path d="M1235.5,886.19 L1311.5,886.19 A3.75,3.75 0 0 1 1314,888.69 L1321,908.4869 L1800.5,908.4869 A2.5,2.5 0 0 1 1803,910.9869 L1803,1114.88 A2.5,2.5 0 0 1 1800.5,1117.38 L1235.5,1117.38 A2.5,2.5 0 0 1 1233,1114.88 L1233,888.69 A2.5,2.5 0 0 1 1235.5,886.19 " fill="#00FF00" style="stroke:#000000;stroke-width:1.5;"/><line style="stroke:#000000;stroke-width:1.5;" x1="1233" x2="1321" y1="908.4869" y2="908.4869"/><text fill="#000000" font-family="sans-serif" font-size="14" font-weight="bold" lengthAdjust="spacing" textLength="75" x="1237" y="901.1851">boundary</text></g><!--cluster entity--><g id="cluster_entity"><path d="M1259.5,929.19 L1366.5,929.19 A3.75,3.75 0 0 1 1369,931.69 L1376,951.4869 L1544.5,951.4869 A2.5,2.5 0 0 1 1547,953.9869 L1547,1090.88 A2.5,2.5 0 0 1 1544.5,1093.38 L1259.5,1093.38 A2.5,2.5 0 0 1 1257,1090.88 L1257,931.69 A2.5,2.5 0 0 1 1259.5,929.19 " fill="#FCFDB0" style="stroke:#000000;stroke-width:1.5;"/><line style="stroke:#000000;stroke-width:1.5;" x1="1257" x2="1376" y1="951.4869" y2="951.4869"/><text fill="#000000" font-family="sans-serif" font-size="14" font-weight="bold" lengthAdjust="spacing" textLength="106" x="1261" y="944.1851">control.entity</text></g><!--cluster entity--><g id="cluster_entity"><path d="M1198.5,1141.38 L1413.5,1141.38 A3.75,3.75 0 0 1 1416,1143.88 L1423,1163.6769 L1505.5,1163.6769 A2.5,2.5 0 0 1 1508,1166.1769 L1508,1286.77 A2.5,2.5 0 0 1 1505.5,1289.27 L1198.5,1289.27 A2.5,2.5 0 0 1 1196,1286.77 L1196,1143.88 A2.5,2.5 0 0 1 1198.5,1141.38 " fill="#FCFDB0" style="stroke:#000000;stroke-width:1.5;"/><line style="stroke:#000000;stroke-width:1.5;" x1="1196" x2="1423" y1="1163.6769" y2="1163.6769"/><text fill="#000000" font-family="sans-serif" font-size="14" font-weight="bold" lengthAdjust="spacing" textLength="214" x="1200" y="1156.3751">kpi.boundary.control.entity</text></g><!--cluster entity--><g id="cluster_entity"><path d="M1534.5,1149.53 L1791.5,1149.53 A3.75,3.75 0 0 1 1794,1152.03 L1801,1171.8269 L1805.5,1171.8269 A2.5,2.5 0 0 1 1808,1174.3269 L1808,1278.62 A2.5,2.5 0 0 1 1805.5,1281.12 L1534.5,1281.12 A2.5,2.5 0 0 1 1532,1278.62 L1532,1152.03 A2.5,2.5 0 0 1 1534.5,1149.53 " fill="#FCFDB0" style="stroke:#000000;stroke-width:1.5;"/><line style="stroke:#000000;stroke-width:1.5;" x1="1532" x2="1801" y1="1171.8269" y2="1171.8269"/><text fill="#000000" font-family="sans-serif" font-size="14" font-weight="bold" lengthAdjust="spacing" textLength="256" x="1536" y="1164.5251">problem.boundary.control.entity</text></g><!--cluster boundary--><g id="cluster_boundary"><path d="M805.5,314.3 L948.5,314.3 A3.75,3.75 0 0 1 951,316.8 L958,336.5969 L1080.5,336.5969 A2.5,2.5 0 0 1 1083,339.0969 L1083,427.1 A2.5,2.5 0 0 1 1080.5,429.6 L805.5,429.6 A2.5,2.5 0 0 1 803,427.1 L803,316.8 A2.5,2.5 0 0 1 805.5,314.3 " fill="#00FF00" style="stroke:#000000;stroke-width:1.5;"/><line style="stroke:#000000;stroke-width:1.5;" x1="803" x2="958" y1="336.5969" y2="336.5969"/><text fill="#000000" font-family="sans-serif" font-size="14" font-weight="bold" lengthAdjust="spacing" textLength="142" x="807" y="329.2951">indicate.boundary</text></g><!--cluster boundary--><g id="cluster_boundary"><path d="M1548.5,314.3 L1694.5,314.3 A3.75,3.75 0 0 1 1697,316.8 L1704,336.5969 L1795.5,336.5969 A2.5,2.5 0 0 1 1798,339.0969 L1798,427.1 A2.5,2.5 0 0 1 1795.5,429.6 L1548.5,429.6 A2.5,2.5 0 0 1 1546,427.1 L1546,316.8 A2.5,2.5 0 0 1 1548.5,314.3 " fill="#00FF00" style="stroke:#000000;stroke-width:1.5;"/><line style="stroke:#000000;stroke-width:1.5;" x1="1546" x2="1704" y1="336.5969" y2="336.5969"/><text fill="#000000" font-family="sans-serif" font-size="14" font-weight="bold" lengthAdjust="spacing" textLength="145" x="1550" y="329.2951">observe.boundary</text></g><!--cluster boundary--><g id="cluster_boundary"><path d="M1906.5,1149.53 L2046.5,1149.53 A3.75,3.75 0 0 1 2049,1152.03 L2056,1171.8269 L2155.5,1171.8269 A2.5,2.5 0 0 1 2158,1174.3269 L2158,1463.36 A2.5,2.5 0 0 1 2155.5,1465.86 L1906.5,1465.86 A2.5,2.5 0 0 1 1904,1463.36 L1904,1152.03 A2.5,2.5 0 0 1 1906.5,1149.53 " fill="#00FF00" style="stroke:#000000;stroke-width:1.5;"/><line style="stroke:#000000;stroke-width:1.5;" x1="1904" x2="2056" y1="1171.8269" y2="1171.8269"/><text fill="#000000" font-family="sans-serif" font-size="14" font-weight="bold" lengthAdjust="spacing" textLength="139" x="1908" y="1164.5251">sewers.boundary</text></g><!--class SewerIndicationAdapter--><g id="elem_SewerIndicationAdapter"><rect codeLine="42" fill="#F1F1F1" height="64.2969" id="SewerIndicationAdapter" rx="2.5" ry="2.5" style="stroke:#181818;stroke-width:0.5;" width="195" x="845.5" y="151"/><ellipse cx="860.5" cy="167" fill="#ADD1B2" rx="11" ry="11" style="stroke:#181818;stroke-width:1.0;"/><path d="M863.4688,172.6406 Q862.8906,172.9375 862.25,173.0781 Q861.6094,173.2344 860.9063,173.2344 Q858.4063,173.2344 857.0781,171.5938 Q855.7656,169.9375 855.7656,166.8125 Q855.7656,163.6875 857.0781,162.0313 Q858.4063,160.375 860.9063,160.375 Q861.6094,160.375 862.25,160.5313 Q862.9063,160.6875 863.4688,160.9844 L863.4688,163.7031 Q862.8438,163.125 862.25,162.8594 Q861.6563,162.5781 861.0313,162.5781 Q859.6875,162.5781 859,163.6563 Q858.3125,164.7188 858.3125,166.8125 Q858.3125,168.9063 859,169.9844 Q859.6875,171.0469 861.0313,171.0469 Q861.6563,171.0469 862.25,170.7813 Q862.8438,170.5 863.4688,169.9219 L863.4688,172.6406 Z " fill="#000000"/><text fill="#000000" font-family="sans-serif" font-size="14" lengthAdjust="spacing" textLength="163" x="874.5" y="171.8467">SewerIndicationAdapter</text><line style="stroke:#181818;stroke-width:0.5;" x1="846.5" x2="1039.5" y1="183" y2="183"/><line style="stroke:#181818;stroke-width:0.5;" x1="846.5" x2="1039.5" y1="191" y2="191"/><ellipse cx="856.5" cy="204.6484" fill="#84BE84" rx="3" ry="3" style="stroke:#038048;stroke-width:1.0;"/><text fill="#000000" font-family="sans-serif" font-size="14" lengthAdjust="spacing" textLength="120" x="865.5" y="207.9951">void serve(String)</text></g><!--class SewerObservationAdapter--><g id="elem_SewerObservationAdapter"><rect codeLine="45" fill="#F1F1F1" height="64.2969" id="SewerObservationAdapter" rx="2.5" ry="2.5" style="stroke:#181818;stroke-width:0.5;" width="212" x="1566" y="151"/><ellipse cx="1581" cy="167" fill="#ADD1B2" rx="11" ry="11" style="stroke:#181818;stroke-width:1.0;"/><path d="M1583.9688,172.6406 Q1583.3906,172.9375 1582.75,173.0781 Q1582.1094,173.2344 1581.4063,173.2344 Q1578.9063,173.2344 1577.5781,171.5938 Q1576.2656,169.9375 1576.2656,166.8125 Q1576.2656,163.6875 1577.5781,162.0313 Q1578.9063,160.375 1581.4063,160.375 Q1582.1094,160.375 1582.75,160.5313 Q1583.4063,160.6875 1583.9688,160.9844 L1583.9688,163.7031 Q1583.3438,163.125 1582.75,162.8594 Q1582.1563,162.5781 1581.5313,162.5781 Q1580.1875,162.5781 1579.5,163.6563 Q1578.8125,164.7188 1578.8125,166.8125 Q1578.8125,168.9063 1579.5,169.9844 Q1580.1875,171.0469 1581.5313,171.0469 Q1582.1563,171.0469 1582.75,170.7813 Q1583.3438,170.5 1583.9688,169.9219 L1583.9688,172.6406 Z " fill="#000000"/><text fill="#000000" font-family="sans-serif" font-size="14" lengthAdjust="spacing" textLength="180" x="1595" y="171.8467">SewerObservationAdapter</text><line style="stroke:#181818;stroke-width:0.5;" x1="1567" x2="1777" y1="183" y2="183"/><line style="stroke:#181818;stroke-width:0.5;" x1="1567" x2="1777" y1="191" y2="191"/><ellipse cx="1577" cy="204.6484" fill="#84BE84" rx="3" ry="3" style="stroke:#038048;stroke-width:1.0;"/><text fill="#000000" font-family="sans-serif" font-size="14" lengthAdjust="spacing" textLength="184" x="1586" y="207.9951">Set&lt;Object&gt; serve(String)</text></g><!--class SewersAdapter--><g id="elem_SewersAdapter"><rect codeLine="48" fill="#F1F1F1" height="80.5938" id="SewersAdapter" rx="2.5" ry="2.5" style="stroke:#181818;stroke-width:0.5;" width="222" x="1920" y="1705.46"/><ellipse cx="1974.25" cy="1721.46" fill="#B4A7E5" rx="11" ry="11" style="stroke:#181818;stroke-width:1.0;"/><path d="M1970.1719,1717.2256 L1970.1719,1715.0694 L1977.5625,1715.0694 L1977.5625,1717.2256 L1975.0938,1717.2256 L1975.0938,1725.3038 L1977.5625,1725.3038 L1977.5625,1727.46 L1970.1719,1727.46 L1970.1719,1725.3038 L1972.6406,1725.3038 L1972.6406,1717.2256 L1970.1719,1717.2256 Z " fill="#000000"/><text fill="#000000" font-family="sans-serif" font-size="14" font-style="italic" lengthAdjust="spacing" textLength="105" x="1994.75" y="1726.3067">SewersAdapter</text><line style="stroke:#181818;stroke-width:0.5;" x1="1921" x2="2141" y1="1737.46" y2="1737.46"/><line style="stroke:#181818;stroke-width:0.5;" x1="1921" x2="2141" y1="1745.46" y2="1745.46"/><ellipse cx="1931" cy="1759.1084" fill="#84BE84" rx="3" ry="3" style="stroke:#038048;stroke-width:1.0;"/><text fill="#000000" font-family="sans-serif" font-size="14" font-style="italic" lengthAdjust="spacing" textLength="196" x="1940" y="1762.4551">Set&lt;Object&gt; observe(UUID)</text><ellipse cx="1931" cy="1775.4053" fill="#84BE84" rx="3" ry="3" style="stroke:#038048;stroke-width:1.0;"/><text fill="#000000" font-family="sans-serif" font-size="14" font-style="italic" lengthAdjust="spacing" textLength="183" x="1940" y="1778.752">void indicate(UUID, Object)</text></g><!--class SewersAdapterBridge--><g id="elem_SewersAdapterBridge"><rect codeLine="52" fill="#F1F1F1" height="80.5938" id="SewersAdapterBridge" rx="2.5" ry="2.5" style="stroke:#181818;stroke-width:0.5;" width="222" x="1920" y="1564.86"/><ellipse cx="1953" cy="1580.86" fill="#ADD1B2" rx="11" ry="11" style="stroke:#181818;stroke-width:1.0;"/><path d="M1955.9688,1586.5006 Q1955.3906,1586.7975 1954.75,1586.9381 Q1954.1094,1587.0944 1953.4063,1587.0944 Q1950.9063,1587.0944 1949.5781,1585.4538 Q1948.2656,1583.7975 1948.2656,1580.6725 Q1948.2656,1577.5475 1949.5781,1575.8913 Q1950.9063,1574.235 1953.4063,1574.235 Q1954.1094,1574.235 1954.75,1574.3913 Q1955.4063,1574.5475 1955.9688,1574.8444 L1955.9688,1577.5631 Q1955.3438,1576.985 1954.75,1576.7194 Q1954.1563,1576.4381 1953.5313,1576.4381 Q1952.1875,1576.4381 1951.5,1577.5163 Q1950.8125,1578.5788 1950.8125,1580.6725 Q1950.8125,1582.7663 1951.5,1583.8444 Q1952.1875,1584.9069 1953.5313,1584.9069 Q1954.1563,1584.9069 1954.75,1584.6413 Q1955.3438,1584.36 1955.9688,1583.7819 L1955.9688,1586.5006 Z " fill="#000000"/><text fill="#000000" font-family="sans-serif" font-size="14" lengthAdjust="spacing" textLength="150" x="1971" y="1585.7067">SewersAdapterBridge</text><line style="stroke:#181818;stroke-width:0.5;" x1="1921" x2="2141" y1="1596.86" y2="1596.86"/><line style="stroke:#181818;stroke-width:0.5;" x1="1921" x2="2141" y1="1604.86" y2="1604.86"/><ellipse cx="1931" cy="1618.5084" fill="#84BE84" rx="3" ry="3" style="stroke:#038048;stroke-width:1.0;"/><text fill="#000000" font-family="sans-serif" font-size="14" lengthAdjust="spacing" textLength="196" x="1940" y="1621.8551">Set&lt;Object&gt; observe(UUID)</text><ellipse cx="1931" cy="1634.8053" fill="#84BE84" rx="3" ry="3" style="stroke:#038048;stroke-width:1.0;"/><text fill="#000000" font-family="sans-serif" font-size="14" lengthAdjust="spacing" textLength="183" x="1940" y="1638.152">void indicate(UUID, Object)</text></g><!--class SewerOverflowIndicationService--><g id="elem_SewerOverflowIndicationService"><rect codeLine="56" fill="#F1F1F1" height="64.2969" id="SewerOverflowIndicationService" rx="2.5" ry="2.5" style="stroke:#181818;stroke-width:0.5;" width="250" x="818" y="590.6"/><ellipse cx="833" cy="606.6" fill="#ADD1B2" rx="11" ry="11" style="stroke:#181818;stroke-width:1.0;"/><path d="M835.9688,612.2406 Q835.3906,612.5375 834.75,612.6781 Q834.1094,612.8344 833.4063,612.8344 Q830.9063,612.8344 829.5781,611.1937 Q828.2656,609.5375 828.2656,606.4125 Q828.2656,603.2875 829.5781,601.6312 Q830.9063,599.975 833.4063,599.975 Q834.1094,599.975 834.75,600.1312 Q835.4063,600.2875 835.9688,600.5844 L835.9688,603.3031 Q835.3438,602.725 834.75,602.4594 Q834.1563,602.1781 833.5313,602.1781 Q832.1875,602.1781 831.5,603.2562 Q830.8125,604.3187 830.8125,606.4125 Q830.8125,608.5062 831.5,609.5844 Q832.1875,610.6469 833.5313,610.6469 Q834.1563,610.6469 834.75,610.3812 Q835.3438,610.1 835.9688,609.5219 L835.9688,612.2406 Z " fill="#000000"/><text fill="#000000" font-family="sans-serif" font-size="14" lengthAdjust="spacing" textLength="218" x="847" y="611.4467">SewerOverflowIndicationService</text><line style="stroke:#181818;stroke-width:0.5;" x1="819" x2="1067" y1="622.6" y2="622.6"/><line style="stroke:#181818;stroke-width:0.5;" x1="819" x2="1067" y1="630.6" y2="630.6"/><ellipse cx="829" cy="644.2484" fill="#84BE84" rx="3" ry="3" style="stroke:#038048;stroke-width:1.0;"/><text fill="#000000" font-family="sans-serif" font-size="14" lengthAdjust="spacing" textLength="221" x="838" y="647.5951">void serve(Map&lt;String, String&gt;)</text></g><!--class SewerOverflowIndicationComponent--><g id="elem_SewerOverflowIndicationComponent"><rect codeLine="59" fill="#F1F1F1" height="64.2969" id="SewerOverflowIndicationComponent" rx="2.5" ry="2.5" style="stroke:#181818;stroke-width:0.5;" width="282" x="802" y="714.89"/><ellipse cx="817" cy="730.89" fill="#ADD1B2" rx="11" ry="11" style="stroke:#181818;stroke-width:1.0;"/><path d="M819.9688,736.5306 Q819.3906,736.8275 818.75,736.9681 Q818.1094,737.1244 817.4063,737.1244 Q814.9063,737.1244 813.5781,735.4837 Q812.2656,733.8275 812.2656,730.7025 Q812.2656,727.5775 813.5781,725.9212 Q814.9063,724.265 817.4063,724.265 Q818.1094,724.265 818.75,724.4212 Q819.4063,724.5775 819.9688,724.8744 L819.9688,727.5931 Q819.3438,727.015 818.75,726.7494 Q818.1563,726.4681 817.5313,726.4681 Q816.1875,726.4681 815.5,727.5462 Q814.8125,728.6087 814.8125,730.7025 Q814.8125,732.7962 815.5,733.8744 Q816.1875,734.9369 817.5313,734.9369 Q818.1563,734.9369 818.75,734.6712 Q819.3438,734.39 819.9688,733.8119 L819.9688,736.5306 Z " fill="#000000"/><text fill="#000000" font-family="sans-serif" font-size="14" lengthAdjust="spacing" textLength="250" x="831" y="735.7367">SewerOverflowIndicationComponent</text><line style="stroke:#181818;stroke-width:0.5;" x1="803" x2="1083" y1="746.89" y2="746.89"/><line style="stroke:#181818;stroke-width:0.5;" x1="803" x2="1083" y1="754.89" y2="754.89"/><ellipse cx="813" cy="768.5384" fill="#84BE84" rx="3" ry="3" style="stroke:#038048;stroke-width:1.0;"/><text fill="#000000" font-family="sans-serif" font-size="14" lengthAdjust="spacing" textLength="239" x="822" y="771.8851">void execute(Map&lt;String, String&gt;)</text></g><!--class FlowIndicationComponent--><g id="elem_FlowIndicationComponent"><rect codeLine="65" fill="#F1F1F1" height="64.2969" id="FlowIndicationComponent" rx="2.5" ry="2.5" style="stroke:#181818;stroke-width:0.5;" width="265" x="198.5" y="988.64"/><ellipse cx="237.8" cy="1004.64" fill="#ADD1B2" rx="11" ry="11" style="stroke:#181818;stroke-width:1.0;"/><path d="M240.7688,1010.2806 Q240.1906,1010.5775 239.55,1010.7181 Q238.9094,1010.8744 238.2063,1010.8744 Q235.7063,1010.8744 234.3781,1009.2338 Q233.0656,1007.5775 233.0656,1004.4525 Q233.0656,1001.3275 234.3781,999.6713 Q235.7063,998.015 238.2063,998.015 Q238.9094,998.015 239.55,998.1713 Q240.2063,998.3275 240.7688,998.6244 L240.7688,1001.3431 Q240.1438,1000.765 239.55,1000.4994 Q238.9563,1000.2181 238.3313,1000.2181 Q236.9875,1000.2181 236.3,1001.2963 Q235.6125,1002.3588 235.6125,1004.4525 Q235.6125,1006.5463 236.3,1007.6244 Q236.9875,1008.6869 238.3313,1008.6869 Q238.9563,1008.6869 239.55,1008.4213 Q240.1438,1008.14 240.7688,1007.5619 L240.7688,1010.2806 Z " fill="#000000"/><text fill="#000000" font-family="sans-serif" font-size="14" lengthAdjust="spacing" textLength="179" x="257.2" y="1009.4867">FlowIndicationComponent</text><line style="stroke:#181818;stroke-width:0.5;" x1="199.5" x2="462.5" y1="1020.64" y2="1020.64"/><line style="stroke:#181818;stroke-width:0.5;" x1="199.5" x2="462.5" y1="1028.64" y2="1028.64"/><ellipse cx="209.5" cy="1042.2884" fill="#84BE84" rx="3" ry="3" style="stroke:#038048;stroke-width:1.0;"/><text fill="#000000" font-family="sans-serif" font-size="14" lengthAdjust="spacing" textLength="239" x="218.5" y="1045.6351">void execute(Map&lt;String, String&gt;)</text></g><!--class PumpIndicationComponent--><g id="elem_PumpIndicationComponent"><rect codeLine="68" fill="#F1F1F1" height="64.2969" id="PumpIndicationComponent" rx="2.5" ry="2.5" style="stroke:#181818;stroke-width:0.5;" width="265" x="520.5" y="988.64"/><ellipse cx="555.75" cy="1004.64" fill="#ADD1B2" rx="11" ry="11" style="stroke:#181818;stroke-width:1.0;"/><path d="M558.7188,1010.2806 Q558.1406,1010.5775 557.5,1010.7181 Q556.8594,1010.8744 556.1563,1010.8744 Q553.6563,1010.8744 552.3281,1009.2338 Q551.0156,1007.5775 551.0156,1004.4525 Q551.0156,1001.3275 552.3281,999.6713 Q553.6563,998.015 556.1563,998.015 Q556.8594,998.015 557.5,998.1713 Q558.1563,998.3275 558.7188,998.6244 L558.7188,1001.3431 Q558.0938,1000.765 557.5,1000.4994 Q556.9063,1000.2181 556.2813,1000.2181 Q554.9375,1000.2181 554.25,1001.2963 Q553.5625,1002.3588 553.5625,1004.4525 Q553.5625,1006.5463 554.25,1007.6244 Q554.9375,1008.6869 556.2813,1008.6869 Q556.9063,1008.6869 557.5,1008.4213 Q558.0938,1008.14 558.7188,1007.5619 L558.7188,1010.2806 Z " fill="#000000"/><text fill="#000000" font-family="sans-serif" font-size="14" lengthAdjust="spacing" textLength="188" x="574.25" y="1009.4867">PumpIndicationComponent</text><line style="stroke:#181818;stroke-width:0.5;" x1="521.5" x2="784.5" y1="1020.64" y2="1020.64"/><line style="stroke:#181818;stroke-width:0.5;" x1="521.5" x2="784.5" y1="1028.64" y2="1028.64"/><ellipse cx="531.5" cy="1042.2884" fill="#84BE84" rx="3" ry="3" style="stroke:#038048;stroke-width:1.0;"/><text fill="#000000" font-family="sans-serif" font-size="14" lengthAdjust="spacing" textLength="239" x="540.5" y="1045.6351">void execute(Map&lt;String, String&gt;)</text></g><!--class RainIndicationComponent--><g id="elem_RainIndicationComponent"><rect codeLine="71" fill="#F1F1F1" height="64.2969" id="RainIndicationComponent" rx="2.5" ry="2.5" style="stroke:#181818;stroke-width:0.5;" width="265" x="842.5" y="988.64"/><ellipse cx="882.25" cy="1004.64" fill="#ADD1B2" rx="11" ry="11" style="stroke:#181818;stroke-width:1.0;"/><path d="M885.2188,1010.2806 Q884.6406,1010.5775 884,1010.7181 Q883.3594,1010.8744 882.6563,1010.8744 Q880.1563,1010.8744 878.8281,1009.2338 Q877.5156,1007.5775 877.5156,1004.4525 Q877.5156,1001.3275 878.8281,999.6713 Q880.1563,998.015 882.6563,998.015 Q883.3594,998.015 884,998.1713 Q884.6563,998.3275 885.2188,998.6244 L885.2188,1001.3431 Q884.5938,1000.765 884,1000.4994 Q883.4063,1000.2181 882.7813,1000.2181 Q881.4375,1000.2181 880.75,1001.2963 Q880.0625,1002.3588 880.0625,1004.4525 Q880.0625,1006.5463 880.75,1007.6244 Q881.4375,1008.6869 882.7813,1008.6869 Q883.4063,1008.6869 884,1008.4213 Q884.5938,1008.14 885.2188,1007.5619 L885.2188,1010.2806 Z " fill="#000000"/><text fill="#000000" font-family="sans-serif" font-size="14" lengthAdjust="spacing" textLength="178" x="901.75" y="1009.4867">RainIndicationComponent</text><line style="stroke:#181818;stroke-width:0.5;" x1="843.5" x2="1106.5" y1="1020.64" y2="1020.64"/><line style="stroke:#181818;stroke-width:0.5;" x1="843.5" x2="1106.5" y1="1028.64" y2="1028.64"/><ellipse cx="853.5" cy="1042.2884" fill="#84BE84" rx="3" ry="3" style="stroke:#038048;stroke-width:1.0;"/><text fill="#000000" font-family="sans-serif" font-size="14" lengthAdjust="spacing" textLength="239" x="862.5" y="1045.6351">void execute(Map&lt;String, String&gt;)</text></g><!--class SewerObservationService--><g id="elem_SewerObservationService"><rect codeLine="74" fill="#F1F1F1" height="64.2969" id="SewerObservationService" rx="2.5" ry="2.5" style="stroke:#181818;stroke-width:0.5;" width="208" x="1568" y="590.6"/><ellipse cx="1583" cy="606.6" fill="#ADD1B2" rx="11" ry="11" style="stroke:#181818;stroke-width:1.0;"/><path d="M1585.9688,612.2406 Q1585.3906,612.5375 1584.75,612.6781 Q1584.1094,612.8344 1583.4063,612.8344 Q1580.9063,612.8344 1579.5781,611.1937 Q1578.2656,609.5375 1578.2656,606.4125 Q1578.2656,603.2875 1579.5781,601.6312 Q1580.9063,599.975 1583.4063,599.975 Q1584.1094,599.975 1584.75,600.1312 Q1585.4063,600.2875 1585.9688,600.5844 L1585.9688,603.3031 Q1585.3438,602.725 1584.75,602.4594 Q1584.1563,602.1781 1583.5313,602.1781 Q1582.1875,602.1781 1581.5,603.2562 Q1580.8125,604.3187 1580.8125,606.4125 Q1580.8125,608.5062 1581.5,609.5844 Q1582.1875,610.6469 1583.5313,610.6469 Q1584.1563,610.6469 1584.75,610.3812 Q1585.3438,610.1 1585.9688,609.5219 L1585.9688,612.2406 Z " fill="#000000"/><text fill="#000000" font-family="sans-serif" font-size="14" lengthAdjust="spacing" textLength="176" x="1597" y="611.4467">SewerObservationService</text><line style="stroke:#181818;stroke-width:0.5;" x1="1569" x2="1775" y1="622.6" y2="622.6"/><line style="stroke:#181818;stroke-width:0.5;" x1="1569" x2="1775" y1="630.6" y2="630.6"/><ellipse cx="1579" cy="644.2484" fill="#84BE84" rx="3" ry="3" style="stroke:#038048;stroke-width:1.0;"/><text fill="#000000" font-family="sans-serif" font-size="14" lengthAdjust="spacing" textLength="182" x="1588" y="647.5951">Set&lt;Sewer&gt; serve(String)</text></g><!--class SewerObservationComponent--><g id="elem_SewerObservationComponent"><rect codeLine="77" fill="#F1F1F1" height="64.2969" id="SewerObservationComponent" rx="2.5" ry="2.5" style="stroke:#181818;stroke-width:0.5;" width="240" x="1552" y="714.89"/><ellipse cx="1567" cy="730.89" fill="#ADD1B2" rx="11" ry="11" style="stroke:#181818;stroke-width:1.0;"/><path d="M1569.9688,736.5306 Q1569.3906,736.8275 1568.75,736.9681 Q1568.1094,737.1244 1567.4063,737.1244 Q1564.9063,737.1244 1563.5781,735.4837 Q1562.2656,733.8275 1562.2656,730.7025 Q1562.2656,727.5775 1563.5781,725.9212 Q1564.9063,724.265 1567.4063,724.265 Q1568.1094,724.265 1568.75,724.4212 Q1569.4063,724.5775 1569.9688,724.8744 L1569.9688,727.5931 Q1569.3438,727.015 1568.75,726.7494 Q1568.1563,726.4681 1567.5313,726.4681 Q1566.1875,726.4681 1565.5,727.5462 Q1564.8125,728.6087 1564.8125,730.7025 Q1564.8125,732.7962 1565.5,733.8744 Q1566.1875,734.9369 1567.5313,734.9369 Q1568.1563,734.9369 1568.75,734.6712 Q1569.3438,734.39 1569.9688,733.8119 L1569.9688,736.5306 Z " fill="#000000"/><text fill="#000000" font-family="sans-serif" font-size="14" lengthAdjust="spacing" textLength="208" x="1581" y="735.7367">SewerObservationComponent</text><line style="stroke:#181818;stroke-width:0.5;" x1="1553" x2="1791" y1="746.89" y2="746.89"/><line style="stroke:#181818;stroke-width:0.5;" x1="1553" x2="1791" y1="754.89" y2="754.89"/><ellipse cx="1563" cy="768.5384" fill="#84BE84" rx="3" ry="3" style="stroke:#038048;stroke-width:1.0;"/><text fill="#000000" font-family="sans-serif" font-size="14" lengthAdjust="spacing" textLength="200" x="1572" y="771.8851">Set&lt;Sewer&gt; execute(String)</text></g><!--class Sewers--><g id="elem_Sewers"><rect codeLine="80" fill="#F1F1F1" height="80.5938" id="Sewers" rx="2.5" ry="2.5" style="stroke:#181818;stroke-width:0.5;" width="220" x="1567" y="980.49"/><ellipse cx="1647.25" cy="996.49" fill="#B4A7E5" rx="11" ry="11" style="stroke:#181818;stroke-width:1.0;"/><path d="M1643.1719,992.2556 L1643.1719,990.0994 L1650.5625,990.0994 L1650.5625,992.2556 L1648.0938,992.2556 L1648.0938,1000.3338 L1650.5625,1000.3338 L1650.5625,1002.49 L1643.1719,1002.49 L1643.1719,1000.3338 L1645.6406,1000.3338 L1645.6406,992.2556 L1643.1719,992.2556 Z " fill="#000000"/><text fill="#000000" font-family="sans-serif" font-size="14" font-style="italic" lengthAdjust="spacing" textLength="51" x="1667.75" y="1001.3367">Sewers</text><line style="stroke:#181818;stroke-width:0.5;" x1="1568" x2="1786" y1="1012.49" y2="1012.49"/><line style="stroke:#181818;stroke-width:0.5;" x1="1568" x2="1786" y1="1020.49" y2="1020.49"/><ellipse cx="1578" cy="1034.1384" fill="#84BE84" rx="3" ry="3" style="stroke:#038048;stroke-width:1.0;"/><text fill="#000000" font-family="sans-serif" font-size="14" font-style="italic" lengthAdjust="spacing" textLength="194" x="1587" y="1037.4851">Set&lt;Sewer&gt; observe(UUID)</text><ellipse cx="1578" cy="1050.4353" fill="#84BE84" rx="3" ry="3" style="stroke:#038048;stroke-width:1.0;"/><text fill="#000000" font-family="sans-serif" font-size="14" font-style="italic" lengthAdjust="spacing" textLength="139" x="1587" y="1053.782">void indicate(Sewer)</text></g><!--class Sewer--><g id="elem_Sewer"><rect codeLine="87" fill="#F1F1F1" height="113.1875" id="Sewer" rx="2.5" ry="2.5" style="stroke:#181818;stroke-width:0.5;" width="259" x="1272.5" y="964.19"/><ellipse cx="1376.25" cy="980.19" fill="#ADD1B2" rx="11" ry="11" style="stroke:#181818;stroke-width:1.0;"/><path d="M1379.2188,985.8306 Q1378.6406,986.1275 1378,986.2681 Q1377.3594,986.4244 1376.6563,986.4244 Q1374.1563,986.4244 1372.8281,984.7837 Q1371.5156,983.1275 1371.5156,980.0025 Q1371.5156,976.8775 1372.8281,975.2212 Q1374.1563,973.565 1376.6563,973.565 Q1377.3594,973.565 1378,973.7212 Q1378.6563,973.8775 1379.2188,974.1744 L1379.2188,976.8931 Q1378.5938,976.315 1378,976.0494 Q1377.4063,975.7681 1376.7813,975.7681 Q1375.4375,975.7681 1374.75,976.8462 Q1374.0625,977.9087 1374.0625,980.0025 Q1374.0625,982.0962 1374.75,983.1744 Q1375.4375,984.2369 1376.7813,984.2369 Q1377.4063,984.2369 1378,983.9712 Q1378.5938,983.69 1379.2188,983.1119 L1379.2188,985.8306 Z " fill="#000000"/><text fill="#000000" font-family="sans-serif" font-size="14" lengthAdjust="spacing" textLength="43" x="1396.75" y="985.0367">Sewer</text><line style="stroke:#181818;stroke-width:0.5;" x1="1273.5" x2="1530.5" y1="996.19" y2="996.19"/><line style="stroke:#181818;stroke-width:0.5;" x1="1273.5" x2="1530.5" y1="1004.19" y2="1004.19"/><ellipse cx="1283.5" cy="1017.8384" fill="#84BE84" rx="3" ry="3" style="stroke:#038048;stroke-width:1.0;"/><text fill="#000000" font-family="sans-serif" font-size="14" lengthAdjust="spacing" textLength="83" x="1292.5" y="1021.1851">UUID getId()</text><ellipse cx="1283.5" cy="1034.1353" fill="#84BE84" rx="3" ry="3" style="stroke:#038048;stroke-width:1.0;"/><text fill="#000000" font-family="sans-serif" font-size="14" lengthAdjust="spacing" textLength="230" x="1292.5" y="1037.482">KeyPerformanceIndicator getKpi()</text><ellipse cx="1283.5" cy="1050.4322" fill="#84BE84" rx="3" ry="3" style="stroke:#038048;stroke-width:1.0;"/><text fill="#000000" font-family="sans-serif" font-size="14" lengthAdjust="spacing" textLength="206" x="1292.5" y="1053.7789">Set&lt;Problem&gt; getProblems()</text><ellipse cx="1283.5" cy="1066.7291" fill="#84BE84" rx="3" ry="3" style="stroke:#038048;stroke-width:1.0;"/><text fill="#000000" font-family="sans-serif" font-size="14" lengthAdjust="spacing" textLength="233" x="1292.5" y="1070.0757">void setProblems(Set&lt;Problem&gt;)</text></g><!--class KeyPerformanceIndicator--><g id="elem_KeyPerformanceIndicator"><rect codeLine="93" fill="#F1F1F1" height="96.8906" id="KeyPerformanceIndicator" rx="2.5" ry="2.5" style="stroke:#181818;stroke-width:0.5;" width="279" x="1212.5" y="1176.38"/><ellipse cx="1261.75" cy="1192.38" fill="#ADD1B2" rx="11" ry="11" style="stroke:#181818;stroke-width:1.0;"/><path d="M1264.7188,1198.0206 Q1264.1406,1198.3175 1263.5,1198.4581 Q1262.8594,1198.6144 1262.1563,1198.6144 Q1259.6563,1198.6144 1258.3281,1196.9737 Q1257.0156,1195.3175 1257.0156,1192.1925 Q1257.0156,1189.0675 1258.3281,1187.4112 Q1259.6563,1185.755 1262.1563,1185.755 Q1262.8594,1185.755 1263.5,1185.9112 Q1264.1563,1186.0675 1264.7188,1186.3644 L1264.7188,1189.0831 Q1264.0938,1188.505 1263.5,1188.2394 Q1262.9063,1187.9581 1262.2813,1187.9581 Q1260.9375,1187.9581 1260.25,1189.0362 Q1259.5625,1190.0987 1259.5625,1192.1925 Q1259.5625,1194.2862 1260.25,1195.3644 Q1260.9375,1196.4269 1262.2813,1196.4269 Q1262.9063,1196.4269 1263.5,1196.1612 Q1264.0938,1195.88 1264.7188,1195.3019 L1264.7188,1198.0206 Z " fill="#000000"/><text fill="#000000" font-family="sans-serif" font-size="14" lengthAdjust="spacing" textLength="172" x="1282.25" y="1197.2267">KeyPerformanceIndicator</text><line style="stroke:#181818;stroke-width:0.5;" x1="1213.5" x2="1490.5" y1="1208.38" y2="1208.38"/><line style="stroke:#181818;stroke-width:0.5;" x1="1213.5" x2="1490.5" y1="1216.38" y2="1216.38"/><ellipse cx="1223.5" cy="1230.0284" fill="#84BE84" rx="3" ry="3" style="stroke:#038048;stroke-width:1.0;"/><text fill="#000000" font-family="sans-serif" font-size="14" lengthAdjust="spacing" textLength="253" x="1232.5" y="1233.3751">String getPumpPowerConsumption()</text><ellipse cx="1223.5" cy="1246.3253" fill="#84BE84" rx="3" ry="3" style="stroke:#038048;stroke-width:1.0;"/><text fill="#000000" font-family="sans-serif" font-size="14" lengthAdjust="spacing" textLength="108" x="1232.5" y="1249.672">String getFlow()</text><ellipse cx="1223.5" cy="1262.6222" fill="#84BE84" rx="3" ry="3" style="stroke:#038048;stroke-width:1.0;"/><text fill="#000000" font-family="sans-serif" font-size="14" lengthAdjust="spacing" textLength="140" x="1232.5" y="1265.9689">Number getRainfall()</text></g><!--class Problem--><g id="elem_Problem"><rect codeLine="98" fill="#F1F1F1" height="80.5938" id="Problem" rx="2.5" ry="2.5" style="stroke:#181818;stroke-width:0.5;" width="243" x="1548.5" y="1184.53"/><ellipse cx="1637.25" cy="1200.53" fill="#ADD1B2" rx="11" ry="11" style="stroke:#181818;stroke-width:1.0;"/><path d="M1640.2188,1206.1706 Q1639.6406,1206.4675 1639,1206.6081 Q1638.3594,1206.7644 1637.6563,1206.7644 Q1635.1563,1206.7644 1633.8281,1205.1238 Q1632.5156,1203.4675 1632.5156,1200.3425 Q1632.5156,1197.2175 1633.8281,1195.5613 Q1635.1563,1193.905 1637.6563,1193.905 Q1638.3594,1193.905 1639,1194.0613 Q1639.6563,1194.2175 1640.2188,1194.5144 L1640.2188,1197.2331 Q1639.5938,1196.655 1639,1196.3894 Q1638.4063,1196.1081 1637.7813,1196.1081 Q1636.4375,1196.1081 1635.75,1197.1863 Q1635.0625,1198.2488 1635.0625,1200.3425 Q1635.0625,1202.4363 1635.75,1203.5144 Q1636.4375,1204.5769 1637.7813,1204.5769 Q1638.4063,1204.5769 1639,1204.3113 Q1639.5938,1204.03 1640.2188,1203.4519 L1640.2188,1206.1706 Z " fill="#000000"/><text fill="#000000" font-family="sans-serif" font-size="14" lengthAdjust="spacing" textLength="57" x="1657.75" y="1205.3767">Problem</text><line style="stroke:#181818;stroke-width:0.5;" x1="1549.5" x2="1790.5" y1="1216.53" y2="1216.53"/><line style="stroke:#181818;stroke-width:0.5;" x1="1549.5" x2="1790.5" y1="1224.53" y2="1224.53"/><ellipse cx="1559.5" cy="1238.1784" fill="#84BE84" rx="3" ry="3" style="stroke:#038048;stroke-width:1.0;"/><text fill="#000000" font-family="sans-serif" font-size="14" lengthAdjust="spacing" textLength="130" x="1568.5" y="1241.5251">String getReason()</text><ellipse cx="1559.5" cy="1254.4753" fill="#84BE84" rx="3" ry="3" style="stroke:#038048;stroke-width:1.0;"/><text fill="#000000" font-family="sans-serif" font-size="14" lengthAdjust="spacing" textLength="217" x="1568.5" y="1257.822">Number getOverflowIndication()</text></g><!--class SewerIndicationUseCase--><g id="elem_SewerIndicationUseCase"><rect codeLine="102" fill="#F1F1F1" height="64.2969" id="SewerIndicationUseCase" rx="2.5" ry="2.5" style="stroke:#181818;stroke-width:0.5;" width="247" x="819.5" y="349.3"/><ellipse cx="854.3" cy="365.3" fill="#ADD1B2" rx="11" ry="11" style="stroke:#181818;stroke-width:1.0;"/><path d="M857.2688,370.9406 Q856.6906,371.2375 856.05,371.3781 Q855.4094,371.5344 854.7063,371.5344 Q852.2063,371.5344 850.8781,369.8937 Q849.5656,368.2375 849.5656,365.1125 Q849.5656,361.9875 850.8781,360.3312 Q852.2063,358.675 854.7063,358.675 Q855.4094,358.675 856.05,358.8312 Q856.7063,358.9875 857.2688,359.2844 L857.2688,362.0031 Q856.6438,361.425 856.05,361.1594 Q855.4563,360.8781 854.8313,360.8781 Q853.4875,360.8781 852.8,361.9562 Q852.1125,363.0187 852.1125,365.1125 Q852.1125,367.2062 852.8,368.2844 Q853.4875,369.3469 854.8313,369.3469 Q855.4563,369.3469 856.05,369.0812 Q856.6438,368.8 857.2688,368.2219 L857.2688,370.9406 Z " fill="#000000"/><text fill="#000000" font-family="sans-serif" font-size="14" lengthAdjust="spacing" textLength="171" x="872.7" y="370.1467">SewerIndicationUseCase</text><line style="stroke:#181818;stroke-width:0.5;" x1="820.5" x2="1065.5" y1="381.3" y2="381.3"/><line style="stroke:#181818;stroke-width:0.5;" x1="820.5" x2="1065.5" y1="389.3" y2="389.3"/><ellipse cx="830.5" cy="402.9484" fill="#84BE84" rx="3" ry="3" style="stroke:#038048;stroke-width:1.0;"/><text fill="#000000" font-family="sans-serif" font-size="14" lengthAdjust="spacing" textLength="221" x="839.5" y="406.2951">void serve(Map&lt;String, String&gt;)</text></g><!--class SewerObservationUseCase--><g id="elem_SewerObservationUseCase"><rect codeLine="105" fill="#F1F1F1" height="64.2969" id="SewerObservationUseCase" rx="2.5" ry="2.5" style="stroke:#181818;stroke-width:0.5;" width="220" x="1562" y="349.3"/><ellipse cx="1577" cy="365.3" fill="#ADD1B2" rx="11" ry="11" style="stroke:#181818;stroke-width:1.0;"/><path d="M1579.9688,370.9406 Q1579.3906,371.2375 1578.75,371.3781 Q1578.1094,371.5344 1577.4063,371.5344 Q1574.9063,371.5344 1573.5781,369.8937 Q1572.2656,368.2375 1572.2656,365.1125 Q1572.2656,361.9875 1573.5781,360.3312 Q1574.9063,358.675 1577.4063,358.675 Q1578.1094,358.675 1578.75,358.8312 Q1579.4063,358.9875 1579.9688,359.2844 L1579.9688,362.0031 Q1579.3438,361.425 1578.75,361.1594 Q1578.1563,360.8781 1577.5313,360.8781 Q1576.1875,360.8781 1575.5,361.9562 Q1574.8125,363.0187 1574.8125,365.1125 Q1574.8125,367.2062 1575.5,368.2844 Q1576.1875,369.3469 1577.5313,369.3469 Q1578.1563,369.3469 1578.75,369.0812 Q1579.3438,368.8 1579.9688,368.2219 L1579.9688,370.9406 Z " fill="#000000"/><text fill="#000000" font-family="sans-serif" font-size="14" lengthAdjust="spacing" textLength="188" x="1591" y="370.1467">SewerObservationUseCase</text><line style="stroke:#181818;stroke-width:0.5;" x1="1563" x2="1781" y1="381.3" y2="381.3"/><line style="stroke:#181818;stroke-width:0.5;" x1="1563" x2="1781" y1="389.3" y2="389.3"/><ellipse cx="1573" cy="402.9484" fill="#84BE84" rx="3" ry="3" style="stroke:#038048;stroke-width:1.0;"/><text fill="#000000" font-family="sans-serif" font-size="14" lengthAdjust="spacing" textLength="182" x="1582" y="406.2951">Set&lt;Sewer&gt; serve(String)</text></g><!--class SewersUseCase--><g id="elem_SewersUseCase"><rect codeLine="108" fill="#F1F1F1" height="80.5938" id="SewersUseCase" rx="2.5" ry="2.5" style="stroke:#181818;stroke-width:0.5;" width="222" x="1920" y="1369.27"/><ellipse cx="1970.25" cy="1385.27" fill="#B4A7E5" rx="11" ry="11" style="stroke:#181818;stroke-width:1.0;"/><path d="M1966.1719,1381.0356 L1966.1719,1378.8794 L1973.5625,1378.8794 L1973.5625,1381.0356 L1971.0938,1381.0356 L1971.0938,1389.1138 L1973.5625,1389.1138 L1973.5625,1391.27 L1966.1719,1391.27 L1966.1719,1389.1138 L1968.6406,1389.1138 L1968.6406,1381.0356 L1966.1719,1381.0356 Z " fill="#000000"/><text fill="#000000" font-family="sans-serif" font-size="14" font-style="italic" lengthAdjust="spacing" textLength="113" x="1990.75" y="1390.1167">SewersUseCase</text><line style="stroke:#181818;stroke-width:0.5;" x1="1921" x2="2141" y1="1401.27" y2="1401.27"/><line style="stroke:#181818;stroke-width:0.5;" x1="1921" x2="2141" y1="1409.27" y2="1409.27"/><ellipse cx="1931" cy="1422.9184" fill="#84BE84" rx="3" ry="3" style="stroke:#038048;stroke-width:1.0;"/><text fill="#000000" font-family="sans-serif" font-size="14" font-style="italic" lengthAdjust="spacing" textLength="196" x="1940" y="1426.2651">Set&lt;Object&gt; observe(UUID)</text><ellipse cx="1931" cy="1439.2153" fill="#84BE84" rx="3" ry="3" style="stroke:#038048;stroke-width:1.0;"/><text fill="#000000" font-family="sans-serif" font-size="14" font-style="italic" lengthAdjust="spacing" textLength="183" x="1940" y="1442.562">void indicate(UUID, Object)</text></g><!--class SewersUseCaseBridge--><g id="elem_SewersUseCaseBridge"><rect codeLine="112" fill="#F1F1F1" height="80.5938" id="SewersUseCaseBridge" rx="2.5" ry="2.5" style="stroke:#181818;stroke-width:0.5;" width="220" x="1920" y="1184.53"/><ellipse cx="1948.5" cy="1200.53" fill="#ADD1B2" rx="11" ry="11" style="stroke:#181818;stroke-width:1.0;"/><path d="M1951.4688,1206.1706 Q1950.8906,1206.4675 1950.25,1206.6081 Q1949.6094,1206.7644 1948.9063,1206.7644 Q1946.4063,1206.7644 1945.0781,1205.1238 Q1943.7656,1203.4675 1943.7656,1200.3425 Q1943.7656,1197.2175 1945.0781,1195.5613 Q1946.4063,1193.905 1948.9063,1193.905 Q1949.6094,1193.905 1950.25,1194.0613 Q1950.9063,1194.2175 1951.4688,1194.5144 L1951.4688,1197.2331 Q1950.8438,1196.655 1950.25,1196.3894 Q1949.6563,1196.1081 1949.0313,1196.1081 Q1947.6875,1196.1081 1947,1197.1863 Q1946.3125,1198.2488 1946.3125,1200.3425 Q1946.3125,1202.4363 1947,1203.5144 Q1947.6875,1204.5769 1949.0313,1204.5769 Q1949.6563,1204.5769 1950.25,1204.3113 Q1950.8438,1204.03 1951.4688,1203.4519 L1951.4688,1206.1706 Z " fill="#000000"/><text fill="#000000" font-family="sans-serif" font-size="14" lengthAdjust="spacing" textLength="158" x="1965.5" y="1205.3767">SewersUseCaseBridge</text><line style="stroke:#181818;stroke-width:0.5;" x1="1921" x2="2139" y1="1216.53" y2="1216.53"/><line style="stroke:#181818;stroke-width:0.5;" x1="1921" x2="2139" y1="1224.53" y2="1224.53"/><ellipse cx="1931" cy="1238.1784" fill="#84BE84" rx="3" ry="3" style="stroke:#038048;stroke-width:1.0;"/><text fill="#000000" font-family="sans-serif" font-size="14" lengthAdjust="spacing" textLength="194" x="1940" y="1241.5251">Set&lt;Sewer&gt; observe(UUID)</text><ellipse cx="1931" cy="1254.4753" fill="#84BE84" rx="3" ry="3" style="stroke:#038048;stroke-width:1.0;"/><text fill="#000000" font-family="sans-serif" font-size="14" lengthAdjust="spacing" textLength="139" x="1940" y="1257.822">void indicate(Sewer)</text></g><g id="elem_GMN55"><path d="M2318,1008.22 L2318,1033.3528 L2766,1033.3528 L2766,1018.22 L2756,1008.22 L2318,1008.22 " fill="#FEFFDD" style="stroke:#181818;stroke-width:0.5;"/><path d="M2756,1008.22 L2756,1018.22 L2766,1018.22 L2756,1008.22 " fill="#FEFFDD" style="stroke:#181818;stroke-width:1.0;"/><text fill="#000000" font-family="sans-serif" font-size="13" lengthAdjust="spacing" textLength="427" x="2324" y="1025.2869">Invokes other components to build the final indication composition.</text></g><g id="elem_GMN64"><path d="M2318,1212.26 L2318,1237.3928 L2856,1237.3928 L2856,1222.26 L2846,1212.26 L2318,1212.26 " fill="#FEFFDD" style="stroke:#181818;stroke-width:0.5;"/><path d="M2846,1212.26 L2846,1222.26 L2856,1222.26 L2846,1212.26 " fill="#FEFFDD" style="stroke:#181818;stroke-width:1.0;"/><text fill="#000000" font-family="sans-serif" font-size="13" lengthAdjust="spacing" textLength="517" x="2324" y="1229.3269">Represents the abstract functionality only; implementation details are elsewhere.</text></g><g id="elem_GMN74"><path d="M3459.5,368.88 L3459.5,394.0128 L3930.5,394.0128 L3930.5,378.88 L3920.5,368.88 L3459.5,368.88 " fill="#FEFFDD" style="stroke:#181818;stroke-width:0.5;"/><path d="M3920.5,368.88 L3920.5,378.88 L3930.5,378.88 L3920.5,368.88 " fill="#FEFFDD" style="stroke:#181818;stroke-width:1.0;"/><text fill="#000000" font-family="sans-serif" font-size="13" lengthAdjust="spacing" textLength="450" x="3465.5" y="385.9469">Frameworks and tools such as the Database, the Web Framework, etc.</text></g><g id="elem_GMN77"><path d="M2318,368.88 L2318,394.0128 L3424,394.0128 L3424,378.88 L3414,368.88 L2318,368.88 " fill="#FEFFDD" style="stroke:#181818;stroke-width:0.5;"/><path d="M3414,368.88 L3414,378.88 L3424,378.88 L3414,368.88 " fill="#FEFFDD" style="stroke:#181818;stroke-width:1.0;"/><text fill="#000000" font-family="sans-serif" font-size="13" lengthAdjust="spacing" textLength="1085" x="2324" y="385.9469">Convert data from the format most convenient for the use cases and entities, to the format most convenient for some external agency such as the Database or the Web.</text></g><g id="elem_GMN80"><path d="M2317.5,610.18 L2317.5,635.3128 L2990.5,635.3128 L2990.5,620.18 L2980.5,610.18 L2317.5,610.18 " fill="#FEFFDD" style="stroke:#181818;stroke-width:0.5;"/><path d="M2980.5,610.18 L2980.5,620.18 L2990.5,620.18 L2980.5,610.18 " fill="#FEFFDD" style="stroke:#181818;stroke-width:1.0;"/><text fill="#000000" font-family="sans-serif" font-size="13" lengthAdjust="spacing" textLength="652" x="2323.5" y="627.2469">Application specific business rules. It encapsulates and implements all of the use cases of the system.</text></g><g id="elem_GMN83"><path d="M2318.5,734.48 L2318.5,759.6128 L3257.5,759.6128 L3257.5,744.48 L3247.5,734.48 L2318.5,734.48 " fill="#FEFFDD" style="stroke:#181818;stroke-width:0.5;"/><path d="M3247.5,734.48 L3247.5,744.48 L3257.5,744.48 L3247.5,734.48 " fill="#FEFFDD" style="stroke:#181818;stroke-width:1.0;"/><text fill="#000000" font-family="sans-serif" font-size="13" lengthAdjust="spacing" textLength="918" x="2324.5" y="751.5469">Entities encapsulate Enterprise wide business rules. An entity can be an object with methods, or it can be a set of data structures and functions.</text></g><!--link SewerOverflowIndicationComponent to GMN55--><g id="link_SewerOverflowIndicationComponent_GMN55"><path d="M923,779.56 C923,816.6 923,872.05 923,872.05 C923,872.05 2542.25,872.05 2542.25,872.05 C2542.25,872.05 2542.25,971.66 2542.25,1007.85 " fill="none" id="SewerOverflowIndicationComponent-GMN55" style="stroke:#181818;stroke-width:1.0;stroke-dasharray:7.0,7.0;"/></g><!--link Sewers to GMN64--><g id="link_Sewers_GMN64"><path d="M1787.43,1043.05 C2020.62,1043.05 2542,1043.05 2542,1043.05 C2542,1043.05 2542,1170.67 2542,1212.04 " fill="none" id="Sewers-GMN64" style="stroke:#181818;stroke-width:1.0;stroke-dasharray:7.0,7.0;"/></g><!--link drivers to GMN74--><g id="link_drivers_GMN74"><path d="M2294.9309,184.05 C2295.4192,184.05 2295.9268,184.05 2296.4535,184.05 C2298.5605,184.05 2300.9743,184.05 2303.6843,184.05 C2314.524,184.05 2330.1021,184.05 2349.7385,184.05 C2389.0114,184.05 2444.5177,184.05 2510.818,184.05 C2643.4184,184.05 2819.1944,184.05 2994.6288,184.05 C3345.4975,184.05 3695,184.05 3695,184.05 C3695,184.05 3695,324.58 3695,368.5 " fill="none" id="drivers-GMN74" style="stroke:#181818;stroke-width:1.0;stroke-dasharray:7.0,7.0;"/></g><!--link adapters to GMN77--><g id="link_adapters_GMN77"><path d="M2246.068,375.05 C2246.1362,375.05 2246.2049,375.05 2246.2739,375.05 C2246.412,375.05 2246.5517,375.05 2246.6931,375.05 C2247.8241,375.05 2249.0598,375.05 2250.3968,375.05 C2253.0708,375.05 2256.15,375.05 2259.6075,375.05 C2273.4375,375.05 2293.32,375.05 2317.53,375.05 " fill="none" id="adapters-GMN77" style="stroke:#181818;stroke-width:1.0;stroke-dasharray:7.0,7.0;"/></g><!--link use_cases to GMN80--><g id="link_use_cases_GMN80"><path d="M2198.0264,616.05 C2198.2059,616.05 2198.3881,616.05 2198.5732,616.05 C2198.9435,616.05 2199.3249,616.05 2199.7175,616.05 C2205.9987,616.05 2215.125,616.05 2226.505,616.05 C2249.265,616.05 2281.04,616.05 2317.1,616.05 " fill="none" id="use_cases-GMN80" style="stroke:#181818;stroke-width:1.0;stroke-dasharray:7.0,7.0;"/></g><!--link entities to GMN83--><g id="link_entities_GMN83"><path d="M1872.3698,747.05 C1872.5584,747.05 1872.7502,747.05 1872.945,747.05 C1873.3345,747.05 1873.7363,747.05 1874.1501,747.05 C1880.7715,747.05 1890.4855,747.05 1902.8559,747.05 C1927.5969,747.05 1962.9638,747.05 2005.4675,747.05 C2090.475,747.05 2204.03,747.05 2318.22,747.05 " fill="none" id="entities-GMN83" style="stroke:#181818;stroke-width:1.0;stroke-dasharray:7.0,7.0;"/></g><!--link SewerIndicationAdapter to SewerIndicationUseCase--><g id="link_SewerIndicationAdapter_SewerIndicationUseCase"><path codeLine="128" d="M943,215.45 C943,252.22 943,305.94 943,342.83 " fill="none" id="SewerIndicationAdapter-to-SewerIndicationUseCase" style="stroke:#181818;stroke-width:1.0;"/><polygon fill="#181818" points="943,348.83,947,339.83,943,343.83,939,339.83,943,348.83" style="stroke:#181818;stroke-width:1.0;"/></g><!--link SewerObservationAdapter to SewerObservationUseCase--><g id="link_SewerObservationAdapter_SewerObservationUseCase"><path codeLine="129" d="M1672,215.45 C1672,252.22 1672,305.94 1672,342.83 " fill="none" id="SewerObservationAdapter-to-SewerObservationUseCase" style="stroke:#181818;stroke-width:1.0;"/><polygon fill="#181818" points="1672,348.83,1676,339.83,1672,343.83,1668,339.83,1672,348.83" style="stroke:#181818;stroke-width:1.0;"/></g><!--reverse link SewersUseCase to SewersAdapterBridge--><g id="link_SewersUseCase_SewersAdapterBridge"><path codeLine="130" d="M2031,1468.09 C2031,1501.66 2031,1531.13 2031,1564.68 " fill="none" id="SewersUseCase-backto-SewersAdapterBridge" style="stroke:#181818;stroke-width:1.0;stroke-dasharray:7.0,7.0;"/><polygon fill="none" points="2031,1450.09,2025,1468.09,2037,1468.09,2031,1450.09" style="stroke:#181818;stroke-width:1.0;"/></g><!--link SewersAdapterBridge to SewersAdapter--><g id="link_SewersAdapterBridge_SewersAdapter"><path codeLine="131" d="M2031,1645.82 C2031,1664.48 2031,1680.54 2031,1699.18 " fill="none" id="SewersAdapterBridge-to-SewersAdapter" style="stroke:#181818;stroke-width:1.0;"/><polygon fill="#181818" points="2031,1705.18,2035,1696.18,2031,1700.18,2027,1696.18,2031,1705.18" style="stroke:#181818;stroke-width:1.0;"/></g><!--link SewerOverflowIndicationService to SewerOverflowIndicationComponent--><g id="link_SewerOverflowIndicationService_SewerOverflowIndicationComponent"><path codeLine="132" d="M943,655.08 C943,673.35 943,690.12 943,708.44 " fill="none" id="SewerOverflowIndicationService-to-SewerOverflowIndicationComponent" style="stroke:#181818;stroke-width:1.0;"/><polygon fill="#181818" points="943,714.44,947,705.44,943,709.44,939,705.44,943,714.44" style="stroke:#181818;stroke-width:1.0;"/></g><!--link SewerOverflowIndicationComponent to FlowIndicationComponent--><g id="link_SewerOverflowIndicationComponent_FlowIndicationComponent"><path codeLine="133" d="M801.83,747.05 C621.09,747.05 331,747.05 331,747.05 C331,747.05 331,909.8 331,982.31 " fill="none" id="SewerOverflowIndicationComponent-to-FlowIndicationComponent" style="stroke:#181818;stroke-width:1.0;"/><polygon fill="#181818" points="331,988.31,335,979.31,331,983.31,327,979.31,331,988.31" style="stroke:#181818;stroke-width:1.0;"/></g><!--link SewerOverflowIndicationComponent to Sewers--><g id="link_SewerOverflowIndicationComponent_Sewers"><path codeLine="134" d="M1084.48,747.05 C1261.02,747.05 1540,747.05 1540,747.05 C1540,747.05 1540,1021.05 1540,1021.05 C1540,1021.05 1544.99,1021.05 1560.74,1021.05 " fill="none" id="SewerOverflowIndicationComponent-to-Sewers" style="stroke:#181818;stroke-width:1.0;"/><polygon fill="#181818" points="1566.74,1021.05,1557.74,1017.05,1561.74,1021.05,1557.74,1025.05,1566.74,1021.05" style="stroke:#181818;stroke-width:1.0;"/></g><!--link SewerOverflowIndicationComponent to PumpIndicationComponent--><g id="link_SewerOverflowIndicationComponent_PumpIndicationComponent"><path codeLine="135" d="M822.25,779.55 C822.25,852.13 822.25,1021.05 822.25,1021.05 C822.25,1021.05 813.14,1021.05 791.94,1021.05 " fill="none" id="SewerOverflowIndicationComponent-to-PumpIndicationComponent" style="stroke:#181818;stroke-width:1.0;"/><polygon fill="#181818" points="785.94,1021.05,794.94,1025.05,790.94,1021.05,794.94,1017.05,785.94,1021.05" style="stroke:#181818;stroke-width:1.0;"/></g><!--link SewerOverflowIndicationComponent to RainIndicationComponent--><g id="link_SewerOverflowIndicationComponent_RainIndicationComponent"><path codeLine="136" d="M1003.5,779.52 C1003.5,832.2 1003.5,929.69 1003.5,982.35 " fill="none" id="SewerOverflowIndicationComponent-to-RainIndicationComponent" style="stroke:#181818;stroke-width:1.0;"/><polygon fill="#181818" points="1003.5,988.35,1007.5,979.35,1003.5,983.35,999.5,979.35,1003.5,988.35" style="stroke:#181818;stroke-width:1.0;"/></g><!--link SewerObservationService to SewerObservationComponent--><g id="link_SewerObservationService_SewerObservationComponent"><path codeLine="137" d="M1672,655.08 C1672,673.35 1672,690.12 1672,708.44 " fill="none" id="SewerObservationService-to-SewerObservationComponent" style="stroke:#181818;stroke-width:1.0;"/><polygon fill="#181818" points="1672,714.44,1676,705.44,1672,709.44,1668,705.44,1672,714.44" style="stroke:#181818;stroke-width:1.0;"/></g><!--link SewerObservationComponent to Sewers--><g id="link_SewerObservationComponent_Sewers"><path codeLine="138" d="M1677,779.52 C1677,829.65 1677,919.8 1677,974.36 " fill="none" id="SewerObservationComponent-to-Sewers" style="stroke:#181818;stroke-width:1.0;"/><polygon fill="#181818" points="1677,980.36,1681,971.36,1677,975.36,1673,971.36,1677,980.36" style="stroke:#181818;stroke-width:1.0;"/></g><!--link Sewer to Problem--><g id="link_Sewer_Problem"><path codeLine="139" d="M1531.7,1070.05 C1548.22,1070.05 1559.5,1070.05 1559.5,1070.05 C1559.5,1070.05 1559.5,1132.3 1559.5,1178.16 " fill="none" id="Sewer-to-Problem" style="stroke:#181818;stroke-width:1.0;"/><polygon fill="#181818" points="1559.5,1184.16,1563.5,1175.16,1559.5,1179.16,1555.5,1175.16,1559.5,1184.16" style="stroke:#181818;stroke-width:1.0;"/></g><!--link Sewer to KeyPerformanceIndicator--><g id="link_Sewer_KeyPerformanceIndicator"><path codeLine="140" d="M1382,1077.62 C1382,1108.51 1382,1140.34 1382,1169.91 " fill="none" id="Sewer-to-KeyPerformanceIndicator" style="stroke:#181818;stroke-width:1.0;"/><polygon fill="#181818" points="1382,1175.91,1386,1166.91,1382,1170.91,1378,1166.91,1382,1175.91" style="stroke:#181818;stroke-width:1.0;"/></g><!--link SewerIndicationUseCase to SewerOverflowIndicationService--><g id="link_SewerIndicationUseCase_SewerOverflowIndicationService"><path codeLine="141" d="M943,413.99 C943,460.17 943,538.22 943,584.33 " fill="none" id="SewerIndicationUseCase-to-SewerOverflowIndicationService" style="stroke:#181818;stroke-width:1.0;"/><polygon fill="#181818" points="943,590.33,947,581.33,943,585.33,939,581.33,943,590.33" style="stroke:#181818;stroke-width:1.0;"/></g><!--link SewerObservationUseCase to SewerObservationService--><g id="link_SewerObservationUseCase_SewerObservationService"><path codeLine="142" d="M1672,413.99 C1672,460.17 1672,538.22 1672,584.33 " fill="none" id="SewerObservationUseCase-to-SewerObservationService" style="stroke:#181818;stroke-width:1.0;"/><polygon fill="#181818" points="1672,590.33,1676,581.33,1672,585.33,1668,581.33,1672,590.33" style="stroke:#181818;stroke-width:1.0;"/></g><!--reverse link Sewers to SewersUseCaseBridge--><g id="link_Sewers_SewersUseCaseBridge"><path codeLine="143" d="M1805.24,1052.05 C1908.81,1052.05 2030,1052.05 2030,1052.05 C2030,1052.05 2030,1133.25 2030,1184.32 " fill="none" id="Sewers-backto-SewersUseCaseBridge" style="stroke:#181818;stroke-width:1.0;stroke-dasharray:7.0,7.0;"/><polygon fill="none" points="1787.24,1052.05,1805.24,1058.05,1805.24,1046.05,1787.24,1052.05" style="stroke:#181818;stroke-width:1.0;"/></g><!--link SewersUseCaseBridge to SewersUseCase--><g id="link_SewersUseCaseBridge_SewersUseCase"><path codeLine="144" d="M2030,1265.37 C2030,1296.06 2030,1332.05 2030,1362.8 " fill="none" id="SewersUseCaseBridge-to-SewersUseCase" style="stroke:#181818;stroke-width:1.0;"/><polygon fill="#181818" points="2030,1368.8,2034,1359.8,2030,1363.8,2026,1359.8,2030,1368.8" style="stroke:#181818;stroke-width:1.0;"/></g><!--SRC=[tLbDR-Cs4BthLx3snK6pH57qqA0B0zdi1Z0MRO84GOyBIg9irX8fa5IyHfh_tg4-RCdwY6oBskwUR4lap7kFv0nd_5CioJ8YA55qmJML4VKPqVIUU6kof0e595JKKMl6Oo99X4B6gTx650cfLy9HAx512kPHOPuwSJOFARgX4X65V8ez4SM4Rt4iXKv7uUpjTBDYcgANrzqiNx9dAbNtF5oCcghrrWsJYWNYarZtDe5tmwU__ne4xczbKupxp0CfZZI5T_Fg_5oHS9_8xQacySx0D6HHnRHm5PNFHuCjfWs7DRVO0VLKo-bZrM4Ozl0NZoXwxEhZ_SHf45oHgwkoLSerq-mCetXdOHfuWU_-CiGkgrktiV4wl7IiWoUubYAquGmNjgT24hwqJZ88nMPSfXMFOzEDaoWUbsx5uzXq9M5yNBeLZrrqJupd3Rw73_7jJaOHyz1NbumzxY6zVBRTM0QKC1ivXe1LJrtofLEsrbpYt7v3NXnSs7NCHXItx6r4WPlSZYaop7H36eqezA774SLkSzqX-FctFQkNF7jrnjw7pNHah_RO-sYjGXml94gXoQCPiCYKP89VPoOcPzTykDamUd4G-lbPC1-bv6UFMZA-l71UAu3kKcdEGbJBkos6CqIFLB-_S_-XdfxNW37JQGY8HtDmwbH81uk1AzOo7EY5k4fBukdNCgISpEpfQV7nuc1SAcQXVphY4cNp3bKjN7sGp5_IOU5dDkjYrf3tXti7xarziTz4Zs2AUSSZxrMhTVkiRTm_IVm-soENAFkSlqtW1X0B3Y0cDijD_9Rt4XdwbNg9RgN3XJPXI6iH8H5yEyJEWZ-BDLL8w1MS5Qzuhf0Mo4rOw2DuWGB6ILZiBfYV3LJCVCSEvJuoX8f5kXrXRHeBP7nxxhha3EwX7hNDeB7cnIsUZsRm02McRGQDPInkyNmqWyEyCc2GUZE7LOAJ2RlfW7dVt3get6s5BcxrMeDT2DwHUoV3btUPuSRyc-FgdtxJ2SC7paR4pWED9LLP58JWLq12GS8z8pG9pSLUy73x1s9H3BT_69l5HPzgmaA5Y8H28mJp45LfFKAcZYQsA-gCJxO0HcAqf7hXprAbFzFjFUm08IF2FPgVLo7DaCynoyQObRhFofkvUP5_LxEBKixUFoqFBnsE5a-JCSfTt4OpEo7fSKYPGTIz5s3iHd05tyrQvXhinfZSaZtxAubScafbObr0md1MpXsP19EnAaoSEppaz429AbZi4TVl0hF3GBP_zQJe3I2Q35XBucON9rq3zw7lVA1lfeGAq8wKK8kivsDhBX0gWEpMDxch4-kRdaGEAvss735KOd1k9OdeHiWrX6k8pre82DmgyLQ6e0dy7uacBY2xJ7_zJLsqctA9gFPASVtqjEH0o8476ldW3GKI3AGtRXEoD8g4qgPRzamvCvaT7gUlGLEK_ya948g0SMbkxM_CLYA2rFGLN9ihFLbIxcqRMQFS5V0UXEX-7pZNSHmMbOIAgSS2va6reHYdiEba4i9UGGiDl3mIgoI4XSw8xh8j_0n30w0gHlv0RPM6W3aiwbrOTZuL_-IMyA5Fvjp7aW6M3VDfZSurBpgF7k78XMi5XxrjZXkCroiKKRqIFYmXoCxqRf39i2baiplWv2QUJcIkHd4VKIMcLffBxzxDBST_nqeBwdJSVTE1CtIZ1oVutxcDy3euqcF5xRJfZDrsEdrh3D5r-NOTgY5v7zM3-RuvDnUAFyOo7jM8-a4u7zMwSiPgDmt0yFXkaJD-V-h_UY3xT5C6mzwphF-kE9tGYd4iDnQi9FhkouLZkGLX8qoqX2J7Ng5_patNIXZe0_fqwJkj_mS0]--></g></svg>