<svg xmlns="http://www.w3.org/2000/svg" xmlns:xlink="http://www.w3.org/1999/xlink" contentStyleType="text/css" height="1798px" preserveAspectRatio="none" style="width:1869px;height:1798px;background:#FFFFFF;" version="1.1" viewBox="0 0 1869 1798" width="1869px" zoomAndPan="magnify"><defs/><g><!--cluster adapters--><g id="cluster_adapters"><path d="M8.5,6 L379.5,6 A3.75,3.75 0 0 1 382,8.5 L389,28.2969 L1859.5,28.2969 A2.5,2.5 0 0 1 1862,30.7969 L1862,1788.84 A2.5,2.5 0 0 1 1859.5,1791.34 L8.5,1791.34 A2.5,2.5 0 0 1 6,1788.84 L6,8.5 A2.5,2.5 0 0 1 8.5,6 " fill="#82FFB4" style="stroke:#000000;stroke-width:1.5;"/><line style="stroke:#000000;stroke-width:1.5;" x1="6" x2="389" y1="28.2969" y2="28.2969"/><text fill="#000000" font-family="sans-serif" font-size="14" font-weight="bold" lengthAdjust="spacing" textLength="370" x="10" y="20.9951">de.company.prototype.sewer.drivers.adapters</text></g><!--cluster boundary--><g id="cluster_boundary"><path d="M177.5,49 L320.5,49 A3.75,3.75 0 0 1 323,51.5 L330,71.2969 L398.5,71.2969 A2.5,2.5 0 0 1 401,73.7969 L401,161.79 A2.5,2.5 0 0 1 398.5,164.29 L177.5,164.29 A2.5,2.5 0 0 1 175,161.79 L175,51.5 A2.5,2.5 0 0 1 177.5,49 " fill="#00FF00" style="stroke:#000000;stroke-width:1.5;"/><line style="stroke:#000000;stroke-width:1.5;" x1="175" x2="330" y1="71.2969" y2="71.2969"/><text fill="#000000" font-family="sans-serif" font-size="14" font-weight="bold" lengthAdjust="spacing" textLength="142" x="179" y="63.9951">indicate.boundary</text></g><!--cluster boundary--><g id="cluster_boundary"><path d="M1596.5,231.29 L1742.5,231.29 A3.75,3.75 0 0 1 1745,233.79 L1752,253.5869 L1835.5,253.5869 A2.5,2.5 0 0 1 1838,256.0869 L1838,344.09 A2.5,2.5 0 0 1 1835.5,346.59 L1596.5,346.59 A2.5,2.5 0 0 1 1594,344.09 L1594,233.79 A2.5,2.5 0 0 1 1596.5,231.29 " fill="#00FF00" style="stroke:#000000;stroke-width:1.5;"/><line style="stroke:#000000;stroke-width:1.5;" x1="1594" x2="1752" y1="253.5869" y2="253.5869"/><text fill="#000000" font-family="sans-serif" font-size="14" font-weight="bold" lengthAdjust="spacing" textLength="145" x="1598" y="246.2851">observe.boundary</text></g><!--cluster boundary--><g id="cluster_boundary"><path d="M1294.5,1495.15 L1434.5,1495.15 A3.75,3.75 0 0 1 1437,1497.65 L1444,1517.4469 L1543.5,1517.4469 A2.5,2.5 0 0 1 1546,1519.9469 L1546,1764.84 A2.5,2.5 0 0 1 1543.5,1767.34 L1294.5,1767.34 A2.5,2.5 0 0 1 1292,1764.84 L1292,1497.65 A2.5,2.5 0 0 1 1294.5,1495.15 " fill="#00FF00" style="stroke:#000000;stroke-width:1.5;"/><line style="stroke:#000000;stroke-width:1.5;" x1="1292" x2="1444" y1="1517.4469" y2="1517.4469"/><text fill="#000000" font-family="sans-serif" font-size="14" font-weight="bold" lengthAdjust="spacing" textLength="139" x="1296" y="1510.1451">sewers.boundary</text></g><!--cluster use_cases--><g id="cluster_use_cases"><path d="M32.5,188.29 L115.5,188.29 A3.75,3.75 0 0 1 118,190.79 L125,210.5869 L1567.5,210.5869 A2.5,2.5 0 0 1 1570,213.0869 L1570,1468.65 A2.5,2.5 0 0 1 1567.5,1471.15 L32.5,1471.15 A2.5,2.5 0 0 1 30,1468.65 L30,190.79 A2.5,2.5 0 0 1 32.5,188.29 " fill="#FF9A99" style="stroke:#000000;stroke-width:1.5;"/><line style="stroke:#000000;stroke-width:1.5;" x1="30" x2="125" y1="210.5869" y2="210.5869"/><text fill="#000000" font-family="sans-serif" font-size="14" font-weight="bold" lengthAdjust="spacing" textLength="82" x="34" y="203.2851">use_cases</text></g><!--cluster entities--><g id="cluster_entities"><path d="M56.5,370.59 L116.5,370.59 A3.75,3.75 0 0 1 119,373.09 L126,392.8869 L1265.5,392.8869 A2.5,2.5 0 0 1 1268,395.3869 L1268,1332.06 A2.5,2.5 0 0 1 1265.5,1334.56 L56.5,1334.56 A2.5,2.5 0 0 1 54,1332.06 L54,373.09 A2.5,2.5 0 0 1 56.5,370.59 " fill="#FCFDB0" style="stroke:#000000;stroke-width:1.5;"/><line style="stroke:#000000;stroke-width:1.5;" x1="54" x2="126" y1="392.8869" y2="392.8869"/><text fill="#000000" font-family="sans-serif" font-size="14" font-weight="bold" lengthAdjust="spacing" textLength="59" x="58" y="385.5851">entities</text></g><!--cluster boundary--><g id="cluster_boundary"><path d="M80.5,413.59 L223.5,413.59 A3.75,3.75 0 0 1 226,416.09 L233,435.8869 L871.5,435.8869 A2.5,2.5 0 0 1 874,438.3869 L874,813.98 A2.5,2.5 0 0 1 871.5,816.48 L80.5,816.48 A2.5,2.5 0 0 1 78,813.98 L78,416.09 A2.5,2.5 0 0 1 80.5,413.59 " fill="#00FF00" style="stroke:#000000;stroke-width:1.5;"/><line style="stroke:#000000;stroke-width:1.5;" x1="78" x2="233" y1="435.8869" y2="435.8869"/><text fill="#000000" font-family="sans-serif" font-size="14" font-weight="bold" lengthAdjust="spacing" textLength="142" x="82" y="428.5851">indicate.boundary</text></g><!--cluster control--><g id="cluster_control"><path d="M104.5,552.89 L161.5,552.89 A3.75,3.75 0 0 1 164,555.39 L171,575.1869 L847.5,575.1869 A2.5,2.5 0 0 1 850,577.6869 L850,789.98 A2.5,2.5 0 0 1 847.5,792.48 L104.5,792.48 A2.5,2.5 0 0 1 102,789.98 L102,555.39 A2.5,2.5 0 0 1 104.5,552.89 " fill="#FFA500" style="stroke:#000000;stroke-width:1.5;"/><line style="stroke:#000000;stroke-width:1.5;" x1="102" x2="171" y1="575.1869" y2="575.1869"/><text fill="#000000" font-family="sans-serif" font-size="14" font-weight="bold" lengthAdjust="spacing" textLength="56" x="106" y="567.8851">control</text></g><!--cluster boundary--><g id="cluster_boundary"><path d="M926.5,552.89 L1072.5,552.89 A3.75,3.75 0 0 1 1075,555.39 L1082,575.1869 L1241.5,575.1869 A2.5,2.5 0 0 1 1244,577.6869 L1244,813.98 A2.5,2.5 0 0 1 1241.5,816.48 L926.5,816.48 A2.5,2.5 0 0 1 924,813.98 L924,555.39 A2.5,2.5 0 0 1 926.5,552.89 " fill="#00FF00" style="stroke:#000000;stroke-width:1.5;"/><line style="stroke:#000000;stroke-width:1.5;" x1="924" x2="1082" y1="575.1869" y2="575.1869"/><text fill="#000000" font-family="sans-serif" font-size="14" font-weight="bold" lengthAdjust="spacing" textLength="145" x="928" y="567.8851">observe.boundary</text></g><!--cluster control--><g id="cluster_control"><path d="M950.5,677.18 L1007.5,677.18 A3.75,3.75 0 0 1 1010,679.68 L1017,699.4769 L1217.5,699.4769 A2.5,2.5 0 0 1 1220,701.9769 L1220,789.98 A2.5,2.5 0 0 1 1217.5,792.48 L950.5,792.48 A2.5,2.5 0 0 1 948,789.98 L948,679.68 A2.5,2.5 0 0 1 950.5,677.18 " fill="#FFA500" style="stroke:#000000;stroke-width:1.5;"/><line style="stroke:#000000;stroke-width:1.5;" x1="948" x2="1017" y1="699.4769" y2="699.4769"/><text fill="#000000" font-family="sans-serif" font-size="14" font-weight="bold" lengthAdjust="spacing" textLength="56" x="952" y="692.1751">control</text></g><!--cluster sewer--><g id="cluster_sewer"><path d="M401.5,840.48 L452.5,840.48 A3.75,3.75 0 0 1 455,842.98 L462,862.7769 L1056.5,862.7769 A2.5,2.5 0 0 1 1059,865.2769 L1059,1308.06 A2.5,2.5 0 0 1 1056.5,1310.56 L401.5,1310.56 A2.5,2.5 0 0 1 399,1308.06 L399,842.98 A2.5,2.5 0 0 1 401.5,840.48 " fill="none" style="stroke:#000000;stroke-width:1.5;"/><line style="stroke:#000000;stroke-width:1.5;" x1="399" x2="462" y1="862.7769" y2="862.7769"/><text fill="#000000" font-family="sans-serif" font-size="14" font-weight="bold" lengthAdjust="spacing" textLength="50" x="403" y="855.4751">sewer</text></g><!--cluster boundary--><g id="cluster_boundary"><path d="M446.5,883.48 L522.5,883.48 A3.75,3.75 0 0 1 525,885.98 L532,905.7769 L1011.5,905.7769 A2.5,2.5 0 0 1 1014,908.2769 L1014,1112.17 A2.5,2.5 0 0 1 1011.5,1114.67 L446.5,1114.67 A2.5,2.5 0 0 1 444,1112.17 L444,885.98 A2.5,2.5 0 0 1 446.5,883.48 " fill="#00FF00" style="stroke:#000000;stroke-width:1.5;"/><line style="stroke:#000000;stroke-width:1.5;" x1="444" x2="532" y1="905.7769" y2="905.7769"/><text fill="#000000" font-family="sans-serif" font-size="14" font-weight="bold" lengthAdjust="spacing" textLength="75" x="448" y="898.4751">boundary</text></g><!--cluster entity--><g id="cluster_entity"><path d="M470.5,926.48 L577.5,926.48 A3.75,3.75 0 0 1 580,928.98 L587,948.7769 L755.5,948.7769 A2.5,2.5 0 0 1 758,951.2769 L758,1088.17 A2.5,2.5 0 0 1 755.5,1090.67 L470.5,1090.67 A2.5,2.5 0 0 1 468,1088.17 L468,928.98 A2.5,2.5 0 0 1 470.5,926.48 " fill="#FCFDB0" style="stroke:#000000;stroke-width:1.5;"/><line style="stroke:#000000;stroke-width:1.5;" x1="468" x2="587" y1="948.7769" y2="948.7769"/><text fill="#000000" font-family="sans-serif" font-size="14" font-weight="bold" lengthAdjust="spacing" textLength="106" x="472" y="941.4751">control.entity</text></g><!--cluster entity--><g id="cluster_entity"><path d="M425.5,1138.67 L640.5,1138.67 A3.75,3.75 0 0 1 643,1141.17 L650,1160.9669 L732.5,1160.9669 A2.5,2.5 0 0 1 735,1163.4669 L735,1284.06 A2.5,2.5 0 0 1 732.5,1286.56 L425.5,1286.56 A2.5,2.5 0 0 1 423,1284.06 L423,1141.17 A2.5,2.5 0 0 1 425.5,1138.67 " fill="#FCFDB0" style="stroke:#000000;stroke-width:1.5;"/><line style="stroke:#000000;stroke-width:1.5;" x1="423" x2="650" y1="1160.9669" y2="1160.9669"/><text fill="#000000" font-family="sans-serif" font-size="14" font-weight="bold" lengthAdjust="spacing" textLength="214" x="427" y="1153.6651">kpi.boundary.control.entity</text></g><!--cluster entity--><g id="cluster_entity"><path d="M761.5,1146.82 L1018.5,1146.82 A3.75,3.75 0 0 1 1021,1149.32 L1028,1169.1169 L1032.5,1169.1169 A2.5,2.5 0 0 1 1035,1171.6169 L1035,1275.91 A2.5,2.5 0 0 1 1032.5,1278.41 L761.5,1278.41 A2.5,2.5 0 0 1 759,1275.91 L759,1149.32 A2.5,2.5 0 0 1 761.5,1146.82 " fill="#FCFDB0" style="stroke:#000000;stroke-width:1.5;"/><line style="stroke:#000000;stroke-width:1.5;" x1="759" x2="1028" y1="1169.1169" y2="1169.1169"/><text fill="#000000" font-family="sans-serif" font-size="14" font-weight="bold" lengthAdjust="spacing" textLength="256" x="763" y="1161.8151">problem.boundary.control.entity</text></g><!--cluster boundary--><g id="cluster_boundary"><path d="M173.5,231.29 L316.5,231.29 A3.75,3.75 0 0 1 319,233.79 L326,253.5869 L402.5,253.5869 A2.5,2.5 0 0 1 405,256.0869 L405,344.09 A2.5,2.5 0 0 1 402.5,346.59 L173.5,346.59 A2.5,2.5 0 0 1 171,344.09 L171,233.79 A2.5,2.5 0 0 1 173.5,231.29 " fill="#00FF00" style="stroke:#000000;stroke-width:1.5;"/><line style="stroke:#000000;stroke-width:1.5;" x1="171" x2="326" y1="253.5869" y2="253.5869"/><text fill="#000000" font-family="sans-serif" font-size="14" font-weight="bold" lengthAdjust="spacing" textLength="142" x="175" y="246.2851">indicate.boundary</text></g><!--cluster boundary--><g id="cluster_boundary"><path d="M1295.5,413.59 L1441.5,413.59 A3.75,3.75 0 0 1 1444,416.09 L1451,435.8869 L1542.5,435.8869 A2.5,2.5 0 0 1 1545,438.3869 L1545,526.39 A2.5,2.5 0 0 1 1542.5,528.89 L1295.5,528.89 A2.5,2.5 0 0 1 1293,526.39 L1293,416.09 A2.5,2.5 0 0 1 1295.5,413.59 " fill="#00FF00" style="stroke:#000000;stroke-width:1.5;"/><line style="stroke:#000000;stroke-width:1.5;" x1="1293" x2="1451" y1="435.8869" y2="435.8869"/><text fill="#000000" font-family="sans-serif" font-size="14" font-weight="bold" lengthAdjust="spacing" textLength="145" x="1297" y="428.5851">observe.boundary</text></g><!--cluster boundary--><g id="cluster_boundary"><path d="M1294.5,1146.82 L1434.5,1146.82 A3.75,3.75 0 0 1 1437,1149.32 L1444,1169.1169 L1543.5,1169.1169 A2.5,2.5 0 0 1 1546,1171.6169 L1546,1444.65 A2.5,2.5 0 0 1 1543.5,1447.15 L1294.5,1447.15 A2.5,2.5 0 0 1 1292,1444.65 L1292,1149.32 A2.5,2.5 0 0 1 1294.5,1146.82 " fill="#00FF00" style="stroke:#000000;stroke-width:1.5;"/><line style="stroke:#000000;stroke-width:1.5;" x1="1292" x2="1444" y1="1169.1169" y2="1169.1169"/><text fill="#000000" font-family="sans-serif" font-size="14" font-weight="bold" lengthAdjust="spacing" textLength="139" x="1296" y="1161.8151">sewers.boundary</text></g><!--class SewerIndicationAdapter--><g id="elem_SewerIndicationAdapter"><rect codeLine="28" fill="#F1F1F1" height="64.2969" id="SewerIndicationAdapter" rx="2.5" ry="2.5" style="stroke:#181818;stroke-width:0.5;" width="195" x="190.5" y="84"/><ellipse cx="205.5" cy="100" fill="#ADD1B2" rx="11" ry="11" style="stroke:#181818;stroke-width:1.0;"/><path d="M208.4688,105.6406 Q207.8906,105.9375 207.25,106.0781 Q206.6094,106.2344 205.9063,106.2344 Q203.4063,106.2344 202.0781,104.5938 Q200.7656,102.9375 200.7656,99.8125 Q200.7656,96.6875 202.0781,95.0313 Q203.4063,93.375 205.9063,93.375 Q206.6094,93.375 207.25,93.5313 Q207.9063,93.6875 208.4688,93.9844 L208.4688,96.7031 Q207.8438,96.125 207.25,95.8594 Q206.6563,95.5781 206.0313,95.5781 Q204.6875,95.5781 204,96.6563 Q203.3125,97.7188 203.3125,99.8125 Q203.3125,101.9063 204,102.9844 Q204.6875,104.0469 206.0313,104.0469 Q206.6563,104.0469 207.25,103.7813 Q207.8438,103.5 208.4688,102.9219 L208.4688,105.6406 Z " fill="#000000"/><text fill="#000000" font-family="sans-serif" font-size="14" lengthAdjust="spacing" textLength="163" x="219.5" y="104.8467">SewerIndicationAdapter</text><line style="stroke:#181818;stroke-width:0.5;" x1="191.5" x2="384.5" y1="116" y2="116"/><line style="stroke:#181818;stroke-width:0.5;" x1="191.5" x2="384.5" y1="124" y2="124"/><ellipse cx="201.5" cy="137.6484" fill="#84BE84" rx="3" ry="3" style="stroke:#038048;stroke-width:1.0;"/><text fill="#000000" font-family="sans-serif" font-size="14" lengthAdjust="spacing" textLength="120" x="210.5" y="140.9951">void serve(String)</text></g><!--class SewerObservationAdapter--><g id="elem_SewerObservationAdapter"><rect codeLine="31" fill="#F1F1F1" height="64.2969" id="SewerObservationAdapter" rx="2.5" ry="2.5" style="stroke:#181818;stroke-width:0.5;" width="212" x="1610" y="266.29"/><ellipse cx="1625" cy="282.29" fill="#ADD1B2" rx="11" ry="11" style="stroke:#181818;stroke-width:1.0;"/><path d="M1627.9688,287.9306 Q1627.3906,288.2275 1626.75,288.3681 Q1626.1094,288.5244 1625.4063,288.5244 Q1622.9063,288.5244 1621.5781,286.8837 Q1620.2656,285.2275 1620.2656,282.1025 Q1620.2656,278.9775 1621.5781,277.3212 Q1622.9063,275.665 1625.4063,275.665 Q1626.1094,275.665 1626.75,275.8212 Q1627.4063,275.9775 1627.9688,276.2744 L1627.9688,278.9931 Q1627.3438,278.415 1626.75,278.1494 Q1626.1563,277.8681 1625.5313,277.8681 Q1624.1875,277.8681 1623.5,278.9462 Q1622.8125,280.0087 1622.8125,282.1025 Q1622.8125,284.1962 1623.5,285.2744 Q1624.1875,286.3369 1625.5313,286.3369 Q1626.1563,286.3369 1626.75,286.0712 Q1627.3438,285.79 1627.9688,285.2119 L1627.9688,287.9306 Z " fill="#000000"/><text fill="#000000" font-family="sans-serif" font-size="14" lengthAdjust="spacing" textLength="180" x="1639" y="287.1367">SewerObservationAdapter</text><line style="stroke:#181818;stroke-width:0.5;" x1="1611" x2="1821" y1="298.29" y2="298.29"/><line style="stroke:#181818;stroke-width:0.5;" x1="1611" x2="1821" y1="306.29" y2="306.29"/><ellipse cx="1621" cy="319.9384" fill="#84BE84" rx="3" ry="3" style="stroke:#038048;stroke-width:1.0;"/><text fill="#000000" font-family="sans-serif" font-size="14" lengthAdjust="spacing" textLength="184" x="1630" y="323.2851">Set&lt;Object&gt; serve(String)</text></g><!--class SewersAdapter--><g id="elem_SewersAdapter"><rect codeLine="34" fill="#F1F1F1" height="80.5938" id="SewersAdapter" rx="2.5" ry="2.5" style="stroke:#181818;stroke-width:0.5;" width="222" x="1308" y="1670.75"/><ellipse cx="1362.25" cy="1686.75" fill="#B4A7E5" rx="11" ry="11" style="stroke:#181818;stroke-width:1.0;"/><path d="M1358.1719,1682.5156 L1358.1719,1680.3594 L1365.5625,1680.3594 L1365.5625,1682.5156 L1363.0938,1682.5156 L1363.0938,1690.5938 L1365.5625,1690.5938 L1365.5625,1692.75 L1358.1719,1692.75 L1358.1719,1690.5938 L1360.6406,1690.5938 L1360.6406,1682.5156 L1358.1719,1682.5156 Z " fill="#000000"/><text fill="#000000" font-family="sans-serif" font-size="14" font-style="italic" lengthAdjust="spacing" textLength="105" x="1382.75" y="1691.5967">SewersAdapter</text><line style="stroke:#181818;stroke-width:0.5;" x1="1309" x2="1529" y1="1702.75" y2="1702.75"/><line style="stroke:#181818;stroke-width:0.5;" x1="1309" x2="1529" y1="1710.75" y2="1710.75"/><ellipse cx="1319" cy="1724.3984" fill="#84BE84" rx="3" ry="3" style="stroke:#038048;stroke-width:1.0;"/><text fill="#000000" font-family="sans-serif" font-size="14" font-style="italic" lengthAdjust="spacing" textLength="196" x="1328" y="1727.7451">Set&lt;Object&gt; observe(UUID)</text><ellipse cx="1319" cy="1740.6953" fill="#84BE84" rx="3" ry="3" style="stroke:#038048;stroke-width:1.0;"/><text fill="#000000" font-family="sans-serif" font-size="14" font-style="italic" lengthAdjust="spacing" textLength="183" x="1328" y="1744.042">void indicate(UUID, Object)</text></g><!--class SewersAdapterBridge--><g id="elem_SewersAdapterBridge"><rect codeLine="38" fill="#F1F1F1" height="80.5938" id="SewersAdapterBridge" rx="2.5" ry="2.5" style="stroke:#181818;stroke-width:0.5;" width="222" x="1308" y="1530.15"/><ellipse cx="1341" cy="1546.15" fill="#ADD1B2" rx="11" ry="11" style="stroke:#181818;stroke-width:1.0;"/><path d="M1343.9688,1551.7906 Q1343.3906,1552.0875 1342.75,1552.2281 Q1342.1094,1552.3844 1341.4063,1552.3844 Q1338.9063,1552.3844 1337.5781,1550.7437 Q1336.2656,1549.0875 1336.2656,1545.9625 Q1336.2656,1542.8375 1337.5781,1541.1812 Q1338.9063,1539.525 1341.4063,1539.525 Q1342.1094,1539.525 1342.75,1539.6812 Q1343.4063,1539.8375 1343.9688,1540.1344 L1343.9688,1542.8531 Q1343.3438,1542.275 1342.75,1542.0094 Q1342.1563,1541.7281 1341.5313,1541.7281 Q1340.1875,1541.7281 1339.5,1542.8062 Q1338.8125,1543.8687 1338.8125,1545.9625 Q1338.8125,1548.0562 1339.5,1549.1344 Q1340.1875,1550.1969 1341.5313,1550.1969 Q1342.1563,1550.1969 1342.75,1549.9312 Q1343.3438,1549.65 1343.9688,1549.0719 L1343.9688,1551.7906 Z " fill="#000000"/><text fill="#000000" font-family="sans-serif" font-size="14" lengthAdjust="spacing" textLength="150" x="1359" y="1550.9967">SewersAdapterBridge</text><line style="stroke:#181818;stroke-width:0.5;" x1="1309" x2="1529" y1="1562.15" y2="1562.15"/><line style="stroke:#181818;stroke-width:0.5;" x1="1309" x2="1529" y1="1570.15" y2="1570.15"/><ellipse cx="1319" cy="1583.7984" fill="#84BE84" rx="3" ry="3" style="stroke:#038048;stroke-width:1.0;"/><text fill="#000000" font-family="sans-serif" font-size="14" lengthAdjust="spacing" textLength="196" x="1328" y="1587.1451">Set&lt;Object&gt; observe(UUID)</text><ellipse cx="1319" cy="1600.0953" fill="#84BE84" rx="3" ry="3" style="stroke:#038048;stroke-width:1.0;"/><text fill="#000000" font-family="sans-serif" font-size="14" lengthAdjust="spacing" textLength="183" x="1328" y="1603.442">void indicate(UUID, Object)</text></g><!--class SewerOverflowIndicationService--><g id="elem_SewerOverflowIndicationService"><rect codeLine="42" fill="#F1F1F1" height="64.2969" id="SewerOverflowIndicationService" rx="2.5" ry="2.5" style="stroke:#181818;stroke-width:0.5;" width="250" x="163" y="448.59"/><ellipse cx="178" cy="464.59" fill="#ADD1B2" rx="11" ry="11" style="stroke:#181818;stroke-width:1.0;"/><path d="M180.9688,470.2306 Q180.3906,470.5275 179.75,470.6681 Q179.1094,470.8244 178.4063,470.8244 Q175.9063,470.8244 174.5781,469.1837 Q173.2656,467.5275 173.2656,464.4025 Q173.2656,461.2775 174.5781,459.6212 Q175.9063,457.965 178.4063,457.965 Q179.1094,457.965 179.75,458.1212 Q180.4063,458.2775 180.9688,458.5744 L180.9688,461.2931 Q180.3438,460.715 179.75,460.4494 Q179.1563,460.1681 178.5313,460.1681 Q177.1875,460.1681 176.5,461.2462 Q175.8125,462.3087 175.8125,464.4025 Q175.8125,466.4962 176.5,467.5744 Q177.1875,468.6369 178.5313,468.6369 Q179.1563,468.6369 179.75,468.3712 Q180.3438,468.09 180.9688,467.5119 L180.9688,470.2306 Z " fill="#000000"/><text fill="#000000" font-family="sans-serif" font-size="14" lengthAdjust="spacing" textLength="218" x="192" y="469.4367">SewerOverflowIndicationService</text><line style="stroke:#181818;stroke-width:0.5;" x1="164" x2="412" y1="480.59" y2="480.59"/><line style="stroke:#181818;stroke-width:0.5;" x1="164" x2="412" y1="488.59" y2="488.59"/><ellipse cx="174" cy="502.2384" fill="#84BE84" rx="3" ry="3" style="stroke:#038048;stroke-width:1.0;"/><text fill="#000000" font-family="sans-serif" font-size="14" lengthAdjust="spacing" textLength="221" x="183" y="505.5851">void serve(Map&lt;String, String&gt;)</text></g><!--class FlowIndicationComponent--><g id="elem_FlowIndicationComponent"><rect codeLine="45" fill="#F1F1F1" height="64.2969" id="FlowIndicationComponent" rx="2.5" ry="2.5" style="stroke:#181818;stroke-width:0.5;" width="341" x="493.5" y="587.89"/><ellipse cx="570.25" cy="603.89" fill="#ADD1B2" rx="11" ry="11" style="stroke:#181818;stroke-width:1.0;"/><path d="M573.2188,609.5306 Q572.6406,609.8275 572,609.9681 Q571.3594,610.1244 570.6563,610.1244 Q568.1563,610.1244 566.8281,608.4837 Q565.5156,606.8275 565.5156,603.7025 Q565.5156,600.5775 566.8281,598.9212 Q568.1563,597.265 570.6563,597.265 Q571.3594,597.265 572,597.4212 Q572.6563,597.5775 573.2188,597.8744 L573.2188,600.5931 Q572.5938,600.015 572,599.7494 Q571.4063,599.4681 570.7813,599.4681 Q569.4375,599.4681 568.75,600.5462 Q568.0625,601.6087 568.0625,603.7025 Q568.0625,605.7962 568.75,606.8744 Q569.4375,607.9369 570.7813,607.9369 Q571.4063,607.9369 572,607.6712 Q572.5938,607.39 573.2188,606.8119 L573.2188,609.5306 Z " fill="#000000"/><text fill="#000000" font-family="sans-serif" font-size="14" lengthAdjust="spacing" textLength="179" x="590.75" y="608.7367">FlowIndicationComponent</text><line style="stroke:#181818;stroke-width:0.5;" x1="494.5" x2="833.5" y1="619.89" y2="619.89"/><line style="stroke:#181818;stroke-width:0.5;" x1="494.5" x2="833.5" y1="627.89" y2="627.89"/><ellipse cx="504.5" cy="641.5384" fill="#84BE84" rx="3" ry="3" style="stroke:#038048;stroke-width:1.0;"/><text fill="#000000" font-family="sans-serif" font-size="14" lengthAdjust="spacing" textLength="315" x="513.5" y="644.8851">void execute(Map&lt;String, ? extends Object&gt;)</text></g><!--class PumpIndicationComponent--><g id="elem_PumpIndicationComponent"><rect codeLine="48" fill="#F1F1F1" height="64.2969" id="PumpIndicationComponent" rx="2.5" ry="2.5" style="stroke:#181818;stroke-width:0.5;" width="341" x="493.5" y="712.18"/><ellipse cx="565.75" cy="728.18" fill="#ADD1B2" rx="11" ry="11" style="stroke:#181818;stroke-width:1.0;"/><path d="M568.7188,733.8206 Q568.1406,734.1175 567.5,734.2581 Q566.8594,734.4144 566.1563,734.4144 Q563.6563,734.4144 562.3281,732.7737 Q561.0156,731.1175 561.0156,727.9925 Q561.0156,724.8675 562.3281,723.2112 Q563.6563,721.555 566.1563,721.555 Q566.8594,721.555 567.5,721.7112 Q568.1563,721.8675 568.7188,722.1644 L568.7188,724.8831 Q568.0938,724.305 567.5,724.0394 Q566.9063,723.7581 566.2813,723.7581 Q564.9375,723.7581 564.25,724.8362 Q563.5625,725.8987 563.5625,727.9925 Q563.5625,730.0862 564.25,731.1644 Q564.9375,732.2269 566.2813,732.2269 Q566.9063,732.2269 567.5,731.9612 Q568.0938,731.68 568.7188,731.1019 L568.7188,733.8206 Z " fill="#000000"/><text fill="#000000" font-family="sans-serif" font-size="14" lengthAdjust="spacing" textLength="188" x="586.25" y="733.0267">PumpIndicationComponent</text><line style="stroke:#181818;stroke-width:0.5;" x1="494.5" x2="833.5" y1="744.18" y2="744.18"/><line style="stroke:#181818;stroke-width:0.5;" x1="494.5" x2="833.5" y1="752.18" y2="752.18"/><ellipse cx="504.5" cy="765.8284" fill="#84BE84" rx="3" ry="3" style="stroke:#038048;stroke-width:1.0;"/><text fill="#000000" font-family="sans-serif" font-size="14" lengthAdjust="spacing" textLength="315" x="513.5" y="769.1751">void execute(Map&lt;String, ? extends Object&gt;)</text></g><!--class RainShortageIndicationComponent--><g id="elem_RainShortageIndicationComponent"><rect codeLine="51" fill="#F1F1F1" height="64.2969" id="RainShortageIndicationComponent" rx="2.5" ry="2.5" style="stroke:#181818;stroke-width:0.5;" width="341" x="117.5" y="712.18"/><ellipse cx="163.25" cy="728.18" fill="#ADD1B2" rx="11" ry="11" style="stroke:#181818;stroke-width:1.0;"/><path d="M166.2188,733.8206 Q165.6406,734.1175 165,734.2581 Q164.3594,734.4144 163.6563,734.4144 Q161.1563,734.4144 159.8281,732.7737 Q158.5156,731.1175 158.5156,727.9925 Q158.5156,724.8675 159.8281,723.2112 Q161.1563,721.555 163.6563,721.555 Q164.3594,721.555 165,721.7112 Q165.6563,721.8675 166.2188,722.1644 L166.2188,724.8831 Q165.5938,724.305 165,724.0394 Q164.4063,723.7581 163.7813,723.7581 Q162.4375,723.7581 161.75,724.8362 Q161.0625,725.8987 161.0625,727.9925 Q161.0625,730.0862 161.75,731.1644 Q162.4375,732.2269 163.7813,732.2269 Q164.4063,732.2269 165,731.9612 Q165.5938,731.68 166.2188,731.1019 L166.2188,733.8206 Z " fill="#000000"/><text fill="#000000" font-family="sans-serif" font-size="14" lengthAdjust="spacing" textLength="241" x="183.75" y="733.0267">RainShortageIndicationComponent</text><line style="stroke:#181818;stroke-width:0.5;" x1="118.5" x2="457.5" y1="744.18" y2="744.18"/><line style="stroke:#181818;stroke-width:0.5;" x1="118.5" x2="457.5" y1="752.18" y2="752.18"/><ellipse cx="128.5" cy="765.8284" fill="#84BE84" rx="3" ry="3" style="stroke:#038048;stroke-width:1.0;"/><text fill="#000000" font-family="sans-serif" font-size="14" lengthAdjust="spacing" textLength="315" x="137.5" y="769.1751">void execute(Map&lt;String, ? extends Object&gt;)</text></g><!--class SewerOverflowIndicationComponent--><g id="elem_SewerOverflowIndicationComponent"><rect codeLine="54" fill="#F1F1F1" height="64.2969" id="SewerOverflowIndicationComponent" rx="2.5" ry="2.5" style="stroke:#181818;stroke-width:0.5;" width="341" x="117.5" y="587.89"/><ellipse cx="159.05" cy="603.89" fill="#ADD1B2" rx="11" ry="11" style="stroke:#181818;stroke-width:1.0;"/><path d="M162.0188,609.5306 Q161.4406,609.8275 160.8,609.9681 Q160.1594,610.1244 159.4563,610.1244 Q156.9563,610.1244 155.6281,608.4837 Q154.3156,606.8275 154.3156,603.7025 Q154.3156,600.5775 155.6281,598.9212 Q156.9563,597.265 159.4563,597.265 Q160.1594,597.265 160.8,597.4212 Q161.4563,597.5775 162.0188,597.8744 L162.0188,600.5931 Q161.3938,600.015 160.8,599.7494 Q160.2063,599.4681 159.5813,599.4681 Q158.2375,599.4681 157.55,600.5462 Q156.8625,601.6087 156.8625,603.7025 Q156.8625,605.7962 157.55,606.8744 Q158.2375,607.9369 159.5813,607.9369 Q160.2063,607.9369 160.8,607.6712 Q161.3938,607.39 162.0188,606.8119 L162.0188,609.5306 Z " fill="#000000"/><text fill="#000000" font-family="sans-serif" font-size="14" lengthAdjust="spacing" textLength="250" x="178.95" y="608.7367">SewerOverflowIndicationComponent</text><line style="stroke:#181818;stroke-width:0.5;" x1="118.5" x2="457.5" y1="619.89" y2="619.89"/><line style="stroke:#181818;stroke-width:0.5;" x1="118.5" x2="457.5" y1="627.89" y2="627.89"/><ellipse cx="128.5" cy="641.5384" fill="#84BE84" rx="3" ry="3" style="stroke:#038048;stroke-width:1.0;"/><text fill="#000000" font-family="sans-serif" font-size="14" lengthAdjust="spacing" textLength="315" x="137.5" y="644.8851">void execute(Map&lt;String, ? extends Object&gt;)</text></g><!--class SewerObservationService--><g id="elem_SewerObservationService"><rect codeLine="57" fill="#F1F1F1" height="64.2969" id="SewerObservationService" rx="2.5" ry="2.5" style="stroke:#181818;stroke-width:0.5;" width="208" x="1000" y="587.89"/><ellipse cx="1015" cy="603.89" fill="#ADD1B2" rx="11" ry="11" style="stroke:#181818;stroke-width:1.0;"/><path d="M1017.9688,609.5306 Q1017.3906,609.8275 1016.75,609.9681 Q1016.1094,610.1244 1015.4063,610.1244 Q1012.9063,610.1244 1011.5781,608.4837 Q1010.2656,606.8275 1010.2656,603.7025 Q1010.2656,600.5775 1011.5781,598.9212 Q1012.9063,597.265 1015.4063,597.265 Q1016.1094,597.265 1016.75,597.4212 Q1017.4063,597.5775 1017.9688,597.8744 L1017.9688,600.5931 Q1017.3438,600.015 1016.75,599.7494 Q1016.1563,599.4681 1015.5313,599.4681 Q1014.1875,599.4681 1013.5,600.5462 Q1012.8125,601.6087 1012.8125,603.7025 Q1012.8125,605.7962 1013.5,606.8744 Q1014.1875,607.9369 1015.5313,607.9369 Q1016.1563,607.9369 1016.75,607.6712 Q1017.3438,607.39 1017.9688,606.8119 L1017.9688,609.5306 Z " fill="#000000"/><text fill="#000000" font-family="sans-serif" font-size="14" lengthAdjust="spacing" textLength="176" x="1029" y="608.7367">SewerObservationService</text><line style="stroke:#181818;stroke-width:0.5;" x1="1001" x2="1207" y1="619.89" y2="619.89"/><line style="stroke:#181818;stroke-width:0.5;" x1="1001" x2="1207" y1="627.89" y2="627.89"/><ellipse cx="1011" cy="641.5384" fill="#84BE84" rx="3" ry="3" style="stroke:#038048;stroke-width:1.0;"/><text fill="#000000" font-family="sans-serif" font-size="14" lengthAdjust="spacing" textLength="182" x="1020" y="644.8851">Set&lt;Sewer&gt; serve(String)</text></g><!--class SewerObservationComponent--><g id="elem_SewerObservationComponent"><rect codeLine="60" fill="#F1F1F1" height="64.2969" id="SewerObservationComponent" rx="2.5" ry="2.5" style="stroke:#181818;stroke-width:0.5;" width="240" x="964" y="712.18"/><ellipse cx="979" cy="728.18" fill="#ADD1B2" rx="11" ry="11" style="stroke:#181818;stroke-width:1.0;"/><path d="M981.9688,733.8206 Q981.3906,734.1175 980.75,734.2581 Q980.1094,734.4144 979.4063,734.4144 Q976.9063,734.4144 975.5781,732.7737 Q974.2656,731.1175 974.2656,727.9925 Q974.2656,724.8675 975.5781,723.2112 Q976.9063,721.555 979.4063,721.555 Q980.1094,721.555 980.75,721.7112 Q981.4063,721.8675 981.9688,722.1644 L981.9688,724.8831 Q981.3438,724.305 980.75,724.0394 Q980.1563,723.7581 979.5313,723.7581 Q978.1875,723.7581 977.5,724.8362 Q976.8125,725.8987 976.8125,727.9925 Q976.8125,730.0862 977.5,731.1644 Q978.1875,732.2269 979.5313,732.2269 Q980.1563,732.2269 980.75,731.9612 Q981.3438,731.68 981.9688,731.1019 L981.9688,733.8206 Z " fill="#000000"/><text fill="#000000" font-family="sans-serif" font-size="14" lengthAdjust="spacing" textLength="208" x="993" y="733.0267">SewerObservationComponent</text><line style="stroke:#181818;stroke-width:0.5;" x1="965" x2="1203" y1="744.18" y2="744.18"/><line style="stroke:#181818;stroke-width:0.5;" x1="965" x2="1203" y1="752.18" y2="752.18"/><ellipse cx="975" cy="765.8284" fill="#84BE84" rx="3" ry="3" style="stroke:#038048;stroke-width:1.0;"/><text fill="#000000" font-family="sans-serif" font-size="14" lengthAdjust="spacing" textLength="200" x="984" y="769.1751">Set&lt;Sewer&gt; execute(String)</text></g><!--class Sewers--><g id="elem_Sewers"><rect codeLine="63" fill="#F1F1F1" height="80.5938" id="Sewers" rx="2.5" ry="2.5" style="stroke:#181818;stroke-width:0.5;" width="220" x="778" y="977.78"/><ellipse cx="858.25" cy="993.78" fill="#B4A7E5" rx="11" ry="11" style="stroke:#181818;stroke-width:1.0;"/><path d="M854.1719,989.5456 L854.1719,987.3894 L861.5625,987.3894 L861.5625,989.5456 L859.0938,989.5456 L859.0938,997.6238 L861.5625,997.6238 L861.5625,999.78 L854.1719,999.78 L854.1719,997.6238 L856.6406,997.6238 L856.6406,989.5456 L854.1719,989.5456 Z " fill="#000000"/><text fill="#000000" font-family="sans-serif" font-size="14" font-style="italic" lengthAdjust="spacing" textLength="51" x="878.75" y="998.6267">Sewers</text><line style="stroke:#181818;stroke-width:0.5;" x1="779" x2="997" y1="1009.78" y2="1009.78"/><line style="stroke:#181818;stroke-width:0.5;" x1="779" x2="997" y1="1017.78" y2="1017.78"/><ellipse cx="789" cy="1031.4284" fill="#84BE84" rx="3" ry="3" style="stroke:#038048;stroke-width:1.0;"/><text fill="#000000" font-family="sans-serif" font-size="14" font-style="italic" lengthAdjust="spacing" textLength="194" x="798" y="1034.7751">Set&lt;Sewer&gt; observe(UUID)</text><ellipse cx="789" cy="1047.7253" fill="#84BE84" rx="3" ry="3" style="stroke:#038048;stroke-width:1.0;"/><text fill="#000000" font-family="sans-serif" font-size="14" font-style="italic" lengthAdjust="spacing" textLength="139" x="798" y="1051.072">void indicate(Sewer)</text></g><!--class Sewer--><g id="elem_Sewer"><rect codeLine="67" fill="#F1F1F1" height="113.1875" id="Sewer" rx="2.5" ry="2.5" style="stroke:#181818;stroke-width:0.5;" width="259" x="483.5" y="961.48"/><ellipse cx="587.25" cy="977.48" fill="#ADD1B2" rx="11" ry="11" style="stroke:#181818;stroke-width:1.0;"/><path d="M590.2188,983.1206 Q589.6406,983.4175 589,983.5581 Q588.3594,983.7144 587.6563,983.7144 Q585.1563,983.7144 583.8281,982.0737 Q582.5156,980.4175 582.5156,977.2925 Q582.5156,974.1675 583.8281,972.5112 Q585.1563,970.855 587.6563,970.855 Q588.3594,970.855 589,971.0112 Q589.6563,971.1675 590.2188,971.4644 L590.2188,974.1831 Q589.5938,973.605 589,973.3394 Q588.4063,973.0581 587.7813,973.0581 Q586.4375,973.0581 585.75,974.1362 Q585.0625,975.1987 585.0625,977.2925 Q585.0625,979.3862 585.75,980.4644 Q586.4375,981.5269 587.7813,981.5269 Q588.4063,981.5269 589,981.2612 Q589.5938,980.98 590.2188,980.4019 L590.2188,983.1206 Z " fill="#000000"/><text fill="#000000" font-family="sans-serif" font-size="14" lengthAdjust="spacing" textLength="43" x="607.75" y="982.3267">Sewer</text><line style="stroke:#181818;stroke-width:0.5;" x1="484.5" x2="741.5" y1="993.48" y2="993.48"/><line style="stroke:#181818;stroke-width:0.5;" x1="484.5" x2="741.5" y1="1001.48" y2="1001.48"/><ellipse cx="494.5" cy="1015.1284" fill="#84BE84" rx="3" ry="3" style="stroke:#038048;stroke-width:1.0;"/><text fill="#000000" font-family="sans-serif" font-size="14" lengthAdjust="spacing" textLength="83" x="503.5" y="1018.4751">UUID getId()</text><ellipse cx="494.5" cy="1031.4253" fill="#84BE84" rx="3" ry="3" style="stroke:#038048;stroke-width:1.0;"/><text fill="#000000" font-family="sans-serif" font-size="14" lengthAdjust="spacing" textLength="230" x="503.5" y="1034.772">KeyPerformanceIndicator getKpi()</text><ellipse cx="494.5" cy="1047.7222" fill="#84BE84" rx="3" ry="3" style="stroke:#038048;stroke-width:1.0;"/><text fill="#000000" font-family="sans-serif" font-size="14" lengthAdjust="spacing" textLength="206" x="503.5" y="1051.0689">Set&lt;Problem&gt; getProblems()</text><ellipse cx="494.5" cy="1064.0191" fill="#84BE84" rx="3" ry="3" style="stroke:#038048;stroke-width:1.0;"/><text fill="#000000" font-family="sans-serif" font-size="14" lengthAdjust="spacing" textLength="233" x="503.5" y="1067.3657">void setProblems(Set&lt;Problem&gt;)</text></g><!--class KeyPerformanceIndicator--><g id="elem_KeyPerformanceIndicator"><rect codeLine="73" fill="#F1F1F1" height="96.8906" id="KeyPerformanceIndicator" rx="2.5" ry="2.5" style="stroke:#181818;stroke-width:0.5;" width="279" x="439.5" y="1173.67"/><ellipse cx="488.75" cy="1189.67" fill="#ADD1B2" rx="11" ry="11" style="stroke:#181818;stroke-width:1.0;"/><path d="M491.7188,1195.3106 Q491.1406,1195.6075 490.5,1195.7481 Q489.8594,1195.9044 489.1563,1195.9044 Q486.6563,1195.9044 485.3281,1194.2637 Q484.0156,1192.6075 484.0156,1189.4825 Q484.0156,1186.3575 485.3281,1184.7012 Q486.6563,1183.045 489.1563,1183.045 Q489.8594,1183.045 490.5,1183.2012 Q491.1563,1183.3575 491.7188,1183.6544 L491.7188,1186.3731 Q491.0938,1185.795 490.5,1185.5294 Q489.9063,1185.2481 489.2813,1185.2481 Q487.9375,1185.2481 487.25,1186.3262 Q486.5625,1187.3887 486.5625,1189.4825 Q486.5625,1191.5762 487.25,1192.6544 Q487.9375,1193.7169 489.2813,1193.7169 Q489.9063,1193.7169 490.5,1193.4512 Q491.0938,1193.17 491.7188,1192.5919 L491.7188,1195.3106 Z " fill="#000000"/><text fill="#000000" font-family="sans-serif" font-size="14" lengthAdjust="spacing" textLength="172" x="509.25" y="1194.5167">KeyPerformanceIndicator</text><line style="stroke:#181818;stroke-width:0.5;" x1="440.5" x2="717.5" y1="1205.67" y2="1205.67"/><line style="stroke:#181818;stroke-width:0.5;" x1="440.5" x2="717.5" y1="1213.67" y2="1213.67"/><ellipse cx="450.5" cy="1227.3184" fill="#84BE84" rx="3" ry="3" style="stroke:#038048;stroke-width:1.0;"/><text fill="#000000" font-family="sans-serif" font-size="14" lengthAdjust="spacing" textLength="253" x="459.5" y="1230.6651">String getPumpPowerConsumption()</text><ellipse cx="450.5" cy="1243.6153" fill="#84BE84" rx="3" ry="3" style="stroke:#038048;stroke-width:1.0;"/><text fill="#000000" font-family="sans-serif" font-size="14" lengthAdjust="spacing" textLength="108" x="459.5" y="1246.962">String getFlow()</text><ellipse cx="450.5" cy="1259.9122" fill="#84BE84" rx="3" ry="3" style="stroke:#038048;stroke-width:1.0;"/><text fill="#000000" font-family="sans-serif" font-size="14" lengthAdjust="spacing" textLength="140" x="459.5" y="1263.2589">Number getRainfall()</text></g><!--class Problem--><g id="elem_Problem"><rect codeLine="78" fill="#F1F1F1" height="80.5938" id="Problem" rx="2.5" ry="2.5" style="stroke:#181818;stroke-width:0.5;" width="243" x="775.5" y="1181.82"/><ellipse cx="864.25" cy="1197.82" fill="#ADD1B2" rx="11" ry="11" style="stroke:#181818;stroke-width:1.0;"/><path d="M867.2188,1203.4606 Q866.6406,1203.7575 866,1203.8981 Q865.3594,1204.0544 864.6563,1204.0544 Q862.1563,1204.0544 860.8281,1202.4138 Q859.5156,1200.7575 859.5156,1197.6325 Q859.5156,1194.5075 860.8281,1192.8513 Q862.1563,1191.195 864.6563,1191.195 Q865.3594,1191.195 866,1191.3513 Q866.6563,1191.5075 867.2188,1191.8044 L867.2188,1194.5231 Q866.5938,1193.945 866,1193.6794 Q865.4063,1193.3981 864.7813,1193.3981 Q863.4375,1193.3981 862.75,1194.4763 Q862.0625,1195.5388 862.0625,1197.6325 Q862.0625,1199.7263 862.75,1200.8044 Q863.4375,1201.8669 864.7813,1201.8669 Q865.4063,1201.8669 866,1201.6013 Q866.5938,1201.32 867.2188,1200.7419 L867.2188,1203.4606 Z " fill="#000000"/><text fill="#000000" font-family="sans-serif" font-size="14" lengthAdjust="spacing" textLength="57" x="884.75" y="1202.6667">Problem</text><line style="stroke:#181818;stroke-width:0.5;" x1="776.5" x2="1017.5" y1="1213.82" y2="1213.82"/><line style="stroke:#181818;stroke-width:0.5;" x1="776.5" x2="1017.5" y1="1221.82" y2="1221.82"/><ellipse cx="786.5" cy="1235.4684" fill="#84BE84" rx="3" ry="3" style="stroke:#038048;stroke-width:1.0;"/><text fill="#000000" font-family="sans-serif" font-size="14" lengthAdjust="spacing" textLength="130" x="795.5" y="1238.8151">String getReason()</text><ellipse cx="786.5" cy="1251.7653" fill="#84BE84" rx="3" ry="3" style="stroke:#038048;stroke-width:1.0;"/><text fill="#000000" font-family="sans-serif" font-size="14" lengthAdjust="spacing" textLength="217" x="795.5" y="1255.112">Number getOverflowIndication()</text></g><!--class SewerIndicationUseCase--><g id="elem_SewerIndicationUseCase"><rect codeLine="82" fill="#F1F1F1" height="64.2969" id="SewerIndicationUseCase" rx="2.5" ry="2.5" style="stroke:#181818;stroke-width:0.5;" width="203" x="186.5" y="266.29"/><ellipse cx="201.5" cy="282.29" fill="#ADD1B2" rx="11" ry="11" style="stroke:#181818;stroke-width:1.0;"/><path d="M204.4688,287.9306 Q203.8906,288.2275 203.25,288.3681 Q202.6094,288.5244 201.9063,288.5244 Q199.4063,288.5244 198.0781,286.8837 Q196.7656,285.2275 196.7656,282.1025 Q196.7656,278.9775 198.0781,277.3212 Q199.4063,275.665 201.9063,275.665 Q202.6094,275.665 203.25,275.8212 Q203.9063,275.9775 204.4688,276.2744 L204.4688,278.9931 Q203.8438,278.415 203.25,278.1494 Q202.6563,277.8681 202.0313,277.8681 Q200.6875,277.8681 200,278.9462 Q199.3125,280.0087 199.3125,282.1025 Q199.3125,284.1962 200,285.2744 Q200.6875,286.3369 202.0313,286.3369 Q202.6563,286.3369 203.25,286.0712 Q203.8438,285.79 204.4688,285.2119 L204.4688,287.9306 Z " fill="#000000"/><text fill="#000000" font-family="sans-serif" font-size="14" lengthAdjust="spacing" textLength="171" x="215.5" y="287.1367">SewerIndicationUseCase</text><line style="stroke:#181818;stroke-width:0.5;" x1="187.5" x2="388.5" y1="298.29" y2="298.29"/><line style="stroke:#181818;stroke-width:0.5;" x1="187.5" x2="388.5" y1="306.29" y2="306.29"/><ellipse cx="197.5" cy="319.9384" fill="#84BE84" rx="3" ry="3" style="stroke:#038048;stroke-width:1.0;"/><text fill="#000000" font-family="sans-serif" font-size="14" lengthAdjust="spacing" textLength="120" x="206.5" y="323.2851">void serve(String)</text></g><!--class SewerObservationUseCase--><g id="elem_SewerObservationUseCase"><rect codeLine="85" fill="#F1F1F1" height="64.2969" id="SewerObservationUseCase" rx="2.5" ry="2.5" style="stroke:#181818;stroke-width:0.5;" width="220" x="1309" y="448.59"/><ellipse cx="1324" cy="464.59" fill="#ADD1B2" rx="11" ry="11" style="stroke:#181818;stroke-width:1.0;"/><path d="M1326.9688,470.2306 Q1326.3906,470.5275 1325.75,470.6681 Q1325.1094,470.8244 1324.4063,470.8244 Q1321.9063,470.8244 1320.5781,469.1837 Q1319.2656,467.5275 1319.2656,464.4025 Q1319.2656,461.2775 1320.5781,459.6212 Q1321.9063,457.965 1324.4063,457.965 Q1325.1094,457.965 1325.75,458.1212 Q1326.4063,458.2775 1326.9688,458.5744 L1326.9688,461.2931 Q1326.3438,460.715 1325.75,460.4494 Q1325.1563,460.1681 1324.5313,460.1681 Q1323.1875,460.1681 1322.5,461.2462 Q1321.8125,462.3087 1321.8125,464.4025 Q1321.8125,466.4962 1322.5,467.5744 Q1323.1875,468.6369 1324.5313,468.6369 Q1325.1563,468.6369 1325.75,468.3712 Q1326.3438,468.09 1326.9688,467.5119 L1326.9688,470.2306 Z " fill="#000000"/><text fill="#000000" font-family="sans-serif" font-size="14" lengthAdjust="spacing" textLength="188" x="1338" y="469.4367">SewerObservationUseCase</text><line style="stroke:#181818;stroke-width:0.5;" x1="1310" x2="1528" y1="480.59" y2="480.59"/><line style="stroke:#181818;stroke-width:0.5;" x1="1310" x2="1528" y1="488.59" y2="488.59"/><ellipse cx="1320" cy="502.2384" fill="#84BE84" rx="3" ry="3" style="stroke:#038048;stroke-width:1.0;"/><text fill="#000000" font-family="sans-serif" font-size="14" lengthAdjust="spacing" textLength="182" x="1329" y="505.5851">Set&lt;Sewer&gt; serve(String)</text></g><!--class SewersUseCase--><g id="elem_SewersUseCase"><rect codeLine="88" fill="#F1F1F1" height="80.5938" id="SewersUseCase" rx="2.5" ry="2.5" style="stroke:#181818;stroke-width:0.5;" width="222" x="1308" y="1350.56"/><ellipse cx="1358.25" cy="1366.56" fill="#B4A7E5" rx="11" ry="11" style="stroke:#181818;stroke-width:1.0;"/><path d="M1354.1719,1362.3256 L1354.1719,1360.1694 L1361.5625,1360.1694 L1361.5625,1362.3256 L1359.0938,1362.3256 L1359.0938,1370.4038 L1361.5625,1370.4038 L1361.5625,1372.56 L1354.1719,1372.56 L1354.1719,1370.4038 L1356.6406,1370.4038 L1356.6406,1362.3256 L1354.1719,1362.3256 Z " fill="#000000"/><text fill="#000000" font-family="sans-serif" font-size="14" font-style="italic" lengthAdjust="spacing" textLength="113" x="1378.75" y="1371.4067">SewersUseCase</text><line style="stroke:#181818;stroke-width:0.5;" x1="1309" x2="1529" y1="1382.56" y2="1382.56"/><line style="stroke:#181818;stroke-width:0.5;" x1="1309" x2="1529" y1="1390.56" y2="1390.56"/><ellipse cx="1319" cy="1404.2084" fill="#84BE84" rx="3" ry="3" style="stroke:#038048;stroke-width:1.0;"/><text fill="#000000" font-family="sans-serif" font-size="14" font-style="italic" lengthAdjust="spacing" textLength="196" x="1328" y="1407.5551">Set&lt;Object&gt; observe(UUID)</text><ellipse cx="1319" cy="1420.5053" fill="#84BE84" rx="3" ry="3" style="stroke:#038048;stroke-width:1.0;"/><text fill="#000000" font-family="sans-serif" font-size="14" font-style="italic" lengthAdjust="spacing" textLength="183" x="1328" y="1423.852">void indicate(UUID, Object)</text></g><!--class SewersUseCaseBridge--><g id="elem_SewersUseCaseBridge"><rect codeLine="92" fill="#F1F1F1" height="80.5938" id="SewersUseCaseBridge" rx="2.5" ry="2.5" style="stroke:#181818;stroke-width:0.5;" width="220" x="1308" y="1181.82"/><ellipse cx="1336.5" cy="1197.82" fill="#ADD1B2" rx="11" ry="11" style="stroke:#181818;stroke-width:1.0;"/><path d="M1339.4688,1203.4606 Q1338.8906,1203.7575 1338.25,1203.8981 Q1337.6094,1204.0544 1336.9063,1204.0544 Q1334.4063,1204.0544 1333.0781,1202.4138 Q1331.7656,1200.7575 1331.7656,1197.6325 Q1331.7656,1194.5075 1333.0781,1192.8513 Q1334.4063,1191.195 1336.9063,1191.195 Q1337.6094,1191.195 1338.25,1191.3513 Q1338.9063,1191.5075 1339.4688,1191.8044 L1339.4688,1194.5231 Q1338.8438,1193.945 1338.25,1193.6794 Q1337.6563,1193.3981 1337.0313,1193.3981 Q1335.6875,1193.3981 1335,1194.4763 Q1334.3125,1195.5388 1334.3125,1197.6325 Q1334.3125,1199.7263 1335,1200.8044 Q1335.6875,1201.8669 1337.0313,1201.8669 Q1337.6563,1201.8669 1338.25,1201.6013 Q1338.8438,1201.32 1339.4688,1200.7419 L1339.4688,1203.4606 Z " fill="#000000"/><text fill="#000000" font-family="sans-serif" font-size="14" lengthAdjust="spacing" textLength="158" x="1353.5" y="1202.6667">SewersUseCaseBridge</text><line style="stroke:#181818;stroke-width:0.5;" x1="1309" x2="1527" y1="1213.82" y2="1213.82"/><line style="stroke:#181818;stroke-width:0.5;" x1="1309" x2="1527" y1="1221.82" y2="1221.82"/><ellipse cx="1319" cy="1235.4684" fill="#84BE84" rx="3" ry="3" style="stroke:#038048;stroke-width:1.0;"/><text fill="#000000" font-family="sans-serif" font-size="14" lengthAdjust="spacing" textLength="194" x="1328" y="1238.8151">Set&lt;Sewer&gt; observe(UUID)</text><ellipse cx="1319" cy="1251.7653" fill="#84BE84" rx="3" ry="3" style="stroke:#038048;stroke-width:1.0;"/><text fill="#000000" font-family="sans-serif" font-size="14" lengthAdjust="spacing" textLength="139" x="1328" y="1255.112">void indicate(Sewer)</text></g><!--link SewerIndicationAdapter to SewerIndicationUseCase--><g id="link_SewerIndicationAdapter_SewerIndicationUseCase"><path codeLine="96" d="M288,148.74 C288,181.81 288,226.74 288,259.83 " fill="none" id="SewerIndicationAdapter-to-SewerIndicationUseCase" style="stroke:#181818;stroke-width:1.0;"/><polygon fill="#181818" points="288,265.83,292,256.83,288,260.83,284,256.83,288,265.83" style="stroke:#181818;stroke-width:1.0;"/></g><!--link SewerObservationAdapter to SewerObservationUseCase--><g id="link_SewerObservationAdapter_SewerObservationUseCase"><path codeLine="97" d="M1716,330.72 C1716,383.23 1716,481.34 1716,481.34 C1716,481.34 1619.69,481.34 1535.17,481.34 " fill="none" id="SewerObservationAdapter-to-SewerObservationUseCase" style="stroke:#181818;stroke-width:1.0;"/><polygon fill="#181818" points="1529.17,481.34,1538.17,485.34,1534.17,481.34,1538.17,477.34,1529.17,481.34" style="stroke:#181818;stroke-width:1.0;"/></g><!--reverse link SewersUseCase to SewersAdapterBridge--><g id="link_SewersUseCase_SewersAdapterBridge"><path codeLine="98" d="M1419,1449.61 C1419,1479 1419,1500.5 1419,1529.86 " fill="none" id="SewersUseCase-backto-SewersAdapterBridge" style="stroke:#181818;stroke-width:1.0;stroke-dasharray:7.0,7.0;"/><polygon fill="none" points="1419,1431.61,1413,1449.61,1425,1449.61,1419,1431.61" style="stroke:#181818;stroke-width:1.0;"/></g><!--link SewersAdapterBridge to SewersAdapter--><g id="link_SewersAdapterBridge_SewersAdapter"><path codeLine="99" d="M1419,1611.11 C1419,1629.77 1419,1645.83 1419,1664.47 " fill="none" id="SewersAdapterBridge-to-SewersAdapter" style="stroke:#181818;stroke-width:1.0;"/><polygon fill="#181818" points="1419,1670.47,1423,1661.47,1419,1665.47,1415,1661.47,1419,1670.47" style="stroke:#181818;stroke-width:1.0;"/></g><!--link SewerOverflowIndicationService to SewerOverflowIndicationComponent--><g id="link_SewerOverflowIndicationService_SewerOverflowIndicationComponent"><path codeLine="100" d="M288,513.05 C288,535.39 288,559.01 288,581.42 " fill="none" id="SewerOverflowIndicationService-to-SewerOverflowIndicationComponent" style="stroke:#181818;stroke-width:1.0;"/><polygon fill="#181818" points="288,587.42,292,578.42,288,582.42,284,578.42,288,587.42" style="stroke:#181818;stroke-width:1.0;"/></g><!--link FlowIndicationComponent to Sewers--><g id="link_FlowIndicationComponent_Sewers"><path codeLine="101" d="M834.94,620.34 C860.05,620.34 877.67,620.34 877.67,620.34 C877.67,620.34 877.67,870.01 877.67,971.38 " fill="none" id="FlowIndicationComponent-to-Sewers" style="stroke:#181818;stroke-width:1.0;"/><polygon fill="#181818" points="877.67,977.38,881.67,968.38,877.67,972.38,873.67,968.38,877.67,977.38" style="stroke:#181818;stroke-width:1.0;"/></g><!--link PumpIndicationComponent to Sewers--><g id="link_PumpIndicationComponent_Sewers"><path codeLine="102" d="M815.67,776.81 C815.67,826.94 815.67,917.09 815.67,971.65 " fill="none" id="PumpIndicationComponent-to-Sewers" style="stroke:#181818;stroke-width:1.0;"/><polygon fill="#181818" points="815.67,977.65,819.67,968.65,815.67,972.65,811.67,968.65,815.67,977.65" style="stroke:#181818;stroke-width:1.0;"/></g><!--link RainShortageIndicationComponent to Sewers--><g id="link_RainShortageIndicationComponent_Sewers"><path codeLine="103" d="M449,776.85 C449,813.89 449,869.34 449,869.34 C449,869.34 796.83,869.34 796.83,869.34 C796.83,869.34 796.83,927.39 796.83,971.43 " fill="none" id="RainShortageIndicationComponent-to-Sewers" style="stroke:#181818;stroke-width:1.0;"/><polygon fill="#181818" points="796.83,977.43,800.83,968.43,796.83,972.43,792.83,968.43,796.83,977.43" style="stroke:#181818;stroke-width:1.0;"/></g><!--link SewerOverflowIndicationComponent to RainShortageIndicationComponent--><g id="link_SewerOverflowIndicationComponent_RainShortageIndicationComponent"><path codeLine="104" d="M288,652.37 C288,670.64 288,687.41 288,705.73 " fill="none" id="SewerOverflowIndicationComponent-to-RainShortageIndicationComponent" style="stroke:#181818;stroke-width:1.0;"/><polygon fill="#181818" points="288,711.73,292,702.73,288,706.73,284,702.73,288,711.73" style="stroke:#181818;stroke-width:1.0;"/></g><!--link SewerOverflowIndicationComponent to Sewers--><g id="link_SewerOverflowIndicationComponent_Sewers"><path codeLine="105" d="M435.75,587.7 C435.75,569.88 435.75,551.34 435.75,551.34 C435.75,551.34 920.83,551.34 920.83,551.34 C920.83,551.34 920.83,857.92 920.83,971.47 " fill="none" id="SewerOverflowIndicationComponent-to-Sewers" style="stroke:#181818;stroke-width:1.0;"/><polygon fill="#181818" points="920.83,977.47,924.83,968.47,920.83,972.47,916.83,968.47,920.83,977.47" style="stroke:#181818;stroke-width:1.0;"/></g><!--link SewerOverflowIndicationComponent to PumpIndicationComponent--><g id="link_SewerOverflowIndicationComponent_PumpIndicationComponent"><path codeLine="106" d="M458.99,620.34 C466.53,620.34 471,620.34 471,620.34 C471,620.34 471,744.34 471,744.34 C471,744.34 473.59,744.34 487.14,744.34 " fill="none" id="SewerOverflowIndicationComponent-to-PumpIndicationComponent" style="stroke:#181818;stroke-width:1.0;"/><polygon fill="#181818" points="493.14,744.34,484.14,740.34,488.14,744.34,484.14,748.34,493.14,744.34" style="stroke:#181818;stroke-width:1.0;"/></g><!--link SewerObservationService to SewerObservationComponent--><g id="link_SewerObservationService_SewerObservationComponent"><path codeLine="107" d="M1102,652.37 C1102,670.64 1102,687.41 1102,705.73 " fill="none" id="SewerObservationService-to-SewerObservationComponent" style="stroke:#181818;stroke-width:1.0;"/><polygon fill="#181818" points="1102,711.73,1106,702.73,1102,706.73,1098,702.73,1102,711.73" style="stroke:#181818;stroke-width:1.0;"/></g><!--link SewerObservationComponent to Sewers--><g id="link_SewerObservationComponent_Sewers"><path codeLine="108" d="M981,776.81 C981,826.94 981,917.09 981,971.65 " fill="none" id="SewerObservationComponent-to-Sewers" style="stroke:#181818;stroke-width:1.0;"/><polygon fill="#181818" points="981,977.65,985,968.65,981,972.65,977,968.65,981,977.65" style="stroke:#181818;stroke-width:1.0;"/></g><!--link Sewer to Problem--><g id="link_Sewer_Problem"><path codeLine="109" d="M730.5,1074.97 C730.5,1135.41 730.5,1222.34 730.5,1222.34 C730.5,1222.34 743.73,1222.34 769.12,1222.34 " fill="none" id="Sewer-to-Problem" style="stroke:#181818;stroke-width:1.0;"/><polygon fill="#181818" points="775.12,1222.34,766.12,1218.34,770.12,1222.34,766.12,1226.34,775.12,1222.34" style="stroke:#181818;stroke-width:1.0;"/></g><!--link Sewer to KeyPerformanceIndicator--><g id="link_Sewer_KeyPerformanceIndicator"><path codeLine="110" d="M601,1074.91 C601,1105.8 601,1137.63 601,1167.2 " fill="none" id="Sewer-to-KeyPerformanceIndicator" style="stroke:#181818;stroke-width:1.0;"/><polygon fill="#181818" points="601,1173.2,605,1164.2,601,1168.2,597,1164.2,601,1173.2" style="stroke:#181818;stroke-width:1.0;"/></g><!--link SewerIndicationUseCase to SewerOverflowIndicationService--><g id="link_SewerIndicationUseCase_SewerOverflowIndicationService"><path codeLine="111" d="M288,331.03 C288,364.11 288,409.03 288,442.12 " fill="none" id="SewerIndicationUseCase-to-SewerOverflowIndicationService" style="stroke:#181818;stroke-width:1.0;"/><polygon fill="#181818" points="288,448.12,292,439.12,288,443.12,284,439.12,288,448.12" style="stroke:#181818;stroke-width:1.0;"/></g><!--link SewerObservationUseCase to SewerObservationService--><g id="link_SewerObservationUseCase_SewerObservationService"><path codeLine="112" d="M1308.83,481.34 C1217.99,481.34 1104,481.34 1104,481.34 C1104,481.34 1104,540.52 1104,581.52 " fill="none" id="SewerObservationUseCase-to-SewerObservationService" style="stroke:#181818;stroke-width:1.0;"/><polygon fill="#181818" points="1104,587.52,1108,578.52,1104,582.52,1100,578.52,1104,587.52" style="stroke:#181818;stroke-width:1.0;"/></g><!--reverse link Sewers to SewersUseCaseBridge--><g id="link_Sewers_SewersUseCaseBridge"><path codeLine="113" d="M1016.24,1018.34 C1171.67,1018.34 1418.5,1018.34 1418.5,1018.34 C1418.5,1018.34 1418.5,1121.9 1418.5,1181.37 " fill="none" id="Sewers-backto-SewersUseCaseBridge" style="stroke:#181818;stroke-width:1.0;stroke-dasharray:7.0,7.0;"/><polygon fill="none" points="998.24,1018.34,1016.24,1024.34,1016.24,1012.34,998.24,1018.34" style="stroke:#181818;stroke-width:1.0;"/></g><!--link SewersUseCaseBridge to SewersUseCase--><g id="link_SewersUseCaseBridge_SewersUseCase"><path codeLine="114" d="M1418,1262.53 C1418,1289.05 1418,1317.61 1418,1344.18 " fill="none" id="SewersUseCaseBridge-to-SewersUseCase" style="stroke:#181818;stroke-width:1.0;"/><polygon fill="#181818" points="1418,1350.18,1422,1341.18,1418,1345.18,1414,1341.18,1418,1350.18" style="stroke:#181818;stroke-width:1.0;"/></g><!--SRC=[vLXRQzim57xthz2SbvIrOemzh50ojev1A5j3Gv-7RCkf5bioaj8kTFtlioqdliMNn9POsLE2S_ITxpi-EfUyYJXQXGXi19vJYNc8FO8aNY1tZLPO01y50bjYJMY4E0f1G2YMsmW3nkK3iyG3Um8YFeTPyjIAr3dWSVA8kG1800z3buKHebiOSIPJEoZm4-PmPpKHwwqJR31uVjaZ80z5iZS4t9jFFhxtVUT34SfX6-eXlZqI2XBg4JSE1jm3J08IuZ6WcICmVzI1d3uMBS3nc_xf8e6FZIpC3qvy_n9TNXPHCPL4aW6WS8ymyLtVSzwD4OmwUf-NwZ8gEGjqE8Cxx0dZYAwm9f7TwJMUngelGnALfGc1PKzjyj8ZMsqkOOQlzu8eotL430QtwCrWW0-vDHda-AGJuD1WeAiU3GQxoRNMW6jiuRaJVSqyzz7OrYqtG480UvaOp9LSmkXd1M4FdddWOM3mR07mzf4H3wJYfql92LsTMIybGhTfQ0OnglMN1c35Q8dbrQtp2xjoLYD6aW7NHoxEo8bJALLU1YoXAHxW6Jb2SkJAboAbJCpq_dx-zQnYbmPp5__KuXoeSzMexbnzuSHRuN7fAynwC6lC-zEzZTtx0NlAasWPGn7tUEQzHgnsdxN4_OwYAvKZvq1zpWe2lfKmhcEYZCQ-RPt38MnmMg2EVsDt8ylaFyLF9QQUo5v3KSPY4qR6PJGu7I3Z3X6wV8XNpxYe6fVJuNo0h8QCDQIho_jWONcf7l7UTxQ5qdrFAbbgCElRhaODVjEE11kzrcZlGj_IpkpnDmy5VB2bPRpwTxJqG3NYjkvjIKbG2XAEO8Nbt9kcL6_mTX67aF4GKNTtfnbFJ6uYecmIgGirkiwI7xBlOdfMw2Fvqw9vGMk39zl4AWERPAeKI_CfLHQNwmMBmQuP5V7t91-p6EnjaiwadltOX0vEGvNKHHy5mRJORrG8R5FR0ymSLZNTOIHsAdB6zM8thUPb_jEzmDSn8tl49GGUTd7yJ3sSMsSPBN5hAQErQZISs-4vjKH8xvYTkJfnpEuff3fmDzNLXcAgPRcxk9XfpdLBomfuEk- -zy0QUz626_XdfYElHcTwR71RCItJQz_fgJ7226qPNnL7a7jm5BICRuklJqdNelZw57MkY5flLqSyNxVi_-fDDjnnozH_0IE8EtwLjyp_UV2lvcMVJNqqxZrNnbUbwOGrtzAyj6ef6Et3dALvrzLH9XfAagLlenooMMWf0tr8dnxwLlI_]--></g></svg>