<svg xmlns="http://www.w3.org/2000/svg" xmlns:xlink="http://www.w3.org/1999/xlink" contentStyleType="text/css" height="1642px" preserveAspectRatio="none" style="width:1280px;height:1642px;background:#FFFFFF;" version="1.1" viewBox="0 0 1280 1642" width="1280px" zoomAndPan="magnify"><defs/><g><!--cluster adapters--><g id="cluster_adapters"><path d="M8.5,6 L379.5,6 A3.75,3.75 0 0 1 382,8.5 L389,28.2969 L1270.5,28.2969 A2.5,2.5 0 0 1 1273,30.7969 L1273,1633.25 A2.5,2.5 0 0 1 1270.5,1635.75 L8.5,1635.75 A2.5,2.5 0 0 1 6,1633.25 L6,8.5 A2.5,2.5 0 0 1 8.5,6 " fill="#82FFB4" style="stroke:#000000;stroke-width:1.5;"/><line style="stroke:#000000;stroke-width:1.5;" x1="6" x2="389" y1="28.2969" y2="28.2969"/><text fill="#000000" font-family="sans-serif" font-size="14" font-weight="bold" lengthAdjust="spacing" textLength="370" x="10" y="20.9951">de.company.prototype.sewer.drivers.adapters</text></g><!--cluster boundary--><g id="cluster_boundary"><path d="M160.5,49 L303.5,49 A3.75,3.75 0 0 1 306,51.5 L313,71.2969 L381.5,71.2969 A2.5,2.5 0 0 1 384,73.7969 L384,161.8 A2.5,2.5 0 0 1 381.5,164.3 L160.5,164.3 A2.5,2.5 0 0 1 158,161.8 L158,51.5 A2.5,2.5 0 0 1 160.5,49 " fill="#00FF00" style="stroke:#000000;stroke-width:1.5;"/><line style="stroke:#000000;stroke-width:1.5;" x1="158" x2="313" y1="71.2969" y2="71.2969"/><text fill="#000000" font-family="sans-serif" font-size="14" font-weight="bold" lengthAdjust="spacing" textLength="142" x="162" y="63.9951">indicate.boundary</text></g><!--cluster boundary--><g id="cluster_boundary"><path d="M516.5,49 L662.5,49 A3.75,3.75 0 0 1 665,51.5 L672,71.2969 L755.5,71.2969 A2.5,2.5 0 0 1 758,73.7969 L758,161.8 A2.5,2.5 0 0 1 755.5,164.3 L516.5,164.3 A2.5,2.5 0 0 1 514,161.8 L514,51.5 A2.5,2.5 0 0 1 516.5,49 " fill="#00FF00" style="stroke:#000000;stroke-width:1.5;"/><line style="stroke:#000000;stroke-width:1.5;" x1="514" x2="672" y1="71.2969" y2="71.2969"/><text fill="#000000" font-family="sans-serif" font-size="14" font-weight="bold" lengthAdjust="spacing" textLength="145" x="518" y="63.9951">observe.boundary</text></g><!--cluster boundary--><g id="cluster_boundary"><path d="M916.5,1339.56 L1056.5,1339.56 A3.75,3.75 0 0 1 1059,1342.06 L1066,1361.8569 L1165.5,1361.8569 A2.5,2.5 0 0 1 1168,1364.3569 L1168,1609.25 A2.5,2.5 0 0 1 1165.5,1611.75 L916.5,1611.75 A2.5,2.5 0 0 1 914,1609.25 L914,1342.06 A2.5,2.5 0 0 1 916.5,1339.56 " fill="#00FF00" style="stroke:#000000;stroke-width:1.5;"/><line style="stroke:#000000;stroke-width:1.5;" x1="914" x2="1066" y1="1361.8569" y2="1361.8569"/><text fill="#000000" font-family="sans-serif" font-size="14" font-weight="bold" lengthAdjust="spacing" textLength="139" x="918" y="1354.5551">sewers.boundary</text></g><!--cluster use_cases--><g id="cluster_use_cases"><path d="M32.5,188.3 L115.5,188.3 A3.75,3.75 0 0 1 118,190.8 L125,210.5969 L1246.5,210.5969 A2.5,2.5 0 0 1 1249,213.0969 L1249,1313.06 A2.5,2.5 0 0 1 1246.5,1315.56 L32.5,1315.56 A2.5,2.5 0 0 1 30,1313.06 L30,190.8 A2.5,2.5 0 0 1 32.5,188.3 " fill="#FF9A99" style="stroke:#000000;stroke-width:1.5;"/><line style="stroke:#000000;stroke-width:1.5;" x1="30" x2="125" y1="210.5969" y2="210.5969"/><text fill="#000000" font-family="sans-serif" font-size="14" font-weight="bold" lengthAdjust="spacing" textLength="82" x="34" y="203.2951">use_cases</text></g><!--cluster entities--><g id="cluster_entities"><path d="M56.5,370.59 L116.5,370.59 A3.75,3.75 0 0 1 119,373.09 L126,392.8869 L830.5,392.8869 A2.5,2.5 0 0 1 833,395.3869 L833,1176.47 A2.5,2.5 0 0 1 830.5,1178.97 L56.5,1178.97 A2.5,2.5 0 0 1 54,1176.47 L54,373.09 A2.5,2.5 0 0 1 56.5,370.59 " fill="#FCFDB0" style="stroke:#000000;stroke-width:1.5;"/><line style="stroke:#000000;stroke-width:1.5;" x1="54" x2="126" y1="392.8869" y2="392.8869"/><text fill="#000000" font-family="sans-serif" font-size="14" font-weight="bold" lengthAdjust="spacing" textLength="59" x="58" y="385.5851">entities</text></g><!--cluster boundary--><g id="cluster_boundary"><path d="M92.5,413.59 L235.5,413.59 A3.75,3.75 0 0 1 238,416.09 L245,435.8869 L449.5,435.8869 A2.5,2.5 0 0 1 452,438.3869 L452,674.69 A2.5,2.5 0 0 1 449.5,677.19 L92.5,677.19 A2.5,2.5 0 0 1 90,674.69 L90,416.09 A2.5,2.5 0 0 1 92.5,413.59 " fill="#00FF00" style="stroke:#000000;stroke-width:1.5;"/><line style="stroke:#000000;stroke-width:1.5;" x1="90" x2="245" y1="435.8869" y2="435.8869"/><text fill="#000000" font-family="sans-serif" font-size="14" font-weight="bold" lengthAdjust="spacing" textLength="142" x="94" y="428.5851">indicate.boundary</text></g><!--cluster control--><g id="cluster_control"><path d="M116.5,537.89 L173.5,537.89 A3.75,3.75 0 0 1 176,540.39 L183,560.1869 L425.5,560.1869 A2.5,2.5 0 0 1 428,562.6869 L428,650.69 A2.5,2.5 0 0 1 425.5,653.19 L116.5,653.19 A2.5,2.5 0 0 1 114,650.69 L114,540.39 A2.5,2.5 0 0 1 116.5,537.89 " fill="#FFA500" style="stroke:#000000;stroke-width:1.5;"/><line style="stroke:#000000;stroke-width:1.5;" x1="114" x2="183" y1="560.1869" y2="560.1869"/><text fill="#000000" font-family="sans-serif" font-size="14" font-weight="bold" lengthAdjust="spacing" textLength="56" x="118" y="552.8851">control</text></g><!--cluster boundary--><g id="cluster_boundary"><path d="M478.5,413.59 L624.5,413.59 A3.75,3.75 0 0 1 627,416.09 L634,435.8869 L793.5,435.8869 A2.5,2.5 0 0 1 796,438.3869 L796,674.69 A2.5,2.5 0 0 1 793.5,677.19 L478.5,677.19 A2.5,2.5 0 0 1 476,674.69 L476,416.09 A2.5,2.5 0 0 1 478.5,413.59 " fill="#00FF00" style="stroke:#000000;stroke-width:1.5;"/><line style="stroke:#000000;stroke-width:1.5;" x1="476" x2="634" y1="435.8869" y2="435.8869"/><text fill="#000000" font-family="sans-serif" font-size="14" font-weight="bold" lengthAdjust="spacing" textLength="145" x="480" y="428.5851">observe.boundary</text></g><!--cluster control--><g id="cluster_control"><path d="M502.5,537.89 L559.5,537.89 A3.75,3.75 0 0 1 562,540.39 L569,560.1869 L769.5,560.1869 A2.5,2.5 0 0 1 772,562.6869 L772,650.69 A2.5,2.5 0 0 1 769.5,653.19 L502.5,653.19 A2.5,2.5 0 0 1 500,650.69 L500,540.39 A2.5,2.5 0 0 1 502.5,537.89 " fill="#FFA500" style="stroke:#000000;stroke-width:1.5;"/><line style="stroke:#000000;stroke-width:1.5;" x1="500" x2="569" y1="560.1869" y2="560.1869"/><text fill="#000000" font-family="sans-serif" font-size="14" font-weight="bold" lengthAdjust="spacing" textLength="56" x="504" y="552.8851">control</text></g><!--cluster sewer--><g id="cluster_sewer"><path d="M80.5,701.19 L131.5,701.19 A3.75,3.75 0 0 1 134,703.69 L141,723.4869 L806.5,723.4869 A2.5,2.5 0 0 1 809,725.9869 L809,1152.47 A2.5,2.5 0 0 1 806.5,1154.97 L80.5,1154.97 A2.5,2.5 0 0 1 78,1152.47 L78,703.69 A2.5,2.5 0 0 1 80.5,701.19 " fill="none" style="stroke:#000000;stroke-width:1.5;"/><line style="stroke:#000000;stroke-width:1.5;" x1="78" x2="141" y1="723.4869" y2="723.4869"/><text fill="#000000" font-family="sans-serif" font-size="14" font-weight="bold" lengthAdjust="spacing" textLength="50" x="82" y="716.1851">sewer</text></g><!--cluster boundary--><g id="cluster_boundary"><path d="M104.5,744.19 L180.5,744.19 A3.75,3.75 0 0 1 183,746.69 L190,766.4869 L782.5,766.4869 A2.5,2.5 0 0 1 785,768.9869 L785,956.58 A2.5,2.5 0 0 1 782.5,959.08 L104.5,959.08 A2.5,2.5 0 0 1 102,956.58 L102,746.69 A2.5,2.5 0 0 1 104.5,744.19 " fill="#00FF00" style="stroke:#000000;stroke-width:1.5;"/><line style="stroke:#000000;stroke-width:1.5;" x1="102" x2="190" y1="766.4869" y2="766.4869"/><text fill="#000000" font-family="sans-serif" font-size="14" font-weight="bold" lengthAdjust="spacing" textLength="75" x="106" y="759.1851">boundary</text></g><!--cluster entity--><g id="cluster_entity"><path d="M128.5,787.19 L235.5,787.19 A3.75,3.75 0 0 1 238,789.69 L245,809.4869 L411.5,809.4869 A2.5,2.5 0 0 1 414,811.9869 L414,932.58 A2.5,2.5 0 0 1 411.5,935.08 L128.5,935.08 A2.5,2.5 0 0 1 126,932.58 L126,789.69 A2.5,2.5 0 0 1 128.5,787.19 " fill="#FCFDB0" style="stroke:#000000;stroke-width:1.5;"/><line style="stroke:#000000;stroke-width:1.5;" x1="126" x2="245" y1="809.4869" y2="809.4869"/><text fill="#000000" font-family="sans-serif" font-size="14" font-weight="bold" lengthAdjust="spacing" textLength="106" x="130" y="802.1851">control.entity</text></g><!--cluster entity--><g id="cluster_entity"><path d="M110.5,983.08 L325.5,983.08 A3.75,3.75 0 0 1 328,985.58 L335,1005.3769 L417.5,1005.3769 A2.5,2.5 0 0 1 420,1007.8769 L420,1128.47 A2.5,2.5 0 0 1 417.5,1130.97 L110.5,1130.97 A2.5,2.5 0 0 1 108,1128.47 L108,985.58 A2.5,2.5 0 0 1 110.5,983.08 " fill="#FCFDB0" style="stroke:#000000;stroke-width:1.5;"/><line style="stroke:#000000;stroke-width:1.5;" x1="108" x2="335" y1="1005.3769" y2="1005.3769"/><text fill="#000000" font-family="sans-serif" font-size="14" font-weight="bold" lengthAdjust="spacing" textLength="214" x="112" y="998.0751">kpi.boundary.control.entity</text></g><!--cluster entity--><g id="cluster_entity"><path d="M446.5,991.23 L703.5,991.23 A3.75,3.75 0 0 1 706,993.73 L713,1013.5269 L717.5,1013.5269 A2.5,2.5 0 0 1 720,1016.0269 L720,1120.32 A2.5,2.5 0 0 1 717.5,1122.82 L446.5,1122.82 A2.5,2.5 0 0 1 444,1120.32 L444,993.73 A2.5,2.5 0 0 1 446.5,991.23 " fill="#FCFDB0" style="stroke:#000000;stroke-width:1.5;"/><line style="stroke:#000000;stroke-width:1.5;" x1="444" x2="713" y1="1013.5269" y2="1013.5269"/><text fill="#000000" font-family="sans-serif" font-size="14" font-weight="bold" lengthAdjust="spacing" textLength="256" x="448" y="1006.2251">problem.boundary.control.entity</text></g><!--cluster boundary--><g id="cluster_boundary"><path d="M156.5,231.3 L299.5,231.3 A3.75,3.75 0 0 1 302,233.8 L309,253.5969 L385.5,253.5969 A2.5,2.5 0 0 1 388,256.0969 L388,344.09 A2.5,2.5 0 0 1 385.5,346.59 L156.5,346.59 A2.5,2.5 0 0 1 154,344.09 L154,233.8 A2.5,2.5 0 0 1 156.5,231.3 " fill="#00FF00" style="stroke:#000000;stroke-width:1.5;"/><line style="stroke:#000000;stroke-width:1.5;" x1="154" x2="309" y1="253.5969" y2="253.5969"/><text fill="#000000" font-family="sans-serif" font-size="14" font-weight="bold" lengthAdjust="spacing" textLength="142" x="158" y="246.2951">indicate.boundary</text></g><!--cluster boundary--><g id="cluster_boundary"><path d="M512.5,231.3 L658.5,231.3 A3.75,3.75 0 0 1 661,233.8 L668,253.5969 L759.5,253.5969 A2.5,2.5 0 0 1 762,256.0969 L762,344.09 A2.5,2.5 0 0 1 759.5,346.59 L512.5,346.59 A2.5,2.5 0 0 1 510,344.09 L510,233.8 A2.5,2.5 0 0 1 512.5,231.3 " fill="#00FF00" style="stroke:#000000;stroke-width:1.5;"/><line style="stroke:#000000;stroke-width:1.5;" x1="510" x2="668" y1="253.5969" y2="253.5969"/><text fill="#000000" font-family="sans-serif" font-size="14" font-weight="bold" lengthAdjust="spacing" textLength="145" x="514" y="246.2951">observe.boundary</text></g><!--cluster boundary--><g id="cluster_boundary"><path d="M859.5,991.23 L999.5,991.23 A3.75,3.75 0 0 1 1002,993.73 L1009,1013.5269 L1222.5,1013.5269 A2.5,2.5 0 0 1 1225,1016.0269 L1225,1289.06 A2.5,2.5 0 0 1 1222.5,1291.56 L859.5,1291.56 A2.5,2.5 0 0 1 857,1289.06 L857,993.73 A2.5,2.5 0 0 1 859.5,991.23 " fill="#00FF00" style="stroke:#000000;stroke-width:1.5;"/><line style="stroke:#000000;stroke-width:1.5;" x1="857" x2="1009" y1="1013.5269" y2="1013.5269"/><text fill="#000000" font-family="sans-serif" font-size="14" font-weight="bold" lengthAdjust="spacing" textLength="139" x="861" y="1006.2251">sewers.boundary</text></g><!--class SewerIndicationAdapter--><g id="elem_SewerIndicationAdapter"><rect codeLine="28" fill="#F1F1F1" height="64.2969" id="SewerIndicationAdapter" rx="2.5" ry="2.5" style="stroke:#181818;stroke-width:0.5;" width="195" x="173.5" y="84"/><ellipse cx="188.5" cy="100" fill="#ADD1B2" rx="11" ry="11" style="stroke:#181818;stroke-width:1.0;"/><path d="M191.4688,105.6406 Q190.8906,105.9375 190.25,106.0781 Q189.6094,106.2344 188.9063,106.2344 Q186.4063,106.2344 185.0781,104.5938 Q183.7656,102.9375 183.7656,99.8125 Q183.7656,96.6875 185.0781,95.0313 Q186.4063,93.375 188.9063,93.375 Q189.6094,93.375 190.25,93.5313 Q190.9063,93.6875 191.4688,93.9844 L191.4688,96.7031 Q190.8438,96.125 190.25,95.8594 Q189.6563,95.5781 189.0313,95.5781 Q187.6875,95.5781 187,96.6563 Q186.3125,97.7188 186.3125,99.8125 Q186.3125,101.9063 187,102.9844 Q187.6875,104.0469 189.0313,104.0469 Q189.6563,104.0469 190.25,103.7813 Q190.8438,103.5 191.4688,102.9219 L191.4688,105.6406 Z " fill="#000000"/><text fill="#000000" font-family="sans-serif" font-size="14" lengthAdjust="spacing" textLength="163" x="202.5" y="104.8467">SewerIndicationAdapter</text><line style="stroke:#181818;stroke-width:0.5;" x1="174.5" x2="367.5" y1="116" y2="116"/><line style="stroke:#181818;stroke-width:0.5;" x1="174.5" x2="367.5" y1="124" y2="124"/><ellipse cx="184.5" cy="137.6484" fill="#84BE84" rx="3" ry="3" style="stroke:#038048;stroke-width:1.0;"/><text fill="#000000" font-family="sans-serif" font-size="14" lengthAdjust="spacing" textLength="120" x="193.5" y="140.9951">void serve(String)</text></g><!--class SewerObservationAdapter--><g id="elem_SewerObservationAdapter"><rect codeLine="31" fill="#F1F1F1" height="64.2969" id="SewerObservationAdapter" rx="2.5" ry="2.5" style="stroke:#181818;stroke-width:0.5;" width="212" x="530" y="84"/><ellipse cx="545" cy="100" fill="#ADD1B2" rx="11" ry="11" style="stroke:#181818;stroke-width:1.0;"/><path d="M547.9688,105.6406 Q547.3906,105.9375 546.75,106.0781 Q546.1094,106.2344 545.4063,106.2344 Q542.9063,106.2344 541.5781,104.5938 Q540.2656,102.9375 540.2656,99.8125 Q540.2656,96.6875 541.5781,95.0313 Q542.9063,93.375 545.4063,93.375 Q546.1094,93.375 546.75,93.5313 Q547.4063,93.6875 547.9688,93.9844 L547.9688,96.7031 Q547.3438,96.125 546.75,95.8594 Q546.1563,95.5781 545.5313,95.5781 Q544.1875,95.5781 543.5,96.6563 Q542.8125,97.7188 542.8125,99.8125 Q542.8125,101.9063 543.5,102.9844 Q544.1875,104.0469 545.5313,104.0469 Q546.1563,104.0469 546.75,103.7813 Q547.3438,103.5 547.9688,102.9219 L547.9688,105.6406 Z " fill="#000000"/><text fill="#000000" font-family="sans-serif" font-size="14" lengthAdjust="spacing" textLength="180" x="559" y="104.8467">SewerObservationAdapter</text><line style="stroke:#181818;stroke-width:0.5;" x1="531" x2="741" y1="116" y2="116"/><line style="stroke:#181818;stroke-width:0.5;" x1="531" x2="741" y1="124" y2="124"/><ellipse cx="541" cy="137.6484" fill="#84BE84" rx="3" ry="3" style="stroke:#038048;stroke-width:1.0;"/><text fill="#000000" font-family="sans-serif" font-size="14" lengthAdjust="spacing" textLength="184" x="550" y="140.9951">Set&lt;Object&gt; serve(String)</text></g><!--class SewersAdapter--><g id="elem_SewersAdapter"><rect codeLine="34" fill="#F1F1F1" height="80.5938" id="SewersAdapter" rx="2.5" ry="2.5" style="stroke:#181818;stroke-width:0.5;" width="222" x="930" y="1515.16"/><ellipse cx="984.25" cy="1531.16" fill="#B4A7E5" rx="11" ry="11" style="stroke:#181818;stroke-width:1.0;"/><path d="M980.1719,1526.9256 L980.1719,1524.7694 L987.5625,1524.7694 L987.5625,1526.9256 L985.0938,1526.9256 L985.0938,1535.0038 L987.5625,1535.0038 L987.5625,1537.16 L980.1719,1537.16 L980.1719,1535.0038 L982.6406,1535.0038 L982.6406,1526.9256 L980.1719,1526.9256 Z " fill="#000000"/><text fill="#000000" font-family="sans-serif" font-size="14" font-style="italic" lengthAdjust="spacing" textLength="105" x="1004.75" y="1536.0067">SewersAdapter</text><line style="stroke:#181818;stroke-width:0.5;" x1="931" x2="1151" y1="1547.16" y2="1547.16"/><line style="stroke:#181818;stroke-width:0.5;" x1="931" x2="1151" y1="1555.16" y2="1555.16"/><ellipse cx="941" cy="1568.8084" fill="#84BE84" rx="3" ry="3" style="stroke:#038048;stroke-width:1.0;"/><text fill="#000000" font-family="sans-serif" font-size="14" font-style="italic" lengthAdjust="spacing" textLength="196" x="950" y="1572.1551">Set&lt;Object&gt; observe(UUID)</text><ellipse cx="941" cy="1585.1053" fill="#84BE84" rx="3" ry="3" style="stroke:#038048;stroke-width:1.0;"/><text fill="#000000" font-family="sans-serif" font-size="14" font-style="italic" lengthAdjust="spacing" textLength="183" x="950" y="1588.452">void indicate(UUID, Object)</text></g><!--class SewersAdapterBridge--><g id="elem_SewersAdapterBridge"><rect codeLine="38" fill="#F1F1F1" height="80.5938" id="SewersAdapterBridge" rx="2.5" ry="2.5" style="stroke:#181818;stroke-width:0.5;" width="222" x="930" y="1374.56"/><ellipse cx="963" cy="1390.56" fill="#ADD1B2" rx="11" ry="11" style="stroke:#181818;stroke-width:1.0;"/><path d="M965.9688,1396.2006 Q965.3906,1396.4975 964.75,1396.6381 Q964.1094,1396.7944 963.4063,1396.7944 Q960.9063,1396.7944 959.5781,1395.1538 Q958.2656,1393.4975 958.2656,1390.3725 Q958.2656,1387.2475 959.5781,1385.5913 Q960.9063,1383.935 963.4063,1383.935 Q964.1094,1383.935 964.75,1384.0913 Q965.4063,1384.2475 965.9688,1384.5444 L965.9688,1387.2631 Q965.3438,1386.685 964.75,1386.4194 Q964.1563,1386.1381 963.5313,1386.1381 Q962.1875,1386.1381 961.5,1387.2163 Q960.8125,1388.2788 960.8125,1390.3725 Q960.8125,1392.4663 961.5,1393.5444 Q962.1875,1394.6069 963.5313,1394.6069 Q964.1563,1394.6069 964.75,1394.3413 Q965.3438,1394.06 965.9688,1393.4819 L965.9688,1396.2006 Z " fill="#000000"/><text fill="#000000" font-family="sans-serif" font-size="14" lengthAdjust="spacing" textLength="150" x="981" y="1395.4067">SewersAdapterBridge</text><line style="stroke:#181818;stroke-width:0.5;" x1="931" x2="1151" y1="1406.56" y2="1406.56"/><line style="stroke:#181818;stroke-width:0.5;" x1="931" x2="1151" y1="1414.56" y2="1414.56"/><ellipse cx="941" cy="1428.2084" fill="#84BE84" rx="3" ry="3" style="stroke:#038048;stroke-width:1.0;"/><text fill="#000000" font-family="sans-serif" font-size="14" lengthAdjust="spacing" textLength="196" x="950" y="1431.5551">Set&lt;Object&gt; observe(UUID)</text><ellipse cx="941" cy="1444.5053" fill="#84BE84" rx="3" ry="3" style="stroke:#038048;stroke-width:1.0;"/><text fill="#000000" font-family="sans-serif" font-size="14" lengthAdjust="spacing" textLength="183" x="950" y="1447.852">void indicate(UUID, Object)</text></g><!--class SewerOverflowIndicationService--><g id="elem_SewerOverflowIndicationService"><rect codeLine="42" fill="#F1F1F1" height="64.2969" id="SewerOverflowIndicationService" rx="2.5" ry="2.5" style="stroke:#181818;stroke-width:0.5;" width="250" x="146" y="448.59"/><ellipse cx="161" cy="464.59" fill="#ADD1B2" rx="11" ry="11" style="stroke:#181818;stroke-width:1.0;"/><path d="M163.9688,470.2306 Q163.3906,470.5275 162.75,470.6681 Q162.1094,470.8244 161.4063,470.8244 Q158.9063,470.8244 157.5781,469.1837 Q156.2656,467.5275 156.2656,464.4025 Q156.2656,461.2775 157.5781,459.6212 Q158.9063,457.965 161.4063,457.965 Q162.1094,457.965 162.75,458.1212 Q163.4063,458.2775 163.9688,458.5744 L163.9688,461.2931 Q163.3438,460.715 162.75,460.4494 Q162.1563,460.1681 161.5313,460.1681 Q160.1875,460.1681 159.5,461.2462 Q158.8125,462.3087 158.8125,464.4025 Q158.8125,466.4962 159.5,467.5744 Q160.1875,468.6369 161.5313,468.6369 Q162.1563,468.6369 162.75,468.3712 Q163.3438,468.09 163.9688,467.5119 L163.9688,470.2306 Z " fill="#000000"/><text fill="#000000" font-family="sans-serif" font-size="14" lengthAdjust="spacing" textLength="218" x="175" y="469.4367">SewerOverflowIndicationService</text><line style="stroke:#181818;stroke-width:0.5;" x1="147" x2="395" y1="480.59" y2="480.59"/><line style="stroke:#181818;stroke-width:0.5;" x1="147" x2="395" y1="488.59" y2="488.59"/><ellipse cx="157" cy="502.2384" fill="#84BE84" rx="3" ry="3" style="stroke:#038048;stroke-width:1.0;"/><text fill="#000000" font-family="sans-serif" font-size="14" lengthAdjust="spacing" textLength="123" x="166" y="505.5851">void serve(Sewer)</text></g><!--class SewerOverflowIndicationComponent--><g id="elem_SewerOverflowIndicationComponent"><rect codeLine="45" fill="#F1F1F1" height="64.2969" id="SewerOverflowIndicationComponent" rx="2.5" ry="2.5" style="stroke:#181818;stroke-width:0.5;" width="282" x="130" y="572.89"/><ellipse cx="145" cy="588.89" fill="#ADD1B2" rx="11" ry="11" style="stroke:#181818;stroke-width:1.0;"/><path d="M147.9688,594.5306 Q147.3906,594.8275 146.75,594.9681 Q146.1094,595.1244 145.4063,595.1244 Q142.9063,595.1244 141.5781,593.4838 Q140.2656,591.8275 140.2656,588.7025 Q140.2656,585.5775 141.5781,583.9213 Q142.9063,582.265 145.4063,582.265 Q146.1094,582.265 146.75,582.4213 Q147.4063,582.5775 147.9688,582.8744 L147.9688,585.5931 Q147.3438,585.015 146.75,584.7494 Q146.1563,584.4681 145.5313,584.4681 Q144.1875,584.4681 143.5,585.5463 Q142.8125,586.6088 142.8125,588.7025 Q142.8125,590.7963 143.5,591.8744 Q144.1875,592.9369 145.5313,592.9369 Q146.1563,592.9369 146.75,592.6713 Q147.3438,592.39 147.9688,591.8119 L147.9688,594.5306 Z " fill="#000000"/><text fill="#000000" font-family="sans-serif" font-size="14" lengthAdjust="spacing" textLength="250" x="159" y="593.7367">SewerOverflowIndicationComponent</text><line style="stroke:#181818;stroke-width:0.5;" x1="131" x2="411" y1="604.89" y2="604.89"/><line style="stroke:#181818;stroke-width:0.5;" x1="131" x2="411" y1="612.89" y2="612.89"/><ellipse cx="141" cy="626.5384" fill="#84BE84" rx="3" ry="3" style="stroke:#038048;stroke-width:1.0;"/><text fill="#000000" font-family="sans-serif" font-size="14" lengthAdjust="spacing" textLength="141" x="150" y="629.8851">void execute(Sewer)</text></g><!--class SewerObservationService--><g id="elem_SewerObservationService"><rect codeLine="48" fill="#F1F1F1" height="64.2969" id="SewerObservationService" rx="2.5" ry="2.5" style="stroke:#181818;stroke-width:0.5;" width="208" x="532" y="448.59"/><ellipse cx="547" cy="464.59" fill="#ADD1B2" rx="11" ry="11" style="stroke:#181818;stroke-width:1.0;"/><path d="M549.9688,470.2306 Q549.3906,470.5275 548.75,470.6681 Q548.1094,470.8244 547.4063,470.8244 Q544.9063,470.8244 543.5781,469.1837 Q542.2656,467.5275 542.2656,464.4025 Q542.2656,461.2775 543.5781,459.6212 Q544.9063,457.965 547.4063,457.965 Q548.1094,457.965 548.75,458.1212 Q549.4063,458.2775 549.9688,458.5744 L549.9688,461.2931 Q549.3438,460.715 548.75,460.4494 Q548.1563,460.1681 547.5313,460.1681 Q546.1875,460.1681 545.5,461.2462 Q544.8125,462.3087 544.8125,464.4025 Q544.8125,466.4962 545.5,467.5744 Q546.1875,468.6369 547.5313,468.6369 Q548.1563,468.6369 548.75,468.3712 Q549.3438,468.09 549.9688,467.5119 L549.9688,470.2306 Z " fill="#000000"/><text fill="#000000" font-family="sans-serif" font-size="14" lengthAdjust="spacing" textLength="176" x="561" y="469.4367">SewerObservationService</text><line style="stroke:#181818;stroke-width:0.5;" x1="533" x2="739" y1="480.59" y2="480.59"/><line style="stroke:#181818;stroke-width:0.5;" x1="533" x2="739" y1="488.59" y2="488.59"/><ellipse cx="543" cy="502.2384" fill="#84BE84" rx="3" ry="3" style="stroke:#038048;stroke-width:1.0;"/><text fill="#000000" font-family="sans-serif" font-size="14" lengthAdjust="spacing" textLength="182" x="552" y="505.5851">Set&lt;Sewer&gt; serve(String)</text></g><!--class SewerObservationComponent--><g id="elem_SewerObservationComponent"><rect codeLine="51" fill="#F1F1F1" height="64.2969" id="SewerObservationComponent" rx="2.5" ry="2.5" style="stroke:#181818;stroke-width:0.5;" width="240" x="516" y="572.89"/><ellipse cx="531" cy="588.89" fill="#ADD1B2" rx="11" ry="11" style="stroke:#181818;stroke-width:1.0;"/><path d="M533.9688,594.5306 Q533.3906,594.8275 532.75,594.9681 Q532.1094,595.1244 531.4063,595.1244 Q528.9063,595.1244 527.5781,593.4838 Q526.2656,591.8275 526.2656,588.7025 Q526.2656,585.5775 527.5781,583.9213 Q528.9063,582.265 531.4063,582.265 Q532.1094,582.265 532.75,582.4213 Q533.4063,582.5775 533.9688,582.8744 L533.9688,585.5931 Q533.3438,585.015 532.75,584.7494 Q532.1563,584.4681 531.5313,584.4681 Q530.1875,584.4681 529.5,585.5463 Q528.8125,586.6088 528.8125,588.7025 Q528.8125,590.7963 529.5,591.8744 Q530.1875,592.9369 531.5313,592.9369 Q532.1563,592.9369 532.75,592.6713 Q533.3438,592.39 533.9688,591.8119 L533.9688,594.5306 Z " fill="#000000"/><text fill="#000000" font-family="sans-serif" font-size="14" lengthAdjust="spacing" textLength="208" x="545" y="593.7367">SewerObservationComponent</text><line style="stroke:#181818;stroke-width:0.5;" x1="517" x2="755" y1="604.89" y2="604.89"/><line style="stroke:#181818;stroke-width:0.5;" x1="517" x2="755" y1="612.89" y2="612.89"/><ellipse cx="527" cy="626.5384" fill="#84BE84" rx="3" ry="3" style="stroke:#038048;stroke-width:1.0;"/><text fill="#000000" font-family="sans-serif" font-size="14" lengthAdjust="spacing" textLength="200" x="536" y="629.8851">Set&lt;Sewer&gt; execute(String)</text></g><!--class Sewers--><g id="elem_Sewers"><rect codeLine="54" fill="#F1F1F1" height="80.5938" id="Sewers" rx="2.5" ry="2.5" style="stroke:#181818;stroke-width:0.5;" width="336" x="433" y="830.34"/><ellipse cx="571.25" cy="846.34" fill="#B4A7E5" rx="11" ry="11" style="stroke:#181818;stroke-width:1.0;"/><path d="M567.1719,842.1056 L567.1719,839.9494 L574.5625,839.9494 L574.5625,842.1056 L572.0938,842.1056 L572.0938,850.1838 L574.5625,850.1838 L574.5625,852.34 L567.1719,852.34 L567.1719,850.1838 L569.6406,850.1838 L569.6406,842.1056 L567.1719,842.1056 Z " fill="#000000"/><text fill="#000000" font-family="sans-serif" font-size="14" font-style="italic" lengthAdjust="spacing" textLength="51" x="591.75" y="851.1867">Sewers</text><line style="stroke:#181818;stroke-width:0.5;" x1="434" x2="768" y1="862.34" y2="862.34"/><line style="stroke:#181818;stroke-width:0.5;" x1="434" x2="768" y1="870.34" y2="870.34"/><ellipse cx="444" cy="883.9884" fill="#84BE84" rx="3" ry="3" style="stroke:#038048;stroke-width:1.0;"/><text fill="#000000" font-family="sans-serif" font-size="14" font-style="italic" lengthAdjust="spacing" textLength="194" x="453" y="887.3351">Set&lt;Sewer&gt; observe(UUID)</text><ellipse cx="444" cy="900.2853" fill="#84BE84" rx="3" ry="3" style="stroke:#038048;stroke-width:1.0;"/><text fill="#000000" font-family="sans-serif" font-size="14" font-style="italic" lengthAdjust="spacing" textLength="310" x="453" y="903.632">void indicate(UUID, KeyPerformanceIndicator)</text></g><!--class Sewer--><g id="elem_Sewer"><rect codeLine="58" fill="#F1F1F1" height="96.8906" id="Sewer" rx="2.5" ry="2.5" style="stroke:#181818;stroke-width:0.5;" width="256" x="142" y="822.19"/><ellipse cx="244.25" cy="838.19" fill="#ADD1B2" rx="11" ry="11" style="stroke:#181818;stroke-width:1.0;"/><path d="M247.2188,843.8306 Q246.6406,844.1275 246,844.2681 Q245.3594,844.4244 244.6563,844.4244 Q242.1563,844.4244 240.8281,842.7838 Q239.5156,841.1275 239.5156,838.0025 Q239.5156,834.8775 240.8281,833.2213 Q242.1563,831.565 244.6563,831.565 Q245.3594,831.565 246,831.7213 Q246.6563,831.8775 247.2188,832.1744 L247.2188,834.8931 Q246.5938,834.315 246,834.0494 Q245.4063,833.7681 244.7813,833.7681 Q243.4375,833.7681 242.75,834.8463 Q242.0625,835.9088 242.0625,838.0025 Q242.0625,840.0963 242.75,841.1744 Q243.4375,842.2369 244.7813,842.2369 Q245.4063,842.2369 246,841.9713 Q246.5938,841.69 247.2188,841.1119 L247.2188,843.8306 Z " fill="#000000"/><text fill="#000000" font-family="sans-serif" font-size="14" lengthAdjust="spacing" textLength="43" x="264.75" y="843.0367">Sewer</text><line style="stroke:#181818;stroke-width:0.5;" x1="143" x2="397" y1="854.19" y2="854.19"/><line style="stroke:#181818;stroke-width:0.5;" x1="143" x2="397" y1="862.19" y2="862.19"/><ellipse cx="153" cy="875.8384" fill="#84BE84" rx="3" ry="3" style="stroke:#038048;stroke-width:1.0;"/><text fill="#000000" font-family="sans-serif" font-size="14" lengthAdjust="spacing" textLength="83" x="162" y="879.1851">UUID getId()</text><ellipse cx="153" cy="892.1353" fill="#84BE84" rx="3" ry="3" style="stroke:#038048;stroke-width:1.0;"/><text fill="#000000" font-family="sans-serif" font-size="14" lengthAdjust="spacing" textLength="230" x="162" y="895.482">KeyPerformanceIndicator getKpi()</text><ellipse cx="153" cy="908.4322" fill="#84BE84" rx="3" ry="3" style="stroke:#038048;stroke-width:1.0;"/><text fill="#000000" font-family="sans-serif" font-size="14" lengthAdjust="spacing" textLength="151" x="162" y="911.7789">Problem getProblem()</text></g><!--class KeyPerformanceIndicator--><g id="elem_KeyPerformanceIndicator"><rect codeLine="63" fill="#F1F1F1" height="96.8906" id="KeyPerformanceIndicator" rx="2.5" ry="2.5" style="stroke:#181818;stroke-width:0.5;" width="279" x="124.5" y="1018.08"/><ellipse cx="173.75" cy="1034.08" fill="#ADD1B2" rx="11" ry="11" style="stroke:#181818;stroke-width:1.0;"/><path d="M176.7188,1039.7206 Q176.1406,1040.0175 175.5,1040.1581 Q174.8594,1040.3144 174.1563,1040.3144 Q171.6563,1040.3144 170.3281,1038.6738 Q169.0156,1037.0175 169.0156,1033.8925 Q169.0156,1030.7675 170.3281,1029.1113 Q171.6563,1027.455 174.1563,1027.455 Q174.8594,1027.455 175.5,1027.6113 Q176.1563,1027.7675 176.7188,1028.0644 L176.7188,1030.7831 Q176.0938,1030.205 175.5,1029.9394 Q174.9063,1029.6581 174.2813,1029.6581 Q172.9375,1029.6581 172.25,1030.7363 Q171.5625,1031.7988 171.5625,1033.8925 Q171.5625,1035.9863 172.25,1037.0644 Q172.9375,1038.1269 174.2813,1038.1269 Q174.9063,1038.1269 175.5,1037.8613 Q176.0938,1037.58 176.7188,1037.0019 L176.7188,1039.7206 Z " fill="#000000"/><text fill="#000000" font-family="sans-serif" font-size="14" lengthAdjust="spacing" textLength="172" x="194.25" y="1038.9267">KeyPerformanceIndicator</text><line style="stroke:#181818;stroke-width:0.5;" x1="125.5" x2="402.5" y1="1050.08" y2="1050.08"/><line style="stroke:#181818;stroke-width:0.5;" x1="125.5" x2="402.5" y1="1058.08" y2="1058.08"/><ellipse cx="135.5" cy="1071.7284" fill="#84BE84" rx="3" ry="3" style="stroke:#038048;stroke-width:1.0;"/><text fill="#000000" font-family="sans-serif" font-size="14" lengthAdjust="spacing" textLength="253" x="144.5" y="1075.0751">String getPumpPowerConsumption()</text><ellipse cx="135.5" cy="1088.0253" fill="#84BE84" rx="3" ry="3" style="stroke:#038048;stroke-width:1.0;"/><text fill="#000000" font-family="sans-serif" font-size="14" lengthAdjust="spacing" textLength="108" x="144.5" y="1091.372">String getFlow()</text><ellipse cx="135.5" cy="1104.3222" fill="#84BE84" rx="3" ry="3" style="stroke:#038048;stroke-width:1.0;"/><text fill="#000000" font-family="sans-serif" font-size="14" lengthAdjust="spacing" textLength="125" x="144.5" y="1107.6689">String getRainfall()</text></g><!--class Problem--><g id="elem_Problem"><rect codeLine="68" fill="#F1F1F1" height="80.5938" id="Problem" rx="2.5" ry="2.5" style="stroke:#181818;stroke-width:0.5;" width="243" x="460.5" y="1026.23"/><ellipse cx="549.25" cy="1042.23" fill="#ADD1B2" rx="11" ry="11" style="stroke:#181818;stroke-width:1.0;"/><path d="M552.2188,1047.8706 Q551.6406,1048.1675 551,1048.3081 Q550.3594,1048.4644 549.6563,1048.4644 Q547.1563,1048.4644 545.8281,1046.8238 Q544.5156,1045.1675 544.5156,1042.0425 Q544.5156,1038.9175 545.8281,1037.2613 Q547.1563,1035.605 549.6563,1035.605 Q550.3594,1035.605 551,1035.7613 Q551.6563,1035.9175 552.2188,1036.2144 L552.2188,1038.9331 Q551.5938,1038.355 551,1038.0894 Q550.4063,1037.8081 549.7813,1037.8081 Q548.4375,1037.8081 547.75,1038.8863 Q547.0625,1039.9488 547.0625,1042.0425 Q547.0625,1044.1363 547.75,1045.2144 Q548.4375,1046.2769 549.7813,1046.2769 Q550.4063,1046.2769 551,1046.0113 Q551.5938,1045.73 552.2188,1045.1519 L552.2188,1047.8706 Z " fill="#000000"/><text fill="#000000" font-family="sans-serif" font-size="14" lengthAdjust="spacing" textLength="57" x="569.75" y="1047.0767">Problem</text><line style="stroke:#181818;stroke-width:0.5;" x1="461.5" x2="702.5" y1="1058.23" y2="1058.23"/><line style="stroke:#181818;stroke-width:0.5;" x1="461.5" x2="702.5" y1="1066.23" y2="1066.23"/><ellipse cx="471.5" cy="1079.8784" fill="#84BE84" rx="3" ry="3" style="stroke:#038048;stroke-width:1.0;"/><text fill="#000000" font-family="sans-serif" font-size="14" lengthAdjust="spacing" textLength="130" x="480.5" y="1083.2251">String getReason()</text><ellipse cx="471.5" cy="1096.1753" fill="#84BE84" rx="3" ry="3" style="stroke:#038048;stroke-width:1.0;"/><text fill="#000000" font-family="sans-serif" font-size="14" lengthAdjust="spacing" textLength="217" x="480.5" y="1099.522">Number getOverflowIndication()</text></g><!--class SewerIndicationUseCase--><g id="elem_SewerIndicationUseCase"><rect codeLine="72" fill="#F1F1F1" height="64.2969" id="SewerIndicationUseCase" rx="2.5" ry="2.5" style="stroke:#181818;stroke-width:0.5;" width="203" x="169.5" y="266.3"/><ellipse cx="184.5" cy="282.3" fill="#ADD1B2" rx="11" ry="11" style="stroke:#181818;stroke-width:1.0;"/><path d="M187.4688,287.9406 Q186.8906,288.2375 186.25,288.3781 Q185.6094,288.5344 184.9063,288.5344 Q182.4063,288.5344 181.0781,286.8937 Q179.7656,285.2375 179.7656,282.1125 Q179.7656,278.9875 181.0781,277.3312 Q182.4063,275.675 184.9063,275.675 Q185.6094,275.675 186.25,275.8312 Q186.9063,275.9875 187.4688,276.2844 L187.4688,279.0031 Q186.8438,278.425 186.25,278.1594 Q185.6563,277.8781 185.0313,277.8781 Q183.6875,277.8781 183,278.9562 Q182.3125,280.0187 182.3125,282.1125 Q182.3125,284.2062 183,285.2844 Q183.6875,286.3469 185.0313,286.3469 Q185.6563,286.3469 186.25,286.0812 Q186.8438,285.8 187.4688,285.2219 L187.4688,287.9406 Z " fill="#000000"/><text fill="#000000" font-family="sans-serif" font-size="14" lengthAdjust="spacing" textLength="171" x="198.5" y="287.1467">SewerIndicationUseCase</text><line style="stroke:#181818;stroke-width:0.5;" x1="170.5" x2="371.5" y1="298.3" y2="298.3"/><line style="stroke:#181818;stroke-width:0.5;" x1="170.5" x2="371.5" y1="306.3" y2="306.3"/><ellipse cx="180.5" cy="319.9484" fill="#84BE84" rx="3" ry="3" style="stroke:#038048;stroke-width:1.0;"/><text fill="#000000" font-family="sans-serif" font-size="14" lengthAdjust="spacing" textLength="120" x="189.5" y="323.2951">void serve(String)</text></g><!--class SewerObservationUseCase--><g id="elem_SewerObservationUseCase"><rect codeLine="75" fill="#F1F1F1" height="64.2969" id="SewerObservationUseCase" rx="2.5" ry="2.5" style="stroke:#181818;stroke-width:0.5;" width="220" x="526" y="266.3"/><ellipse cx="541" cy="282.3" fill="#ADD1B2" rx="11" ry="11" style="stroke:#181818;stroke-width:1.0;"/><path d="M543.9688,287.9406 Q543.3906,288.2375 542.75,288.3781 Q542.1094,288.5344 541.4063,288.5344 Q538.9063,288.5344 537.5781,286.8937 Q536.2656,285.2375 536.2656,282.1125 Q536.2656,278.9875 537.5781,277.3312 Q538.9063,275.675 541.4063,275.675 Q542.1094,275.675 542.75,275.8312 Q543.4063,275.9875 543.9688,276.2844 L543.9688,279.0031 Q543.3438,278.425 542.75,278.1594 Q542.1563,277.8781 541.5313,277.8781 Q540.1875,277.8781 539.5,278.9562 Q538.8125,280.0187 538.8125,282.1125 Q538.8125,284.2062 539.5,285.2844 Q540.1875,286.3469 541.5313,286.3469 Q542.1563,286.3469 542.75,286.0812 Q543.3438,285.8 543.9688,285.2219 L543.9688,287.9406 Z " fill="#000000"/><text fill="#000000" font-family="sans-serif" font-size="14" lengthAdjust="spacing" textLength="188" x="555" y="287.1467">SewerObservationUseCase</text><line style="stroke:#181818;stroke-width:0.5;" x1="527" x2="745" y1="298.3" y2="298.3"/><line style="stroke:#181818;stroke-width:0.5;" x1="527" x2="745" y1="306.3" y2="306.3"/><ellipse cx="537" cy="319.9484" fill="#84BE84" rx="3" ry="3" style="stroke:#038048;stroke-width:1.0;"/><text fill="#000000" font-family="sans-serif" font-size="14" lengthAdjust="spacing" textLength="182" x="546" y="323.2951">Set&lt;Sewer&gt; serve(String)</text></g><!--class SewersUseCase--><g id="elem_SewersUseCase"><rect codeLine="78" fill="#F1F1F1" height="80.5938" id="SewersUseCase" rx="2.5" ry="2.5" style="stroke:#181818;stroke-width:0.5;" width="222" x="930" y="1194.97"/><ellipse cx="980.25" cy="1210.97" fill="#B4A7E5" rx="11" ry="11" style="stroke:#181818;stroke-width:1.0;"/><path d="M976.1719,1206.7356 L976.1719,1204.5794 L983.5625,1204.5794 L983.5625,1206.7356 L981.0938,1206.7356 L981.0938,1214.8138 L983.5625,1214.8138 L983.5625,1216.97 L976.1719,1216.97 L976.1719,1214.8138 L978.6406,1214.8138 L978.6406,1206.7356 L976.1719,1206.7356 Z " fill="#000000"/><text fill="#000000" font-family="sans-serif" font-size="14" font-style="italic" lengthAdjust="spacing" textLength="113" x="1000.75" y="1215.8167">SewersUseCase</text><line style="stroke:#181818;stroke-width:0.5;" x1="931" x2="1151" y1="1226.97" y2="1226.97"/><line style="stroke:#181818;stroke-width:0.5;" x1="931" x2="1151" y1="1234.97" y2="1234.97"/><ellipse cx="941" cy="1248.6184" fill="#84BE84" rx="3" ry="3" style="stroke:#038048;stroke-width:1.0;"/><text fill="#000000" font-family="sans-serif" font-size="14" font-style="italic" lengthAdjust="spacing" textLength="196" x="950" y="1251.9651">Set&lt;Object&gt; observe(UUID)</text><ellipse cx="941" cy="1264.9153" fill="#84BE84" rx="3" ry="3" style="stroke:#038048;stroke-width:1.0;"/><text fill="#000000" font-family="sans-serif" font-size="14" font-style="italic" lengthAdjust="spacing" textLength="183" x="950" y="1268.262">void indicate(UUID, Object)</text></g><!--class SewersUseCaseBridge--><g id="elem_SewersUseCaseBridge"><rect codeLine="82" fill="#F1F1F1" height="80.5938" id="SewersUseCaseBridge" rx="2.5" ry="2.5" style="stroke:#181818;stroke-width:0.5;" width="336" x="873" y="1026.23"/><ellipse cx="957.75" cy="1042.23" fill="#ADD1B2" rx="11" ry="11" style="stroke:#181818;stroke-width:1.0;"/><path d="M960.7188,1047.8706 Q960.1406,1048.1675 959.5,1048.3081 Q958.8594,1048.4644 958.1563,1048.4644 Q955.6563,1048.4644 954.3281,1046.8238 Q953.0156,1045.1675 953.0156,1042.0425 Q953.0156,1038.9175 954.3281,1037.2613 Q955.6563,1035.605 958.1563,1035.605 Q958.8594,1035.605 959.5,1035.7613 Q960.1563,1035.9175 960.7188,1036.2144 L960.7188,1038.9331 Q960.0938,1038.355 959.5,1038.0894 Q958.9063,1037.8081 958.2813,1037.8081 Q956.9375,1037.8081 956.25,1038.8863 Q955.5625,1039.9488 955.5625,1042.0425 Q955.5625,1044.1363 956.25,1045.2144 Q956.9375,1046.2769 958.2813,1046.2769 Q958.9063,1046.2769 959.5,1046.0113 Q960.0938,1045.73 960.7188,1045.1519 L960.7188,1047.8706 Z " fill="#000000"/><text fill="#000000" font-family="sans-serif" font-size="14" lengthAdjust="spacing" textLength="158" x="978.25" y="1047.0767">SewersUseCaseBridge</text><line style="stroke:#181818;stroke-width:0.5;" x1="874" x2="1208" y1="1058.23" y2="1058.23"/><line style="stroke:#181818;stroke-width:0.5;" x1="874" x2="1208" y1="1066.23" y2="1066.23"/><ellipse cx="884" cy="1079.8784" fill="#84BE84" rx="3" ry="3" style="stroke:#038048;stroke-width:1.0;"/><text fill="#000000" font-family="sans-serif" font-size="14" lengthAdjust="spacing" textLength="194" x="893" y="1083.2251">Set&lt;Sewer&gt; observe(UUID)</text><ellipse cx="884" cy="1096.1753" fill="#84BE84" rx="3" ry="3" style="stroke:#038048;stroke-width:1.0;"/><text fill="#000000" font-family="sans-serif" font-size="14" lengthAdjust="spacing" textLength="310" x="893" y="1099.522">void indicate(UUID, KeyPerformanceIndicator)</text></g><!--link SewerIndicationAdapter to SewerIndicationUseCase--><g id="link_SewerIndicationAdapter_SewerIndicationUseCase"><path codeLine="86" d="M271,148.74 C271,181.82 271,226.74 271,259.83 " fill="none" id="SewerIndicationAdapter-to-SewerIndicationUseCase" style="stroke:#181818;stroke-width:1.0;"/><polygon fill="#181818" points="271,265.83,275,256.83,271,260.83,267,256.83,271,265.83" style="stroke:#181818;stroke-width:1.0;"/></g><!--link SewerObservationAdapter to SewerObservationUseCase--><g id="link_SewerObservationAdapter_SewerObservationUseCase"><path codeLine="87" d="M636,148.74 C636,181.82 636,226.74 636,259.83 " fill="none" id="SewerObservationAdapter-to-SewerObservationUseCase" style="stroke:#181818;stroke-width:1.0;"/><polygon fill="#181818" points="636,265.83,640,256.83,636,260.83,632,256.83,636,265.83" style="stroke:#181818;stroke-width:1.0;"/></g><!--reverse link SewersUseCase to SewersAdapterBridge--><g id="link_SewersUseCase_SewersAdapterBridge"><path codeLine="88" d="M1041,1294.02 C1041,1323.41 1041,1344.91 1041,1374.27 " fill="none" id="SewersUseCase-backto-SewersAdapterBridge" style="stroke:#181818;stroke-width:1.0;stroke-dasharray:7.0,7.0;"/><polygon fill="none" points="1041,1276.02,1035,1294.02,1047,1294.02,1041,1276.02" style="stroke:#181818;stroke-width:1.0;"/></g><!--link SewersAdapterBridge to SewersAdapter--><g id="link_SewersAdapterBridge_SewersAdapter"><path codeLine="89" d="M1041,1455.52 C1041,1474.18 1041,1490.24 1041,1508.88 " fill="none" id="SewersAdapterBridge-to-SewersAdapter" style="stroke:#181818;stroke-width:1.0;"/><polygon fill="#181818" points="1041,1514.88,1045,1505.88,1041,1509.88,1037,1505.88,1041,1514.88" style="stroke:#181818;stroke-width:1.0;"/></g><!--link SewerOverflowIndicationService to SewerOverflowIndicationComponent--><g id="link_SewerOverflowIndicationService_SewerOverflowIndicationComponent"><path codeLine="90" d="M271,513.08 C271,531.35 271,548.12 271,566.44 " fill="none" id="SewerOverflowIndicationService-to-SewerOverflowIndicationComponent" style="stroke:#181818;stroke-width:1.0;"/><polygon fill="#181818" points="271,572.44,275,563.44,271,567.44,267,563.44,271,572.44" style="stroke:#181818;stroke-width:1.0;"/></g><!--link SewerOverflowIndicationComponent to Sewers--><g id="link_SewerOverflowIndicationComponent_Sewers"><path codeLine="91" d="M407.75,637.62 C407.75,708.57 407.75,870.75 407.75,870.75 C407.75,870.75 411.5,870.75 426.62,870.75 " fill="none" id="SewerOverflowIndicationComponent-to-Sewers" style="stroke:#181818;stroke-width:1.0;"/><polygon fill="#181818" points="432.62,870.75,423.62,866.75,427.62,870.75,423.62,874.75,432.62,870.75" style="stroke:#181818;stroke-width:1.0;"/></g><!--link SewerObservationService to SewerObservationComponent--><g id="link_SewerObservationService_SewerObservationComponent"><path codeLine="92" d="M636,513.08 C636,531.35 636,548.12 636,566.44 " fill="none" id="SewerObservationService-to-SewerObservationComponent" style="stroke:#181818;stroke-width:1.0;"/><polygon fill="#181818" points="636,572.44,640,563.44,636,567.44,632,563.44,636,572.44" style="stroke:#181818;stroke-width:1.0;"/></g><!--link SewerObservationComponent to Sewers--><g id="link_SewerObservationComponent_Sewers"><path codeLine="93" d="M636,637.61 C636,686.09 636,771.18 636,823.97 " fill="none" id="SewerObservationComponent-to-Sewers" style="stroke:#181818;stroke-width:1.0;"/><polygon fill="#181818" points="636,829.97,640,820.97,636,824.97,632,820.97,636,829.97" style="stroke:#181818;stroke-width:1.0;"/></g><!--link Sewer to Problem--><g id="link_Sewer_Problem"><path codeLine="94" d="M398.25,915.75 C484.31,915.75 582,915.75 582,915.75 C582,915.75 582,975.46 582,1020.12 " fill="none" id="Sewer-to-Problem" style="stroke:#181818;stroke-width:1.0;"/><polygon fill="#181818" points="582,1026.12,586,1017.12,582,1021.12,578,1017.12,582,1026.12" style="stroke:#181818;stroke-width:1.0;"/></g><!--link Sewer to KeyPerformanceIndicator--><g id="link_Sewer_KeyPerformanceIndicator"><path codeLine="95" d="M270,919.56 C270,949.59 270,981.9 270,1011.88 " fill="none" id="Sewer-to-KeyPerformanceIndicator" style="stroke:#181818;stroke-width:1.0;"/><polygon fill="#181818" points="270,1017.88,274,1008.88,270,1012.88,266,1008.88,270,1017.88" style="stroke:#181818;stroke-width:1.0;"/></g><!--link SewerIndicationUseCase to SewerOverflowIndicationService--><g id="link_SewerIndicationUseCase_SewerOverflowIndicationService"><path codeLine="96" d="M271,331.04 C271,364.12 271,409.04 271,442.13 " fill="none" id="SewerIndicationUseCase-to-SewerOverflowIndicationService" style="stroke:#181818;stroke-width:1.0;"/><polygon fill="#181818" points="271,448.13,275,439.13,271,443.13,267,439.13,271,448.13" style="stroke:#181818;stroke-width:1.0;"/></g><!--link SewerObservationUseCase to SewerObservationService--><g id="link_SewerObservationUseCase_SewerObservationService"><path codeLine="97" d="M636,331.04 C636,364.12 636,409.04 636,442.13 " fill="none" id="SewerObservationUseCase-to-SewerObservationService" style="stroke:#181818;stroke-width:1.0;"/><polygon fill="#181818" points="636,448.13,640,439.13,636,443.13,632,439.13,636,448.13" style="stroke:#181818;stroke-width:1.0;"/></g><!--reverse link Sewers to SewersUseCaseBridge--><g id="link_Sewers_SewersUseCaseBridge"><path codeLine="98" d="M736.25,929.27 C736.25,986.71 736.25,1066.75 736.25,1066.75 C736.25,1066.75 802.1,1066.75 872.58,1066.75 " fill="none" id="Sewers-backto-SewersUseCaseBridge" style="stroke:#181818;stroke-width:1.0;stroke-dasharray:7.0,7.0;"/><polygon fill="none" points="736.25,911.27,730.25,929.27,742.25,929.27,736.25,911.27" style="stroke:#181818;stroke-width:1.0;"/></g><!--link SewersUseCaseBridge to SewersUseCase--><g id="link_SewersUseCaseBridge_SewersUseCase"><path codeLine="99" d="M1041,1106.94 C1041,1133.46 1041,1162.02 1041,1188.59 " fill="none" id="SewersUseCaseBridge-to-SewersUseCase" style="stroke:#181818;stroke-width:1.0;"/><polygon fill="#181818" points="1041,1194.59,1045,1185.59,1041,1189.59,1037,1185.59,1041,1194.59" style="stroke:#181818;stroke-width:1.0;"/></g><!--SRC=[rLRHRfim57ttLtZa9TLMQvhsi4fJfAtJfAZI6ZNgSsNWade16zccNTJrtmUOX0H20Wbcsrj4hiyzvt1zEMzYIHSHnOc2ATSW8_0PrJ2Ztf8kGE60XWgGMZ8UKqaZ738EUXK35b8_2gGUnJDMwJaGsLCKctFOb-m9fC9KOH-89wAOyXM9fT1v7L7m39AigqPgkNB31F3BwmQ1-ZJMhI78fdpqwKCGk1-teLoHS9_ALKSemhZFlDGCiW4OXIo2Fg25gq0-sK3E7wi3mEcRVl2eWgxEalBWA0YkwDNLDYfmpJGx0vHi44Q15_Zk-pxCgAEtUQcUu5gAq4OpiiOU2Kdv0Yo9F3vU_McizXf8egaSGk1kfqFoyYChQor9WM_tWfZAPSm6D7Uxsu06xsixfCdfIJU4Q42Zgnq7DBkfjLN3BNx2ooRsFkPbZyRFEl92gXHsvbd1rCXbWdyn4CxPcOVi1yOl2EEtJuBvE1S_dcl9-E82lUuGkisjEOjHxVlI06mOpK5_ldL_WgSdDM8i2xW1zQ0WfqwbL7aPP0VDyC0lr5LQKa-_RbCgn8plxwVVBYfrkPbh__EATzYSgxgwRlLLCdy1_T8tc7KpQypRqxrDsmUXU2w7Q9v2CQyxyrOHwt3F-k1cvSSfNwSS1K_REZPp8JdMVOi-_08lqKq2ollHezb7x-AEoTduv0MJjZkYLvERWYbfx5gZlR6uUOSu_SSz0xntZnIykgwH6rZDKjf2HfHxK8oLg0sDOpkw6cb6MSOCBq1F_N4keO5ZLd8JCrCpCnaYUrRy76zfQ41mXiYBf8c-6QbyVdBQIHJFH0fsBRXAVsVpPxILDT_JgrzzTaSP3sWORkijB726YcXaRNz5qnrGjLRn8ubSo5zQVOcDg_DM_dMlu3fbvFIOzCZ-5js3o_dSZgxD7Mu7rcPj-vpFRNyOs25aDyiKhKxCCYs5L5DDqnxjk3oj9ElBoudbEu2ivE_JURUz7wZlb4iIydjYOzvwPzhLt8EOQEZCVVfez12PqTyBwptetfiDqL0vlWS1tMCu6Zxu_wilgasQxerxo_ZtNsaw8R8Zom7KoZ8yl82HvTngOqqqh2HaBnsUamQih84sf4-t_Y3w7m00]--></g></svg>