<svg xmlns="http://www.w3.org/2000/svg" xmlns:xlink="http://www.w3.org/1999/xlink" contentStyleType="text/css" height="1659px" preserveAspectRatio="none" style="width:2291px;height:1659px;background:#FFFFFF;" version="1.1" viewBox="0 0 2291 1659" width="2291px" zoomAndPan="magnify"><defs/><g><!--cluster adapters--><g id="cluster_adapters"><path d="M8.5,6 L379.5,6 A3.75,3.75 0 0 1 382,8.5 L389,28.2969 L2281.5,28.2969 A2.5,2.5 0 0 1 2284,30.7969 L2284,1649.55 A2.5,2.5 0 0 1 2281.5,1652.05 L8.5,1652.05 A2.5,2.5 0 0 1 6,1649.55 L6,8.5 A2.5,2.5 0 0 1 8.5,6 " fill="#82FFB4" style="stroke:#000000;stroke-width:1.5;"/><line style="stroke:#000000;stroke-width:1.5;" x1="6" x2="389" y1="28.2969" y2="28.2969"/><text fill="#000000" font-family="sans-serif" font-size="14" font-weight="bold" lengthAdjust="spacing" textLength="370" x="10" y="20.9951">de.company.prototype.sewer.drivers.adapters</text></g><!--cluster boundary--><g id="cluster_boundary"><path d="M741.5,49 L884.5,49 A3.75,3.75 0 0 1 887,51.5 L894,71.2969 L962.5,71.2969 A2.5,2.5 0 0 1 965,73.7969 L965,161.8 A2.5,2.5 0 0 1 962.5,164.3 L741.5,164.3 A2.5,2.5 0 0 1 739,161.8 L739,51.5 A2.5,2.5 0 0 1 741.5,49 " fill="#00FF00" style="stroke:#000000;stroke-width:1.5;"/><line style="stroke:#000000;stroke-width:1.5;" x1="739" x2="894" y1="71.2969" y2="71.2969"/><text fill="#000000" font-family="sans-serif" font-size="14" font-weight="bold" lengthAdjust="spacing" textLength="142" x="743" y="63.9951">indicate.boundary</text></g><!--cluster boundary--><g id="cluster_boundary"><path d="M1638.5,49 L1784.5,49 A3.75,3.75 0 0 1 1787,51.5 L1794,71.2969 L1877.5,71.2969 A2.5,2.5 0 0 1 1880,73.7969 L1880,161.8 A2.5,2.5 0 0 1 1877.5,164.3 L1638.5,164.3 A2.5,2.5 0 0 1 1636,161.8 L1636,51.5 A2.5,2.5 0 0 1 1638.5,49 " fill="#00FF00" style="stroke:#000000;stroke-width:1.5;"/><line style="stroke:#000000;stroke-width:1.5;" x1="1636" x2="1794" y1="71.2969" y2="71.2969"/><text fill="#000000" font-family="sans-serif" font-size="14" font-weight="bold" lengthAdjust="spacing" textLength="145" x="1640" y="63.9951">observe.boundary</text></g><!--cluster boundary--><g id="cluster_boundary"><path d="M1984.5,1355.86 L2124.5,1355.86 A3.75,3.75 0 0 1 2127,1358.36 L2134,1378.1569 L2233.5,1378.1569 A2.5,2.5 0 0 1 2236,1380.6569 L2236,1625.55 A2.5,2.5 0 0 1 2233.5,1628.05 L1984.5,1628.05 A2.5,2.5 0 0 1 1982,1625.55 L1982,1358.36 A2.5,2.5 0 0 1 1984.5,1355.86 " fill="#00FF00" style="stroke:#000000;stroke-width:1.5;"/><line style="stroke:#000000;stroke-width:1.5;" x1="1982" x2="2134" y1="1378.1569" y2="1378.1569"/><text fill="#000000" font-family="sans-serif" font-size="14" font-weight="bold" lengthAdjust="spacing" textLength="139" x="1986" y="1370.8551">sewers.boundary</text></g><!--cluster use_cases--><g id="cluster_use_cases"><path d="M32.5,188.3 L115.5,188.3 A3.75,3.75 0 0 1 118,190.8 L125,210.5969 L2257.5,210.5969 A2.5,2.5 0 0 1 2260,213.0969 L2260,1329.36 A2.5,2.5 0 0 1 2257.5,1331.86 L32.5,1331.86 A2.5,2.5 0 0 1 30,1329.36 L30,190.8 A2.5,2.5 0 0 1 32.5,188.3 " fill="#FF9A99" style="stroke:#000000;stroke-width:1.5;"/><line style="stroke:#000000;stroke-width:1.5;" x1="30" x2="125" y1="210.5969" y2="210.5969"/><text fill="#000000" font-family="sans-serif" font-size="14" font-weight="bold" lengthAdjust="spacing" textLength="82" x="34" y="203.2951">use_cases</text></g><!--cluster entities--><g id="cluster_entities"><path d="M56.5,370.6 L116.5,370.6 A3.75,3.75 0 0 1 119,373.1 L126,392.8969 L1955.5,392.8969 A2.5,2.5 0 0 1 1958,395.3969 L1958,1192.77 A2.5,2.5 0 0 1 1955.5,1195.27 L56.5,1195.27 A2.5,2.5 0 0 1 54,1192.77 L54,373.1 A2.5,2.5 0 0 1 56.5,370.6 " fill="#FCFDB0" style="stroke:#000000;stroke-width:1.5;"/><line style="stroke:#000000;stroke-width:1.5;" x1="54" x2="126" y1="392.8969" y2="392.8969"/><text fill="#000000" font-family="sans-serif" font-size="14" font-weight="bold" lengthAdjust="spacing" textLength="59" x="58" y="385.5951">entities</text></g><!--cluster boundary--><g id="cluster_boundary"><path d="M80.5,413.6 L223.5,413.6 A3.75,3.75 0 0 1 226,416.1 L233,435.8969 L1247.5,435.8969 A2.5,2.5 0 0 1 1250,438.3969 L1250,948.43 A2.5,2.5 0 0 1 1247.5,950.93 L80.5,950.93 A2.5,2.5 0 0 1 78,948.43 L78,416.1 A2.5,2.5 0 0 1 80.5,413.6 " fill="#00FF00" style="stroke:#000000;stroke-width:1.5;"/><line style="stroke:#000000;stroke-width:1.5;" x1="78" x2="233" y1="435.8969" y2="435.8969"/><text fill="#000000" font-family="sans-serif" font-size="14" font-weight="bold" lengthAdjust="spacing" textLength="142" x="82" y="428.5951">indicate.boundary</text></g><!--cluster control--><g id="cluster_control"><path d="M104.5,537.89 L161.5,537.89 A3.75,3.75 0 0 1 164,540.39 L171,560.1869 L1223.5,560.1869 A2.5,2.5 0 0 1 1226,562.6869 L1226,924.43 A2.5,2.5 0 0 1 1223.5,926.93 L104.5,926.93 A2.5,2.5 0 0 1 102,924.43 L102,540.39 A2.5,2.5 0 0 1 104.5,537.89 " fill="#FFA500" style="stroke:#000000;stroke-width:1.5;"/><line style="stroke:#000000;stroke-width:1.5;" x1="102" x2="171" y1="560.1869" y2="560.1869"/><text fill="#000000" font-family="sans-serif" font-size="14" font-weight="bold" lengthAdjust="spacing" textLength="56" x="106" y="552.8851">control</text></g><!--cluster boundary--><g id="cluster_boundary"><path d="M1600.5,413.6 L1746.5,413.6 A3.75,3.75 0 0 1 1749,416.1 L1756,435.8969 L1915.5,435.8969 A2.5,2.5 0 0 1 1918,438.3969 L1918,674.69 A2.5,2.5 0 0 1 1915.5,677.19 L1600.5,677.19 A2.5,2.5 0 0 1 1598,674.69 L1598,416.1 A2.5,2.5 0 0 1 1600.5,413.6 " fill="#00FF00" style="stroke:#000000;stroke-width:1.5;"/><line style="stroke:#000000;stroke-width:1.5;" x1="1598" x2="1756" y1="435.8969" y2="435.8969"/><text fill="#000000" font-family="sans-serif" font-size="14" font-weight="bold" lengthAdjust="spacing" textLength="145" x="1602" y="428.5951">observe.boundary</text></g><!--cluster control--><g id="cluster_control"><path d="M1624.5,537.89 L1681.5,537.89 A3.75,3.75 0 0 1 1684,540.39 L1691,560.1869 L1891.5,560.1869 A2.5,2.5 0 0 1 1894,562.6869 L1894,650.69 A2.5,2.5 0 0 1 1891.5,653.19 L1624.5,653.19 A2.5,2.5 0 0 1 1622,650.69 L1622,540.39 A2.5,2.5 0 0 1 1624.5,537.89 " fill="#FFA500" style="stroke:#000000;stroke-width:1.5;"/><line style="stroke:#000000;stroke-width:1.5;" x1="1622" x2="1691" y1="560.1869" y2="560.1869"/><text fill="#000000" font-family="sans-serif" font-size="14" font-weight="bold" lengthAdjust="spacing" textLength="56" x="1626" y="552.8851">control</text></g><!--cluster sewer--><g id="cluster_sewer"><path d="M1276.5,701.19 L1327.5,701.19 A3.75,3.75 0 0 1 1330,703.69 L1337,723.4869 L1931.5,723.4869 A2.5,2.5 0 0 1 1934,725.9869 L1934,1168.77 A2.5,2.5 0 0 1 1931.5,1171.27 L1276.5,1171.27 A2.5,2.5 0 0 1 1274,1168.77 L1274,703.69 A2.5,2.5 0 0 1 1276.5,701.19 " fill="none" style="stroke:#000000;stroke-width:1.5;"/><line style="stroke:#000000;stroke-width:1.5;" x1="1274" x2="1337" y1="723.4869" y2="723.4869"/><text fill="#000000" font-family="sans-serif" font-size="14" font-weight="bold" lengthAdjust="spacing" textLength="50" x="1278" y="716.1851">sewer</text></g><!--cluster boundary--><g id="cluster_boundary"><path d="M1316.5,744.19 L1392.5,744.19 A3.75,3.75 0 0 1 1395,746.69 L1402,766.4869 L1881.5,766.4869 A2.5,2.5 0 0 1 1884,768.9869 L1884,972.88 A2.5,2.5 0 0 1 1881.5,975.38 L1316.5,975.38 A2.5,2.5 0 0 1 1314,972.88 L1314,746.69 A2.5,2.5 0 0 1 1316.5,744.19 " fill="#00FF00" style="stroke:#000000;stroke-width:1.5;"/><line style="stroke:#000000;stroke-width:1.5;" x1="1314" x2="1402" y1="766.4869" y2="766.4869"/><text fill="#000000" font-family="sans-serif" font-size="14" font-weight="bold" lengthAdjust="spacing" textLength="75" x="1318" y="759.1851">boundary</text></g><!--cluster entity--><g id="cluster_entity"><path d="M1340.5,787.19 L1447.5,787.19 A3.75,3.75 0 0 1 1450,789.69 L1457,809.4869 L1625.5,809.4869 A2.5,2.5 0 0 1 1628,811.9869 L1628,948.88 A2.5,2.5 0 0 1 1625.5,951.38 L1340.5,951.38 A2.5,2.5 0 0 1 1338,948.88 L1338,789.69 A2.5,2.5 0 0 1 1340.5,787.19 " fill="#FCFDB0" style="stroke:#000000;stroke-width:1.5;"/><line style="stroke:#000000;stroke-width:1.5;" x1="1338" x2="1457" y1="809.4869" y2="809.4869"/><text fill="#000000" font-family="sans-serif" font-size="14" font-weight="bold" lengthAdjust="spacing" textLength="106" x="1342" y="802.1851">control.entity</text></g><!--cluster entity--><g id="cluster_entity"><path d="M1300.5,999.38 L1515.5,999.38 A3.75,3.75 0 0 1 1518,1001.88 L1525,1021.6769 L1607.5,1021.6769 A2.5,2.5 0 0 1 1610,1024.1769 L1610,1144.77 A2.5,2.5 0 0 1 1607.5,1147.27 L1300.5,1147.27 A2.5,2.5 0 0 1 1298,1144.77 L1298,1001.88 A2.5,2.5 0 0 1 1300.5,999.38 " fill="#FCFDB0" style="stroke:#000000;stroke-width:1.5;"/><line style="stroke:#000000;stroke-width:1.5;" x1="1298" x2="1525" y1="1021.6769" y2="1021.6769"/><text fill="#000000" font-family="sans-serif" font-size="14" font-weight="bold" lengthAdjust="spacing" textLength="214" x="1302" y="1014.3751">kpi.boundary.control.entity</text></g><!--cluster entity--><g id="cluster_entity"><path d="M1636.5,1007.53 L1893.5,1007.53 A3.75,3.75 0 0 1 1896,1010.03 L1903,1029.8269 L1907.5,1029.8269 A2.5,2.5 0 0 1 1910,1032.3269 L1910,1136.62 A2.5,2.5 0 0 1 1907.5,1139.12 L1636.5,1139.12 A2.5,2.5 0 0 1 1634,1136.62 L1634,1010.03 A2.5,2.5 0 0 1 1636.5,1007.53 " fill="#FCFDB0" style="stroke:#000000;stroke-width:1.5;"/><line style="stroke:#000000;stroke-width:1.5;" x1="1634" x2="1903" y1="1029.8269" y2="1029.8269"/><text fill="#000000" font-family="sans-serif" font-size="14" font-weight="bold" lengthAdjust="spacing" textLength="256" x="1638" y="1022.5251">problem.boundary.control.entity</text></g><!--cluster boundary--><g id="cluster_boundary"><path d="M737.5,231.3 L880.5,231.3 A3.75,3.75 0 0 1 883,233.8 L890,253.5969 L966.5,253.5969 A2.5,2.5 0 0 1 969,256.0969 L969,344.1 A2.5,2.5 0 0 1 966.5,346.6 L737.5,346.6 A2.5,2.5 0 0 1 735,344.1 L735,233.8 A2.5,2.5 0 0 1 737.5,231.3 " fill="#00FF00" style="stroke:#000000;stroke-width:1.5;"/><line style="stroke:#000000;stroke-width:1.5;" x1="735" x2="890" y1="253.5969" y2="253.5969"/><text fill="#000000" font-family="sans-serif" font-size="14" font-weight="bold" lengthAdjust="spacing" textLength="142" x="739" y="246.2951">indicate.boundary</text></g><!--cluster boundary--><g id="cluster_boundary"><path d="M1634.5,231.3 L1780.5,231.3 A3.75,3.75 0 0 1 1783,233.8 L1790,253.5969 L1881.5,253.5969 A2.5,2.5 0 0 1 1884,256.0969 L1884,344.1 A2.5,2.5 0 0 1 1881.5,346.6 L1634.5,346.6 A2.5,2.5 0 0 1 1632,344.1 L1632,233.8 A2.5,2.5 0 0 1 1634.5,231.3 " fill="#00FF00" style="stroke:#000000;stroke-width:1.5;"/><line style="stroke:#000000;stroke-width:1.5;" x1="1632" x2="1790" y1="253.5969" y2="253.5969"/><text fill="#000000" font-family="sans-serif" font-size="14" font-weight="bold" lengthAdjust="spacing" textLength="145" x="1636" y="246.2951">observe.boundary</text></g><!--cluster boundary--><g id="cluster_boundary"><path d="M1984.5,1007.53 L2124.5,1007.53 A3.75,3.75 0 0 1 2127,1010.03 L2134,1029.8269 L2233.5,1029.8269 A2.5,2.5 0 0 1 2236,1032.3269 L2236,1305.36 A2.5,2.5 0 0 1 2233.5,1307.86 L1984.5,1307.86 A2.5,2.5 0 0 1 1982,1305.36 L1982,1010.03 A2.5,2.5 0 0 1 1984.5,1007.53 " fill="#00FF00" style="stroke:#000000;stroke-width:1.5;"/><line style="stroke:#000000;stroke-width:1.5;" x1="1982" x2="2134" y1="1029.8269" y2="1029.8269"/><text fill="#000000" font-family="sans-serif" font-size="14" font-weight="bold" lengthAdjust="spacing" textLength="139" x="1986" y="1022.5251">sewers.boundary</text></g><!--class SewerIndicationAdapter--><g id="elem_SewerIndicationAdapter"><rect codeLine="28" fill="#F1F1F1" height="64.2969" id="SewerIndicationAdapter" rx="2.5" ry="2.5" style="stroke:#181818;stroke-width:0.5;" width="195" x="754.5" y="84"/><ellipse cx="769.5" cy="100" fill="#ADD1B2" rx="11" ry="11" style="stroke:#181818;stroke-width:1.0;"/><path d="M772.4688,105.6406 Q771.8906,105.9375 771.25,106.0781 Q770.6094,106.2344 769.9063,106.2344 Q767.4063,106.2344 766.0781,104.5938 Q764.7656,102.9375 764.7656,99.8125 Q764.7656,96.6875 766.0781,95.0313 Q767.4063,93.375 769.9063,93.375 Q770.6094,93.375 771.25,93.5313 Q771.9063,93.6875 772.4688,93.9844 L772.4688,96.7031 Q771.8438,96.125 771.25,95.8594 Q770.6563,95.5781 770.0313,95.5781 Q768.6875,95.5781 768,96.6563 Q767.3125,97.7188 767.3125,99.8125 Q767.3125,101.9063 768,102.9844 Q768.6875,104.0469 770.0313,104.0469 Q770.6563,104.0469 771.25,103.7813 Q771.8438,103.5 772.4688,102.9219 L772.4688,105.6406 Z " fill="#000000"/><text fill="#000000" font-family="sans-serif" font-size="14" lengthAdjust="spacing" textLength="163" x="783.5" y="104.8467">SewerIndicationAdapter</text><line style="stroke:#181818;stroke-width:0.5;" x1="755.5" x2="948.5" y1="116" y2="116"/><line style="stroke:#181818;stroke-width:0.5;" x1="755.5" x2="948.5" y1="124" y2="124"/><ellipse cx="765.5" cy="137.6484" fill="#84BE84" rx="3" ry="3" style="stroke:#038048;stroke-width:1.0;"/><text fill="#000000" font-family="sans-serif" font-size="14" lengthAdjust="spacing" textLength="120" x="774.5" y="140.9951">void serve(String)</text></g><!--class SewerObservationAdapter--><g id="elem_SewerObservationAdapter"><rect codeLine="31" fill="#F1F1F1" height="64.2969" id="SewerObservationAdapter" rx="2.5" ry="2.5" style="stroke:#181818;stroke-width:0.5;" width="212" x="1652" y="84"/><ellipse cx="1667" cy="100" fill="#ADD1B2" rx="11" ry="11" style="stroke:#181818;stroke-width:1.0;"/><path d="M1669.9688,105.6406 Q1669.3906,105.9375 1668.75,106.0781 Q1668.1094,106.2344 1667.4063,106.2344 Q1664.9063,106.2344 1663.5781,104.5938 Q1662.2656,102.9375 1662.2656,99.8125 Q1662.2656,96.6875 1663.5781,95.0313 Q1664.9063,93.375 1667.4063,93.375 Q1668.1094,93.375 1668.75,93.5313 Q1669.4063,93.6875 1669.9688,93.9844 L1669.9688,96.7031 Q1669.3438,96.125 1668.75,95.8594 Q1668.1563,95.5781 1667.5313,95.5781 Q1666.1875,95.5781 1665.5,96.6563 Q1664.8125,97.7188 1664.8125,99.8125 Q1664.8125,101.9063 1665.5,102.9844 Q1666.1875,104.0469 1667.5313,104.0469 Q1668.1563,104.0469 1668.75,103.7813 Q1669.3438,103.5 1669.9688,102.9219 L1669.9688,105.6406 Z " fill="#000000"/><text fill="#000000" font-family="sans-serif" font-size="14" lengthAdjust="spacing" textLength="180" x="1681" y="104.8467">SewerObservationAdapter</text><line style="stroke:#181818;stroke-width:0.5;" x1="1653" x2="1863" y1="116" y2="116"/><line style="stroke:#181818;stroke-width:0.5;" x1="1653" x2="1863" y1="124" y2="124"/><ellipse cx="1663" cy="137.6484" fill="#84BE84" rx="3" ry="3" style="stroke:#038048;stroke-width:1.0;"/><text fill="#000000" font-family="sans-serif" font-size="14" lengthAdjust="spacing" textLength="184" x="1672" y="140.9951">Set&lt;Object&gt; serve(String)</text></g><!--class SewersAdapter--><g id="elem_SewersAdapter"><rect codeLine="34" fill="#F1F1F1" height="80.5938" id="SewersAdapter" rx="2.5" ry="2.5" style="stroke:#181818;stroke-width:0.5;" width="222" x="1998" y="1531.46"/><ellipse cx="2052.25" cy="1547.46" fill="#B4A7E5" rx="11" ry="11" style="stroke:#181818;stroke-width:1.0;"/><path d="M2048.1719,1543.2256 L2048.1719,1541.0694 L2055.5625,1541.0694 L2055.5625,1543.2256 L2053.0938,1543.2256 L2053.0938,1551.3038 L2055.5625,1551.3038 L2055.5625,1553.46 L2048.1719,1553.46 L2048.1719,1551.3038 L2050.6406,1551.3038 L2050.6406,1543.2256 L2048.1719,1543.2256 Z " fill="#000000"/><text fill="#000000" font-family="sans-serif" font-size="14" font-style="italic" lengthAdjust="spacing" textLength="105" x="2072.75" y="1552.3067">SewersAdapter</text><line style="stroke:#181818;stroke-width:0.5;" x1="1999" x2="2219" y1="1563.46" y2="1563.46"/><line style="stroke:#181818;stroke-width:0.5;" x1="1999" x2="2219" y1="1571.46" y2="1571.46"/><ellipse cx="2009" cy="1585.1084" fill="#84BE84" rx="3" ry="3" style="stroke:#038048;stroke-width:1.0;"/><text fill="#000000" font-family="sans-serif" font-size="14" font-style="italic" lengthAdjust="spacing" textLength="196" x="2018" y="1588.4551">Set&lt;Object&gt; observe(UUID)</text><ellipse cx="2009" cy="1601.4053" fill="#84BE84" rx="3" ry="3" style="stroke:#038048;stroke-width:1.0;"/><text fill="#000000" font-family="sans-serif" font-size="14" font-style="italic" lengthAdjust="spacing" textLength="183" x="2018" y="1604.752">void indicate(UUID, Object)</text></g><!--class SewersAdapterBridge--><g id="elem_SewersAdapterBridge"><rect codeLine="38" fill="#F1F1F1" height="80.5938" id="SewersAdapterBridge" rx="2.5" ry="2.5" style="stroke:#181818;stroke-width:0.5;" width="222" x="1998" y="1390.86"/><ellipse cx="2031" cy="1406.86" fill="#ADD1B2" rx="11" ry="11" style="stroke:#181818;stroke-width:1.0;"/><path d="M2033.9688,1412.5006 Q2033.3906,1412.7975 2032.75,1412.9381 Q2032.1094,1413.0944 2031.4063,1413.0944 Q2028.9063,1413.0944 2027.5781,1411.4538 Q2026.2656,1409.7975 2026.2656,1406.6725 Q2026.2656,1403.5475 2027.5781,1401.8913 Q2028.9063,1400.235 2031.4063,1400.235 Q2032.1094,1400.235 2032.75,1400.3913 Q2033.4063,1400.5475 2033.9688,1400.8444 L2033.9688,1403.5631 Q2033.3438,1402.985 2032.75,1402.7194 Q2032.1563,1402.4381 2031.5313,1402.4381 Q2030.1875,1402.4381 2029.5,1403.5163 Q2028.8125,1404.5788 2028.8125,1406.6725 Q2028.8125,1408.7663 2029.5,1409.8444 Q2030.1875,1410.9069 2031.5313,1410.9069 Q2032.1563,1410.9069 2032.75,1410.6413 Q2033.3438,1410.36 2033.9688,1409.7819 L2033.9688,1412.5006 Z " fill="#000000"/><text fill="#000000" font-family="sans-serif" font-size="14" lengthAdjust="spacing" textLength="150" x="2049" y="1411.7067">SewersAdapterBridge</text><line style="stroke:#181818;stroke-width:0.5;" x1="1999" x2="2219" y1="1422.86" y2="1422.86"/><line style="stroke:#181818;stroke-width:0.5;" x1="1999" x2="2219" y1="1430.86" y2="1430.86"/><ellipse cx="2009" cy="1444.5084" fill="#84BE84" rx="3" ry="3" style="stroke:#038048;stroke-width:1.0;"/><text fill="#000000" font-family="sans-serif" font-size="14" lengthAdjust="spacing" textLength="196" x="2018" y="1447.8551">Set&lt;Object&gt; observe(UUID)</text><ellipse cx="2009" cy="1460.8053" fill="#84BE84" rx="3" ry="3" style="stroke:#038048;stroke-width:1.0;"/><text fill="#000000" font-family="sans-serif" font-size="14" lengthAdjust="spacing" textLength="183" x="2018" y="1464.152">void indicate(UUID, Object)</text></g><!--class SewerOverflowIndicationService--><g id="elem_SewerOverflowIndicationService"><rect codeLine="42" fill="#F1F1F1" height="64.2969" id="SewerOverflowIndicationService" rx="2.5" ry="2.5" style="stroke:#181818;stroke-width:0.5;" width="250" x="727" y="448.6"/><ellipse cx="742" cy="464.6" fill="#ADD1B2" rx="11" ry="11" style="stroke:#181818;stroke-width:1.0;"/><path d="M744.9688,470.2406 Q744.3906,470.5375 743.75,470.6781 Q743.1094,470.8344 742.4063,470.8344 Q739.9063,470.8344 738.5781,469.1937 Q737.2656,467.5375 737.2656,464.4125 Q737.2656,461.2875 738.5781,459.6312 Q739.9063,457.975 742.4063,457.975 Q743.1094,457.975 743.75,458.1312 Q744.4063,458.2875 744.9688,458.5844 L744.9688,461.3031 Q744.3438,460.725 743.75,460.4594 Q743.1563,460.1781 742.5313,460.1781 Q741.1875,460.1781 740.5,461.2562 Q739.8125,462.3187 739.8125,464.4125 Q739.8125,466.5062 740.5,467.5844 Q741.1875,468.6469 742.5313,468.6469 Q743.1563,468.6469 743.75,468.3812 Q744.3438,468.1 744.9688,467.5219 L744.9688,470.2406 Z " fill="#000000"/><text fill="#000000" font-family="sans-serif" font-size="14" lengthAdjust="spacing" textLength="218" x="756" y="469.4467">SewerOverflowIndicationService</text><line style="stroke:#181818;stroke-width:0.5;" x1="728" x2="976" y1="480.6" y2="480.6"/><line style="stroke:#181818;stroke-width:0.5;" x1="728" x2="976" y1="488.6" y2="488.6"/><ellipse cx="738" cy="502.2484" fill="#84BE84" rx="3" ry="3" style="stroke:#038048;stroke-width:1.0;"/><text fill="#000000" font-family="sans-serif" font-size="14" lengthAdjust="spacing" textLength="221" x="747" y="505.5951">void serve(Map&lt;String, String&gt;)</text></g><!--class FlowIndicationComponent--><g id="elem_FlowIndicationComponent"><rect codeLine="45" fill="#F1F1F1" height="64.2969" id="FlowIndicationComponent" rx="2.5" ry="2.5" style="stroke:#181818;stroke-width:0.5;" width="341" x="117.5" y="846.64"/><ellipse cx="194.25" cy="862.64" fill="#ADD1B2" rx="11" ry="11" style="stroke:#181818;stroke-width:1.0;"/><path d="M197.2188,868.2806 Q196.6406,868.5775 196,868.7181 Q195.3594,868.8744 194.6563,868.8744 Q192.1563,868.8744 190.8281,867.2338 Q189.5156,865.5775 189.5156,862.4525 Q189.5156,859.3275 190.8281,857.6713 Q192.1563,856.015 194.6563,856.015 Q195.3594,856.015 196,856.1713 Q196.6563,856.3275 197.2188,856.6244 L197.2188,859.3431 Q196.5938,858.765 196,858.4994 Q195.4063,858.2181 194.7813,858.2181 Q193.4375,858.2181 192.75,859.2963 Q192.0625,860.3588 192.0625,862.4525 Q192.0625,864.5463 192.75,865.6244 Q193.4375,866.6869 194.7813,866.6869 Q195.4063,866.6869 196,866.4213 Q196.5938,866.14 197.2188,865.5619 L197.2188,868.2806 Z " fill="#000000"/><text fill="#000000" font-family="sans-serif" font-size="14" lengthAdjust="spacing" textLength="179" x="214.75" y="867.4867">FlowIndicationComponent</text><line style="stroke:#181818;stroke-width:0.5;" x1="118.5" x2="457.5" y1="878.64" y2="878.64"/><line style="stroke:#181818;stroke-width:0.5;" x1="118.5" x2="457.5" y1="886.64" y2="886.64"/><ellipse cx="128.5" cy="900.2884" fill="#84BE84" rx="3" ry="3" style="stroke:#038048;stroke-width:1.0;"/><text fill="#000000" font-family="sans-serif" font-size="14" lengthAdjust="spacing" textLength="315" x="137.5" y="903.6351">void execute(Map&lt;String, ? extends Object&gt;)</text></g><!--class PumpIndicationComponent--><g id="elem_PumpIndicationComponent"><rect codeLine="48" fill="#F1F1F1" height="64.2969" id="PumpIndicationComponent" rx="2.5" ry="2.5" style="stroke:#181818;stroke-width:0.5;" width="341" x="493.5" y="846.64"/><ellipse cx="565.75" cy="862.64" fill="#ADD1B2" rx="11" ry="11" style="stroke:#181818;stroke-width:1.0;"/><path d="M568.7188,868.2806 Q568.1406,868.5775 567.5,868.7181 Q566.8594,868.8744 566.1563,868.8744 Q563.6563,868.8744 562.3281,867.2338 Q561.0156,865.5775 561.0156,862.4525 Q561.0156,859.3275 562.3281,857.6713 Q563.6563,856.015 566.1563,856.015 Q566.8594,856.015 567.5,856.1713 Q568.1563,856.3275 568.7188,856.6244 L568.7188,859.3431 Q568.0938,858.765 567.5,858.4994 Q566.9063,858.2181 566.2813,858.2181 Q564.9375,858.2181 564.25,859.2963 Q563.5625,860.3588 563.5625,862.4525 Q563.5625,864.5463 564.25,865.6244 Q564.9375,866.6869 566.2813,866.6869 Q566.9063,866.6869 567.5,866.4213 Q568.0938,866.14 568.7188,865.5619 L568.7188,868.2806 Z " fill="#000000"/><text fill="#000000" font-family="sans-serif" font-size="14" lengthAdjust="spacing" textLength="188" x="586.25" y="867.4867">PumpIndicationComponent</text><line style="stroke:#181818;stroke-width:0.5;" x1="494.5" x2="833.5" y1="878.64" y2="878.64"/><line style="stroke:#181818;stroke-width:0.5;" x1="494.5" x2="833.5" y1="886.64" y2="886.64"/><ellipse cx="504.5" cy="900.2884" fill="#84BE84" rx="3" ry="3" style="stroke:#038048;stroke-width:1.0;"/><text fill="#000000" font-family="sans-serif" font-size="14" lengthAdjust="spacing" textLength="315" x="513.5" y="903.6351">void execute(Map&lt;String, ? extends Object&gt;)</text></g><!--class RainIndicationComponent--><g id="elem_RainIndicationComponent"><rect codeLine="51" fill="#F1F1F1" height="64.2969" id="RainIndicationComponent" rx="2.5" ry="2.5" style="stroke:#181818;stroke-width:0.5;" width="341" x="869.5" y="846.64"/><ellipse cx="946.75" cy="862.64" fill="#ADD1B2" rx="11" ry="11" style="stroke:#181818;stroke-width:1.0;"/><path d="M949.7188,868.2806 Q949.1406,868.5775 948.5,868.7181 Q947.8594,868.8744 947.1563,868.8744 Q944.6563,868.8744 943.3281,867.2338 Q942.0156,865.5775 942.0156,862.4525 Q942.0156,859.3275 943.3281,857.6713 Q944.6563,856.015 947.1563,856.015 Q947.8594,856.015 948.5,856.1713 Q949.1563,856.3275 949.7188,856.6244 L949.7188,859.3431 Q949.0938,858.765 948.5,858.4994 Q947.9063,858.2181 947.2813,858.2181 Q945.9375,858.2181 945.25,859.2963 Q944.5625,860.3588 944.5625,862.4525 Q944.5625,864.5463 945.25,865.6244 Q945.9375,866.6869 947.2813,866.6869 Q947.9063,866.6869 948.5,866.4213 Q949.0938,866.14 949.7188,865.5619 L949.7188,868.2806 Z " fill="#000000"/><text fill="#000000" font-family="sans-serif" font-size="14" lengthAdjust="spacing" textLength="178" x="967.25" y="867.4867">RainIndicationComponent</text><line style="stroke:#181818;stroke-width:0.5;" x1="870.5" x2="1209.5" y1="878.64" y2="878.64"/><line style="stroke:#181818;stroke-width:0.5;" x1="870.5" x2="1209.5" y1="886.64" y2="886.64"/><ellipse cx="880.5" cy="900.2884" fill="#84BE84" rx="3" ry="3" style="stroke:#038048;stroke-width:1.0;"/><text fill="#000000" font-family="sans-serif" font-size="14" lengthAdjust="spacing" textLength="315" x="889.5" y="903.6351">void execute(Map&lt;String, ? extends Object&gt;)</text></g><!--class SewerOverflowIndicationComponent--><g id="elem_SewerOverflowIndicationComponent"><rect codeLine="54" fill="#F1F1F1" height="64.2969" id="SewerOverflowIndicationComponent" rx="2.5" ry="2.5" style="stroke:#181818;stroke-width:0.5;" width="341" x="681.5" y="572.89"/><ellipse cx="723.05" cy="588.89" fill="#ADD1B2" rx="11" ry="11" style="stroke:#181818;stroke-width:1.0;"/><path d="M726.0188,594.5306 Q725.4406,594.8275 724.8,594.9681 Q724.1594,595.1244 723.4563,595.1244 Q720.9563,595.1244 719.6281,593.4837 Q718.3156,591.8275 718.3156,588.7025 Q718.3156,585.5775 719.6281,583.9212 Q720.9563,582.265 723.4563,582.265 Q724.1594,582.265 724.8,582.4212 Q725.4563,582.5775 726.0188,582.8744 L726.0188,585.5931 Q725.3938,585.015 724.8,584.7494 Q724.2063,584.4681 723.5813,584.4681 Q722.2375,584.4681 721.55,585.5462 Q720.8625,586.6087 720.8625,588.7025 Q720.8625,590.7962 721.55,591.8744 Q722.2375,592.9369 723.5813,592.9369 Q724.2063,592.9369 724.8,592.6712 Q725.3938,592.39 726.0188,591.8119 L726.0188,594.5306 Z " fill="#000000"/><text fill="#000000" font-family="sans-serif" font-size="14" lengthAdjust="spacing" textLength="250" x="742.95" y="593.7367">SewerOverflowIndicationComponent</text><line style="stroke:#181818;stroke-width:0.5;" x1="682.5" x2="1021.5" y1="604.89" y2="604.89"/><line style="stroke:#181818;stroke-width:0.5;" x1="682.5" x2="1021.5" y1="612.89" y2="612.89"/><ellipse cx="692.5" cy="626.5384" fill="#84BE84" rx="3" ry="3" style="stroke:#038048;stroke-width:1.0;"/><text fill="#000000" font-family="sans-serif" font-size="14" lengthAdjust="spacing" textLength="315" x="701.5" y="629.8851">void execute(Map&lt;String, ? extends Object&gt;)</text></g><!--class SewerObservationService--><g id="elem_SewerObservationService"><rect codeLine="57" fill="#F1F1F1" height="64.2969" id="SewerObservationService" rx="2.5" ry="2.5" style="stroke:#181818;stroke-width:0.5;" width="208" x="1654" y="448.6"/><ellipse cx="1669" cy="464.6" fill="#ADD1B2" rx="11" ry="11" style="stroke:#181818;stroke-width:1.0;"/><path d="M1671.9688,470.2406 Q1671.3906,470.5375 1670.75,470.6781 Q1670.1094,470.8344 1669.4063,470.8344 Q1666.9063,470.8344 1665.5781,469.1937 Q1664.2656,467.5375 1664.2656,464.4125 Q1664.2656,461.2875 1665.5781,459.6312 Q1666.9063,457.975 1669.4063,457.975 Q1670.1094,457.975 1670.75,458.1312 Q1671.4063,458.2875 1671.9688,458.5844 L1671.9688,461.3031 Q1671.3438,460.725 1670.75,460.4594 Q1670.1563,460.1781 1669.5313,460.1781 Q1668.1875,460.1781 1667.5,461.2562 Q1666.8125,462.3187 1666.8125,464.4125 Q1666.8125,466.5062 1667.5,467.5844 Q1668.1875,468.6469 1669.5313,468.6469 Q1670.1563,468.6469 1670.75,468.3812 Q1671.3438,468.1 1671.9688,467.5219 L1671.9688,470.2406 Z " fill="#000000"/><text fill="#000000" font-family="sans-serif" font-size="14" lengthAdjust="spacing" textLength="176" x="1683" y="469.4467">SewerObservationService</text><line style="stroke:#181818;stroke-width:0.5;" x1="1655" x2="1861" y1="480.6" y2="480.6"/><line style="stroke:#181818;stroke-width:0.5;" x1="1655" x2="1861" y1="488.6" y2="488.6"/><ellipse cx="1665" cy="502.2484" fill="#84BE84" rx="3" ry="3" style="stroke:#038048;stroke-width:1.0;"/><text fill="#000000" font-family="sans-serif" font-size="14" lengthAdjust="spacing" textLength="182" x="1674" y="505.5951">Set&lt;Sewer&gt; serve(String)</text></g><!--class SewerObservationComponent--><g id="elem_SewerObservationComponent"><rect codeLine="60" fill="#F1F1F1" height="64.2969" id="SewerObservationComponent" rx="2.5" ry="2.5" style="stroke:#181818;stroke-width:0.5;" width="240" x="1638" y="572.89"/><ellipse cx="1653" cy="588.89" fill="#ADD1B2" rx="11" ry="11" style="stroke:#181818;stroke-width:1.0;"/><path d="M1655.9688,594.5306 Q1655.3906,594.8275 1654.75,594.9681 Q1654.1094,595.1244 1653.4063,595.1244 Q1650.9063,595.1244 1649.5781,593.4837 Q1648.2656,591.8275 1648.2656,588.7025 Q1648.2656,585.5775 1649.5781,583.9212 Q1650.9063,582.265 1653.4063,582.265 Q1654.1094,582.265 1654.75,582.4212 Q1655.4063,582.5775 1655.9688,582.8744 L1655.9688,585.5931 Q1655.3438,585.015 1654.75,584.7494 Q1654.1563,584.4681 1653.5313,584.4681 Q1652.1875,584.4681 1651.5,585.5462 Q1650.8125,586.6087 1650.8125,588.7025 Q1650.8125,590.7962 1651.5,591.8744 Q1652.1875,592.9369 1653.5313,592.9369 Q1654.1563,592.9369 1654.75,592.6712 Q1655.3438,592.39 1655.9688,591.8119 L1655.9688,594.5306 Z " fill="#000000"/><text fill="#000000" font-family="sans-serif" font-size="14" lengthAdjust="spacing" textLength="208" x="1667" y="593.7367">SewerObservationComponent</text><line style="stroke:#181818;stroke-width:0.5;" x1="1639" x2="1877" y1="604.89" y2="604.89"/><line style="stroke:#181818;stroke-width:0.5;" x1="1639" x2="1877" y1="612.89" y2="612.89"/><ellipse cx="1649" cy="626.5384" fill="#84BE84" rx="3" ry="3" style="stroke:#038048;stroke-width:1.0;"/><text fill="#000000" font-family="sans-serif" font-size="14" lengthAdjust="spacing" textLength="200" x="1658" y="629.8851">Set&lt;Sewer&gt; execute(String)</text></g><!--class Sewers--><g id="elem_Sewers"><rect codeLine="63" fill="#F1F1F1" height="80.5938" id="Sewers" rx="2.5" ry="2.5" style="stroke:#181818;stroke-width:0.5;" width="220" x="1648" y="838.49"/><ellipse cx="1728.25" cy="854.49" fill="#B4A7E5" rx="11" ry="11" style="stroke:#181818;stroke-width:1.0;"/><path d="M1724.1719,850.2556 L1724.1719,848.0994 L1731.5625,848.0994 L1731.5625,850.2556 L1729.0938,850.2556 L1729.0938,858.3338 L1731.5625,858.3338 L1731.5625,860.49 L1724.1719,860.49 L1724.1719,858.3338 L1726.6406,858.3338 L1726.6406,850.2556 L1724.1719,850.2556 Z " fill="#000000"/><text fill="#000000" font-family="sans-serif" font-size="14" font-style="italic" lengthAdjust="spacing" textLength="51" x="1748.75" y="859.3367">Sewers</text><line style="stroke:#181818;stroke-width:0.5;" x1="1649" x2="1867" y1="870.49" y2="870.49"/><line style="stroke:#181818;stroke-width:0.5;" x1="1649" x2="1867" y1="878.49" y2="878.49"/><ellipse cx="1659" cy="892.1384" fill="#84BE84" rx="3" ry="3" style="stroke:#038048;stroke-width:1.0;"/><text fill="#000000" font-family="sans-serif" font-size="14" font-style="italic" lengthAdjust="spacing" textLength="194" x="1668" y="895.4851">Set&lt;Sewer&gt; observe(UUID)</text><ellipse cx="1659" cy="908.4353" fill="#84BE84" rx="3" ry="3" style="stroke:#038048;stroke-width:1.0;"/><text fill="#000000" font-family="sans-serif" font-size="14" font-style="italic" lengthAdjust="spacing" textLength="139" x="1668" y="911.782">void indicate(Sewer)</text></g><!--class Sewer--><g id="elem_Sewer"><rect codeLine="67" fill="#F1F1F1" height="113.1875" id="Sewer" rx="2.5" ry="2.5" style="stroke:#181818;stroke-width:0.5;" width="259" x="1353.5" y="822.19"/><ellipse cx="1457.25" cy="838.19" fill="#ADD1B2" rx="11" ry="11" style="stroke:#181818;stroke-width:1.0;"/><path d="M1460.2188,843.8306 Q1459.6406,844.1275 1459,844.2681 Q1458.3594,844.4244 1457.6563,844.4244 Q1455.1563,844.4244 1453.8281,842.7837 Q1452.5156,841.1275 1452.5156,838.0025 Q1452.5156,834.8775 1453.8281,833.2212 Q1455.1563,831.565 1457.6563,831.565 Q1458.3594,831.565 1459,831.7212 Q1459.6563,831.8775 1460.2188,832.1744 L1460.2188,834.8931 Q1459.5938,834.315 1459,834.0494 Q1458.4063,833.7681 1457.7813,833.7681 Q1456.4375,833.7681 1455.75,834.8462 Q1455.0625,835.9087 1455.0625,838.0025 Q1455.0625,840.0962 1455.75,841.1744 Q1456.4375,842.2369 1457.7813,842.2369 Q1458.4063,842.2369 1459,841.9712 Q1459.5938,841.69 1460.2188,841.1119 L1460.2188,843.8306 Z " fill="#000000"/><text fill="#000000" font-family="sans-serif" font-size="14" lengthAdjust="spacing" textLength="43" x="1477.75" y="843.0367">Sewer</text><line style="stroke:#181818;stroke-width:0.5;" x1="1354.5" x2="1611.5" y1="854.19" y2="854.19"/><line style="stroke:#181818;stroke-width:0.5;" x1="1354.5" x2="1611.5" y1="862.19" y2="862.19"/><ellipse cx="1364.5" cy="875.8384" fill="#84BE84" rx="3" ry="3" style="stroke:#038048;stroke-width:1.0;"/><text fill="#000000" font-family="sans-serif" font-size="14" lengthAdjust="spacing" textLength="83" x="1373.5" y="879.1851">UUID getId()</text><ellipse cx="1364.5" cy="892.1353" fill="#84BE84" rx="3" ry="3" style="stroke:#038048;stroke-width:1.0;"/><text fill="#000000" font-family="sans-serif" font-size="14" lengthAdjust="spacing" textLength="230" x="1373.5" y="895.482">KeyPerformanceIndicator getKpi()</text><ellipse cx="1364.5" cy="908.4322" fill="#84BE84" rx="3" ry="3" style="stroke:#038048;stroke-width:1.0;"/><text fill="#000000" font-family="sans-serif" font-size="14" lengthAdjust="spacing" textLength="206" x="1373.5" y="911.7789">Set&lt;Problem&gt; getProblems()</text><ellipse cx="1364.5" cy="924.7291" fill="#84BE84" rx="3" ry="3" style="stroke:#038048;stroke-width:1.0;"/><text fill="#000000" font-family="sans-serif" font-size="14" lengthAdjust="spacing" textLength="233" x="1373.5" y="928.0757">void setProblems(Set&lt;Problem&gt;)</text></g><!--class KeyPerformanceIndicator--><g id="elem_KeyPerformanceIndicator"><rect codeLine="73" fill="#F1F1F1" height="96.8906" id="KeyPerformanceIndicator" rx="2.5" ry="2.5" style="stroke:#181818;stroke-width:0.5;" width="279" x="1314.5" y="1034.38"/><ellipse cx="1363.75" cy="1050.38" fill="#ADD1B2" rx="11" ry="11" style="stroke:#181818;stroke-width:1.0;"/><path d="M1366.7188,1056.0206 Q1366.1406,1056.3175 1365.5,1056.4581 Q1364.8594,1056.6144 1364.1563,1056.6144 Q1361.6563,1056.6144 1360.3281,1054.9737 Q1359.0156,1053.3175 1359.0156,1050.1925 Q1359.0156,1047.0675 1360.3281,1045.4112 Q1361.6563,1043.755 1364.1563,1043.755 Q1364.8594,1043.755 1365.5,1043.9112 Q1366.1563,1044.0675 1366.7188,1044.3644 L1366.7188,1047.0831 Q1366.0938,1046.505 1365.5,1046.2394 Q1364.9063,1045.9581 1364.2813,1045.9581 Q1362.9375,1045.9581 1362.25,1047.0362 Q1361.5625,1048.0987 1361.5625,1050.1925 Q1361.5625,1052.2862 1362.25,1053.3644 Q1362.9375,1054.4269 1364.2813,1054.4269 Q1364.9063,1054.4269 1365.5,1054.1612 Q1366.0938,1053.88 1366.7188,1053.3019 L1366.7188,1056.0206 Z " fill="#000000"/><text fill="#000000" font-family="sans-serif" font-size="14" lengthAdjust="spacing" textLength="172" x="1384.25" y="1055.2267">KeyPerformanceIndicator</text><line style="stroke:#181818;stroke-width:0.5;" x1="1315.5" x2="1592.5" y1="1066.38" y2="1066.38"/><line style="stroke:#181818;stroke-width:0.5;" x1="1315.5" x2="1592.5" y1="1074.38" y2="1074.38"/><ellipse cx="1325.5" cy="1088.0284" fill="#84BE84" rx="3" ry="3" style="stroke:#038048;stroke-width:1.0;"/><text fill="#000000" font-family="sans-serif" font-size="14" lengthAdjust="spacing" textLength="253" x="1334.5" y="1091.3751">String getPumpPowerConsumption()</text><ellipse cx="1325.5" cy="1104.3253" fill="#84BE84" rx="3" ry="3" style="stroke:#038048;stroke-width:1.0;"/><text fill="#000000" font-family="sans-serif" font-size="14" lengthAdjust="spacing" textLength="108" x="1334.5" y="1107.672">String getFlow()</text><ellipse cx="1325.5" cy="1120.6222" fill="#84BE84" rx="3" ry="3" style="stroke:#038048;stroke-width:1.0;"/><text fill="#000000" font-family="sans-serif" font-size="14" lengthAdjust="spacing" textLength="140" x="1334.5" y="1123.9689">Number getRainfall()</text></g><!--class Problem--><g id="elem_Problem"><rect codeLine="78" fill="#F1F1F1" height="80.5938" id="Problem" rx="2.5" ry="2.5" style="stroke:#181818;stroke-width:0.5;" width="243" x="1650.5" y="1042.53"/><ellipse cx="1739.25" cy="1058.53" fill="#ADD1B2" rx="11" ry="11" style="stroke:#181818;stroke-width:1.0;"/><path d="M1742.2188,1064.1706 Q1741.6406,1064.4675 1741,1064.6081 Q1740.3594,1064.7644 1739.6563,1064.7644 Q1737.1563,1064.7644 1735.8281,1063.1238 Q1734.5156,1061.4675 1734.5156,1058.3425 Q1734.5156,1055.2175 1735.8281,1053.5613 Q1737.1563,1051.905 1739.6563,1051.905 Q1740.3594,1051.905 1741,1052.0613 Q1741.6563,1052.2175 1742.2188,1052.5144 L1742.2188,1055.2331 Q1741.5938,1054.655 1741,1054.3894 Q1740.4063,1054.1081 1739.7813,1054.1081 Q1738.4375,1054.1081 1737.75,1055.1863 Q1737.0625,1056.2488 1737.0625,1058.3425 Q1737.0625,1060.4363 1737.75,1061.5144 Q1738.4375,1062.5769 1739.7813,1062.5769 Q1740.4063,1062.5769 1741,1062.3113 Q1741.5938,1062.03 1742.2188,1061.4519 L1742.2188,1064.1706 Z " fill="#000000"/><text fill="#000000" font-family="sans-serif" font-size="14" lengthAdjust="spacing" textLength="57" x="1759.75" y="1063.3767">Problem</text><line style="stroke:#181818;stroke-width:0.5;" x1="1651.5" x2="1892.5" y1="1074.53" y2="1074.53"/><line style="stroke:#181818;stroke-width:0.5;" x1="1651.5" x2="1892.5" y1="1082.53" y2="1082.53"/><ellipse cx="1661.5" cy="1096.1784" fill="#84BE84" rx="3" ry="3" style="stroke:#038048;stroke-width:1.0;"/><text fill="#000000" font-family="sans-serif" font-size="14" lengthAdjust="spacing" textLength="130" x="1670.5" y="1099.5251">String getReason()</text><ellipse cx="1661.5" cy="1112.4753" fill="#84BE84" rx="3" ry="3" style="stroke:#038048;stroke-width:1.0;"/><text fill="#000000" font-family="sans-serif" font-size="14" lengthAdjust="spacing" textLength="217" x="1670.5" y="1115.822">Number getOverflowIndication()</text></g><!--class SewerIndicationUseCase--><g id="elem_SewerIndicationUseCase"><rect codeLine="82" fill="#F1F1F1" height="64.2969" id="SewerIndicationUseCase" rx="2.5" ry="2.5" style="stroke:#181818;stroke-width:0.5;" width="203" x="750.5" y="266.3"/><ellipse cx="765.5" cy="282.3" fill="#ADD1B2" rx="11" ry="11" style="stroke:#181818;stroke-width:1.0;"/><path d="M768.4688,287.9406 Q767.8906,288.2375 767.25,288.3781 Q766.6094,288.5344 765.9063,288.5344 Q763.4063,288.5344 762.0781,286.8937 Q760.7656,285.2375 760.7656,282.1125 Q760.7656,278.9875 762.0781,277.3312 Q763.4063,275.675 765.9063,275.675 Q766.6094,275.675 767.25,275.8312 Q767.9063,275.9875 768.4688,276.2844 L768.4688,279.0031 Q767.8438,278.425 767.25,278.1594 Q766.6563,277.8781 766.0313,277.8781 Q764.6875,277.8781 764,278.9562 Q763.3125,280.0187 763.3125,282.1125 Q763.3125,284.2062 764,285.2844 Q764.6875,286.3469 766.0313,286.3469 Q766.6563,286.3469 767.25,286.0812 Q767.8438,285.8 768.4688,285.2219 L768.4688,287.9406 Z " fill="#000000"/><text fill="#000000" font-family="sans-serif" font-size="14" lengthAdjust="spacing" textLength="171" x="779.5" y="287.1467">SewerIndicationUseCase</text><line style="stroke:#181818;stroke-width:0.5;" x1="751.5" x2="952.5" y1="298.3" y2="298.3"/><line style="stroke:#181818;stroke-width:0.5;" x1="751.5" x2="952.5" y1="306.3" y2="306.3"/><ellipse cx="761.5" cy="319.9484" fill="#84BE84" rx="3" ry="3" style="stroke:#038048;stroke-width:1.0;"/><text fill="#000000" font-family="sans-serif" font-size="14" lengthAdjust="spacing" textLength="120" x="770.5" y="323.2951">void serve(String)</text></g><!--class SewerObservationUseCase--><g id="elem_SewerObservationUseCase"><rect codeLine="85" fill="#F1F1F1" height="64.2969" id="SewerObservationUseCase" rx="2.5" ry="2.5" style="stroke:#181818;stroke-width:0.5;" width="220" x="1648" y="266.3"/><ellipse cx="1663" cy="282.3" fill="#ADD1B2" rx="11" ry="11" style="stroke:#181818;stroke-width:1.0;"/><path d="M1665.9688,287.9406 Q1665.3906,288.2375 1664.75,288.3781 Q1664.1094,288.5344 1663.4063,288.5344 Q1660.9063,288.5344 1659.5781,286.8937 Q1658.2656,285.2375 1658.2656,282.1125 Q1658.2656,278.9875 1659.5781,277.3312 Q1660.9063,275.675 1663.4063,275.675 Q1664.1094,275.675 1664.75,275.8312 Q1665.4063,275.9875 1665.9688,276.2844 L1665.9688,279.0031 Q1665.3438,278.425 1664.75,278.1594 Q1664.1563,277.8781 1663.5313,277.8781 Q1662.1875,277.8781 1661.5,278.9562 Q1660.8125,280.0187 1660.8125,282.1125 Q1660.8125,284.2062 1661.5,285.2844 Q1662.1875,286.3469 1663.5313,286.3469 Q1664.1563,286.3469 1664.75,286.0812 Q1665.3438,285.8 1665.9688,285.2219 L1665.9688,287.9406 Z " fill="#000000"/><text fill="#000000" font-family="sans-serif" font-size="14" lengthAdjust="spacing" textLength="188" x="1677" y="287.1467">SewerObservationUseCase</text><line style="stroke:#181818;stroke-width:0.5;" x1="1649" x2="1867" y1="298.3" y2="298.3"/><line style="stroke:#181818;stroke-width:0.5;" x1="1649" x2="1867" y1="306.3" y2="306.3"/><ellipse cx="1659" cy="319.9484" fill="#84BE84" rx="3" ry="3" style="stroke:#038048;stroke-width:1.0;"/><text fill="#000000" font-family="sans-serif" font-size="14" lengthAdjust="spacing" textLength="182" x="1668" y="323.2951">Set&lt;Sewer&gt; serve(String)</text></g><!--class SewersUseCase--><g id="elem_SewersUseCase"><rect codeLine="88" fill="#F1F1F1" height="80.5938" id="SewersUseCase" rx="2.5" ry="2.5" style="stroke:#181818;stroke-width:0.5;" width="222" x="1998" y="1211.27"/><ellipse cx="2048.25" cy="1227.27" fill="#B4A7E5" rx="11" ry="11" style="stroke:#181818;stroke-width:1.0;"/><path d="M2044.1719,1223.0356 L2044.1719,1220.8794 L2051.5625,1220.8794 L2051.5625,1223.0356 L2049.0938,1223.0356 L2049.0938,1231.1138 L2051.5625,1231.1138 L2051.5625,1233.27 L2044.1719,1233.27 L2044.1719,1231.1138 L2046.6406,1231.1138 L2046.6406,1223.0356 L2044.1719,1223.0356 Z " fill="#000000"/><text fill="#000000" font-family="sans-serif" font-size="14" font-style="italic" lengthAdjust="spacing" textLength="113" x="2068.75" y="1232.1167">SewersUseCase</text><line style="stroke:#181818;stroke-width:0.5;" x1="1999" x2="2219" y1="1243.27" y2="1243.27"/><line style="stroke:#181818;stroke-width:0.5;" x1="1999" x2="2219" y1="1251.27" y2="1251.27"/><ellipse cx="2009" cy="1264.9184" fill="#84BE84" rx="3" ry="3" style="stroke:#038048;stroke-width:1.0;"/><text fill="#000000" font-family="sans-serif" font-size="14" font-style="italic" lengthAdjust="spacing" textLength="196" x="2018" y="1268.2651">Set&lt;Object&gt; observe(UUID)</text><ellipse cx="2009" cy="1281.2153" fill="#84BE84" rx="3" ry="3" style="stroke:#038048;stroke-width:1.0;"/><text fill="#000000" font-family="sans-serif" font-size="14" font-style="italic" lengthAdjust="spacing" textLength="183" x="2018" y="1284.562">void indicate(UUID, Object)</text></g><!--class SewersUseCaseBridge--><g id="elem_SewersUseCaseBridge"><rect codeLine="92" fill="#F1F1F1" height="80.5938" id="SewersUseCaseBridge" rx="2.5" ry="2.5" style="stroke:#181818;stroke-width:0.5;" width="220" x="1998" y="1042.53"/><ellipse cx="2026.5" cy="1058.53" fill="#ADD1B2" rx="11" ry="11" style="stroke:#181818;stroke-width:1.0;"/><path d="M2029.4688,1064.1706 Q2028.8906,1064.4675 2028.25,1064.6081 Q2027.6094,1064.7644 2026.9063,1064.7644 Q2024.4063,1064.7644 2023.0781,1063.1238 Q2021.7656,1061.4675 2021.7656,1058.3425 Q2021.7656,1055.2175 2023.0781,1053.5613 Q2024.4063,1051.905 2026.9063,1051.905 Q2027.6094,1051.905 2028.25,1052.0613 Q2028.9063,1052.2175 2029.4688,1052.5144 L2029.4688,1055.2331 Q2028.8438,1054.655 2028.25,1054.3894 Q2027.6563,1054.1081 2027.0313,1054.1081 Q2025.6875,1054.1081 2025,1055.1863 Q2024.3125,1056.2488 2024.3125,1058.3425 Q2024.3125,1060.4363 2025,1061.5144 Q2025.6875,1062.5769 2027.0313,1062.5769 Q2027.6563,1062.5769 2028.25,1062.3113 Q2028.8438,1062.03 2029.4688,1061.4519 L2029.4688,1064.1706 Z " fill="#000000"/><text fill="#000000" font-family="sans-serif" font-size="14" lengthAdjust="spacing" textLength="158" x="2043.5" y="1063.3767">SewersUseCaseBridge</text><line style="stroke:#181818;stroke-width:0.5;" x1="1999" x2="2217" y1="1074.53" y2="1074.53"/><line style="stroke:#181818;stroke-width:0.5;" x1="1999" x2="2217" y1="1082.53" y2="1082.53"/><ellipse cx="2009" cy="1096.1784" fill="#84BE84" rx="3" ry="3" style="stroke:#038048;stroke-width:1.0;"/><text fill="#000000" font-family="sans-serif" font-size="14" lengthAdjust="spacing" textLength="194" x="2018" y="1099.5251">Set&lt;Sewer&gt; observe(UUID)</text><ellipse cx="2009" cy="1112.4753" fill="#84BE84" rx="3" ry="3" style="stroke:#038048;stroke-width:1.0;"/><text fill="#000000" font-family="sans-serif" font-size="14" lengthAdjust="spacing" textLength="139" x="2018" y="1115.822">void indicate(Sewer)</text></g><!--link SewerIndicationAdapter to SewerIndicationUseCase--><g id="link_SewerIndicationAdapter_SewerIndicationUseCase"><path codeLine="96" d="M852,148.74 C852,181.82 852,226.74 852,259.83 " fill="none" id="SewerIndicationAdapter-to-SewerIndicationUseCase" style="stroke:#181818;stroke-width:1.0;"/><polygon fill="#181818" points="852,265.83,856,256.83,852,260.83,848,256.83,852,265.83" style="stroke:#181818;stroke-width:1.0;"/></g><!--link SewerObservationAdapter to SewerObservationUseCase--><g id="link_SewerObservationAdapter_SewerObservationUseCase"><path codeLine="97" d="M1758,148.74 C1758,181.82 1758,226.74 1758,259.83 " fill="none" id="SewerObservationAdapter-to-SewerObservationUseCase" style="stroke:#181818;stroke-width:1.0;"/><polygon fill="#181818" points="1758,265.83,1762,256.83,1758,260.83,1754,256.83,1758,265.83" style="stroke:#181818;stroke-width:1.0;"/></g><!--reverse link SewersUseCase to SewersAdapterBridge--><g id="link_SewersUseCase_SewersAdapterBridge"><path codeLine="98" d="M2109,1310.32 C2109,1339.71 2109,1361.21 2109,1390.57 " fill="none" id="SewersUseCase-backto-SewersAdapterBridge" style="stroke:#181818;stroke-width:1.0;stroke-dasharray:7.0,7.0;"/><polygon fill="none" points="2109,1292.32,2103,1310.32,2115,1310.32,2109,1292.32" style="stroke:#181818;stroke-width:1.0;"/></g><!--link SewersAdapterBridge to SewersAdapter--><g id="link_SewersAdapterBridge_SewersAdapter"><path codeLine="99" d="M2109,1471.82 C2109,1490.48 2109,1506.54 2109,1525.18 " fill="none" id="SewersAdapterBridge-to-SewersAdapter" style="stroke:#181818;stroke-width:1.0;"/><polygon fill="#181818" points="2109,1531.18,2113,1522.18,2109,1526.18,2105,1522.18,2109,1531.18" style="stroke:#181818;stroke-width:1.0;"/></g><!--link SewerOverflowIndicationService to SewerOverflowIndicationComponent--><g id="link_SewerOverflowIndicationService_SewerOverflowIndicationComponent"><path codeLine="100" d="M852,513.08 C852,531.35 852,548.12 852,566.44 " fill="none" id="SewerOverflowIndicationService-to-SewerOverflowIndicationComponent" style="stroke:#181818;stroke-width:1.0;"/><polygon fill="#181818" points="852,572.44,856,563.44,852,567.44,848,563.44,852,572.44" style="stroke:#181818;stroke-width:1.0;"/></g><!--link SewerOverflowIndicationComponent to Sewers--><g id="link_SewerOverflowIndicationComponent_Sewers"><path codeLine="101" d="M1022.65,605.05 C1250.36,605.05 1625.25,605.05 1625.25,605.05 C1625.25,605.05 1625.25,879.05 1625.25,879.05 C1625.25,879.05 1628.34,879.05 1641.77,879.05 " fill="none" id="SewerOverflowIndicationComponent-to-Sewers" style="stroke:#181818;stroke-width:1.0;"/><polygon fill="#181818" points="1647.77,879.05,1638.77,875.05,1642.77,879.05,1638.77,883.05,1647.77,879.05" style="stroke:#181818;stroke-width:1.0;"/></g><!--link SewerOverflowIndicationComponent to RainIndicationComponent--><g id="link_SewerOverflowIndicationComponent_RainIndicationComponent"><path codeLine="102" d="M946,637.52 C946,690.2 946,787.69 946,840.35 " fill="none" id="SewerOverflowIndicationComponent-to-RainIndicationComponent" style="stroke:#181818;stroke-width:1.0;"/><polygon fill="#181818" points="946,846.35,950,837.35,946,841.35,942,837.35,946,846.35" style="stroke:#181818;stroke-width:1.0;"/></g><!--link SewerOverflowIndicationComponent to PumpIndicationComponent--><g id="link_SewerOverflowIndicationComponent_PumpIndicationComponent"><path codeLine="103" d="M758,637.52 C758,690.2 758,787.69 758,840.35 " fill="none" id="SewerOverflowIndicationComponent-to-PumpIndicationComponent" style="stroke:#181818;stroke-width:1.0;"/><polygon fill="#181818" points="758,846.35,762,837.35,758,841.35,754,837.35,758,846.35" style="stroke:#181818;stroke-width:1.0;"/></g><!--link SewerOverflowIndicationComponent to FlowIndicationComponent--><g id="link_SewerOverflowIndicationComponent_FlowIndicationComponent"><path codeLine="104" d="M681.25,605.05 C515.25,605.05 288,605.05 288,605.05 C288,605.05 288,767.8 288,840.31 " fill="none" id="SewerOverflowIndicationComponent-to-FlowIndicationComponent" style="stroke:#181818;stroke-width:1.0;"/><polygon fill="#181818" points="288,846.31,292,837.31,288,841.31,284,837.31,288,846.31" style="stroke:#181818;stroke-width:1.0;"/></g><!--link SewerObservationService to SewerObservationComponent--><g id="link_SewerObservationService_SewerObservationComponent"><path codeLine="105" d="M1758,513.08 C1758,531.35 1758,548.12 1758,566.44 " fill="none" id="SewerObservationService-to-SewerObservationComponent" style="stroke:#181818;stroke-width:1.0;"/><polygon fill="#181818" points="1758,572.44,1762,563.44,1758,567.44,1754,563.44,1758,572.44" style="stroke:#181818;stroke-width:1.0;"/></g><!--link SewerObservationComponent to Sewers--><g id="link_SewerObservationComponent_Sewers"><path codeLine="106" d="M1758,637.52 C1758,687.65 1758,777.8 1758,832.36 " fill="none" id="SewerObservationComponent-to-Sewers" style="stroke:#181818;stroke-width:1.0;"/><polygon fill="#181818" points="1758,838.36,1762,829.36,1758,833.36,1754,829.36,1758,838.36" style="stroke:#181818;stroke-width:1.0;"/></g><!--link Sewer to Problem--><g id="link_Sewer_Problem"><path codeLine="107" d="M1603,935.68 C1603,996.12 1603,1083.05 1603,1083.05 C1603,1083.05 1617.43,1083.05 1644.08,1083.05 " fill="none" id="Sewer-to-Problem" style="stroke:#181818;stroke-width:1.0;"/><polygon fill="#181818" points="1650.08,1083.05,1641.08,1079.05,1645.08,1083.05,1641.08,1087.05,1650.08,1083.05" style="stroke:#181818;stroke-width:1.0;"/></g><!--link Sewer to KeyPerformanceIndicator--><g id="link_Sewer_KeyPerformanceIndicator"><path codeLine="108" d="M1473.5,935.62 C1473.5,966.51 1473.5,998.34 1473.5,1027.91 " fill="none" id="Sewer-to-KeyPerformanceIndicator" style="stroke:#181818;stroke-width:1.0;"/><polygon fill="#181818" points="1473.5,1033.91,1477.5,1024.91,1473.5,1028.91,1469.5,1024.91,1473.5,1033.91" style="stroke:#181818;stroke-width:1.0;"/></g><!--link SewerIndicationUseCase to SewerOverflowIndicationService--><g id="link_SewerIndicationUseCase_SewerOverflowIndicationService"><path codeLine="109" d="M852,331.04 C852,364.12 852,409.04 852,442.13 " fill="none" id="SewerIndicationUseCase-to-SewerOverflowIndicationService" style="stroke:#181818;stroke-width:1.0;"/><polygon fill="#181818" points="852,448.13,856,439.13,852,443.13,848,439.13,852,448.13" style="stroke:#181818;stroke-width:1.0;"/></g><!--link SewerObservationUseCase to SewerObservationService--><g id="link_SewerObservationUseCase_SewerObservationService"><path codeLine="110" d="M1758,331.04 C1758,364.12 1758,409.04 1758,442.13 " fill="none" id="SewerObservationUseCase-to-SewerObservationService" style="stroke:#181818;stroke-width:1.0;"/><polygon fill="#181818" points="1758,448.13,1762,439.13,1758,443.13,1754,439.13,1758,448.13" style="stroke:#181818;stroke-width:1.0;"/></g><!--reverse link Sewers to SewersUseCaseBridge--><g id="link_Sewers_SewersUseCaseBridge"><path codeLine="111" d="M1886.26,879.05 C1988.85,879.05 2108,879.05 2108,879.05 C2108,879.05 2108,982.61 2108,1042.08 " fill="none" id="Sewers-backto-SewersUseCaseBridge" style="stroke:#181818;stroke-width:1.0;stroke-dasharray:7.0,7.0;"/><polygon fill="none" points="1868.26,879.05,1886.26,885.05,1886.26,873.05,1868.26,879.05" style="stroke:#181818;stroke-width:1.0;"/></g><!--link SewersUseCaseBridge to SewersUseCase--><g id="link_SewersUseCaseBridge_SewersUseCase"><path codeLine="112" d="M2108,1123.24 C2108,1149.76 2108,1178.32 2108,1204.89 " fill="none" id="SewersUseCaseBridge-to-SewersUseCase" style="stroke:#181818;stroke-width:1.0;"/><polygon fill="#181818" points="2108,1210.89,2112,1201.89,2108,1205.89,2104,1201.89,2108,1210.89" style="stroke:#181818;stroke-width:1.0;"/></g><!--SRC=[tLVTRvim47_dh_2IbrHhhMdQmofLcRPEbQfgQxIepvE18_K2DhATTb7N_ts0IVWAX0JCrZwr8kVVnt6Sxzw4WYm2WbOIhfa24O1BYO8PSPPa0H9vn9TWoILb8H4aG3vbeDOX82xKFRVaFNz4CZe7F7vgXVeSSWLz024HaSW5xF0W96oDGy5L4eSbF8B0cwYnNAvjVmNewNcBG5mIgjOGU1i-_lZUy-mFUIYRhvXBnFf0A4oPIvqe6NWBCFPf07r0Srk2U321d3oM3S3Hc_xf40c7PXPd1yUUTqxEp_Eem1HLj0CetYACFSTpxNTz9AEAtkQbEfmfmNqJP7Y3FUQ2i0KOChc_lFhpMEOQoAAE7C9WaQd9Nd9aROmIf_XcFn0TkGpfWCdDimsOu5sqGoOvEcdx40oOw3BZWCckepQQS8DNU4PYxZBFE6glTSlnYPHeD8y3hhLTojbd3J7gFFFWtS3eoKBexGEdBahCJ-PAKBOuiPuBWcwJr7HILBbVQe2reZceYrlx5pXgMX56um7N8mwaukInaael0nVGj0xqH6of177KSrvIQcPoTtVzzQGKboHpa_yauXJfS-MiRgY-2Eeke5_v6hEQp8hozd9l8thFvuzP4SqZAEeShhpLYDNCMIdSRoIyq3LoYlJVQSx0LG7ZCXBAMSGzCZaSuXhId7Ju3SvA5SL_YfugOAvCNqFUncmLX8FRg27jOEC7eMnm6pMa7MpKLEX0VlQnTpQMjUOUl_Ezrq3X-uuxLn8mRNizzPhykfq8rx9MP6zItt1zZVhVD3JmpYiirTN-1aiEb3C-ChqTQGlQGQmHBK1TkvD4wWsiPr4AkGW8So0jVIxYa9kGwfZOwaoFgjFuX_H_EJd9tHlPqtnupciDqsY8rGNNsTGbbjHJuYngppCUWLro9gF_utfCSx2DYMyY_UpxAh0XILNS3ptY-vFy_Q9JC1fgMy0fOTdJ3o1ouo9JN6rsat9TPZ_TIRYC58rwN3hmReh3P-ZkslQsqOAsXZPQwKRTjUsUImk2p8xLATMHOtLB8-K1kwwlrZHJ8ylSsTdKSArRHbQ-utMt_GwilXShlC9_fYRggdUbXoQt4TCQUiqxlZHw6A6jVpUyz-1xvqpuiYqTlDszLhirE_bhjNjbvljilOpsOExmNT8QVdlzNxjEcrMnD-qjTvONvUc8FTCol3KPQHZDquHbUDaoqIPgMf9bRgNfCjeQQGDjH1-V-aRqlm00]--></g></svg>