<svg xmlns="http://www.w3.org/2000/svg" xmlns:xlink="http://www.w3.org/1999/xlink" contentStyleType="text/css" height="1577px" preserveAspectRatio="none" style="width:2249px;height:1577px;background:#FFFFFF;" version="1.1" viewBox="0 0 2249 1577" width="2249px" zoomAndPan="magnify"><defs/><g><!--cluster adapters--><g id="cluster_adapters"><path d="M8.5,6 L379.5,6 A3.75,3.75 0 0 1 382,8.5 L389,28.2969 L2239.5,28.2969 A2.5,2.5 0 0 1 2242,30.7969 L2242,1568.06 A2.5,2.5 0 0 1 2239.5,1570.56 L8.5,1570.56 A2.5,2.5 0 0 1 6,1568.06 L6,8.5 A2.5,2.5 0 0 1 8.5,6 " fill="#82FFB4" style="stroke:#000000;stroke-width:1.5;"/><line style="stroke:#000000;stroke-width:1.5;" x1="6" x2="389" y1="28.2969" y2="28.2969"/><text fill="#000000" font-family="sans-serif" font-size="14" font-weight="bold" lengthAdjust="spacing" textLength="370" x="10" y="20.9951">de.company.prototype.sewer.drivers.adapters</text></g><!--cluster boundary--><g id="cluster_boundary"><path d="M741.5,49 L884.5,49 A3.75,3.75 0 0 1 887,51.5 L894,71.2969 L962.5,71.2969 A2.5,2.5 0 0 1 965,73.7969 L965,161.79 A2.5,2.5 0 0 1 962.5,164.29 L741.5,164.29 A2.5,2.5 0 0 1 739,161.79 L739,51.5 A2.5,2.5 0 0 1 741.5,49 " fill="#00FF00" style="stroke:#000000;stroke-width:1.5;"/><line style="stroke:#000000;stroke-width:1.5;" x1="739" x2="894" y1="71.2969" y2="71.2969"/><text fill="#000000" font-family="sans-serif" font-size="14" font-weight="bold" lengthAdjust="spacing" textLength="142" x="743" y="63.9951">indicate.boundary</text></g><!--cluster boundary--><g id="cluster_boundary"><path d="M1612.5,49 L1758.5,49 A3.75,3.75 0 0 1 1761,51.5 L1768,71.2969 L1851.5,71.2969 A2.5,2.5 0 0 1 1854,73.7969 L1854,161.79 A2.5,2.5 0 0 1 1851.5,164.29 L1612.5,164.29 A2.5,2.5 0 0 1 1610,161.79 L1610,51.5 A2.5,2.5 0 0 1 1612.5,49 " fill="#00FF00" style="stroke:#000000;stroke-width:1.5;"/><line style="stroke:#000000;stroke-width:1.5;" x1="1610" x2="1768" y1="71.2969" y2="71.2969"/><text fill="#000000" font-family="sans-serif" font-size="14" font-weight="bold" lengthAdjust="spacing" textLength="145" x="1614" y="63.9951">observe.boundary</text></g><!--cluster boundary--><g id="cluster_boundary"><path d="M1942.5,1274.37 L2082.5,1274.37 A3.75,3.75 0 0 1 2085,1276.87 L2092,1296.6669 L2191.5,1296.6669 A2.5,2.5 0 0 1 2194,1299.1669 L2194,1544.06 A2.5,2.5 0 0 1 2191.5,1546.56 L1942.5,1546.56 A2.5,2.5 0 0 1 1940,1544.06 L1940,1276.87 A2.5,2.5 0 0 1 1942.5,1274.37 " fill="#00FF00" style="stroke:#000000;stroke-width:1.5;"/><line style="stroke:#000000;stroke-width:1.5;" x1="1940" x2="2092" y1="1296.6669" y2="1296.6669"/><text fill="#000000" font-family="sans-serif" font-size="14" font-weight="bold" lengthAdjust="spacing" textLength="139" x="1944" y="1289.3651">sewers.boundary</text></g><!--cluster use_cases--><g id="cluster_use_cases"><path d="M32.5,188.29 L115.5,188.29 A3.75,3.75 0 0 1 118,190.79 L125,210.5869 L2215.5,210.5869 A2.5,2.5 0 0 1 2218,213.0869 L2218,1247.87 A2.5,2.5 0 0 1 2215.5,1250.37 L32.5,1250.37 A2.5,2.5 0 0 1 30,1247.87 L30,190.79 A2.5,2.5 0 0 1 32.5,188.29 " fill="#FF9A99" style="stroke:#000000;stroke-width:1.5;"/><line style="stroke:#000000;stroke-width:1.5;" x1="30" x2="125" y1="210.5869" y2="210.5869"/><text fill="#000000" font-family="sans-serif" font-size="14" font-weight="bold" lengthAdjust="spacing" textLength="82" x="34" y="203.2851">use_cases</text></g><!--cluster entities--><g id="cluster_entities"><path d="M56.5,370.59 L116.5,370.59 A3.75,3.75 0 0 1 119,373.09 L126,392.8869 L1913.5,392.8869 A2.5,2.5 0 0 1 1916,395.3869 L1916,1111.28 A2.5,2.5 0 0 1 1913.5,1113.78 L56.5,1113.78 A2.5,2.5 0 0 1 54,1111.28 L54,373.09 A2.5,2.5 0 0 1 56.5,370.59 " fill="#FCFDB0" style="stroke:#000000;stroke-width:1.5;"/><line style="stroke:#000000;stroke-width:1.5;" x1="54" x2="126" y1="392.8869" y2="392.8869"/><text fill="#000000" font-family="sans-serif" font-size="14" font-weight="bold" lengthAdjust="spacing" textLength="59" x="58" y="385.5851">entities</text></g><!--cluster boundary--><g id="cluster_boundary"><path d="M80.5,413.59 L223.5,413.59 A3.75,3.75 0 0 1 226,416.09 L233,435.8869 L1247.5,435.8869 A2.5,2.5 0 0 1 1250,438.3869 L1250,923.98 A2.5,2.5 0 0 1 1247.5,926.48 L80.5,926.48 A2.5,2.5 0 0 1 78,923.98 L78,416.09 A2.5,2.5 0 0 1 80.5,413.59 " fill="#00FF00" style="stroke:#000000;stroke-width:1.5;"/><line style="stroke:#000000;stroke-width:1.5;" x1="78" x2="233" y1="435.8869" y2="435.8869"/><text fill="#000000" font-family="sans-serif" font-size="14" font-weight="bold" lengthAdjust="spacing" textLength="142" x="82" y="428.5851">indicate.boundary</text></g><!--cluster control--><g id="cluster_control"><path d="M104.5,537.89 L161.5,537.89 A3.75,3.75 0 0 1 164,540.39 L171,560.1869 L1223.5,560.1869 A2.5,2.5 0 0 1 1226,562.6869 L1226,899.98 A2.5,2.5 0 0 1 1223.5,902.48 L104.5,902.48 A2.5,2.5 0 0 1 102,899.98 L102,540.39 A2.5,2.5 0 0 1 104.5,537.89 " fill="#FFA500" style="stroke:#000000;stroke-width:1.5;"/><line style="stroke:#000000;stroke-width:1.5;" x1="102" x2="171" y1="560.1869" y2="560.1869"/><text fill="#000000" font-family="sans-serif" font-size="14" font-weight="bold" lengthAdjust="spacing" textLength="56" x="106" y="552.8851">control</text></g><!--cluster boundary--><g id="cluster_boundary"><path d="M1574.5,413.59 L1720.5,413.59 A3.75,3.75 0 0 1 1723,416.09 L1730,435.8869 L1889.5,435.8869 A2.5,2.5 0 0 1 1892,438.3869 L1892,674.68 A2.5,2.5 0 0 1 1889.5,677.18 L1574.5,677.18 A2.5,2.5 0 0 1 1572,674.68 L1572,416.09 A2.5,2.5 0 0 1 1574.5,413.59 " fill="#00FF00" style="stroke:#000000;stroke-width:1.5;"/><line style="stroke:#000000;stroke-width:1.5;" x1="1572" x2="1730" y1="435.8869" y2="435.8869"/><text fill="#000000" font-family="sans-serif" font-size="14" font-weight="bold" lengthAdjust="spacing" textLength="145" x="1576" y="428.5851">observe.boundary</text></g><!--cluster control--><g id="cluster_control"><path d="M1598.5,537.89 L1655.5,537.89 A3.75,3.75 0 0 1 1658,540.39 L1665,560.1869 L1865.5,560.1869 A2.5,2.5 0 0 1 1868,562.6869 L1868,650.68 A2.5,2.5 0 0 1 1865.5,653.18 L1598.5,653.18 A2.5,2.5 0 0 1 1596,650.68 L1596,540.39 A2.5,2.5 0 0 1 1598.5,537.89 " fill="#FFA500" style="stroke:#000000;stroke-width:1.5;"/><line style="stroke:#000000;stroke-width:1.5;" x1="1596" x2="1665" y1="560.1869" y2="560.1869"/><text fill="#000000" font-family="sans-serif" font-size="14" font-weight="bold" lengthAdjust="spacing" textLength="56" x="1600" y="552.8851">control</text></g><!--cluster sewer--><g id="cluster_sewer"><path d="M1276.5,701.18 L1327.5,701.18 A3.75,3.75 0 0 1 1330,703.68 L1337,723.4769 L1889.5,723.4769 A2.5,2.5 0 0 1 1892,725.9769 L1892,1087.28 A2.5,2.5 0 0 1 1889.5,1089.78 L1276.5,1089.78 A2.5,2.5 0 0 1 1274,1087.28 L1274,703.68 A2.5,2.5 0 0 1 1276.5,701.18 " fill="none" style="stroke:#000000;stroke-width:1.5;"/><line style="stroke:#000000;stroke-width:1.5;" x1="1274" x2="1337" y1="723.4769" y2="723.4769"/><text fill="#000000" font-family="sans-serif" font-size="14" font-weight="bold" lengthAdjust="spacing" textLength="50" x="1278" y="716.1751">sewer</text></g><!--cluster boundary--><g id="cluster_boundary"><path d="M1300.5,744.18 L1376.5,744.18 A3.75,3.75 0 0 1 1379,746.68 L1386,766.4769 L1865.5,766.4769 A2.5,2.5 0 0 1 1868,768.9769 L1868,923.98 A2.5,2.5 0 0 1 1865.5,926.48 L1300.5,926.48 A2.5,2.5 0 0 1 1298,923.98 L1298,746.68 A2.5,2.5 0 0 1 1300.5,744.18 " fill="#00FF00" style="stroke:#000000;stroke-width:1.5;"/><line style="stroke:#000000;stroke-width:1.5;" x1="1298" x2="1386" y1="766.4769" y2="766.4769"/><text fill="#000000" font-family="sans-serif" font-size="14" font-weight="bold" lengthAdjust="spacing" textLength="75" x="1302" y="759.1751">boundary</text></g><!--cluster entity--><g id="cluster_entity"><path d="M1324.5,787.18 L1431.5,787.18 A3.75,3.75 0 0 1 1434,789.68 L1441,809.4769 L1609.5,809.4769 A2.5,2.5 0 0 1 1612,811.9769 L1612,899.98 A2.5,2.5 0 0 1 1609.5,902.48 L1324.5,902.48 A2.5,2.5 0 0 1 1322,899.98 L1322,789.68 A2.5,2.5 0 0 1 1324.5,787.18 " fill="#FCFDB0" style="stroke:#000000;stroke-width:1.5;"/><line style="stroke:#000000;stroke-width:1.5;" x1="1322" x2="1441" y1="809.4769" y2="809.4769"/><text fill="#000000" font-family="sans-serif" font-size="14" font-weight="bold" lengthAdjust="spacing" textLength="106" x="1326" y="802.1751">control.entity</text></g><!--cluster entity--><g id="cluster_entity"><path d="M1319.5,966.78 L1534.5,966.78 A3.75,3.75 0 0 1 1537,969.28 L1544,989.0769 L1550.5,989.0769 A2.5,2.5 0 0 1 1553,991.5769 L1553,1063.28 A2.5,2.5 0 0 1 1550.5,1065.78 L1319.5,1065.78 A2.5,2.5 0 0 1 1317,1063.28 L1317,969.28 A2.5,2.5 0 0 1 1319.5,966.78 " fill="#FCFDB0" style="stroke:#000000;stroke-width:1.5;"/><line style="stroke:#000000;stroke-width:1.5;" x1="1317" x2="1544" y1="989.0769" y2="989.0769"/><text fill="#000000" font-family="sans-serif" font-size="14" font-weight="bold" lengthAdjust="spacing" textLength="214" x="1321" y="981.7751">kpi.boundary.control.entity</text></g><!--cluster entity--><g id="cluster_entity"><path d="M1579.5,966.78 L1836.5,966.78 A3.75,3.75 0 0 1 1839,969.28 L1846,989.0769 L1846.5,989.0769 A2.5,2.5 0 0 1 1849,991.5769 L1849,1063.28 A2.5,2.5 0 0 1 1846.5,1065.78 L1579.5,1065.78 A2.5,2.5 0 0 1 1577,1063.28 L1577,969.28 A2.5,2.5 0 0 1 1579.5,966.78 " fill="#FCFDB0" style="stroke:#000000;stroke-width:1.5;"/><line style="stroke:#000000;stroke-width:1.5;" x1="1577" x2="1846" y1="989.0769" y2="989.0769"/><text fill="#000000" font-family="sans-serif" font-size="14" font-weight="bold" lengthAdjust="spacing" textLength="256" x="1581" y="981.7751">problem.boundary.control.entity</text></g><!--cluster boundary--><g id="cluster_boundary"><path d="M737.5,231.29 L880.5,231.29 A3.75,3.75 0 0 1 883,233.79 L890,253.5869 L966.5,253.5869 A2.5,2.5 0 0 1 969,256.0869 L969,344.09 A2.5,2.5 0 0 1 966.5,346.59 L737.5,346.59 A2.5,2.5 0 0 1 735,344.09 L735,233.79 A2.5,2.5 0 0 1 737.5,231.29 " fill="#00FF00" style="stroke:#000000;stroke-width:1.5;"/><line style="stroke:#000000;stroke-width:1.5;" x1="735" x2="890" y1="253.5869" y2="253.5869"/><text fill="#000000" font-family="sans-serif" font-size="14" font-weight="bold" lengthAdjust="spacing" textLength="142" x="739" y="246.2851">indicate.boundary</text></g><!--cluster boundary--><g id="cluster_boundary"><path d="M1608.5,231.29 L1754.5,231.29 A3.75,3.75 0 0 1 1757,233.79 L1764,253.5869 L1855.5,253.5869 A2.5,2.5 0 0 1 1858,256.0869 L1858,344.09 A2.5,2.5 0 0 1 1855.5,346.59 L1608.5,346.59 A2.5,2.5 0 0 1 1606,344.09 L1606,233.79 A2.5,2.5 0 0 1 1608.5,231.29 " fill="#00FF00" style="stroke:#000000;stroke-width:1.5;"/><line style="stroke:#000000;stroke-width:1.5;" x1="1606" x2="1764" y1="253.5869" y2="253.5869"/><text fill="#000000" font-family="sans-serif" font-size="14" font-weight="bold" lengthAdjust="spacing" textLength="145" x="1610" y="246.2851">observe.boundary</text></g><!--cluster boundary--><g id="cluster_boundary"><path d="M1942.5,950.48 L2082.5,950.48 A3.75,3.75 0 0 1 2085,952.98 L2092,972.7769 L2191.5,972.7769 A2.5,2.5 0 0 1 2194,975.2769 L2194,1223.87 A2.5,2.5 0 0 1 2191.5,1226.37 L1942.5,1226.37 A2.5,2.5 0 0 1 1940,1223.87 L1940,952.98 A2.5,2.5 0 0 1 1942.5,950.48 " fill="#00FF00" style="stroke:#000000;stroke-width:1.5;"/><line style="stroke:#000000;stroke-width:1.5;" x1="1940" x2="2092" y1="972.7769" y2="972.7769"/><text fill="#000000" font-family="sans-serif" font-size="14" font-weight="bold" lengthAdjust="spacing" textLength="139" x="1944" y="965.4751">sewers.boundary</text></g><!--class SewerIndicationAdapter--><g id="elem_SewerIndicationAdapter"><rect codeLine="28" fill="#F1F1F1" height="64.2969" id="SewerIndicationAdapter" rx="2.5" ry="2.5" style="stroke:#181818;stroke-width:0.5;" width="195" x="754.5" y="84"/><ellipse cx="769.5" cy="100" fill="#ADD1B2" rx="11" ry="11" style="stroke:#181818;stroke-width:1.0;"/><path d="M772.4688,105.6406 Q771.8906,105.9375 771.25,106.0781 Q770.6094,106.2344 769.9063,106.2344 Q767.4063,106.2344 766.0781,104.5938 Q764.7656,102.9375 764.7656,99.8125 Q764.7656,96.6875 766.0781,95.0313 Q767.4063,93.375 769.9063,93.375 Q770.6094,93.375 771.25,93.5313 Q771.9063,93.6875 772.4688,93.9844 L772.4688,96.7031 Q771.8438,96.125 771.25,95.8594 Q770.6563,95.5781 770.0313,95.5781 Q768.6875,95.5781 768,96.6563 Q767.3125,97.7188 767.3125,99.8125 Q767.3125,101.9063 768,102.9844 Q768.6875,104.0469 770.0313,104.0469 Q770.6563,104.0469 771.25,103.7813 Q771.8438,103.5 772.4688,102.9219 L772.4688,105.6406 Z " fill="#000000"/><text fill="#000000" font-family="sans-serif" font-size="14" lengthAdjust="spacing" textLength="163" x="783.5" y="104.8467">SewerIndicationAdapter</text><line style="stroke:#181818;stroke-width:0.5;" x1="755.5" x2="948.5" y1="116" y2="116"/><line style="stroke:#181818;stroke-width:0.5;" x1="755.5" x2="948.5" y1="124" y2="124"/><ellipse cx="765.5" cy="137.6484" fill="#84BE84" rx="3" ry="3" style="stroke:#038048;stroke-width:1.0;"/><text fill="#000000" font-family="sans-serif" font-size="14" lengthAdjust="spacing" textLength="120" x="774.5" y="140.9951">void serve(String)</text></g><!--class SewerObservationAdapter--><g id="elem_SewerObservationAdapter"><rect codeLine="31" fill="#F1F1F1" height="64.2969" id="SewerObservationAdapter" rx="2.5" ry="2.5" style="stroke:#181818;stroke-width:0.5;" width="212" x="1626" y="84"/><ellipse cx="1641" cy="100" fill="#ADD1B2" rx="11" ry="11" style="stroke:#181818;stroke-width:1.0;"/><path d="M1643.9688,105.6406 Q1643.3906,105.9375 1642.75,106.0781 Q1642.1094,106.2344 1641.4063,106.2344 Q1638.9063,106.2344 1637.5781,104.5938 Q1636.2656,102.9375 1636.2656,99.8125 Q1636.2656,96.6875 1637.5781,95.0313 Q1638.9063,93.375 1641.4063,93.375 Q1642.1094,93.375 1642.75,93.5313 Q1643.4063,93.6875 1643.9688,93.9844 L1643.9688,96.7031 Q1643.3438,96.125 1642.75,95.8594 Q1642.1563,95.5781 1641.5313,95.5781 Q1640.1875,95.5781 1639.5,96.6563 Q1638.8125,97.7188 1638.8125,99.8125 Q1638.8125,101.9063 1639.5,102.9844 Q1640.1875,104.0469 1641.5313,104.0469 Q1642.1563,104.0469 1642.75,103.7813 Q1643.3438,103.5 1643.9688,102.9219 L1643.9688,105.6406 Z " fill="#000000"/><text fill="#000000" font-family="sans-serif" font-size="14" lengthAdjust="spacing" textLength="180" x="1655" y="104.8467">SewerObservationAdapter</text><line style="stroke:#181818;stroke-width:0.5;" x1="1627" x2="1837" y1="116" y2="116"/><line style="stroke:#181818;stroke-width:0.5;" x1="1627" x2="1837" y1="124" y2="124"/><ellipse cx="1637" cy="137.6484" fill="#84BE84" rx="3" ry="3" style="stroke:#038048;stroke-width:1.0;"/><text fill="#000000" font-family="sans-serif" font-size="14" lengthAdjust="spacing" textLength="184" x="1646" y="140.9951">Set&lt;Object&gt; serve(String)</text></g><!--class SewersAdapter--><g id="elem_SewersAdapter"><rect codeLine="34" fill="#F1F1F1" height="80.5938" id="SewersAdapter" rx="2.5" ry="2.5" style="stroke:#181818;stroke-width:0.5;" width="222" x="1956" y="1449.97"/><ellipse cx="2010.25" cy="1465.97" fill="#B4A7E5" rx="11" ry="11" style="stroke:#181818;stroke-width:1.0;"/><path d="M2006.1719,1461.7356 L2006.1719,1459.5794 L2013.5625,1459.5794 L2013.5625,1461.7356 L2011.0938,1461.7356 L2011.0938,1469.8138 L2013.5625,1469.8138 L2013.5625,1471.97 L2006.1719,1471.97 L2006.1719,1469.8138 L2008.6406,1469.8138 L2008.6406,1461.7356 L2006.1719,1461.7356 Z " fill="#000000"/><text fill="#000000" font-family="sans-serif" font-size="14" font-style="italic" lengthAdjust="spacing" textLength="105" x="2030.75" y="1470.8167">SewersAdapter</text><line style="stroke:#181818;stroke-width:0.5;" x1="1957" x2="2177" y1="1481.97" y2="1481.97"/><line style="stroke:#181818;stroke-width:0.5;" x1="1957" x2="2177" y1="1489.97" y2="1489.97"/><ellipse cx="1967" cy="1503.6184" fill="#84BE84" rx="3" ry="3" style="stroke:#038048;stroke-width:1.0;"/><text fill="#000000" font-family="sans-serif" font-size="14" font-style="italic" lengthAdjust="spacing" textLength="196" x="1976" y="1506.9651">Set&lt;Object&gt; observe(UUID)</text><ellipse cx="1967" cy="1519.9153" fill="#84BE84" rx="3" ry="3" style="stroke:#038048;stroke-width:1.0;"/><text fill="#000000" font-family="sans-serif" font-size="14" font-style="italic" lengthAdjust="spacing" textLength="183" x="1976" y="1523.262">void indicate(UUID, Object)</text></g><!--class SewersAdapterBridge--><g id="elem_SewersAdapterBridge"><rect codeLine="38" fill="#F1F1F1" height="80.5938" id="SewersAdapterBridge" rx="2.5" ry="2.5" style="stroke:#181818;stroke-width:0.5;" width="222" x="1956" y="1309.37"/><ellipse cx="1989" cy="1325.37" fill="#ADD1B2" rx="11" ry="11" style="stroke:#181818;stroke-width:1.0;"/><path d="M1991.9688,1331.0106 Q1991.3906,1331.3075 1990.75,1331.4481 Q1990.1094,1331.6044 1989.4063,1331.6044 Q1986.9063,1331.6044 1985.5781,1329.9638 Q1984.2656,1328.3075 1984.2656,1325.1825 Q1984.2656,1322.0575 1985.5781,1320.4013 Q1986.9063,1318.745 1989.4063,1318.745 Q1990.1094,1318.745 1990.75,1318.9013 Q1991.4063,1319.0575 1991.9688,1319.3544 L1991.9688,1322.0731 Q1991.3438,1321.495 1990.75,1321.2294 Q1990.1563,1320.9481 1989.5313,1320.9481 Q1988.1875,1320.9481 1987.5,1322.0263 Q1986.8125,1323.0888 1986.8125,1325.1825 Q1986.8125,1327.2763 1987.5,1328.3544 Q1988.1875,1329.4169 1989.5313,1329.4169 Q1990.1563,1329.4169 1990.75,1329.1513 Q1991.3438,1328.87 1991.9688,1328.2919 L1991.9688,1331.0106 Z " fill="#000000"/><text fill="#000000" font-family="sans-serif" font-size="14" lengthAdjust="spacing" textLength="150" x="2007" y="1330.2167">SewersAdapterBridge</text><line style="stroke:#181818;stroke-width:0.5;" x1="1957" x2="2177" y1="1341.37" y2="1341.37"/><line style="stroke:#181818;stroke-width:0.5;" x1="1957" x2="2177" y1="1349.37" y2="1349.37"/><ellipse cx="1967" cy="1363.0184" fill="#84BE84" rx="3" ry="3" style="stroke:#038048;stroke-width:1.0;"/><text fill="#000000" font-family="sans-serif" font-size="14" lengthAdjust="spacing" textLength="196" x="1976" y="1366.3651">Set&lt;Object&gt; observe(UUID)</text><ellipse cx="1967" cy="1379.3153" fill="#84BE84" rx="3" ry="3" style="stroke:#038048;stroke-width:1.0;"/><text fill="#000000" font-family="sans-serif" font-size="14" lengthAdjust="spacing" textLength="183" x="1976" y="1382.662">void indicate(UUID, Object)</text></g><!--class SewerOverflowIndicationService--><g id="elem_SewerOverflowIndicationService"><rect codeLine="42" fill="#F1F1F1" height="64.2969" id="SewerOverflowIndicationService" rx="2.5" ry="2.5" style="stroke:#181818;stroke-width:0.5;" width="250" x="727" y="448.59"/><ellipse cx="742" cy="464.59" fill="#ADD1B2" rx="11" ry="11" style="stroke:#181818;stroke-width:1.0;"/><path d="M744.9688,470.2306 Q744.3906,470.5275 743.75,470.6681 Q743.1094,470.8244 742.4063,470.8244 Q739.9063,470.8244 738.5781,469.1837 Q737.2656,467.5275 737.2656,464.4025 Q737.2656,461.2775 738.5781,459.6212 Q739.9063,457.965 742.4063,457.965 Q743.1094,457.965 743.75,458.1212 Q744.4063,458.2775 744.9688,458.5744 L744.9688,461.2931 Q744.3438,460.715 743.75,460.4494 Q743.1563,460.1681 742.5313,460.1681 Q741.1875,460.1681 740.5,461.2462 Q739.8125,462.3087 739.8125,464.4025 Q739.8125,466.4962 740.5,467.5744 Q741.1875,468.6369 742.5313,468.6369 Q743.1563,468.6369 743.75,468.3712 Q744.3438,468.09 744.9688,467.5119 L744.9688,470.2306 Z " fill="#000000"/><text fill="#000000" font-family="sans-serif" font-size="14" lengthAdjust="spacing" textLength="218" x="756" y="469.4367">SewerOverflowIndicationService</text><line style="stroke:#181818;stroke-width:0.5;" x1="728" x2="976" y1="480.59" y2="480.59"/><line style="stroke:#181818;stroke-width:0.5;" x1="728" x2="976" y1="488.59" y2="488.59"/><ellipse cx="738" cy="502.2384" fill="#84BE84" rx="3" ry="3" style="stroke:#038048;stroke-width:1.0;"/><text fill="#000000" font-family="sans-serif" font-size="14" lengthAdjust="spacing" textLength="221" x="747" y="505.5851">void serve(Map&lt;String, String&gt;)</text></g><!--class FlowIndicationComponent--><g id="elem_FlowIndicationComponent"><rect codeLine="45" fill="#F1F1F1" height="64.2969" id="FlowIndicationComponent" rx="2.5" ry="2.5" style="stroke:#181818;stroke-width:0.5;" width="341" x="117.5" y="822.18"/><ellipse cx="194.25" cy="838.18" fill="#ADD1B2" rx="11" ry="11" style="stroke:#181818;stroke-width:1.0;"/><path d="M197.2188,843.8206 Q196.6406,844.1175 196,844.2581 Q195.3594,844.4144 194.6563,844.4144 Q192.1563,844.4144 190.8281,842.7738 Q189.5156,841.1175 189.5156,837.9925 Q189.5156,834.8675 190.8281,833.2113 Q192.1563,831.555 194.6563,831.555 Q195.3594,831.555 196,831.7113 Q196.6563,831.8675 197.2188,832.1644 L197.2188,834.8831 Q196.5938,834.305 196,834.0394 Q195.4063,833.7581 194.7813,833.7581 Q193.4375,833.7581 192.75,834.8363 Q192.0625,835.8988 192.0625,837.9925 Q192.0625,840.0863 192.75,841.1644 Q193.4375,842.2269 194.7813,842.2269 Q195.4063,842.2269 196,841.9613 Q196.5938,841.68 197.2188,841.1019 L197.2188,843.8206 Z " fill="#000000"/><text fill="#000000" font-family="sans-serif" font-size="14" lengthAdjust="spacing" textLength="179" x="214.75" y="843.0267">FlowIndicationComponent</text><line style="stroke:#181818;stroke-width:0.5;" x1="118.5" x2="457.5" y1="854.18" y2="854.18"/><line style="stroke:#181818;stroke-width:0.5;" x1="118.5" x2="457.5" y1="862.18" y2="862.18"/><ellipse cx="128.5" cy="875.8284" fill="#84BE84" rx="3" ry="3" style="stroke:#038048;stroke-width:1.0;"/><text fill="#000000" font-family="sans-serif" font-size="14" lengthAdjust="spacing" textLength="315" x="137.5" y="879.1751">void execute(Map&lt;String, ? extends Object&gt;)</text></g><!--class PumpIndicationComponent--><g id="elem_PumpIndicationComponent"><rect codeLine="48" fill="#F1F1F1" height="64.2969" id="PumpIndicationComponent" rx="2.5" ry="2.5" style="stroke:#181818;stroke-width:0.5;" width="341" x="493.5" y="822.18"/><ellipse cx="565.75" cy="838.18" fill="#ADD1B2" rx="11" ry="11" style="stroke:#181818;stroke-width:1.0;"/><path d="M568.7188,843.8206 Q568.1406,844.1175 567.5,844.2581 Q566.8594,844.4144 566.1563,844.4144 Q563.6563,844.4144 562.3281,842.7738 Q561.0156,841.1175 561.0156,837.9925 Q561.0156,834.8675 562.3281,833.2113 Q563.6563,831.555 566.1563,831.555 Q566.8594,831.555 567.5,831.7113 Q568.1563,831.8675 568.7188,832.1644 L568.7188,834.8831 Q568.0938,834.305 567.5,834.0394 Q566.9063,833.7581 566.2813,833.7581 Q564.9375,833.7581 564.25,834.8363 Q563.5625,835.8988 563.5625,837.9925 Q563.5625,840.0863 564.25,841.1644 Q564.9375,842.2269 566.2813,842.2269 Q566.9063,842.2269 567.5,841.9613 Q568.0938,841.68 568.7188,841.1019 L568.7188,843.8206 Z " fill="#000000"/><text fill="#000000" font-family="sans-serif" font-size="14" lengthAdjust="spacing" textLength="188" x="586.25" y="843.0267">PumpIndicationComponent</text><line style="stroke:#181818;stroke-width:0.5;" x1="494.5" x2="833.5" y1="854.18" y2="854.18"/><line style="stroke:#181818;stroke-width:0.5;" x1="494.5" x2="833.5" y1="862.18" y2="862.18"/><ellipse cx="504.5" cy="875.8284" fill="#84BE84" rx="3" ry="3" style="stroke:#038048;stroke-width:1.0;"/><text fill="#000000" font-family="sans-serif" font-size="14" lengthAdjust="spacing" textLength="315" x="513.5" y="879.1751">void execute(Map&lt;String, ? extends Object&gt;)</text></g><!--class RainIndicationComponent--><g id="elem_RainIndicationComponent"><rect codeLine="51" fill="#F1F1F1" height="64.2969" id="RainIndicationComponent" rx="2.5" ry="2.5" style="stroke:#181818;stroke-width:0.5;" width="341" x="869.5" y="822.18"/><ellipse cx="946.75" cy="838.18" fill="#ADD1B2" rx="11" ry="11" style="stroke:#181818;stroke-width:1.0;"/><path d="M949.7188,843.8206 Q949.1406,844.1175 948.5,844.2581 Q947.8594,844.4144 947.1563,844.4144 Q944.6563,844.4144 943.3281,842.7738 Q942.0156,841.1175 942.0156,837.9925 Q942.0156,834.8675 943.3281,833.2113 Q944.6563,831.555 947.1563,831.555 Q947.8594,831.555 948.5,831.7113 Q949.1563,831.8675 949.7188,832.1644 L949.7188,834.8831 Q949.0938,834.305 948.5,834.0394 Q947.9063,833.7581 947.2813,833.7581 Q945.9375,833.7581 945.25,834.8363 Q944.5625,835.8988 944.5625,837.9925 Q944.5625,840.0863 945.25,841.1644 Q945.9375,842.2269 947.2813,842.2269 Q947.9063,842.2269 948.5,841.9613 Q949.0938,841.68 949.7188,841.1019 L949.7188,843.8206 Z " fill="#000000"/><text fill="#000000" font-family="sans-serif" font-size="14" lengthAdjust="spacing" textLength="178" x="967.25" y="843.0267">RainIndicationComponent</text><line style="stroke:#181818;stroke-width:0.5;" x1="870.5" x2="1209.5" y1="854.18" y2="854.18"/><line style="stroke:#181818;stroke-width:0.5;" x1="870.5" x2="1209.5" y1="862.18" y2="862.18"/><ellipse cx="880.5" cy="875.8284" fill="#84BE84" rx="3" ry="3" style="stroke:#038048;stroke-width:1.0;"/><text fill="#000000" font-family="sans-serif" font-size="14" lengthAdjust="spacing" textLength="315" x="889.5" y="879.1751">void execute(Map&lt;String, ? extends Object&gt;)</text></g><!--class SewerOverflowIndicationComponent--><g id="elem_SewerOverflowIndicationComponent"><rect codeLine="54" fill="#F1F1F1" height="64.2969" id="SewerOverflowIndicationComponent" rx="2.5" ry="2.5" style="stroke:#181818;stroke-width:0.5;" width="341" x="681.5" y="572.89"/><ellipse cx="723.05" cy="588.89" fill="#ADD1B2" rx="11" ry="11" style="stroke:#181818;stroke-width:1.0;"/><path d="M726.0188,594.5306 Q725.4406,594.8275 724.8,594.9681 Q724.1594,595.1244 723.4563,595.1244 Q720.9563,595.1244 719.6281,593.4838 Q718.3156,591.8275 718.3156,588.7025 Q718.3156,585.5775 719.6281,583.9213 Q720.9563,582.265 723.4563,582.265 Q724.1594,582.265 724.8,582.4213 Q725.4563,582.5775 726.0188,582.8744 L726.0188,585.5931 Q725.3938,585.015 724.8,584.7494 Q724.2063,584.4681 723.5813,584.4681 Q722.2375,584.4681 721.55,585.5463 Q720.8625,586.6088 720.8625,588.7025 Q720.8625,590.7963 721.55,591.8744 Q722.2375,592.9369 723.5813,592.9369 Q724.2063,592.9369 724.8,592.6713 Q725.3938,592.39 726.0188,591.8119 L726.0188,594.5306 Z " fill="#000000"/><text fill="#000000" font-family="sans-serif" font-size="14" lengthAdjust="spacing" textLength="250" x="742.95" y="593.7367">SewerOverflowIndicationComponent</text><line style="stroke:#181818;stroke-width:0.5;" x1="682.5" x2="1021.5" y1="604.89" y2="604.89"/><line style="stroke:#181818;stroke-width:0.5;" x1="682.5" x2="1021.5" y1="612.89" y2="612.89"/><ellipse cx="692.5" cy="626.5384" fill="#84BE84" rx="3" ry="3" style="stroke:#038048;stroke-width:1.0;"/><text fill="#000000" font-family="sans-serif" font-size="14" lengthAdjust="spacing" textLength="315" x="701.5" y="629.8851">void execute(Map&lt;String, ? extends Object&gt;)</text></g><!--class SewerObservationService--><g id="elem_SewerObservationService"><rect codeLine="57" fill="#F1F1F1" height="64.2969" id="SewerObservationService" rx="2.5" ry="2.5" style="stroke:#181818;stroke-width:0.5;" width="208" x="1628" y="448.59"/><ellipse cx="1643" cy="464.59" fill="#ADD1B2" rx="11" ry="11" style="stroke:#181818;stroke-width:1.0;"/><path d="M1645.9688,470.2306 Q1645.3906,470.5275 1644.75,470.6681 Q1644.1094,470.8244 1643.4063,470.8244 Q1640.9063,470.8244 1639.5781,469.1837 Q1638.2656,467.5275 1638.2656,464.4025 Q1638.2656,461.2775 1639.5781,459.6212 Q1640.9063,457.965 1643.4063,457.965 Q1644.1094,457.965 1644.75,458.1212 Q1645.4063,458.2775 1645.9688,458.5744 L1645.9688,461.2931 Q1645.3438,460.715 1644.75,460.4494 Q1644.1563,460.1681 1643.5313,460.1681 Q1642.1875,460.1681 1641.5,461.2462 Q1640.8125,462.3087 1640.8125,464.4025 Q1640.8125,466.4962 1641.5,467.5744 Q1642.1875,468.6369 1643.5313,468.6369 Q1644.1563,468.6369 1644.75,468.3712 Q1645.3438,468.09 1645.9688,467.5119 L1645.9688,470.2306 Z " fill="#000000"/><text fill="#000000" font-family="sans-serif" font-size="14" lengthAdjust="spacing" textLength="176" x="1657" y="469.4367">SewerObservationService</text><line style="stroke:#181818;stroke-width:0.5;" x1="1629" x2="1835" y1="480.59" y2="480.59"/><line style="stroke:#181818;stroke-width:0.5;" x1="1629" x2="1835" y1="488.59" y2="488.59"/><ellipse cx="1639" cy="502.2384" fill="#84BE84" rx="3" ry="3" style="stroke:#038048;stroke-width:1.0;"/><text fill="#000000" font-family="sans-serif" font-size="14" lengthAdjust="spacing" textLength="182" x="1648" y="505.5851">Set&lt;Sewer&gt; serve(String)</text></g><!--class SewerObservationComponent--><g id="elem_SewerObservationComponent"><rect codeLine="60" fill="#F1F1F1" height="64.2969" id="SewerObservationComponent" rx="2.5" ry="2.5" style="stroke:#181818;stroke-width:0.5;" width="240" x="1612" y="572.89"/><ellipse cx="1627" cy="588.89" fill="#ADD1B2" rx="11" ry="11" style="stroke:#181818;stroke-width:1.0;"/><path d="M1629.9688,594.5306 Q1629.3906,594.8275 1628.75,594.9681 Q1628.1094,595.1244 1627.4063,595.1244 Q1624.9063,595.1244 1623.5781,593.4838 Q1622.2656,591.8275 1622.2656,588.7025 Q1622.2656,585.5775 1623.5781,583.9213 Q1624.9063,582.265 1627.4063,582.265 Q1628.1094,582.265 1628.75,582.4213 Q1629.4063,582.5775 1629.9688,582.8744 L1629.9688,585.5931 Q1629.3438,585.015 1628.75,584.7494 Q1628.1563,584.4681 1627.5313,584.4681 Q1626.1875,584.4681 1625.5,585.5463 Q1624.8125,586.6088 1624.8125,588.7025 Q1624.8125,590.7963 1625.5,591.8744 Q1626.1875,592.9369 1627.5313,592.9369 Q1628.1563,592.9369 1628.75,592.6713 Q1629.3438,592.39 1629.9688,591.8119 L1629.9688,594.5306 Z " fill="#000000"/><text fill="#000000" font-family="sans-serif" font-size="14" lengthAdjust="spacing" textLength="208" x="1641" y="593.7367">SewerObservationComponent</text><line style="stroke:#181818;stroke-width:0.5;" x1="1613" x2="1851" y1="604.89" y2="604.89"/><line style="stroke:#181818;stroke-width:0.5;" x1="1613" x2="1851" y1="612.89" y2="612.89"/><ellipse cx="1623" cy="626.5384" fill="#84BE84" rx="3" ry="3" style="stroke:#038048;stroke-width:1.0;"/><text fill="#000000" font-family="sans-serif" font-size="14" lengthAdjust="spacing" textLength="200" x="1632" y="629.8851">Set&lt;Sewer&gt; execute(String)</text></g><!--class Sewers--><g id="elem_Sewers"><rect codeLine="63" fill="#F1F1F1" height="80.5938" id="Sewers" rx="2.5" ry="2.5" style="stroke:#181818;stroke-width:0.5;" width="220" x="1632" y="814.04"/><ellipse cx="1712.25" cy="830.04" fill="#B4A7E5" rx="11" ry="11" style="stroke:#181818;stroke-width:1.0;"/><path d="M1708.1719,825.8056 L1708.1719,823.6494 L1715.5625,823.6494 L1715.5625,825.8056 L1713.0938,825.8056 L1713.0938,833.8838 L1715.5625,833.8838 L1715.5625,836.04 L1708.1719,836.04 L1708.1719,833.8838 L1710.6406,833.8838 L1710.6406,825.8056 L1708.1719,825.8056 Z " fill="#000000"/><text fill="#000000" font-family="sans-serif" font-size="14" font-style="italic" lengthAdjust="spacing" textLength="51" x="1732.75" y="834.8867">Sewers</text><line style="stroke:#181818;stroke-width:0.5;" x1="1633" x2="1851" y1="846.04" y2="846.04"/><line style="stroke:#181818;stroke-width:0.5;" x1="1633" x2="1851" y1="854.04" y2="854.04"/><ellipse cx="1643" cy="867.6884" fill="#84BE84" rx="3" ry="3" style="stroke:#038048;stroke-width:1.0;"/><text fill="#000000" font-family="sans-serif" font-size="14" font-style="italic" lengthAdjust="spacing" textLength="194" x="1652" y="871.0351">Set&lt;Sewer&gt; observe(UUID)</text><ellipse cx="1643" cy="883.9853" fill="#84BE84" rx="3" ry="3" style="stroke:#038048;stroke-width:1.0;"/><text fill="#000000" font-family="sans-serif" font-size="14" font-style="italic" lengthAdjust="spacing" textLength="139" x="1652" y="887.332">void indicate(Sewer)</text></g><!--class Sewer--><g id="elem_Sewer"><rect codeLine="67" fill="#F1F1F1" height="64.2969" id="Sewer" rx="2.5" ry="2.5" style="stroke:#181818;stroke-width:0.5;" width="259" x="1337.5" y="822.18"/><ellipse cx="1441.25" cy="838.18" fill="#ADD1B2" rx="11" ry="11" style="stroke:#181818;stroke-width:1.0;"/><path d="M1444.2188,843.8206 Q1443.6406,844.1175 1443,844.2581 Q1442.3594,844.4144 1441.6563,844.4144 Q1439.1563,844.4144 1437.8281,842.7738 Q1436.5156,841.1175 1436.5156,837.9925 Q1436.5156,834.8675 1437.8281,833.2113 Q1439.1563,831.555 1441.6563,831.555 Q1442.3594,831.555 1443,831.7113 Q1443.6563,831.8675 1444.2188,832.1644 L1444.2188,834.8831 Q1443.5938,834.305 1443,834.0394 Q1442.4063,833.7581 1441.7813,833.7581 Q1440.4375,833.7581 1439.75,834.8363 Q1439.0625,835.8988 1439.0625,837.9925 Q1439.0625,840.0863 1439.75,841.1644 Q1440.4375,842.2269 1441.7813,842.2269 Q1442.4063,842.2269 1443,841.9613 Q1443.5938,841.68 1444.2188,841.1019 L1444.2188,843.8206 Z " fill="#000000"/><text fill="#000000" font-family="sans-serif" font-size="14" lengthAdjust="spacing" textLength="43" x="1461.75" y="843.0267">Sewer</text><line style="stroke:#181818;stroke-width:0.5;" x1="1338.5" x2="1595.5" y1="854.18" y2="854.18"/><line style="stroke:#181818;stroke-width:0.5;" x1="1338.5" x2="1595.5" y1="862.18" y2="862.18"/><ellipse cx="1348.5" cy="875.8284" fill="#84BE84" rx="3" ry="3" style="stroke:#038048;stroke-width:1.0;"/><text fill="#000000" font-family="sans-serif" font-size="14" lengthAdjust="spacing" textLength="233" x="1357.5" y="879.1751">void setProblems(Set&lt;Problem&gt;)</text></g><!--class KeyPerformanceIndicator--><g id="elem_KeyPerformanceIndicator"><rect codeLine="70" fill="#F1F1F1" height="48" id="KeyPerformanceIndicator" rx="2.5" ry="2.5" style="stroke:#181818;stroke-width:0.5;" width="204" x="1333" y="1001.78"/><ellipse cx="1348" cy="1017.78" fill="#ADD1B2" rx="11" ry="11" style="stroke:#181818;stroke-width:1.0;"/><path d="M1350.9688,1023.4206 Q1350.3906,1023.7175 1349.75,1023.8581 Q1349.1094,1024.0144 1348.4063,1024.0144 Q1345.9063,1024.0144 1344.5781,1022.3738 Q1343.2656,1020.7175 1343.2656,1017.5925 Q1343.2656,1014.4675 1344.5781,1012.8113 Q1345.9063,1011.155 1348.4063,1011.155 Q1349.1094,1011.155 1349.75,1011.3113 Q1350.4063,1011.4675 1350.9688,1011.7644 L1350.9688,1014.4831 Q1350.3438,1013.905 1349.75,1013.6394 Q1349.1563,1013.3581 1348.5313,1013.3581 Q1347.1875,1013.3581 1346.5,1014.4363 Q1345.8125,1015.4988 1345.8125,1017.5925 Q1345.8125,1019.6863 1346.5,1020.7644 Q1347.1875,1021.8269 1348.5313,1021.8269 Q1349.1563,1021.8269 1349.75,1021.5613 Q1350.3438,1021.28 1350.9688,1020.7019 L1350.9688,1023.4206 Z " fill="#000000"/><text fill="#000000" font-family="sans-serif" font-size="14" lengthAdjust="spacing" textLength="172" x="1362" y="1022.6267">KeyPerformanceIndicator</text><line style="stroke:#181818;stroke-width:0.5;" x1="1334" x2="1536" y1="1033.78" y2="1033.78"/><line style="stroke:#181818;stroke-width:0.5;" x1="1334" x2="1536" y1="1041.78" y2="1041.78"/></g><!--class Problem--><g id="elem_Problem"><rect codeLine="72" fill="#F1F1F1" height="48" id="Problem" rx="2.5" ry="2.5" style="stroke:#181818;stroke-width:0.5;" width="89" x="1592.5" y="1001.78"/><ellipse cx="1607.5" cy="1017.78" fill="#ADD1B2" rx="11" ry="11" style="stroke:#181818;stroke-width:1.0;"/><path d="M1610.4688,1023.4206 Q1609.8906,1023.7175 1609.25,1023.8581 Q1608.6094,1024.0144 1607.9063,1024.0144 Q1605.4063,1024.0144 1604.0781,1022.3738 Q1602.7656,1020.7175 1602.7656,1017.5925 Q1602.7656,1014.4675 1604.0781,1012.8113 Q1605.4063,1011.155 1607.9063,1011.155 Q1608.6094,1011.155 1609.25,1011.3113 Q1609.9063,1011.4675 1610.4688,1011.7644 L1610.4688,1014.4831 Q1609.8438,1013.905 1609.25,1013.6394 Q1608.6563,1013.3581 1608.0313,1013.3581 Q1606.6875,1013.3581 1606,1014.4363 Q1605.3125,1015.4988 1605.3125,1017.5925 Q1605.3125,1019.6863 1606,1020.7644 Q1606.6875,1021.8269 1608.0313,1021.8269 Q1608.6563,1021.8269 1609.25,1021.5613 Q1609.8438,1021.28 1610.4688,1020.7019 L1610.4688,1023.4206 Z " fill="#000000"/><text fill="#000000" font-family="sans-serif" font-size="14" lengthAdjust="spacing" textLength="57" x="1621.5" y="1022.6267">Problem</text><line style="stroke:#181818;stroke-width:0.5;" x1="1593.5" x2="1680.5" y1="1033.78" y2="1033.78"/><line style="stroke:#181818;stroke-width:0.5;" x1="1593.5" x2="1680.5" y1="1041.78" y2="1041.78"/></g><!--class SewerIndicationUseCase--><g id="elem_SewerIndicationUseCase"><rect codeLine="74" fill="#F1F1F1" height="64.2969" id="SewerIndicationUseCase" rx="2.5" ry="2.5" style="stroke:#181818;stroke-width:0.5;" width="203" x="750.5" y="266.29"/><ellipse cx="765.5" cy="282.29" fill="#ADD1B2" rx="11" ry="11" style="stroke:#181818;stroke-width:1.0;"/><path d="M768.4688,287.9306 Q767.8906,288.2275 767.25,288.3681 Q766.6094,288.5244 765.9063,288.5244 Q763.4063,288.5244 762.0781,286.8837 Q760.7656,285.2275 760.7656,282.1025 Q760.7656,278.9775 762.0781,277.3212 Q763.4063,275.665 765.9063,275.665 Q766.6094,275.665 767.25,275.8212 Q767.9063,275.9775 768.4688,276.2744 L768.4688,278.9931 Q767.8438,278.415 767.25,278.1494 Q766.6563,277.8681 766.0313,277.8681 Q764.6875,277.8681 764,278.9462 Q763.3125,280.0087 763.3125,282.1025 Q763.3125,284.1962 764,285.2744 Q764.6875,286.3369 766.0313,286.3369 Q766.6563,286.3369 767.25,286.0712 Q767.8438,285.79 768.4688,285.2119 L768.4688,287.9306 Z " fill="#000000"/><text fill="#000000" font-family="sans-serif" font-size="14" lengthAdjust="spacing" textLength="171" x="779.5" y="287.1367">SewerIndicationUseCase</text><line style="stroke:#181818;stroke-width:0.5;" x1="751.5" x2="952.5" y1="298.29" y2="298.29"/><line style="stroke:#181818;stroke-width:0.5;" x1="751.5" x2="952.5" y1="306.29" y2="306.29"/><ellipse cx="761.5" cy="319.9384" fill="#84BE84" rx="3" ry="3" style="stroke:#038048;stroke-width:1.0;"/><text fill="#000000" font-family="sans-serif" font-size="14" lengthAdjust="spacing" textLength="120" x="770.5" y="323.2851">void serve(String)</text></g><!--class SewerObservationUseCase--><g id="elem_SewerObservationUseCase"><rect codeLine="77" fill="#F1F1F1" height="64.2969" id="SewerObservationUseCase" rx="2.5" ry="2.5" style="stroke:#181818;stroke-width:0.5;" width="220" x="1622" y="266.29"/><ellipse cx="1637" cy="282.29" fill="#ADD1B2" rx="11" ry="11" style="stroke:#181818;stroke-width:1.0;"/><path d="M1639.9688,287.9306 Q1639.3906,288.2275 1638.75,288.3681 Q1638.1094,288.5244 1637.4063,288.5244 Q1634.9063,288.5244 1633.5781,286.8837 Q1632.2656,285.2275 1632.2656,282.1025 Q1632.2656,278.9775 1633.5781,277.3212 Q1634.9063,275.665 1637.4063,275.665 Q1638.1094,275.665 1638.75,275.8212 Q1639.4063,275.9775 1639.9688,276.2744 L1639.9688,278.9931 Q1639.3438,278.415 1638.75,278.1494 Q1638.1563,277.8681 1637.5313,277.8681 Q1636.1875,277.8681 1635.5,278.9462 Q1634.8125,280.0087 1634.8125,282.1025 Q1634.8125,284.1962 1635.5,285.2744 Q1636.1875,286.3369 1637.5313,286.3369 Q1638.1563,286.3369 1638.75,286.0712 Q1639.3438,285.79 1639.9688,285.2119 L1639.9688,287.9306 Z " fill="#000000"/><text fill="#000000" font-family="sans-serif" font-size="14" lengthAdjust="spacing" textLength="188" x="1651" y="287.1367">SewerObservationUseCase</text><line style="stroke:#181818;stroke-width:0.5;" x1="1623" x2="1841" y1="298.29" y2="298.29"/><line style="stroke:#181818;stroke-width:0.5;" x1="1623" x2="1841" y1="306.29" y2="306.29"/><ellipse cx="1633" cy="319.9384" fill="#84BE84" rx="3" ry="3" style="stroke:#038048;stroke-width:1.0;"/><text fill="#000000" font-family="sans-serif" font-size="14" lengthAdjust="spacing" textLength="182" x="1642" y="323.2851">Set&lt;Sewer&gt; serve(String)</text></g><!--class SewersUseCase--><g id="elem_SewersUseCase"><rect codeLine="80" fill="#F1F1F1" height="80.5938" id="SewersUseCase" rx="2.5" ry="2.5" style="stroke:#181818;stroke-width:0.5;" width="222" x="1956" y="1129.78"/><ellipse cx="2006.25" cy="1145.78" fill="#B4A7E5" rx="11" ry="11" style="stroke:#181818;stroke-width:1.0;"/><path d="M2002.1719,1141.5456 L2002.1719,1139.3894 L2009.5625,1139.3894 L2009.5625,1141.5456 L2007.0938,1141.5456 L2007.0938,1149.6238 L2009.5625,1149.6238 L2009.5625,1151.78 L2002.1719,1151.78 L2002.1719,1149.6238 L2004.6406,1149.6238 L2004.6406,1141.5456 L2002.1719,1141.5456 Z " fill="#000000"/><text fill="#000000" font-family="sans-serif" font-size="14" font-style="italic" lengthAdjust="spacing" textLength="113" x="2026.75" y="1150.6267">SewersUseCase</text><line style="stroke:#181818;stroke-width:0.5;" x1="1957" x2="2177" y1="1161.78" y2="1161.78"/><line style="stroke:#181818;stroke-width:0.5;" x1="1957" x2="2177" y1="1169.78" y2="1169.78"/><ellipse cx="1967" cy="1183.4284" fill="#84BE84" rx="3" ry="3" style="stroke:#038048;stroke-width:1.0;"/><text fill="#000000" font-family="sans-serif" font-size="14" font-style="italic" lengthAdjust="spacing" textLength="196" x="1976" y="1186.7751">Set&lt;Object&gt; observe(UUID)</text><ellipse cx="1967" cy="1199.7253" fill="#84BE84" rx="3" ry="3" style="stroke:#038048;stroke-width:1.0;"/><text fill="#000000" font-family="sans-serif" font-size="14" font-style="italic" lengthAdjust="spacing" textLength="183" x="1976" y="1203.072">void indicate(UUID, Object)</text></g><!--class SewersUseCaseBridge--><g id="elem_SewersUseCaseBridge"><rect codeLine="84" fill="#F1F1F1" height="80.5938" id="SewersUseCaseBridge" rx="2.5" ry="2.5" style="stroke:#181818;stroke-width:0.5;" width="220" x="1956" y="985.48"/><ellipse cx="1984.5" cy="1001.48" fill="#ADD1B2" rx="11" ry="11" style="stroke:#181818;stroke-width:1.0;"/><path d="M1987.4688,1007.1206 Q1986.8906,1007.4175 1986.25,1007.5581 Q1985.6094,1007.7144 1984.9063,1007.7144 Q1982.4063,1007.7144 1981.0781,1006.0737 Q1979.7656,1004.4175 1979.7656,1001.2925 Q1979.7656,998.1675 1981.0781,996.5112 Q1982.4063,994.855 1984.9063,994.855 Q1985.6094,994.855 1986.25,995.0112 Q1986.9063,995.1675 1987.4688,995.4644 L1987.4688,998.1831 Q1986.8438,997.605 1986.25,997.3394 Q1985.6563,997.0581 1985.0313,997.0581 Q1983.6875,997.0581 1983,998.1362 Q1982.3125,999.1987 1982.3125,1001.2925 Q1982.3125,1003.3862 1983,1004.4644 Q1983.6875,1005.5269 1985.0313,1005.5269 Q1985.6563,1005.5269 1986.25,1005.2612 Q1986.8438,1004.98 1987.4688,1004.4019 L1987.4688,1007.1206 Z " fill="#000000"/><text fill="#000000" font-family="sans-serif" font-size="14" lengthAdjust="spacing" textLength="158" x="2001.5" y="1006.3267">SewersUseCaseBridge</text><line style="stroke:#181818;stroke-width:0.5;" x1="1957" x2="2175" y1="1017.48" y2="1017.48"/><line style="stroke:#181818;stroke-width:0.5;" x1="1957" x2="2175" y1="1025.48" y2="1025.48"/><ellipse cx="1967" cy="1039.1284" fill="#84BE84" rx="3" ry="3" style="stroke:#038048;stroke-width:1.0;"/><text fill="#000000" font-family="sans-serif" font-size="14" lengthAdjust="spacing" textLength="194" x="1976" y="1042.4751">Set&lt;Sewer&gt; observe(UUID)</text><ellipse cx="1967" cy="1055.4253" fill="#84BE84" rx="3" ry="3" style="stroke:#038048;stroke-width:1.0;"/><text fill="#000000" font-family="sans-serif" font-size="14" lengthAdjust="spacing" textLength="139" x="1976" y="1058.772">void indicate(Sewer)</text></g><!--link SewerIndicationAdapter to SewerIndicationUseCase--><g id="link_SewerIndicationAdapter_SewerIndicationUseCase"><path codeLine="88" d="M852,148.74 C852,181.82 852,226.74 852,259.83 " fill="none" id="SewerIndicationAdapter-to-SewerIndicationUseCase" style="stroke:#181818;stroke-width:1.0;"/><polygon fill="#181818" points="852,265.83,856,256.83,852,260.83,848,256.83,852,265.83" style="stroke:#181818;stroke-width:1.0;"/></g><!--link SewerObservationAdapter to SewerObservationUseCase--><g id="link_SewerObservationAdapter_SewerObservationUseCase"><path codeLine="89" d="M1732,148.74 C1732,181.82 1732,226.74 1732,259.83 " fill="none" id="SewerObservationAdapter-to-SewerObservationUseCase" style="stroke:#181818;stroke-width:1.0;"/><polygon fill="#181818" points="1732,265.83,1736,256.83,1732,260.83,1728,256.83,1732,265.83" style="stroke:#181818;stroke-width:1.0;"/></g><!--reverse link SewersUseCase to SewersAdapterBridge--><g id="link_SewersUseCase_SewersAdapterBridge"><path codeLine="90" d="M2067,1228.83 C2067,1258.22 2067,1279.72 2067,1309.08 " fill="none" id="SewersUseCase-backto-SewersAdapterBridge" style="stroke:#181818;stroke-width:1.0;stroke-dasharray:7.0,7.0;"/><polygon fill="none" points="2067,1210.83,2061,1228.83,2073,1228.83,2067,1210.83" style="stroke:#181818;stroke-width:1.0;"/></g><!--link SewersAdapterBridge to SewersAdapter--><g id="link_SewersAdapterBridge_SewersAdapter"><path codeLine="91" d="M2067,1390.33 C2067,1408.99 2067,1425.05 2067,1443.69 " fill="none" id="SewersAdapterBridge-to-SewersAdapter" style="stroke:#181818;stroke-width:1.0;"/><polygon fill="#181818" points="2067,1449.69,2071,1440.69,2067,1444.69,2063,1440.69,2067,1449.69" style="stroke:#181818;stroke-width:1.0;"/></g><!--link SewerOverflowIndicationService to SewerOverflowIndicationComponent--><g id="link_SewerOverflowIndicationService_SewerOverflowIndicationComponent"><path codeLine="92" d="M852,513.07 C852,531.34 852,548.12 852,566.43 " fill="none" id="SewerOverflowIndicationService-to-SewerOverflowIndicationComponent" style="stroke:#181818;stroke-width:1.0;"/><polygon fill="#181818" points="852,572.43,856,563.43,852,567.43,848,563.43,852,572.43" style="stroke:#181818;stroke-width:1.0;"/></g><!--link SewerOverflowIndicationComponent to Sewers--><g id="link_SewerOverflowIndicationComponent_Sewers"><path codeLine="93" d="M971.5,637.47 C971.5,697.2 971.5,818.56 971.5,818.56 C971.5,818.56 1412.56,818.56 1625.61,818.56 " fill="none" id="SewerOverflowIndicationComponent-to-Sewers" style="stroke:#181818;stroke-width:1.0;"/><polygon fill="#181818" points="1631.61,818.56,1622.61,814.56,1626.61,818.56,1622.61,822.56,1631.61,818.56" style="stroke:#181818;stroke-width:1.0;"/></g><!--link SewerOverflowIndicationComponent to RainIndicationComponent--><g id="link_SewerOverflowIndicationComponent_RainIndicationComponent"><path codeLine="94" d="M920.5,637.63 C920.5,685.41 920.5,767.95 920.5,815.73 " fill="none" id="SewerOverflowIndicationComponent-to-RainIndicationComponent" style="stroke:#181818;stroke-width:1.0;"/><polygon fill="#181818" points="920.5,821.73,924.5,812.73,920.5,816.73,916.5,812.73,920.5,821.73" style="stroke:#181818;stroke-width:1.0;"/></g><!--link SewerOverflowIndicationComponent to PumpIndicationComponent--><g id="link_SewerOverflowIndicationComponent_PumpIndicationComponent"><path codeLine="95" d="M758,637.63 C758,685.41 758,767.95 758,815.73 " fill="none" id="SewerOverflowIndicationComponent-to-PumpIndicationComponent" style="stroke:#181818;stroke-width:1.0;"/><polygon fill="#181818" points="758,821.73,762,812.73,758,816.73,754,812.73,758,821.73" style="stroke:#181818;stroke-width:1.0;"/></g><!--link SewerOverflowIndicationComponent to FlowIndicationComponent--><g id="link_SewerOverflowIndicationComponent_FlowIndicationComponent"><path codeLine="96" d="M681.25,605.56 C515.25,605.56 288,605.56 288,605.56 C288,605.56 288,748.38 288,815.81 " fill="none" id="SewerOverflowIndicationComponent-to-FlowIndicationComponent" style="stroke:#181818;stroke-width:1.0;"/><polygon fill="#181818" points="288,821.81,292,812.81,288,816.81,284,812.81,288,821.81" style="stroke:#181818;stroke-width:1.0;"/></g><!--link SewerObservationService to SewerObservationComponent--><g id="link_SewerObservationService_SewerObservationComponent"><path codeLine="97" d="M1732,513.07 C1732,531.34 1732,548.12 1732,566.43 " fill="none" id="SewerObservationService-to-SewerObservationComponent" style="stroke:#181818;stroke-width:1.0;"/><polygon fill="#181818" points="1732,572.43,1736,563.43,1732,567.43,1728,563.43,1732,572.43" style="stroke:#181818;stroke-width:1.0;"/></g><!--link SewerObservationComponent to Sewers--><g id="link_SewerObservationComponent_Sewers"><path codeLine="98" d="M1742,637.63 C1742,682.9 1742,758.77 1742,807.89 " fill="none" id="SewerObservationComponent-to-Sewers" style="stroke:#181818;stroke-width:1.0;"/><polygon fill="#181818" points="1742,813.89,1746,804.89,1742,808.89,1738,804.89,1742,813.89" style="stroke:#181818;stroke-width:1.0;"/></g><!--link Sewer to Problem--><g id="link_Sewer_Problem"><path codeLine="99" d="M1596.87,854.56 C1601.54,854.56 1604.25,854.56 1604.25,854.56 C1604.25,854.56 1604.25,948.41 1604.25,995.61 " fill="none" id="Sewer-to-Problem" style="stroke:#181818;stroke-width:1.0;"/><polygon fill="#181818" points="1604.25,1001.61,1608.25,992.61,1604.25,996.61,1600.25,992.61,1604.25,1001.61" style="stroke:#181818;stroke-width:1.0;"/></g><!--link Sewer to KeyPerformanceIndicator--><g id="link_Sewer_KeyPerformanceIndicator"><path codeLine="100" d="M1437.25,886.58 C1437.25,919.95 1437.25,965.31 1437.25,995.43 " fill="none" id="Sewer-to-KeyPerformanceIndicator" style="stroke:#181818;stroke-width:1.0;"/><polygon fill="#181818" points="1437.25,1001.43,1441.25,992.43,1437.25,996.43,1433.25,992.43,1437.25,1001.43" style="stroke:#181818;stroke-width:1.0;"/></g><!--link SewerIndicationUseCase to SewerOverflowIndicationService--><g id="link_SewerIndicationUseCase_SewerOverflowIndicationService"><path codeLine="101" d="M852,331.03 C852,364.11 852,409.04 852,442.12 " fill="none" id="SewerIndicationUseCase-to-SewerOverflowIndicationService" style="stroke:#181818;stroke-width:1.0;"/><polygon fill="#181818" points="852,448.12,856,439.12,852,443.12,848,439.12,852,448.12" style="stroke:#181818;stroke-width:1.0;"/></g><!--link SewerObservationUseCase to SewerObservationService--><g id="link_SewerObservationUseCase_SewerObservationService"><path codeLine="102" d="M1732,331.03 C1732,364.11 1732,409.04 1732,442.12 " fill="none" id="SewerObservationUseCase-to-SewerObservationService" style="stroke:#181818;stroke-width:1.0;"/><polygon fill="#181818" points="1732,448.12,1736,439.12,1732,443.12,1728,439.12,1732,448.12" style="stroke:#181818;stroke-width:1.0;"/></g><!--reverse link Sewers to SewersUseCaseBridge--><g id="link_Sewers_SewersUseCaseBridge"><path codeLine="103" d="M1766.75,912.89 C1766.75,954.31 1766.75,994.56 1766.75,994.56 C1766.75,994.56 1870.52,994.56 1955.85,994.56 " fill="none" id="Sewers-backto-SewersUseCaseBridge" style="stroke:#181818;stroke-width:1.0;stroke-dasharray:7.0,7.0;"/><polygon fill="none" points="1766.75,894.89,1760.75,912.89,1772.75,912.89,1766.75,894.89" style="stroke:#181818;stroke-width:1.0;"/></g><!--link SewersUseCaseBridge to SewersUseCase--><g id="link_SewersUseCaseBridge_SewersUseCase"><path codeLine="104" d="M2066,1066.36 C2066,1086.03 2066,1103.6 2066,1123.3 " fill="none" id="SewersUseCaseBridge-to-SewersUseCase" style="stroke:#181818;stroke-width:1.0;"/><polygon fill="#181818" points="2066,1129.3,2070,1120.3,2066,1124.3,2062,1120.3,2066,1129.3" style="stroke:#181818;stroke-width:1.0;"/></g><!--SRC=[tLTRQzim57xthz2SbvQrOemzh50ojev26QDXeSz3jezJBRPa9ALTwFhVvrXEualiEB7ahNqg3T9titHqpfj4a5bCq4B23LCWOWWeKJ0X_fpCGAAGH18SEQSi8OB4AA8Cr381n8Mwvuwyvuz8flk0htvr4hqF1O8-W928I1G0zdcS4BR4YU0gMuSbF8B0wrKZELzwqGBGq_C6WGGaKPqXy6RvwEFxCFG-5A4ylc014Si3eJ1b0VNJCF06O1JH64n0Sq-2UB21dFqiMu3JB_tJ9n8EJHPlDux2y89SN1HHWIcgQ0zGl44OXNuOUEzCX557x_9HVSwKu94DChp67d51s0micTn_lCnvh78DP56l7C9WcQdDNhPbQOqIv_XsBuXUEK_eWE4MsGOCU1Vja26dExq8uW63hZ8E67OJjTN0BJxXMn9xZ_cMe_5PT_o8I8dSwMh1ZRPBEVki8TpUFG_U3OoU78JUFd0QeCpyoLG9ocQdpdD9q6qMJIz5jVUb0LWhceAwlFL-WQ_6DM5qrU26n8TSd3nMKkLZu1AQre6UY2UL8BvwBahApPpStTryFQsioy9Svv-jE4DwNpNLDTKNGOCPc9MlCUjXrfHtbtkRqeSHVzmUecaAHVt3bNTgiTevQmVtEqakzHavG_hlk63WkeHnbGhbBELsRJQ7k86q81r-WxzGPV6VqbyLi43cdw5eOxA8ay5jD93siF63K3QuZGRI7ZOQJkX0VlQnzpQsBSq6x_dUPw1qlrULArimxley6Gs_QIR2ZQmrsUleMvulr_oaeO5tFc6vhkulMBQXchXhUphI5afLNarqwobFLZxoVuh7zXii9scqNCI4-P1V2MvGQykWWHl8KmVRwgqbkqFruZWdB6gej85t4gvIPDTWQuvtKnpUQVRNjhVObBIr59lQdUslRNVtLX9aj_dCgOviFZiQgRQXJTMdeUHO6NdEpyUMpxfZPJ0wNdVNU-2O7Z_m0lyPspXNnfKU6cuhfZFqC7JyqJ3GQ3h_hiKru7jdv_IoBHqy0xrMkmsJwskrUstdVdOUsGoOEtpYSeQVyVxNgjDbe3AclUFiyQ8y7J7VEPQd9Yi5exsRS2mFMpRAH4D9SkoDD7rQMojbe8leuwDlHVyB]--></g></svg>