<svg xmlns="http://www.w3.org/2000/svg" xmlns:xlink="http://www.w3.org/1999/xlink" contentStyleType="text/css" height="1838px" preserveAspectRatio="none" style="width:4111px;height:1838px;background:#FFFFFF;" version="1.1" viewBox="0 0 4111 1838" width="4111px" zoomAndPan="magnify"><defs/><g><!--cluster drivers--><g id="cluster_drivers"><path d="M504,6 L800,6 A3.75,3.75 0 0 1 802.5,8.5 L809.5,28.2969 L2969,28.2969 A2.5,2.5 0 0 1 2971.5,30.7969 L2971.5,1828.55 A2.5,2.5 0 0 1 2969,1831.05 L504,1831.05 A2.5,2.5 0 0 1 501.5,1828.55 L501.5,8.5 A2.5,2.5 0 0 1 504,6 " fill="#87CEEB" style="stroke:#000000;stroke-width:1.5;"/><line style="stroke:#000000;stroke-width:1.5;" x1="501.5" x2="809.5" y1="28.2969" y2="28.2969"/><text fill="#000000" font-family="sans-serif" font-size="14" font-weight="bold" lengthAdjust="spacing" textLength="295" x="505.5" y="20.9951">de.company.prototype.sewer.drivers</text></g><!--cluster adapters--><g id="cluster_adapters"><path d="M544,65 L615,65 A3.75,3.75 0 0 1 617.5,67.5 L624.5,87.2969 L2921,87.2969 A2.5,2.5 0 0 1 2923.5,89.7969 L2923.5,1788.55 A2.5,2.5 0 0 1 2921,1791.05 L544,1791.05 A2.5,2.5 0 0 1 541.5,1788.55 L541.5,67.5 A2.5,2.5 0 0 1 544,65 " fill="#82FFB4" style="stroke:#000000;stroke-width:1.5;"/><line style="stroke:#000000;stroke-width:1.5;" x1="541.5" x2="624.5" y1="87.2969" y2="87.2969"/><text fill="#000000" font-family="sans-serif" font-size="14" font-weight="bold" lengthAdjust="spacing" textLength="70" x="545.5" y="79.9951">adapters</text></g><!--cluster boundary--><g id="cluster_boundary"><path d="M1317,116 L1460,116 A3.75,3.75 0 0 1 1462.5,118.5 L1469.5,138.2969 L1538,138.2969 A2.5,2.5 0 0 1 1540.5,140.7969 L1540.5,228.8 A2.5,2.5 0 0 1 1538,231.3 L1317,231.3 A2.5,2.5 0 0 1 1314.5,228.8 L1314.5,118.5 A2.5,2.5 0 0 1 1317,116 " fill="#00FF00" style="stroke:#000000;stroke-width:1.5;"/><line style="stroke:#000000;stroke-width:1.5;" x1="1314.5" x2="1469.5" y1="138.2969" y2="138.2969"/><text fill="#000000" font-family="sans-serif" font-size="14" font-weight="bold" lengthAdjust="spacing" textLength="142" x="1318.5" y="130.9951">indicate.boundary</text></g><!--cluster boundary--><g id="cluster_boundary"><path d="M2214,116 L2360,116 A3.75,3.75 0 0 1 2362.5,118.5 L2369.5,138.2969 L2453,138.2969 A2.5,2.5 0 0 1 2455.5,140.7969 L2455.5,228.8 A2.5,2.5 0 0 1 2453,231.3 L2214,231.3 A2.5,2.5 0 0 1 2211.5,228.8 L2211.5,118.5 A2.5,2.5 0 0 1 2214,116 " fill="#00FF00" style="stroke:#000000;stroke-width:1.5;"/><line style="stroke:#000000;stroke-width:1.5;" x1="2211.5" x2="2369.5" y1="138.2969" y2="138.2969"/><text fill="#000000" font-family="sans-serif" font-size="14" font-weight="bold" lengthAdjust="spacing" textLength="145" x="2215.5" y="130.9951">observe.boundary</text></g><!--cluster boundary--><g id="cluster_boundary"><path d="M2584,1486.86 L2724,1486.86 A3.75,3.75 0 0 1 2726.5,1489.36 L2733.5,1509.1569 L2833,1509.1569 A2.5,2.5 0 0 1 2835.5,1511.6569 L2835.5,1756.55 A2.5,2.5 0 0 1 2833,1759.05 L2584,1759.05 A2.5,2.5 0 0 1 2581.5,1756.55 L2581.5,1489.36 A2.5,2.5 0 0 1 2584,1486.86 " fill="#00FF00" style="stroke:#000000;stroke-width:1.5;"/><line style="stroke:#000000;stroke-width:1.5;" x1="2581.5" x2="2733.5" y1="1509.1569" y2="1509.1569"/><text fill="#000000" font-family="sans-serif" font-size="14" font-weight="bold" lengthAdjust="spacing" textLength="139" x="2585.5" y="1501.8551">sewers.boundary</text></g><!--cluster use_cases--><g id="cluster_use_cases"><path d="M584,263.3 L667,263.3 A3.75,3.75 0 0 1 669.5,265.8 L676.5,285.5969 L2873,285.5969 A2.5,2.5 0 0 1 2875.5,288.0969 L2875.5,1452.36 A2.5,2.5 0 0 1 2873,1454.86 L584,1454.86 A2.5,2.5 0 0 1 581.5,1452.36 L581.5,265.8 A2.5,2.5 0 0 1 584,263.3 " fill="#FF9A99" style="stroke:#000000;stroke-width:1.5;"/><line style="stroke:#000000;stroke-width:1.5;" x1="581.5" x2="676.5" y1="285.5969" y2="285.5969"/><text fill="#000000" font-family="sans-serif" font-size="14" font-weight="bold" lengthAdjust="spacing" textLength="82" x="585.5" y="278.2951">use_cases</text></g><!--cluster entities--><g id="cluster_entities"><path d="M624,461.6 L684,461.6 A3.75,3.75 0 0 1 686.5,464.1 L693.5,483.8969 L2547,483.8969 A2.5,2.5 0 0 1 2549.5,486.3969 L2549.5,1299.77 A2.5,2.5 0 0 1 2547,1302.27 L624,1302.27 A2.5,2.5 0 0 1 621.5,1299.77 L621.5,464.1 A2.5,2.5 0 0 1 624,461.6 " fill="#FCFDB0" style="stroke:#000000;stroke-width:1.5;"/><line style="stroke:#000000;stroke-width:1.5;" x1="621.5" x2="693.5" y1="483.8969" y2="483.8969"/><text fill="#000000" font-family="sans-serif" font-size="14" font-weight="bold" lengthAdjust="spacing" textLength="59" x="625.5" y="476.5951">entities</text></g><!--cluster boundary--><g id="cluster_boundary"><path d="M656,512.6 L799,512.6 A3.75,3.75 0 0 1 801.5,515.1 L808.5,534.8969 L1823,534.8969 A2.5,2.5 0 0 1 1825.5,537.3969 L1825.5,1047.43 A2.5,2.5 0 0 1 1823,1049.93 L656,1049.93 A2.5,2.5 0 0 1 653.5,1047.43 L653.5,515.1 A2.5,2.5 0 0 1 656,512.6 " fill="#00FF00" style="stroke:#000000;stroke-width:1.5;"/><line style="stroke:#000000;stroke-width:1.5;" x1="653.5" x2="808.5" y1="534.8969" y2="534.8969"/><text fill="#000000" font-family="sans-serif" font-size="14" font-weight="bold" lengthAdjust="spacing" textLength="142" x="657.5" y="527.5951">indicate.boundary</text></g><!--cluster control--><g id="cluster_control"><path d="M680,636.89 L737,636.89 A3.75,3.75 0 0 1 739.5,639.39 L746.5,659.1869 L1799,659.1869 A2.5,2.5 0 0 1 1801.5,661.6869 L1801.5,1023.43 A2.5,2.5 0 0 1 1799,1025.93 L680,1025.93 A2.5,2.5 0 0 1 677.5,1023.43 L677.5,639.39 A2.5,2.5 0 0 1 680,636.89 " fill="#FFA500" style="stroke:#000000;stroke-width:1.5;"/><line style="stroke:#000000;stroke-width:1.5;" x1="677.5" x2="746.5" y1="659.1869" y2="659.1869"/><text fill="#000000" font-family="sans-serif" font-size="14" font-weight="bold" lengthAdjust="spacing" textLength="56" x="681.5" y="651.8851">control</text></g><!--cluster boundary--><g id="cluster_boundary"><path d="M2176,512.6 L2322,512.6 A3.75,3.75 0 0 1 2324.5,515.1 L2331.5,534.8969 L2491,534.8969 A2.5,2.5 0 0 1 2493.5,537.3969 L2493.5,773.69 A2.5,2.5 0 0 1 2491,776.19 L2176,776.19 A2.5,2.5 0 0 1 2173.5,773.69 L2173.5,515.1 A2.5,2.5 0 0 1 2176,512.6 " fill="#00FF00" style="stroke:#000000;stroke-width:1.5;"/><line style="stroke:#000000;stroke-width:1.5;" x1="2173.5" x2="2331.5" y1="534.8969" y2="534.8969"/><text fill="#000000" font-family="sans-serif" font-size="14" font-weight="bold" lengthAdjust="spacing" textLength="145" x="2177.5" y="527.5951">observe.boundary</text></g><!--cluster control--><g id="cluster_control"><path d="M2200,636.89 L2257,636.89 A3.75,3.75 0 0 1 2259.5,639.39 L2266.5,659.1869 L2467,659.1869 A2.5,2.5 0 0 1 2469.5,661.6869 L2469.5,749.69 A2.5,2.5 0 0 1 2467,752.19 L2200,752.19 A2.5,2.5 0 0 1 2197.5,749.69 L2197.5,639.39 A2.5,2.5 0 0 1 2200,636.89 " fill="#FFA500" style="stroke:#000000;stroke-width:1.5;"/><line style="stroke:#000000;stroke-width:1.5;" x1="2197.5" x2="2266.5" y1="659.1869" y2="659.1869"/><text fill="#000000" font-family="sans-serif" font-size="14" font-weight="bold" lengthAdjust="spacing" textLength="56" x="2201.5" y="651.8851">control</text></g><!--cluster sewer--><g id="cluster_sewer"><path d="M1852,800.19 L1903,800.19 A3.75,3.75 0 0 1 1905.5,802.69 L1912.5,822.4869 L2507,822.4869 A2.5,2.5 0 0 1 2509.5,824.9869 L2509.5,1267.77 A2.5,2.5 0 0 1 2507,1270.27 L1852,1270.27 A2.5,2.5 0 0 1 1849.5,1267.77 L1849.5,802.69 A2.5,2.5 0 0 1 1852,800.19 " fill="none" style="stroke:#000000;stroke-width:1.5;"/><line style="stroke:#000000;stroke-width:1.5;" x1="1849.5" x2="1912.5" y1="822.4869" y2="822.4869"/><text fill="#000000" font-family="sans-serif" font-size="14" font-weight="bold" lengthAdjust="spacing" textLength="50" x="1853.5" y="815.1851">sewer</text></g><!--cluster boundary--><g id="cluster_boundary"><path d="M1892,843.19 L1968,843.19 A3.75,3.75 0 0 1 1970.5,845.69 L1977.5,865.4869 L2457,865.4869 A2.5,2.5 0 0 1 2459.5,867.9869 L2459.5,1071.88 A2.5,2.5 0 0 1 2457,1074.38 L1892,1074.38 A2.5,2.5 0 0 1 1889.5,1071.88 L1889.5,845.69 A2.5,2.5 0 0 1 1892,843.19 " fill="#00FF00" style="stroke:#000000;stroke-width:1.5;"/><line style="stroke:#000000;stroke-width:1.5;" x1="1889.5" x2="1977.5" y1="865.4869" y2="865.4869"/><text fill="#000000" font-family="sans-serif" font-size="14" font-weight="bold" lengthAdjust="spacing" textLength="75" x="1893.5" y="858.1851">boundary</text></g><!--cluster entity--><g id="cluster_entity"><path d="M1916,886.19 L2023,886.19 A3.75,3.75 0 0 1 2025.5,888.69 L2032.5,908.4869 L2201,908.4869 A2.5,2.5 0 0 1 2203.5,910.9869 L2203.5,1047.88 A2.5,2.5 0 0 1 2201,1050.38 L1916,1050.38 A2.5,2.5 0 0 1 1913.5,1047.88 L1913.5,888.69 A2.5,2.5 0 0 1 1916,886.19 " fill="#FCFDB0" style="stroke:#000000;stroke-width:1.5;"/><line style="stroke:#000000;stroke-width:1.5;" x1="1913.5" x2="2032.5" y1="908.4869" y2="908.4869"/><text fill="#000000" font-family="sans-serif" font-size="14" font-weight="bold" lengthAdjust="spacing" textLength="106" x="1917.5" y="901.1851">control.entity</text></g><!--cluster entity--><g id="cluster_entity"><path d="M1876,1098.38 L2091,1098.38 A3.75,3.75 0 0 1 2093.5,1100.88 L2100.5,1120.6769 L2183,1120.6769 A2.5,2.5 0 0 1 2185.5,1123.1769 L2185.5,1243.77 A2.5,2.5 0 0 1 2183,1246.27 L1876,1246.27 A2.5,2.5 0 0 1 1873.5,1243.77 L1873.5,1100.88 A2.5,2.5 0 0 1 1876,1098.38 " fill="#FCFDB0" style="stroke:#000000;stroke-width:1.5;"/><line style="stroke:#000000;stroke-width:1.5;" x1="1873.5" x2="2100.5" y1="1120.6769" y2="1120.6769"/><text fill="#000000" font-family="sans-serif" font-size="14" font-weight="bold" lengthAdjust="spacing" textLength="214" x="1877.5" y="1113.3751">kpi.boundary.control.entity</text></g><!--cluster entity--><g id="cluster_entity"><path d="M2212,1106.53 L2469,1106.53 A3.75,3.75 0 0 1 2471.5,1109.03 L2478.5,1128.8269 L2483,1128.8269 A2.5,2.5 0 0 1 2485.5,1131.3269 L2485.5,1235.62 A2.5,2.5 0 0 1 2483,1238.12 L2212,1238.12 A2.5,2.5 0 0 1 2209.5,1235.62 L2209.5,1109.03 A2.5,2.5 0 0 1 2212,1106.53 " fill="#FCFDB0" style="stroke:#000000;stroke-width:1.5;"/><line style="stroke:#000000;stroke-width:1.5;" x1="2209.5" x2="2478.5" y1="1128.8269" y2="1128.8269"/><text fill="#000000" font-family="sans-serif" font-size="14" font-weight="bold" lengthAdjust="spacing" textLength="256" x="2213.5" y="1121.5251">problem.boundary.control.entity</text></g><!--cluster boundary--><g id="cluster_boundary"><path d="M1290,314.3 L1433,314.3 A3.75,3.75 0 0 1 1435.5,316.8 L1442.5,336.5969 L1565,336.5969 A2.5,2.5 0 0 1 1567.5,339.0969 L1567.5,427.1 A2.5,2.5 0 0 1 1565,429.6 L1290,429.6 A2.5,2.5 0 0 1 1287.5,427.1 L1287.5,316.8 A2.5,2.5 0 0 1 1290,314.3 " fill="#00FF00" style="stroke:#000000;stroke-width:1.5;"/><line style="stroke:#000000;stroke-width:1.5;" x1="1287.5" x2="1442.5" y1="336.5969" y2="336.5969"/><text fill="#000000" font-family="sans-serif" font-size="14" font-weight="bold" lengthAdjust="spacing" textLength="142" x="1291.5" y="329.2951">indicate.boundary</text></g><!--cluster boundary--><g id="cluster_boundary"><path d="M2210,314.3 L2356,314.3 A3.75,3.75 0 0 1 2358.5,316.8 L2365.5,336.5969 L2457,336.5969 A2.5,2.5 0 0 1 2459.5,339.0969 L2459.5,427.1 A2.5,2.5 0 0 1 2457,429.6 L2210,429.6 A2.5,2.5 0 0 1 2207.5,427.1 L2207.5,316.8 A2.5,2.5 0 0 1 2210,314.3 " fill="#00FF00" style="stroke:#000000;stroke-width:1.5;"/><line style="stroke:#000000;stroke-width:1.5;" x1="2207.5" x2="2365.5" y1="336.5969" y2="336.5969"/><text fill="#000000" font-family="sans-serif" font-size="14" font-weight="bold" lengthAdjust="spacing" textLength="145" x="2211.5" y="329.2951">observe.boundary</text></g><!--cluster boundary--><g id="cluster_boundary"><path d="M2584,1106.53 L2724,1106.53 A3.75,3.75 0 0 1 2726.5,1109.03 L2733.5,1128.8269 L2833,1128.8269 A2.5,2.5 0 0 1 2835.5,1131.3269 L2835.5,1420.36 A2.5,2.5 0 0 1 2833,1422.86 L2584,1422.86 A2.5,2.5 0 0 1 2581.5,1420.36 L2581.5,1109.03 A2.5,2.5 0 0 1 2584,1106.53 " fill="#00FF00" style="stroke:#000000;stroke-width:1.5;"/><line style="stroke:#000000;stroke-width:1.5;" x1="2581.5" x2="2733.5" y1="1128.8269" y2="1128.8269"/><text fill="#000000" font-family="sans-serif" font-size="14" font-weight="bold" lengthAdjust="spacing" textLength="139" x="2585.5" y="1121.5251">sewers.boundary</text></g><!--class SewerIndicationAdapter--><g id="elem_SewerIndicationAdapter"><rect codeLine="28" fill="#F1F1F1" height="64.2969" id="SewerIndicationAdapter" rx="2.5" ry="2.5" style="stroke:#181818;stroke-width:0.5;" width="195" x="1330" y="151"/><ellipse cx="1345" cy="167" fill="#ADD1B2" rx="11" ry="11" style="stroke:#181818;stroke-width:1.0;"/><path d="M1347.9688,172.6406 Q1347.3906,172.9375 1346.75,173.0781 Q1346.1094,173.2344 1345.4063,173.2344 Q1342.9063,173.2344 1341.5781,171.5938 Q1340.2656,169.9375 1340.2656,166.8125 Q1340.2656,163.6875 1341.5781,162.0313 Q1342.9063,160.375 1345.4063,160.375 Q1346.1094,160.375 1346.75,160.5313 Q1347.4063,160.6875 1347.9688,160.9844 L1347.9688,163.7031 Q1347.3438,163.125 1346.75,162.8594 Q1346.1563,162.5781 1345.5313,162.5781 Q1344.1875,162.5781 1343.5,163.6563 Q1342.8125,164.7188 1342.8125,166.8125 Q1342.8125,168.9063 1343.5,169.9844 Q1344.1875,171.0469 1345.5313,171.0469 Q1346.1563,171.0469 1346.75,170.7813 Q1347.3438,170.5 1347.9688,169.9219 L1347.9688,172.6406 Z " fill="#000000"/><text fill="#000000" font-family="sans-serif" font-size="14" lengthAdjust="spacing" textLength="163" x="1359" y="171.8467">SewerIndicationAdapter</text><line style="stroke:#181818;stroke-width:0.5;" x1="1331" x2="1524" y1="183" y2="183"/><line style="stroke:#181818;stroke-width:0.5;" x1="1331" x2="1524" y1="191" y2="191"/><ellipse cx="1341" cy="204.6484" fill="#84BE84" rx="3" ry="3" style="stroke:#038048;stroke-width:1.0;"/><text fill="#000000" font-family="sans-serif" font-size="14" lengthAdjust="spacing" textLength="120" x="1350" y="207.9951">void serve(String)</text></g><!--class SewerObservationAdapter--><g id="elem_SewerObservationAdapter"><rect codeLine="31" fill="#F1F1F1" height="64.2969" id="SewerObservationAdapter" rx="2.5" ry="2.5" style="stroke:#181818;stroke-width:0.5;" width="212" x="2227.5" y="151"/><ellipse cx="2242.5" cy="167" fill="#ADD1B2" rx="11" ry="11" style="stroke:#181818;stroke-width:1.0;"/><path d="M2245.4688,172.6406 Q2244.8906,172.9375 2244.25,173.0781 Q2243.6094,173.2344 2242.9063,173.2344 Q2240.4063,173.2344 2239.0781,171.5938 Q2237.7656,169.9375 2237.7656,166.8125 Q2237.7656,163.6875 2239.0781,162.0313 Q2240.4063,160.375 2242.9063,160.375 Q2243.6094,160.375 2244.25,160.5313 Q2244.9063,160.6875 2245.4688,160.9844 L2245.4688,163.7031 Q2244.8438,163.125 2244.25,162.8594 Q2243.6563,162.5781 2243.0313,162.5781 Q2241.6875,162.5781 2241,163.6563 Q2240.3125,164.7188 2240.3125,166.8125 Q2240.3125,168.9063 2241,169.9844 Q2241.6875,171.0469 2243.0313,171.0469 Q2243.6563,171.0469 2244.25,170.7813 Q2244.8438,170.5 2245.4688,169.9219 L2245.4688,172.6406 Z " fill="#000000"/><text fill="#000000" font-family="sans-serif" font-size="14" lengthAdjust="spacing" textLength="180" x="2256.5" y="171.8467">SewerObservationAdapter</text><line style="stroke:#181818;stroke-width:0.5;" x1="2228.5" x2="2438.5" y1="183" y2="183"/><line style="stroke:#181818;stroke-width:0.5;" x1="2228.5" x2="2438.5" y1="191" y2="191"/><ellipse cx="2238.5" cy="204.6484" fill="#84BE84" rx="3" ry="3" style="stroke:#038048;stroke-width:1.0;"/><text fill="#000000" font-family="sans-serif" font-size="14" lengthAdjust="spacing" textLength="184" x="2247.5" y="207.9951">Set&lt;Object&gt; serve(String)</text></g><!--class SewersAdapter--><g id="elem_SewersAdapter"><rect codeLine="34" fill="#F1F1F1" height="80.5938" id="SewersAdapter" rx="2.5" ry="2.5" style="stroke:#181818;stroke-width:0.5;" width="222" x="2597.5" y="1662.46"/><ellipse cx="2651.75" cy="1678.46" fill="#B4A7E5" rx="11" ry="11" style="stroke:#181818;stroke-width:1.0;"/><path d="M2647.6719,1674.2256 L2647.6719,1672.0694 L2655.0625,1672.0694 L2655.0625,1674.2256 L2652.5938,1674.2256 L2652.5938,1682.3038 L2655.0625,1682.3038 L2655.0625,1684.46 L2647.6719,1684.46 L2647.6719,1682.3038 L2650.1406,1682.3038 L2650.1406,1674.2256 L2647.6719,1674.2256 Z " fill="#000000"/><text fill="#000000" font-family="sans-serif" font-size="14" font-style="italic" lengthAdjust="spacing" textLength="105" x="2672.25" y="1683.3067">SewersAdapter</text><line style="stroke:#181818;stroke-width:0.5;" x1="2598.5" x2="2818.5" y1="1694.46" y2="1694.46"/><line style="stroke:#181818;stroke-width:0.5;" x1="2598.5" x2="2818.5" y1="1702.46" y2="1702.46"/><ellipse cx="2608.5" cy="1716.1084" fill="#84BE84" rx="3" ry="3" style="stroke:#038048;stroke-width:1.0;"/><text fill="#000000" font-family="sans-serif" font-size="14" font-style="italic" lengthAdjust="spacing" textLength="196" x="2617.5" y="1719.4551">Set&lt;Object&gt; observe(UUID)</text><ellipse cx="2608.5" cy="1732.4053" fill="#84BE84" rx="3" ry="3" style="stroke:#038048;stroke-width:1.0;"/><text fill="#000000" font-family="sans-serif" font-size="14" font-style="italic" lengthAdjust="spacing" textLength="183" x="2617.5" y="1735.752">void indicate(UUID, Object)</text></g><!--class SewersAdapterBridge--><g id="elem_SewersAdapterBridge"><rect codeLine="38" fill="#F1F1F1" height="80.5938" id="SewersAdapterBridge" rx="2.5" ry="2.5" style="stroke:#181818;stroke-width:0.5;" width="222" x="2597.5" y="1521.86"/><ellipse cx="2630.5" cy="1537.86" fill="#ADD1B2" rx="11" ry="11" style="stroke:#181818;stroke-width:1.0;"/><path d="M2633.4688,1543.5006 Q2632.8906,1543.7975 2632.25,1543.9381 Q2631.6094,1544.0944 2630.9063,1544.0944 Q2628.4063,1544.0944 2627.0781,1542.4538 Q2625.7656,1540.7975 2625.7656,1537.6725 Q2625.7656,1534.5475 2627.0781,1532.8913 Q2628.4063,1531.235 2630.9063,1531.235 Q2631.6094,1531.235 2632.25,1531.3913 Q2632.9063,1531.5475 2633.4688,1531.8444 L2633.4688,1534.5631 Q2632.8438,1533.985 2632.25,1533.7194 Q2631.6563,1533.4381 2631.0313,1533.4381 Q2629.6875,1533.4381 2629,1534.5163 Q2628.3125,1535.5788 2628.3125,1537.6725 Q2628.3125,1539.7663 2629,1540.8444 Q2629.6875,1541.9069 2631.0313,1541.9069 Q2631.6563,1541.9069 2632.25,1541.6413 Q2632.8438,1541.36 2633.4688,1540.7819 L2633.4688,1543.5006 Z " fill="#000000"/><text fill="#000000" font-family="sans-serif" font-size="14" lengthAdjust="spacing" textLength="150" x="2648.5" y="1542.7067">SewersAdapterBridge</text><line style="stroke:#181818;stroke-width:0.5;" x1="2598.5" x2="2818.5" y1="1553.86" y2="1553.86"/><line style="stroke:#181818;stroke-width:0.5;" x1="2598.5" x2="2818.5" y1="1561.86" y2="1561.86"/><ellipse cx="2608.5" cy="1575.5084" fill="#84BE84" rx="3" ry="3" style="stroke:#038048;stroke-width:1.0;"/><text fill="#000000" font-family="sans-serif" font-size="14" lengthAdjust="spacing" textLength="196" x="2617.5" y="1578.8551">Set&lt;Object&gt; observe(UUID)</text><ellipse cx="2608.5" cy="1591.8053" fill="#84BE84" rx="3" ry="3" style="stroke:#038048;stroke-width:1.0;"/><text fill="#000000" font-family="sans-serif" font-size="14" lengthAdjust="spacing" textLength="183" x="2617.5" y="1595.152">void indicate(UUID, Object)</text></g><!--class SewerOverflowIndicationService--><g id="elem_SewerOverflowIndicationService"><rect codeLine="42" fill="#F1F1F1" height="64.2969" id="SewerOverflowIndicationService" rx="2.5" ry="2.5" style="stroke:#181818;stroke-width:0.5;" width="250" x="1302.5" y="547.6"/><ellipse cx="1317.5" cy="563.6" fill="#ADD1B2" rx="11" ry="11" style="stroke:#181818;stroke-width:1.0;"/><path d="M1320.4688,569.2406 Q1319.8906,569.5375 1319.25,569.6781 Q1318.6094,569.8344 1317.9063,569.8344 Q1315.4063,569.8344 1314.0781,568.1937 Q1312.7656,566.5375 1312.7656,563.4125 Q1312.7656,560.2875 1314.0781,558.6312 Q1315.4063,556.975 1317.9063,556.975 Q1318.6094,556.975 1319.25,557.1312 Q1319.9063,557.2875 1320.4688,557.5844 L1320.4688,560.3031 Q1319.8438,559.725 1319.25,559.4594 Q1318.6563,559.1781 1318.0313,559.1781 Q1316.6875,559.1781 1316,560.2562 Q1315.3125,561.3187 1315.3125,563.4125 Q1315.3125,565.5062 1316,566.5844 Q1316.6875,567.6469 1318.0313,567.6469 Q1318.6563,567.6469 1319.25,567.3812 Q1319.8438,567.1 1320.4688,566.5219 L1320.4688,569.2406 Z " fill="#000000"/><text fill="#000000" font-family="sans-serif" font-size="14" lengthAdjust="spacing" textLength="218" x="1331.5" y="568.4467">SewerOverflowIndicationService</text><line style="stroke:#181818;stroke-width:0.5;" x1="1303.5" x2="1551.5" y1="579.6" y2="579.6"/><line style="stroke:#181818;stroke-width:0.5;" x1="1303.5" x2="1551.5" y1="587.6" y2="587.6"/><ellipse cx="1313.5" cy="601.2484" fill="#84BE84" rx="3" ry="3" style="stroke:#038048;stroke-width:1.0;"/><text fill="#000000" font-family="sans-serif" font-size="14" lengthAdjust="spacing" textLength="221" x="1322.5" y="604.5951">void serve(Map&lt;String, String&gt;)</text></g><!--class FlowIndicationComponent--><g id="elem_FlowIndicationComponent"><rect codeLine="45" fill="#F1F1F1" height="64.2969" id="FlowIndicationComponent" rx="2.5" ry="2.5" style="stroke:#181818;stroke-width:0.5;" width="341" x="693" y="945.64"/><ellipse cx="769.75" cy="961.64" fill="#ADD1B2" rx="11" ry="11" style="stroke:#181818;stroke-width:1.0;"/><path d="M772.7188,967.2806 Q772.1406,967.5775 771.5,967.7181 Q770.8594,967.8744 770.1563,967.8744 Q767.6563,967.8744 766.3281,966.2338 Q765.0156,964.5775 765.0156,961.4525 Q765.0156,958.3275 766.3281,956.6713 Q767.6563,955.015 770.1563,955.015 Q770.8594,955.015 771.5,955.1713 Q772.1563,955.3275 772.7188,955.6244 L772.7188,958.3431 Q772.0938,957.765 771.5,957.4994 Q770.9063,957.2181 770.2813,957.2181 Q768.9375,957.2181 768.25,958.2963 Q767.5625,959.3588 767.5625,961.4525 Q767.5625,963.5463 768.25,964.6244 Q768.9375,965.6869 770.2813,965.6869 Q770.9063,965.6869 771.5,965.4213 Q772.0938,965.14 772.7188,964.5619 L772.7188,967.2806 Z " fill="#000000"/><text fill="#000000" font-family="sans-serif" font-size="14" lengthAdjust="spacing" textLength="179" x="790.25" y="966.4867">FlowIndicationComponent</text><line style="stroke:#181818;stroke-width:0.5;" x1="694" x2="1033" y1="977.64" y2="977.64"/><line style="stroke:#181818;stroke-width:0.5;" x1="694" x2="1033" y1="985.64" y2="985.64"/><ellipse cx="704" cy="999.2884" fill="#84BE84" rx="3" ry="3" style="stroke:#038048;stroke-width:1.0;"/><text fill="#000000" font-family="sans-serif" font-size="14" lengthAdjust="spacing" textLength="315" x="713" y="1002.6351">void execute(Map&lt;String, ? extends Object&gt;)</text></g><!--class PumpIndicationComponent--><g id="elem_PumpIndicationComponent"><rect codeLine="48" fill="#F1F1F1" height="64.2969" id="PumpIndicationComponent" rx="2.5" ry="2.5" style="stroke:#181818;stroke-width:0.5;" width="341" x="1069" y="945.64"/><ellipse cx="1141.25" cy="961.64" fill="#ADD1B2" rx="11" ry="11" style="stroke:#181818;stroke-width:1.0;"/><path d="M1144.2188,967.2806 Q1143.6406,967.5775 1143,967.7181 Q1142.3594,967.8744 1141.6563,967.8744 Q1139.1563,967.8744 1137.8281,966.2338 Q1136.5156,964.5775 1136.5156,961.4525 Q1136.5156,958.3275 1137.8281,956.6713 Q1139.1563,955.015 1141.6563,955.015 Q1142.3594,955.015 1143,955.1713 Q1143.6563,955.3275 1144.2188,955.6244 L1144.2188,958.3431 Q1143.5938,957.765 1143,957.4994 Q1142.4063,957.2181 1141.7813,957.2181 Q1140.4375,957.2181 1139.75,958.2963 Q1139.0625,959.3588 1139.0625,961.4525 Q1139.0625,963.5463 1139.75,964.6244 Q1140.4375,965.6869 1141.7813,965.6869 Q1142.4063,965.6869 1143,965.4213 Q1143.5938,965.14 1144.2188,964.5619 L1144.2188,967.2806 Z " fill="#000000"/><text fill="#000000" font-family="sans-serif" font-size="14" lengthAdjust="spacing" textLength="188" x="1161.75" y="966.4867">PumpIndicationComponent</text><line style="stroke:#181818;stroke-width:0.5;" x1="1070" x2="1409" y1="977.64" y2="977.64"/><line style="stroke:#181818;stroke-width:0.5;" x1="1070" x2="1409" y1="985.64" y2="985.64"/><ellipse cx="1080" cy="999.2884" fill="#84BE84" rx="3" ry="3" style="stroke:#038048;stroke-width:1.0;"/><text fill="#000000" font-family="sans-serif" font-size="14" lengthAdjust="spacing" textLength="315" x="1089" y="1002.6351">void execute(Map&lt;String, ? extends Object&gt;)</text></g><!--class RainIndicationComponent--><g id="elem_RainIndicationComponent"><rect codeLine="51" fill="#F1F1F1" height="64.2969" id="RainIndicationComponent" rx="2.5" ry="2.5" style="stroke:#181818;stroke-width:0.5;" width="341" x="1445" y="945.64"/><ellipse cx="1522.25" cy="961.64" fill="#ADD1B2" rx="11" ry="11" style="stroke:#181818;stroke-width:1.0;"/><path d="M1525.2188,967.2806 Q1524.6406,967.5775 1524,967.7181 Q1523.3594,967.8744 1522.6563,967.8744 Q1520.1563,967.8744 1518.8281,966.2338 Q1517.5156,964.5775 1517.5156,961.4525 Q1517.5156,958.3275 1518.8281,956.6713 Q1520.1563,955.015 1522.6563,955.015 Q1523.3594,955.015 1524,955.1713 Q1524.6563,955.3275 1525.2188,955.6244 L1525.2188,958.3431 Q1524.5938,957.765 1524,957.4994 Q1523.4063,957.2181 1522.7813,957.2181 Q1521.4375,957.2181 1520.75,958.2963 Q1520.0625,959.3588 1520.0625,961.4525 Q1520.0625,963.5463 1520.75,964.6244 Q1521.4375,965.6869 1522.7813,965.6869 Q1523.4063,965.6869 1524,965.4213 Q1524.5938,965.14 1525.2188,964.5619 L1525.2188,967.2806 Z " fill="#000000"/><text fill="#000000" font-family="sans-serif" font-size="14" lengthAdjust="spacing" textLength="178" x="1542.75" y="966.4867">RainIndicationComponent</text><line style="stroke:#181818;stroke-width:0.5;" x1="1446" x2="1785" y1="977.64" y2="977.64"/><line style="stroke:#181818;stroke-width:0.5;" x1="1446" x2="1785" y1="985.64" y2="985.64"/><ellipse cx="1456" cy="999.2884" fill="#84BE84" rx="3" ry="3" style="stroke:#038048;stroke-width:1.0;"/><text fill="#000000" font-family="sans-serif" font-size="14" lengthAdjust="spacing" textLength="315" x="1465" y="1002.6351">void execute(Map&lt;String, ? extends Object&gt;)</text></g><!--class SewerOverflowIndicationComponent--><g id="elem_SewerOverflowIndicationComponent"><rect codeLine="54" fill="#F1F1F1" height="64.2969" id="SewerOverflowIndicationComponent" rx="2.5" ry="2.5" style="stroke:#181818;stroke-width:0.5;" width="341" x="1257" y="671.89"/><ellipse cx="1298.55" cy="687.89" fill="#ADD1B2" rx="11" ry="11" style="stroke:#181818;stroke-width:1.0;"/><path d="M1301.5188,693.5306 Q1300.9406,693.8275 1300.3,693.9681 Q1299.6594,694.1244 1298.9563,694.1244 Q1296.4563,694.1244 1295.1281,692.4837 Q1293.8156,690.8275 1293.8156,687.7025 Q1293.8156,684.5775 1295.1281,682.9212 Q1296.4563,681.265 1298.9563,681.265 Q1299.6594,681.265 1300.3,681.4212 Q1300.9563,681.5775 1301.5188,681.8744 L1301.5188,684.5931 Q1300.8938,684.015 1300.3,683.7494 Q1299.7063,683.4681 1299.0813,683.4681 Q1297.7375,683.4681 1297.05,684.5462 Q1296.3625,685.6087 1296.3625,687.7025 Q1296.3625,689.7962 1297.05,690.8744 Q1297.7375,691.9369 1299.0813,691.9369 Q1299.7063,691.9369 1300.3,691.6712 Q1300.8938,691.39 1301.5188,690.8119 L1301.5188,693.5306 Z " fill="#000000"/><text fill="#000000" font-family="sans-serif" font-size="14" lengthAdjust="spacing" textLength="250" x="1318.45" y="692.7367">SewerOverflowIndicationComponent</text><line style="stroke:#181818;stroke-width:0.5;" x1="1258" x2="1597" y1="703.89" y2="703.89"/><line style="stroke:#181818;stroke-width:0.5;" x1="1258" x2="1597" y1="711.89" y2="711.89"/><ellipse cx="1268" cy="725.5384" fill="#84BE84" rx="3" ry="3" style="stroke:#038048;stroke-width:1.0;"/><text fill="#000000" font-family="sans-serif" font-size="14" lengthAdjust="spacing" textLength="315" x="1277" y="728.8851">void execute(Map&lt;String, ? extends Object&gt;)</text></g><!--class SewerObservationService--><g id="elem_SewerObservationService"><rect codeLine="57" fill="#F1F1F1" height="64.2969" id="SewerObservationService" rx="2.5" ry="2.5" style="stroke:#181818;stroke-width:0.5;" width="208" x="2229.5" y="547.6"/><ellipse cx="2244.5" cy="563.6" fill="#ADD1B2" rx="11" ry="11" style="stroke:#181818;stroke-width:1.0;"/><path d="M2247.4688,569.2406 Q2246.8906,569.5375 2246.25,569.6781 Q2245.6094,569.8344 2244.9063,569.8344 Q2242.4063,569.8344 2241.0781,568.1937 Q2239.7656,566.5375 2239.7656,563.4125 Q2239.7656,560.2875 2241.0781,558.6312 Q2242.4063,556.975 2244.9063,556.975 Q2245.6094,556.975 2246.25,557.1312 Q2246.9063,557.2875 2247.4688,557.5844 L2247.4688,560.3031 Q2246.8438,559.725 2246.25,559.4594 Q2245.6563,559.1781 2245.0313,559.1781 Q2243.6875,559.1781 2243,560.2562 Q2242.3125,561.3187 2242.3125,563.4125 Q2242.3125,565.5062 2243,566.5844 Q2243.6875,567.6469 2245.0313,567.6469 Q2245.6563,567.6469 2246.25,567.3812 Q2246.8438,567.1 2247.4688,566.5219 L2247.4688,569.2406 Z " fill="#000000"/><text fill="#000000" font-family="sans-serif" font-size="14" lengthAdjust="spacing" textLength="176" x="2258.5" y="568.4467">SewerObservationService</text><line style="stroke:#181818;stroke-width:0.5;" x1="2230.5" x2="2436.5" y1="579.6" y2="579.6"/><line style="stroke:#181818;stroke-width:0.5;" x1="2230.5" x2="2436.5" y1="587.6" y2="587.6"/><ellipse cx="2240.5" cy="601.2484" fill="#84BE84" rx="3" ry="3" style="stroke:#038048;stroke-width:1.0;"/><text fill="#000000" font-family="sans-serif" font-size="14" lengthAdjust="spacing" textLength="182" x="2249.5" y="604.5951">Set&lt;Sewer&gt; serve(String)</text></g><!--class SewerObservationComponent--><g id="elem_SewerObservationComponent"><rect codeLine="60" fill="#F1F1F1" height="64.2969" id="SewerObservationComponent" rx="2.5" ry="2.5" style="stroke:#181818;stroke-width:0.5;" width="240" x="2213.5" y="671.89"/><ellipse cx="2228.5" cy="687.89" fill="#ADD1B2" rx="11" ry="11" style="stroke:#181818;stroke-width:1.0;"/><path d="M2231.4688,693.5306 Q2230.8906,693.8275 2230.25,693.9681 Q2229.6094,694.1244 2228.9063,694.1244 Q2226.4063,694.1244 2225.0781,692.4837 Q2223.7656,690.8275 2223.7656,687.7025 Q2223.7656,684.5775 2225.0781,682.9212 Q2226.4063,681.265 2228.9063,681.265 Q2229.6094,681.265 2230.25,681.4212 Q2230.9063,681.5775 2231.4688,681.8744 L2231.4688,684.5931 Q2230.8438,684.015 2230.25,683.7494 Q2229.6563,683.4681 2229.0313,683.4681 Q2227.6875,683.4681 2227,684.5462 Q2226.3125,685.6087 2226.3125,687.7025 Q2226.3125,689.7962 2227,690.8744 Q2227.6875,691.9369 2229.0313,691.9369 Q2229.6563,691.9369 2230.25,691.6712 Q2230.8438,691.39 2231.4688,690.8119 L2231.4688,693.5306 Z " fill="#000000"/><text fill="#000000" font-family="sans-serif" font-size="14" lengthAdjust="spacing" textLength="208" x="2242.5" y="692.7367">SewerObservationComponent</text><line style="stroke:#181818;stroke-width:0.5;" x1="2214.5" x2="2452.5" y1="703.89" y2="703.89"/><line style="stroke:#181818;stroke-width:0.5;" x1="2214.5" x2="2452.5" y1="711.89" y2="711.89"/><ellipse cx="2224.5" cy="725.5384" fill="#84BE84" rx="3" ry="3" style="stroke:#038048;stroke-width:1.0;"/><text fill="#000000" font-family="sans-serif" font-size="14" lengthAdjust="spacing" textLength="200" x="2233.5" y="728.8851">Set&lt;Sewer&gt; execute(String)</text></g><!--class Sewers--><g id="elem_Sewers"><rect codeLine="63" fill="#F1F1F1" height="80.5938" id="Sewers" rx="2.5" ry="2.5" style="stroke:#181818;stroke-width:0.5;" width="220" x="2223.5" y="937.49"/><ellipse cx="2303.75" cy="953.49" fill="#B4A7E5" rx="11" ry="11" style="stroke:#181818;stroke-width:1.0;"/><path d="M2299.6719,949.2556 L2299.6719,947.0994 L2307.0625,947.0994 L2307.0625,949.2556 L2304.5938,949.2556 L2304.5938,957.3338 L2307.0625,957.3338 L2307.0625,959.49 L2299.6719,959.49 L2299.6719,957.3338 L2302.1406,957.3338 L2302.1406,949.2556 L2299.6719,949.2556 Z " fill="#000000"/><text fill="#000000" font-family="sans-serif" font-size="14" font-style="italic" lengthAdjust="spacing" textLength="51" x="2324.25" y="958.3367">Sewers</text><line style="stroke:#181818;stroke-width:0.5;" x1="2224.5" x2="2442.5" y1="969.49" y2="969.49"/><line style="stroke:#181818;stroke-width:0.5;" x1="2224.5" x2="2442.5" y1="977.49" y2="977.49"/><ellipse cx="2234.5" cy="991.1384" fill="#84BE84" rx="3" ry="3" style="stroke:#038048;stroke-width:1.0;"/><text fill="#000000" font-family="sans-serif" font-size="14" font-style="italic" lengthAdjust="spacing" textLength="194" x="2243.5" y="994.4851">Set&lt;Sewer&gt; observe(UUID)</text><ellipse cx="2234.5" cy="1007.4353" fill="#84BE84" rx="3" ry="3" style="stroke:#038048;stroke-width:1.0;"/><text fill="#000000" font-family="sans-serif" font-size="14" font-style="italic" lengthAdjust="spacing" textLength="139" x="2243.5" y="1010.782">void indicate(Sewer)</text></g><!--class Sewer--><g id="elem_Sewer"><rect codeLine="67" fill="#F1F1F1" height="113.1875" id="Sewer" rx="2.5" ry="2.5" style="stroke:#181818;stroke-width:0.5;" width="259" x="1929" y="921.19"/><ellipse cx="2032.75" cy="937.19" fill="#ADD1B2" rx="11" ry="11" style="stroke:#181818;stroke-width:1.0;"/><path d="M2035.7188,942.8306 Q2035.1406,943.1275 2034.5,943.2681 Q2033.8594,943.4244 2033.1563,943.4244 Q2030.6563,943.4244 2029.3281,941.7837 Q2028.0156,940.1275 2028.0156,937.0025 Q2028.0156,933.8775 2029.3281,932.2212 Q2030.6563,930.565 2033.1563,930.565 Q2033.8594,930.565 2034.5,930.7212 Q2035.1563,930.8775 2035.7188,931.1744 L2035.7188,933.8931 Q2035.0938,933.315 2034.5,933.0494 Q2033.9063,932.7681 2033.2813,932.7681 Q2031.9375,932.7681 2031.25,933.8462 Q2030.5625,934.9087 2030.5625,937.0025 Q2030.5625,939.0962 2031.25,940.1744 Q2031.9375,941.2369 2033.2813,941.2369 Q2033.9063,941.2369 2034.5,940.9712 Q2035.0938,940.69 2035.7188,940.1119 L2035.7188,942.8306 Z " fill="#000000"/><text fill="#000000" font-family="sans-serif" font-size="14" lengthAdjust="spacing" textLength="43" x="2053.25" y="942.0367">Sewer</text><line style="stroke:#181818;stroke-width:0.5;" x1="1930" x2="2187" y1="953.19" y2="953.19"/><line style="stroke:#181818;stroke-width:0.5;" x1="1930" x2="2187" y1="961.19" y2="961.19"/><ellipse cx="1940" cy="974.8384" fill="#84BE84" rx="3" ry="3" style="stroke:#038048;stroke-width:1.0;"/><text fill="#000000" font-family="sans-serif" font-size="14" lengthAdjust="spacing" textLength="83" x="1949" y="978.1851">UUID getId()</text><ellipse cx="1940" cy="991.1353" fill="#84BE84" rx="3" ry="3" style="stroke:#038048;stroke-width:1.0;"/><text fill="#000000" font-family="sans-serif" font-size="14" lengthAdjust="spacing" textLength="230" x="1949" y="994.482">KeyPerformanceIndicator getKpi()</text><ellipse cx="1940" cy="1007.4322" fill="#84BE84" rx="3" ry="3" style="stroke:#038048;stroke-width:1.0;"/><text fill="#000000" font-family="sans-serif" font-size="14" lengthAdjust="spacing" textLength="206" x="1949" y="1010.7789">Set&lt;Problem&gt; getProblems()</text><ellipse cx="1940" cy="1023.7291" fill="#84BE84" rx="3" ry="3" style="stroke:#038048;stroke-width:1.0;"/><text fill="#000000" font-family="sans-serif" font-size="14" lengthAdjust="spacing" textLength="233" x="1949" y="1027.0757">void setProblems(Set&lt;Problem&gt;)</text></g><!--class KeyPerformanceIndicator--><g id="elem_KeyPerformanceIndicator"><rect codeLine="73" fill="#F1F1F1" height="96.8906" id="KeyPerformanceIndicator" rx="2.5" ry="2.5" style="stroke:#181818;stroke-width:0.5;" width="279" x="1890" y="1133.38"/><ellipse cx="1939.25" cy="1149.38" fill="#ADD1B2" rx="11" ry="11" style="stroke:#181818;stroke-width:1.0;"/><path d="M1942.2188,1155.0206 Q1941.6406,1155.3175 1941,1155.4581 Q1940.3594,1155.6144 1939.6563,1155.6144 Q1937.1563,1155.6144 1935.8281,1153.9737 Q1934.5156,1152.3175 1934.5156,1149.1925 Q1934.5156,1146.0675 1935.8281,1144.4112 Q1937.1563,1142.755 1939.6563,1142.755 Q1940.3594,1142.755 1941,1142.9112 Q1941.6563,1143.0675 1942.2188,1143.3644 L1942.2188,1146.0831 Q1941.5938,1145.505 1941,1145.2394 Q1940.4063,1144.9581 1939.7813,1144.9581 Q1938.4375,1144.9581 1937.75,1146.0362 Q1937.0625,1147.0987 1937.0625,1149.1925 Q1937.0625,1151.2862 1937.75,1152.3644 Q1938.4375,1153.4269 1939.7813,1153.4269 Q1940.4063,1153.4269 1941,1153.1612 Q1941.5938,1152.88 1942.2188,1152.3019 L1942.2188,1155.0206 Z " fill="#000000"/><text fill="#000000" font-family="sans-serif" font-size="14" lengthAdjust="spacing" textLength="172" x="1959.75" y="1154.2267">KeyPerformanceIndicator</text><line style="stroke:#181818;stroke-width:0.5;" x1="1891" x2="2168" y1="1165.38" y2="1165.38"/><line style="stroke:#181818;stroke-width:0.5;" x1="1891" x2="2168" y1="1173.38" y2="1173.38"/><ellipse cx="1901" cy="1187.0284" fill="#84BE84" rx="3" ry="3" style="stroke:#038048;stroke-width:1.0;"/><text fill="#000000" font-family="sans-serif" font-size="14" lengthAdjust="spacing" textLength="253" x="1910" y="1190.3751">String getPumpPowerConsumption()</text><ellipse cx="1901" cy="1203.3253" fill="#84BE84" rx="3" ry="3" style="stroke:#038048;stroke-width:1.0;"/><text fill="#000000" font-family="sans-serif" font-size="14" lengthAdjust="spacing" textLength="108" x="1910" y="1206.672">String getFlow()</text><ellipse cx="1901" cy="1219.6222" fill="#84BE84" rx="3" ry="3" style="stroke:#038048;stroke-width:1.0;"/><text fill="#000000" font-family="sans-serif" font-size="14" lengthAdjust="spacing" textLength="140" x="1910" y="1222.9689">Number getRainfall()</text></g><!--class Problem--><g id="elem_Problem"><rect codeLine="78" fill="#F1F1F1" height="80.5938" id="Problem" rx="2.5" ry="2.5" style="stroke:#181818;stroke-width:0.5;" width="243" x="2226" y="1141.53"/><ellipse cx="2314.75" cy="1157.53" fill="#ADD1B2" rx="11" ry="11" style="stroke:#181818;stroke-width:1.0;"/><path d="M2317.7188,1163.1706 Q2317.1406,1163.4675 2316.5,1163.6081 Q2315.8594,1163.7644 2315.1563,1163.7644 Q2312.6563,1163.7644 2311.3281,1162.1238 Q2310.0156,1160.4675 2310.0156,1157.3425 Q2310.0156,1154.2175 2311.3281,1152.5613 Q2312.6563,1150.905 2315.1563,1150.905 Q2315.8594,1150.905 2316.5,1151.0613 Q2317.1563,1151.2175 2317.7188,1151.5144 L2317.7188,1154.2331 Q2317.0938,1153.655 2316.5,1153.3894 Q2315.9063,1153.1081 2315.2813,1153.1081 Q2313.9375,1153.1081 2313.25,1154.1863 Q2312.5625,1155.2488 2312.5625,1157.3425 Q2312.5625,1159.4363 2313.25,1160.5144 Q2313.9375,1161.5769 2315.2813,1161.5769 Q2315.9063,1161.5769 2316.5,1161.3113 Q2317.0938,1161.03 2317.7188,1160.4519 L2317.7188,1163.1706 Z " fill="#000000"/><text fill="#000000" font-family="sans-serif" font-size="14" lengthAdjust="spacing" textLength="57" x="2335.25" y="1162.3767">Problem</text><line style="stroke:#181818;stroke-width:0.5;" x1="2227" x2="2468" y1="1173.53" y2="1173.53"/><line style="stroke:#181818;stroke-width:0.5;" x1="2227" x2="2468" y1="1181.53" y2="1181.53"/><ellipse cx="2237" cy="1195.1784" fill="#84BE84" rx="3" ry="3" style="stroke:#038048;stroke-width:1.0;"/><text fill="#000000" font-family="sans-serif" font-size="14" lengthAdjust="spacing" textLength="130" x="2246" y="1198.5251">String getReason()</text><ellipse cx="2237" cy="1211.4753" fill="#84BE84" rx="3" ry="3" style="stroke:#038048;stroke-width:1.0;"/><text fill="#000000" font-family="sans-serif" font-size="14" lengthAdjust="spacing" textLength="217" x="2246" y="1214.822">Number getOverflowIndication()</text></g><!--class SewerIndicationUseCase--><g id="elem_SewerIndicationUseCase"><rect codeLine="82" fill="#F1F1F1" height="64.2969" id="SewerIndicationUseCase" rx="2.5" ry="2.5" style="stroke:#181818;stroke-width:0.5;" width="247" x="1304" y="349.3"/><ellipse cx="1338.8" cy="365.3" fill="#ADD1B2" rx="11" ry="11" style="stroke:#181818;stroke-width:1.0;"/><path d="M1341.7688,370.9406 Q1341.1906,371.2375 1340.55,371.3781 Q1339.9094,371.5344 1339.2063,371.5344 Q1336.7063,371.5344 1335.3781,369.8937 Q1334.0656,368.2375 1334.0656,365.1125 Q1334.0656,361.9875 1335.3781,360.3312 Q1336.7063,358.675 1339.2063,358.675 Q1339.9094,358.675 1340.55,358.8312 Q1341.2063,358.9875 1341.7688,359.2844 L1341.7688,362.0031 Q1341.1438,361.425 1340.55,361.1594 Q1339.9563,360.8781 1339.3313,360.8781 Q1337.9875,360.8781 1337.3,361.9562 Q1336.6125,363.0187 1336.6125,365.1125 Q1336.6125,367.2062 1337.3,368.2844 Q1337.9875,369.3469 1339.3313,369.3469 Q1339.9563,369.3469 1340.55,369.0812 Q1341.1438,368.8 1341.7688,368.2219 L1341.7688,370.9406 Z " fill="#000000"/><text fill="#000000" font-family="sans-serif" font-size="14" lengthAdjust="spacing" textLength="171" x="1357.2" y="370.1467">SewerIndicationUseCase</text><line style="stroke:#181818;stroke-width:0.5;" x1="1305" x2="1550" y1="381.3" y2="381.3"/><line style="stroke:#181818;stroke-width:0.5;" x1="1305" x2="1550" y1="389.3" y2="389.3"/><ellipse cx="1315" cy="402.9484" fill="#84BE84" rx="3" ry="3" style="stroke:#038048;stroke-width:1.0;"/><text fill="#000000" font-family="sans-serif" font-size="14" lengthAdjust="spacing" textLength="221" x="1324" y="406.2951">void serve(Map&lt;String, String&gt;)</text></g><!--class SewerObservationUseCase--><g id="elem_SewerObservationUseCase"><rect codeLine="85" fill="#F1F1F1" height="64.2969" id="SewerObservationUseCase" rx="2.5" ry="2.5" style="stroke:#181818;stroke-width:0.5;" width="220" x="2223.5" y="349.3"/><ellipse cx="2238.5" cy="365.3" fill="#ADD1B2" rx="11" ry="11" style="stroke:#181818;stroke-width:1.0;"/><path d="M2241.4688,370.9406 Q2240.8906,371.2375 2240.25,371.3781 Q2239.6094,371.5344 2238.9063,371.5344 Q2236.4063,371.5344 2235.0781,369.8937 Q2233.7656,368.2375 2233.7656,365.1125 Q2233.7656,361.9875 2235.0781,360.3312 Q2236.4063,358.675 2238.9063,358.675 Q2239.6094,358.675 2240.25,358.8312 Q2240.9063,358.9875 2241.4688,359.2844 L2241.4688,362.0031 Q2240.8438,361.425 2240.25,361.1594 Q2239.6563,360.8781 2239.0313,360.8781 Q2237.6875,360.8781 2237,361.9562 Q2236.3125,363.0187 2236.3125,365.1125 Q2236.3125,367.2062 2237,368.2844 Q2237.6875,369.3469 2239.0313,369.3469 Q2239.6563,369.3469 2240.25,369.0812 Q2240.8438,368.8 2241.4688,368.2219 L2241.4688,370.9406 Z " fill="#000000"/><text fill="#000000" font-family="sans-serif" font-size="14" lengthAdjust="spacing" textLength="188" x="2252.5" y="370.1467">SewerObservationUseCase</text><line style="stroke:#181818;stroke-width:0.5;" x1="2224.5" x2="2442.5" y1="381.3" y2="381.3"/><line style="stroke:#181818;stroke-width:0.5;" x1="2224.5" x2="2442.5" y1="389.3" y2="389.3"/><ellipse cx="2234.5" cy="402.9484" fill="#84BE84" rx="3" ry="3" style="stroke:#038048;stroke-width:1.0;"/><text fill="#000000" font-family="sans-serif" font-size="14" lengthAdjust="spacing" textLength="182" x="2243.5" y="406.2951">Set&lt;Sewer&gt; serve(String)</text></g><!--class SewersUseCase--><g id="elem_SewersUseCase"><rect codeLine="88" fill="#F1F1F1" height="80.5938" id="SewersUseCase" rx="2.5" ry="2.5" style="stroke:#181818;stroke-width:0.5;" width="222" x="2597.5" y="1326.27"/><ellipse cx="2647.75" cy="1342.27" fill="#B4A7E5" rx="11" ry="11" style="stroke:#181818;stroke-width:1.0;"/><path d="M2643.6719,1338.0356 L2643.6719,1335.8794 L2651.0625,1335.8794 L2651.0625,1338.0356 L2648.5938,1338.0356 L2648.5938,1346.1138 L2651.0625,1346.1138 L2651.0625,1348.27 L2643.6719,1348.27 L2643.6719,1346.1138 L2646.1406,1346.1138 L2646.1406,1338.0356 L2643.6719,1338.0356 Z " fill="#000000"/><text fill="#000000" font-family="sans-serif" font-size="14" font-style="italic" lengthAdjust="spacing" textLength="113" x="2668.25" y="1347.1167">SewersUseCase</text><line style="stroke:#181818;stroke-width:0.5;" x1="2598.5" x2="2818.5" y1="1358.27" y2="1358.27"/><line style="stroke:#181818;stroke-width:0.5;" x1="2598.5" x2="2818.5" y1="1366.27" y2="1366.27"/><ellipse cx="2608.5" cy="1379.9184" fill="#84BE84" rx="3" ry="3" style="stroke:#038048;stroke-width:1.0;"/><text fill="#000000" font-family="sans-serif" font-size="14" font-style="italic" lengthAdjust="spacing" textLength="196" x="2617.5" y="1383.2651">Set&lt;Object&gt; observe(UUID)</text><ellipse cx="2608.5" cy="1396.2153" fill="#84BE84" rx="3" ry="3" style="stroke:#038048;stroke-width:1.0;"/><text fill="#000000" font-family="sans-serif" font-size="14" font-style="italic" lengthAdjust="spacing" textLength="183" x="2617.5" y="1399.562">void indicate(UUID, Object)</text></g><!--class SewersUseCaseBridge--><g id="elem_SewersUseCaseBridge"><rect codeLine="92" fill="#F1F1F1" height="80.5938" id="SewersUseCaseBridge" rx="2.5" ry="2.5" style="stroke:#181818;stroke-width:0.5;" width="220" x="2597.5" y="1141.53"/><ellipse cx="2626" cy="1157.53" fill="#ADD1B2" rx="11" ry="11" style="stroke:#181818;stroke-width:1.0;"/><path d="M2628.9688,1163.1706 Q2628.3906,1163.4675 2627.75,1163.6081 Q2627.1094,1163.7644 2626.4063,1163.7644 Q2623.9063,1163.7644 2622.5781,1162.1238 Q2621.2656,1160.4675 2621.2656,1157.3425 Q2621.2656,1154.2175 2622.5781,1152.5613 Q2623.9063,1150.905 2626.4063,1150.905 Q2627.1094,1150.905 2627.75,1151.0613 Q2628.4063,1151.2175 2628.9688,1151.5144 L2628.9688,1154.2331 Q2628.3438,1153.655 2627.75,1153.3894 Q2627.1563,1153.1081 2626.5313,1153.1081 Q2625.1875,1153.1081 2624.5,1154.1863 Q2623.8125,1155.2488 2623.8125,1157.3425 Q2623.8125,1159.4363 2624.5,1160.5144 Q2625.1875,1161.5769 2626.5313,1161.5769 Q2627.1563,1161.5769 2627.75,1161.3113 Q2628.3438,1161.03 2628.9688,1160.4519 L2628.9688,1163.1706 Z " fill="#000000"/><text fill="#000000" font-family="sans-serif" font-size="14" lengthAdjust="spacing" textLength="158" x="2643" y="1162.3767">SewersUseCaseBridge</text><line style="stroke:#181818;stroke-width:0.5;" x1="2598.5" x2="2816.5" y1="1173.53" y2="1173.53"/><line style="stroke:#181818;stroke-width:0.5;" x1="2598.5" x2="2816.5" y1="1181.53" y2="1181.53"/><ellipse cx="2608.5" cy="1195.1784" fill="#84BE84" rx="3" ry="3" style="stroke:#038048;stroke-width:1.0;"/><text fill="#000000" font-family="sans-serif" font-size="14" lengthAdjust="spacing" textLength="194" x="2617.5" y="1198.5251">Set&lt;Sewer&gt; observe(UUID)</text><ellipse cx="2608.5" cy="1211.4753" fill="#84BE84" rx="3" ry="3" style="stroke:#038048;stroke-width:1.0;"/><text fill="#000000" font-family="sans-serif" font-size="14" lengthAdjust="spacing" textLength="139" x="2617.5" y="1214.822">void indicate(Sewer)</text></g><g id="elem_GMN59"><path d="M6,170.59 L6,195.7228 L477,195.7228 L477,180.59 L467,170.59 L6,170.59 " fill="#FEFFDD" style="stroke:#181818;stroke-width:0.5;"/><path d="M467,170.59 L467,180.59 L477,180.59 L467,170.59 " fill="#FEFFDD" style="stroke:#181818;stroke-width:1.0;"/><text fill="#000000" font-family="sans-serif" font-size="13" lengthAdjust="spacing" textLength="450" x="12" y="187.6569">Frameworks and tools such as the Database, the Web Framework, etc.</text></g><g id="elem_GMN62"><path d="M2998.5,170.59 L2998.5,195.7228 L4104.5,195.7228 L4104.5,180.59 L4094.5,170.59 L2998.5,170.59 " fill="#FEFFDD" style="stroke:#181818;stroke-width:0.5;"/><path d="M4094.5,170.59 L4094.5,180.59 L4104.5,180.59 L4094.5,170.59 " fill="#FEFFDD" style="stroke:#181818;stroke-width:1.0;"/><text fill="#000000" font-family="sans-serif" font-size="13" lengthAdjust="spacing" textLength="1085" x="3004.5" y="187.6569">Convert data from the format most convenient for the use cases and entities, to the format most convenient for some external agency such as the Database or the Web.</text></g><g id="elem_GMN65"><path d="M2995,368.88 L2995,394.0128 L3668,394.0128 L3668,378.88 L3658,368.88 L2995,368.88 " fill="#FEFFDD" style="stroke:#181818;stroke-width:0.5;"/><path d="M3658,368.88 L3658,378.88 L3668,378.88 L3658,368.88 " fill="#FEFFDD" style="stroke:#181818;stroke-width:1.0;"/><text fill="#000000" font-family="sans-serif" font-size="13" lengthAdjust="spacing" textLength="652" x="3001" y="385.9469">Application specific business rules. It encapsulates and implements all of the use cases of the system.</text></g><g id="elem_GMN68"><path d="M2996,567.18 L2996,592.3128 L3935,592.3128 L3935,577.18 L3925,567.18 L2996,567.18 " fill="#FEFFDD" style="stroke:#181818;stroke-width:0.5;"/><path d="M3925,567.18 L3925,577.18 L3935,577.18 L3925,567.18 " fill="#FEFFDD" style="stroke:#181818;stroke-width:1.0;"/><text fill="#000000" font-family="sans-serif" font-size="13" lengthAdjust="spacing" textLength="918" x="3002" y="584.2469">Entities encapsulate Enterprise wide business rules. An entity can be an object with methods, or it can be a set of data structures and functions.</text></g><!--link GMN59 to drivers--><g id="link_GMN59_drivers"><path d="M241.5,170.25 C241.5,155.4 241.5,133.05 241.5,133.05 C241.5,133.05 284.0313,133.05 358.4609,133.05 C395.6758,133.05 440.8652,133.05 492.7002,133.05 " fill="none" id="GMN59-drivers" style="stroke:#181818;stroke-width:1.0;stroke-dasharray:7.0,7.0;"/></g><!--link GMN62 to adapters--><g id="link_GMN62_adapters"><path d="M2998.32,177.05 C2973.165,177.05 2952.46,177.05 2938.0438,177.05 C2934.4397,177.05 2931.2287,177.05 2928.4394,177.05 C2927.0448,177.05 2925.7556,177.05 2924.5755,177.05 C2924.2805,177.05 2923.9922,177.05 2923.7109,177.05 C2923.6406,177.05 2923.5707,177.05 2923.5012,177.05 " fill="none" id="GMN62-adapters" style="stroke:#181818;stroke-width:1.0;stroke-dasharray:7.0,7.0;"/></g><!--link GMN65 to use_cases--><g id="link_GMN65_use_cases"><path d="M2994.6,382.05 C2959.67,382.05 2928.7575,382.05 2906.1662,382.05 C2894.8706,382.05 2885.6553,382.05 2879.0583,382.05 C2878.2337,382.05 2877.4499,382.05 2876.7082,382.05 C2876.3373,382.05 2875.9769,382.05 2875.6271,382.05 " fill="none" id="GMN65-use_cases" style="stroke:#181818;stroke-width:1.0;stroke-dasharray:7.0,7.0;"/></g><!--link GMN68 to entities--><g id="link_GMN68_entities"><path d="M2995.72,580.05 C2885.1,580.05 2775.075,580.05 2691.0213,580.05 C2648.9944,580.05 2613.4603,580.05 2587.5911,580.05 C2574.6565,580.05 2564.1381,580.05 2556.4324,580.05 C2554.506,580.05 2552.7554,580.05 2551.1867,580.05 C2550.7946,580.05 2550.4138,580.05 2550.0445,580.05 " fill="none" id="GMN68-entities" style="stroke:#181818;stroke-width:1.0;stroke-dasharray:7.0,7.0;"/></g><!--link SewerIndicationAdapter to SewerIndicationUseCase--><g id="link_SewerIndicationAdapter_SewerIndicationUseCase"><path codeLine="108" d="M1427.5,215.45 C1427.5,252.22 1427.5,305.94 1427.5,342.83 " fill="none" id="SewerIndicationAdapter-to-SewerIndicationUseCase" style="stroke:#181818;stroke-width:1.0;"/><polygon fill="#181818" points="1427.5,348.83,1431.5,339.83,1427.5,343.83,1423.5,339.83,1427.5,348.83" style="stroke:#181818;stroke-width:1.0;"/></g><!--link SewerObservationAdapter to SewerObservationUseCase--><g id="link_SewerObservationAdapter_SewerObservationUseCase"><path codeLine="109" d="M2333.5,215.45 C2333.5,252.22 2333.5,305.94 2333.5,342.83 " fill="none" id="SewerObservationAdapter-to-SewerObservationUseCase" style="stroke:#181818;stroke-width:1.0;"/><polygon fill="#181818" points="2333.5,348.83,2337.5,339.83,2333.5,343.83,2329.5,339.83,2333.5,348.83" style="stroke:#181818;stroke-width:1.0;"/></g><!--reverse link SewersUseCase to SewersAdapterBridge--><g id="link_SewersUseCase_SewersAdapterBridge"><path codeLine="110" d="M2708.5,1425.09 C2708.5,1458.66 2708.5,1488.13 2708.5,1521.68 " fill="none" id="SewersUseCase-backto-SewersAdapterBridge" style="stroke:#181818;stroke-width:1.0;stroke-dasharray:7.0,7.0;"/><polygon fill="none" points="2708.5,1407.09,2702.5,1425.09,2714.5,1425.09,2708.5,1407.09" style="stroke:#181818;stroke-width:1.0;"/></g><!--link SewersAdapterBridge to SewersAdapter--><g id="link_SewersAdapterBridge_SewersAdapter"><path codeLine="111" d="M2708.5,1602.82 C2708.5,1621.48 2708.5,1637.54 2708.5,1656.18 " fill="none" id="SewersAdapterBridge-to-SewersAdapter" style="stroke:#181818;stroke-width:1.0;"/><polygon fill="#181818" points="2708.5,1662.18,2712.5,1653.18,2708.5,1657.18,2704.5,1653.18,2708.5,1662.18" style="stroke:#181818;stroke-width:1.0;"/></g><!--link SewerOverflowIndicationService to SewerOverflowIndicationComponent--><g id="link_SewerOverflowIndicationService_SewerOverflowIndicationComponent"><path codeLine="112" d="M1427.5,612.08 C1427.5,630.35 1427.5,647.12 1427.5,665.44 " fill="none" id="SewerOverflowIndicationService-to-SewerOverflowIndicationComponent" style="stroke:#181818;stroke-width:1.0;"/><polygon fill="#181818" points="1427.5,671.44,1431.5,662.44,1427.5,666.44,1423.5,662.44,1427.5,671.44" style="stroke:#181818;stroke-width:1.0;"/></g><!--link SewerOverflowIndicationComponent to Sewers--><g id="link_SewerOverflowIndicationComponent_Sewers"><path codeLine="113" d="M1598.15,704.05 C1825.86,704.05 2200.75,704.05 2200.75,704.05 C2200.75,704.05 2200.75,978.05 2200.75,978.05 C2200.75,978.05 2203.84,978.05 2217.27,978.05 " fill="none" id="SewerOverflowIndicationComponent-to-Sewers" style="stroke:#181818;stroke-width:1.0;"/><polygon fill="#181818" points="2223.27,978.05,2214.27,974.05,2218.27,978.05,2214.27,982.05,2223.27,978.05" style="stroke:#181818;stroke-width:1.0;"/></g><!--link SewerOverflowIndicationComponent to RainIndicationComponent--><g id="link_SewerOverflowIndicationComponent_RainIndicationComponent"><path codeLine="114" d="M1521.5,736.52 C1521.5,789.2 1521.5,886.69 1521.5,939.35 " fill="none" id="SewerOverflowIndicationComponent-to-RainIndicationComponent" style="stroke:#181818;stroke-width:1.0;"/><polygon fill="#181818" points="1521.5,945.35,1525.5,936.35,1521.5,940.35,1517.5,936.35,1521.5,945.35" style="stroke:#181818;stroke-width:1.0;"/></g><!--link SewerOverflowIndicationComponent to PumpIndicationComponent--><g id="link_SewerOverflowIndicationComponent_PumpIndicationComponent"><path codeLine="115" d="M1333.5,736.52 C1333.5,789.2 1333.5,886.69 1333.5,939.35 " fill="none" id="SewerOverflowIndicationComponent-to-PumpIndicationComponent" style="stroke:#181818;stroke-width:1.0;"/><polygon fill="#181818" points="1333.5,945.35,1337.5,936.35,1333.5,940.35,1329.5,936.35,1333.5,945.35" style="stroke:#181818;stroke-width:1.0;"/></g><!--link SewerOverflowIndicationComponent to FlowIndicationComponent--><g id="link_SewerOverflowIndicationComponent_FlowIndicationComponent"><path codeLine="116" d="M1256.75,704.05 C1090.75,704.05 863.5,704.05 863.5,704.05 C863.5,704.05 863.5,866.8 863.5,939.31 " fill="none" id="SewerOverflowIndicationComponent-to-FlowIndicationComponent" style="stroke:#181818;stroke-width:1.0;"/><polygon fill="#181818" points="863.5,945.31,867.5,936.31,863.5,940.31,859.5,936.31,863.5,945.31" style="stroke:#181818;stroke-width:1.0;"/></g><!--link SewerObservationService to SewerObservationComponent--><g id="link_SewerObservationService_SewerObservationComponent"><path codeLine="117" d="M2333.5,612.08 C2333.5,630.35 2333.5,647.12 2333.5,665.44 " fill="none" id="SewerObservationService-to-SewerObservationComponent" style="stroke:#181818;stroke-width:1.0;"/><polygon fill="#181818" points="2333.5,671.44,2337.5,662.44,2333.5,666.44,2329.5,662.44,2333.5,671.44" style="stroke:#181818;stroke-width:1.0;"/></g><!--link SewerObservationComponent to Sewers--><g id="link_SewerObservationComponent_Sewers"><path codeLine="118" d="M2333.5,736.52 C2333.5,786.65 2333.5,876.8 2333.5,931.36 " fill="none" id="SewerObservationComponent-to-Sewers" style="stroke:#181818;stroke-width:1.0;"/><polygon fill="#181818" points="2333.5,937.36,2337.5,928.36,2333.5,932.36,2329.5,928.36,2333.5,937.36" style="stroke:#181818;stroke-width:1.0;"/></g><!--link Sewer to Problem--><g id="link_Sewer_Problem"><path codeLine="119" d="M2178.5,1034.68 C2178.5,1095.12 2178.5,1182.05 2178.5,1182.05 C2178.5,1182.05 2192.93,1182.05 2219.58,1182.05 " fill="none" id="Sewer-to-Problem" style="stroke:#181818;stroke-width:1.0;"/><polygon fill="#181818" points="2225.58,1182.05,2216.58,1178.05,2220.58,1182.05,2216.58,1186.05,2225.58,1182.05" style="stroke:#181818;stroke-width:1.0;"/></g><!--link Sewer to KeyPerformanceIndicator--><g id="link_Sewer_KeyPerformanceIndicator"><path codeLine="120" d="M2049,1034.62 C2049,1065.51 2049,1097.34 2049,1126.91 " fill="none" id="Sewer-to-KeyPerformanceIndicator" style="stroke:#181818;stroke-width:1.0;"/><polygon fill="#181818" points="2049,1132.91,2053,1123.91,2049,1127.91,2045,1123.91,2049,1132.91" style="stroke:#181818;stroke-width:1.0;"/></g><!--link SewerIndicationUseCase to SewerOverflowIndicationService--><g id="link_SewerIndicationUseCase_SewerOverflowIndicationService"><path codeLine="121" d="M1427.5,413.75 C1427.5,450.51 1427.5,504.23 1427.5,541.13 " fill="none" id="SewerIndicationUseCase-to-SewerOverflowIndicationService" style="stroke:#181818;stroke-width:1.0;"/><polygon fill="#181818" points="1427.5,547.13,1431.5,538.13,1427.5,542.13,1423.5,538.13,1427.5,547.13" style="stroke:#181818;stroke-width:1.0;"/></g><!--link SewerObservationUseCase to SewerObservationService--><g id="link_SewerObservationUseCase_SewerObservationService"><path codeLine="122" d="M2333.5,413.75 C2333.5,450.51 2333.5,504.23 2333.5,541.13 " fill="none" id="SewerObservationUseCase-to-SewerObservationService" style="stroke:#181818;stroke-width:1.0;"/><polygon fill="#181818" points="2333.5,547.13,2337.5,538.13,2333.5,542.13,2329.5,538.13,2333.5,547.13" style="stroke:#181818;stroke-width:1.0;"/></g><!--reverse link Sewers to SewersUseCaseBridge--><g id="link_Sewers_SewersUseCaseBridge"><path codeLine="123" d="M2461.94,978.05 C2572.24,978.05 2707.5,978.05 2707.5,978.05 C2707.5,978.05 2707.5,1081.61 2707.5,1141.08 " fill="none" id="Sewers-backto-SewersUseCaseBridge" style="stroke:#181818;stroke-width:1.0;stroke-dasharray:7.0,7.0;"/><polygon fill="none" points="2443.94,978.05,2461.94,984.05,2461.94,972.05,2443.94,978.05" style="stroke:#181818;stroke-width:1.0;"/></g><!--link SewersUseCaseBridge to SewersUseCase--><g id="link_SewersUseCaseBridge_SewersUseCase"><path codeLine="124" d="M2707.5,1222.37 C2707.5,1253.06 2707.5,1289.05 2707.5,1319.8 " fill="none" id="SewersUseCaseBridge-to-SewersUseCase" style="stroke:#181818;stroke-width:1.0;"/><polygon fill="#181818" points="2707.5,1325.8,2711.5,1316.8,2707.5,1320.8,2703.5,1316.8,2707.5,1325.8" style="stroke:#181818;stroke-width:1.0;"/></g><!--SRC=[tLXDR-Cs4BthLx3snK6pH57qq00BBxBP3M0isWGR13qM53MosKYaG59nZJJ_lKD9jkKFER8jgjqzsQQ7C-yzZMR8-I7JR9eoaXkOI0iwXKWm2_UCFx4f61Apn41WdeJCc6OfIOG4kyY0A6rdAZ0pDIS6zu5ogq5MxYEH5i-W3M66H42vIZCc5pJJoXPsrC0SD5rQ3StJ8ano82-lAmyiOfbjxOAkp8U__Xp7uIzrLw7APSJquaXNLCX8S1I3hXmC4v525wvLQ40_-_1SB9i3Zl59_ycPWMELfUkDmpY-ObTNTQyWhR3Y3ATqvM4OypWAV-f2Z5tlRHugLz9gbVW8HfU-XqepEGLF9DzEh-uuRiVgYM9fsGV1pKY7w1LR5jv2qig_tnUaj7pAH8_YrgFrAF2-i7sAZ3l31D8UXTwEsAFOJQ6z2kwnXQ-3-6lcwnYDRJtW2JE631wSmQIaAvIyBbqCpZxpqFsEoKj0o8_FIaIa83zwi5h8wKNmkW7ehf3cB4Gx_QN1SOde0Upxk_0lu7Qy0qou0sxCE5JWpAcGjXu6tV1MuY0lB3HMCsvVwv0gCgF7nycdYosxGiob_eN59IdtRQkw3FLHYsWAtS8lVUwAkOEyFTmx31ydQhvEeWTq9VZno5iTiGx7t4dStrZslioHIr9-Zci4RZTyt21G9J7smEVXa3O4hK67lu7dTXFy1ror82DJFOOwZViypNgdqH3q31fVcP2zqsW8UWQDXWpjYSzRqSycjYxD7RxdRxQ1ZVVRLQx2ODosFNKgVjETY3P6tO6zbFv0-nfqVzCe7UzjOHMkzXsisB2j-C3txQYaK39m6CaKx2GQ5L2_mE8U9LGwPP93bVfAEvClcIXj7DNxygWwTdzKtyteejOtrgjrynhNXaY3Fgukj8bccM95FXNCi3pVAtHsewJ1xouVAmrMDguJbMk_vsa8XLIk7iOiIKRr_b9ACEZhja2hWDkSlW8pInPhnBl5RhITb-k_7WtS8A91XvSEkZ_4aKUHxTfnFj0tQ-e6q0CrTQSqdOzj_o5r0v3VCtOLwiGpTaiYswVjfYBRK5cbia0IY2rHSGjumQrcASoLVZA4oOXOfH93JCvdZfwT0Vd4B0iHrsNnwmy8oMhB9G7BQO2TdxYmnyPUIHDWkS45IoACHMAjqY9MKQuiIPMnRkhn35AujeZBnT-e9wccrWXWMImGfdfhjr5uKNP75YrPGl0sBlbYBsTIXKBM7T1SPq1mdML9zUOJam4NiU0ap8sGWEccymIpX4miik8iCtc2ZxYaAT8CQnmImPz9uW1iIb4jc8MnM2gxnBmgny7dvLY-XevyTkzxfWKYcOi8TiXSo-NqY3D9Ga0scDFkDKDxEoCfs9cAyF6XvCAkZ5ndBI2xpC0tDkSsrvKMSIwvKz3KU7ePRBnxD_PSzmCluu_JSRTj0q7NGmQQqt_6FifgvqYF5VUWpw3laSVfgT71TJBuxowo7V3UUp_wjYaTFUduNkaspAU-LxgtVjxFreEP3iWTFrS9-f_a_5-hJfknIMVOMzxVlobE9ynS0iyJ12y5u_1f8l0yQ_1H9XfAKk3lHd_EqTPB6MW3-dJf3th_5m00]--></g></svg>