<svg xmlns="http://www.w3.org/2000/svg" xmlns:xlink="http://www.w3.org/1999/xlink" contentStyleType="text/css" height="1838px" preserveAspectRatio="none" style="width:3897px;height:1838px;background:#FFFFFF;" version="1.1" viewBox="0 0 3897 1838" width="3897px" zoomAndPan="magnify"><defs/><g><!--cluster drivers--><g id="cluster_drivers"><path d="M8.5,6 L304.5,6 A3.75,3.75 0 0 1 307,8.5 L314,28.2969 L2247.5,28.2969 A2.5,2.5 0 0 1 2250,30.7969 L2250,1828.55 A2.5,2.5 0 0 1 2247.5,1831.05 L8.5,1831.05 A2.5,2.5 0 0 1 6,1828.55 L6,8.5 A2.5,2.5 0 0 1 8.5,6 " fill="#87CEEB" style="stroke:#000000;stroke-width:1.5;"/><line style="stroke:#000000;stroke-width:1.5;" x1="6" x2="314" y1="28.2969" y2="28.2969"/><text fill="#000000" font-family="sans-serif" font-size="14" font-weight="bold" lengthAdjust="spacing" textLength="295" x="10" y="20.9951">de.company.prototype.sewer.drivers</text></g><!--cluster adapters--><g id="cluster_adapters"><path d="M48.5,65 L119.5,65 A3.75,3.75 0 0 1 122,67.5 L129,87.2969 L2199.5,87.2969 A2.5,2.5 0 0 1 2202,89.7969 L2202,1788.55 A2.5,2.5 0 0 1 2199.5,1791.05 L48.5,1791.05 A2.5,2.5 0 0 1 46,1788.55 L46,67.5 A2.5,2.5 0 0 1 48.5,65 " fill="#82FFB4" style="stroke:#000000;stroke-width:1.5;"/><line style="stroke:#000000;stroke-width:1.5;" x1="46" x2="129" y1="87.2969" y2="87.2969"/><text fill="#000000" font-family="sans-serif" font-size="14" font-weight="bold" lengthAdjust="spacing" textLength="70" x="50" y="79.9951">adapters</text></g><!--cluster boundary--><g id="cluster_boundary"><path d="M666.5,116 L809.5,116 A3.75,3.75 0 0 1 812,118.5 L819,138.2969 L887.5,138.2969 A2.5,2.5 0 0 1 890,140.7969 L890,228.8 A2.5,2.5 0 0 1 887.5,231.3 L666.5,231.3 A2.5,2.5 0 0 1 664,228.8 L664,118.5 A2.5,2.5 0 0 1 666.5,116 " fill="#00FF00" style="stroke:#000000;stroke-width:1.5;"/><line style="stroke:#000000;stroke-width:1.5;" x1="664" x2="819" y1="138.2969" y2="138.2969"/><text fill="#000000" font-family="sans-serif" font-size="14" font-weight="bold" lengthAdjust="spacing" textLength="142" x="668" y="130.9951">indicate.boundary</text></g><!--cluster boundary--><g id="cluster_boundary"><path d="M1492.5,116 L1638.5,116 A3.75,3.75 0 0 1 1641,118.5 L1648,138.2969 L1731.5,138.2969 A2.5,2.5 0 0 1 1734,140.7969 L1734,228.8 A2.5,2.5 0 0 1 1731.5,231.3 L1492.5,231.3 A2.5,2.5 0 0 1 1490,228.8 L1490,118.5 A2.5,2.5 0 0 1 1492.5,116 " fill="#00FF00" style="stroke:#000000;stroke-width:1.5;"/><line style="stroke:#000000;stroke-width:1.5;" x1="1490" x2="1648" y1="138.2969" y2="138.2969"/><text fill="#000000" font-family="sans-serif" font-size="14" font-weight="bold" lengthAdjust="spacing" textLength="145" x="1494" y="130.9951">observe.boundary</text></g><!--cluster boundary--><g id="cluster_boundary"><path d="M1862.5,1486.86 L2002.5,1486.86 A3.75,3.75 0 0 1 2005,1489.36 L2012,1509.1569 L2111.5,1509.1569 A2.5,2.5 0 0 1 2114,1511.6569 L2114,1756.55 A2.5,2.5 0 0 1 2111.5,1759.05 L1862.5,1759.05 A2.5,2.5 0 0 1 1860,1756.55 L1860,1489.36 A2.5,2.5 0 0 1 1862.5,1486.86 " fill="#00FF00" style="stroke:#000000;stroke-width:1.5;"/><line style="stroke:#000000;stroke-width:1.5;" x1="1860" x2="2012" y1="1509.1569" y2="1509.1569"/><text fill="#000000" font-family="sans-serif" font-size="14" font-weight="bold" lengthAdjust="spacing" textLength="139" x="1864" y="1501.8551">sewers.boundary</text></g><!--cluster use_cases--><g id="cluster_use_cases"><path d="M88.5,263.3 L171.5,263.3 A3.75,3.75 0 0 1 174,265.8 L181,285.5969 L2151.5,285.5969 A2.5,2.5 0 0 1 2154,288.0969 L2154,1452.36 A2.5,2.5 0 0 1 2151.5,1454.86 L88.5,1454.86 A2.5,2.5 0 0 1 86,1452.36 L86,265.8 A2.5,2.5 0 0 1 88.5,263.3 " fill="#FF9A99" style="stroke:#000000;stroke-width:1.5;"/><line style="stroke:#000000;stroke-width:1.5;" x1="86" x2="181" y1="285.5969" y2="285.5969"/><text fill="#000000" font-family="sans-serif" font-size="14" font-weight="bold" lengthAdjust="spacing" textLength="82" x="90" y="278.2951">use_cases</text></g><!--cluster entities--><g id="cluster_entities"><path d="M128.5,461.6 L188.5,461.6 A3.75,3.75 0 0 1 191,464.1 L198,483.8969 L1825.5,483.8969 A2.5,2.5 0 0 1 1828,486.3969 L1828,1299.77 A2.5,2.5 0 0 1 1825.5,1302.27 L128.5,1302.27 A2.5,2.5 0 0 1 126,1299.77 L126,464.1 A2.5,2.5 0 0 1 128.5,461.6 " fill="#FCFDB0" style="stroke:#000000;stroke-width:1.5;"/><line style="stroke:#000000;stroke-width:1.5;" x1="126" x2="198" y1="483.8969" y2="483.8969"/><text fill="#000000" font-family="sans-serif" font-size="14" font-weight="bold" lengthAdjust="spacing" textLength="59" x="130" y="476.5951">entities</text></g><!--cluster boundary--><g id="cluster_boundary"><path d="M160.5,512.6 L303.5,512.6 A3.75,3.75 0 0 1 306,515.1 L313,534.8969 L1101.5,534.8969 A2.5,2.5 0 0 1 1104,537.3969 L1104,1047.43 A2.5,2.5 0 0 1 1101.5,1049.93 L160.5,1049.93 A2.5,2.5 0 0 1 158,1047.43 L158,515.1 A2.5,2.5 0 0 1 160.5,512.6 " fill="#00FF00" style="stroke:#000000;stroke-width:1.5;"/><line style="stroke:#000000;stroke-width:1.5;" x1="158" x2="313" y1="534.8969" y2="534.8969"/><text fill="#000000" font-family="sans-serif" font-size="14" font-weight="bold" lengthAdjust="spacing" textLength="142" x="162" y="527.5951">indicate.boundary</text></g><!--cluster control--><g id="cluster_control"><path d="M184.5,636.89 L241.5,636.89 A3.75,3.75 0 0 1 244,639.39 L251,659.1869 L1077.5,659.1869 A2.5,2.5 0 0 1 1080,661.6869 L1080,1023.43 A2.5,2.5 0 0 1 1077.5,1025.93 L184.5,1025.93 A2.5,2.5 0 0 1 182,1023.43 L182,639.39 A2.5,2.5 0 0 1 184.5,636.89 " fill="#FFA500" style="stroke:#000000;stroke-width:1.5;"/><line style="stroke:#000000;stroke-width:1.5;" x1="182" x2="251" y1="659.1869" y2="659.1869"/><text fill="#000000" font-family="sans-serif" font-size="14" font-weight="bold" lengthAdjust="spacing" textLength="56" x="186" y="651.8851">control</text></g><!--cluster boundary--><g id="cluster_boundary"><path d="M1454.5,512.6 L1600.5,512.6 A3.75,3.75 0 0 1 1603,515.1 L1610,534.8969 L1769.5,534.8969 A2.5,2.5 0 0 1 1772,537.3969 L1772,773.69 A2.5,2.5 0 0 1 1769.5,776.19 L1454.5,776.19 A2.5,2.5 0 0 1 1452,773.69 L1452,515.1 A2.5,2.5 0 0 1 1454.5,512.6 " fill="#00FF00" style="stroke:#000000;stroke-width:1.5;"/><line style="stroke:#000000;stroke-width:1.5;" x1="1452" x2="1610" y1="534.8969" y2="534.8969"/><text fill="#000000" font-family="sans-serif" font-size="14" font-weight="bold" lengthAdjust="spacing" textLength="145" x="1456" y="527.5951">observe.boundary</text></g><!--cluster control--><g id="cluster_control"><path d="M1478.5,636.89 L1535.5,636.89 A3.75,3.75 0 0 1 1538,639.39 L1545,659.1869 L1745.5,659.1869 A2.5,2.5 0 0 1 1748,661.6869 L1748,749.69 A2.5,2.5 0 0 1 1745.5,752.19 L1478.5,752.19 A2.5,2.5 0 0 1 1476,749.69 L1476,639.39 A2.5,2.5 0 0 1 1478.5,636.89 " fill="#FFA500" style="stroke:#000000;stroke-width:1.5;"/><line style="stroke:#000000;stroke-width:1.5;" x1="1476" x2="1545" y1="659.1869" y2="659.1869"/><text fill="#000000" font-family="sans-serif" font-size="14" font-weight="bold" lengthAdjust="spacing" textLength="56" x="1480" y="651.8851">control</text></g><!--cluster sewer--><g id="cluster_sewer"><path d="M1130.5,800.19 L1181.5,800.19 A3.75,3.75 0 0 1 1184,802.69 L1191,822.4869 L1785.5,822.4869 A2.5,2.5 0 0 1 1788,824.9869 L1788,1267.77 A2.5,2.5 0 0 1 1785.5,1270.27 L1130.5,1270.27 A2.5,2.5 0 0 1 1128,1267.77 L1128,802.69 A2.5,2.5 0 0 1 1130.5,800.19 " fill="none" style="stroke:#000000;stroke-width:1.5;"/><line style="stroke:#000000;stroke-width:1.5;" x1="1128" x2="1191" y1="822.4869" y2="822.4869"/><text fill="#000000" font-family="sans-serif" font-size="14" font-weight="bold" lengthAdjust="spacing" textLength="50" x="1132" y="815.1851">sewer</text></g><!--cluster boundary--><g id="cluster_boundary"><path d="M1170.5,843.19 L1246.5,843.19 A3.75,3.75 0 0 1 1249,845.69 L1256,865.4869 L1735.5,865.4869 A2.5,2.5 0 0 1 1738,867.9869 L1738,1071.88 A2.5,2.5 0 0 1 1735.5,1074.38 L1170.5,1074.38 A2.5,2.5 0 0 1 1168,1071.88 L1168,845.69 A2.5,2.5 0 0 1 1170.5,843.19 " fill="#00FF00" style="stroke:#000000;stroke-width:1.5;"/><line style="stroke:#000000;stroke-width:1.5;" x1="1168" x2="1256" y1="865.4869" y2="865.4869"/><text fill="#000000" font-family="sans-serif" font-size="14" font-weight="bold" lengthAdjust="spacing" textLength="75" x="1172" y="858.1851">boundary</text></g><!--cluster entity--><g id="cluster_entity"><path d="M1194.5,886.19 L1301.5,886.19 A3.75,3.75 0 0 1 1304,888.69 L1311,908.4869 L1479.5,908.4869 A2.5,2.5 0 0 1 1482,910.9869 L1482,1047.88 A2.5,2.5 0 0 1 1479.5,1050.38 L1194.5,1050.38 A2.5,2.5 0 0 1 1192,1047.88 L1192,888.69 A2.5,2.5 0 0 1 1194.5,886.19 " fill="#FCFDB0" style="stroke:#000000;stroke-width:1.5;"/><line style="stroke:#000000;stroke-width:1.5;" x1="1192" x2="1311" y1="908.4869" y2="908.4869"/><text fill="#000000" font-family="sans-serif" font-size="14" font-weight="bold" lengthAdjust="spacing" textLength="106" x="1196" y="901.1851">control.entity</text></g><!--cluster entity--><g id="cluster_entity"><path d="M1154.5,1098.38 L1369.5,1098.38 A3.75,3.75 0 0 1 1372,1100.88 L1379,1120.6769 L1461.5,1120.6769 A2.5,2.5 0 0 1 1464,1123.1769 L1464,1243.77 A2.5,2.5 0 0 1 1461.5,1246.27 L1154.5,1246.27 A2.5,2.5 0 0 1 1152,1243.77 L1152,1100.88 A2.5,2.5 0 0 1 1154.5,1098.38 " fill="#FCFDB0" style="stroke:#000000;stroke-width:1.5;"/><line style="stroke:#000000;stroke-width:1.5;" x1="1152" x2="1379" y1="1120.6769" y2="1120.6769"/><text fill="#000000" font-family="sans-serif" font-size="14" font-weight="bold" lengthAdjust="spacing" textLength="214" x="1156" y="1113.3751">kpi.boundary.control.entity</text></g><!--cluster entity--><g id="cluster_entity"><path d="M1490.5,1106.53 L1747.5,1106.53 A3.75,3.75 0 0 1 1750,1109.03 L1757,1128.8269 L1761.5,1128.8269 A2.5,2.5 0 0 1 1764,1131.3269 L1764,1235.62 A2.5,2.5 0 0 1 1761.5,1238.12 L1490.5,1238.12 A2.5,2.5 0 0 1 1488,1235.62 L1488,1109.03 A2.5,2.5 0 0 1 1490.5,1106.53 " fill="#FCFDB0" style="stroke:#000000;stroke-width:1.5;"/><line style="stroke:#000000;stroke-width:1.5;" x1="1488" x2="1757" y1="1128.8269" y2="1128.8269"/><text fill="#000000" font-family="sans-serif" font-size="14" font-weight="bold" lengthAdjust="spacing" textLength="256" x="1492" y="1121.5251">problem.boundary.control.entity</text></g><!--cluster boundary--><g id="cluster_boundary"><path d="M639.5,314.3 L782.5,314.3 A3.75,3.75 0 0 1 785,316.8 L792,336.5969 L914.5,336.5969 A2.5,2.5 0 0 1 917,339.0969 L917,427.1 A2.5,2.5 0 0 1 914.5,429.6 L639.5,429.6 A2.5,2.5 0 0 1 637,427.1 L637,316.8 A2.5,2.5 0 0 1 639.5,314.3 " fill="#00FF00" style="stroke:#000000;stroke-width:1.5;"/><line style="stroke:#000000;stroke-width:1.5;" x1="637" x2="792" y1="336.5969" y2="336.5969"/><text fill="#000000" font-family="sans-serif" font-size="14" font-weight="bold" lengthAdjust="spacing" textLength="142" x="641" y="329.2951">indicate.boundary</text></g><!--cluster boundary--><g id="cluster_boundary"><path d="M1488.5,314.3 L1634.5,314.3 A3.75,3.75 0 0 1 1637,316.8 L1644,336.5969 L1735.5,336.5969 A2.5,2.5 0 0 1 1738,339.0969 L1738,427.1 A2.5,2.5 0 0 1 1735.5,429.6 L1488.5,429.6 A2.5,2.5 0 0 1 1486,427.1 L1486,316.8 A2.5,2.5 0 0 1 1488.5,314.3 " fill="#00FF00" style="stroke:#000000;stroke-width:1.5;"/><line style="stroke:#000000;stroke-width:1.5;" x1="1486" x2="1644" y1="336.5969" y2="336.5969"/><text fill="#000000" font-family="sans-serif" font-size="14" font-weight="bold" lengthAdjust="spacing" textLength="145" x="1490" y="329.2951">observe.boundary</text></g><!--cluster boundary--><g id="cluster_boundary"><path d="M1862.5,1106.53 L2002.5,1106.53 A3.75,3.75 0 0 1 2005,1109.03 L2012,1128.8269 L2111.5,1128.8269 A2.5,2.5 0 0 1 2114,1131.3269 L2114,1420.36 A2.5,2.5 0 0 1 2111.5,1422.86 L1862.5,1422.86 A2.5,2.5 0 0 1 1860,1420.36 L1860,1109.03 A2.5,2.5 0 0 1 1862.5,1106.53 " fill="#00FF00" style="stroke:#000000;stroke-width:1.5;"/><line style="stroke:#000000;stroke-width:1.5;" x1="1860" x2="2012" y1="1128.8269" y2="1128.8269"/><text fill="#000000" font-family="sans-serif" font-size="14" font-weight="bold" lengthAdjust="spacing" textLength="139" x="1864" y="1121.5251">sewers.boundary</text></g><!--class SewerIndicationAdapter--><g id="elem_SewerIndicationAdapter"><rect codeLine="28" fill="#F1F1F1" height="64.2969" id="SewerIndicationAdapter" rx="2.5" ry="2.5" style="stroke:#181818;stroke-width:0.5;" width="195" x="679.5" y="151"/><ellipse cx="694.5" cy="167" fill="#ADD1B2" rx="11" ry="11" style="stroke:#181818;stroke-width:1.0;"/><path d="M697.4688,172.6406 Q696.8906,172.9375 696.25,173.0781 Q695.6094,173.2344 694.9063,173.2344 Q692.4063,173.2344 691.0781,171.5938 Q689.7656,169.9375 689.7656,166.8125 Q689.7656,163.6875 691.0781,162.0313 Q692.4063,160.375 694.9063,160.375 Q695.6094,160.375 696.25,160.5313 Q696.9063,160.6875 697.4688,160.9844 L697.4688,163.7031 Q696.8438,163.125 696.25,162.8594 Q695.6563,162.5781 695.0313,162.5781 Q693.6875,162.5781 693,163.6563 Q692.3125,164.7188 692.3125,166.8125 Q692.3125,168.9063 693,169.9844 Q693.6875,171.0469 695.0313,171.0469 Q695.6563,171.0469 696.25,170.7813 Q696.8438,170.5 697.4688,169.9219 L697.4688,172.6406 Z " fill="#000000"/><text fill="#000000" font-family="sans-serif" font-size="14" lengthAdjust="spacing" textLength="163" x="708.5" y="171.8467">SewerIndicationAdapter</text><line style="stroke:#181818;stroke-width:0.5;" x1="680.5" x2="873.5" y1="183" y2="183"/><line style="stroke:#181818;stroke-width:0.5;" x1="680.5" x2="873.5" y1="191" y2="191"/><ellipse cx="690.5" cy="204.6484" fill="#84BE84" rx="3" ry="3" style="stroke:#038048;stroke-width:1.0;"/><text fill="#000000" font-family="sans-serif" font-size="14" lengthAdjust="spacing" textLength="120" x="699.5" y="207.9951">void serve(String)</text></g><!--class SewerObservationAdapter--><g id="elem_SewerObservationAdapter"><rect codeLine="31" fill="#F1F1F1" height="64.2969" id="SewerObservationAdapter" rx="2.5" ry="2.5" style="stroke:#181818;stroke-width:0.5;" width="212" x="1506" y="151"/><ellipse cx="1521" cy="167" fill="#ADD1B2" rx="11" ry="11" style="stroke:#181818;stroke-width:1.0;"/><path d="M1523.9688,172.6406 Q1523.3906,172.9375 1522.75,173.0781 Q1522.1094,173.2344 1521.4063,173.2344 Q1518.9063,173.2344 1517.5781,171.5938 Q1516.2656,169.9375 1516.2656,166.8125 Q1516.2656,163.6875 1517.5781,162.0313 Q1518.9063,160.375 1521.4063,160.375 Q1522.1094,160.375 1522.75,160.5313 Q1523.4063,160.6875 1523.9688,160.9844 L1523.9688,163.7031 Q1523.3438,163.125 1522.75,162.8594 Q1522.1563,162.5781 1521.5313,162.5781 Q1520.1875,162.5781 1519.5,163.6563 Q1518.8125,164.7188 1518.8125,166.8125 Q1518.8125,168.9063 1519.5,169.9844 Q1520.1875,171.0469 1521.5313,171.0469 Q1522.1563,171.0469 1522.75,170.7813 Q1523.3438,170.5 1523.9688,169.9219 L1523.9688,172.6406 Z " fill="#000000"/><text fill="#000000" font-family="sans-serif" font-size="14" lengthAdjust="spacing" textLength="180" x="1535" y="171.8467">SewerObservationAdapter</text><line style="stroke:#181818;stroke-width:0.5;" x1="1507" x2="1717" y1="183" y2="183"/><line style="stroke:#181818;stroke-width:0.5;" x1="1507" x2="1717" y1="191" y2="191"/><ellipse cx="1517" cy="204.6484" fill="#84BE84" rx="3" ry="3" style="stroke:#038048;stroke-width:1.0;"/><text fill="#000000" font-family="sans-serif" font-size="14" lengthAdjust="spacing" textLength="184" x="1526" y="207.9951">Set&lt;Object&gt; serve(String)</text></g><!--class SewersAdapter--><g id="elem_SewersAdapter"><rect codeLine="34" fill="#F1F1F1" height="80.5938" id="SewersAdapter" rx="2.5" ry="2.5" style="stroke:#181818;stroke-width:0.5;" width="222" x="1876" y="1662.46"/><ellipse cx="1930.25" cy="1678.46" fill="#B4A7E5" rx="11" ry="11" style="stroke:#181818;stroke-width:1.0;"/><path d="M1926.1719,1674.2256 L1926.1719,1672.0694 L1933.5625,1672.0694 L1933.5625,1674.2256 L1931.0938,1674.2256 L1931.0938,1682.3038 L1933.5625,1682.3038 L1933.5625,1684.46 L1926.1719,1684.46 L1926.1719,1682.3038 L1928.6406,1682.3038 L1928.6406,1674.2256 L1926.1719,1674.2256 Z " fill="#000000"/><text fill="#000000" font-family="sans-serif" font-size="14" font-style="italic" lengthAdjust="spacing" textLength="105" x="1950.75" y="1683.3067">SewersAdapter</text><line style="stroke:#181818;stroke-width:0.5;" x1="1877" x2="2097" y1="1694.46" y2="1694.46"/><line style="stroke:#181818;stroke-width:0.5;" x1="1877" x2="2097" y1="1702.46" y2="1702.46"/><ellipse cx="1887" cy="1716.1084" fill="#84BE84" rx="3" ry="3" style="stroke:#038048;stroke-width:1.0;"/><text fill="#000000" font-family="sans-serif" font-size="14" font-style="italic" lengthAdjust="spacing" textLength="196" x="1896" y="1719.4551">Set&lt;Object&gt; observe(UUID)</text><ellipse cx="1887" cy="1732.4053" fill="#84BE84" rx="3" ry="3" style="stroke:#038048;stroke-width:1.0;"/><text fill="#000000" font-family="sans-serif" font-size="14" font-style="italic" lengthAdjust="spacing" textLength="183" x="1896" y="1735.752">void indicate(UUID, Object)</text></g><!--class SewersAdapterBridge--><g id="elem_SewersAdapterBridge"><rect codeLine="38" fill="#F1F1F1" height="80.5938" id="SewersAdapterBridge" rx="2.5" ry="2.5" style="stroke:#181818;stroke-width:0.5;" width="222" x="1876" y="1521.86"/><ellipse cx="1909" cy="1537.86" fill="#ADD1B2" rx="11" ry="11" style="stroke:#181818;stroke-width:1.0;"/><path d="M1911.9688,1543.5006 Q1911.3906,1543.7975 1910.75,1543.9381 Q1910.1094,1544.0944 1909.4063,1544.0944 Q1906.9063,1544.0944 1905.5781,1542.4538 Q1904.2656,1540.7975 1904.2656,1537.6725 Q1904.2656,1534.5475 1905.5781,1532.8913 Q1906.9063,1531.235 1909.4063,1531.235 Q1910.1094,1531.235 1910.75,1531.3913 Q1911.4063,1531.5475 1911.9688,1531.8444 L1911.9688,1534.5631 Q1911.3438,1533.985 1910.75,1533.7194 Q1910.1563,1533.4381 1909.5313,1533.4381 Q1908.1875,1533.4381 1907.5,1534.5163 Q1906.8125,1535.5788 1906.8125,1537.6725 Q1906.8125,1539.7663 1907.5,1540.8444 Q1908.1875,1541.9069 1909.5313,1541.9069 Q1910.1563,1541.9069 1910.75,1541.6413 Q1911.3438,1541.36 1911.9688,1540.7819 L1911.9688,1543.5006 Z " fill="#000000"/><text fill="#000000" font-family="sans-serif" font-size="14" lengthAdjust="spacing" textLength="150" x="1927" y="1542.7067">SewersAdapterBridge</text><line style="stroke:#181818;stroke-width:0.5;" x1="1877" x2="2097" y1="1553.86" y2="1553.86"/><line style="stroke:#181818;stroke-width:0.5;" x1="1877" x2="2097" y1="1561.86" y2="1561.86"/><ellipse cx="1887" cy="1575.5084" fill="#84BE84" rx="3" ry="3" style="stroke:#038048;stroke-width:1.0;"/><text fill="#000000" font-family="sans-serif" font-size="14" lengthAdjust="spacing" textLength="196" x="1896" y="1578.8551">Set&lt;Object&gt; observe(UUID)</text><ellipse cx="1887" cy="1591.8053" fill="#84BE84" rx="3" ry="3" style="stroke:#038048;stroke-width:1.0;"/><text fill="#000000" font-family="sans-serif" font-size="14" lengthAdjust="spacing" textLength="183" x="1896" y="1595.152">void indicate(UUID, Object)</text></g><!--class SewerOverflowIndicationService--><g id="elem_SewerOverflowIndicationService"><rect codeLine="42" fill="#F1F1F1" height="64.2969" id="SewerOverflowIndicationService" rx="2.5" ry="2.5" style="stroke:#181818;stroke-width:0.5;" width="250" x="652" y="547.6"/><ellipse cx="667" cy="563.6" fill="#ADD1B2" rx="11" ry="11" style="stroke:#181818;stroke-width:1.0;"/><path d="M669.9688,569.2406 Q669.3906,569.5375 668.75,569.6781 Q668.1094,569.8344 667.4063,569.8344 Q664.9063,569.8344 663.5781,568.1937 Q662.2656,566.5375 662.2656,563.4125 Q662.2656,560.2875 663.5781,558.6312 Q664.9063,556.975 667.4063,556.975 Q668.1094,556.975 668.75,557.1312 Q669.4063,557.2875 669.9688,557.5844 L669.9688,560.3031 Q669.3438,559.725 668.75,559.4594 Q668.1563,559.1781 667.5313,559.1781 Q666.1875,559.1781 665.5,560.2562 Q664.8125,561.3187 664.8125,563.4125 Q664.8125,565.5062 665.5,566.5844 Q666.1875,567.6469 667.5313,567.6469 Q668.1563,567.6469 668.75,567.3812 Q669.3438,567.1 669.9688,566.5219 L669.9688,569.2406 Z " fill="#000000"/><text fill="#000000" font-family="sans-serif" font-size="14" lengthAdjust="spacing" textLength="218" x="681" y="568.4467">SewerOverflowIndicationService</text><line style="stroke:#181818;stroke-width:0.5;" x1="653" x2="901" y1="579.6" y2="579.6"/><line style="stroke:#181818;stroke-width:0.5;" x1="653" x2="901" y1="587.6" y2="587.6"/><ellipse cx="663" cy="601.2484" fill="#84BE84" rx="3" ry="3" style="stroke:#038048;stroke-width:1.0;"/><text fill="#000000" font-family="sans-serif" font-size="14" lengthAdjust="spacing" textLength="221" x="672" y="604.5951">void serve(Map&lt;String, String&gt;)</text></g><!--class FlowIndicationComponent--><g id="elem_FlowIndicationComponent"><rect codeLine="45" fill="#F1F1F1" height="64.2969" id="FlowIndicationComponent" rx="2.5" ry="2.5" style="stroke:#181818;stroke-width:0.5;" width="265" x="198.5" y="945.64"/><ellipse cx="237.8" cy="961.64" fill="#ADD1B2" rx="11" ry="11" style="stroke:#181818;stroke-width:1.0;"/><path d="M240.7688,967.2806 Q240.1906,967.5775 239.55,967.7181 Q238.9094,967.8744 238.2063,967.8744 Q235.7063,967.8744 234.3781,966.2338 Q233.0656,964.5775 233.0656,961.4525 Q233.0656,958.3275 234.3781,956.6713 Q235.7063,955.015 238.2063,955.015 Q238.9094,955.015 239.55,955.1713 Q240.2063,955.3275 240.7688,955.6244 L240.7688,958.3431 Q240.1438,957.765 239.55,957.4994 Q238.9563,957.2181 238.3313,957.2181 Q236.9875,957.2181 236.3,958.2963 Q235.6125,959.3588 235.6125,961.4525 Q235.6125,963.5463 236.3,964.6244 Q236.9875,965.6869 238.3313,965.6869 Q238.9563,965.6869 239.55,965.4213 Q240.1438,965.14 240.7688,964.5619 L240.7688,967.2806 Z " fill="#000000"/><text fill="#000000" font-family="sans-serif" font-size="14" lengthAdjust="spacing" textLength="179" x="257.2" y="966.4867">FlowIndicationComponent</text><line style="stroke:#181818;stroke-width:0.5;" x1="199.5" x2="462.5" y1="977.64" y2="977.64"/><line style="stroke:#181818;stroke-width:0.5;" x1="199.5" x2="462.5" y1="985.64" y2="985.64"/><ellipse cx="209.5" cy="999.2884" fill="#84BE84" rx="3" ry="3" style="stroke:#038048;stroke-width:1.0;"/><text fill="#000000" font-family="sans-serif" font-size="14" lengthAdjust="spacing" textLength="239" x="218.5" y="1002.6351">void execute(Map&lt;String, String&gt;)</text></g><!--class PumpIndicationComponent--><g id="elem_PumpIndicationComponent"><rect codeLine="48" fill="#F1F1F1" height="64.2969" id="PumpIndicationComponent" rx="2.5" ry="2.5" style="stroke:#181818;stroke-width:0.5;" width="265" x="498.5" y="945.64"/><ellipse cx="533.75" cy="961.64" fill="#ADD1B2" rx="11" ry="11" style="stroke:#181818;stroke-width:1.0;"/><path d="M536.7188,967.2806 Q536.1406,967.5775 535.5,967.7181 Q534.8594,967.8744 534.1563,967.8744 Q531.6563,967.8744 530.3281,966.2338 Q529.0156,964.5775 529.0156,961.4525 Q529.0156,958.3275 530.3281,956.6713 Q531.6563,955.015 534.1563,955.015 Q534.8594,955.015 535.5,955.1713 Q536.1563,955.3275 536.7188,955.6244 L536.7188,958.3431 Q536.0938,957.765 535.5,957.4994 Q534.9063,957.2181 534.2813,957.2181 Q532.9375,957.2181 532.25,958.2963 Q531.5625,959.3588 531.5625,961.4525 Q531.5625,963.5463 532.25,964.6244 Q532.9375,965.6869 534.2813,965.6869 Q534.9063,965.6869 535.5,965.4213 Q536.0938,965.14 536.7188,964.5619 L536.7188,967.2806 Z " fill="#000000"/><text fill="#000000" font-family="sans-serif" font-size="14" lengthAdjust="spacing" textLength="188" x="552.25" y="966.4867">PumpIndicationComponent</text><line style="stroke:#181818;stroke-width:0.5;" x1="499.5" x2="762.5" y1="977.64" y2="977.64"/><line style="stroke:#181818;stroke-width:0.5;" x1="499.5" x2="762.5" y1="985.64" y2="985.64"/><ellipse cx="509.5" cy="999.2884" fill="#84BE84" rx="3" ry="3" style="stroke:#038048;stroke-width:1.0;"/><text fill="#000000" font-family="sans-serif" font-size="14" lengthAdjust="spacing" textLength="239" x="518.5" y="1002.6351">void execute(Map&lt;String, String&gt;)</text></g><!--class RainIndicationComponent--><g id="elem_RainIndicationComponent"><rect codeLine="51" fill="#F1F1F1" height="64.2969" id="RainIndicationComponent" rx="2.5" ry="2.5" style="stroke:#181818;stroke-width:0.5;" width="265" x="798.5" y="945.64"/><ellipse cx="838.25" cy="961.64" fill="#ADD1B2" rx="11" ry="11" style="stroke:#181818;stroke-width:1.0;"/><path d="M841.2188,967.2806 Q840.6406,967.5775 840,967.7181 Q839.3594,967.8744 838.6563,967.8744 Q836.1563,967.8744 834.8281,966.2338 Q833.5156,964.5775 833.5156,961.4525 Q833.5156,958.3275 834.8281,956.6713 Q836.1563,955.015 838.6563,955.015 Q839.3594,955.015 840,955.1713 Q840.6563,955.3275 841.2188,955.6244 L841.2188,958.3431 Q840.5938,957.765 840,957.4994 Q839.4063,957.2181 838.7813,957.2181 Q837.4375,957.2181 836.75,958.2963 Q836.0625,959.3588 836.0625,961.4525 Q836.0625,963.5463 836.75,964.6244 Q837.4375,965.6869 838.7813,965.6869 Q839.4063,965.6869 840,965.4213 Q840.5938,965.14 841.2188,964.5619 L841.2188,967.2806 Z " fill="#000000"/><text fill="#000000" font-family="sans-serif" font-size="14" lengthAdjust="spacing" textLength="178" x="857.75" y="966.4867">RainIndicationComponent</text><line style="stroke:#181818;stroke-width:0.5;" x1="799.5" x2="1062.5" y1="977.64" y2="977.64"/><line style="stroke:#181818;stroke-width:0.5;" x1="799.5" x2="1062.5" y1="985.64" y2="985.64"/><ellipse cx="809.5" cy="999.2884" fill="#84BE84" rx="3" ry="3" style="stroke:#038048;stroke-width:1.0;"/><text fill="#000000" font-family="sans-serif" font-size="14" lengthAdjust="spacing" textLength="239" x="818.5" y="1002.6351">void execute(Map&lt;String, String&gt;)</text></g><!--class SewerOverflowIndicationComponent--><g id="elem_SewerOverflowIndicationComponent"><rect codeLine="54" fill="#F1F1F1" height="64.2969" id="SewerOverflowIndicationComponent" rx="2.5" ry="2.5" style="stroke:#181818;stroke-width:0.5;" width="282" x="636" y="671.89"/><ellipse cx="651" cy="687.89" fill="#ADD1B2" rx="11" ry="11" style="stroke:#181818;stroke-width:1.0;"/><path d="M653.9688,693.5306 Q653.3906,693.8275 652.75,693.9681 Q652.1094,694.1244 651.4063,694.1244 Q648.9063,694.1244 647.5781,692.4837 Q646.2656,690.8275 646.2656,687.7025 Q646.2656,684.5775 647.5781,682.9212 Q648.9063,681.265 651.4063,681.265 Q652.1094,681.265 652.75,681.4212 Q653.4063,681.5775 653.9688,681.8744 L653.9688,684.5931 Q653.3438,684.015 652.75,683.7494 Q652.1563,683.4681 651.5313,683.4681 Q650.1875,683.4681 649.5,684.5462 Q648.8125,685.6087 648.8125,687.7025 Q648.8125,689.7962 649.5,690.8744 Q650.1875,691.9369 651.5313,691.9369 Q652.1563,691.9369 652.75,691.6712 Q653.3438,691.39 653.9688,690.8119 L653.9688,693.5306 Z " fill="#000000"/><text fill="#000000" font-family="sans-serif" font-size="14" lengthAdjust="spacing" textLength="250" x="665" y="692.7367">SewerOverflowIndicationComponent</text><line style="stroke:#181818;stroke-width:0.5;" x1="637" x2="917" y1="703.89" y2="703.89"/><line style="stroke:#181818;stroke-width:0.5;" x1="637" x2="917" y1="711.89" y2="711.89"/><ellipse cx="647" cy="725.5384" fill="#84BE84" rx="3" ry="3" style="stroke:#038048;stroke-width:1.0;"/><text fill="#000000" font-family="sans-serif" font-size="14" lengthAdjust="spacing" textLength="239" x="656" y="728.8851">void execute(Map&lt;String, String&gt;)</text></g><!--class SewerObservationService--><g id="elem_SewerObservationService"><rect codeLine="57" fill="#F1F1F1" height="64.2969" id="SewerObservationService" rx="2.5" ry="2.5" style="stroke:#181818;stroke-width:0.5;" width="208" x="1508" y="547.6"/><ellipse cx="1523" cy="563.6" fill="#ADD1B2" rx="11" ry="11" style="stroke:#181818;stroke-width:1.0;"/><path d="M1525.9688,569.2406 Q1525.3906,569.5375 1524.75,569.6781 Q1524.1094,569.8344 1523.4063,569.8344 Q1520.9063,569.8344 1519.5781,568.1937 Q1518.2656,566.5375 1518.2656,563.4125 Q1518.2656,560.2875 1519.5781,558.6312 Q1520.9063,556.975 1523.4063,556.975 Q1524.1094,556.975 1524.75,557.1312 Q1525.4063,557.2875 1525.9688,557.5844 L1525.9688,560.3031 Q1525.3438,559.725 1524.75,559.4594 Q1524.1563,559.1781 1523.5313,559.1781 Q1522.1875,559.1781 1521.5,560.2562 Q1520.8125,561.3187 1520.8125,563.4125 Q1520.8125,565.5062 1521.5,566.5844 Q1522.1875,567.6469 1523.5313,567.6469 Q1524.1563,567.6469 1524.75,567.3812 Q1525.3438,567.1 1525.9688,566.5219 L1525.9688,569.2406 Z " fill="#000000"/><text fill="#000000" font-family="sans-serif" font-size="14" lengthAdjust="spacing" textLength="176" x="1537" y="568.4467">SewerObservationService</text><line style="stroke:#181818;stroke-width:0.5;" x1="1509" x2="1715" y1="579.6" y2="579.6"/><line style="stroke:#181818;stroke-width:0.5;" x1="1509" x2="1715" y1="587.6" y2="587.6"/><ellipse cx="1519" cy="601.2484" fill="#84BE84" rx="3" ry="3" style="stroke:#038048;stroke-width:1.0;"/><text fill="#000000" font-family="sans-serif" font-size="14" lengthAdjust="spacing" textLength="182" x="1528" y="604.5951">Set&lt;Sewer&gt; serve(String)</text></g><!--class SewerObservationComponent--><g id="elem_SewerObservationComponent"><rect codeLine="60" fill="#F1F1F1" height="64.2969" id="SewerObservationComponent" rx="2.5" ry="2.5" style="stroke:#181818;stroke-width:0.5;" width="240" x="1492" y="671.89"/><ellipse cx="1507" cy="687.89" fill="#ADD1B2" rx="11" ry="11" style="stroke:#181818;stroke-width:1.0;"/><path d="M1509.9688,693.5306 Q1509.3906,693.8275 1508.75,693.9681 Q1508.1094,694.1244 1507.4063,694.1244 Q1504.9063,694.1244 1503.5781,692.4837 Q1502.2656,690.8275 1502.2656,687.7025 Q1502.2656,684.5775 1503.5781,682.9212 Q1504.9063,681.265 1507.4063,681.265 Q1508.1094,681.265 1508.75,681.4212 Q1509.4063,681.5775 1509.9688,681.8744 L1509.9688,684.5931 Q1509.3438,684.015 1508.75,683.7494 Q1508.1563,683.4681 1507.5313,683.4681 Q1506.1875,683.4681 1505.5,684.5462 Q1504.8125,685.6087 1504.8125,687.7025 Q1504.8125,689.7962 1505.5,690.8744 Q1506.1875,691.9369 1507.5313,691.9369 Q1508.1563,691.9369 1508.75,691.6712 Q1509.3438,691.39 1509.9688,690.8119 L1509.9688,693.5306 Z " fill="#000000"/><text fill="#000000" font-family="sans-serif" font-size="14" lengthAdjust="spacing" textLength="208" x="1521" y="692.7367">SewerObservationComponent</text><line style="stroke:#181818;stroke-width:0.5;" x1="1493" x2="1731" y1="703.89" y2="703.89"/><line style="stroke:#181818;stroke-width:0.5;" x1="1493" x2="1731" y1="711.89" y2="711.89"/><ellipse cx="1503" cy="725.5384" fill="#84BE84" rx="3" ry="3" style="stroke:#038048;stroke-width:1.0;"/><text fill="#000000" font-family="sans-serif" font-size="14" lengthAdjust="spacing" textLength="200" x="1512" y="728.8851">Set&lt;Sewer&gt; execute(String)</text></g><!--class Sewers--><g id="elem_Sewers"><rect codeLine="63" fill="#F1F1F1" height="80.5938" id="Sewers" rx="2.5" ry="2.5" style="stroke:#181818;stroke-width:0.5;" width="220" x="1502" y="937.49"/><ellipse cx="1582.25" cy="953.49" fill="#B4A7E5" rx="11" ry="11" style="stroke:#181818;stroke-width:1.0;"/><path d="M1578.1719,949.2556 L1578.1719,947.0994 L1585.5625,947.0994 L1585.5625,949.2556 L1583.0938,949.2556 L1583.0938,957.3338 L1585.5625,957.3338 L1585.5625,959.49 L1578.1719,959.49 L1578.1719,957.3338 L1580.6406,957.3338 L1580.6406,949.2556 L1578.1719,949.2556 Z " fill="#000000"/><text fill="#000000" font-family="sans-serif" font-size="14" font-style="italic" lengthAdjust="spacing" textLength="51" x="1602.75" y="958.3367">Sewers</text><line style="stroke:#181818;stroke-width:0.5;" x1="1503" x2="1721" y1="969.49" y2="969.49"/><line style="stroke:#181818;stroke-width:0.5;" x1="1503" x2="1721" y1="977.49" y2="977.49"/><ellipse cx="1513" cy="991.1384" fill="#84BE84" rx="3" ry="3" style="stroke:#038048;stroke-width:1.0;"/><text fill="#000000" font-family="sans-serif" font-size="14" font-style="italic" lengthAdjust="spacing" textLength="194" x="1522" y="994.4851">Set&lt;Sewer&gt; observe(UUID)</text><ellipse cx="1513" cy="1007.4353" fill="#84BE84" rx="3" ry="3" style="stroke:#038048;stroke-width:1.0;"/><text fill="#000000" font-family="sans-serif" font-size="14" font-style="italic" lengthAdjust="spacing" textLength="139" x="1522" y="1010.782">void indicate(Sewer)</text></g><!--class Sewer--><g id="elem_Sewer"><rect codeLine="67" fill="#F1F1F1" height="113.1875" id="Sewer" rx="2.5" ry="2.5" style="stroke:#181818;stroke-width:0.5;" width="259" x="1207.5" y="921.19"/><ellipse cx="1311.25" cy="937.19" fill="#ADD1B2" rx="11" ry="11" style="stroke:#181818;stroke-width:1.0;"/><path d="M1314.2188,942.8306 Q1313.6406,943.1275 1313,943.2681 Q1312.3594,943.4244 1311.6563,943.4244 Q1309.1563,943.4244 1307.8281,941.7837 Q1306.5156,940.1275 1306.5156,937.0025 Q1306.5156,933.8775 1307.8281,932.2212 Q1309.1563,930.565 1311.6563,930.565 Q1312.3594,930.565 1313,930.7212 Q1313.6563,930.8775 1314.2188,931.1744 L1314.2188,933.8931 Q1313.5938,933.315 1313,933.0494 Q1312.4063,932.7681 1311.7813,932.7681 Q1310.4375,932.7681 1309.75,933.8462 Q1309.0625,934.9087 1309.0625,937.0025 Q1309.0625,939.0962 1309.75,940.1744 Q1310.4375,941.2369 1311.7813,941.2369 Q1312.4063,941.2369 1313,940.9712 Q1313.5938,940.69 1314.2188,940.1119 L1314.2188,942.8306 Z " fill="#000000"/><text fill="#000000" font-family="sans-serif" font-size="14" lengthAdjust="spacing" textLength="43" x="1331.75" y="942.0367">Sewer</text><line style="stroke:#181818;stroke-width:0.5;" x1="1208.5" x2="1465.5" y1="953.19" y2="953.19"/><line style="stroke:#181818;stroke-width:0.5;" x1="1208.5" x2="1465.5" y1="961.19" y2="961.19"/><ellipse cx="1218.5" cy="974.8384" fill="#84BE84" rx="3" ry="3" style="stroke:#038048;stroke-width:1.0;"/><text fill="#000000" font-family="sans-serif" font-size="14" lengthAdjust="spacing" textLength="83" x="1227.5" y="978.1851">UUID getId()</text><ellipse cx="1218.5" cy="991.1353" fill="#84BE84" rx="3" ry="3" style="stroke:#038048;stroke-width:1.0;"/><text fill="#000000" font-family="sans-serif" font-size="14" lengthAdjust="spacing" textLength="230" x="1227.5" y="994.482">KeyPerformanceIndicator getKpi()</text><ellipse cx="1218.5" cy="1007.4322" fill="#84BE84" rx="3" ry="3" style="stroke:#038048;stroke-width:1.0;"/><text fill="#000000" font-family="sans-serif" font-size="14" lengthAdjust="spacing" textLength="206" x="1227.5" y="1010.7789">Set&lt;Problem&gt; getProblems()</text><ellipse cx="1218.5" cy="1023.7291" fill="#84BE84" rx="3" ry="3" style="stroke:#038048;stroke-width:1.0;"/><text fill="#000000" font-family="sans-serif" font-size="14" lengthAdjust="spacing" textLength="233" x="1227.5" y="1027.0757">void setProblems(Set&lt;Problem&gt;)</text></g><!--class KeyPerformanceIndicator--><g id="elem_KeyPerformanceIndicator"><rect codeLine="73" fill="#F1F1F1" height="96.8906" id="KeyPerformanceIndicator" rx="2.5" ry="2.5" style="stroke:#181818;stroke-width:0.5;" width="279" x="1168.5" y="1133.38"/><ellipse cx="1217.75" cy="1149.38" fill="#ADD1B2" rx="11" ry="11" style="stroke:#181818;stroke-width:1.0;"/><path d="M1220.7188,1155.0206 Q1220.1406,1155.3175 1219.5,1155.4581 Q1218.8594,1155.6144 1218.1563,1155.6144 Q1215.6563,1155.6144 1214.3281,1153.9737 Q1213.0156,1152.3175 1213.0156,1149.1925 Q1213.0156,1146.0675 1214.3281,1144.4112 Q1215.6563,1142.755 1218.1563,1142.755 Q1218.8594,1142.755 1219.5,1142.9112 Q1220.1563,1143.0675 1220.7188,1143.3644 L1220.7188,1146.0831 Q1220.0938,1145.505 1219.5,1145.2394 Q1218.9063,1144.9581 1218.2813,1144.9581 Q1216.9375,1144.9581 1216.25,1146.0362 Q1215.5625,1147.0987 1215.5625,1149.1925 Q1215.5625,1151.2862 1216.25,1152.3644 Q1216.9375,1153.4269 1218.2813,1153.4269 Q1218.9063,1153.4269 1219.5,1153.1612 Q1220.0938,1152.88 1220.7188,1152.3019 L1220.7188,1155.0206 Z " fill="#000000"/><text fill="#000000" font-family="sans-serif" font-size="14" lengthAdjust="spacing" textLength="172" x="1238.25" y="1154.2267">KeyPerformanceIndicator</text><line style="stroke:#181818;stroke-width:0.5;" x1="1169.5" x2="1446.5" y1="1165.38" y2="1165.38"/><line style="stroke:#181818;stroke-width:0.5;" x1="1169.5" x2="1446.5" y1="1173.38" y2="1173.38"/><ellipse cx="1179.5" cy="1187.0284" fill="#84BE84" rx="3" ry="3" style="stroke:#038048;stroke-width:1.0;"/><text fill="#000000" font-family="sans-serif" font-size="14" lengthAdjust="spacing" textLength="253" x="1188.5" y="1190.3751">String getPumpPowerConsumption()</text><ellipse cx="1179.5" cy="1203.3253" fill="#84BE84" rx="3" ry="3" style="stroke:#038048;stroke-width:1.0;"/><text fill="#000000" font-family="sans-serif" font-size="14" lengthAdjust="spacing" textLength="108" x="1188.5" y="1206.672">String getFlow()</text><ellipse cx="1179.5" cy="1219.6222" fill="#84BE84" rx="3" ry="3" style="stroke:#038048;stroke-width:1.0;"/><text fill="#000000" font-family="sans-serif" font-size="14" lengthAdjust="spacing" textLength="140" x="1188.5" y="1222.9689">Number getRainfall()</text></g><!--class Problem--><g id="elem_Problem"><rect codeLine="78" fill="#F1F1F1" height="80.5938" id="Problem" rx="2.5" ry="2.5" style="stroke:#181818;stroke-width:0.5;" width="243" x="1504.5" y="1141.53"/><ellipse cx="1593.25" cy="1157.53" fill="#ADD1B2" rx="11" ry="11" style="stroke:#181818;stroke-width:1.0;"/><path d="M1596.2188,1163.1706 Q1595.6406,1163.4675 1595,1163.6081 Q1594.3594,1163.7644 1593.6563,1163.7644 Q1591.1563,1163.7644 1589.8281,1162.1238 Q1588.5156,1160.4675 1588.5156,1157.3425 Q1588.5156,1154.2175 1589.8281,1152.5613 Q1591.1563,1150.905 1593.6563,1150.905 Q1594.3594,1150.905 1595,1151.0613 Q1595.6563,1151.2175 1596.2188,1151.5144 L1596.2188,1154.2331 Q1595.5938,1153.655 1595,1153.3894 Q1594.4063,1153.1081 1593.7813,1153.1081 Q1592.4375,1153.1081 1591.75,1154.1863 Q1591.0625,1155.2488 1591.0625,1157.3425 Q1591.0625,1159.4363 1591.75,1160.5144 Q1592.4375,1161.5769 1593.7813,1161.5769 Q1594.4063,1161.5769 1595,1161.3113 Q1595.5938,1161.03 1596.2188,1160.4519 L1596.2188,1163.1706 Z " fill="#000000"/><text fill="#000000" font-family="sans-serif" font-size="14" lengthAdjust="spacing" textLength="57" x="1613.75" y="1162.3767">Problem</text><line style="stroke:#181818;stroke-width:0.5;" x1="1505.5" x2="1746.5" y1="1173.53" y2="1173.53"/><line style="stroke:#181818;stroke-width:0.5;" x1="1505.5" x2="1746.5" y1="1181.53" y2="1181.53"/><ellipse cx="1515.5" cy="1195.1784" fill="#84BE84" rx="3" ry="3" style="stroke:#038048;stroke-width:1.0;"/><text fill="#000000" font-family="sans-serif" font-size="14" lengthAdjust="spacing" textLength="130" x="1524.5" y="1198.5251">String getReason()</text><ellipse cx="1515.5" cy="1211.4753" fill="#84BE84" rx="3" ry="3" style="stroke:#038048;stroke-width:1.0;"/><text fill="#000000" font-family="sans-serif" font-size="14" lengthAdjust="spacing" textLength="217" x="1524.5" y="1214.822">Number getOverflowIndication()</text></g><!--class SewerIndicationUseCase--><g id="elem_SewerIndicationUseCase"><rect codeLine="82" fill="#F1F1F1" height="64.2969" id="SewerIndicationUseCase" rx="2.5" ry="2.5" style="stroke:#181818;stroke-width:0.5;" width="247" x="653.5" y="349.3"/><ellipse cx="688.3" cy="365.3" fill="#ADD1B2" rx="11" ry="11" style="stroke:#181818;stroke-width:1.0;"/><path d="M691.2688,370.9406 Q690.6906,371.2375 690.05,371.3781 Q689.4094,371.5344 688.7063,371.5344 Q686.2063,371.5344 684.8781,369.8937 Q683.5656,368.2375 683.5656,365.1125 Q683.5656,361.9875 684.8781,360.3312 Q686.2063,358.675 688.7063,358.675 Q689.4094,358.675 690.05,358.8312 Q690.7063,358.9875 691.2688,359.2844 L691.2688,362.0031 Q690.6438,361.425 690.05,361.1594 Q689.4563,360.8781 688.8313,360.8781 Q687.4875,360.8781 686.8,361.9562 Q686.1125,363.0187 686.1125,365.1125 Q686.1125,367.2062 686.8,368.2844 Q687.4875,369.3469 688.8313,369.3469 Q689.4563,369.3469 690.05,369.0812 Q690.6438,368.8 691.2688,368.2219 L691.2688,370.9406 Z " fill="#000000"/><text fill="#000000" font-family="sans-serif" font-size="14" lengthAdjust="spacing" textLength="171" x="706.7" y="370.1467">SewerIndicationUseCase</text><line style="stroke:#181818;stroke-width:0.5;" x1="654.5" x2="899.5" y1="381.3" y2="381.3"/><line style="stroke:#181818;stroke-width:0.5;" x1="654.5" x2="899.5" y1="389.3" y2="389.3"/><ellipse cx="664.5" cy="402.9484" fill="#84BE84" rx="3" ry="3" style="stroke:#038048;stroke-width:1.0;"/><text fill="#000000" font-family="sans-serif" font-size="14" lengthAdjust="spacing" textLength="221" x="673.5" y="406.2951">void serve(Map&lt;String, String&gt;)</text></g><!--class SewerObservationUseCase--><g id="elem_SewerObservationUseCase"><rect codeLine="85" fill="#F1F1F1" height="64.2969" id="SewerObservationUseCase" rx="2.5" ry="2.5" style="stroke:#181818;stroke-width:0.5;" width="220" x="1502" y="349.3"/><ellipse cx="1517" cy="365.3" fill="#ADD1B2" rx="11" ry="11" style="stroke:#181818;stroke-width:1.0;"/><path d="M1519.9688,370.9406 Q1519.3906,371.2375 1518.75,371.3781 Q1518.1094,371.5344 1517.4063,371.5344 Q1514.9063,371.5344 1513.5781,369.8937 Q1512.2656,368.2375 1512.2656,365.1125 Q1512.2656,361.9875 1513.5781,360.3312 Q1514.9063,358.675 1517.4063,358.675 Q1518.1094,358.675 1518.75,358.8312 Q1519.4063,358.9875 1519.9688,359.2844 L1519.9688,362.0031 Q1519.3438,361.425 1518.75,361.1594 Q1518.1563,360.8781 1517.5313,360.8781 Q1516.1875,360.8781 1515.5,361.9562 Q1514.8125,363.0187 1514.8125,365.1125 Q1514.8125,367.2062 1515.5,368.2844 Q1516.1875,369.3469 1517.5313,369.3469 Q1518.1563,369.3469 1518.75,369.0812 Q1519.3438,368.8 1519.9688,368.2219 L1519.9688,370.9406 Z " fill="#000000"/><text fill="#000000" font-family="sans-serif" font-size="14" lengthAdjust="spacing" textLength="188" x="1531" y="370.1467">SewerObservationUseCase</text><line style="stroke:#181818;stroke-width:0.5;" x1="1503" x2="1721" y1="381.3" y2="381.3"/><line style="stroke:#181818;stroke-width:0.5;" x1="1503" x2="1721" y1="389.3" y2="389.3"/><ellipse cx="1513" cy="402.9484" fill="#84BE84" rx="3" ry="3" style="stroke:#038048;stroke-width:1.0;"/><text fill="#000000" font-family="sans-serif" font-size="14" lengthAdjust="spacing" textLength="182" x="1522" y="406.2951">Set&lt;Sewer&gt; serve(String)</text></g><!--class SewersUseCase--><g id="elem_SewersUseCase"><rect codeLine="88" fill="#F1F1F1" height="80.5938" id="SewersUseCase" rx="2.5" ry="2.5" style="stroke:#181818;stroke-width:0.5;" width="222" x="1876" y="1326.27"/><ellipse cx="1926.25" cy="1342.27" fill="#B4A7E5" rx="11" ry="11" style="stroke:#181818;stroke-width:1.0;"/><path d="M1922.1719,1338.0356 L1922.1719,1335.8794 L1929.5625,1335.8794 L1929.5625,1338.0356 L1927.0938,1338.0356 L1927.0938,1346.1138 L1929.5625,1346.1138 L1929.5625,1348.27 L1922.1719,1348.27 L1922.1719,1346.1138 L1924.6406,1346.1138 L1924.6406,1338.0356 L1922.1719,1338.0356 Z " fill="#000000"/><text fill="#000000" font-family="sans-serif" font-size="14" font-style="italic" lengthAdjust="spacing" textLength="113" x="1946.75" y="1347.1167">SewersUseCase</text><line style="stroke:#181818;stroke-width:0.5;" x1="1877" x2="2097" y1="1358.27" y2="1358.27"/><line style="stroke:#181818;stroke-width:0.5;" x1="1877" x2="2097" y1="1366.27" y2="1366.27"/><ellipse cx="1887" cy="1379.9184" fill="#84BE84" rx="3" ry="3" style="stroke:#038048;stroke-width:1.0;"/><text fill="#000000" font-family="sans-serif" font-size="14" font-style="italic" lengthAdjust="spacing" textLength="196" x="1896" y="1383.2651">Set&lt;Object&gt; observe(UUID)</text><ellipse cx="1887" cy="1396.2153" fill="#84BE84" rx="3" ry="3" style="stroke:#038048;stroke-width:1.0;"/><text fill="#000000" font-family="sans-serif" font-size="14" font-style="italic" lengthAdjust="spacing" textLength="183" x="1896" y="1399.562">void indicate(UUID, Object)</text></g><!--class SewersUseCaseBridge--><g id="elem_SewersUseCaseBridge"><rect codeLine="92" fill="#F1F1F1" height="80.5938" id="SewersUseCaseBridge" rx="2.5" ry="2.5" style="stroke:#181818;stroke-width:0.5;" width="220" x="1876" y="1141.53"/><ellipse cx="1904.5" cy="1157.53" fill="#ADD1B2" rx="11" ry="11" style="stroke:#181818;stroke-width:1.0;"/><path d="M1907.4688,1163.1706 Q1906.8906,1163.4675 1906.25,1163.6081 Q1905.6094,1163.7644 1904.9063,1163.7644 Q1902.4063,1163.7644 1901.0781,1162.1238 Q1899.7656,1160.4675 1899.7656,1157.3425 Q1899.7656,1154.2175 1901.0781,1152.5613 Q1902.4063,1150.905 1904.9063,1150.905 Q1905.6094,1150.905 1906.25,1151.0613 Q1906.9063,1151.2175 1907.4688,1151.5144 L1907.4688,1154.2331 Q1906.8438,1153.655 1906.25,1153.3894 Q1905.6563,1153.1081 1905.0313,1153.1081 Q1903.6875,1153.1081 1903,1154.1863 Q1902.3125,1155.2488 1902.3125,1157.3425 Q1902.3125,1159.4363 1903,1160.5144 Q1903.6875,1161.5769 1905.0313,1161.5769 Q1905.6563,1161.5769 1906.25,1161.3113 Q1906.8438,1161.03 1907.4688,1160.4519 L1907.4688,1163.1706 Z " fill="#000000"/><text fill="#000000" font-family="sans-serif" font-size="14" lengthAdjust="spacing" textLength="158" x="1921.5" y="1162.3767">SewersUseCaseBridge</text><line style="stroke:#181818;stroke-width:0.5;" x1="1877" x2="2095" y1="1173.53" y2="1173.53"/><line style="stroke:#181818;stroke-width:0.5;" x1="1877" x2="2095" y1="1181.53" y2="1181.53"/><ellipse cx="1887" cy="1195.1784" fill="#84BE84" rx="3" ry="3" style="stroke:#038048;stroke-width:1.0;"/><text fill="#000000" font-family="sans-serif" font-size="14" lengthAdjust="spacing" textLength="194" x="1896" y="1198.5251">Set&lt;Sewer&gt; observe(UUID)</text><ellipse cx="1887" cy="1211.4753" fill="#84BE84" rx="3" ry="3" style="stroke:#038048;stroke-width:1.0;"/><text fill="#000000" font-family="sans-serif" font-size="14" lengthAdjust="spacing" textLength="139" x="1896" y="1214.822">void indicate(Sewer)</text></g><g id="elem_GMN59"><path d="M2277.5,170.59 L2277.5,195.7228 L2748.5,195.7228 L2748.5,180.59 L2738.5,170.59 L2277.5,170.59 " fill="#FEFFDD" style="stroke:#181818;stroke-width:0.5;"/><path d="M2738.5,170.59 L2738.5,180.59 L2748.5,180.59 L2738.5,170.59 " fill="#FEFFDD" style="stroke:#181818;stroke-width:1.0;"/><text fill="#000000" font-family="sans-serif" font-size="13" lengthAdjust="spacing" textLength="450" x="2283.5" y="187.6569">Frameworks and tools such as the Database, the Web Framework, etc.</text></g><g id="elem_GMN62"><path d="M2784,170.59 L2784,195.7228 L3890,195.7228 L3890,180.59 L3880,170.59 L2784,170.59 " fill="#FEFFDD" style="stroke:#181818;stroke-width:0.5;"/><path d="M3880,170.59 L3880,180.59 L3890,180.59 L3880,170.59 " fill="#FEFFDD" style="stroke:#181818;stroke-width:1.0;"/><text fill="#000000" font-family="sans-serif" font-size="13" lengthAdjust="spacing" textLength="1085" x="2790" y="187.6569">Convert data from the format most convenient for the use cases and entities, to the format most convenient for some external agency such as the Database or the Web.</text></g><g id="elem_GMN65"><path d="M2273.5,368.88 L2273.5,394.0128 L2946.5,394.0128 L2946.5,378.88 L2936.5,368.88 L2273.5,368.88 " fill="#FEFFDD" style="stroke:#181818;stroke-width:0.5;"/><path d="M2936.5,368.88 L2936.5,378.88 L2946.5,378.88 L2936.5,368.88 " fill="#FEFFDD" style="stroke:#181818;stroke-width:1.0;"/><text fill="#000000" font-family="sans-serif" font-size="13" lengthAdjust="spacing" textLength="652" x="2279.5" y="385.9469">Application specific business rules. It encapsulates and implements all of the use cases of the system.</text></g><g id="elem_GMN68"><path d="M2274.5,567.18 L2274.5,592.3128 L3213.5,592.3128 L3213.5,577.18 L3203.5,567.18 L2274.5,567.18 " fill="#FEFFDD" style="stroke:#181818;stroke-width:0.5;"/><path d="M3203.5,567.18 L3203.5,577.18 L3213.5,577.18 L3203.5,567.18 " fill="#FEFFDD" style="stroke:#181818;stroke-width:1.0;"/><text fill="#000000" font-family="sans-serif" font-size="13" lengthAdjust="spacing" textLength="918" x="2280.5" y="584.2469">Entities encapsulate Enterprise wide business rules. An entity can be an object with methods, or it can be a set of data structures and functions.</text></g><!--link drivers to GMN59--><g id="link_drivers_GMN59"><path d="M2250.0639,184.05 C2250.7473,184.05 2251.4706,184.05 2252.2325,184.05 C2258.3275,184.05 2266.89,184.05 2277.22,184.05 " fill="none" id="drivers-GMN59" style="stroke:#181818;stroke-width:1.0;stroke-dasharray:7.0,7.0;"/></g><!--link adapters to GMN62--><g id="link_adapters_GMN62"><path d="M2202.4871,206.05 C2202.8122,206.05 2203.1462,206.05 2203.489,206.05 C2204.1746,206.05 2204.8954,206.05 2205.6508,206.05 C2207.1616,206.05 2208.8106,206.05 2210.5928,206.05 C2214.1572,206.05 2218.2542,206.05 2222.8428,206.05 C2241.1973,206.05 2267.418,206.05 2298.8828,206.05 C2361.8125,206.05 2445.7188,206.05 2529.625,206.05 C2697.4375,206.05 2865.25,206.05 2865.25,206.05 C2865.25,206.05 2865.25,201.35 2865.25,196.21 " fill="none" id="adapters-GMN62" style="stroke:#181818;stroke-width:1.0;stroke-dasharray:7.0,7.0;"/></g><!--link use_cases to GMN65--><g id="link_use_cases_GMN65"><path d="M2154.1422,382.05 C2154.2285,382.05 2154.3154,382.05 2154.4029,382.05 C2154.578,382.05 2154.7557,382.05 2154.9359,382.05 C2155.2964,382.05 2155.667,382.05 2156.0478,382.05 C2156.8094,382.05 2157.6113,382.05 2158.4527,382.05 C2165.1834,382.05 2174.4356,382.05 2185.6938,382.05 C2208.21,382.05 2238.75,382.05 2273.19,382.05 " fill="none" id="use_cases-GMN65" style="stroke:#181818;stroke-width:1.0;stroke-dasharray:7.0,7.0;"/></g><!--link entities to GMN68--><g id="link_entities_GMN68"><path d="M1828.0487,580.05 C1828.228,580.05 1828.4101,580.05 1828.5952,580.05 C1828.9653,580.05 1829.3468,580.05 1829.7397,580.05 C1831.3113,580.05 1833.0647,580.05 1834.9937,580.05 C1842.7096,580.05 1853.2348,580.05 1866.1734,580.05 C1892.0506,580.05 1927.5813,580.05 1969.5975,580.05 C2053.63,580.05 2163.605,580.05 2274.18,580.05 " fill="none" id="entities-GMN68" style="stroke:#181818;stroke-width:1.0;stroke-dasharray:7.0,7.0;"/></g><!--link SewerIndicationAdapter to SewerIndicationUseCase--><g id="link_SewerIndicationAdapter_SewerIndicationUseCase"><path codeLine="108" d="M777,215.45 C777,252.22 777,305.94 777,342.83 " fill="none" id="SewerIndicationAdapter-to-SewerIndicationUseCase" style="stroke:#181818;stroke-width:1.0;"/><polygon fill="#181818" points="777,348.83,781,339.83,777,343.83,773,339.83,777,348.83" style="stroke:#181818;stroke-width:1.0;"/></g><!--link SewerObservationAdapter to SewerObservationUseCase--><g id="link_SewerObservationAdapter_SewerObservationUseCase"><path codeLine="109" d="M1612,215.45 C1612,252.22 1612,305.94 1612,342.83 " fill="none" id="SewerObservationAdapter-to-SewerObservationUseCase" style="stroke:#181818;stroke-width:1.0;"/><polygon fill="#181818" points="1612,348.83,1616,339.83,1612,343.83,1608,339.83,1612,348.83" style="stroke:#181818;stroke-width:1.0;"/></g><!--reverse link SewersUseCase to SewersAdapterBridge--><g id="link_SewersUseCase_SewersAdapterBridge"><path codeLine="110" d="M1987,1425.09 C1987,1458.66 1987,1488.13 1987,1521.68 " fill="none" id="SewersUseCase-backto-SewersAdapterBridge" style="stroke:#181818;stroke-width:1.0;stroke-dasharray:7.0,7.0;"/><polygon fill="none" points="1987,1407.09,1981,1425.09,1993,1425.09,1987,1407.09" style="stroke:#181818;stroke-width:1.0;"/></g><!--link SewersAdapterBridge to SewersAdapter--><g id="link_SewersAdapterBridge_SewersAdapter"><path codeLine="111" d="M1987,1602.82 C1987,1621.48 1987,1637.54 1987,1656.18 " fill="none" id="SewersAdapterBridge-to-SewersAdapter" style="stroke:#181818;stroke-width:1.0;"/><polygon fill="#181818" points="1987,1662.18,1991,1653.18,1987,1657.18,1983,1653.18,1987,1662.18" style="stroke:#181818;stroke-width:1.0;"/></g><!--link SewerOverflowIndicationService to SewerOverflowIndicationComponent--><g id="link_SewerOverflowIndicationService_SewerOverflowIndicationComponent"><path codeLine="112" d="M777,612.08 C777,630.35 777,647.12 777,665.44 " fill="none" id="SewerOverflowIndicationService-to-SewerOverflowIndicationComponent" style="stroke:#181818;stroke-width:1.0;"/><polygon fill="#181818" points="777,671.44,781,662.44,777,666.44,773,662.44,777,671.44" style="stroke:#181818;stroke-width:1.0;"/></g><!--link SewerOverflowIndicationComponent to Sewers--><g id="link_SewerOverflowIndicationComponent_Sewers"><path codeLine="113" d="M918.27,704.05 C1123.33,704.05 1479.25,704.05 1479.25,704.05 C1479.25,704.05 1479.25,978.05 1479.25,978.05 C1479.25,978.05 1482.34,978.05 1495.77,978.05 " fill="none" id="SewerOverflowIndicationComponent-to-Sewers" style="stroke:#181818;stroke-width:1.0;"/><polygon fill="#181818" points="1501.77,978.05,1492.77,974.05,1496.77,978.05,1492.77,982.05,1501.77,978.05" style="stroke:#181818;stroke-width:1.0;"/></g><!--link SewerOverflowIndicationComponent to RainIndicationComponent--><g id="link_SewerOverflowIndicationComponent_RainIndicationComponent"><path codeLine="114" d="M858.25,736.52 C858.25,789.2 858.25,886.69 858.25,939.35 " fill="none" id="SewerOverflowIndicationComponent-to-RainIndicationComponent" style="stroke:#181818;stroke-width:1.0;"/><polygon fill="#181818" points="858.25,945.35,862.25,936.35,858.25,940.35,854.25,936.35,858.25,945.35" style="stroke:#181818;stroke-width:1.0;"/></g><!--link SewerOverflowIndicationComponent to PumpIndicationComponent--><g id="link_SewerOverflowIndicationComponent_PumpIndicationComponent"><path codeLine="115" d="M699.75,736.52 C699.75,789.2 699.75,886.69 699.75,939.35 " fill="none" id="SewerOverflowIndicationComponent-to-PumpIndicationComponent" style="stroke:#181818;stroke-width:1.0;"/><polygon fill="#181818" points="699.75,945.35,703.75,936.35,699.75,940.35,695.75,936.35,699.75,945.35" style="stroke:#181818;stroke-width:1.0;"/></g><!--link SewerOverflowIndicationComponent to FlowIndicationComponent--><g id="link_SewerOverflowIndicationComponent_FlowIndicationComponent"><path codeLine="116" d="M635.58,704.05 C504.95,704.05 331,704.05 331,704.05 C331,704.05 331,866.8 331,939.31 " fill="none" id="SewerOverflowIndicationComponent-to-FlowIndicationComponent" style="stroke:#181818;stroke-width:1.0;"/><polygon fill="#181818" points="331,945.31,335,936.31,331,940.31,327,936.31,331,945.31" style="stroke:#181818;stroke-width:1.0;"/></g><!--link SewerObservationService to SewerObservationComponent--><g id="link_SewerObservationService_SewerObservationComponent"><path codeLine="117" d="M1612,612.08 C1612,630.35 1612,647.12 1612,665.44 " fill="none" id="SewerObservationService-to-SewerObservationComponent" style="stroke:#181818;stroke-width:1.0;"/><polygon fill="#181818" points="1612,671.44,1616,662.44,1612,666.44,1608,662.44,1612,671.44" style="stroke:#181818;stroke-width:1.0;"/></g><!--link SewerObservationComponent to Sewers--><g id="link_SewerObservationComponent_Sewers"><path codeLine="118" d="M1612,736.52 C1612,786.65 1612,876.8 1612,931.36 " fill="none" id="SewerObservationComponent-to-Sewers" style="stroke:#181818;stroke-width:1.0;"/><polygon fill="#181818" points="1612,937.36,1616,928.36,1612,932.36,1608,928.36,1612,937.36" style="stroke:#181818;stroke-width:1.0;"/></g><!--link Sewer to Problem--><g id="link_Sewer_Problem"><path codeLine="119" d="M1457,1034.68 C1457,1095.12 1457,1182.05 1457,1182.05 C1457,1182.05 1471.43,1182.05 1498.08,1182.05 " fill="none" id="Sewer-to-Problem" style="stroke:#181818;stroke-width:1.0;"/><polygon fill="#181818" points="1504.08,1182.05,1495.08,1178.05,1499.08,1182.05,1495.08,1186.05,1504.08,1182.05" style="stroke:#181818;stroke-width:1.0;"/></g><!--link Sewer to KeyPerformanceIndicator--><g id="link_Sewer_KeyPerformanceIndicator"><path codeLine="120" d="M1327.5,1034.62 C1327.5,1065.51 1327.5,1097.34 1327.5,1126.91 " fill="none" id="Sewer-to-KeyPerformanceIndicator" style="stroke:#181818;stroke-width:1.0;"/><polygon fill="#181818" points="1327.5,1132.91,1331.5,1123.91,1327.5,1127.91,1323.5,1123.91,1327.5,1132.91" style="stroke:#181818;stroke-width:1.0;"/></g><!--link SewerIndicationUseCase to SewerOverflowIndicationService--><g id="link_SewerIndicationUseCase_SewerOverflowIndicationService"><path codeLine="121" d="M777,413.75 C777,450.51 777,504.23 777,541.13 " fill="none" id="SewerIndicationUseCase-to-SewerOverflowIndicationService" style="stroke:#181818;stroke-width:1.0;"/><polygon fill="#181818" points="777,547.13,781,538.13,777,542.13,773,538.13,777,547.13" style="stroke:#181818;stroke-width:1.0;"/></g><!--link SewerObservationUseCase to SewerObservationService--><g id="link_SewerObservationUseCase_SewerObservationService"><path codeLine="122" d="M1612,413.75 C1612,450.51 1612,504.23 1612,541.13 " fill="none" id="SewerObservationUseCase-to-SewerObservationService" style="stroke:#181818;stroke-width:1.0;"/><polygon fill="#181818" points="1612,547.13,1616,538.13,1612,542.13,1608,538.13,1612,547.13" style="stroke:#181818;stroke-width:1.0;"/></g><!--reverse link Sewers to SewersUseCaseBridge--><g id="link_Sewers_SewersUseCaseBridge"><path codeLine="123" d="M1740.44,978.05 C1850.74,978.05 1986,978.05 1986,978.05 C1986,978.05 1986,1081.61 1986,1141.08 " fill="none" id="Sewers-backto-SewersUseCaseBridge" style="stroke:#181818;stroke-width:1.0;stroke-dasharray:7.0,7.0;"/><polygon fill="none" points="1722.44,978.05,1740.44,984.05,1740.44,972.05,1722.44,978.05" style="stroke:#181818;stroke-width:1.0;"/></g><!--link SewersUseCaseBridge to SewersUseCase--><g id="link_SewersUseCaseBridge_SewersUseCase"><path codeLine="124" d="M1986,1222.37 C1986,1253.06 1986,1289.05 1986,1319.8 " fill="none" id="SewersUseCaseBridge-to-SewersUseCase" style="stroke:#181818;stroke-width:1.0;"/><polygon fill="#181818" points="1986,1325.8,1990,1316.8,1986,1320.8,1982,1316.8,1986,1325.8" style="stroke:#181818;stroke-width:1.0;"/></g><!--SRC=[tLXDR-Cs4BthLx3snK6pH57qq00B0sbs0mIBDi46GOy5HOrirX8fa5IoHfh_tg4as_A7RDaMjHyds_9mtdkZuGmvFsMQJL96SWDtqe9E8HBCmWFZCpO1GsAM60ZCJCYCQPQIH4Ymymo8qdQg0ZDLByJWEb3kQP2LwqYanJDeGvWX4L2kqep9ESsqieKTDV02cYwiXcOs3vCSoElRqWEBM6PRkw1By-7llyPn-5lTLQXo6J4zFz8L5J8I78D1bmw6YKYX2zSgDA2VVNWk7fizZl5D_yEPWMCZIrSBXt5ynQwkwbv1Mc756KxfqiCmvd4K_j95CBQzjtcfN4chLU83Z2vy3vLcSWAUH1vEh-uqRcBr9B6qx4FWEj8-USMIkJT8Mldtkq5AoracUWnk7Qt70E-2xJF8k39C8Eqnq9k8FGQx2Tfhm3ssy1M8lsQ-mcXiwm5Fc35ayEWCxagvGidhqiNWx3CFtUsOl0Q4_FoiH4GAyQD7guMSN0HlQuJkYz2SnMYhlpGuBXazWdr_7_uBt8wtY0btm8qPXugSEPNInikWQzvA7kILXSPgnkrRdL8bPlJqTFVXOiEk2EOY_eN59IdNRKPr0VM75j44kgLV-jmEvXRpzdJl4JvErCigYHxHbU37CszrnDgFkPMuVxBiVPaZbwJy7DS4tAxvk46YIYBsmEVXa3Q0rgZ35-2vFKJ-8K-ptiatW1vD_ZCJidVo3Q17as_8mPvK748_KSwgv7QuVm-MzxLzwofIOJ1kstOw3NdJNOSsecxHNWHyJriQT7-3A1tlR4qLh_QTgLYm6V61xrjFAQ5Ku3YI2TYxQ5HG_GJp1moXqYcJ7Ag4LzgPVCf4QUEaFfH7qB7xe_fkHXUrVh1wMZUlQMr06lHn9Q5DCiiKA_AfK8O5-46Xinib3Nvt-LZ5O6dZEapvxAyy3Q48bQjzCKkIKRs3b24Oz7KBe1NWfgRFmCn2nOhnTeaRRURbwgyd0pV8QD3XPOBkXZZoYB5PEyudUh2chX7TKrEtIjFvt7OVFjS8-JqxLr0ddfrR2jayHJSLsORAAfK5eiLaQecAM_0BRZLBuKNfcI5CHiGgbHXYSZvr-kmKo0TcMOZ4BejVVqD8baik2LXE0y1r3lTey6Lm0Ymu-C2I2C58h5LQW1K5ov9K6Ulc6SyWXMkC-BZu6oDAgdaqCbYK2-If3gqs2g_0y0MX9Ki8thCbd-yKJIeebDs5pbKI1DTPbbIRdvWCk8W59s5kX0JCE9qdc2Zapg8ipZAJ9_YMIvqYpR3CeHBycIIEm7eigWTcRYnMoqv9Bqjoy74nSg_H8n_Tdi-qG2el8e8jDTToCHdYJ98GK0xcjTjgQ6-d90KxLH6-G0owi4iZrrqBoYutSDVctEQw2aQSI-v2Q6f2lGmjthqRUwxzWPVHnkcysxQ2eEi10itfVsCVfRLpfiS6Tw_FeEznnkcfqS55ClXwLzWETE-y8ttVaewURFoeSXkcK3-gt5i_-xFrSAO3SSVFLeB-fpdVQjLfCphfZ7lBE_ntfUc4kKlWUOhWfM3iFqq4dkSDFif4GqaA_DtgppdQUYa3RKYV7lgztly7]--></g></svg>