<svg xmlns="http://www.w3.org/2000/svg" xmlns:xlink="http://www.w3.org/1999/xlink" contentStyleType="text/css" height="1838px" preserveAspectRatio="none" style="width:3897px;height:1838px;background:#FFFFFF;" version="1.1" viewBox="0 0 3897 1838" width="3897px" zoomAndPan="magnify"><defs/><g><!--cluster drivers--><g id="cluster_drivers"><path d="M8.5,6 L304.5,6 A3.75,3.75 0 0 1 307,8.5 L314,28.2969 L2247.5,28.2969 A2.5,2.5 0 0 1 2250,30.7969 L2250,1828.55 A2.5,2.5 0 0 1 2247.5,1831.05 L8.5,1831.05 A2.5,2.5 0 0 1 6,1828.55 L6,8.5 A2.5,2.5 0 0 1 8.5,6 " fill="#87CEEB" style="stroke:#000000;stroke-width:1.5;"/><line style="stroke:#000000;stroke-width:1.5;" x1="6" x2="314" y1="28.2969" y2="28.2969"/><text fill="#000000" font-family="sans-serif" font-size="14" font-weight="bold" lengthAdjust="spacing" textLength="295" x="10" y="20.9951">de.company.prototype.sewer.drivers</text></g><!--cluster adapters--><g id="cluster_adapters"><path d="M48.5,65 L119.5,65 A3.75,3.75 0 0 1 122,67.5 L129,87.2969 L2199.5,87.2969 A2.5,2.5 0 0 1 2202,89.7969 L2202,1788.55 A2.5,2.5 0 0 1 2199.5,1791.05 L48.5,1791.05 A2.5,2.5 0 0 1 46,1788.55 L46,67.5 A2.5,2.5 0 0 1 48.5,65 " fill="#82FFB4" style="stroke:#000000;stroke-width:1.5;"/><line style="stroke:#000000;stroke-width:1.5;" x1="46" x2="129" y1="87.2969" y2="87.2969"/><text fill="#000000" font-family="sans-serif" font-size="14" font-weight="bold" lengthAdjust="spacing" textLength="70" x="50" y="79.9951">adapters</text></g><!--cluster boundary--><g id="cluster_boundary"><path d="M812.5,116 L955.5,116 A3.75,3.75 0 0 1 958,118.5 L965,138.2969 L1033.5,138.2969 A2.5,2.5 0 0 1 1036,140.7969 L1036,228.8 A2.5,2.5 0 0 1 1033.5,231.3 L812.5,231.3 A2.5,2.5 0 0 1 810,228.8 L810,118.5 A2.5,2.5 0 0 1 812.5,116 " fill="#00FF00" style="stroke:#000000;stroke-width:1.5;"/><line style="stroke:#000000;stroke-width:1.5;" x1="810" x2="965" y1="138.2969" y2="138.2969"/><text fill="#000000" font-family="sans-serif" font-size="14" font-weight="bold" lengthAdjust="spacing" textLength="142" x="814" y="130.9951">indicate.boundary</text></g><!--cluster boundary--><g id="cluster_boundary"><path d="M1508.5,116 L1654.5,116 A3.75,3.75 0 0 1 1657,118.5 L1664,138.2969 L1747.5,138.2969 A2.5,2.5 0 0 1 1750,140.7969 L1750,228.8 A2.5,2.5 0 0 1 1747.5,231.3 L1508.5,231.3 A2.5,2.5 0 0 1 1506,228.8 L1506,118.5 A2.5,2.5 0 0 1 1508.5,116 " fill="#00FF00" style="stroke:#000000;stroke-width:1.5;"/><line style="stroke:#000000;stroke-width:1.5;" x1="1506" x2="1664" y1="138.2969" y2="138.2969"/><text fill="#000000" font-family="sans-serif" font-size="14" font-weight="bold" lengthAdjust="spacing" textLength="145" x="1510" y="130.9951">observe.boundary</text></g><!--cluster boundary--><g id="cluster_boundary"><path d="M1862.5,1486.86 L2002.5,1486.86 A3.75,3.75 0 0 1 2005,1489.36 L2012,1509.1569 L2111.5,1509.1569 A2.5,2.5 0 0 1 2114,1511.6569 L2114,1756.55 A2.5,2.5 0 0 1 2111.5,1759.05 L1862.5,1759.05 A2.5,2.5 0 0 1 1860,1756.55 L1860,1489.36 A2.5,2.5 0 0 1 1862.5,1486.86 " fill="#00FF00" style="stroke:#000000;stroke-width:1.5;"/><line style="stroke:#000000;stroke-width:1.5;" x1="1860" x2="2012" y1="1509.1569" y2="1509.1569"/><text fill="#000000" font-family="sans-serif" font-size="14" font-weight="bold" lengthAdjust="spacing" textLength="139" x="1864" y="1501.8551">sewers.boundary</text></g><!--cluster use_cases--><g id="cluster_use_cases"><path d="M88.5,263.3 L171.5,263.3 A3.75,3.75 0 0 1 174,265.8 L181,285.5969 L2151.5,285.5969 A2.5,2.5 0 0 1 2154,288.0969 L2154,1452.36 A2.5,2.5 0 0 1 2151.5,1454.86 L88.5,1454.86 A2.5,2.5 0 0 1 86,1452.36 L86,265.8 A2.5,2.5 0 0 1 88.5,263.3 " fill="#FF9A99" style="stroke:#000000;stroke-width:1.5;"/><line style="stroke:#000000;stroke-width:1.5;" x1="86" x2="181" y1="285.5969" y2="285.5969"/><text fill="#000000" font-family="sans-serif" font-size="14" font-weight="bold" lengthAdjust="spacing" textLength="82" x="90" y="278.2951">use_cases</text></g><!--cluster entities--><g id="cluster_entities"><path d="M128.5,461.6 L188.5,461.6 A3.75,3.75 0 0 1 191,464.1 L198,483.8969 L1825.5,483.8969 A2.5,2.5 0 0 1 1828,486.3969 L1828,1299.77 A2.5,2.5 0 0 1 1825.5,1302.27 L128.5,1302.27 A2.5,2.5 0 0 1 126,1299.77 L126,464.1 A2.5,2.5 0 0 1 128.5,461.6 " fill="#FCFDB0" style="stroke:#000000;stroke-width:1.5;"/><line style="stroke:#000000;stroke-width:1.5;" x1="126" x2="198" y1="483.8969" y2="483.8969"/><text fill="#000000" font-family="sans-serif" font-size="14" font-weight="bold" lengthAdjust="spacing" textLength="59" x="130" y="476.5951">entities</text></g><!--cluster boundary--><g id="cluster_boundary"><path d="M160.5,512.6 L303.5,512.6 A3.75,3.75 0 0 1 306,515.1 L313,534.8969 L1101.5,534.8969 A2.5,2.5 0 0 1 1104,537.3969 L1104,1047.43 A2.5,2.5 0 0 1 1101.5,1049.93 L160.5,1049.93 A2.5,2.5 0 0 1 158,1047.43 L158,515.1 A2.5,2.5 0 0 1 160.5,512.6 " fill="#00FF00" style="stroke:#000000;stroke-width:1.5;"/><line style="stroke:#000000;stroke-width:1.5;" x1="158" x2="313" y1="534.8969" y2="534.8969"/><text fill="#000000" font-family="sans-serif" font-size="14" font-weight="bold" lengthAdjust="spacing" textLength="142" x="162" y="527.5951">indicate.boundary</text></g><!--cluster control--><g id="cluster_control"><path d="M184.5,636.89 L241.5,636.89 A3.75,3.75 0 0 1 244,639.39 L251,659.1869 L1077.5,659.1869 A2.5,2.5 0 0 1 1080,661.6869 L1080,1023.43 A2.5,2.5 0 0 1 1077.5,1025.93 L184.5,1025.93 A2.5,2.5 0 0 1 182,1023.43 L182,639.39 A2.5,2.5 0 0 1 184.5,636.89 " fill="#FFA500" style="stroke:#000000;stroke-width:1.5;"/><line style="stroke:#000000;stroke-width:1.5;" x1="182" x2="251" y1="659.1869" y2="659.1869"/><text fill="#000000" font-family="sans-serif" font-size="14" font-weight="bold" lengthAdjust="spacing" textLength="56" x="186" y="651.8851">control</text></g><!--cluster boundary--><g id="cluster_boundary"><path d="M1470.5,512.6 L1616.5,512.6 A3.75,3.75 0 0 1 1619,515.1 L1626,534.8969 L1785.5,534.8969 A2.5,2.5 0 0 1 1788,537.3969 L1788,773.69 A2.5,2.5 0 0 1 1785.5,776.19 L1470.5,776.19 A2.5,2.5 0 0 1 1468,773.69 L1468,515.1 A2.5,2.5 0 0 1 1470.5,512.6 " fill="#00FF00" style="stroke:#000000;stroke-width:1.5;"/><line style="stroke:#000000;stroke-width:1.5;" x1="1468" x2="1626" y1="534.8969" y2="534.8969"/><text fill="#000000" font-family="sans-serif" font-size="14" font-weight="bold" lengthAdjust="spacing" textLength="145" x="1472" y="527.5951">observe.boundary</text></g><!--cluster control--><g id="cluster_control"><path d="M1494.5,636.89 L1551.5,636.89 A3.75,3.75 0 0 1 1554,639.39 L1561,659.1869 L1761.5,659.1869 A2.5,2.5 0 0 1 1764,661.6869 L1764,749.69 A2.5,2.5 0 0 1 1761.5,752.19 L1494.5,752.19 A2.5,2.5 0 0 1 1492,749.69 L1492,639.39 A2.5,2.5 0 0 1 1494.5,636.89 " fill="#FFA500" style="stroke:#000000;stroke-width:1.5;"/><line style="stroke:#000000;stroke-width:1.5;" x1="1492" x2="1561" y1="659.1869" y2="659.1869"/><text fill="#000000" font-family="sans-serif" font-size="14" font-weight="bold" lengthAdjust="spacing" textLength="56" x="1496" y="651.8851">control</text></g><!--cluster sewer--><g id="cluster_sewer"><path d="M1130.5,800.19 L1181.5,800.19 A3.75,3.75 0 0 1 1184,802.69 L1191,822.4869 L1785.5,822.4869 A2.5,2.5 0 0 1 1788,824.9869 L1788,1267.77 A2.5,2.5 0 0 1 1785.5,1270.27 L1130.5,1270.27 A2.5,2.5 0 0 1 1128,1267.77 L1128,802.69 A2.5,2.5 0 0 1 1130.5,800.19 " fill="none" style="stroke:#000000;stroke-width:1.5;"/><line style="stroke:#000000;stroke-width:1.5;" x1="1128" x2="1191" y1="822.4869" y2="822.4869"/><text fill="#000000" font-family="sans-serif" font-size="14" font-weight="bold" lengthAdjust="spacing" textLength="50" x="1132" y="815.1851">sewer</text></g><!--cluster boundary--><g id="cluster_boundary"><path d="M1191.5,843.19 L1267.5,843.19 A3.75,3.75 0 0 1 1270,845.69 L1277,865.4869 L1756.5,865.4869 A2.5,2.5 0 0 1 1759,867.9869 L1759,1071.88 A2.5,2.5 0 0 1 1756.5,1074.38 L1191.5,1074.38 A2.5,2.5 0 0 1 1189,1071.88 L1189,845.69 A2.5,2.5 0 0 1 1191.5,843.19 " fill="#00FF00" style="stroke:#000000;stroke-width:1.5;"/><line style="stroke:#000000;stroke-width:1.5;" x1="1189" x2="1277" y1="865.4869" y2="865.4869"/><text fill="#000000" font-family="sans-serif" font-size="14" font-weight="bold" lengthAdjust="spacing" textLength="75" x="1193" y="858.1851">boundary</text></g><!--cluster entity--><g id="cluster_entity"><path d="M1215.5,886.19 L1322.5,886.19 A3.75,3.75 0 0 1 1325,888.69 L1332,908.4869 L1500.5,908.4869 A2.5,2.5 0 0 1 1503,910.9869 L1503,1047.88 A2.5,2.5 0 0 1 1500.5,1050.38 L1215.5,1050.38 A2.5,2.5 0 0 1 1213,1047.88 L1213,888.69 A2.5,2.5 0 0 1 1215.5,886.19 " fill="#FCFDB0" style="stroke:#000000;stroke-width:1.5;"/><line style="stroke:#000000;stroke-width:1.5;" x1="1213" x2="1332" y1="908.4869" y2="908.4869"/><text fill="#000000" font-family="sans-serif" font-size="14" font-weight="bold" lengthAdjust="spacing" textLength="106" x="1217" y="901.1851">control.entity</text></g><!--cluster entity--><g id="cluster_entity"><path d="M1154.5,1098.38 L1369.5,1098.38 A3.75,3.75 0 0 1 1372,1100.88 L1379,1120.6769 L1461.5,1120.6769 A2.5,2.5 0 0 1 1464,1123.1769 L1464,1243.77 A2.5,2.5 0 0 1 1461.5,1246.27 L1154.5,1246.27 A2.5,2.5 0 0 1 1152,1243.77 L1152,1100.88 A2.5,2.5 0 0 1 1154.5,1098.38 " fill="#FCFDB0" style="stroke:#000000;stroke-width:1.5;"/><line style="stroke:#000000;stroke-width:1.5;" x1="1152" x2="1379" y1="1120.6769" y2="1120.6769"/><text fill="#000000" font-family="sans-serif" font-size="14" font-weight="bold" lengthAdjust="spacing" textLength="214" x="1156" y="1113.3751">kpi.boundary.control.entity</text></g><!--cluster entity--><g id="cluster_entity"><path d="M1490.5,1106.53 L1747.5,1106.53 A3.75,3.75 0 0 1 1750,1109.03 L1757,1128.8269 L1761.5,1128.8269 A2.5,2.5 0 0 1 1764,1131.3269 L1764,1235.62 A2.5,2.5 0 0 1 1761.5,1238.12 L1490.5,1238.12 A2.5,2.5 0 0 1 1488,1235.62 L1488,1109.03 A2.5,2.5 0 0 1 1490.5,1106.53 " fill="#FCFDB0" style="stroke:#000000;stroke-width:1.5;"/><line style="stroke:#000000;stroke-width:1.5;" x1="1488" x2="1757" y1="1128.8269" y2="1128.8269"/><text fill="#000000" font-family="sans-serif" font-size="14" font-weight="bold" lengthAdjust="spacing" textLength="256" x="1492" y="1121.5251">problem.boundary.control.entity</text></g><!--cluster boundary--><g id="cluster_boundary"><path d="M785.5,314.3 L928.5,314.3 A3.75,3.75 0 0 1 931,316.8 L938,336.5969 L1060.5,336.5969 A2.5,2.5 0 0 1 1063,339.0969 L1063,427.1 A2.5,2.5 0 0 1 1060.5,429.6 L785.5,429.6 A2.5,2.5 0 0 1 783,427.1 L783,316.8 A2.5,2.5 0 0 1 785.5,314.3 " fill="#00FF00" style="stroke:#000000;stroke-width:1.5;"/><line style="stroke:#000000;stroke-width:1.5;" x1="783" x2="938" y1="336.5969" y2="336.5969"/><text fill="#000000" font-family="sans-serif" font-size="14" font-weight="bold" lengthAdjust="spacing" textLength="142" x="787" y="329.2951">indicate.boundary</text></g><!--cluster boundary--><g id="cluster_boundary"><path d="M1504.5,314.3 L1650.5,314.3 A3.75,3.75 0 0 1 1653,316.8 L1660,336.5969 L1751.5,336.5969 A2.5,2.5 0 0 1 1754,339.0969 L1754,427.1 A2.5,2.5 0 0 1 1751.5,429.6 L1504.5,429.6 A2.5,2.5 0 0 1 1502,427.1 L1502,316.8 A2.5,2.5 0 0 1 1504.5,314.3 " fill="#00FF00" style="stroke:#000000;stroke-width:1.5;"/><line style="stroke:#000000;stroke-width:1.5;" x1="1502" x2="1660" y1="336.5969" y2="336.5969"/><text fill="#000000" font-family="sans-serif" font-size="14" font-weight="bold" lengthAdjust="spacing" textLength="145" x="1506" y="329.2951">observe.boundary</text></g><!--cluster boundary--><g id="cluster_boundary"><path d="M1862.5,1106.53 L2002.5,1106.53 A3.75,3.75 0 0 1 2005,1109.03 L2012,1128.8269 L2111.5,1128.8269 A2.5,2.5 0 0 1 2114,1131.3269 L2114,1420.36 A2.5,2.5 0 0 1 2111.5,1422.86 L1862.5,1422.86 A2.5,2.5 0 0 1 1860,1420.36 L1860,1109.03 A2.5,2.5 0 0 1 1862.5,1106.53 " fill="#00FF00" style="stroke:#000000;stroke-width:1.5;"/><line style="stroke:#000000;stroke-width:1.5;" x1="1860" x2="2012" y1="1128.8269" y2="1128.8269"/><text fill="#000000" font-family="sans-serif" font-size="14" font-weight="bold" lengthAdjust="spacing" textLength="139" x="1864" y="1121.5251">sewers.boundary</text></g><!--class SewerIndicationAdapter--><g id="elem_SewerIndicationAdapter"><rect codeLine="28" fill="#F1F1F1" height="64.2969" id="SewerIndicationAdapter" rx="2.5" ry="2.5" style="stroke:#181818;stroke-width:0.5;" width="195" x="825.5" y="151"/><ellipse cx="840.5" cy="167" fill="#ADD1B2" rx="11" ry="11" style="stroke:#181818;stroke-width:1.0;"/><path d="M843.4688,172.6406 Q842.8906,172.9375 842.25,173.0781 Q841.6094,173.2344 840.9063,173.2344 Q838.4063,173.2344 837.0781,171.5938 Q835.7656,169.9375 835.7656,166.8125 Q835.7656,163.6875 837.0781,162.0313 Q838.4063,160.375 840.9063,160.375 Q841.6094,160.375 842.25,160.5313 Q842.9063,160.6875 843.4688,160.9844 L843.4688,163.7031 Q842.8438,163.125 842.25,162.8594 Q841.6563,162.5781 841.0313,162.5781 Q839.6875,162.5781 839,163.6563 Q838.3125,164.7188 838.3125,166.8125 Q838.3125,168.9063 839,169.9844 Q839.6875,171.0469 841.0313,171.0469 Q841.6563,171.0469 842.25,170.7813 Q842.8438,170.5 843.4688,169.9219 L843.4688,172.6406 Z " fill="#000000"/><text fill="#000000" font-family="sans-serif" font-size="14" lengthAdjust="spacing" textLength="163" x="854.5" y="171.8467">SewerIndicationAdapter</text><line style="stroke:#181818;stroke-width:0.5;" x1="826.5" x2="1019.5" y1="183" y2="183"/><line style="stroke:#181818;stroke-width:0.5;" x1="826.5" x2="1019.5" y1="191" y2="191"/><ellipse cx="836.5" cy="204.6484" fill="#84BE84" rx="3" ry="3" style="stroke:#038048;stroke-width:1.0;"/><text fill="#000000" font-family="sans-serif" font-size="14" lengthAdjust="spacing" textLength="120" x="845.5" y="207.9951">void serve(String)</text></g><!--class SewerObservationAdapter--><g id="elem_SewerObservationAdapter"><rect codeLine="31" fill="#F1F1F1" height="64.2969" id="SewerObservationAdapter" rx="2.5" ry="2.5" style="stroke:#181818;stroke-width:0.5;" width="212" x="1522" y="151"/><ellipse cx="1537" cy="167" fill="#ADD1B2" rx="11" ry="11" style="stroke:#181818;stroke-width:1.0;"/><path d="M1539.9688,172.6406 Q1539.3906,172.9375 1538.75,173.0781 Q1538.1094,173.2344 1537.4063,173.2344 Q1534.9063,173.2344 1533.5781,171.5938 Q1532.2656,169.9375 1532.2656,166.8125 Q1532.2656,163.6875 1533.5781,162.0313 Q1534.9063,160.375 1537.4063,160.375 Q1538.1094,160.375 1538.75,160.5313 Q1539.4063,160.6875 1539.9688,160.9844 L1539.9688,163.7031 Q1539.3438,163.125 1538.75,162.8594 Q1538.1563,162.5781 1537.5313,162.5781 Q1536.1875,162.5781 1535.5,163.6563 Q1534.8125,164.7188 1534.8125,166.8125 Q1534.8125,168.9063 1535.5,169.9844 Q1536.1875,171.0469 1537.5313,171.0469 Q1538.1563,171.0469 1538.75,170.7813 Q1539.3438,170.5 1539.9688,169.9219 L1539.9688,172.6406 Z " fill="#000000"/><text fill="#000000" font-family="sans-serif" font-size="14" lengthAdjust="spacing" textLength="180" x="1551" y="171.8467">SewerObservationAdapter</text><line style="stroke:#181818;stroke-width:0.5;" x1="1523" x2="1733" y1="183" y2="183"/><line style="stroke:#181818;stroke-width:0.5;" x1="1523" x2="1733" y1="191" y2="191"/><ellipse cx="1533" cy="204.6484" fill="#84BE84" rx="3" ry="3" style="stroke:#038048;stroke-width:1.0;"/><text fill="#000000" font-family="sans-serif" font-size="14" lengthAdjust="spacing" textLength="184" x="1542" y="207.9951">Set&lt;Object&gt; serve(String)</text></g><!--class SewersAdapter--><g id="elem_SewersAdapter"><rect codeLine="34" fill="#F1F1F1" height="80.5938" id="SewersAdapter" rx="2.5" ry="2.5" style="stroke:#181818;stroke-width:0.5;" width="222" x="1876" y="1662.46"/><ellipse cx="1930.25" cy="1678.46" fill="#B4A7E5" rx="11" ry="11" style="stroke:#181818;stroke-width:1.0;"/><path d="M1926.1719,1674.2256 L1926.1719,1672.0694 L1933.5625,1672.0694 L1933.5625,1674.2256 L1931.0938,1674.2256 L1931.0938,1682.3038 L1933.5625,1682.3038 L1933.5625,1684.46 L1926.1719,1684.46 L1926.1719,1682.3038 L1928.6406,1682.3038 L1928.6406,1674.2256 L1926.1719,1674.2256 Z " fill="#000000"/><text fill="#000000" font-family="sans-serif" font-size="14" font-style="italic" lengthAdjust="spacing" textLength="105" x="1950.75" y="1683.3067">SewersAdapter</text><line style="stroke:#181818;stroke-width:0.5;" x1="1877" x2="2097" y1="1694.46" y2="1694.46"/><line style="stroke:#181818;stroke-width:0.5;" x1="1877" x2="2097" y1="1702.46" y2="1702.46"/><ellipse cx="1887" cy="1716.1084" fill="#84BE84" rx="3" ry="3" style="stroke:#038048;stroke-width:1.0;"/><text fill="#000000" font-family="sans-serif" font-size="14" font-style="italic" lengthAdjust="spacing" textLength="196" x="1896" y="1719.4551">Set&lt;Object&gt; observe(UUID)</text><ellipse cx="1887" cy="1732.4053" fill="#84BE84" rx="3" ry="3" style="stroke:#038048;stroke-width:1.0;"/><text fill="#000000" font-family="sans-serif" font-size="14" font-style="italic" lengthAdjust="spacing" textLength="183" x="1896" y="1735.752">void indicate(UUID, Object)</text></g><!--class SewersAdapterBridge--><g id="elem_SewersAdapterBridge"><rect codeLine="38" fill="#F1F1F1" height="80.5938" id="SewersAdapterBridge" rx="2.5" ry="2.5" style="stroke:#181818;stroke-width:0.5;" width="222" x="1876" y="1521.86"/><ellipse cx="1909" cy="1537.86" fill="#ADD1B2" rx="11" ry="11" style="stroke:#181818;stroke-width:1.0;"/><path d="M1911.9688,1543.5006 Q1911.3906,1543.7975 1910.75,1543.9381 Q1910.1094,1544.0944 1909.4063,1544.0944 Q1906.9063,1544.0944 1905.5781,1542.4538 Q1904.2656,1540.7975 1904.2656,1537.6725 Q1904.2656,1534.5475 1905.5781,1532.8913 Q1906.9063,1531.235 1909.4063,1531.235 Q1910.1094,1531.235 1910.75,1531.3913 Q1911.4063,1531.5475 1911.9688,1531.8444 L1911.9688,1534.5631 Q1911.3438,1533.985 1910.75,1533.7194 Q1910.1563,1533.4381 1909.5313,1533.4381 Q1908.1875,1533.4381 1907.5,1534.5163 Q1906.8125,1535.5788 1906.8125,1537.6725 Q1906.8125,1539.7663 1907.5,1540.8444 Q1908.1875,1541.9069 1909.5313,1541.9069 Q1910.1563,1541.9069 1910.75,1541.6413 Q1911.3438,1541.36 1911.9688,1540.7819 L1911.9688,1543.5006 Z " fill="#000000"/><text fill="#000000" font-family="sans-serif" font-size="14" lengthAdjust="spacing" textLength="150" x="1927" y="1542.7067">SewersAdapterBridge</text><line style="stroke:#181818;stroke-width:0.5;" x1="1877" x2="2097" y1="1553.86" y2="1553.86"/><line style="stroke:#181818;stroke-width:0.5;" x1="1877" x2="2097" y1="1561.86" y2="1561.86"/><ellipse cx="1887" cy="1575.5084" fill="#84BE84" rx="3" ry="3" style="stroke:#038048;stroke-width:1.0;"/><text fill="#000000" font-family="sans-serif" font-size="14" lengthAdjust="spacing" textLength="196" x="1896" y="1578.8551">Set&lt;Object&gt; observe(UUID)</text><ellipse cx="1887" cy="1591.8053" fill="#84BE84" rx="3" ry="3" style="stroke:#038048;stroke-width:1.0;"/><text fill="#000000" font-family="sans-serif" font-size="14" lengthAdjust="spacing" textLength="183" x="1896" y="1595.152">void indicate(UUID, Object)</text></g><!--class SewerOverflowIndicationService--><g id="elem_SewerOverflowIndicationService"><rect codeLine="42" fill="#F1F1F1" height="64.2969" id="SewerOverflowIndicationService" rx="2.5" ry="2.5" style="stroke:#181818;stroke-width:0.5;" width="250" x="798" y="547.6"/><ellipse cx="813" cy="563.6" fill="#ADD1B2" rx="11" ry="11" style="stroke:#181818;stroke-width:1.0;"/><path d="M815.9688,569.2406 Q815.3906,569.5375 814.75,569.6781 Q814.1094,569.8344 813.4063,569.8344 Q810.9063,569.8344 809.5781,568.1937 Q808.2656,566.5375 808.2656,563.4125 Q808.2656,560.2875 809.5781,558.6312 Q810.9063,556.975 813.4063,556.975 Q814.1094,556.975 814.75,557.1312 Q815.4063,557.2875 815.9688,557.5844 L815.9688,560.3031 Q815.3438,559.725 814.75,559.4594 Q814.1563,559.1781 813.5313,559.1781 Q812.1875,559.1781 811.5,560.2562 Q810.8125,561.3187 810.8125,563.4125 Q810.8125,565.5062 811.5,566.5844 Q812.1875,567.6469 813.5313,567.6469 Q814.1563,567.6469 814.75,567.3812 Q815.3438,567.1 815.9688,566.5219 L815.9688,569.2406 Z " fill="#000000"/><text fill="#000000" font-family="sans-serif" font-size="14" lengthAdjust="spacing" textLength="218" x="827" y="568.4467">SewerOverflowIndicationService</text><line style="stroke:#181818;stroke-width:0.5;" x1="799" x2="1047" y1="579.6" y2="579.6"/><line style="stroke:#181818;stroke-width:0.5;" x1="799" x2="1047" y1="587.6" y2="587.6"/><ellipse cx="809" cy="601.2484" fill="#84BE84" rx="3" ry="3" style="stroke:#038048;stroke-width:1.0;"/><text fill="#000000" font-family="sans-serif" font-size="14" lengthAdjust="spacing" textLength="221" x="818" y="604.5951">void serve(Map&lt;String, String&gt;)</text></g><!--class FlowIndicationComponent--><g id="elem_FlowIndicationComponent"><rect codeLine="45" fill="#F1F1F1" height="64.2969" id="FlowIndicationComponent" rx="2.5" ry="2.5" style="stroke:#181818;stroke-width:0.5;" width="265" x="198.5" y="945.64"/><ellipse cx="237.8" cy="961.64" fill="#ADD1B2" rx="11" ry="11" style="stroke:#181818;stroke-width:1.0;"/><path d="M240.7688,967.2806 Q240.1906,967.5775 239.55,967.7181 Q238.9094,967.8744 238.2063,967.8744 Q235.7063,967.8744 234.3781,966.2338 Q233.0656,964.5775 233.0656,961.4525 Q233.0656,958.3275 234.3781,956.6713 Q235.7063,955.015 238.2063,955.015 Q238.9094,955.015 239.55,955.1713 Q240.2063,955.3275 240.7688,955.6244 L240.7688,958.3431 Q240.1438,957.765 239.55,957.4994 Q238.9563,957.2181 238.3313,957.2181 Q236.9875,957.2181 236.3,958.2963 Q235.6125,959.3588 235.6125,961.4525 Q235.6125,963.5463 236.3,964.6244 Q236.9875,965.6869 238.3313,965.6869 Q238.9563,965.6869 239.55,965.4213 Q240.1438,965.14 240.7688,964.5619 L240.7688,967.2806 Z " fill="#000000"/><text fill="#000000" font-family="sans-serif" font-size="14" lengthAdjust="spacing" textLength="179" x="257.2" y="966.4867">FlowIndicationComponent</text><line style="stroke:#181818;stroke-width:0.5;" x1="199.5" x2="462.5" y1="977.64" y2="977.64"/><line style="stroke:#181818;stroke-width:0.5;" x1="199.5" x2="462.5" y1="985.64" y2="985.64"/><ellipse cx="209.5" cy="999.2884" fill="#84BE84" rx="3" ry="3" style="stroke:#038048;stroke-width:1.0;"/><text fill="#000000" font-family="sans-serif" font-size="14" lengthAdjust="spacing" textLength="239" x="218.5" y="1002.6351">void execute(Map&lt;String, String&gt;)</text></g><!--class PumpIndicationComponent--><g id="elem_PumpIndicationComponent"><rect codeLine="48" fill="#F1F1F1" height="64.2969" id="PumpIndicationComponent" rx="2.5" ry="2.5" style="stroke:#181818;stroke-width:0.5;" width="265" x="498.5" y="945.64"/><ellipse cx="533.75" cy="961.64" fill="#ADD1B2" rx="11" ry="11" style="stroke:#181818;stroke-width:1.0;"/><path d="M536.7188,967.2806 Q536.1406,967.5775 535.5,967.7181 Q534.8594,967.8744 534.1563,967.8744 Q531.6563,967.8744 530.3281,966.2338 Q529.0156,964.5775 529.0156,961.4525 Q529.0156,958.3275 530.3281,956.6713 Q531.6563,955.015 534.1563,955.015 Q534.8594,955.015 535.5,955.1713 Q536.1563,955.3275 536.7188,955.6244 L536.7188,958.3431 Q536.0938,957.765 535.5,957.4994 Q534.9063,957.2181 534.2813,957.2181 Q532.9375,957.2181 532.25,958.2963 Q531.5625,959.3588 531.5625,961.4525 Q531.5625,963.5463 532.25,964.6244 Q532.9375,965.6869 534.2813,965.6869 Q534.9063,965.6869 535.5,965.4213 Q536.0938,965.14 536.7188,964.5619 L536.7188,967.2806 Z " fill="#000000"/><text fill="#000000" font-family="sans-serif" font-size="14" lengthAdjust="spacing" textLength="188" x="552.25" y="966.4867">PumpIndicationComponent</text><line style="stroke:#181818;stroke-width:0.5;" x1="499.5" x2="762.5" y1="977.64" y2="977.64"/><line style="stroke:#181818;stroke-width:0.5;" x1="499.5" x2="762.5" y1="985.64" y2="985.64"/><ellipse cx="509.5" cy="999.2884" fill="#84BE84" rx="3" ry="3" style="stroke:#038048;stroke-width:1.0;"/><text fill="#000000" font-family="sans-serif" font-size="14" lengthAdjust="spacing" textLength="239" x="518.5" y="1002.6351">void execute(Map&lt;String, String&gt;)</text></g><!--class RainIndicationComponent--><g id="elem_RainIndicationComponent"><rect codeLine="51" fill="#F1F1F1" height="64.2969" id="RainIndicationComponent" rx="2.5" ry="2.5" style="stroke:#181818;stroke-width:0.5;" width="265" x="798.5" y="945.64"/><ellipse cx="838.25" cy="961.64" fill="#ADD1B2" rx="11" ry="11" style="stroke:#181818;stroke-width:1.0;"/><path d="M841.2188,967.2806 Q840.6406,967.5775 840,967.7181 Q839.3594,967.8744 838.6563,967.8744 Q836.1563,967.8744 834.8281,966.2338 Q833.5156,964.5775 833.5156,961.4525 Q833.5156,958.3275 834.8281,956.6713 Q836.1563,955.015 838.6563,955.015 Q839.3594,955.015 840,955.1713 Q840.6563,955.3275 841.2188,955.6244 L841.2188,958.3431 Q840.5938,957.765 840,957.4994 Q839.4063,957.2181 838.7813,957.2181 Q837.4375,957.2181 836.75,958.2963 Q836.0625,959.3588 836.0625,961.4525 Q836.0625,963.5463 836.75,964.6244 Q837.4375,965.6869 838.7813,965.6869 Q839.4063,965.6869 840,965.4213 Q840.5938,965.14 841.2188,964.5619 L841.2188,967.2806 Z " fill="#000000"/><text fill="#000000" font-family="sans-serif" font-size="14" lengthAdjust="spacing" textLength="178" x="857.75" y="966.4867">RainIndicationComponent</text><line style="stroke:#181818;stroke-width:0.5;" x1="799.5" x2="1062.5" y1="977.64" y2="977.64"/><line style="stroke:#181818;stroke-width:0.5;" x1="799.5" x2="1062.5" y1="985.64" y2="985.64"/><ellipse cx="809.5" cy="999.2884" fill="#84BE84" rx="3" ry="3" style="stroke:#038048;stroke-width:1.0;"/><text fill="#000000" font-family="sans-serif" font-size="14" lengthAdjust="spacing" textLength="239" x="818.5" y="1002.6351">void execute(Map&lt;String, String&gt;)</text></g><!--class SewerOverflowIndicationComponent--><g id="elem_SewerOverflowIndicationComponent"><rect codeLine="54" fill="#F1F1F1" height="64.2969" id="SewerOverflowIndicationComponent" rx="2.5" ry="2.5" style="stroke:#181818;stroke-width:0.5;" width="282" x="782" y="671.89"/><ellipse cx="797" cy="687.89" fill="#ADD1B2" rx="11" ry="11" style="stroke:#181818;stroke-width:1.0;"/><path d="M799.9688,693.5306 Q799.3906,693.8275 798.75,693.9681 Q798.1094,694.1244 797.4063,694.1244 Q794.9063,694.1244 793.5781,692.4837 Q792.2656,690.8275 792.2656,687.7025 Q792.2656,684.5775 793.5781,682.9212 Q794.9063,681.265 797.4063,681.265 Q798.1094,681.265 798.75,681.4212 Q799.4063,681.5775 799.9688,681.8744 L799.9688,684.5931 Q799.3438,684.015 798.75,683.7494 Q798.1563,683.4681 797.5313,683.4681 Q796.1875,683.4681 795.5,684.5462 Q794.8125,685.6087 794.8125,687.7025 Q794.8125,689.7962 795.5,690.8744 Q796.1875,691.9369 797.5313,691.9369 Q798.1563,691.9369 798.75,691.6712 Q799.3438,691.39 799.9688,690.8119 L799.9688,693.5306 Z " fill="#000000"/><text fill="#000000" font-family="sans-serif" font-size="14" lengthAdjust="spacing" textLength="250" x="811" y="692.7367">SewerOverflowIndicationComponent</text><line style="stroke:#181818;stroke-width:0.5;" x1="783" x2="1063" y1="703.89" y2="703.89"/><line style="stroke:#181818;stroke-width:0.5;" x1="783" x2="1063" y1="711.89" y2="711.89"/><ellipse cx="793" cy="725.5384" fill="#84BE84" rx="3" ry="3" style="stroke:#038048;stroke-width:1.0;"/><text fill="#000000" font-family="sans-serif" font-size="14" lengthAdjust="spacing" textLength="239" x="802" y="728.8851">void execute(Map&lt;String, String&gt;)</text></g><!--class SewerObservationService--><g id="elem_SewerObservationService"><rect codeLine="60" fill="#F1F1F1" height="64.2969" id="SewerObservationService" rx="2.5" ry="2.5" style="stroke:#181818;stroke-width:0.5;" width="208" x="1524" y="547.6"/><ellipse cx="1539" cy="563.6" fill="#ADD1B2" rx="11" ry="11" style="stroke:#181818;stroke-width:1.0;"/><path d="M1541.9688,569.2406 Q1541.3906,569.5375 1540.75,569.6781 Q1540.1094,569.8344 1539.4063,569.8344 Q1536.9063,569.8344 1535.5781,568.1937 Q1534.2656,566.5375 1534.2656,563.4125 Q1534.2656,560.2875 1535.5781,558.6312 Q1536.9063,556.975 1539.4063,556.975 Q1540.1094,556.975 1540.75,557.1312 Q1541.4063,557.2875 1541.9688,557.5844 L1541.9688,560.3031 Q1541.3438,559.725 1540.75,559.4594 Q1540.1563,559.1781 1539.5313,559.1781 Q1538.1875,559.1781 1537.5,560.2562 Q1536.8125,561.3187 1536.8125,563.4125 Q1536.8125,565.5062 1537.5,566.5844 Q1538.1875,567.6469 1539.5313,567.6469 Q1540.1563,567.6469 1540.75,567.3812 Q1541.3438,567.1 1541.9688,566.5219 L1541.9688,569.2406 Z " fill="#000000"/><text fill="#000000" font-family="sans-serif" font-size="14" lengthAdjust="spacing" textLength="176" x="1553" y="568.4467">SewerObservationService</text><line style="stroke:#181818;stroke-width:0.5;" x1="1525" x2="1731" y1="579.6" y2="579.6"/><line style="stroke:#181818;stroke-width:0.5;" x1="1525" x2="1731" y1="587.6" y2="587.6"/><ellipse cx="1535" cy="601.2484" fill="#84BE84" rx="3" ry="3" style="stroke:#038048;stroke-width:1.0;"/><text fill="#000000" font-family="sans-serif" font-size="14" lengthAdjust="spacing" textLength="182" x="1544" y="604.5951">Set&lt;Sewer&gt; serve(String)</text></g><!--class SewerObservationComponent--><g id="elem_SewerObservationComponent"><rect codeLine="63" fill="#F1F1F1" height="64.2969" id="SewerObservationComponent" rx="2.5" ry="2.5" style="stroke:#181818;stroke-width:0.5;" width="240" x="1508" y="671.89"/><ellipse cx="1523" cy="687.89" fill="#ADD1B2" rx="11" ry="11" style="stroke:#181818;stroke-width:1.0;"/><path d="M1525.9688,693.5306 Q1525.3906,693.8275 1524.75,693.9681 Q1524.1094,694.1244 1523.4063,694.1244 Q1520.9063,694.1244 1519.5781,692.4837 Q1518.2656,690.8275 1518.2656,687.7025 Q1518.2656,684.5775 1519.5781,682.9212 Q1520.9063,681.265 1523.4063,681.265 Q1524.1094,681.265 1524.75,681.4212 Q1525.4063,681.5775 1525.9688,681.8744 L1525.9688,684.5931 Q1525.3438,684.015 1524.75,683.7494 Q1524.1563,683.4681 1523.5313,683.4681 Q1522.1875,683.4681 1521.5,684.5462 Q1520.8125,685.6087 1520.8125,687.7025 Q1520.8125,689.7962 1521.5,690.8744 Q1522.1875,691.9369 1523.5313,691.9369 Q1524.1563,691.9369 1524.75,691.6712 Q1525.3438,691.39 1525.9688,690.8119 L1525.9688,693.5306 Z " fill="#000000"/><text fill="#000000" font-family="sans-serif" font-size="14" lengthAdjust="spacing" textLength="208" x="1537" y="692.7367">SewerObservationComponent</text><line style="stroke:#181818;stroke-width:0.5;" x1="1509" x2="1747" y1="703.89" y2="703.89"/><line style="stroke:#181818;stroke-width:0.5;" x1="1509" x2="1747" y1="711.89" y2="711.89"/><ellipse cx="1519" cy="725.5384" fill="#84BE84" rx="3" ry="3" style="stroke:#038048;stroke-width:1.0;"/><text fill="#000000" font-family="sans-serif" font-size="14" lengthAdjust="spacing" textLength="200" x="1528" y="728.8851">Set&lt;Sewer&gt; execute(String)</text></g><!--class Sewers--><g id="elem_Sewers"><rect codeLine="66" fill="#F1F1F1" height="80.5938" id="Sewers" rx="2.5" ry="2.5" style="stroke:#181818;stroke-width:0.5;" width="220" x="1523" y="937.49"/><ellipse cx="1603.25" cy="953.49" fill="#B4A7E5" rx="11" ry="11" style="stroke:#181818;stroke-width:1.0;"/><path d="M1599.1719,949.2556 L1599.1719,947.0994 L1606.5625,947.0994 L1606.5625,949.2556 L1604.0938,949.2556 L1604.0938,957.3338 L1606.5625,957.3338 L1606.5625,959.49 L1599.1719,959.49 L1599.1719,957.3338 L1601.6406,957.3338 L1601.6406,949.2556 L1599.1719,949.2556 Z " fill="#000000"/><text fill="#000000" font-family="sans-serif" font-size="14" font-style="italic" lengthAdjust="spacing" textLength="51" x="1623.75" y="958.3367">Sewers</text><line style="stroke:#181818;stroke-width:0.5;" x1="1524" x2="1742" y1="969.49" y2="969.49"/><line style="stroke:#181818;stroke-width:0.5;" x1="1524" x2="1742" y1="977.49" y2="977.49"/><ellipse cx="1534" cy="991.1384" fill="#84BE84" rx="3" ry="3" style="stroke:#038048;stroke-width:1.0;"/><text fill="#000000" font-family="sans-serif" font-size="14" font-style="italic" lengthAdjust="spacing" textLength="194" x="1543" y="994.4851">Set&lt;Sewer&gt; observe(UUID)</text><ellipse cx="1534" cy="1007.4353" fill="#84BE84" rx="3" ry="3" style="stroke:#038048;stroke-width:1.0;"/><text fill="#000000" font-family="sans-serif" font-size="14" font-style="italic" lengthAdjust="spacing" textLength="139" x="1543" y="1010.782">void indicate(Sewer)</text></g><!--class Sewer--><g id="elem_Sewer"><rect codeLine="73" fill="#F1F1F1" height="113.1875" id="Sewer" rx="2.5" ry="2.5" style="stroke:#181818;stroke-width:0.5;" width="259" x="1228.5" y="921.19"/><ellipse cx="1332.25" cy="937.19" fill="#ADD1B2" rx="11" ry="11" style="stroke:#181818;stroke-width:1.0;"/><path d="M1335.2188,942.8306 Q1334.6406,943.1275 1334,943.2681 Q1333.3594,943.4244 1332.6563,943.4244 Q1330.1563,943.4244 1328.8281,941.7837 Q1327.5156,940.1275 1327.5156,937.0025 Q1327.5156,933.8775 1328.8281,932.2212 Q1330.1563,930.565 1332.6563,930.565 Q1333.3594,930.565 1334,930.7212 Q1334.6563,930.8775 1335.2188,931.1744 L1335.2188,933.8931 Q1334.5938,933.315 1334,933.0494 Q1333.4063,932.7681 1332.7813,932.7681 Q1331.4375,932.7681 1330.75,933.8462 Q1330.0625,934.9087 1330.0625,937.0025 Q1330.0625,939.0962 1330.75,940.1744 Q1331.4375,941.2369 1332.7813,941.2369 Q1333.4063,941.2369 1334,940.9712 Q1334.5938,940.69 1335.2188,940.1119 L1335.2188,942.8306 Z " fill="#000000"/><text fill="#000000" font-family="sans-serif" font-size="14" lengthAdjust="spacing" textLength="43" x="1352.75" y="942.0367">Sewer</text><line style="stroke:#181818;stroke-width:0.5;" x1="1229.5" x2="1486.5" y1="953.19" y2="953.19"/><line style="stroke:#181818;stroke-width:0.5;" x1="1229.5" x2="1486.5" y1="961.19" y2="961.19"/><ellipse cx="1239.5" cy="974.8384" fill="#84BE84" rx="3" ry="3" style="stroke:#038048;stroke-width:1.0;"/><text fill="#000000" font-family="sans-serif" font-size="14" lengthAdjust="spacing" textLength="83" x="1248.5" y="978.1851">UUID getId()</text><ellipse cx="1239.5" cy="991.1353" fill="#84BE84" rx="3" ry="3" style="stroke:#038048;stroke-width:1.0;"/><text fill="#000000" font-family="sans-serif" font-size="14" lengthAdjust="spacing" textLength="230" x="1248.5" y="994.482">KeyPerformanceIndicator getKpi()</text><ellipse cx="1239.5" cy="1007.4322" fill="#84BE84" rx="3" ry="3" style="stroke:#038048;stroke-width:1.0;"/><text fill="#000000" font-family="sans-serif" font-size="14" lengthAdjust="spacing" textLength="206" x="1248.5" y="1010.7789">Set&lt;Problem&gt; getProblems()</text><ellipse cx="1239.5" cy="1023.7291" fill="#84BE84" rx="3" ry="3" style="stroke:#038048;stroke-width:1.0;"/><text fill="#000000" font-family="sans-serif" font-size="14" lengthAdjust="spacing" textLength="233" x="1248.5" y="1027.0757">void setProblems(Set&lt;Problem&gt;)</text></g><!--class KeyPerformanceIndicator--><g id="elem_KeyPerformanceIndicator"><rect codeLine="79" fill="#F1F1F1" height="96.8906" id="KeyPerformanceIndicator" rx="2.5" ry="2.5" style="stroke:#181818;stroke-width:0.5;" width="279" x="1168.5" y="1133.38"/><ellipse cx="1217.75" cy="1149.38" fill="#ADD1B2" rx="11" ry="11" style="stroke:#181818;stroke-width:1.0;"/><path d="M1220.7188,1155.0206 Q1220.1406,1155.3175 1219.5,1155.4581 Q1218.8594,1155.6144 1218.1563,1155.6144 Q1215.6563,1155.6144 1214.3281,1153.9737 Q1213.0156,1152.3175 1213.0156,1149.1925 Q1213.0156,1146.0675 1214.3281,1144.4112 Q1215.6563,1142.755 1218.1563,1142.755 Q1218.8594,1142.755 1219.5,1142.9112 Q1220.1563,1143.0675 1220.7188,1143.3644 L1220.7188,1146.0831 Q1220.0938,1145.505 1219.5,1145.2394 Q1218.9063,1144.9581 1218.2813,1144.9581 Q1216.9375,1144.9581 1216.25,1146.0362 Q1215.5625,1147.0987 1215.5625,1149.1925 Q1215.5625,1151.2862 1216.25,1152.3644 Q1216.9375,1153.4269 1218.2813,1153.4269 Q1218.9063,1153.4269 1219.5,1153.1612 Q1220.0938,1152.88 1220.7188,1152.3019 L1220.7188,1155.0206 Z " fill="#000000"/><text fill="#000000" font-family="sans-serif" font-size="14" lengthAdjust="spacing" textLength="172" x="1238.25" y="1154.2267">KeyPerformanceIndicator</text><line style="stroke:#181818;stroke-width:0.5;" x1="1169.5" x2="1446.5" y1="1165.38" y2="1165.38"/><line style="stroke:#181818;stroke-width:0.5;" x1="1169.5" x2="1446.5" y1="1173.38" y2="1173.38"/><ellipse cx="1179.5" cy="1187.0284" fill="#84BE84" rx="3" ry="3" style="stroke:#038048;stroke-width:1.0;"/><text fill="#000000" font-family="sans-serif" font-size="14" lengthAdjust="spacing" textLength="253" x="1188.5" y="1190.3751">String getPumpPowerConsumption()</text><ellipse cx="1179.5" cy="1203.3253" fill="#84BE84" rx="3" ry="3" style="stroke:#038048;stroke-width:1.0;"/><text fill="#000000" font-family="sans-serif" font-size="14" lengthAdjust="spacing" textLength="108" x="1188.5" y="1206.672">String getFlow()</text><ellipse cx="1179.5" cy="1219.6222" fill="#84BE84" rx="3" ry="3" style="stroke:#038048;stroke-width:1.0;"/><text fill="#000000" font-family="sans-serif" font-size="14" lengthAdjust="spacing" textLength="140" x="1188.5" y="1222.9689">Number getRainfall()</text></g><!--class Problem--><g id="elem_Problem"><rect codeLine="84" fill="#F1F1F1" height="80.5938" id="Problem" rx="2.5" ry="2.5" style="stroke:#181818;stroke-width:0.5;" width="243" x="1504.5" y="1141.53"/><ellipse cx="1593.25" cy="1157.53" fill="#ADD1B2" rx="11" ry="11" style="stroke:#181818;stroke-width:1.0;"/><path d="M1596.2188,1163.1706 Q1595.6406,1163.4675 1595,1163.6081 Q1594.3594,1163.7644 1593.6563,1163.7644 Q1591.1563,1163.7644 1589.8281,1162.1238 Q1588.5156,1160.4675 1588.5156,1157.3425 Q1588.5156,1154.2175 1589.8281,1152.5613 Q1591.1563,1150.905 1593.6563,1150.905 Q1594.3594,1150.905 1595,1151.0613 Q1595.6563,1151.2175 1596.2188,1151.5144 L1596.2188,1154.2331 Q1595.5938,1153.655 1595,1153.3894 Q1594.4063,1153.1081 1593.7813,1153.1081 Q1592.4375,1153.1081 1591.75,1154.1863 Q1591.0625,1155.2488 1591.0625,1157.3425 Q1591.0625,1159.4363 1591.75,1160.5144 Q1592.4375,1161.5769 1593.7813,1161.5769 Q1594.4063,1161.5769 1595,1161.3113 Q1595.5938,1161.03 1596.2188,1160.4519 L1596.2188,1163.1706 Z " fill="#000000"/><text fill="#000000" font-family="sans-serif" font-size="14" lengthAdjust="spacing" textLength="57" x="1613.75" y="1162.3767">Problem</text><line style="stroke:#181818;stroke-width:0.5;" x1="1505.5" x2="1746.5" y1="1173.53" y2="1173.53"/><line style="stroke:#181818;stroke-width:0.5;" x1="1505.5" x2="1746.5" y1="1181.53" y2="1181.53"/><ellipse cx="1515.5" cy="1195.1784" fill="#84BE84" rx="3" ry="3" style="stroke:#038048;stroke-width:1.0;"/><text fill="#000000" font-family="sans-serif" font-size="14" lengthAdjust="spacing" textLength="130" x="1524.5" y="1198.5251">String getReason()</text><ellipse cx="1515.5" cy="1211.4753" fill="#84BE84" rx="3" ry="3" style="stroke:#038048;stroke-width:1.0;"/><text fill="#000000" font-family="sans-serif" font-size="14" lengthAdjust="spacing" textLength="217" x="1524.5" y="1214.822">Number getOverflowIndication()</text></g><!--class SewerIndicationUseCase--><g id="elem_SewerIndicationUseCase"><rect codeLine="88" fill="#F1F1F1" height="64.2969" id="SewerIndicationUseCase" rx="2.5" ry="2.5" style="stroke:#181818;stroke-width:0.5;" width="247" x="799.5" y="349.3"/><ellipse cx="834.3" cy="365.3" fill="#ADD1B2" rx="11" ry="11" style="stroke:#181818;stroke-width:1.0;"/><path d="M837.2688,370.9406 Q836.6906,371.2375 836.05,371.3781 Q835.4094,371.5344 834.7063,371.5344 Q832.2063,371.5344 830.8781,369.8937 Q829.5656,368.2375 829.5656,365.1125 Q829.5656,361.9875 830.8781,360.3312 Q832.2063,358.675 834.7063,358.675 Q835.4094,358.675 836.05,358.8312 Q836.7063,358.9875 837.2688,359.2844 L837.2688,362.0031 Q836.6438,361.425 836.05,361.1594 Q835.4563,360.8781 834.8313,360.8781 Q833.4875,360.8781 832.8,361.9562 Q832.1125,363.0187 832.1125,365.1125 Q832.1125,367.2062 832.8,368.2844 Q833.4875,369.3469 834.8313,369.3469 Q835.4563,369.3469 836.05,369.0812 Q836.6438,368.8 837.2688,368.2219 L837.2688,370.9406 Z " fill="#000000"/><text fill="#000000" font-family="sans-serif" font-size="14" lengthAdjust="spacing" textLength="171" x="852.7" y="370.1467">SewerIndicationUseCase</text><line style="stroke:#181818;stroke-width:0.5;" x1="800.5" x2="1045.5" y1="381.3" y2="381.3"/><line style="stroke:#181818;stroke-width:0.5;" x1="800.5" x2="1045.5" y1="389.3" y2="389.3"/><ellipse cx="810.5" cy="402.9484" fill="#84BE84" rx="3" ry="3" style="stroke:#038048;stroke-width:1.0;"/><text fill="#000000" font-family="sans-serif" font-size="14" lengthAdjust="spacing" textLength="221" x="819.5" y="406.2951">void serve(Map&lt;String, String&gt;)</text></g><!--class SewerObservationUseCase--><g id="elem_SewerObservationUseCase"><rect codeLine="91" fill="#F1F1F1" height="64.2969" id="SewerObservationUseCase" rx="2.5" ry="2.5" style="stroke:#181818;stroke-width:0.5;" width="220" x="1518" y="349.3"/><ellipse cx="1533" cy="365.3" fill="#ADD1B2" rx="11" ry="11" style="stroke:#181818;stroke-width:1.0;"/><path d="M1535.9688,370.9406 Q1535.3906,371.2375 1534.75,371.3781 Q1534.1094,371.5344 1533.4063,371.5344 Q1530.9063,371.5344 1529.5781,369.8937 Q1528.2656,368.2375 1528.2656,365.1125 Q1528.2656,361.9875 1529.5781,360.3312 Q1530.9063,358.675 1533.4063,358.675 Q1534.1094,358.675 1534.75,358.8312 Q1535.4063,358.9875 1535.9688,359.2844 L1535.9688,362.0031 Q1535.3438,361.425 1534.75,361.1594 Q1534.1563,360.8781 1533.5313,360.8781 Q1532.1875,360.8781 1531.5,361.9562 Q1530.8125,363.0187 1530.8125,365.1125 Q1530.8125,367.2062 1531.5,368.2844 Q1532.1875,369.3469 1533.5313,369.3469 Q1534.1563,369.3469 1534.75,369.0812 Q1535.3438,368.8 1535.9688,368.2219 L1535.9688,370.9406 Z " fill="#000000"/><text fill="#000000" font-family="sans-serif" font-size="14" lengthAdjust="spacing" textLength="188" x="1547" y="370.1467">SewerObservationUseCase</text><line style="stroke:#181818;stroke-width:0.5;" x1="1519" x2="1737" y1="381.3" y2="381.3"/><line style="stroke:#181818;stroke-width:0.5;" x1="1519" x2="1737" y1="389.3" y2="389.3"/><ellipse cx="1529" cy="402.9484" fill="#84BE84" rx="3" ry="3" style="stroke:#038048;stroke-width:1.0;"/><text fill="#000000" font-family="sans-serif" font-size="14" lengthAdjust="spacing" textLength="182" x="1538" y="406.2951">Set&lt;Sewer&gt; serve(String)</text></g><!--class SewersUseCase--><g id="elem_SewersUseCase"><rect codeLine="94" fill="#F1F1F1" height="80.5938" id="SewersUseCase" rx="2.5" ry="2.5" style="stroke:#181818;stroke-width:0.5;" width="222" x="1876" y="1326.27"/><ellipse cx="1926.25" cy="1342.27" fill="#B4A7E5" rx="11" ry="11" style="stroke:#181818;stroke-width:1.0;"/><path d="M1922.1719,1338.0356 L1922.1719,1335.8794 L1929.5625,1335.8794 L1929.5625,1338.0356 L1927.0938,1338.0356 L1927.0938,1346.1138 L1929.5625,1346.1138 L1929.5625,1348.27 L1922.1719,1348.27 L1922.1719,1346.1138 L1924.6406,1346.1138 L1924.6406,1338.0356 L1922.1719,1338.0356 Z " fill="#000000"/><text fill="#000000" font-family="sans-serif" font-size="14" font-style="italic" lengthAdjust="spacing" textLength="113" x="1946.75" y="1347.1167">SewersUseCase</text><line style="stroke:#181818;stroke-width:0.5;" x1="1877" x2="2097" y1="1358.27" y2="1358.27"/><line style="stroke:#181818;stroke-width:0.5;" x1="1877" x2="2097" y1="1366.27" y2="1366.27"/><ellipse cx="1887" cy="1379.9184" fill="#84BE84" rx="3" ry="3" style="stroke:#038048;stroke-width:1.0;"/><text fill="#000000" font-family="sans-serif" font-size="14" font-style="italic" lengthAdjust="spacing" textLength="196" x="1896" y="1383.2651">Set&lt;Object&gt; observe(UUID)</text><ellipse cx="1887" cy="1396.2153" fill="#84BE84" rx="3" ry="3" style="stroke:#038048;stroke-width:1.0;"/><text fill="#000000" font-family="sans-serif" font-size="14" font-style="italic" lengthAdjust="spacing" textLength="183" x="1896" y="1399.562">void indicate(UUID, Object)</text></g><!--class SewersUseCaseBridge--><g id="elem_SewersUseCaseBridge"><rect codeLine="98" fill="#F1F1F1" height="80.5938" id="SewersUseCaseBridge" rx="2.5" ry="2.5" style="stroke:#181818;stroke-width:0.5;" width="220" x="1876" y="1141.53"/><ellipse cx="1904.5" cy="1157.53" fill="#ADD1B2" rx="11" ry="11" style="stroke:#181818;stroke-width:1.0;"/><path d="M1907.4688,1163.1706 Q1906.8906,1163.4675 1906.25,1163.6081 Q1905.6094,1163.7644 1904.9063,1163.7644 Q1902.4063,1163.7644 1901.0781,1162.1238 Q1899.7656,1160.4675 1899.7656,1157.3425 Q1899.7656,1154.2175 1901.0781,1152.5613 Q1902.4063,1150.905 1904.9063,1150.905 Q1905.6094,1150.905 1906.25,1151.0613 Q1906.9063,1151.2175 1907.4688,1151.5144 L1907.4688,1154.2331 Q1906.8438,1153.655 1906.25,1153.3894 Q1905.6563,1153.1081 1905.0313,1153.1081 Q1903.6875,1153.1081 1903,1154.1863 Q1902.3125,1155.2488 1902.3125,1157.3425 Q1902.3125,1159.4363 1903,1160.5144 Q1903.6875,1161.5769 1905.0313,1161.5769 Q1905.6563,1161.5769 1906.25,1161.3113 Q1906.8438,1161.03 1907.4688,1160.4519 L1907.4688,1163.1706 Z " fill="#000000"/><text fill="#000000" font-family="sans-serif" font-size="14" lengthAdjust="spacing" textLength="158" x="1921.5" y="1162.3767">SewersUseCaseBridge</text><line style="stroke:#181818;stroke-width:0.5;" x1="1877" x2="2095" y1="1173.53" y2="1173.53"/><line style="stroke:#181818;stroke-width:0.5;" x1="1877" x2="2095" y1="1181.53" y2="1181.53"/><ellipse cx="1887" cy="1195.1784" fill="#84BE84" rx="3" ry="3" style="stroke:#038048;stroke-width:1.0;"/><text fill="#000000" font-family="sans-serif" font-size="14" lengthAdjust="spacing" textLength="194" x="1896" y="1198.5251">Set&lt;Sewer&gt; observe(UUID)</text><ellipse cx="1887" cy="1211.4753" fill="#84BE84" rx="3" ry="3" style="stroke:#038048;stroke-width:1.0;"/><text fill="#000000" font-family="sans-serif" font-size="14" lengthAdjust="spacing" textLength="139" x="1896" y="1214.822">void indicate(Sewer)</text></g><g id="elem_GMN49"><path d="M2274,691.48 L2274,716.6128 L2722,716.6128 L2722,701.48 L2712,691.48 L2274,691.48 " fill="#FEFFDD" style="stroke:#181818;stroke-width:0.5;"/><path d="M2712,691.48 L2712,701.48 L2722,701.48 L2712,691.48 " fill="#FEFFDD" style="stroke:#181818;stroke-width:1.0;"/><text fill="#000000" font-family="sans-serif" font-size="13" lengthAdjust="spacing" textLength="427" x="2280" y="708.5469">Invokes other components to build the final indication composition.</text></g><g id="elem_GMN55"><path d="M2274,965.22 L2274,974.05 L1743.22,978.05 L2274,982.05 L2274,990.3528 A0,0 0 0 0 2274,990.3528 L2812,990.3528 A0,0 0 0 0 2812,990.3528 L2812,975.22 L2802,965.22 L2274,965.22 A0,0 0 0 0 2274,965.22 " fill="#FEFFDD" style="stroke:#181818;stroke-width:0.5;"/><path d="M2802,965.22 L2802,975.22 L2812,975.22 L2802,965.22 " fill="#FEFFDD" style="stroke:#181818;stroke-width:0.5;"/><text fill="#000000" font-family="sans-serif" font-size="13" lengthAdjust="spacing" textLength="517" x="2280" y="982.2869">Represents the abstract functionality only; implementation details are elsewhere.</text></g><g id="elem_GMN65"><path d="M2277.5,170.59 L2277.5,195.7228 L2748.5,195.7228 L2748.5,180.59 L2738.5,170.59 L2277.5,170.59 " fill="#FEFFDD" style="stroke:#181818;stroke-width:0.5;"/><path d="M2738.5,170.59 L2738.5,180.59 L2748.5,180.59 L2738.5,170.59 " fill="#FEFFDD" style="stroke:#181818;stroke-width:1.0;"/><text fill="#000000" font-family="sans-serif" font-size="13" lengthAdjust="spacing" textLength="450" x="2283.5" y="187.6569">Frameworks and tools such as the Database, the Web Framework, etc.</text></g><g id="elem_GMN68"><path d="M2784,170.59 L2784,195.7228 L3890,195.7228 L3890,180.59 L3880,170.59 L2784,170.59 " fill="#FEFFDD" style="stroke:#181818;stroke-width:0.5;"/><path d="M3880,170.59 L3880,180.59 L3890,180.59 L3880,170.59 " fill="#FEFFDD" style="stroke:#181818;stroke-width:1.0;"/><text fill="#000000" font-family="sans-serif" font-size="13" lengthAdjust="spacing" textLength="1085" x="2790" y="187.6569">Convert data from the format most convenient for the use cases and entities, to the format most convenient for some external agency such as the Database or the Web.</text></g><g id="elem_GMN71"><path d="M2273.5,368.88 L2273.5,394.0128 L2946.5,394.0128 L2946.5,378.88 L2936.5,368.88 L2273.5,368.88 " fill="#FEFFDD" style="stroke:#181818;stroke-width:0.5;"/><path d="M2936.5,368.88 L2936.5,378.88 L2946.5,378.88 L2936.5,368.88 " fill="#FEFFDD" style="stroke:#181818;stroke-width:1.0;"/><text fill="#000000" font-family="sans-serif" font-size="13" lengthAdjust="spacing" textLength="652" x="2279.5" y="385.9469">Application specific business rules. It encapsulates and implements all of the use cases of the system.</text></g><g id="elem_GMN74"><path d="M2274.5,567.18 L2274.5,592.3128 L3213.5,592.3128 L3213.5,577.18 L3203.5,567.18 L2274.5,567.18 " fill="#FEFFDD" style="stroke:#181818;stroke-width:0.5;"/><path d="M3203.5,567.18 L3203.5,577.18 L3213.5,577.18 L3203.5,567.18 " fill="#FEFFDD" style="stroke:#181818;stroke-width:1.0;"/><text fill="#000000" font-family="sans-serif" font-size="13" lengthAdjust="spacing" textLength="918" x="2280.5" y="584.2469">Entities encapsulate Enterprise wide business rules. An entity can be an object with methods, or it can be a set of data structures and functions.</text></g><!--link SewerOverflowIndicationComponent to GMN49--><g id="link_SewerOverflowIndicationComponent_GMN49"><path d="M1056,671.59 C1056,656.59 1056,642.05 1056,642.05 C1056,642.05 2498.25,642.05 2498.25,642.05 C2498.25,642.05 2498.25,673.04 2498.25,691.2 " fill="none" id="SewerOverflowIndicationComponent-GMN49" style="stroke:#181818;stroke-width:1.0;stroke-dasharray:7.0,7.0;"/></g><!--link drivers to GMN65--><g id="link_drivers_GMN65"><path d="M2250.0639,184.05 C2250.7473,184.05 2251.4706,184.05 2252.2325,184.05 C2258.3275,184.05 2266.89,184.05 2277.22,184.05 " fill="none" id="drivers-GMN65" style="stroke:#181818;stroke-width:1.0;stroke-dasharray:7.0,7.0;"/></g><!--link adapters to GMN68--><g id="link_adapters_GMN68"><path d="M2202.4871,206.05 C2202.8122,206.05 2203.1462,206.05 2203.489,206.05 C2204.1746,206.05 2204.8954,206.05 2205.6508,206.05 C2207.1616,206.05 2208.8106,206.05 2210.5928,206.05 C2214.1572,206.05 2218.2542,206.05 2222.8428,206.05 C2241.1973,206.05 2267.418,206.05 2298.8828,206.05 C2361.8125,206.05 2445.7188,206.05 2529.625,206.05 C2697.4375,206.05 2865.25,206.05 2865.25,206.05 C2865.25,206.05 2865.25,201.35 2865.25,196.21 " fill="none" id="adapters-GMN68" style="stroke:#181818;stroke-width:1.0;stroke-dasharray:7.0,7.0;"/></g><!--link use_cases to GMN71--><g id="link_use_cases_GMN71"><path d="M2154.1422,382.05 C2154.2285,382.05 2154.3154,382.05 2154.4029,382.05 C2154.578,382.05 2154.7557,382.05 2154.9359,382.05 C2155.2964,382.05 2155.667,382.05 2156.0478,382.05 C2156.8094,382.05 2157.6113,382.05 2158.4527,382.05 C2165.1834,382.05 2174.4356,382.05 2185.6938,382.05 C2208.21,382.05 2238.75,382.05 2273.19,382.05 " fill="none" id="use_cases-GMN71" style="stroke:#181818;stroke-width:1.0;stroke-dasharray:7.0,7.0;"/></g><!--link entities to GMN74--><g id="link_entities_GMN74"><path d="M1828.0487,580.05 C1828.228,580.05 1828.4101,580.05 1828.5952,580.05 C1828.9653,580.05 1829.3468,580.05 1829.7397,580.05 C1831.3113,580.05 1833.0647,580.05 1834.9937,580.05 C1842.7096,580.05 1853.2348,580.05 1866.1734,580.05 C1892.0506,580.05 1927.5813,580.05 1969.5975,580.05 C2053.63,580.05 2163.605,580.05 2274.18,580.05 " fill="none" id="entities-GMN74" style="stroke:#181818;stroke-width:1.0;stroke-dasharray:7.0,7.0;"/></g><!--link SewerIndicationAdapter to SewerIndicationUseCase--><g id="link_SewerIndicationAdapter_SewerIndicationUseCase"><path codeLine="114" d="M923,215.45 C923,252.22 923,305.94 923,342.83 " fill="none" id="SewerIndicationAdapter-to-SewerIndicationUseCase" style="stroke:#181818;stroke-width:1.0;"/><polygon fill="#181818" points="923,348.83,927,339.83,923,343.83,919,339.83,923,348.83" style="stroke:#181818;stroke-width:1.0;"/></g><!--link SewerObservationAdapter to SewerObservationUseCase--><g id="link_SewerObservationAdapter_SewerObservationUseCase"><path codeLine="115" d="M1628,215.45 C1628,252.22 1628,305.94 1628,342.83 " fill="none" id="SewerObservationAdapter-to-SewerObservationUseCase" style="stroke:#181818;stroke-width:1.0;"/><polygon fill="#181818" points="1628,348.83,1632,339.83,1628,343.83,1624,339.83,1628,348.83" style="stroke:#181818;stroke-width:1.0;"/></g><!--reverse link SewersUseCase to SewersAdapterBridge--><g id="link_SewersUseCase_SewersAdapterBridge"><path codeLine="116" d="M1987,1425.09 C1987,1458.66 1987,1488.13 1987,1521.68 " fill="none" id="SewersUseCase-backto-SewersAdapterBridge" style="stroke:#181818;stroke-width:1.0;stroke-dasharray:7.0,7.0;"/><polygon fill="none" points="1987,1407.09,1981,1425.09,1993,1425.09,1987,1407.09" style="stroke:#181818;stroke-width:1.0;"/></g><!--link SewersAdapterBridge to SewersAdapter--><g id="link_SewersAdapterBridge_SewersAdapter"><path codeLine="117" d="M1987,1602.82 C1987,1621.48 1987,1637.54 1987,1656.18 " fill="none" id="SewersAdapterBridge-to-SewersAdapter" style="stroke:#181818;stroke-width:1.0;"/><polygon fill="#181818" points="1987,1662.18,1991,1653.18,1987,1657.18,1983,1653.18,1987,1662.18" style="stroke:#181818;stroke-width:1.0;"/></g><!--link SewerOverflowIndicationService to SewerOverflowIndicationComponent--><g id="link_SewerOverflowIndicationService_SewerOverflowIndicationComponent"><path codeLine="118" d="M923,612.08 C923,630.35 923,647.12 923,665.44 " fill="none" id="SewerOverflowIndicationService-to-SewerOverflowIndicationComponent" style="stroke:#181818;stroke-width:1.0;"/><polygon fill="#181818" points="923,671.44,927,662.44,923,666.44,919,662.44,923,671.44" style="stroke:#181818;stroke-width:1.0;"/></g><!--link SewerOverflowIndicationComponent to Sewers--><g id="link_SewerOverflowIndicationComponent_Sewers"><path codeLine="119" d="M1064.27,704.05 C1233.94,704.05 1496,704.05 1496,704.05 C1496,704.05 1496,978.05 1496,978.05 C1496,978.05 1500.99,978.05 1516.74,978.05 " fill="none" id="SewerOverflowIndicationComponent-to-Sewers" style="stroke:#181818;stroke-width:1.0;"/><polygon fill="#181818" points="1522.74,978.05,1513.74,974.05,1517.74,978.05,1513.74,982.05,1522.74,978.05" style="stroke:#181818;stroke-width:1.0;"/></g><!--link SewerOverflowIndicationComponent to RainIndicationComponent--><g id="link_SewerOverflowIndicationComponent_RainIndicationComponent"><path codeLine="120" d="M931,736.52 C931,789.2 931,886.69 931,939.35 " fill="none" id="SewerOverflowIndicationComponent-to-RainIndicationComponent" style="stroke:#181818;stroke-width:1.0;"/><polygon fill="#181818" points="931,945.35,935,936.35,931,940.35,927,936.35,931,945.35" style="stroke:#181818;stroke-width:1.0;"/></g><!--link SewerOverflowIndicationComponent to PumpIndicationComponent--><g id="link_SewerOverflowIndicationComponent_PumpIndicationComponent"><path codeLine="121" d="M790.25,736.55 C790.25,809.13 790.25,978.05 790.25,978.05 C790.25,978.05 785.67,978.05 769.95,978.05 " fill="none" id="SewerOverflowIndicationComponent-to-PumpIndicationComponent" style="stroke:#181818;stroke-width:1.0;"/><polygon fill="#181818" points="763.95,978.05,772.95,982.05,768.95,978.05,772.95,974.05,763.95,978.05" style="stroke:#181818;stroke-width:1.0;"/></g><!--link SewerOverflowIndicationComponent to FlowIndicationComponent--><g id="link_SewerOverflowIndicationComponent_FlowIndicationComponent"><path codeLine="122" d="M781.58,704.05 C606.46,704.05 331,704.05 331,704.05 C331,704.05 331,866.8 331,939.31 " fill="none" id="SewerOverflowIndicationComponent-to-FlowIndicationComponent" style="stroke:#181818;stroke-width:1.0;"/><polygon fill="#181818" points="331,945.31,335,936.31,331,940.31,327,936.31,331,945.31" style="stroke:#181818;stroke-width:1.0;"/></g><!--link SewerObservationService to SewerObservationComponent--><g id="link_SewerObservationService_SewerObservationComponent"><path codeLine="123" d="M1628,612.08 C1628,630.35 1628,647.12 1628,665.44 " fill="none" id="SewerObservationService-to-SewerObservationComponent" style="stroke:#181818;stroke-width:1.0;"/><polygon fill="#181818" points="1628,671.44,1632,662.44,1628,666.44,1624,662.44,1628,671.44" style="stroke:#181818;stroke-width:1.0;"/></g><!--link SewerObservationComponent to Sewers--><g id="link_SewerObservationComponent_Sewers"><path codeLine="124" d="M1633,736.52 C1633,786.65 1633,876.8 1633,931.36 " fill="none" id="SewerObservationComponent-to-Sewers" style="stroke:#181818;stroke-width:1.0;"/><polygon fill="#181818" points="1633,937.36,1637,928.36,1633,932.36,1629,928.36,1633,937.36" style="stroke:#181818;stroke-width:1.0;"/></g><!--link Sewer to Problem--><g id="link_Sewer_Problem"><path codeLine="125" d="M1487.7,1027.05 C1504.22,1027.05 1515.5,1027.05 1515.5,1027.05 C1515.5,1027.05 1515.5,1089.3 1515.5,1135.16 " fill="none" id="Sewer-to-Problem" style="stroke:#181818;stroke-width:1.0;"/><polygon fill="#181818" points="1515.5,1141.16,1519.5,1132.16,1515.5,1136.16,1511.5,1132.16,1515.5,1141.16" style="stroke:#181818;stroke-width:1.0;"/></g><!--link Sewer to KeyPerformanceIndicator--><g id="link_Sewer_KeyPerformanceIndicator"><path codeLine="126" d="M1338,1034.62 C1338,1065.51 1338,1097.34 1338,1126.91 " fill="none" id="Sewer-to-KeyPerformanceIndicator" style="stroke:#181818;stroke-width:1.0;"/><polygon fill="#181818" points="1338,1132.91,1342,1123.91,1338,1127.91,1334,1123.91,1338,1132.91" style="stroke:#181818;stroke-width:1.0;"/></g><!--link SewerIndicationUseCase to SewerOverflowIndicationService--><g id="link_SewerIndicationUseCase_SewerOverflowIndicationService"><path codeLine="127" d="M923,413.75 C923,450.51 923,504.23 923,541.13 " fill="none" id="SewerIndicationUseCase-to-SewerOverflowIndicationService" style="stroke:#181818;stroke-width:1.0;"/><polygon fill="#181818" points="923,547.13,927,538.13,923,542.13,919,538.13,923,547.13" style="stroke:#181818;stroke-width:1.0;"/></g><!--link SewerObservationUseCase to SewerObservationService--><g id="link_SewerObservationUseCase_SewerObservationService"><path codeLine="128" d="M1628,413.75 C1628,450.51 1628,504.23 1628,541.13 " fill="none" id="SewerObservationUseCase-to-SewerObservationService" style="stroke:#181818;stroke-width:1.0;"/><polygon fill="#181818" points="1628,547.13,1632,538.13,1628,542.13,1624,538.13,1628,547.13" style="stroke:#181818;stroke-width:1.0;"/></g><!--reverse link Sewers to SewersUseCaseBridge--><g id="link_Sewers_SewersUseCaseBridge"><path codeLine="129" d="M1761.24,1005.05 C1864.81,1005.05 1986,1005.05 1986,1005.05 C1986,1005.05 1986,1089.08 1986,1141.27 " fill="none" id="Sewers-backto-SewersUseCaseBridge" style="stroke:#181818;stroke-width:1.0;stroke-dasharray:7.0,7.0;"/><polygon fill="none" points="1743.24,1005.05,1761.24,1011.05,1761.24,999.05,1743.24,1005.05" style="stroke:#181818;stroke-width:1.0;"/></g><!--link SewersUseCaseBridge to SewersUseCase--><g id="link_SewersUseCaseBridge_SewersUseCase"><path codeLine="130" d="M1986,1222.37 C1986,1253.06 1986,1289.05 1986,1319.8 " fill="none" id="SewersUseCaseBridge-to-SewersUseCase" style="stroke:#181818;stroke-width:1.0;"/><polygon fill="#181818" points="1986,1325.8,1990,1316.8,1986,1320.8,1982,1316.8,1986,1325.8" style="stroke:#181818;stroke-width:1.0;"/></g><!--SRC=[tLbBR-Cs4BxhLx3snK6pGb7qqA0B0zdi1Z0MRO84GOyBYXhPh2LI8AbaZJJ_lKDHikM7RDcMjDqznP67Czyt6ixBFwMAJXDACWqJOK0b479gu9woEPs29X6DDNXwpaLA5Kr8p0MOHGf4AZEJdfx95wBn74Zxr4lTEH8g_WnA4wf923wJIKh5ma-LDBcSh-45b5zA3VLy4SGPaDUtfGOQqjGqLk4lnOU__nf5mMzLLO7CH4ZLuaXLFXSXP-WCVwbW6FC4sb0j0mtgkGlD-MEzHp6-wI-CQZZMi_xgu32AhkZLLLKh2CCDFqEflzGmZ5WK1h-quOnjxKrUAfF2A1btOSmlTG-bec8A7P4y75xjSToqrHD59za7mNLB- -ZbHnQTcVGB_TrU42SvJtcFpgrQwz71kypswMGy6SIGzEZeJOizEhlETASExx24hunqLynNDchBkiTYgZKPF5g1YQFBfRXsAWPdzpp-RiNarIFavsV9GvAJ7pqQnSNqmdjR0tINk-OiH5lrfKQnG_G8vlrTy0ymCzu2ncs36r461JXzAgIDb-6lQNCuo2iDj56KcRSgf8BCwEbfyl5YGovtPkd_NEAIk7ERNYrDVL0yd4Axy9tERMTk8MyEzmxDHx5yMGNH8whYx7ZaZLgi_JQt0lTFchvtCN99tDznXS3jceuR12e5sXvqsHpwDKOhqE4hiCmS0d-V9Mdlu6kC7Wt-WNBHE_WQeqU3hud1dbWSijwSZf06YEBJcI4o-dQ0lObubdES3QMPOOPbvNDDZ2H1nkEGu1SaueB6PKx2yqvGS_lPzq24nFAfAr0j9gM3DMij6TaqcmkCczRILkEeRe3pQwrkmIwZQ4-j7RG_5Zd5E-jjWQjvkSqFj1xnEm5x3v0gq2vyCMfBH2JA1BD-fh7jXwM85tyGdgJODAEi2-WG3EMn9bHXVnwZUhmEK1FQWwu7KSV7-Tzwc4p1JC9HxkZFiBZ7090geO91SQMbiYAVK-vax8kwTrF1s7vHVDQZYqg9NZsjYbVkHesbGHzJebz7qrsG_3RapB0ctajKTYE5ni_sNHO-MChOek-U_PKb0UIkikKeed4ygXPrvu91NuEPNnZSvFG0L9SiLeYta_XeCu-jldhIS8E81YtET_vk4qTsVPkPxtoW1ol26j0z5M4hiPwFRVSyi0Qest6cC7NYEDEGoEPWKrSYMgeBtgsY2Rn8DSTiZUdPI8bvMsTiPldPlF-H6XeWiClylxyX8CiZbmGCgwJraukIXma77nWIeZ4IAPcuHiacB4CIgOrTCJs3uBQiu-FyQ_GeANuYG0HbkhYqpTQ1qrecM9Y-ecdRYT4f2BROIPeKff1s6pnNGU1TfsbSzdyw1SOZph17r5m0HfpAOWmKCZ58Yz5KPp6-PSTpMMhntpYs0DPzKJpG2sqmMxOAUfcIlK_bho0LUEIJlVEfuWZbXOUmnUPQbCiwHWK9iAKG6DVsgg6ycP44p4o6-0BHwTmiXMnrpI7RsC1Rcp6JgS8PPI-YAqGxsIEzUpVkEFTxdMoRJiVTj1HuRUzq_Cp_Tzn5QcqTwR7EtQlJwtl3T7fej34gVxkjGWkyTmzCtpMbevTDFohTciNWZqhtjflxsNYrr0AvupT3Nl-xgFzhrccoEcaDUyCP_hlYTCBUnUjuYz19mjZVJNWTxnkwI1CrASdhRge_fxNj90qq0Nsww_Tg_my0]--></g></svg>