<svg xmlns="http://www.w3.org/2000/svg" xmlns:xlink="http://www.w3.org/1999/xlink" contentStyleType="text/css" height="2361px" preserveAspectRatio="none" style="width:2568px;height:2361px;background:#FFFFFF;" version="1.1" viewBox="0 0 2568 2361" width="2568px" zoomAndPan="magnify"><defs/><g><!--cluster drivers--><g id="cluster_drivers"><path d="M8.5,6 L304.5,6 A3.75,3.75 0 0 1 307,8.5 L314,28.2969 L2246.5,28.2969 A2.5,2.5 0 0 1 2249,30.7969 L2249,2351.73 A2.5,2.5 0 0 1 2246.5,2354.23 L8.5,2354.23 A2.5,2.5 0 0 1 6,2351.73 L6,8.5 A2.5,2.5 0 0 1 8.5,6 " fill="#87CEEB" style="stroke:#000000;stroke-width:1.5;"/><line style="stroke:#000000;stroke-width:1.5;" x1="6" x2="314" y1="28.2969" y2="28.2969"/><text fill="#000000" font-family="sans-serif" font-size="14" font-weight="bold" lengthAdjust="spacing" textLength="295" x="10" y="20.9951">de.company.prototype.sewer.drivers</text></g><!--cluster adapters--><g id="cluster_adapters"><path d="M799.5,255.29 L870.5,255.29 A3.75,3.75 0 0 1 873,257.79 L880,277.5869 L2061.5,277.5869 A2.5,2.5 0 0 1 2064,280.0869 L2064,1882.54 A2.5,2.5 0 0 1 2061.5,1885.04 L799.5,1885.04 A2.5,2.5 0 0 1 797,1882.54 L797,257.79 A2.5,2.5 0 0 1 799.5,255.29 " fill="#82FFB4" style="stroke:#000000;stroke-width:1.5;"/><line style="stroke:#000000;stroke-width:1.5;" x1="797" x2="880" y1="277.5869" y2="277.5869"/><text fill="#000000" font-family="sans-serif" font-size="14" font-weight="bold" lengthAdjust="spacing" textLength="70" x="801" y="270.2851">adapters</text></g><!--cluster boundary--><g id="cluster_boundary"><path d="M964.5,298.29 L1107.5,298.29 A3.75,3.75 0 0 1 1110,300.79 L1117,320.5869 L1185.5,320.5869 A2.5,2.5 0 0 1 1188,323.0869 L1188,411.09 A2.5,2.5 0 0 1 1185.5,413.59 L964.5,413.59 A2.5,2.5 0 0 1 962,411.09 L962,300.79 A2.5,2.5 0 0 1 964.5,298.29 " fill="#00FF00" style="stroke:#000000;stroke-width:1.5;"/><line style="stroke:#000000;stroke-width:1.5;" x1="962" x2="1117" y1="320.5869" y2="320.5869"/><text fill="#000000" font-family="sans-serif" font-size="14" font-weight="bold" lengthAdjust="spacing" textLength="142" x="966" y="313.2851">indicate.boundary</text></g><!--cluster boundary--><g id="cluster_boundary"><path d="M1681.5,298.29 L1827.5,298.29 A3.75,3.75 0 0 1 1830,300.79 L1837,320.5869 L1920.5,320.5869 A2.5,2.5 0 0 1 1923,323.0869 L1923,411.09 A2.5,2.5 0 0 1 1920.5,413.59 L1681.5,413.59 A2.5,2.5 0 0 1 1679,411.09 L1679,300.79 A2.5,2.5 0 0 1 1681.5,298.29 " fill="#00FF00" style="stroke:#000000;stroke-width:1.5;"/><line style="stroke:#000000;stroke-width:1.5;" x1="1679" x2="1837" y1="320.5869" y2="320.5869"/><text fill="#000000" font-family="sans-serif" font-size="14" font-weight="bold" lengthAdjust="spacing" textLength="145" x="1683" y="313.2851">observe.boundary</text></g><!--cluster boundary--><g id="cluster_boundary"><path d="M1597.5,1588.85 L1737.5,1588.85 A3.75,3.75 0 0 1 1740,1591.35 L1747,1611.1469 L1846.5,1611.1469 A2.5,2.5 0 0 1 1849,1613.6469 L1849,1858.54 A2.5,2.5 0 0 1 1846.5,1861.04 L1597.5,1861.04 A2.5,2.5 0 0 1 1595,1858.54 L1595,1591.35 A2.5,2.5 0 0 1 1597.5,1588.85 " fill="#00FF00" style="stroke:#000000;stroke-width:1.5;"/><line style="stroke:#000000;stroke-width:1.5;" x1="1595" x2="1747" y1="1611.1469" y2="1611.1469"/><text fill="#000000" font-family="sans-serif" font-size="14" font-weight="bold" lengthAdjust="spacing" textLength="139" x="1599" y="1603.8451">sewers.boundary</text></g><!--cluster use_cases--><g id="cluster_use_cases"><path d="M823.5,437.59 L906.5,437.59 A3.75,3.75 0 0 1 909,440.09 L916,459.8869 L2037.5,459.8869 A2.5,2.5 0 0 1 2040,462.3869 L2040,1562.35 A2.5,2.5 0 0 1 2037.5,1564.85 L823.5,1564.85 A2.5,2.5 0 0 1 821,1562.35 L821,440.09 A2.5,2.5 0 0 1 823.5,437.59 " fill="#FF9A99" style="stroke:#000000;stroke-width:1.5;"/><line style="stroke:#000000;stroke-width:1.5;" x1="821" x2="916" y1="459.8869" y2="459.8869"/><text fill="#000000" font-family="sans-serif" font-size="14" font-weight="bold" lengthAdjust="spacing" textLength="82" x="825" y="452.5851">use_cases</text></g><!--cluster entities--><g id="cluster_entities"><path d="M847.5,619.89 L907.5,619.89 A3.75,3.75 0 0 1 910,622.39 L917,642.1869 L1621.5,642.1869 A2.5,2.5 0 0 1 1624,644.6869 L1624,1425.76 A2.5,2.5 0 0 1 1621.5,1428.26 L847.5,1428.26 A2.5,2.5 0 0 1 845,1425.76 L845,622.39 A2.5,2.5 0 0 1 847.5,619.89 " fill="#FCFDB0" style="stroke:#000000;stroke-width:1.5;"/><line style="stroke:#000000;stroke-width:1.5;" x1="845" x2="917" y1="642.1869" y2="642.1869"/><text fill="#000000" font-family="sans-serif" font-size="14" font-weight="bold" lengthAdjust="spacing" textLength="59" x="849" y="634.8851">entities</text></g><!--cluster boundary--><g id="cluster_boundary"><path d="M896.5,662.89 L1039.5,662.89 A3.75,3.75 0 0 1 1042,665.39 L1049,685.1869 L1253.5,685.1869 A2.5,2.5 0 0 1 1256,687.6869 L1256,923.98 A2.5,2.5 0 0 1 1253.5,926.48 L896.5,926.48 A2.5,2.5 0 0 1 894,923.98 L894,665.39 A2.5,2.5 0 0 1 896.5,662.89 " fill="#00FF00" style="stroke:#000000;stroke-width:1.5;"/><line style="stroke:#000000;stroke-width:1.5;" x1="894" x2="1049" y1="685.1869" y2="685.1869"/><text fill="#000000" font-family="sans-serif" font-size="14" font-weight="bold" lengthAdjust="spacing" textLength="142" x="898" y="677.8851">indicate.boundary</text></g><!--cluster control--><g id="cluster_control"><path d="M920.5,787.18 L977.5,787.18 A3.75,3.75 0 0 1 980,789.68 L987,809.4769 L1229.5,809.4769 A2.5,2.5 0 0 1 1232,811.9769 L1232,899.98 A2.5,2.5 0 0 1 1229.5,902.48 L920.5,902.48 A2.5,2.5 0 0 1 918,899.98 L918,789.68 A2.5,2.5 0 0 1 920.5,787.18 " fill="#FFA500" style="stroke:#000000;stroke-width:1.5;"/><line style="stroke:#000000;stroke-width:1.5;" x1="918" x2="987" y1="809.4769" y2="809.4769"/><text fill="#000000" font-family="sans-serif" font-size="14" font-weight="bold" lengthAdjust="spacing" textLength="56" x="922" y="802.1751">control</text></g><!--cluster boundary--><g id="cluster_boundary"><path d="M1282.5,662.89 L1428.5,662.89 A3.75,3.75 0 0 1 1431,665.39 L1438,685.1869 L1597.5,685.1869 A2.5,2.5 0 0 1 1600,687.6869 L1600,923.98 A2.5,2.5 0 0 1 1597.5,926.48 L1282.5,926.48 A2.5,2.5 0 0 1 1280,923.98 L1280,665.39 A2.5,2.5 0 0 1 1282.5,662.89 " fill="#00FF00" style="stroke:#000000;stroke-width:1.5;"/><line style="stroke:#000000;stroke-width:1.5;" x1="1280" x2="1438" y1="685.1869" y2="685.1869"/><text fill="#000000" font-family="sans-serif" font-size="14" font-weight="bold" lengthAdjust="spacing" textLength="145" x="1284" y="677.8851">observe.boundary</text></g><!--cluster control--><g id="cluster_control"><path d="M1306.5,787.18 L1363.5,787.18 A3.75,3.75 0 0 1 1366,789.68 L1373,809.4769 L1573.5,809.4769 A2.5,2.5 0 0 1 1576,811.9769 L1576,899.98 A2.5,2.5 0 0 1 1573.5,902.48 L1306.5,902.48 A2.5,2.5 0 0 1 1304,899.98 L1304,789.68 A2.5,2.5 0 0 1 1306.5,787.18 " fill="#FFA500" style="stroke:#000000;stroke-width:1.5;"/><line style="stroke:#000000;stroke-width:1.5;" x1="1304" x2="1373" y1="809.4769" y2="809.4769"/><text fill="#000000" font-family="sans-serif" font-size="14" font-weight="bold" lengthAdjust="spacing" textLength="56" x="1308" y="802.1751">control</text></g><!--cluster sewer--><g id="cluster_sewer"><path d="M871.5,950.48 L922.5,950.48 A3.75,3.75 0 0 1 925,952.98 L932,972.7769 L1597.5,972.7769 A2.5,2.5 0 0 1 1600,975.2769 L1600,1401.76 A2.5,2.5 0 0 1 1597.5,1404.26 L871.5,1404.26 A2.5,2.5 0 0 1 869,1401.76 L869,952.98 A2.5,2.5 0 0 1 871.5,950.48 " fill="none" style="stroke:#000000;stroke-width:1.5;"/><line style="stroke:#000000;stroke-width:1.5;" x1="869" x2="932" y1="972.7769" y2="972.7769"/><text fill="#000000" font-family="sans-serif" font-size="14" font-weight="bold" lengthAdjust="spacing" textLength="50" x="873" y="965.4751">sewer</text></g><!--cluster boundary--><g id="cluster_boundary"><path d="M895.5,993.48 L971.5,993.48 A3.75,3.75 0 0 1 974,995.98 L981,1015.7769 L1573.5,1015.7769 A2.5,2.5 0 0 1 1576,1018.2769 L1576,1205.87 A2.5,2.5 0 0 1 1573.5,1208.37 L895.5,1208.37 A2.5,2.5 0 0 1 893,1205.87 L893,995.98 A2.5,2.5 0 0 1 895.5,993.48 " fill="#00FF00" style="stroke:#000000;stroke-width:1.5;"/><line style="stroke:#000000;stroke-width:1.5;" x1="893" x2="981" y1="1015.7769" y2="1015.7769"/><text fill="#000000" font-family="sans-serif" font-size="14" font-weight="bold" lengthAdjust="spacing" textLength="75" x="897" y="1008.4751">boundary</text></g><!--cluster entity--><g id="cluster_entity"><path d="M919.5,1036.48 L1026.5,1036.48 A3.75,3.75 0 0 1 1029,1038.98 L1036,1058.7769 L1202.5,1058.7769 A2.5,2.5 0 0 1 1205,1061.2769 L1205,1181.87 A2.5,2.5 0 0 1 1202.5,1184.37 L919.5,1184.37 A2.5,2.5 0 0 1 917,1181.87 L917,1038.98 A2.5,2.5 0 0 1 919.5,1036.48 " fill="#FCFDB0" style="stroke:#000000;stroke-width:1.5;"/><line style="stroke:#000000;stroke-width:1.5;" x1="917" x2="1036" y1="1058.7769" y2="1058.7769"/><text fill="#000000" font-family="sans-serif" font-size="14" font-weight="bold" lengthAdjust="spacing" textLength="106" x="921" y="1051.4751">control.entity</text></g><!--cluster entity--><g id="cluster_entity"><path d="M901.5,1232.37 L1116.5,1232.37 A3.75,3.75 0 0 1 1119,1234.87 L1126,1254.6669 L1208.5,1254.6669 A2.5,2.5 0 0 1 1211,1257.1669 L1211,1377.76 A2.5,2.5 0 0 1 1208.5,1380.26 L901.5,1380.26 A2.5,2.5 0 0 1 899,1377.76 L899,1234.87 A2.5,2.5 0 0 1 901.5,1232.37 " fill="#FCFDB0" style="stroke:#000000;stroke-width:1.5;"/><line style="stroke:#000000;stroke-width:1.5;" x1="899" x2="1126" y1="1254.6669" y2="1254.6669"/><text fill="#000000" font-family="sans-serif" font-size="14" font-weight="bold" lengthAdjust="spacing" textLength="214" x="903" y="1247.3651">kpi.boundary.control.entity</text></g><!--cluster entity--><g id="cluster_entity"><path d="M1237.5,1240.52 L1494.5,1240.52 A3.75,3.75 0 0 1 1497,1243.02 L1504,1262.8169 L1508.5,1262.8169 A2.5,2.5 0 0 1 1511,1265.3169 L1511,1369.61 A2.5,2.5 0 0 1 1508.5,1372.11 L1237.5,1372.11 A2.5,2.5 0 0 1 1235,1369.61 L1235,1243.02 A2.5,2.5 0 0 1 1237.5,1240.52 " fill="#FCFDB0" style="stroke:#000000;stroke-width:1.5;"/><line style="stroke:#000000;stroke-width:1.5;" x1="1235" x2="1504" y1="1262.8169" y2="1262.8169"/><text fill="#000000" font-family="sans-serif" font-size="14" font-weight="bold" lengthAdjust="spacing" textLength="256" x="1239" y="1255.5151">problem.boundary.control.entity</text></g><!--cluster boundary--><g id="cluster_boundary"><path d="M960.5,480.59 L1103.5,480.59 A3.75,3.75 0 0 1 1106,483.09 L1113,502.8869 L1189.5,502.8869 A2.5,2.5 0 0 1 1192,505.3869 L1192,593.39 A2.5,2.5 0 0 1 1189.5,595.89 L960.5,595.89 A2.5,2.5 0 0 1 958,593.39 L958,483.09 A2.5,2.5 0 0 1 960.5,480.59 " fill="#00FF00" style="stroke:#000000;stroke-width:1.5;"/><line style="stroke:#000000;stroke-width:1.5;" x1="958" x2="1113" y1="502.8869" y2="502.8869"/><text fill="#000000" font-family="sans-serif" font-size="14" font-weight="bold" lengthAdjust="spacing" textLength="142" x="962" y="495.5851">indicate.boundary</text></g><!--cluster boundary--><g id="cluster_boundary"><path d="M1561.5,480.59 L1707.5,480.59 A3.75,3.75 0 0 1 1710,483.09 L1717,502.8869 L1808.5,502.8869 A2.5,2.5 0 0 1 1811,505.3869 L1811,593.39 A2.5,2.5 0 0 1 1808.5,595.89 L1561.5,595.89 A2.5,2.5 0 0 1 1559,593.39 L1559,483.09 A2.5,2.5 0 0 1 1561.5,480.59 " fill="#00FF00" style="stroke:#000000;stroke-width:1.5;"/><line style="stroke:#000000;stroke-width:1.5;" x1="1559" x2="1717" y1="502.8869" y2="502.8869"/><text fill="#000000" font-family="sans-serif" font-size="14" font-weight="bold" lengthAdjust="spacing" textLength="145" x="1563" y="495.5851">observe.boundary</text></g><!--cluster boundary--><g id="cluster_boundary"><path d="M1650.5,1240.52 L1790.5,1240.52 A3.75,3.75 0 0 1 1793,1243.02 L1800,1262.8169 L2013.5,1262.8169 A2.5,2.5 0 0 1 2016,1265.3169 L2016,1538.35 A2.5,2.5 0 0 1 2013.5,1540.85 L1650.5,1540.85 A2.5,2.5 0 0 1 1648,1538.35 L1648,1243.02 A2.5,2.5 0 0 1 1650.5,1240.52 " fill="#00FF00" style="stroke:#000000;stroke-width:1.5;"/><line style="stroke:#000000;stroke-width:1.5;" x1="1648" x2="1800" y1="1262.8169" y2="1262.8169"/><text fill="#000000" font-family="sans-serif" font-size="14" font-weight="bold" lengthAdjust="spacing" textLength="139" x="1652" y="1255.5151">sewers.boundary</text></g><!--cluster boundary--><g id="cluster_boundary"><path d="M32.5,92 L204.5,92 A3.75,3.75 0 0 1 207,94.5 L214,114.2969 L899.5,114.2969 A2.5,2.5 0 0 1 902,116.7969 L902,204.79 A2.5,2.5 0 0 1 899.5,207.29 L32.5,207.29 A2.5,2.5 0 0 1 30,204.79 L30,94.5 A2.5,2.5 0 0 1 32.5,92 " fill="#00FF00" style="stroke:#000000;stroke-width:1.5;"/><line style="stroke:#000000;stroke-width:1.5;" x1="30" x2="214" y1="114.2969" y2="114.2969"/><text fill="#000000" font-family="sans-serif" font-size="14" font-weight="bold" lengthAdjust="spacing" textLength="171" x="34" y="106.9951">file.indicate.boundary</text></g><!--cluster persistence--><g id="cluster_persistence"><path d="M1043.5,1909.04 L1138.5,1909.04 A3.75,3.75 0 0 1 1141,1911.54 L1148,1931.3369 L2222.5,1931.3369 A2.5,2.5 0 0 1 2225,1933.8369 L2225,2327.73 A2.5,2.5 0 0 1 2222.5,2330.23 L1043.5,2330.23 A2.5,2.5 0 0 1 1041,2327.73 L1041,1911.54 A2.5,2.5 0 0 1 1043.5,1909.04 " fill="#FFFFFF" style="stroke:#000000;stroke-width:1.5;"/><line style="stroke:#000000;stroke-width:1.5;" x1="1041" x2="1148" y1="1931.3369" y2="1931.3369"/><text fill="#000000" font-family="sans-serif" font-size="14" font-weight="bold" lengthAdjust="spacing" textLength="94" x="1045" y="1924.0351">persistence</text></g><!--cluster aws--><g id="cluster_aws"><path d="M1067.5,2107.64 L1100.5,2107.64 A3.75,3.75 0 0 1 1103,2110.14 L1110,2129.9369 L1642.5,2129.9369 A2.5,2.5 0 0 1 1645,2132.4369 L1645,2303.73 A2.5,2.5 0 0 1 1642.5,2306.23 L1067.5,2306.23 A2.5,2.5 0 0 1 1065,2303.73 L1065,2110.14 A2.5,2.5 0 0 1 1067.5,2107.64 " fill="#F0A238" style="stroke:#000000;stroke-width:1.5;"/><line style="stroke:#000000;stroke-width:1.5;" x1="1065" x2="1110" y1="2129.9369" y2="2129.9369"/><text fill="#000000" font-family="sans-serif" font-size="14" font-weight="bold" lengthAdjust="spacing" textLength="32" x="1069" y="2122.6351">aws</text></g><!--cluster boundary--><g id="cluster_boundary"><path d="M1091.5,2150.64 L1298.5,2150.64 A3.75,3.75 0 0 1 1301,2153.14 L1308,2172.9369 L1340.5,2172.9369 A2.5,2.5 0 0 1 1343,2175.4369 L1343,2279.73 A2.5,2.5 0 0 1 1340.5,2282.23 L1091.5,2282.23 A2.5,2.5 0 0 1 1089,2279.73 L1089,2153.14 A2.5,2.5 0 0 1 1091.5,2150.64 " fill="#00FF00" style="stroke:#000000;stroke-width:1.5;"/><line style="stroke:#000000;stroke-width:1.5;" x1="1089" x2="1308" y1="2172.9369" y2="2172.9369"/><text fill="#000000" font-family="sans-serif" font-size="14" font-weight="bold" lengthAdjust="spacing" textLength="206" x="1093" y="2165.6351">dynamo.sewers.boundary</text></g><!--cluster boundary--><g id="cluster_boundary"><path d="M1369.5,2150.64 L1533.5,2150.64 A3.75,3.75 0 0 1 1536,2153.14 L1543,2172.9369 L1618.5,2172.9369 A2.5,2.5 0 0 1 1621,2175.4369 L1621,2279.73 A2.5,2.5 0 0 1 1618.5,2282.23 L1369.5,2282.23 A2.5,2.5 0 0 1 1367,2279.73 L1367,2153.14 A2.5,2.5 0 0 1 1369.5,2150.64 " fill="#00FF00" style="stroke:#000000;stroke-width:1.5;"/><line style="stroke:#000000;stroke-width:1.5;" x1="1367" x2="1543" y1="2172.9369" y2="2172.9369"/><text fill="#000000" font-family="sans-serif" font-size="14" font-weight="bold" lengthAdjust="spacing" textLength="163" x="1371" y="2165.6351">s3.sewers.boundary</text></g><!--cluster boundary--><g id="cluster_boundary"><path d="M1671.5,2150.64 L1840.5,2150.64 A3.75,3.75 0 0 1 1843,2153.14 L1850,2172.9369 L1920.5,2172.9369 A2.5,2.5 0 0 1 1923,2175.4369 L1923,2279.73 A2.5,2.5 0 0 1 1920.5,2282.23 L1671.5,2282.23 A2.5,2.5 0 0 1 1669,2279.73 L1669,2153.14 A2.5,2.5 0 0 1 1671.5,2150.64 " fill="#00FF00" style="stroke:#000000;stroke-width:1.5;"/><line style="stroke:#000000;stroke-width:1.5;" x1="1669" x2="1850" y1="2172.9369" y2="2172.9369"/><text fill="#000000" font-family="sans-serif" font-size="14" font-weight="bold" lengthAdjust="spacing" textLength="168" x="1673" y="2165.6351">file.sewers.boundary</text></g><!--cluster boundary--><g id="cluster_boundary"><path d="M1670.5,1952.04 L1915.5,1952.04 A3.75,3.75 0 0 1 1918,1954.54 L1925,1974.3369 L1925.5,1974.3369 A2.5,2.5 0 0 1 1928,1976.8369 L1928,2081.14 A2.5,2.5 0 0 1 1925.5,2083.64 L1670.5,2083.64 A2.5,2.5 0 0 1 1668,2081.14 L1668,1954.54 A2.5,2.5 0 0 1 1670.5,1952.04 " fill="#00FF00" style="stroke:#000000;stroke-width:1.5;"/><line style="stroke:#000000;stroke-width:1.5;" x1="1668" x2="1925" y1="1974.3369" y2="1974.3369"/><text fill="#000000" font-family="sans-serif" font-size="14" font-weight="bold" lengthAdjust="spacing" textLength="244" x="1672" y="1967.0351">orchestrator.sewers.boundary</text></g><!--cluster boundary--><g id="cluster_boundary"><path d="M1949.5,2150.64 L2161.5,2150.64 A3.75,3.75 0 0 1 2164,2153.14 L2171,2172.9369 L2198.5,2172.9369 A2.5,2.5 0 0 1 2201,2175.4369 L2201,2279.73 A2.5,2.5 0 0 1 2198.5,2282.23 L1949.5,2282.23 A2.5,2.5 0 0 1 1947,2279.73 L1947,2153.14 A2.5,2.5 0 0 1 1949.5,2150.64 " fill="#00FF00" style="stroke:#000000;stroke-width:1.5;"/><line style="stroke:#000000;stroke-width:1.5;" x1="1947" x2="2171" y1="2172.9369" y2="2172.9369"/><text fill="#000000" font-family="sans-serif" font-size="14" font-weight="bold" lengthAdjust="spacing" textLength="211" x="1951" y="2165.6351">panache.sewers.boundary</text></g><!--cluster rest--><g id="cluster_rest"><path d="M928.5,49 L961.5,49 A3.75,3.75 0 0 1 964,51.5 L971,71.2969 L2222.5,71.2969 A2.5,2.5 0 0 1 2225,73.7969 L2225,228.79 A2.5,2.5 0 0 1 2222.5,231.29 L928.5,231.29 A2.5,2.5 0 0 1 926,228.79 L926,51.5 A2.5,2.5 0 0 1 928.5,49 " fill="#FFFFFF" style="stroke:#000000;stroke-width:1.5;"/><line style="stroke:#000000;stroke-width:1.5;" x1="926" x2="971" y1="71.2969" y2="71.2969"/><text fill="#000000" font-family="sans-serif" font-size="14" font-weight="bold" lengthAdjust="spacing" textLength="32" x="930" y="63.9951">rest</text></g><!--cluster boundary--><g id="cluster_boundary"><path d="M952.5,92 L1095.5,92 A3.75,3.75 0 0 1 1098,94.5 L1105,114.2969 L1920.5,114.2969 A2.5,2.5 0 0 1 1923,116.7969 L1923,204.79 A2.5,2.5 0 0 1 1920.5,207.29 L952.5,207.29 A2.5,2.5 0 0 1 950,204.79 L950,94.5 A2.5,2.5 0 0 1 952.5,92 " fill="#00FF00" style="stroke:#000000;stroke-width:1.5;"/><line style="stroke:#000000;stroke-width:1.5;" x1="950" x2="1105" y1="114.2969" y2="114.2969"/><text fill="#000000" font-family="sans-serif" font-size="14" font-weight="bold" lengthAdjust="spacing" textLength="142" x="954" y="106.9951">indicate.boundary</text></g><!--cluster boundary--><g id="cluster_boundary"><path d="M1949.5,92 L2095.5,92 A3.75,3.75 0 0 1 2098,94.5 L2105,114.2969 L2198.5,114.2969 A2.5,2.5 0 0 1 2201,116.7969 L2201,204.79 A2.5,2.5 0 0 1 2198.5,207.29 L1949.5,207.29 A2.5,2.5 0 0 1 1947,204.79 L1947,94.5 A2.5,2.5 0 0 1 1949.5,92 " fill="#00FF00" style="stroke:#000000;stroke-width:1.5;"/><line style="stroke:#000000;stroke-width:1.5;" x1="1947" x2="2105" y1="114.2969" y2="114.2969"/><text fill="#000000" font-family="sans-serif" font-size="14" font-weight="bold" lengthAdjust="spacing" textLength="145" x="1951" y="106.9951">observe.boundary</text></g><!--cluster panache--><g id="cluster_panache"><path d="M2275.5,100.14 L2548.5,100.14 A3.75,3.75 0 0 1 2551,102.64 L2558,122.4369 L2558.5,122.4369 A2.5,2.5 0 0 1 2561,124.9369 L2561,196.64 A2.5,2.5 0 0 1 2558.5,199.14 L2275.5,199.14 A2.5,2.5 0 0 1 2273,196.64 L2273,102.64 A2.5,2.5 0 0 1 2275.5,100.14 " fill="#4695EB" style="stroke:#000000;stroke-width:1.5;"/><line style="stroke:#000000;stroke-width:1.5;" x1="2273" x2="2558" y1="122.4369" y2="122.4369"/><text fill="#000000" font-family="sans-serif" font-size="14" font-weight="bold" lengthAdjust="spacing" textLength="272" x="2277" y="115.1351">io.quarkus.hibernate.orm.panache</text></g><!--class SewerIndicationAdapter--><g id="elem_SewerIndicationAdapter"><rect codeLine="42" fill="#F1F1F1" height="64.2969" id="SewerIndicationAdapter" rx="2.5" ry="2.5" style="stroke:#181818;stroke-width:0.5;" width="195" x="977.5" y="333.29"/><ellipse cx="992.5" cy="349.29" fill="#ADD1B2" rx="11" ry="11" style="stroke:#181818;stroke-width:1.0;"/><path d="M995.4688,354.9306 Q994.8906,355.2275 994.25,355.3681 Q993.6094,355.5244 992.9063,355.5244 Q990.4063,355.5244 989.0781,353.8837 Q987.7656,352.2275 987.7656,349.1025 Q987.7656,345.9775 989.0781,344.3212 Q990.4063,342.665 992.9063,342.665 Q993.6094,342.665 994.25,342.8212 Q994.9063,342.9775 995.4688,343.2744 L995.4688,345.9931 Q994.8438,345.415 994.25,345.1494 Q993.6563,344.8681 993.0313,344.8681 Q991.6875,344.8681 991,345.9462 Q990.3125,347.0087 990.3125,349.1025 Q990.3125,351.1962 991,352.2744 Q991.6875,353.3369 993.0313,353.3369 Q993.6563,353.3369 994.25,353.0712 Q994.8438,352.79 995.4688,352.2119 L995.4688,354.9306 Z " fill="#000000"/><text fill="#000000" font-family="sans-serif" font-size="14" lengthAdjust="spacing" textLength="163" x="1006.5" y="354.1367">SewerIndicationAdapter</text><line style="stroke:#181818;stroke-width:0.5;" x1="978.5" x2="1171.5" y1="365.29" y2="365.29"/><line style="stroke:#181818;stroke-width:0.5;" x1="978.5" x2="1171.5" y1="373.29" y2="373.29"/><ellipse cx="988.5" cy="386.9384" fill="#84BE84" rx="3" ry="3" style="stroke:#038048;stroke-width:1.0;"/><text fill="#000000" font-family="sans-serif" font-size="14" lengthAdjust="spacing" textLength="120" x="997.5" y="390.2851">void serve(String)</text></g><!--class SewerObservationAdapter--><g id="elem_SewerObservationAdapter"><rect codeLine="45" fill="#F1F1F1" height="64.2969" id="SewerObservationAdapter" rx="2.5" ry="2.5" style="stroke:#181818;stroke-width:0.5;" width="212" x="1695" y="333.29"/><ellipse cx="1710" cy="349.29" fill="#ADD1B2" rx="11" ry="11" style="stroke:#181818;stroke-width:1.0;"/><path d="M1712.9688,354.9306 Q1712.3906,355.2275 1711.75,355.3681 Q1711.1094,355.5244 1710.4063,355.5244 Q1707.9063,355.5244 1706.5781,353.8837 Q1705.2656,352.2275 1705.2656,349.1025 Q1705.2656,345.9775 1706.5781,344.3212 Q1707.9063,342.665 1710.4063,342.665 Q1711.1094,342.665 1711.75,342.8212 Q1712.4063,342.9775 1712.9688,343.2744 L1712.9688,345.9931 Q1712.3438,345.415 1711.75,345.1494 Q1711.1563,344.8681 1710.5313,344.8681 Q1709.1875,344.8681 1708.5,345.9462 Q1707.8125,347.0087 1707.8125,349.1025 Q1707.8125,351.1962 1708.5,352.2744 Q1709.1875,353.3369 1710.5313,353.3369 Q1711.1563,353.3369 1711.75,353.0712 Q1712.3438,352.79 1712.9688,352.2119 L1712.9688,354.9306 Z " fill="#000000"/><text fill="#000000" font-family="sans-serif" font-size="14" lengthAdjust="spacing" textLength="180" x="1724" y="354.1367">SewerObservationAdapter</text><line style="stroke:#181818;stroke-width:0.5;" x1="1696" x2="1906" y1="365.29" y2="365.29"/><line style="stroke:#181818;stroke-width:0.5;" x1="1696" x2="1906" y1="373.29" y2="373.29"/><ellipse cx="1706" cy="386.9384" fill="#84BE84" rx="3" ry="3" style="stroke:#038048;stroke-width:1.0;"/><text fill="#000000" font-family="sans-serif" font-size="14" lengthAdjust="spacing" textLength="184" x="1715" y="390.2851">Set&lt;Object&gt; serve(String)</text></g><!--class SewersAdapter--><g id="elem_SewersAdapter"><rect codeLine="48" fill="#F1F1F1" height="80.5938" id="SewersAdapter" rx="2.5" ry="2.5" style="stroke:#181818;stroke-width:0.5;" width="222" x="1611" y="1764.45"/><ellipse cx="1665.25" cy="1780.45" fill="#B4A7E5" rx="11" ry="11" style="stroke:#181818;stroke-width:1.0;"/><path d="M1661.1719,1776.2156 L1661.1719,1774.0594 L1668.5625,1774.0594 L1668.5625,1776.2156 L1666.0938,1776.2156 L1666.0938,1784.2938 L1668.5625,1784.2938 L1668.5625,1786.45 L1661.1719,1786.45 L1661.1719,1784.2938 L1663.6406,1784.2938 L1663.6406,1776.2156 L1661.1719,1776.2156 Z " fill="#000000"/><text fill="#000000" font-family="sans-serif" font-size="14" font-style="italic" lengthAdjust="spacing" textLength="105" x="1685.75" y="1785.2967">SewersAdapter</text><line style="stroke:#181818;stroke-width:0.5;" x1="1612" x2="1832" y1="1796.45" y2="1796.45"/><line style="stroke:#181818;stroke-width:0.5;" x1="1612" x2="1832" y1="1804.45" y2="1804.45"/><ellipse cx="1622" cy="1818.0984" fill="#84BE84" rx="3" ry="3" style="stroke:#038048;stroke-width:1.0;"/><text fill="#000000" font-family="sans-serif" font-size="14" font-style="italic" lengthAdjust="spacing" textLength="196" x="1631" y="1821.4451">Set&lt;Object&gt; observe(UUID)</text><ellipse cx="1622" cy="1834.3953" fill="#84BE84" rx="3" ry="3" style="stroke:#038048;stroke-width:1.0;"/><text fill="#000000" font-family="sans-serif" font-size="14" font-style="italic" lengthAdjust="spacing" textLength="183" x="1631" y="1837.742">void indicate(UUID, Object)</text></g><!--class SewersAdapterBridge--><g id="elem_SewersAdapterBridge"><rect codeLine="52" fill="#F1F1F1" height="80.5938" id="SewersAdapterBridge" rx="2.5" ry="2.5" style="stroke:#181818;stroke-width:0.5;" width="222" x="1611" y="1623.85"/><ellipse cx="1644" cy="1639.85" fill="#ADD1B2" rx="11" ry="11" style="stroke:#181818;stroke-width:1.0;"/><path d="M1646.9688,1645.4906 Q1646.3906,1645.7875 1645.75,1645.9281 Q1645.1094,1646.0844 1644.4063,1646.0844 Q1641.9063,1646.0844 1640.5781,1644.4438 Q1639.2656,1642.7875 1639.2656,1639.6625 Q1639.2656,1636.5375 1640.5781,1634.8813 Q1641.9063,1633.225 1644.4063,1633.225 Q1645.1094,1633.225 1645.75,1633.3813 Q1646.4063,1633.5375 1646.9688,1633.8344 L1646.9688,1636.5531 Q1646.3438,1635.975 1645.75,1635.7094 Q1645.1563,1635.4281 1644.5313,1635.4281 Q1643.1875,1635.4281 1642.5,1636.5063 Q1641.8125,1637.5688 1641.8125,1639.6625 Q1641.8125,1641.7563 1642.5,1642.8344 Q1643.1875,1643.8969 1644.5313,1643.8969 Q1645.1563,1643.8969 1645.75,1643.6313 Q1646.3438,1643.35 1646.9688,1642.7719 L1646.9688,1645.4906 Z " fill="#000000"/><text fill="#000000" font-family="sans-serif" font-size="14" lengthAdjust="spacing" textLength="150" x="1662" y="1644.6967">SewersAdapterBridge</text><line style="stroke:#181818;stroke-width:0.5;" x1="1612" x2="1832" y1="1655.85" y2="1655.85"/><line style="stroke:#181818;stroke-width:0.5;" x1="1612" x2="1832" y1="1663.85" y2="1663.85"/><ellipse cx="1622" cy="1677.4984" fill="#84BE84" rx="3" ry="3" style="stroke:#038048;stroke-width:1.0;"/><text fill="#000000" font-family="sans-serif" font-size="14" lengthAdjust="spacing" textLength="196" x="1631" y="1680.8451">Set&lt;Object&gt; observe(UUID)</text><ellipse cx="1622" cy="1693.7953" fill="#84BE84" rx="3" ry="3" style="stroke:#038048;stroke-width:1.0;"/><text fill="#000000" font-family="sans-serif" font-size="14" lengthAdjust="spacing" textLength="183" x="1631" y="1697.142">void indicate(UUID, Object)</text></g><!--class SewerOverflowIndicationService--><g id="elem_SewerOverflowIndicationService"><rect codeLine="56" fill="#F1F1F1" height="64.2969" id="SewerOverflowIndicationService" rx="2.5" ry="2.5" style="stroke:#181818;stroke-width:0.5;" width="250" x="950" y="697.89"/><ellipse cx="965" cy="713.89" fill="#ADD1B2" rx="11" ry="11" style="stroke:#181818;stroke-width:1.0;"/><path d="M967.9688,719.5306 Q967.3906,719.8275 966.75,719.9681 Q966.1094,720.1244 965.4063,720.1244 Q962.9063,720.1244 961.5781,718.4838 Q960.2656,716.8275 960.2656,713.7025 Q960.2656,710.5775 961.5781,708.9213 Q962.9063,707.265 965.4063,707.265 Q966.1094,707.265 966.75,707.4213 Q967.4063,707.5775 967.9688,707.8744 L967.9688,710.5931 Q967.3438,710.015 966.75,709.7494 Q966.1563,709.4681 965.5313,709.4681 Q964.1875,709.4681 963.5,710.5463 Q962.8125,711.6088 962.8125,713.7025 Q962.8125,715.7963 963.5,716.8744 Q964.1875,717.9369 965.5313,717.9369 Q966.1563,717.9369 966.75,717.6713 Q967.3438,717.39 967.9688,716.8119 L967.9688,719.5306 Z " fill="#000000"/><text fill="#000000" font-family="sans-serif" font-size="14" lengthAdjust="spacing" textLength="218" x="979" y="718.7367">SewerOverflowIndicationService</text><line style="stroke:#181818;stroke-width:0.5;" x1="951" x2="1199" y1="729.89" y2="729.89"/><line style="stroke:#181818;stroke-width:0.5;" x1="951" x2="1199" y1="737.89" y2="737.89"/><ellipse cx="961" cy="751.5384" fill="#84BE84" rx="3" ry="3" style="stroke:#038048;stroke-width:1.0;"/><text fill="#000000" font-family="sans-serif" font-size="14" lengthAdjust="spacing" textLength="123" x="970" y="754.8851">void serve(Sewer)</text></g><!--class SewerOverflowIndicationComponent--><g id="elem_SewerOverflowIndicationComponent"><rect codeLine="59" fill="#F1F1F1" height="64.2969" id="SewerOverflowIndicationComponent" rx="2.5" ry="2.5" style="stroke:#181818;stroke-width:0.5;" width="282" x="934" y="822.18"/><ellipse cx="949" cy="838.18" fill="#ADD1B2" rx="11" ry="11" style="stroke:#181818;stroke-width:1.0;"/><path d="M951.9688,843.8206 Q951.3906,844.1175 950.75,844.2581 Q950.1094,844.4144 949.4063,844.4144 Q946.9063,844.4144 945.5781,842.7738 Q944.2656,841.1175 944.2656,837.9925 Q944.2656,834.8675 945.5781,833.2113 Q946.9063,831.555 949.4063,831.555 Q950.1094,831.555 950.75,831.7113 Q951.4063,831.8675 951.9688,832.1644 L951.9688,834.8831 Q951.3438,834.305 950.75,834.0394 Q950.1563,833.7581 949.5313,833.7581 Q948.1875,833.7581 947.5,834.8363 Q946.8125,835.8988 946.8125,837.9925 Q946.8125,840.0863 947.5,841.1644 Q948.1875,842.2269 949.5313,842.2269 Q950.1563,842.2269 950.75,841.9613 Q951.3438,841.68 951.9688,841.1019 L951.9688,843.8206 Z " fill="#000000"/><text fill="#000000" font-family="sans-serif" font-size="14" lengthAdjust="spacing" textLength="250" x="963" y="843.0267">SewerOverflowIndicationComponent</text><line style="stroke:#181818;stroke-width:0.5;" x1="935" x2="1215" y1="854.18" y2="854.18"/><line style="stroke:#181818;stroke-width:0.5;" x1="935" x2="1215" y1="862.18" y2="862.18"/><ellipse cx="945" cy="875.8284" fill="#84BE84" rx="3" ry="3" style="stroke:#038048;stroke-width:1.0;"/><text fill="#000000" font-family="sans-serif" font-size="14" lengthAdjust="spacing" textLength="141" x="954" y="879.1751">void execute(Sewer)</text></g><!--class SewerObservationService--><g id="elem_SewerObservationService"><rect codeLine="62" fill="#F1F1F1" height="64.2969" id="SewerObservationService" rx="2.5" ry="2.5" style="stroke:#181818;stroke-width:0.5;" width="208" x="1356" y="697.89"/><ellipse cx="1371" cy="713.89" fill="#ADD1B2" rx="11" ry="11" style="stroke:#181818;stroke-width:1.0;"/><path d="M1373.9688,719.5306 Q1373.3906,719.8275 1372.75,719.9681 Q1372.1094,720.1244 1371.4063,720.1244 Q1368.9063,720.1244 1367.5781,718.4838 Q1366.2656,716.8275 1366.2656,713.7025 Q1366.2656,710.5775 1367.5781,708.9213 Q1368.9063,707.265 1371.4063,707.265 Q1372.1094,707.265 1372.75,707.4213 Q1373.4063,707.5775 1373.9688,707.8744 L1373.9688,710.5931 Q1373.3438,710.015 1372.75,709.7494 Q1372.1563,709.4681 1371.5313,709.4681 Q1370.1875,709.4681 1369.5,710.5463 Q1368.8125,711.6088 1368.8125,713.7025 Q1368.8125,715.7963 1369.5,716.8744 Q1370.1875,717.9369 1371.5313,717.9369 Q1372.1563,717.9369 1372.75,717.6713 Q1373.3438,717.39 1373.9688,716.8119 L1373.9688,719.5306 Z " fill="#000000"/><text fill="#000000" font-family="sans-serif" font-size="14" lengthAdjust="spacing" textLength="176" x="1385" y="718.7367">SewerObservationService</text><line style="stroke:#181818;stroke-width:0.5;" x1="1357" x2="1563" y1="729.89" y2="729.89"/><line style="stroke:#181818;stroke-width:0.5;" x1="1357" x2="1563" y1="737.89" y2="737.89"/><ellipse cx="1367" cy="751.5384" fill="#84BE84" rx="3" ry="3" style="stroke:#038048;stroke-width:1.0;"/><text fill="#000000" font-family="sans-serif" font-size="14" lengthAdjust="spacing" textLength="182" x="1376" y="754.8851">Set&lt;Sewer&gt; serve(String)</text></g><!--class SewerObservationComponent--><g id="elem_SewerObservationComponent"><rect codeLine="65" fill="#F1F1F1" height="64.2969" id="SewerObservationComponent" rx="2.5" ry="2.5" style="stroke:#181818;stroke-width:0.5;" width="240" x="1320" y="822.18"/><ellipse cx="1335" cy="838.18" fill="#ADD1B2" rx="11" ry="11" style="stroke:#181818;stroke-width:1.0;"/><path d="M1337.9688,843.8206 Q1337.3906,844.1175 1336.75,844.2581 Q1336.1094,844.4144 1335.4063,844.4144 Q1332.9063,844.4144 1331.5781,842.7738 Q1330.2656,841.1175 1330.2656,837.9925 Q1330.2656,834.8675 1331.5781,833.2113 Q1332.9063,831.555 1335.4063,831.555 Q1336.1094,831.555 1336.75,831.7113 Q1337.4063,831.8675 1337.9688,832.1644 L1337.9688,834.8831 Q1337.3438,834.305 1336.75,834.0394 Q1336.1563,833.7581 1335.5313,833.7581 Q1334.1875,833.7581 1333.5,834.8363 Q1332.8125,835.8988 1332.8125,837.9925 Q1332.8125,840.0863 1333.5,841.1644 Q1334.1875,842.2269 1335.5313,842.2269 Q1336.1563,842.2269 1336.75,841.9613 Q1337.3438,841.68 1337.9688,841.1019 L1337.9688,843.8206 Z " fill="#000000"/><text fill="#000000" font-family="sans-serif" font-size="14" lengthAdjust="spacing" textLength="208" x="1349" y="843.0267">SewerObservationComponent</text><line style="stroke:#181818;stroke-width:0.5;" x1="1321" x2="1559" y1="854.18" y2="854.18"/><line style="stroke:#181818;stroke-width:0.5;" x1="1321" x2="1559" y1="862.18" y2="862.18"/><ellipse cx="1331" cy="875.8284" fill="#84BE84" rx="3" ry="3" style="stroke:#038048;stroke-width:1.0;"/><text fill="#000000" font-family="sans-serif" font-size="14" lengthAdjust="spacing" textLength="200" x="1340" y="879.1751">Set&lt;Sewer&gt; execute(String)</text></g><!--class Sewers--><g id="elem_Sewers"><rect codeLine="68" fill="#F1F1F1" height="80.5938" id="Sewers" rx="2.5" ry="2.5" style="stroke:#181818;stroke-width:0.5;" width="336" x="1224" y="1079.63"/><ellipse cx="1362.25" cy="1095.63" fill="#B4A7E5" rx="11" ry="11" style="stroke:#181818;stroke-width:1.0;"/><path d="M1358.1719,1091.3956 L1358.1719,1089.2394 L1365.5625,1089.2394 L1365.5625,1091.3956 L1363.0938,1091.3956 L1363.0938,1099.4738 L1365.5625,1099.4738 L1365.5625,1101.63 L1358.1719,1101.63 L1358.1719,1099.4738 L1360.6406,1099.4738 L1360.6406,1091.3956 L1358.1719,1091.3956 Z " fill="#000000"/><text fill="#000000" font-family="sans-serif" font-size="14" font-style="italic" lengthAdjust="spacing" textLength="51" x="1382.75" y="1100.4767">Sewers</text><line style="stroke:#181818;stroke-width:0.5;" x1="1225" x2="1559" y1="1111.63" y2="1111.63"/><line style="stroke:#181818;stroke-width:0.5;" x1="1225" x2="1559" y1="1119.63" y2="1119.63"/><ellipse cx="1235" cy="1133.2784" fill="#84BE84" rx="3" ry="3" style="stroke:#038048;stroke-width:1.0;"/><text fill="#000000" font-family="sans-serif" font-size="14" font-style="italic" lengthAdjust="spacing" textLength="194" x="1244" y="1136.6251">Set&lt;Sewer&gt; observe(UUID)</text><ellipse cx="1235" cy="1149.5753" fill="#84BE84" rx="3" ry="3" style="stroke:#038048;stroke-width:1.0;"/><text fill="#000000" font-family="sans-serif" font-size="14" font-style="italic" lengthAdjust="spacing" textLength="310" x="1244" y="1152.922">void indicate(UUID, KeyPerformanceIndicator)</text></g><!--class Sewer--><g id="elem_Sewer"><rect codeLine="72" fill="#F1F1F1" height="96.8906" id="Sewer" rx="2.5" ry="2.5" style="stroke:#181818;stroke-width:0.5;" width="256" x="933" y="1071.48"/><ellipse cx="1035.25" cy="1087.48" fill="#ADD1B2" rx="11" ry="11" style="stroke:#181818;stroke-width:1.0;"/><path d="M1038.2188,1093.1206 Q1037.6406,1093.4175 1037,1093.5581 Q1036.3594,1093.7144 1035.6563,1093.7144 Q1033.1563,1093.7144 1031.8281,1092.0738 Q1030.5156,1090.4175 1030.5156,1087.2925 Q1030.5156,1084.1675 1031.8281,1082.5113 Q1033.1563,1080.855 1035.6563,1080.855 Q1036.3594,1080.855 1037,1081.0113 Q1037.6563,1081.1675 1038.2188,1081.4644 L1038.2188,1084.1831 Q1037.5938,1083.605 1037,1083.3394 Q1036.4063,1083.0581 1035.7813,1083.0581 Q1034.4375,1083.0581 1033.75,1084.1363 Q1033.0625,1085.1988 1033.0625,1087.2925 Q1033.0625,1089.3863 1033.75,1090.4644 Q1034.4375,1091.5269 1035.7813,1091.5269 Q1036.4063,1091.5269 1037,1091.2613 Q1037.5938,1090.98 1038.2188,1090.4019 L1038.2188,1093.1206 Z " fill="#000000"/><text fill="#000000" font-family="sans-serif" font-size="14" lengthAdjust="spacing" textLength="43" x="1055.75" y="1092.3267">Sewer</text><line style="stroke:#181818;stroke-width:0.5;" x1="934" x2="1188" y1="1103.48" y2="1103.48"/><line style="stroke:#181818;stroke-width:0.5;" x1="934" x2="1188" y1="1111.48" y2="1111.48"/><ellipse cx="944" cy="1125.1284" fill="#84BE84" rx="3" ry="3" style="stroke:#038048;stroke-width:1.0;"/><text fill="#000000" font-family="sans-serif" font-size="14" lengthAdjust="spacing" textLength="83" x="953" y="1128.4751">UUID getId()</text><ellipse cx="944" cy="1141.4253" fill="#84BE84" rx="3" ry="3" style="stroke:#038048;stroke-width:1.0;"/><text fill="#000000" font-family="sans-serif" font-size="14" lengthAdjust="spacing" textLength="230" x="953" y="1144.772">KeyPerformanceIndicator getKpi()</text><ellipse cx="944" cy="1157.7222" fill="#84BE84" rx="3" ry="3" style="stroke:#038048;stroke-width:1.0;"/><text fill="#000000" font-family="sans-serif" font-size="14" lengthAdjust="spacing" textLength="151" x="953" y="1161.0689">Problem getProblem()</text></g><!--class KeyPerformanceIndicator--><g id="elem_KeyPerformanceIndicator"><rect codeLine="77" fill="#F1F1F1" height="96.8906" id="KeyPerformanceIndicator" rx="2.5" ry="2.5" style="stroke:#181818;stroke-width:0.5;" width="279" x="915.5" y="1267.37"/><ellipse cx="964.75" cy="1283.37" fill="#ADD1B2" rx="11" ry="11" style="stroke:#181818;stroke-width:1.0;"/><path d="M967.7188,1289.0106 Q967.1406,1289.3075 966.5,1289.4481 Q965.8594,1289.6044 965.1563,1289.6044 Q962.6563,1289.6044 961.3281,1287.9638 Q960.0156,1286.3075 960.0156,1283.1825 Q960.0156,1280.0575 961.3281,1278.4013 Q962.6563,1276.745 965.1563,1276.745 Q965.8594,1276.745 966.5,1276.9013 Q967.1563,1277.0575 967.7188,1277.3544 L967.7188,1280.0731 Q967.0938,1279.495 966.5,1279.2294 Q965.9063,1278.9481 965.2813,1278.9481 Q963.9375,1278.9481 963.25,1280.0263 Q962.5625,1281.0888 962.5625,1283.1825 Q962.5625,1285.2763 963.25,1286.3544 Q963.9375,1287.4169 965.2813,1287.4169 Q965.9063,1287.4169 966.5,1287.1513 Q967.0938,1286.87 967.7188,1286.2919 L967.7188,1289.0106 Z " fill="#000000"/><text fill="#000000" font-family="sans-serif" font-size="14" lengthAdjust="spacing" textLength="172" x="985.25" y="1288.2167">KeyPerformanceIndicator</text><line style="stroke:#181818;stroke-width:0.5;" x1="916.5" x2="1193.5" y1="1299.37" y2="1299.37"/><line style="stroke:#181818;stroke-width:0.5;" x1="916.5" x2="1193.5" y1="1307.37" y2="1307.37"/><ellipse cx="926.5" cy="1321.0184" fill="#84BE84" rx="3" ry="3" style="stroke:#038048;stroke-width:1.0;"/><text fill="#000000" font-family="sans-serif" font-size="14" lengthAdjust="spacing" textLength="253" x="935.5" y="1324.3651">String getPumpPowerConsumption()</text><ellipse cx="926.5" cy="1337.3153" fill="#84BE84" rx="3" ry="3" style="stroke:#038048;stroke-width:1.0;"/><text fill="#000000" font-family="sans-serif" font-size="14" lengthAdjust="spacing" textLength="108" x="935.5" y="1340.662">String getFlow()</text><ellipse cx="926.5" cy="1353.6122" fill="#84BE84" rx="3" ry="3" style="stroke:#038048;stroke-width:1.0;"/><text fill="#000000" font-family="sans-serif" font-size="14" lengthAdjust="spacing" textLength="125" x="935.5" y="1356.9589">String getRainfall()</text></g><!--class Problem--><g id="elem_Problem"><rect codeLine="82" fill="#F1F1F1" height="80.5938" id="Problem" rx="2.5" ry="2.5" style="stroke:#181818;stroke-width:0.5;" width="243" x="1251.5" y="1275.52"/><ellipse cx="1340.25" cy="1291.52" fill="#ADD1B2" rx="11" ry="11" style="stroke:#181818;stroke-width:1.0;"/><path d="M1343.2188,1297.1606 Q1342.6406,1297.4575 1342,1297.5981 Q1341.3594,1297.7544 1340.6563,1297.7544 Q1338.1563,1297.7544 1336.8281,1296.1138 Q1335.5156,1294.4575 1335.5156,1291.3325 Q1335.5156,1288.2075 1336.8281,1286.5513 Q1338.1563,1284.895 1340.6563,1284.895 Q1341.3594,1284.895 1342,1285.0513 Q1342.6563,1285.2075 1343.2188,1285.5044 L1343.2188,1288.2231 Q1342.5938,1287.645 1342,1287.3794 Q1341.4063,1287.0981 1340.7813,1287.0981 Q1339.4375,1287.0981 1338.75,1288.1763 Q1338.0625,1289.2388 1338.0625,1291.3325 Q1338.0625,1293.4263 1338.75,1294.5044 Q1339.4375,1295.5669 1340.7813,1295.5669 Q1341.4063,1295.5669 1342,1295.3013 Q1342.5938,1295.02 1343.2188,1294.4419 L1343.2188,1297.1606 Z " fill="#000000"/><text fill="#000000" font-family="sans-serif" font-size="14" lengthAdjust="spacing" textLength="57" x="1360.75" y="1296.3667">Problem</text><line style="stroke:#181818;stroke-width:0.5;" x1="1252.5" x2="1493.5" y1="1307.52" y2="1307.52"/><line style="stroke:#181818;stroke-width:0.5;" x1="1252.5" x2="1493.5" y1="1315.52" y2="1315.52"/><ellipse cx="1262.5" cy="1329.1684" fill="#84BE84" rx="3" ry="3" style="stroke:#038048;stroke-width:1.0;"/><text fill="#000000" font-family="sans-serif" font-size="14" lengthAdjust="spacing" textLength="130" x="1271.5" y="1332.5151">String getReason()</text><ellipse cx="1262.5" cy="1345.4653" fill="#84BE84" rx="3" ry="3" style="stroke:#038048;stroke-width:1.0;"/><text fill="#000000" font-family="sans-serif" font-size="14" lengthAdjust="spacing" textLength="217" x="1271.5" y="1348.812">Number getOverflowIndication()</text></g><!--class SewerIndicationUseCase--><g id="elem_SewerIndicationUseCase"><rect codeLine="86" fill="#F1F1F1" height="64.2969" id="SewerIndicationUseCase" rx="2.5" ry="2.5" style="stroke:#181818;stroke-width:0.5;" width="203" x="973.5" y="515.59"/><ellipse cx="988.5" cy="531.59" fill="#ADD1B2" rx="11" ry="11" style="stroke:#181818;stroke-width:1.0;"/><path d="M991.4688,537.2306 Q990.8906,537.5275 990.25,537.6681 Q989.6094,537.8244 988.9063,537.8244 Q986.4063,537.8244 985.0781,536.1837 Q983.7656,534.5275 983.7656,531.4025 Q983.7656,528.2775 985.0781,526.6212 Q986.4063,524.965 988.9063,524.965 Q989.6094,524.965 990.25,525.1212 Q990.9063,525.2775 991.4688,525.5744 L991.4688,528.2931 Q990.8438,527.715 990.25,527.4494 Q989.6563,527.1681 989.0313,527.1681 Q987.6875,527.1681 987,528.2462 Q986.3125,529.3087 986.3125,531.4025 Q986.3125,533.4962 987,534.5744 Q987.6875,535.6369 989.0313,535.6369 Q989.6563,535.6369 990.25,535.3712 Q990.8438,535.09 991.4688,534.5119 L991.4688,537.2306 Z " fill="#000000"/><text fill="#000000" font-family="sans-serif" font-size="14" lengthAdjust="spacing" textLength="171" x="1002.5" y="536.4367">SewerIndicationUseCase</text><line style="stroke:#181818;stroke-width:0.5;" x1="974.5" x2="1175.5" y1="547.59" y2="547.59"/><line style="stroke:#181818;stroke-width:0.5;" x1="974.5" x2="1175.5" y1="555.59" y2="555.59"/><ellipse cx="984.5" cy="569.2384" fill="#84BE84" rx="3" ry="3" style="stroke:#038048;stroke-width:1.0;"/><text fill="#000000" font-family="sans-serif" font-size="14" lengthAdjust="spacing" textLength="120" x="993.5" y="572.5851">void serve(String)</text></g><!--class SewerObservationUseCase--><g id="elem_SewerObservationUseCase"><rect codeLine="89" fill="#F1F1F1" height="64.2969" id="SewerObservationUseCase" rx="2.5" ry="2.5" style="stroke:#181818;stroke-width:0.5;" width="220" x="1575" y="515.59"/><ellipse cx="1590" cy="531.59" fill="#ADD1B2" rx="11" ry="11" style="stroke:#181818;stroke-width:1.0;"/><path d="M1592.9688,537.2306 Q1592.3906,537.5275 1591.75,537.6681 Q1591.1094,537.8244 1590.4063,537.8244 Q1587.9063,537.8244 1586.5781,536.1837 Q1585.2656,534.5275 1585.2656,531.4025 Q1585.2656,528.2775 1586.5781,526.6212 Q1587.9063,524.965 1590.4063,524.965 Q1591.1094,524.965 1591.75,525.1212 Q1592.4063,525.2775 1592.9688,525.5744 L1592.9688,528.2931 Q1592.3438,527.715 1591.75,527.4494 Q1591.1563,527.1681 1590.5313,527.1681 Q1589.1875,527.1681 1588.5,528.2462 Q1587.8125,529.3087 1587.8125,531.4025 Q1587.8125,533.4962 1588.5,534.5744 Q1589.1875,535.6369 1590.5313,535.6369 Q1591.1563,535.6369 1591.75,535.3712 Q1592.3438,535.09 1592.9688,534.5119 L1592.9688,537.2306 Z " fill="#000000"/><text fill="#000000" font-family="sans-serif" font-size="14" lengthAdjust="spacing" textLength="188" x="1604" y="536.4367">SewerObservationUseCase</text><line style="stroke:#181818;stroke-width:0.5;" x1="1576" x2="1794" y1="547.59" y2="547.59"/><line style="stroke:#181818;stroke-width:0.5;" x1="1576" x2="1794" y1="555.59" y2="555.59"/><ellipse cx="1586" cy="569.2384" fill="#84BE84" rx="3" ry="3" style="stroke:#038048;stroke-width:1.0;"/><text fill="#000000" font-family="sans-serif" font-size="14" lengthAdjust="spacing" textLength="182" x="1595" y="572.5851">Set&lt;Sewer&gt; serve(String)</text></g><!--class SewersUseCase--><g id="elem_SewersUseCase"><rect codeLine="92" fill="#F1F1F1" height="80.5938" id="SewersUseCase" rx="2.5" ry="2.5" style="stroke:#181818;stroke-width:0.5;" width="222" x="1693" y="1444.26"/><ellipse cx="1743.25" cy="1460.26" fill="#B4A7E5" rx="11" ry="11" style="stroke:#181818;stroke-width:1.0;"/><path d="M1739.1719,1456.0256 L1739.1719,1453.8694 L1746.5625,1453.8694 L1746.5625,1456.0256 L1744.0938,1456.0256 L1744.0938,1464.1038 L1746.5625,1464.1038 L1746.5625,1466.26 L1739.1719,1466.26 L1739.1719,1464.1038 L1741.6406,1464.1038 L1741.6406,1456.0256 L1739.1719,1456.0256 Z " fill="#000000"/><text fill="#000000" font-family="sans-serif" font-size="14" font-style="italic" lengthAdjust="spacing" textLength="113" x="1763.75" y="1465.1067">SewersUseCase</text><line style="stroke:#181818;stroke-width:0.5;" x1="1694" x2="1914" y1="1476.26" y2="1476.26"/><line style="stroke:#181818;stroke-width:0.5;" x1="1694" x2="1914" y1="1484.26" y2="1484.26"/><ellipse cx="1704" cy="1497.9084" fill="#84BE84" rx="3" ry="3" style="stroke:#038048;stroke-width:1.0;"/><text fill="#000000" font-family="sans-serif" font-size="14" font-style="italic" lengthAdjust="spacing" textLength="196" x="1713" y="1501.2551">Set&lt;Object&gt; observe(UUID)</text><ellipse cx="1704" cy="1514.2053" fill="#84BE84" rx="3" ry="3" style="stroke:#038048;stroke-width:1.0;"/><text fill="#000000" font-family="sans-serif" font-size="14" font-style="italic" lengthAdjust="spacing" textLength="183" x="1713" y="1517.552">void indicate(UUID, Object)</text></g><!--class SewersUseCaseBridge--><g id="elem_SewersUseCaseBridge"><rect codeLine="96" fill="#F1F1F1" height="80.5938" id="SewersUseCaseBridge" rx="2.5" ry="2.5" style="stroke:#181818;stroke-width:0.5;" width="336" x="1664" y="1275.52"/><ellipse cx="1748.75" cy="1291.52" fill="#ADD1B2" rx="11" ry="11" style="stroke:#181818;stroke-width:1.0;"/><path d="M1751.7188,1297.1606 Q1751.1406,1297.4575 1750.5,1297.5981 Q1749.8594,1297.7544 1749.1563,1297.7544 Q1746.6563,1297.7544 1745.3281,1296.1138 Q1744.0156,1294.4575 1744.0156,1291.3325 Q1744.0156,1288.2075 1745.3281,1286.5513 Q1746.6563,1284.895 1749.1563,1284.895 Q1749.8594,1284.895 1750.5,1285.0513 Q1751.1563,1285.2075 1751.7188,1285.5044 L1751.7188,1288.2231 Q1751.0938,1287.645 1750.5,1287.3794 Q1749.9063,1287.0981 1749.2813,1287.0981 Q1747.9375,1287.0981 1747.25,1288.1763 Q1746.5625,1289.2388 1746.5625,1291.3325 Q1746.5625,1293.4263 1747.25,1294.5044 Q1747.9375,1295.5669 1749.2813,1295.5669 Q1749.9063,1295.5669 1750.5,1295.3013 Q1751.0938,1295.02 1751.7188,1294.4419 L1751.7188,1297.1606 Z " fill="#000000"/><text fill="#000000" font-family="sans-serif" font-size="14" lengthAdjust="spacing" textLength="158" x="1769.25" y="1296.3667">SewersUseCaseBridge</text><line style="stroke:#181818;stroke-width:0.5;" x1="1665" x2="1999" y1="1307.52" y2="1307.52"/><line style="stroke:#181818;stroke-width:0.5;" x1="1665" x2="1999" y1="1315.52" y2="1315.52"/><ellipse cx="1675" cy="1329.1684" fill="#84BE84" rx="3" ry="3" style="stroke:#038048;stroke-width:1.0;"/><text fill="#000000" font-family="sans-serif" font-size="14" lengthAdjust="spacing" textLength="194" x="1684" y="1332.5151">Set&lt;Sewer&gt; observe(UUID)</text><ellipse cx="1675" cy="1345.4653" fill="#84BE84" rx="3" ry="3" style="stroke:#038048;stroke-width:1.0;"/><text fill="#000000" font-family="sans-serif" font-size="14" lengthAdjust="spacing" textLength="310" x="1684" y="1348.812">void indicate(UUID, KeyPerformanceIndicator)</text></g><!--class JSONRainfallIndicationDriver--><g id="elem_JSONRainfallIndicationDriver"><rect codeLine="100" fill="#F1F1F1" height="64.2969" id="JSONRainfallIndicationDriver" rx="2.5" ry="2.5" style="stroke:#181818;stroke-width:0.5;" width="219" x="666.5" y="127"/><ellipse cx="681.5" cy="143" fill="#ADD1B2" rx="11" ry="11" style="stroke:#181818;stroke-width:1.0;"/><path d="M684.4688,148.6406 Q683.8906,148.9375 683.25,149.0781 Q682.6094,149.2344 681.9063,149.2344 Q679.4063,149.2344 678.0781,147.5938 Q676.7656,145.9375 676.7656,142.8125 Q676.7656,139.6875 678.0781,138.0313 Q679.4063,136.375 681.9063,136.375 Q682.6094,136.375 683.25,136.5313 Q683.9063,136.6875 684.4688,136.9844 L684.4688,139.7031 Q683.8438,139.125 683.25,138.8594 Q682.6563,138.5781 682.0313,138.5781 Q680.6875,138.5781 680,139.6563 Q679.3125,140.7188 679.3125,142.8125 Q679.3125,144.9063 680,145.9844 Q680.6875,147.0469 682.0313,147.0469 Q682.6563,147.0469 683.25,146.7813 Q683.8438,146.5 684.4688,145.9219 L684.4688,148.6406 Z " fill="#000000"/><text fill="#000000" font-family="sans-serif" font-size="14" lengthAdjust="spacing" textLength="187" x="695.5" y="147.8467">JSONRainfallIndicationDriver</text><line style="stroke:#181818;stroke-width:0.5;" x1="667.5" x2="884.5" y1="159" y2="159"/><line style="stroke:#181818;stroke-width:0.5;" x1="667.5" x2="884.5" y1="167" y2="167"/><ellipse cx="677.5" cy="180.6484" fill="#84BE84" rx="3" ry="3" style="stroke:#038048;stroke-width:1.0;"/><text fill="#000000" font-family="sans-serif" font-size="14" lengthAdjust="spacing" textLength="120" x="686.5" y="183.9951">void serve(String)</text></g><!--class PdfPumpPowerConsumptionIndicationDriver--><g id="elem_PdfPumpPowerConsumptionIndicationDriver"><rect codeLine="103" fill="#F1F1F1" height="64.2969" id="PdfPumpPowerConsumptionIndicationDriver" rx="2.5" ry="2.5" style="stroke:#181818;stroke-width:0.5;" width="336" x="46" y="127"/><ellipse cx="61" cy="143" fill="#ADD1B2" rx="11" ry="11" style="stroke:#181818;stroke-width:1.0;"/><path d="M63.9688,148.6406 Q63.3906,148.9375 62.75,149.0781 Q62.1094,149.2344 61.4063,149.2344 Q58.9063,149.2344 57.5781,147.5938 Q56.2656,145.9375 56.2656,142.8125 Q56.2656,139.6875 57.5781,138.0313 Q58.9063,136.375 61.4063,136.375 Q62.1094,136.375 62.75,136.5313 Q63.4063,136.6875 63.9688,136.9844 L63.9688,139.7031 Q63.3438,139.125 62.75,138.8594 Q62.1563,138.5781 61.5313,138.5781 Q60.1875,138.5781 59.5,139.6563 Q58.8125,140.7188 58.8125,142.8125 Q58.8125,144.9063 59.5,145.9844 Q60.1875,147.0469 61.5313,147.0469 Q62.1563,147.0469 62.75,146.7813 Q63.3438,146.5 63.9688,145.9219 L63.9688,148.6406 Z " fill="#000000"/><text fill="#000000" font-family="sans-serif" font-size="14" lengthAdjust="spacing" textLength="304" x="75" y="147.8467">PdfPumpPowerConsumptionIndicationDriver</text><line style="stroke:#181818;stroke-width:0.5;" x1="47" x2="381" y1="159" y2="159"/><line style="stroke:#181818;stroke-width:0.5;" x1="47" x2="381" y1="167" y2="167"/><ellipse cx="57" cy="180.6484" fill="#84BE84" rx="3" ry="3" style="stroke:#038048;stroke-width:1.0;"/><text fill="#000000" font-family="sans-serif" font-size="14" lengthAdjust="spacing" textLength="120" x="66" y="183.9951">void serve(String)</text></g><!--class XMLRainfallIndicationDriver--><g id="elem_XMLRainfallIndicationDriver"><rect codeLine="106" fill="#F1F1F1" height="64.2969" id="XMLRainfallIndicationDriver" rx="2.5" ry="2.5" style="stroke:#181818;stroke-width:0.5;" width="214" x="417" y="127"/><ellipse cx="432" cy="143" fill="#ADD1B2" rx="11" ry="11" style="stroke:#181818;stroke-width:1.0;"/><path d="M434.9688,148.6406 Q434.3906,148.9375 433.75,149.0781 Q433.1094,149.2344 432.4063,149.2344 Q429.9063,149.2344 428.5781,147.5938 Q427.2656,145.9375 427.2656,142.8125 Q427.2656,139.6875 428.5781,138.0313 Q429.9063,136.375 432.4063,136.375 Q433.1094,136.375 433.75,136.5313 Q434.4063,136.6875 434.9688,136.9844 L434.9688,139.7031 Q434.3438,139.125 433.75,138.8594 Q433.1563,138.5781 432.5313,138.5781 Q431.1875,138.5781 430.5,139.6563 Q429.8125,140.7188 429.8125,142.8125 Q429.8125,144.9063 430.5,145.9844 Q431.1875,147.0469 432.5313,147.0469 Q433.1563,147.0469 433.75,146.7813 Q434.3438,146.5 434.9688,145.9219 L434.9688,148.6406 Z " fill="#000000"/><text fill="#000000" font-family="sans-serif" font-size="14" lengthAdjust="spacing" textLength="182" x="446" y="147.8467">XMLRainfallIndicationDriver</text><line style="stroke:#181818;stroke-width:0.5;" x1="418" x2="630" y1="159" y2="159"/><line style="stroke:#181818;stroke-width:0.5;" x1="418" x2="630" y1="167" y2="167"/><ellipse cx="428" cy="180.6484" fill="#84BE84" rx="3" ry="3" style="stroke:#038048;stroke-width:1.0;"/><text fill="#000000" font-family="sans-serif" font-size="14" lengthAdjust="spacing" textLength="120" x="437" y="183.9951">void serve(String)</text></g><!--class DynamoSewersDriver--><g id="elem_DynamoSewersDriver"><rect codeLine="109" fill="#F1F1F1" height="80.5938" id="DynamoSewersDriver" rx="2.5" ry="2.5" style="stroke:#181818;stroke-width:0.5;" width="222" x="1105" y="2185.64"/><ellipse cx="1138.9" cy="2201.64" fill="#ADD1B2" rx="11" ry="11" style="stroke:#181818;stroke-width:1.0;"/><path d="M1141.8688,2207.2806 Q1141.2906,2207.5775 1140.65,2207.7181 Q1140.0094,2207.8744 1139.3063,2207.8744 Q1136.8063,2207.8744 1135.4781,2206.2338 Q1134.1656,2204.5775 1134.1656,2201.4525 Q1134.1656,2198.3275 1135.4781,2196.6713 Q1136.8063,2195.015 1139.3063,2195.015 Q1140.0094,2195.015 1140.65,2195.1713 Q1141.3063,2195.3275 1141.8688,2195.6244 L1141.8688,2198.3431 Q1141.2438,2197.765 1140.65,2197.4994 Q1140.0563,2197.2181 1139.4313,2197.2181 Q1138.0875,2197.2181 1137.4,2198.2963 Q1136.7125,2199.3588 1136.7125,2201.4525 Q1136.7125,2203.5463 1137.4,2204.6244 Q1138.0875,2205.6869 1139.4313,2205.6869 Q1140.0563,2205.6869 1140.65,2205.4213 Q1141.2438,2205.14 1141.8688,2204.5619 L1141.8688,2207.2806 Z " fill="#000000"/><text fill="#000000" font-family="sans-serif" font-size="14" lengthAdjust="spacing" textLength="148" x="1157.1" y="2206.4867">DynamoSewersDriver</text><line style="stroke:#181818;stroke-width:0.5;" x1="1106" x2="1326" y1="2217.64" y2="2217.64"/><line style="stroke:#181818;stroke-width:0.5;" x1="1106" x2="1326" y1="2225.64" y2="2225.64"/><ellipse cx="1116" cy="2239.2884" fill="#84BE84" rx="3" ry="3" style="stroke:#038048;stroke-width:1.0;"/><text fill="#000000" font-family="sans-serif" font-size="14" lengthAdjust="spacing" textLength="196" x="1125" y="2242.6351">Set&lt;Object&gt; observe(UUID)</text><ellipse cx="1116" cy="2255.5853" fill="#84BE84" rx="3" ry="3" style="stroke:#038048;stroke-width:1.0;"/><text fill="#000000" font-family="sans-serif" font-size="14" lengthAdjust="spacing" textLength="183" x="1125" y="2258.932">void indicate(UUID, Object)</text></g><!--class S3SewersDriver--><g id="elem_S3SewersDriver"><rect codeLine="113" fill="#F1F1F1" height="80.5938" id="S3SewersDriver" rx="2.5" ry="2.5" style="stroke:#181818;stroke-width:0.5;" width="222" x="1383" y="2185.64"/><ellipse cx="1435.25" cy="2201.64" fill="#ADD1B2" rx="11" ry="11" style="stroke:#181818;stroke-width:1.0;"/><path d="M1438.2188,2207.2806 Q1437.6406,2207.5775 1437,2207.7181 Q1436.3594,2207.8744 1435.6563,2207.8744 Q1433.1563,2207.8744 1431.8281,2206.2338 Q1430.5156,2204.5775 1430.5156,2201.4525 Q1430.5156,2198.3275 1431.8281,2196.6713 Q1433.1563,2195.015 1435.6563,2195.015 Q1436.3594,2195.015 1437,2195.1713 Q1437.6563,2195.3275 1438.2188,2195.6244 L1438.2188,2198.3431 Q1437.5938,2197.765 1437,2197.4994 Q1436.4063,2197.2181 1435.7813,2197.2181 Q1434.4375,2197.2181 1433.75,2198.2963 Q1433.0625,2199.3588 1433.0625,2201.4525 Q1433.0625,2203.5463 1433.75,2204.6244 Q1434.4375,2205.6869 1435.7813,2205.6869 Q1436.4063,2205.6869 1437,2205.4213 Q1437.5938,2205.14 1438.2188,2204.5619 L1438.2188,2207.2806 Z " fill="#000000"/><text fill="#000000" font-family="sans-serif" font-size="14" lengthAdjust="spacing" textLength="109" x="1455.75" y="2206.4867">S3SewersDriver</text><line style="stroke:#181818;stroke-width:0.5;" x1="1384" x2="1604" y1="2217.64" y2="2217.64"/><line style="stroke:#181818;stroke-width:0.5;" x1="1384" x2="1604" y1="2225.64" y2="2225.64"/><ellipse cx="1394" cy="2239.2884" fill="#84BE84" rx="3" ry="3" style="stroke:#038048;stroke-width:1.0;"/><text fill="#000000" font-family="sans-serif" font-size="14" lengthAdjust="spacing" textLength="196" x="1403" y="2242.6351">Set&lt;Object&gt; observe(UUID)</text><ellipse cx="1394" cy="2255.5853" fill="#84BE84" rx="3" ry="3" style="stroke:#038048;stroke-width:1.0;"/><text fill="#000000" font-family="sans-serif" font-size="14" lengthAdjust="spacing" textLength="183" x="1403" y="2258.932">void indicate(UUID, Object)</text></g><!--class FileSewersDriver--><g id="elem_FileSewersDriver"><rect codeLine="117" fill="#F1F1F1" height="80.5938" id="FileSewersDriver" rx="2.5" ry="2.5" style="stroke:#181818;stroke-width:0.5;" width="222" x="1685" y="2185.64"/><ellipse cx="1734.75" cy="2201.64" fill="#ADD1B2" rx="11" ry="11" style="stroke:#181818;stroke-width:1.0;"/><path d="M1737.7188,2207.2806 Q1737.1406,2207.5775 1736.5,2207.7181 Q1735.8594,2207.8744 1735.1563,2207.8744 Q1732.6563,2207.8744 1731.3281,2206.2338 Q1730.0156,2204.5775 1730.0156,2201.4525 Q1730.0156,2198.3275 1731.3281,2196.6713 Q1732.6563,2195.015 1735.1563,2195.015 Q1735.8594,2195.015 1736.5,2195.1713 Q1737.1563,2195.3275 1737.7188,2195.6244 L1737.7188,2198.3431 Q1737.0938,2197.765 1736.5,2197.4994 Q1735.9063,2197.2181 1735.2813,2197.2181 Q1733.9375,2197.2181 1733.25,2198.2963 Q1732.5625,2199.3588 1732.5625,2201.4525 Q1732.5625,2203.5463 1733.25,2204.6244 Q1733.9375,2205.6869 1735.2813,2205.6869 Q1735.9063,2205.6869 1736.5,2205.4213 Q1737.0938,2205.14 1737.7188,2204.5619 L1737.7188,2207.2806 Z " fill="#000000"/><text fill="#000000" font-family="sans-serif" font-size="14" lengthAdjust="spacing" textLength="114" x="1755.25" y="2206.4867">FileSewersDriver</text><line style="stroke:#181818;stroke-width:0.5;" x1="1686" x2="1906" y1="2217.64" y2="2217.64"/><line style="stroke:#181818;stroke-width:0.5;" x1="1686" x2="1906" y1="2225.64" y2="2225.64"/><ellipse cx="1696" cy="2239.2884" fill="#84BE84" rx="3" ry="3" style="stroke:#038048;stroke-width:1.0;"/><text fill="#000000" font-family="sans-serif" font-size="14" lengthAdjust="spacing" textLength="196" x="1705" y="2242.6351">Set&lt;Object&gt; observe(UUID)</text><ellipse cx="1696" cy="2255.5853" fill="#84BE84" rx="3" ry="3" style="stroke:#038048;stroke-width:1.0;"/><text fill="#000000" font-family="sans-serif" font-size="14" lengthAdjust="spacing" textLength="183" x="1705" y="2258.932">void indicate(UUID, Object)</text></g><!--class SewersDriverOrchestrator--><g id="elem_SewersDriverOrchestrator"><rect codeLine="121" fill="#F1F1F1" height="80.5938" id="SewersDriverOrchestrator" rx="2.5" ry="2.5" style="stroke:#181818;stroke-width:0.5;" width="222" x="1685" y="1987.04"/><ellipse cx="1705.4" cy="2003.04" fill="#ADD1B2" rx="11" ry="11" style="stroke:#181818;stroke-width:1.0;"/><path d="M1708.3688,2008.6806 Q1707.7906,2008.9775 1707.15,2009.1181 Q1706.5094,2009.2744 1705.8063,2009.2744 Q1703.3063,2009.2744 1701.9781,2007.6338 Q1700.6656,2005.9775 1700.6656,2002.8525 Q1700.6656,1999.7275 1701.9781,1998.0713 Q1703.3063,1996.415 1705.8063,1996.415 Q1706.5094,1996.415 1707.15,1996.5713 Q1707.8063,1996.7275 1708.3688,1997.0244 L1708.3688,1999.7431 Q1707.7438,1999.165 1707.15,1998.8994 Q1706.5563,1998.6181 1705.9313,1998.6181 Q1704.5875,1998.6181 1703.9,1999.6963 Q1703.2125,2000.7588 1703.2125,2002.8525 Q1703.2125,2004.9463 1703.9,2006.0244 Q1704.5875,2007.0869 1705.9313,2007.0869 Q1706.5563,2007.0869 1707.15,2006.8213 Q1707.7438,2006.54 1708.3688,2005.9619 L1708.3688,2008.6806 Z " fill="#000000"/><text fill="#000000" font-family="sans-serif" font-size="14" lengthAdjust="spacing" textLength="178" x="1720.6" y="2007.8867">SewersDriverOrchestrator</text><line style="stroke:#181818;stroke-width:0.5;" x1="1686" x2="1906" y1="2019.04" y2="2019.04"/><line style="stroke:#181818;stroke-width:0.5;" x1="1686" x2="1906" y1="2027.04" y2="2027.04"/><ellipse cx="1696" cy="2040.6884" fill="#84BE84" rx="3" ry="3" style="stroke:#038048;stroke-width:1.0;"/><text fill="#000000" font-family="sans-serif" font-size="14" lengthAdjust="spacing" textLength="196" x="1705" y="2044.0351">Set&lt;Object&gt; observe(UUID)</text><ellipse cx="1696" cy="2056.9853" fill="#84BE84" rx="3" ry="3" style="stroke:#038048;stroke-width:1.0;"/><text fill="#000000" font-family="sans-serif" font-size="14" lengthAdjust="spacing" textLength="183" x="1705" y="2060.332">void indicate(UUID, Object)</text></g><!--class PanacheSewersDriver--><g id="elem_PanacheSewersDriver"><rect codeLine="125" fill="#F1F1F1" height="80.5938" id="PanacheSewersDriver" rx="2.5" ry="2.5" style="stroke:#181818;stroke-width:0.5;" width="222" x="1963" y="2185.64"/><ellipse cx="1995.55" cy="2201.64" fill="#ADD1B2" rx="11" ry="11" style="stroke:#181818;stroke-width:1.0;"/><path d="M1998.5188,2207.2806 Q1997.9406,2207.5775 1997.3,2207.7181 Q1996.6594,2207.8744 1995.9563,2207.8744 Q1993.4563,2207.8744 1992.1281,2206.2338 Q1990.8156,2204.5775 1990.8156,2201.4525 Q1990.8156,2198.3275 1992.1281,2196.6713 Q1993.4563,2195.015 1995.9563,2195.015 Q1996.6594,2195.015 1997.3,2195.1713 Q1997.9563,2195.3275 1998.5188,2195.6244 L1998.5188,2198.3431 Q1997.8938,2197.765 1997.3,2197.4994 Q1996.7063,2197.2181 1996.0813,2197.2181 Q1994.7375,2197.2181 1994.05,2198.2963 Q1993.3625,2199.3588 1993.3625,2201.4525 Q1993.3625,2203.5463 1994.05,2204.6244 Q1994.7375,2205.6869 1996.0813,2205.6869 Q1996.7063,2205.6869 1997.3,2205.4213 Q1997.8938,2205.14 1998.5188,2204.5619 L1998.5188,2207.2806 Z " fill="#000000"/><text fill="#000000" font-family="sans-serif" font-size="14" lengthAdjust="spacing" textLength="151" x="2013.45" y="2206.4867">PanacheSewersDriver</text><line style="stroke:#181818;stroke-width:0.5;" x1="1964" x2="2184" y1="2217.64" y2="2217.64"/><line style="stroke:#181818;stroke-width:0.5;" x1="1964" x2="2184" y1="2225.64" y2="2225.64"/><ellipse cx="1974" cy="2239.2884" fill="#84BE84" rx="3" ry="3" style="stroke:#038048;stroke-width:1.0;"/><text fill="#000000" font-family="sans-serif" font-size="14" lengthAdjust="spacing" textLength="196" x="1983" y="2242.6351">Set&lt;Object&gt; observe(UUID)</text><ellipse cx="1974" cy="2255.5853" fill="#84BE84" rx="3" ry="3" style="stroke:#038048;stroke-width:1.0;"/><text fill="#000000" font-family="sans-serif" font-size="14" lengthAdjust="spacing" textLength="183" x="1983" y="2258.932">void indicate(UUID, Object)</text></g><!--class FlowIndicationResourceDriver--><g id="elem_FlowIndicationResourceDriver"><rect codeLine="129" fill="#F1F1F1" height="64.2969" id="FlowIndicationResourceDriver" rx="2.5" ry="2.5" style="stroke:#181818;stroke-width:0.5;" width="236" x="1671" y="127"/><ellipse cx="1686" cy="143" fill="#ADD1B2" rx="11" ry="11" style="stroke:#181818;stroke-width:1.0;"/><path d="M1688.9688,148.6406 Q1688.3906,148.9375 1687.75,149.0781 Q1687.1094,149.2344 1686.4063,149.2344 Q1683.9063,149.2344 1682.5781,147.5938 Q1681.2656,145.9375 1681.2656,142.8125 Q1681.2656,139.6875 1682.5781,138.0313 Q1683.9063,136.375 1686.4063,136.375 Q1687.1094,136.375 1687.75,136.5313 Q1688.4063,136.6875 1688.9688,136.9844 L1688.9688,139.7031 Q1688.3438,139.125 1687.75,138.8594 Q1687.1563,138.5781 1686.5313,138.5781 Q1685.1875,138.5781 1684.5,139.6563 Q1683.8125,140.7188 1683.8125,142.8125 Q1683.8125,144.9063 1684.5,145.9844 Q1685.1875,147.0469 1686.5313,147.0469 Q1687.1563,147.0469 1687.75,146.7813 Q1688.3438,146.5 1688.9688,145.9219 L1688.9688,148.6406 Z " fill="#000000"/><text fill="#000000" font-family="sans-serif" font-size="14" lengthAdjust="spacing" textLength="204" x="1700" y="147.8467">FlowIndicationResourceDriver</text><line style="stroke:#181818;stroke-width:0.5;" x1="1672" x2="1906" y1="159" y2="159"/><line style="stroke:#181818;stroke-width:0.5;" x1="1672" x2="1906" y1="167" y2="167"/><ellipse cx="1682" cy="180.6484" fill="#84BE84" rx="3" ry="3" style="stroke:#038048;stroke-width:1.0;"/><text fill="#000000" font-family="sans-serif" font-size="14" lengthAdjust="spacing" textLength="120" x="1691" y="183.9951">void serve(String)</text></g><!--class PumpPowerConsumptionIndicationResourceDriver--><g id="elem_PumpPowerConsumptionIndicationResourceDriver"><rect codeLine="132" fill="#F1F1F1" height="64.2969" id="PumpPowerConsumptionIndicationResourceDriver" rx="2.5" ry="2.5" style="stroke:#181818;stroke-width:0.5;" width="381" x="966.5" y="127"/><ellipse cx="981.5" cy="143" fill="#ADD1B2" rx="11" ry="11" style="stroke:#181818;stroke-width:1.0;"/><path d="M984.4688,148.6406 Q983.8906,148.9375 983.25,149.0781 Q982.6094,149.2344 981.9063,149.2344 Q979.4063,149.2344 978.0781,147.5938 Q976.7656,145.9375 976.7656,142.8125 Q976.7656,139.6875 978.0781,138.0313 Q979.4063,136.375 981.9063,136.375 Q982.6094,136.375 983.25,136.5313 Q983.9063,136.6875 984.4688,136.9844 L984.4688,139.7031 Q983.8438,139.125 983.25,138.8594 Q982.6563,138.5781 982.0313,138.5781 Q980.6875,138.5781 980,139.6563 Q979.3125,140.7188 979.3125,142.8125 Q979.3125,144.9063 980,145.9844 Q980.6875,147.0469 982.0313,147.0469 Q982.6563,147.0469 983.25,146.7813 Q983.8438,146.5 984.4688,145.9219 L984.4688,148.6406 Z " fill="#000000"/><text fill="#000000" font-family="sans-serif" font-size="14" lengthAdjust="spacing" textLength="349" x="995.5" y="147.8467">PumpPowerConsumptionIndicationResourceDriver</text><line style="stroke:#181818;stroke-width:0.5;" x1="967.5" x2="1346.5" y1="159" y2="159"/><line style="stroke:#181818;stroke-width:0.5;" x1="967.5" x2="1346.5" y1="167" y2="167"/><ellipse cx="977.5" cy="180.6484" fill="#84BE84" rx="3" ry="3" style="stroke:#038048;stroke-width:1.0;"/><text fill="#000000" font-family="sans-serif" font-size="14" lengthAdjust="spacing" textLength="120" x="986.5" y="183.9951">void serve(String)</text></g><!--class RainfallIndicationResourceDriver--><g id="elem_RainfallIndicationResourceDriver"><rect codeLine="135" fill="#F1F1F1" height="64.2969" id="RainfallIndicationResourceDriver" rx="2.5" ry="2.5" style="stroke:#181818;stroke-width:0.5;" width="253" x="1382.5" y="127"/><ellipse cx="1397.5" cy="143" fill="#ADD1B2" rx="11" ry="11" style="stroke:#181818;stroke-width:1.0;"/><path d="M1400.4688,148.6406 Q1399.8906,148.9375 1399.25,149.0781 Q1398.6094,149.2344 1397.9063,149.2344 Q1395.4063,149.2344 1394.0781,147.5938 Q1392.7656,145.9375 1392.7656,142.8125 Q1392.7656,139.6875 1394.0781,138.0313 Q1395.4063,136.375 1397.9063,136.375 Q1398.6094,136.375 1399.25,136.5313 Q1399.9063,136.6875 1400.4688,136.9844 L1400.4688,139.7031 Q1399.8438,139.125 1399.25,138.8594 Q1398.6563,138.5781 1398.0313,138.5781 Q1396.6875,138.5781 1396,139.6563 Q1395.3125,140.7188 1395.3125,142.8125 Q1395.3125,144.9063 1396,145.9844 Q1396.6875,147.0469 1398.0313,147.0469 Q1398.6563,147.0469 1399.25,146.7813 Q1399.8438,146.5 1400.4688,145.9219 L1400.4688,148.6406 Z " fill="#000000"/><text fill="#000000" font-family="sans-serif" font-size="14" lengthAdjust="spacing" textLength="221" x="1411.5" y="147.8467">RainfallIndicationResourceDriver</text><line style="stroke:#181818;stroke-width:0.5;" x1="1383.5" x2="1634.5" y1="159" y2="159"/><line style="stroke:#181818;stroke-width:0.5;" x1="1383.5" x2="1634.5" y1="167" y2="167"/><ellipse cx="1393.5" cy="180.6484" fill="#84BE84" rx="3" ry="3" style="stroke:#038048;stroke-width:1.0;"/><text fill="#000000" font-family="sans-serif" font-size="14" lengthAdjust="spacing" textLength="120" x="1402.5" y="183.9951">void serve(String)</text></g><!--class ObservationResourceDriver--><g id="elem_ObservationResourceDriver"><rect codeLine="138" fill="#F1F1F1" height="64.2969" id="ObservationResourceDriver" rx="2.5" ry="2.5" style="stroke:#181818;stroke-width:0.5;" width="222" x="1963" y="127"/><ellipse cx="1978" cy="143" fill="#ADD1B2" rx="11" ry="11" style="stroke:#181818;stroke-width:1.0;"/><path d="M1980.9688,148.6406 Q1980.3906,148.9375 1979.75,149.0781 Q1979.1094,149.2344 1978.4063,149.2344 Q1975.9063,149.2344 1974.5781,147.5938 Q1973.2656,145.9375 1973.2656,142.8125 Q1973.2656,139.6875 1974.5781,138.0313 Q1975.9063,136.375 1978.4063,136.375 Q1979.1094,136.375 1979.75,136.5313 Q1980.4063,136.6875 1980.9688,136.9844 L1980.9688,139.7031 Q1980.3438,139.125 1979.75,138.8594 Q1979.1563,138.5781 1978.5313,138.5781 Q1977.1875,138.5781 1976.5,139.6563 Q1975.8125,140.7188 1975.8125,142.8125 Q1975.8125,144.9063 1976.5,145.9844 Q1977.1875,147.0469 1978.5313,147.0469 Q1979.1563,147.0469 1979.75,146.7813 Q1980.3438,146.5 1980.9688,145.9219 L1980.9688,148.6406 Z " fill="#000000"/><text fill="#000000" font-family="sans-serif" font-size="14" lengthAdjust="spacing" textLength="190" x="1992" y="147.8467">ObservationResourceDriver</text><line style="stroke:#181818;stroke-width:0.5;" x1="1964" x2="2184" y1="159" y2="159"/><line style="stroke:#181818;stroke-width:0.5;" x1="1964" x2="2184" y1="167" y2="167"/><ellipse cx="1974" cy="180.6484" fill="#84BE84" rx="3" ry="3" style="stroke:#038048;stroke-width:1.0;"/><text fill="#000000" font-family="sans-serif" font-size="14" lengthAdjust="spacing" textLength="132" x="1983" y="183.9951">String serve(String)</text></g><!--class PanacheRepository--><g id="elem_PanacheRepository"><rect codeLine="141" fill="#F1F1F1" height="48" id="PanacheRepository" rx="2.5" ry="2.5" style="stroke:#181818;stroke-width:0.5;" width="205" x="2314.5" y="135.14"/><ellipse cx="2329.5" cy="151.14" fill="#B4A7E5" rx="11" ry="11" style="stroke:#181818;stroke-width:1.0;"/><path d="M2325.4219,146.9056 L2325.4219,144.7494 L2332.8125,144.7494 L2332.8125,146.9056 L2330.3438,146.9056 L2330.3438,154.9837 L2332.8125,154.9837 L2332.8125,157.14 L2325.4219,157.14 L2325.4219,154.9837 L2327.8906,154.9837 L2327.8906,146.9056 L2325.4219,146.9056 Z " fill="#000000"/><text fill="#000000" font-family="sans-serif" font-size="14" font-style="italic" lengthAdjust="spacing" textLength="134" x="2343.5" y="155.9867">PanacheRepository</text><rect fill="#FFFFFF" height="15.9688" style="stroke:#181818;stroke-width:1.0;stroke-dasharray:2.0,2.0;" width="37" x="2485.5" y="132.14"/><text fill="#000000" font-family="sans-serif" font-size="12" font-style="italic" lengthAdjust="spacing" textLength="35" x="2486.5" y="144.2787">Entity</text><line style="stroke:#181818;stroke-width:0.5;" x1="2315.5" x2="2518.5" y1="167.14" y2="167.14"/><line style="stroke:#181818;stroke-width:0.5;" x1="2315.5" x2="2518.5" y1="175.14" y2="175.14"/></g><!--link SewerIndicationAdapter to SewerIndicationUseCase--><g id="link_SewerIndicationAdapter_SewerIndicationUseCase"><path codeLine="143" d="M1075,398.03 C1075,431.11 1075,476.03 1075,509.12 " fill="none" id="SewerIndicationAdapter-to-SewerIndicationUseCase" style="stroke:#181818;stroke-width:1.0;"/><polygon fill="#181818" points="1075,515.12,1079,506.12,1075,510.12,1071,506.12,1075,515.12" style="stroke:#181818;stroke-width:1.0;"/></g><!--link SewerObservationAdapter to SewerObservationUseCase--><g id="link_SewerObservationAdapter_SewerObservationUseCase"><path codeLine="144" d="M1745,398.03 C1745,431.11 1745,476.03 1745,509.12 " fill="none" id="SewerObservationAdapter-to-SewerObservationUseCase" style="stroke:#181818;stroke-width:1.0;"/><polygon fill="#181818" points="1745,515.12,1749,506.12,1745,510.12,1741,506.12,1745,515.12" style="stroke:#181818;stroke-width:1.0;"/></g><!--reverse link SewersUseCase to SewersAdapterBridge--><g id="link_SewersUseCase_SewersAdapterBridge"><path codeLine="145" d="M1763,1543.31 C1763,1572.7 1763,1594.21 1763,1623.56 " fill="none" id="SewersUseCase-backto-SewersAdapterBridge" style="stroke:#181818;stroke-width:1.0;stroke-dasharray:7.0,7.0;"/><polygon fill="none" points="1763,1525.31,1757,1543.31,1769,1543.31,1763,1525.31" style="stroke:#181818;stroke-width:1.0;"/></g><!--link SewersAdapterBridge to SewersAdapter--><g id="link_SewersAdapterBridge_SewersAdapter"><path codeLine="146" d="M1722,1704.82 C1722,1723.47 1722,1739.53 1722,1758.17 " fill="none" id="SewersAdapterBridge-to-SewersAdapter" style="stroke:#181818;stroke-width:1.0;"/><polygon fill="#181818" points="1722,1764.17,1726,1755.17,1722,1759.17,1718,1755.17,1722,1764.17" style="stroke:#181818;stroke-width:1.0;"/></g><!--link SewerOverflowIndicationService to SewerOverflowIndicationComponent--><g id="link_SewerOverflowIndicationService_SewerOverflowIndicationComponent"><path codeLine="147" d="M1075,762.37 C1075,780.64 1075,797.41 1075,815.73 " fill="none" id="SewerOverflowIndicationService-to-SewerOverflowIndicationComponent" style="stroke:#181818;stroke-width:1.0;"/><polygon fill="#181818" points="1075,821.73,1079,812.73,1075,816.73,1071,812.73,1075,821.73" style="stroke:#181818;stroke-width:1.0;"/></g><!--link SewerOverflowIndicationComponent to Sewers--><g id="link_SewerOverflowIndicationComponent_Sewers"><path codeLine="148" d="M1205.25,886.94 C1205.25,957.94 1205.25,1120.23 1205.25,1120.23 C1205.25,1120.23 1206.37,1120.23 1217.84,1120.23 " fill="none" id="SewerOverflowIndicationComponent-to-Sewers" style="stroke:#181818;stroke-width:1.0;"/><polygon fill="#181818" points="1223.84,1120.23,1214.84,1116.23,1218.84,1120.23,1214.84,1124.23,1223.84,1120.23" style="stroke:#181818;stroke-width:1.0;"/></g><!--link SewerObservationService to SewerObservationComponent--><g id="link_SewerObservationService_SewerObservationComponent"><path codeLine="149" d="M1458,762.37 C1458,780.64 1458,797.41 1458,815.73 " fill="none" id="SewerObservationService-to-SewerObservationComponent" style="stroke:#181818;stroke-width:1.0;"/><polygon fill="#181818" points="1458,821.73,1462,812.73,1458,816.73,1454,812.73,1458,821.73" style="stroke:#181818;stroke-width:1.0;"/></g><!--link SewerObservationComponent to Sewers--><g id="link_SewerObservationComponent_Sewers"><path codeLine="150" d="M1440,886.9 C1440,935.38 1440,1020.47 1440,1073.26 " fill="none" id="SewerObservationComponent-to-Sewers" style="stroke:#181818;stroke-width:1.0;"/><polygon fill="#181818" points="1440,1079.26,1444,1070.26,1440,1074.26,1436,1070.26,1440,1079.26" style="stroke:#181818;stroke-width:1.0;"/></g><!--link Sewer to Problem--><g id="link_Sewer_Problem"><path codeLine="151" d="M1189.25,1165.23 C1275.31,1165.23 1373,1165.23 1373,1165.23 C1373,1165.23 1373,1224.47 1373,1269.07 " fill="none" id="Sewer-to-Problem" style="stroke:#181818;stroke-width:1.0;"/><polygon fill="#181818" points="1373,1275.07,1377,1266.07,1373,1270.07,1369,1266.07,1373,1275.07" style="stroke:#181818;stroke-width:1.0;"/></g><!--link Sewer to KeyPerformanceIndicator--><g id="link_Sewer_KeyPerformanceIndicator"><path codeLine="152" d="M1061,1168.85 C1061,1198.88 1061,1231.2 1061,1261.17 " fill="none" id="Sewer-to-KeyPerformanceIndicator" style="stroke:#181818;stroke-width:1.0;"/><polygon fill="#181818" points="1061,1267.17,1065,1258.17,1061,1262.17,1057,1258.17,1061,1267.17" style="stroke:#181818;stroke-width:1.0;"/></g><!--link SewerIndicationUseCase to SewerOverflowIndicationService--><g id="link_SewerIndicationUseCase_SewerOverflowIndicationService"><path codeLine="153" d="M1075,580.33 C1075,613.41 1075,658.33 1075,691.42 " fill="none" id="SewerIndicationUseCase-to-SewerOverflowIndicationService" style="stroke:#181818;stroke-width:1.0;"/><polygon fill="#181818" points="1075,697.42,1079,688.42,1075,692.42,1071,688.42,1075,697.42" style="stroke:#181818;stroke-width:1.0;"/></g><!--link SewerObservationUseCase to SewerObservationService--><g id="link_SewerObservationUseCase_SewerObservationService"><path codeLine="154" d="M1597.5,580.36 C1597.5,632.85 1597.5,730.23 1597.5,730.23 C1597.5,730.23 1589.39,730.23 1570.22,730.23 " fill="none" id="SewerObservationUseCase-to-SewerObservationService" style="stroke:#181818;stroke-width:1.0;"/><polygon fill="#181818" points="1564.22,730.23,1573.22,734.23,1569.22,730.23,1573.22,726.23,1564.22,730.23" style="stroke:#181818;stroke-width:1.0;"/></g><!--reverse link Sewers to SewersUseCaseBridge--><g id="link_Sewers_SewersUseCaseBridge"><path codeLine="155" d="M1527.25,1178.6 C1527.25,1236.1 1527.25,1316.23 1527.25,1316.23 C1527.25,1316.23 1593.1,1316.23 1663.58,1316.23 " fill="none" id="Sewers-backto-SewersUseCaseBridge" style="stroke:#181818;stroke-width:1.0;stroke-dasharray:7.0,7.0;"/><polygon fill="none" points="1527.25,1160.6,1521.25,1178.6,1533.25,1178.6,1527.25,1160.6" style="stroke:#181818;stroke-width:1.0;"/></g><!--link SewersUseCaseBridge to SewersUseCase--><g id="link_SewersUseCaseBridge_SewersUseCase"><path codeLine="156" d="M1804,1356.23 C1804,1382.75 1804,1411.31 1804,1437.89 " fill="none" id="SewersUseCaseBridge-to-SewersUseCase" style="stroke:#181818;stroke-width:1.0;"/><polygon fill="#181818" points="1804,1443.89,1808,1434.89,1804,1438.89,1800,1434.89,1804,1443.89" style="stroke:#181818;stroke-width:1.0;"/></g><!--link JSONRainfallIndicationDriver to SewerIndicationAdapter--><g id="link_JSONRainfallIndicationDriver_SewerIndicationAdapter"><path codeLine="157" d="M776,191.56 C776,246.08 776,350.23 776,350.23 C776,350.23 883.9,350.23 971.1,350.23 " fill="none" id="JSONRainfallIndicationDriver-to-SewerIndicationAdapter" style="stroke:#181818;stroke-width:1.0;"/><polygon fill="#181818" points="977.1,350.23,968.1,346.23,972.1,350.23,968.1,354.23,977.1,350.23" style="stroke:#181818;stroke-width:1.0;"/></g><!--link PdfPumpPowerConsumptionIndicationDriver to SewerIndicationAdapter--><g id="link_PdfPumpPowerConsumptionIndicationDriver_SewerIndicationAdapter"><path codeLine="158" d="M214,191.58 C214,253.45 214,382.23 214,382.23 C214,382.23 745.4,382.23 971.07,382.23 " fill="none" id="PdfPumpPowerConsumptionIndicationDriver-to-SewerIndicationAdapter" style="stroke:#181818;stroke-width:1.0;"/><polygon fill="#181818" points="977.07,382.23,968.07,378.23,972.07,382.23,968.07,386.23,977.07,382.23" style="stroke:#181818;stroke-width:1.0;"/></g><!--link XMLRainfallIndicationDriver to SewerIndicationAdapter--><g id="link_XMLRainfallIndicationDriver_SewerIndicationAdapter"><path codeLine="159" d="M524,191.5 C524,249.74 524,366.23 524,366.23 C524,366.23 812.79,366.23 971.13,366.23 " fill="none" id="XMLRainfallIndicationDriver-to-SewerIndicationAdapter" style="stroke:#181818;stroke-width:1.0;"/><polygon fill="#181818" points="977.13,366.23,968.13,362.23,972.13,366.23,968.13,370.23,977.13,366.23" style="stroke:#181818;stroke-width:1.0;"/></g><!--reverse link SewersAdapter to DynamoSewersDriver--><g id="link_SewersAdapter_DynamoSewersDriver"><path codeLine="160" d="M1592.77,1792.23 C1460.87,1792.23 1276.67,1792.23 1276.67,1792.23 C1276.67,1792.23 1276.67,2077.85 1276.67,2185.52 " fill="none" id="SewersAdapter-backto-DynamoSewersDriver" style="stroke:#181818;stroke-width:1.0;stroke-dasharray:7.0,7.0;"/><polygon fill="none" points="1610.77,1792.23,1592.77,1786.23,1592.77,1798.23,1610.77,1792.23" style="stroke:#181818;stroke-width:1.0;"/></g><!--reverse link SewersAdapter to S3SewersDriver--><g id="link_SewersAdapter_S3SewersDriver"><path codeLine="161" d="M1592.73,1818.23 C1576.16,1818.23 1582.5,1818.23 1582.5,1818.23 C1582.5,1818.23 1582.5,2082.23 1582.5,2185.35 " fill="none" id="SewersAdapter-backto-S3SewersDriver" style="stroke:#181818;stroke-width:1.0;stroke-dasharray:7.0,7.0;"/><polygon fill="none" points="1610.73,1818.23,1592.73,1812.23,1592.73,1824.23,1610.73,1818.23" style="stroke:#181818;stroke-width:1.0;"/></g><!--reverse link SewersAdapter to FileSewersDriver--><g id="link_SewersAdapter_FileSewersDriver"><path codeLine="162" d="M1648,1863.54 C1648,1969.32 1648,2226.23 1648,2226.23 C1648,2226.23 1663.56,2226.23 1684.58,2226.23 " fill="none" id="SewersAdapter-backto-FileSewersDriver" style="stroke:#181818;stroke-width:1.0;stroke-dasharray:7.0,7.0;"/><polygon fill="none" points="1648,1845.54,1642,1863.54,1654,1863.54,1648,1845.54" style="stroke:#181818;stroke-width:1.0;"/></g><!--reverse link SewersAdapter to SewersDriverOrchestrator--><g id="link_SewersAdapter_SewersDriverOrchestrator"><path codeLine="163" d="M1759,1863.31 C1759,1903.44 1759,1946.51 1759,1986.67 " fill="none" id="SewersAdapter-backto-SewersDriverOrchestrator" style="stroke:#181818;stroke-width:1.0;stroke-dasharray:7.0,7.0;"/><polygon fill="none" points="1759,1845.31,1753,1863.31,1765,1863.31,1759,1845.31" style="stroke:#181818;stroke-width:1.0;"/></g><!--link SewersDriverOrchestrator to DynamoSewersDriver--><g id="link_SewersDriverOrchestrator_DynamoSewersDriver"><path codeLine="164" d="M1684.79,2014.23 C1539.07,2014.23 1301.83,2014.23 1301.83,2014.23 C1301.83,2014.23 1301.83,2118.19 1301.83,2179.62 " fill="none" id="SewersDriverOrchestrator-to-DynamoSewersDriver" style="stroke:#181818;stroke-width:1.0;"/><polygon fill="#181818" points="1301.83,2185.62,1305.83,2176.62,1301.83,2180.62,1297.83,2176.62,1301.83,2185.62" style="stroke:#181818;stroke-width:1.0;"/></g><!--link SewersDriverOrchestrator to PanacheSewersDriver--><g id="link_SewersDriverOrchestrator_PanacheSewersDriver"><path codeLine="165" d="M1907.28,2028.23 C1943.86,2028.23 1975.33,2028.23 1975.33,2028.23 C1975.33,2028.23 1975.33,2121.61 1975.33,2179.45 " fill="none" id="SewersDriverOrchestrator-to-PanacheSewersDriver" style="stroke:#181818;stroke-width:1.0;"/><polygon fill="#181818" points="1975.33,2185.45,1979.33,2176.45,1975.33,2180.45,1971.33,2176.45,1975.33,2185.45" style="stroke:#181818;stroke-width:1.0;"/></g><!--link SewersDriverOrchestrator to FileSewersDriver--><g id="link_SewersDriverOrchestrator_FileSewersDriver"><path codeLine="166" d="M1796,2068.01 C1796,2102.28 1796,2145.06 1796,2179.32 " fill="none" id="SewersDriverOrchestrator-to-FileSewersDriver" style="stroke:#181818;stroke-width:1.0;"/><polygon fill="#181818" points="1796,2185.32,1800,2176.32,1796,2180.32,1792,2176.32,1796,2185.32" style="stroke:#181818;stroke-width:1.0;"/></g><!--link SewersDriverOrchestrator to S3SewersDriver--><g id="link_SewersDriverOrchestrator_S3SewersDriver"><path codeLine="167" d="M1684.56,2041.23 C1636.02,2041.23 1590,2041.23 1590,2041.23 C1590,2041.23 1590,2125.03 1590,2179.4 " fill="none" id="SewersDriverOrchestrator-to-S3SewersDriver" style="stroke:#181818;stroke-width:1.0;"/><polygon fill="#181818" points="1590,2185.4,1594,2176.4,1590,2180.4,1586,2176.4,1590,2185.4" style="stroke:#181818;stroke-width:1.0;"/></g><!--reverse link SewersAdapter to PanacheSewersDriver--><g id="link_SewersAdapter_PanacheSewersDriver"><path codeLine="168" d="M1851.13,1805.23 C1923.93,1805.23 1987.67,1805.23 1987.67,1805.23 C1987.67,1805.23 1987.67,2079.63 1987.67,2185.21 " fill="none" id="SewersAdapter-backto-PanacheSewersDriver" style="stroke:#181818;stroke-width:1.0;stroke-dasharray:7.0,7.0;"/><polygon fill="none" points="1833.13,1805.23,1851.13,1811.23,1851.13,1799.23,1833.13,1805.23" style="stroke:#181818;stroke-width:1.0;"/></g><!--link FlowIndicationResourceDriver to SewerIndicationAdapter--><g id="link_FlowIndicationResourceDriver_SewerIndicationAdapter"><path codeLine="169" d="M1683,191.64 C1683,252.2 1683,376.23 1683,376.23 C1683,376.23 1350.55,376.23 1178.69,376.23 " fill="none" id="FlowIndicationResourceDriver-to-SewerIndicationAdapter" style="stroke:#181818;stroke-width:1.0;"/><polygon fill="#181818" points="1172.69,376.23,1181.69,380.23,1177.69,376.23,1181.69,372.23,1172.69,376.23" style="stroke:#181818;stroke-width:1.0;"/></g><!--link PumpPowerConsumptionIndicationResourceDriver to SewerIndicationAdapter--><g id="link_PumpPowerConsumptionIndicationResourceDriver_SewerIndicationAdapter"><path codeLine="170" d="M1075,191.38 C1075,230.02 1075,288.4 1075,327.09 " fill="none" id="PumpPowerConsumptionIndicationResourceDriver-to-SewerIndicationAdapter" style="stroke:#181818;stroke-width:1.0;"/><polygon fill="#181818" points="1075,333.09,1079,324.09,1075,328.09,1071,324.09,1075,333.09" style="stroke:#181818;stroke-width:1.0;"/></g><!--link RainfallIndicationResourceDriver to SewerIndicationAdapter--><g id="link_RainfallIndicationResourceDriver_SewerIndicationAdapter"><path codeLine="171" d="M1473.25,191.52 C1473.25,247.22 1473.25,355.23 1473.25,355.23 C1473.25,355.23 1296.85,355.23 1178.93,355.23 " fill="none" id="RainfallIndicationResourceDriver-to-SewerIndicationAdapter" style="stroke:#181818;stroke-width:1.0;"/><polygon fill="#181818" points="1172.93,355.23,1181.93,359.23,1177.93,355.23,1181.93,351.23,1172.93,355.23" style="stroke:#181818;stroke-width:1.0;"/></g><!--link ObservationResourceDriver to SewerObservationAdapter--><g id="link_ObservationResourceDriver_SewerObservationAdapter"><path codeLine="172" d="M1981.5,191.5 C1981.5,249.74 1981.5,366.23 1981.5,366.23 C1981.5,366.23 1952.49,366.23 1913.3,366.23 " fill="none" id="ObservationResourceDriver-to-SewerObservationAdapter" style="stroke:#181818;stroke-width:1.0;"/><polygon fill="#181818" points="1907.3,366.23,1916.3,370.23,1912.3,366.23,1916.3,362.23,1907.3,366.23" style="stroke:#181818;stroke-width:1.0;"/></g><!--SRC=[rLXTRzis57tNhz3a5nTTYQBfYWOe3BH90sJTQYD6WBqDj4JPd2LH8wMuHfR_Fkh3jhv5IQJilZdAvRddNbvUNfvVV0hNBjH3Xkwz054NMHW6Q07DBLmZfjlGOKXZM-pva49NTx27WhsFT4A33T7OXknqnjSX4dtL_6ITRb7yX2ZJ8TCj14pY-j3R0v-I8BO33EqG1GUh2TlkLqw8zEUN8mAqe1y8Gu2Z-UJZEzjUlSz2hKZeMP3kEq81x5dOvCa0Hu29Wrqa0vgi6A9FAf3Zpwm1cE_qtoPag6jcmMdXnBQluVLr5XLv0Gxm051mH9ZOfcsjtif8HXbTP5DDuWMKE2gSWGFsX53ehP6Y8DlBIrwCHLyZXPXOZX5WtbDJUF6IlJAN8CLNUq0IowsFHqnkrjk82QvoEsQI-SgLWzmH4rtqE6AowrmhJRZ2A_paHDrbVlBHUgrtT65Z1uban-V6c0zudea4aRCh9hiD3l9ZtOvrnm7HgidTsy_lhZuEYBc02Aoz1rqYFRL5D-nAgOju9rKw8DJS81PG613QxeZ3GcxVmyzXvUJzX-lVldwHn3v5RITEUOo2-B5fkROxienG53Ie6BQz9VqRGheDuyE82JZyLP7xp8QU3C46hn3r8kA4kbLRfvaEP4mtbX6v-oHAJBpFIMip1h_5G3Mm_gpf-kidWYqzpi1q6L3ihLzfBpb2ypW_WnYLvjuQu8JH4WMVvgj_a1dCIiHmzF2s8U-N2JdMbrAXna4EBU6XFyDLT9RDu2LBAGrc-lXuV_kgO1Sdyv3_sE9NFLbNpEh1rHUAhJMIIp_1B2Upn5oSxfoxjnsoEnNHaaDXipjpeQTViyzouKRcxPHlE4VYSRU6olSgQFEUeOz-83CCwW8udG-9oMuzYxaaH-KJ6yn4UuJK9DSzc46jrnBjOuhhUuWX_ncQ05VsaPHNrpRo3UqNd3Q_GY2_gzEo8gMYCLG_gPFGaiWYPleQ1VVMD0wXXcDayit7YSqYUTj4tzAVqqmCDGZ66EzOK4S_AQcuVcBQeUil20Ux8HxZlwFwIs8xsTpner_yzW2nPqF7oSQRfi0Ow-a83kalnFI083j4yJrq-S0IVIqtiMcntax_UcJeXZCo9Bv0GRMBxeFBS6wjRJF7hQ5jbhhFS6xLmq2EaDfP9dNLSvOH3AGurTJrqNxDy_Vb_FlXW9uAxZRcQWmI2a0JT7ifBooxgk58vYZefPtkNt_-eIYD3SZjj6vZ_IAffsvin9GGK7OWRVw-aa6xhAo0FB0ikdTyzuOIhj9fG15OwlicnPndz1j3ilu3wXp92cIHA0j3ar-Z0e4AU6aravin7X0Z8JLHjn2g9IBG12tGV1jxebIYNLor4oztIgbas-3R2MOcfm7CIbDPBMnku6sOoT8gVq0-OPWVphqXekQ1qh9FN-DvUyRzlcXArBitRsQAvsnDYSRNdxVe3Ax9Lj902FwRgPXffJFjcjn6J6riNQz_QKYGvRJp2O8IugxKdxInj4890NIN-hJnnSLBtIWHnKuQTq69wQUAgOSig2aMkPGqm-O6h2dMnbIqYPgMfAbJe8PC0qhQW0Zf_gaVFC3qaSMwqXMTcZNr4ja5Kc-Ipiv9jx-srlqC3fvqkojgPoOffgATcMG_nUod92ruqdeVYekDeeEYUB4n21scYwwZrdwbAHIApt1W-mZ2vxmCPUZ25yY_LIe-E-SE8d9NhgAYwFy0]--></g></svg>