<svg xmlns="http://www.w3.org/2000/svg" xmlns:xlink="http://www.w3.org/1999/xlink" contentStyleType="text/css" height="2516px" preserveAspectRatio="none" style="width:2568px;height:2516px;background:#FFFFFF;" version="1.1" viewBox="0 0 2568 2516" width="2568px" zoomAndPan="magnify"><defs/><g><!--cluster drivers--><g id="cluster_drivers"><path d="M8.5,6 L304.5,6 A3.75,3.75 0 0 1 307,8.5 L314,28.2969 L2246.5,28.2969 A2.5,2.5 0 0 1 2249,30.7969 L2249,2507.33 A2.5,2.5 0 0 1 2246.5,2509.83 L8.5,2509.83 A2.5,2.5 0 0 1 6,2507.33 L6,8.5 A2.5,2.5 0 0 1 8.5,6 " fill="#87CEEB" style="stroke:#000000;stroke-width:1.5;"/><line style="stroke:#000000;stroke-width:1.5;" x1="6" x2="314" y1="28.2969" y2="28.2969"/><text fill="#000000" font-family="sans-serif" font-size="14" font-weight="bold" lengthAdjust="spacing" textLength="295" x="10" y="20.9951">de.company.prototype.sewer.drivers</text></g><!--cluster adapters--><g id="cluster_adapters"><path d="M366.5,255.3 L437.5,255.3 A3.75,3.75 0 0 1 440,257.8 L447,277.5969 L2217.5,277.5969 A2.5,2.5 0 0 1 2220,280.0969 L2220,2038.14 A2.5,2.5 0 0 1 2217.5,2040.64 L366.5,2040.64 A2.5,2.5 0 0 1 364,2038.14 L364,257.8 A2.5,2.5 0 0 1 366.5,255.3 " fill="#82FFB4" style="stroke:#000000;stroke-width:1.5;"/><line style="stroke:#000000;stroke-width:1.5;" x1="364" x2="447" y1="277.5969" y2="277.5969"/><text fill="#000000" font-family="sans-serif" font-size="14" font-weight="bold" lengthAdjust="spacing" textLength="70" x="368" y="270.2951">adapters</text></g><!--cluster boundary--><g id="cluster_boundary"><path d="M665.5,298.3 L808.5,298.3 A3.75,3.75 0 0 1 811,300.8 L818,320.5969 L886.5,320.5969 A2.5,2.5 0 0 1 889,323.0969 L889,411.1 A2.5,2.5 0 0 1 886.5,413.6 L665.5,413.6 A2.5,2.5 0 0 1 663,411.1 L663,300.8 A2.5,2.5 0 0 1 665.5,298.3 " fill="#00FF00" style="stroke:#000000;stroke-width:1.5;"/><line style="stroke:#000000;stroke-width:1.5;" x1="663" x2="818" y1="320.5969" y2="320.5969"/><text fill="#000000" font-family="sans-serif" font-size="14" font-weight="bold" lengthAdjust="spacing" textLength="142" x="667" y="313.2951">indicate.boundary</text></g><!--cluster boundary--><g id="cluster_boundary"><path d="M1954.5,480.6 L2100.5,480.6 A3.75,3.75 0 0 1 2103,483.1 L2110,502.8969 L2193.5,502.8969 A2.5,2.5 0 0 1 2196,505.3969 L2196,593.39 A2.5,2.5 0 0 1 2193.5,595.89 L1954.5,595.89 A2.5,2.5 0 0 1 1952,593.39 L1952,483.1 A2.5,2.5 0 0 1 1954.5,480.6 " fill="#00FF00" style="stroke:#000000;stroke-width:1.5;"/><line style="stroke:#000000;stroke-width:1.5;" x1="1952" x2="2110" y1="502.8969" y2="502.8969"/><text fill="#000000" font-family="sans-serif" font-size="14" font-weight="bold" lengthAdjust="spacing" textLength="145" x="1956" y="495.5951">observe.boundary</text></g><!--cluster boundary--><g id="cluster_boundary"><path d="M1588.5,1744.45 L1728.5,1744.45 A3.75,3.75 0 0 1 1731,1746.95 L1738,1766.7469 L1837.5,1766.7469 A2.5,2.5 0 0 1 1840,1769.2469 L1840,2014.14 A2.5,2.5 0 0 1 1837.5,2016.64 L1588.5,2016.64 A2.5,2.5 0 0 1 1586,2014.14 L1586,1746.95 A2.5,2.5 0 0 1 1588.5,1744.45 " fill="#00FF00" style="stroke:#000000;stroke-width:1.5;"/><line style="stroke:#000000;stroke-width:1.5;" x1="1586" x2="1738" y1="1766.7469" y2="1766.7469"/><text fill="#000000" font-family="sans-serif" font-size="14" font-weight="bold" lengthAdjust="spacing" textLength="139" x="1590" y="1759.4451">sewers.boundary</text></g><!--cluster use_cases--><g id="cluster_use_cases"><path d="M390.5,437.6 L473.5,437.6 A3.75,3.75 0 0 1 476,440.1 L483,459.8969 L1925.5,459.8969 A2.5,2.5 0 0 1 1928,462.3969 L1928,1717.95 A2.5,2.5 0 0 1 1925.5,1720.45 L390.5,1720.45 A2.5,2.5 0 0 1 388,1717.95 L388,440.1 A2.5,2.5 0 0 1 390.5,437.6 " fill="#FF9A99" style="stroke:#000000;stroke-width:1.5;"/><line style="stroke:#000000;stroke-width:1.5;" x1="388" x2="483" y1="459.8969" y2="459.8969"/><text fill="#000000" font-family="sans-serif" font-size="14" font-weight="bold" lengthAdjust="spacing" textLength="82" x="392" y="452.5951">use_cases</text></g><!--cluster entities--><g id="cluster_entities"><path d="M414.5,619.89 L474.5,619.89 A3.75,3.75 0 0 1 477,622.39 L484,642.1869 L1623.5,642.1869 A2.5,2.5 0 0 1 1626,644.6869 L1626,1581.36 A2.5,2.5 0 0 1 1623.5,1583.86 L414.5,1583.86 A2.5,2.5 0 0 1 412,1581.36 L412,622.39 A2.5,2.5 0 0 1 414.5,619.89 " fill="#FCFDB0" style="stroke:#000000;stroke-width:1.5;"/><line style="stroke:#000000;stroke-width:1.5;" x1="412" x2="484" y1="642.1869" y2="642.1869"/><text fill="#000000" font-family="sans-serif" font-size="14" font-weight="bold" lengthAdjust="spacing" textLength="59" x="416" y="634.8851">entities</text></g><!--cluster boundary--><g id="cluster_boundary"><path d="M438.5,662.89 L581.5,662.89 A3.75,3.75 0 0 1 584,665.39 L591,685.1869 L1229.5,685.1869 A2.5,2.5 0 0 1 1232,687.6869 L1232,1063.28 A2.5,2.5 0 0 1 1229.5,1065.78 L438.5,1065.78 A2.5,2.5 0 0 1 436,1063.28 L436,665.39 A2.5,2.5 0 0 1 438.5,662.89 " fill="#00FF00" style="stroke:#000000;stroke-width:1.5;"/><line style="stroke:#000000;stroke-width:1.5;" x1="436" x2="591" y1="685.1869" y2="685.1869"/><text fill="#000000" font-family="sans-serif" font-size="14" font-weight="bold" lengthAdjust="spacing" textLength="142" x="440" y="677.8851">indicate.boundary</text></g><!--cluster control--><g id="cluster_control"><path d="M462.5,802.19 L519.5,802.19 A3.75,3.75 0 0 1 522,804.69 L529,824.4869 L1205.5,824.4869 A2.5,2.5 0 0 1 1208,826.9869 L1208,1039.28 A2.5,2.5 0 0 1 1205.5,1041.78 L462.5,1041.78 A2.5,2.5 0 0 1 460,1039.28 L460,804.69 A2.5,2.5 0 0 1 462.5,802.19 " fill="#FFA500" style="stroke:#000000;stroke-width:1.5;"/><line style="stroke:#000000;stroke-width:1.5;" x1="460" x2="529" y1="824.4869" y2="824.4869"/><text fill="#000000" font-family="sans-serif" font-size="14" font-weight="bold" lengthAdjust="spacing" textLength="56" x="464" y="817.1851">control</text></g><!--cluster boundary--><g id="cluster_boundary"><path d="M1284.5,802.19 L1430.5,802.19 A3.75,3.75 0 0 1 1433,804.69 L1440,824.4869 L1599.5,824.4869 A2.5,2.5 0 0 1 1602,826.9869 L1602,1063.28 A2.5,2.5 0 0 1 1599.5,1065.78 L1284.5,1065.78 A2.5,2.5 0 0 1 1282,1063.28 L1282,804.69 A2.5,2.5 0 0 1 1284.5,802.19 " fill="#00FF00" style="stroke:#000000;stroke-width:1.5;"/><line style="stroke:#000000;stroke-width:1.5;" x1="1282" x2="1440" y1="824.4869" y2="824.4869"/><text fill="#000000" font-family="sans-serif" font-size="14" font-weight="bold" lengthAdjust="spacing" textLength="145" x="1286" y="817.1851">observe.boundary</text></g><!--cluster control--><g id="cluster_control"><path d="M1308.5,926.49 L1365.5,926.49 A3.75,3.75 0 0 1 1368,928.99 L1375,948.7869 L1575.5,948.7869 A2.5,2.5 0 0 1 1578,951.2869 L1578,1039.28 A2.5,2.5 0 0 1 1575.5,1041.78 L1308.5,1041.78 A2.5,2.5 0 0 1 1306,1039.28 L1306,928.99 A2.5,2.5 0 0 1 1308.5,926.49 " fill="#FFA500" style="stroke:#000000;stroke-width:1.5;"/><line style="stroke:#000000;stroke-width:1.5;" x1="1306" x2="1375" y1="948.7869" y2="948.7869"/><text fill="#000000" font-family="sans-serif" font-size="14" font-weight="bold" lengthAdjust="spacing" textLength="56" x="1310" y="941.4851">control</text></g><!--cluster sewer--><g id="cluster_sewer"><path d="M759.5,1089.78 L810.5,1089.78 A3.75,3.75 0 0 1 813,1092.28 L820,1112.0769 L1414.5,1112.0769 A2.5,2.5 0 0 1 1417,1114.5769 L1417,1557.36 A2.5,2.5 0 0 1 1414.5,1559.86 L759.5,1559.86 A2.5,2.5 0 0 1 757,1557.36 L757,1092.28 A2.5,2.5 0 0 1 759.5,1089.78 " fill="none" style="stroke:#000000;stroke-width:1.5;"/><line style="stroke:#000000;stroke-width:1.5;" x1="757" x2="820" y1="1112.0769" y2="1112.0769"/><text fill="#000000" font-family="sans-serif" font-size="14" font-weight="bold" lengthAdjust="spacing" textLength="50" x="761" y="1104.7751">sewer</text></g><!--cluster boundary--><g id="cluster_boundary"><path d="M804.5,1132.78 L880.5,1132.78 A3.75,3.75 0 0 1 883,1135.28 L890,1155.0769 L1369.5,1155.0769 A2.5,2.5 0 0 1 1372,1157.5769 L1372,1361.47 A2.5,2.5 0 0 1 1369.5,1363.97 L804.5,1363.97 A2.5,2.5 0 0 1 802,1361.47 L802,1135.28 A2.5,2.5 0 0 1 804.5,1132.78 " fill="#00FF00" style="stroke:#000000;stroke-width:1.5;"/><line style="stroke:#000000;stroke-width:1.5;" x1="802" x2="890" y1="1155.0769" y2="1155.0769"/><text fill="#000000" font-family="sans-serif" font-size="14" font-weight="bold" lengthAdjust="spacing" textLength="75" x="806" y="1147.7751">boundary</text></g><!--cluster entity--><g id="cluster_entity"><path d="M828.5,1175.78 L935.5,1175.78 A3.75,3.75 0 0 1 938,1178.28 L945,1198.0769 L1113.5,1198.0769 A2.5,2.5 0 0 1 1116,1200.5769 L1116,1337.47 A2.5,2.5 0 0 1 1113.5,1339.97 L828.5,1339.97 A2.5,2.5 0 0 1 826,1337.47 L826,1178.28 A2.5,2.5 0 0 1 828.5,1175.78 " fill="#FCFDB0" style="stroke:#000000;stroke-width:1.5;"/><line style="stroke:#000000;stroke-width:1.5;" x1="826" x2="945" y1="1198.0769" y2="1198.0769"/><text fill="#000000" font-family="sans-serif" font-size="14" font-weight="bold" lengthAdjust="spacing" textLength="106" x="830" y="1190.7751">control.entity</text></g><!--cluster entity--><g id="cluster_entity"><path d="M783.5,1387.97 L998.5,1387.97 A3.75,3.75 0 0 1 1001,1390.47 L1008,1410.2669 L1090.5,1410.2669 A2.5,2.5 0 0 1 1093,1412.7669 L1093,1533.36 A2.5,2.5 0 0 1 1090.5,1535.86 L783.5,1535.86 A2.5,2.5 0 0 1 781,1533.36 L781,1390.47 A2.5,2.5 0 0 1 783.5,1387.97 " fill="#FCFDB0" style="stroke:#000000;stroke-width:1.5;"/><line style="stroke:#000000;stroke-width:1.5;" x1="781" x2="1008" y1="1410.2669" y2="1410.2669"/><text fill="#000000" font-family="sans-serif" font-size="14" font-weight="bold" lengthAdjust="spacing" textLength="214" x="785" y="1402.9651">kpi.boundary.control.entity</text></g><!--cluster entity--><g id="cluster_entity"><path d="M1119.5,1396.12 L1376.5,1396.12 A3.75,3.75 0 0 1 1379,1398.62 L1386,1418.4169 L1390.5,1418.4169 A2.5,2.5 0 0 1 1393,1420.9169 L1393,1525.21 A2.5,2.5 0 0 1 1390.5,1527.71 L1119.5,1527.71 A2.5,2.5 0 0 1 1117,1525.21 L1117,1398.62 A2.5,2.5 0 0 1 1119.5,1396.12 " fill="#FCFDB0" style="stroke:#000000;stroke-width:1.5;"/><line style="stroke:#000000;stroke-width:1.5;" x1="1117" x2="1386" y1="1418.4169" y2="1418.4169"/><text fill="#000000" font-family="sans-serif" font-size="14" font-weight="bold" lengthAdjust="spacing" textLength="256" x="1121" y="1411.1151">problem.boundary.control.entity</text></g><!--cluster boundary--><g id="cluster_boundary"><path d="M629.5,480.6 L772.5,480.6 A3.75,3.75 0 0 1 775,483.1 L782,502.8969 L858.5,502.8969 A2.5,2.5 0 0 1 861,505.3969 L861,593.39 A2.5,2.5 0 0 1 858.5,595.89 L629.5,595.89 A2.5,2.5 0 0 1 627,593.39 L627,483.1 A2.5,2.5 0 0 1 629.5,480.6 " fill="#00FF00" style="stroke:#000000;stroke-width:1.5;"/><line style="stroke:#000000;stroke-width:1.5;" x1="627" x2="782" y1="502.8969" y2="502.8969"/><text fill="#000000" font-family="sans-serif" font-size="14" font-weight="bold" lengthAdjust="spacing" textLength="142" x="631" y="495.5951">indicate.boundary</text></g><!--cluster boundary--><g id="cluster_boundary"><path d="M1653.5,662.89 L1799.5,662.89 A3.75,3.75 0 0 1 1802,665.39 L1809,685.1869 L1900.5,685.1869 A2.5,2.5 0 0 1 1903,687.6869 L1903,775.69 A2.5,2.5 0 0 1 1900.5,778.19 L1653.5,778.19 A2.5,2.5 0 0 1 1651,775.69 L1651,665.39 A2.5,2.5 0 0 1 1653.5,662.89 " fill="#00FF00" style="stroke:#000000;stroke-width:1.5;"/><line style="stroke:#000000;stroke-width:1.5;" x1="1651" x2="1809" y1="685.1869" y2="685.1869"/><text fill="#000000" font-family="sans-serif" font-size="14" font-weight="bold" lengthAdjust="spacing" textLength="145" x="1655" y="677.8851">observe.boundary</text></g><!--cluster boundary--><g id="cluster_boundary"><path d="M1652.5,1396.12 L1792.5,1396.12 A3.75,3.75 0 0 1 1795,1398.62 L1802,1418.4169 L1901.5,1418.4169 A2.5,2.5 0 0 1 1904,1420.9169 L1904,1693.95 A2.5,2.5 0 0 1 1901.5,1696.45 L1652.5,1696.45 A2.5,2.5 0 0 1 1650,1693.95 L1650,1398.62 A2.5,2.5 0 0 1 1652.5,1396.12 " fill="#00FF00" style="stroke:#000000;stroke-width:1.5;"/><line style="stroke:#000000;stroke-width:1.5;" x1="1650" x2="1802" y1="1418.4169" y2="1418.4169"/><text fill="#000000" font-family="sans-serif" font-size="14" font-weight="bold" lengthAdjust="spacing" textLength="139" x="1654" y="1411.1151">sewers.boundary</text></g><!--cluster boundary--><g id="cluster_boundary"><path d="M32.5,92 L204.5,92 A3.75,3.75 0 0 1 207,94.5 L214,114.2969 L899.5,114.2969 A2.5,2.5 0 0 1 902,116.7969 L902,204.8 A2.5,2.5 0 0 1 899.5,207.3 L32.5,207.3 A2.5,2.5 0 0 1 30,204.8 L30,94.5 A2.5,2.5 0 0 1 32.5,92 " fill="#00FF00" style="stroke:#000000;stroke-width:1.5;"/><line style="stroke:#000000;stroke-width:1.5;" x1="30" x2="214" y1="114.2969" y2="114.2969"/><text fill="#000000" font-family="sans-serif" font-size="14" font-weight="bold" lengthAdjust="spacing" textLength="171" x="34" y="106.9951">file.indicate.boundary</text></g><!--cluster persistence--><g id="cluster_persistence"><path d="M1043.5,2064.64 L1138.5,2064.64 A3.75,3.75 0 0 1 1141,2067.14 L1148,2086.9369 L2222.5,2086.9369 A2.5,2.5 0 0 1 2225,2089.4369 L2225,2483.33 A2.5,2.5 0 0 1 2222.5,2485.83 L1043.5,2485.83 A2.5,2.5 0 0 1 1041,2483.33 L1041,2067.14 A2.5,2.5 0 0 1 1043.5,2064.64 " fill="#FFFFFF" style="stroke:#000000;stroke-width:1.5;"/><line style="stroke:#000000;stroke-width:1.5;" x1="1041" x2="1148" y1="2086.9369" y2="2086.9369"/><text fill="#000000" font-family="sans-serif" font-size="14" font-weight="bold" lengthAdjust="spacing" textLength="94" x="1045" y="2079.6351">persistence</text></g><!--cluster aws--><g id="cluster_aws"><path d="M1067.5,2263.24 L1100.5,2263.24 A3.75,3.75 0 0 1 1103,2265.74 L1110,2285.5369 L1642.5,2285.5369 A2.5,2.5 0 0 1 1645,2288.0369 L1645,2459.33 A2.5,2.5 0 0 1 1642.5,2461.83 L1067.5,2461.83 A2.5,2.5 0 0 1 1065,2459.33 L1065,2265.74 A2.5,2.5 0 0 1 1067.5,2263.24 " fill="#F0A238" style="stroke:#000000;stroke-width:1.5;"/><line style="stroke:#000000;stroke-width:1.5;" x1="1065" x2="1110" y1="2285.5369" y2="2285.5369"/><text fill="#000000" font-family="sans-serif" font-size="14" font-weight="bold" lengthAdjust="spacing" textLength="32" x="1069" y="2278.2351">aws</text></g><!--cluster boundary--><g id="cluster_boundary"><path d="M1091.5,2306.24 L1298.5,2306.24 A3.75,3.75 0 0 1 1301,2308.74 L1308,2328.5369 L1340.5,2328.5369 A2.5,2.5 0 0 1 1343,2331.0369 L1343,2435.33 A2.5,2.5 0 0 1 1340.5,2437.83 L1091.5,2437.83 A2.5,2.5 0 0 1 1089,2435.33 L1089,2308.74 A2.5,2.5 0 0 1 1091.5,2306.24 " fill="#00FF00" style="stroke:#000000;stroke-width:1.5;"/><line style="stroke:#000000;stroke-width:1.5;" x1="1089" x2="1308" y1="2328.5369" y2="2328.5369"/><text fill="#000000" font-family="sans-serif" font-size="14" font-weight="bold" lengthAdjust="spacing" textLength="206" x="1093" y="2321.2351">dynamo.sewers.boundary</text></g><!--cluster boundary--><g id="cluster_boundary"><path d="M1369.5,2306.24 L1533.5,2306.24 A3.75,3.75 0 0 1 1536,2308.74 L1543,2328.5369 L1618.5,2328.5369 A2.5,2.5 0 0 1 1621,2331.0369 L1621,2435.33 A2.5,2.5 0 0 1 1618.5,2437.83 L1369.5,2437.83 A2.5,2.5 0 0 1 1367,2435.33 L1367,2308.74 A2.5,2.5 0 0 1 1369.5,2306.24 " fill="#00FF00" style="stroke:#000000;stroke-width:1.5;"/><line style="stroke:#000000;stroke-width:1.5;" x1="1367" x2="1543" y1="2328.5369" y2="2328.5369"/><text fill="#000000" font-family="sans-serif" font-size="14" font-weight="bold" lengthAdjust="spacing" textLength="163" x="1371" y="2321.2351">s3.sewers.boundary</text></g><!--cluster boundary--><g id="cluster_boundary"><path d="M1671.5,2306.24 L1840.5,2306.24 A3.75,3.75 0 0 1 1843,2308.74 L1850,2328.5369 L1920.5,2328.5369 A2.5,2.5 0 0 1 1923,2331.0369 L1923,2435.33 A2.5,2.5 0 0 1 1920.5,2437.83 L1671.5,2437.83 A2.5,2.5 0 0 1 1669,2435.33 L1669,2308.74 A2.5,2.5 0 0 1 1671.5,2306.24 " fill="#00FF00" style="stroke:#000000;stroke-width:1.5;"/><line style="stroke:#000000;stroke-width:1.5;" x1="1669" x2="1850" y1="2328.5369" y2="2328.5369"/><text fill="#000000" font-family="sans-serif" font-size="14" font-weight="bold" lengthAdjust="spacing" textLength="168" x="1673" y="2321.2351">file.sewers.boundary</text></g><!--cluster boundary--><g id="cluster_boundary"><path d="M1670.5,2107.64 L1915.5,2107.64 A3.75,3.75 0 0 1 1918,2110.14 L1925,2129.9369 L1925.5,2129.9369 A2.5,2.5 0 0 1 1928,2132.4369 L1928,2236.74 A2.5,2.5 0 0 1 1925.5,2239.24 L1670.5,2239.24 A2.5,2.5 0 0 1 1668,2236.74 L1668,2110.14 A2.5,2.5 0 0 1 1670.5,2107.64 " fill="#00FF00" style="stroke:#000000;stroke-width:1.5;"/><line style="stroke:#000000;stroke-width:1.5;" x1="1668" x2="1925" y1="2129.9369" y2="2129.9369"/><text fill="#000000" font-family="sans-serif" font-size="14" font-weight="bold" lengthAdjust="spacing" textLength="244" x="1672" y="2122.6351">orchestrator.sewers.boundary</text></g><!--cluster boundary--><g id="cluster_boundary"><path d="M1949.5,2306.24 L2161.5,2306.24 A3.75,3.75 0 0 1 2164,2308.74 L2171,2328.5369 L2198.5,2328.5369 A2.5,2.5 0 0 1 2201,2331.0369 L2201,2435.33 A2.5,2.5 0 0 1 2198.5,2437.83 L1949.5,2437.83 A2.5,2.5 0 0 1 1947,2435.33 L1947,2308.74 A2.5,2.5 0 0 1 1949.5,2306.24 " fill="#00FF00" style="stroke:#000000;stroke-width:1.5;"/><line style="stroke:#000000;stroke-width:1.5;" x1="1947" x2="2171" y1="2328.5369" y2="2328.5369"/><text fill="#000000" font-family="sans-serif" font-size="14" font-weight="bold" lengthAdjust="spacing" textLength="211" x="1951" y="2321.2351">panache.sewers.boundary</text></g><!--cluster rest--><g id="cluster_rest"><path d="M928.5,49 L961.5,49 A3.75,3.75 0 0 1 964,51.5 L971,71.2969 L2222.5,71.2969 A2.5,2.5 0 0 1 2225,73.7969 L2225,228.8 A2.5,2.5 0 0 1 2222.5,231.3 L928.5,231.3 A2.5,2.5 0 0 1 926,228.8 L926,51.5 A2.5,2.5 0 0 1 928.5,49 " fill="#FFFFFF" style="stroke:#000000;stroke-width:1.5;"/><line style="stroke:#000000;stroke-width:1.5;" x1="926" x2="971" y1="71.2969" y2="71.2969"/><text fill="#000000" font-family="sans-serif" font-size="14" font-weight="bold" lengthAdjust="spacing" textLength="32" x="930" y="63.9951">rest</text></g><!--cluster boundary--><g id="cluster_boundary"><path d="M952.5,92 L1095.5,92 A3.75,3.75 0 0 1 1098,94.5 L1105,114.2969 L1920.5,114.2969 A2.5,2.5 0 0 1 1923,116.7969 L1923,204.8 A2.5,2.5 0 0 1 1920.5,207.3 L952.5,207.3 A2.5,2.5 0 0 1 950,204.8 L950,94.5 A2.5,2.5 0 0 1 952.5,92 " fill="#00FF00" style="stroke:#000000;stroke-width:1.5;"/><line style="stroke:#000000;stroke-width:1.5;" x1="950" x2="1105" y1="114.2969" y2="114.2969"/><text fill="#000000" font-family="sans-serif" font-size="14" font-weight="bold" lengthAdjust="spacing" textLength="142" x="954" y="106.9951">indicate.boundary</text></g><!--cluster boundary--><g id="cluster_boundary"><path d="M1949.5,92 L2095.5,92 A3.75,3.75 0 0 1 2098,94.5 L2105,114.2969 L2198.5,114.2969 A2.5,2.5 0 0 1 2201,116.7969 L2201,204.8 A2.5,2.5 0 0 1 2198.5,207.3 L1949.5,207.3 A2.5,2.5 0 0 1 1947,204.8 L1947,94.5 A2.5,2.5 0 0 1 1949.5,92 " fill="#00FF00" style="stroke:#000000;stroke-width:1.5;"/><line style="stroke:#000000;stroke-width:1.5;" x1="1947" x2="2105" y1="114.2969" y2="114.2969"/><text fill="#000000" font-family="sans-serif" font-size="14" font-weight="bold" lengthAdjust="spacing" textLength="145" x="1951" y="106.9951">observe.boundary</text></g><!--cluster panache--><g id="cluster_panache"><path d="M2275.5,100.15 L2548.5,100.15 A3.75,3.75 0 0 1 2551,102.65 L2558,122.4469 L2558.5,122.4469 A2.5,2.5 0 0 1 2561,124.9469 L2561,196.65 A2.5,2.5 0 0 1 2558.5,199.15 L2275.5,199.15 A2.5,2.5 0 0 1 2273,196.65 L2273,102.65 A2.5,2.5 0 0 1 2275.5,100.15 " fill="#4695EB" style="stroke:#000000;stroke-width:1.5;"/><line style="stroke:#000000;stroke-width:1.5;" x1="2273" x2="2558" y1="122.4469" y2="122.4469"/><text fill="#000000" font-family="sans-serif" font-size="14" font-weight="bold" lengthAdjust="spacing" textLength="272" x="2277" y="115.1451">io.quarkus.hibernate.orm.panache</text></g><!--class SewerIndicationAdapter--><g id="elem_SewerIndicationAdapter"><rect codeLine="42" fill="#F1F1F1" height="64.2969" id="SewerIndicationAdapter" rx="2.5" ry="2.5" style="stroke:#181818;stroke-width:0.5;" width="195" x="678.5" y="333.3"/><ellipse cx="693.5" cy="349.3" fill="#ADD1B2" rx="11" ry="11" style="stroke:#181818;stroke-width:1.0;"/><path d="M696.4688,354.9406 Q695.8906,355.2375 695.25,355.3781 Q694.6094,355.5344 693.9063,355.5344 Q691.4063,355.5344 690.0781,353.8937 Q688.7656,352.2375 688.7656,349.1125 Q688.7656,345.9875 690.0781,344.3312 Q691.4063,342.675 693.9063,342.675 Q694.6094,342.675 695.25,342.8312 Q695.9063,342.9875 696.4688,343.2844 L696.4688,346.0031 Q695.8438,345.425 695.25,345.1594 Q694.6563,344.8781 694.0313,344.8781 Q692.6875,344.8781 692,345.9562 Q691.3125,347.0187 691.3125,349.1125 Q691.3125,351.2062 692,352.2844 Q692.6875,353.3469 694.0313,353.3469 Q694.6563,353.3469 695.25,353.0812 Q695.8438,352.8 696.4688,352.2219 L696.4688,354.9406 Z " fill="#000000"/><text fill="#000000" font-family="sans-serif" font-size="14" lengthAdjust="spacing" textLength="163" x="707.5" y="354.1467">SewerIndicationAdapter</text><line style="stroke:#181818;stroke-width:0.5;" x1="679.5" x2="872.5" y1="365.3" y2="365.3"/><line style="stroke:#181818;stroke-width:0.5;" x1="679.5" x2="872.5" y1="373.3" y2="373.3"/><ellipse cx="689.5" cy="386.9484" fill="#84BE84" rx="3" ry="3" style="stroke:#038048;stroke-width:1.0;"/><text fill="#000000" font-family="sans-serif" font-size="14" lengthAdjust="spacing" textLength="120" x="698.5" y="390.2951">void serve(String)</text></g><!--class SewerObservationAdapter--><g id="elem_SewerObservationAdapter"><rect codeLine="45" fill="#F1F1F1" height="64.2969" id="SewerObservationAdapter" rx="2.5" ry="2.5" style="stroke:#181818;stroke-width:0.5;" width="212" x="1968" y="515.6"/><ellipse cx="1983" cy="531.6" fill="#ADD1B2" rx="11" ry="11" style="stroke:#181818;stroke-width:1.0;"/><path d="M1985.9688,537.2406 Q1985.3906,537.5375 1984.75,537.6781 Q1984.1094,537.8344 1983.4063,537.8344 Q1980.9063,537.8344 1979.5781,536.1937 Q1978.2656,534.5375 1978.2656,531.4125 Q1978.2656,528.2875 1979.5781,526.6312 Q1980.9063,524.975 1983.4063,524.975 Q1984.1094,524.975 1984.75,525.1312 Q1985.4063,525.2875 1985.9688,525.5844 L1985.9688,528.3031 Q1985.3438,527.725 1984.75,527.4594 Q1984.1563,527.1781 1983.5313,527.1781 Q1982.1875,527.1781 1981.5,528.2562 Q1980.8125,529.3187 1980.8125,531.4125 Q1980.8125,533.5062 1981.5,534.5844 Q1982.1875,535.6469 1983.5313,535.6469 Q1984.1563,535.6469 1984.75,535.3812 Q1985.3438,535.1 1985.9688,534.5219 L1985.9688,537.2406 Z " fill="#000000"/><text fill="#000000" font-family="sans-serif" font-size="14" lengthAdjust="spacing" textLength="180" x="1997" y="536.4467">SewerObservationAdapter</text><line style="stroke:#181818;stroke-width:0.5;" x1="1969" x2="2179" y1="547.6" y2="547.6"/><line style="stroke:#181818;stroke-width:0.5;" x1="1969" x2="2179" y1="555.6" y2="555.6"/><ellipse cx="1979" cy="569.2484" fill="#84BE84" rx="3" ry="3" style="stroke:#038048;stroke-width:1.0;"/><text fill="#000000" font-family="sans-serif" font-size="14" lengthAdjust="spacing" textLength="184" x="1988" y="572.5951">Set&lt;Object&gt; serve(String)</text></g><!--class SewersAdapter--><g id="elem_SewersAdapter"><rect codeLine="48" fill="#F1F1F1" height="80.5938" id="SewersAdapter" rx="2.5" ry="2.5" style="stroke:#181818;stroke-width:0.5;" width="222" x="1602" y="1920.05"/><ellipse cx="1656.25" cy="1936.05" fill="#B4A7E5" rx="11" ry="11" style="stroke:#181818;stroke-width:1.0;"/><path d="M1652.1719,1931.8156 L1652.1719,1929.6594 L1659.5625,1929.6594 L1659.5625,1931.8156 L1657.0938,1931.8156 L1657.0938,1939.8938 L1659.5625,1939.8938 L1659.5625,1942.05 L1652.1719,1942.05 L1652.1719,1939.8938 L1654.6406,1939.8938 L1654.6406,1931.8156 L1652.1719,1931.8156 Z " fill="#000000"/><text fill="#000000" font-family="sans-serif" font-size="14" font-style="italic" lengthAdjust="spacing" textLength="105" x="1676.75" y="1940.8967">SewersAdapter</text><line style="stroke:#181818;stroke-width:0.5;" x1="1603" x2="1823" y1="1952.05" y2="1952.05"/><line style="stroke:#181818;stroke-width:0.5;" x1="1603" x2="1823" y1="1960.05" y2="1960.05"/><ellipse cx="1613" cy="1973.6984" fill="#84BE84" rx="3" ry="3" style="stroke:#038048;stroke-width:1.0;"/><text fill="#000000" font-family="sans-serif" font-size="14" font-style="italic" lengthAdjust="spacing" textLength="196" x="1622" y="1977.0451">Set&lt;Object&gt; observe(UUID)</text><ellipse cx="1613" cy="1989.9953" fill="#84BE84" rx="3" ry="3" style="stroke:#038048;stroke-width:1.0;"/><text fill="#000000" font-family="sans-serif" font-size="14" font-style="italic" lengthAdjust="spacing" textLength="183" x="1622" y="1993.342">void indicate(UUID, Object)</text></g><!--class SewersAdapterBridge--><g id="elem_SewersAdapterBridge"><rect codeLine="52" fill="#F1F1F1" height="80.5938" id="SewersAdapterBridge" rx="2.5" ry="2.5" style="stroke:#181818;stroke-width:0.5;" width="222" x="1602" y="1779.45"/><ellipse cx="1635" cy="1795.45" fill="#ADD1B2" rx="11" ry="11" style="stroke:#181818;stroke-width:1.0;"/><path d="M1637.9688,1801.0906 Q1637.3906,1801.3875 1636.75,1801.5281 Q1636.1094,1801.6844 1635.4063,1801.6844 Q1632.9063,1801.6844 1631.5781,1800.0437 Q1630.2656,1798.3875 1630.2656,1795.2625 Q1630.2656,1792.1375 1631.5781,1790.4812 Q1632.9063,1788.825 1635.4063,1788.825 Q1636.1094,1788.825 1636.75,1788.9812 Q1637.4063,1789.1375 1637.9688,1789.4344 L1637.9688,1792.1531 Q1637.3438,1791.575 1636.75,1791.3094 Q1636.1563,1791.0281 1635.5313,1791.0281 Q1634.1875,1791.0281 1633.5,1792.1062 Q1632.8125,1793.1687 1632.8125,1795.2625 Q1632.8125,1797.3562 1633.5,1798.4344 Q1634.1875,1799.4969 1635.5313,1799.4969 Q1636.1563,1799.4969 1636.75,1799.2312 Q1637.3438,1798.95 1637.9688,1798.3719 L1637.9688,1801.0906 Z " fill="#000000"/><text fill="#000000" font-family="sans-serif" font-size="14" lengthAdjust="spacing" textLength="150" x="1653" y="1800.2967">SewersAdapterBridge</text><line style="stroke:#181818;stroke-width:0.5;" x1="1603" x2="1823" y1="1811.45" y2="1811.45"/><line style="stroke:#181818;stroke-width:0.5;" x1="1603" x2="1823" y1="1819.45" y2="1819.45"/><ellipse cx="1613" cy="1833.0984" fill="#84BE84" rx="3" ry="3" style="stroke:#038048;stroke-width:1.0;"/><text fill="#000000" font-family="sans-serif" font-size="14" lengthAdjust="spacing" textLength="196" x="1622" y="1836.4451">Set&lt;Object&gt; observe(UUID)</text><ellipse cx="1613" cy="1849.3953" fill="#84BE84" rx="3" ry="3" style="stroke:#038048;stroke-width:1.0;"/><text fill="#000000" font-family="sans-serif" font-size="14" lengthAdjust="spacing" textLength="183" x="1622" y="1852.742">void indicate(UUID, Object)</text></g><!--class SewerOverflowIndicationService--><g id="elem_SewerOverflowIndicationService"><rect codeLine="56" fill="#F1F1F1" height="64.2969" id="SewerOverflowIndicationService" rx="2.5" ry="2.5" style="stroke:#181818;stroke-width:0.5;" width="250" x="586" y="697.89"/><ellipse cx="601" cy="713.89" fill="#ADD1B2" rx="11" ry="11" style="stroke:#181818;stroke-width:1.0;"/><path d="M603.9688,719.5306 Q603.3906,719.8275 602.75,719.9681 Q602.1094,720.1244 601.4063,720.1244 Q598.9063,720.1244 597.5781,718.4837 Q596.2656,716.8275 596.2656,713.7025 Q596.2656,710.5775 597.5781,708.9212 Q598.9063,707.265 601.4063,707.265 Q602.1094,707.265 602.75,707.4212 Q603.4063,707.5775 603.9688,707.8744 L603.9688,710.5931 Q603.3438,710.015 602.75,709.7494 Q602.1563,709.4681 601.5313,709.4681 Q600.1875,709.4681 599.5,710.5462 Q598.8125,711.6087 598.8125,713.7025 Q598.8125,715.7962 599.5,716.8744 Q600.1875,717.9369 601.5313,717.9369 Q602.1563,717.9369 602.75,717.6712 Q603.3438,717.39 603.9688,716.8119 L603.9688,719.5306 Z " fill="#000000"/><text fill="#000000" font-family="sans-serif" font-size="14" lengthAdjust="spacing" textLength="218" x="615" y="718.7367">SewerOverflowIndicationService</text><line style="stroke:#181818;stroke-width:0.5;" x1="587" x2="835" y1="729.89" y2="729.89"/><line style="stroke:#181818;stroke-width:0.5;" x1="587" x2="835" y1="737.89" y2="737.89"/><ellipse cx="597" cy="751.5384" fill="#84BE84" rx="3" ry="3" style="stroke:#038048;stroke-width:1.0;"/><text fill="#000000" font-family="sans-serif" font-size="14" lengthAdjust="spacing" textLength="221" x="606" y="754.8851">void serve(Map&lt;String, String&gt;)</text></g><!--class FlowIndicationComponent--><g id="elem_FlowIndicationComponent"><rect codeLine="59" fill="#F1F1F1" height="64.2969" id="FlowIndicationComponent" rx="2.5" ry="2.5" style="stroke:#181818;stroke-width:0.5;" width="341" x="851.5" y="837.19"/><ellipse cx="928.25" cy="853.19" fill="#ADD1B2" rx="11" ry="11" style="stroke:#181818;stroke-width:1.0;"/><path d="M931.2188,858.8306 Q930.6406,859.1275 930,859.2681 Q929.3594,859.4244 928.6563,859.4244 Q926.1563,859.4244 924.8281,857.7837 Q923.5156,856.1275 923.5156,853.0025 Q923.5156,849.8775 924.8281,848.2212 Q926.1563,846.565 928.6563,846.565 Q929.3594,846.565 930,846.7212 Q930.6563,846.8775 931.2188,847.1744 L931.2188,849.8931 Q930.5938,849.315 930,849.0494 Q929.4063,848.7681 928.7813,848.7681 Q927.4375,848.7681 926.75,849.8462 Q926.0625,850.9087 926.0625,853.0025 Q926.0625,855.0962 926.75,856.1744 Q927.4375,857.2369 928.7813,857.2369 Q929.4063,857.2369 930,856.9712 Q930.5938,856.69 931.2188,856.1119 L931.2188,858.8306 Z " fill="#000000"/><text fill="#000000" font-family="sans-serif" font-size="14" lengthAdjust="spacing" textLength="179" x="948.75" y="858.0367">FlowIndicationComponent</text><line style="stroke:#181818;stroke-width:0.5;" x1="852.5" x2="1191.5" y1="869.19" y2="869.19"/><line style="stroke:#181818;stroke-width:0.5;" x1="852.5" x2="1191.5" y1="877.19" y2="877.19"/><ellipse cx="862.5" cy="890.8384" fill="#84BE84" rx="3" ry="3" style="stroke:#038048;stroke-width:1.0;"/><text fill="#000000" font-family="sans-serif" font-size="14" lengthAdjust="spacing" textLength="315" x="871.5" y="894.1851">void execute(Map&lt;String, ? extends Object&gt;)</text></g><!--class PumpIndicationComponent--><g id="elem_PumpIndicationComponent"><rect codeLine="62" fill="#F1F1F1" height="64.2969" id="PumpIndicationComponent" rx="2.5" ry="2.5" style="stroke:#181818;stroke-width:0.5;" width="341" x="851.5" y="961.49"/><ellipse cx="923.75" cy="977.49" fill="#ADD1B2" rx="11" ry="11" style="stroke:#181818;stroke-width:1.0;"/><path d="M926.7188,983.1306 Q926.1406,983.4275 925.5,983.5681 Q924.8594,983.7244 924.1563,983.7244 Q921.6563,983.7244 920.3281,982.0838 Q919.0156,980.4275 919.0156,977.3025 Q919.0156,974.1775 920.3281,972.5213 Q921.6563,970.865 924.1563,970.865 Q924.8594,970.865 925.5,971.0213 Q926.1563,971.1775 926.7188,971.4744 L926.7188,974.1931 Q926.0938,973.615 925.5,973.3494 Q924.9063,973.0681 924.2813,973.0681 Q922.9375,973.0681 922.25,974.1463 Q921.5625,975.2088 921.5625,977.3025 Q921.5625,979.3963 922.25,980.4744 Q922.9375,981.5369 924.2813,981.5369 Q924.9063,981.5369 925.5,981.2713 Q926.0938,980.99 926.7188,980.4119 L926.7188,983.1306 Z " fill="#000000"/><text fill="#000000" font-family="sans-serif" font-size="14" lengthAdjust="spacing" textLength="188" x="944.25" y="982.3367">PumpIndicationComponent</text><line style="stroke:#181818;stroke-width:0.5;" x1="852.5" x2="1191.5" y1="993.49" y2="993.49"/><line style="stroke:#181818;stroke-width:0.5;" x1="852.5" x2="1191.5" y1="1001.49" y2="1001.49"/><ellipse cx="862.5" cy="1015.1384" fill="#84BE84" rx="3" ry="3" style="stroke:#038048;stroke-width:1.0;"/><text fill="#000000" font-family="sans-serif" font-size="14" lengthAdjust="spacing" textLength="315" x="871.5" y="1018.4851">void execute(Map&lt;String, ? extends Object&gt;)</text></g><!--class RainShortageIndicationComponent--><g id="elem_RainShortageIndicationComponent"><rect codeLine="65" fill="#F1F1F1" height="64.2969" id="RainShortageIndicationComponent" rx="2.5" ry="2.5" style="stroke:#181818;stroke-width:0.5;" width="341" x="475.5" y="961.49"/><ellipse cx="521.25" cy="977.49" fill="#ADD1B2" rx="11" ry="11" style="stroke:#181818;stroke-width:1.0;"/><path d="M524.2188,983.1306 Q523.6406,983.4275 523,983.5681 Q522.3594,983.7244 521.6563,983.7244 Q519.1563,983.7244 517.8281,982.0838 Q516.5156,980.4275 516.5156,977.3025 Q516.5156,974.1775 517.8281,972.5213 Q519.1563,970.865 521.6563,970.865 Q522.3594,970.865 523,971.0213 Q523.6563,971.1775 524.2188,971.4744 L524.2188,974.1931 Q523.5938,973.615 523,973.3494 Q522.4063,973.0681 521.7813,973.0681 Q520.4375,973.0681 519.75,974.1463 Q519.0625,975.2088 519.0625,977.3025 Q519.0625,979.3963 519.75,980.4744 Q520.4375,981.5369 521.7813,981.5369 Q522.4063,981.5369 523,981.2713 Q523.5938,980.99 524.2188,980.4119 L524.2188,983.1306 Z " fill="#000000"/><text fill="#000000" font-family="sans-serif" font-size="14" lengthAdjust="spacing" textLength="241" x="541.75" y="982.3367">RainShortageIndicationComponent</text><line style="stroke:#181818;stroke-width:0.5;" x1="476.5" x2="815.5" y1="993.49" y2="993.49"/><line style="stroke:#181818;stroke-width:0.5;" x1="476.5" x2="815.5" y1="1001.49" y2="1001.49"/><ellipse cx="486.5" cy="1015.1384" fill="#84BE84" rx="3" ry="3" style="stroke:#038048;stroke-width:1.0;"/><text fill="#000000" font-family="sans-serif" font-size="14" lengthAdjust="spacing" textLength="315" x="495.5" y="1018.4851">void execute(Map&lt;String, ? extends Object&gt;)</text></g><!--class SewerOverflowIndicationComponent--><g id="elem_SewerOverflowIndicationComponent"><rect codeLine="68" fill="#F1F1F1" height="64.2969" id="SewerOverflowIndicationComponent" rx="2.5" ry="2.5" style="stroke:#181818;stroke-width:0.5;" width="341" x="475.5" y="837.19"/><ellipse cx="517.05" cy="853.19" fill="#ADD1B2" rx="11" ry="11" style="stroke:#181818;stroke-width:1.0;"/><path d="M520.0188,858.8306 Q519.4406,859.1275 518.8,859.2681 Q518.1594,859.4244 517.4563,859.4244 Q514.9563,859.4244 513.6281,857.7837 Q512.3156,856.1275 512.3156,853.0025 Q512.3156,849.8775 513.6281,848.2212 Q514.9563,846.565 517.4563,846.565 Q518.1594,846.565 518.8,846.7212 Q519.4563,846.8775 520.0188,847.1744 L520.0188,849.8931 Q519.3938,849.315 518.8,849.0494 Q518.2063,848.7681 517.5813,848.7681 Q516.2375,848.7681 515.55,849.8462 Q514.8625,850.9087 514.8625,853.0025 Q514.8625,855.0962 515.55,856.1744 Q516.2375,857.2369 517.5813,857.2369 Q518.2063,857.2369 518.8,856.9712 Q519.3938,856.69 520.0188,856.1119 L520.0188,858.8306 Z " fill="#000000"/><text fill="#000000" font-family="sans-serif" font-size="14" lengthAdjust="spacing" textLength="250" x="536.95" y="858.0367">SewerOverflowIndicationComponent</text><line style="stroke:#181818;stroke-width:0.5;" x1="476.5" x2="815.5" y1="869.19" y2="869.19"/><line style="stroke:#181818;stroke-width:0.5;" x1="476.5" x2="815.5" y1="877.19" y2="877.19"/><ellipse cx="486.5" cy="890.8384" fill="#84BE84" rx="3" ry="3" style="stroke:#038048;stroke-width:1.0;"/><text fill="#000000" font-family="sans-serif" font-size="14" lengthAdjust="spacing" textLength="315" x="495.5" y="894.1851">void execute(Map&lt;String, ? extends Object&gt;)</text></g><!--class SewerObservationService--><g id="elem_SewerObservationService"><rect codeLine="71" fill="#F1F1F1" height="64.2969" id="SewerObservationService" rx="2.5" ry="2.5" style="stroke:#181818;stroke-width:0.5;" width="208" x="1358" y="837.19"/><ellipse cx="1373" cy="853.19" fill="#ADD1B2" rx="11" ry="11" style="stroke:#181818;stroke-width:1.0;"/><path d="M1375.9688,858.8306 Q1375.3906,859.1275 1374.75,859.2681 Q1374.1094,859.4244 1373.4063,859.4244 Q1370.9063,859.4244 1369.5781,857.7837 Q1368.2656,856.1275 1368.2656,853.0025 Q1368.2656,849.8775 1369.5781,848.2212 Q1370.9063,846.565 1373.4063,846.565 Q1374.1094,846.565 1374.75,846.7212 Q1375.4063,846.8775 1375.9688,847.1744 L1375.9688,849.8931 Q1375.3438,849.315 1374.75,849.0494 Q1374.1563,848.7681 1373.5313,848.7681 Q1372.1875,848.7681 1371.5,849.8462 Q1370.8125,850.9087 1370.8125,853.0025 Q1370.8125,855.0962 1371.5,856.1744 Q1372.1875,857.2369 1373.5313,857.2369 Q1374.1563,857.2369 1374.75,856.9712 Q1375.3438,856.69 1375.9688,856.1119 L1375.9688,858.8306 Z " fill="#000000"/><text fill="#000000" font-family="sans-serif" font-size="14" lengthAdjust="spacing" textLength="176" x="1387" y="858.0367">SewerObservationService</text><line style="stroke:#181818;stroke-width:0.5;" x1="1359" x2="1565" y1="869.19" y2="869.19"/><line style="stroke:#181818;stroke-width:0.5;" x1="1359" x2="1565" y1="877.19" y2="877.19"/><ellipse cx="1369" cy="890.8384" fill="#84BE84" rx="3" ry="3" style="stroke:#038048;stroke-width:1.0;"/><text fill="#000000" font-family="sans-serif" font-size="14" lengthAdjust="spacing" textLength="182" x="1378" y="894.1851">Set&lt;Sewer&gt; serve(String)</text></g><!--class SewerObservationComponent--><g id="elem_SewerObservationComponent"><rect codeLine="74" fill="#F1F1F1" height="64.2969" id="SewerObservationComponent" rx="2.5" ry="2.5" style="stroke:#181818;stroke-width:0.5;" width="240" x="1322" y="961.49"/><ellipse cx="1337" cy="977.49" fill="#ADD1B2" rx="11" ry="11" style="stroke:#181818;stroke-width:1.0;"/><path d="M1339.9688,983.1306 Q1339.3906,983.4275 1338.75,983.5681 Q1338.1094,983.7244 1337.4063,983.7244 Q1334.9063,983.7244 1333.5781,982.0838 Q1332.2656,980.4275 1332.2656,977.3025 Q1332.2656,974.1775 1333.5781,972.5213 Q1334.9063,970.865 1337.4063,970.865 Q1338.1094,970.865 1338.75,971.0213 Q1339.4063,971.1775 1339.9688,971.4744 L1339.9688,974.1931 Q1339.3438,973.615 1338.75,973.3494 Q1338.1563,973.0681 1337.5313,973.0681 Q1336.1875,973.0681 1335.5,974.1463 Q1334.8125,975.2088 1334.8125,977.3025 Q1334.8125,979.3963 1335.5,980.4744 Q1336.1875,981.5369 1337.5313,981.5369 Q1338.1563,981.5369 1338.75,981.2713 Q1339.3438,980.99 1339.9688,980.4119 L1339.9688,983.1306 Z " fill="#000000"/><text fill="#000000" font-family="sans-serif" font-size="14" lengthAdjust="spacing" textLength="208" x="1351" y="982.3367">SewerObservationComponent</text><line style="stroke:#181818;stroke-width:0.5;" x1="1323" x2="1561" y1="993.49" y2="993.49"/><line style="stroke:#181818;stroke-width:0.5;" x1="1323" x2="1561" y1="1001.49" y2="1001.49"/><ellipse cx="1333" cy="1015.1384" fill="#84BE84" rx="3" ry="3" style="stroke:#038048;stroke-width:1.0;"/><text fill="#000000" font-family="sans-serif" font-size="14" lengthAdjust="spacing" textLength="200" x="1342" y="1018.4851">Set&lt;Sewer&gt; execute(String)</text></g><!--class Sewers--><g id="elem_Sewers"><rect codeLine="77" fill="#F1F1F1" height="80.5938" id="Sewers" rx="2.5" ry="2.5" style="stroke:#181818;stroke-width:0.5;" width="220" x="1136" y="1227.08"/><ellipse cx="1216.25" cy="1243.08" fill="#B4A7E5" rx="11" ry="11" style="stroke:#181818;stroke-width:1.0;"/><path d="M1212.1719,1238.8456 L1212.1719,1236.6894 L1219.5625,1236.6894 L1219.5625,1238.8456 L1217.0938,1238.8456 L1217.0938,1246.9238 L1219.5625,1246.9238 L1219.5625,1249.08 L1212.1719,1249.08 L1212.1719,1246.9238 L1214.6406,1246.9238 L1214.6406,1238.8456 L1212.1719,1238.8456 Z " fill="#000000"/><text fill="#000000" font-family="sans-serif" font-size="14" font-style="italic" lengthAdjust="spacing" textLength="51" x="1236.75" y="1247.9267">Sewers</text><line style="stroke:#181818;stroke-width:0.5;" x1="1137" x2="1355" y1="1259.08" y2="1259.08"/><line style="stroke:#181818;stroke-width:0.5;" x1="1137" x2="1355" y1="1267.08" y2="1267.08"/><ellipse cx="1147" cy="1280.7284" fill="#84BE84" rx="3" ry="3" style="stroke:#038048;stroke-width:1.0;"/><text fill="#000000" font-family="sans-serif" font-size="14" font-style="italic" lengthAdjust="spacing" textLength="194" x="1156" y="1284.0751">Set&lt;Sewer&gt; observe(UUID)</text><ellipse cx="1147" cy="1297.0253" fill="#84BE84" rx="3" ry="3" style="stroke:#038048;stroke-width:1.0;"/><text fill="#000000" font-family="sans-serif" font-size="14" font-style="italic" lengthAdjust="spacing" textLength="139" x="1156" y="1300.372">void indicate(Sewer)</text></g><!--class Sewer--><g id="elem_Sewer"><rect codeLine="81" fill="#F1F1F1" height="113.1875" id="Sewer" rx="2.5" ry="2.5" style="stroke:#181818;stroke-width:0.5;" width="259" x="841.5" y="1210.78"/><ellipse cx="945.25" cy="1226.78" fill="#ADD1B2" rx="11" ry="11" style="stroke:#181818;stroke-width:1.0;"/><path d="M948.2188,1232.4206 Q947.6406,1232.7175 947,1232.8581 Q946.3594,1233.0144 945.6563,1233.0144 Q943.1563,1233.0144 941.8281,1231.3738 Q940.5156,1229.7175 940.5156,1226.5925 Q940.5156,1223.4675 941.8281,1221.8113 Q943.1563,1220.155 945.6563,1220.155 Q946.3594,1220.155 947,1220.3113 Q947.6563,1220.4675 948.2188,1220.7644 L948.2188,1223.4831 Q947.5938,1222.905 947,1222.6394 Q946.4063,1222.3581 945.7813,1222.3581 Q944.4375,1222.3581 943.75,1223.4363 Q943.0625,1224.4988 943.0625,1226.5925 Q943.0625,1228.6863 943.75,1229.7644 Q944.4375,1230.8269 945.7813,1230.8269 Q946.4063,1230.8269 947,1230.5613 Q947.5938,1230.28 948.2188,1229.7019 L948.2188,1232.4206 Z " fill="#000000"/><text fill="#000000" font-family="sans-serif" font-size="14" lengthAdjust="spacing" textLength="43" x="965.75" y="1231.6267">Sewer</text><line style="stroke:#181818;stroke-width:0.5;" x1="842.5" x2="1099.5" y1="1242.78" y2="1242.78"/><line style="stroke:#181818;stroke-width:0.5;" x1="842.5" x2="1099.5" y1="1250.78" y2="1250.78"/><ellipse cx="852.5" cy="1264.4284" fill="#84BE84" rx="3" ry="3" style="stroke:#038048;stroke-width:1.0;"/><text fill="#000000" font-family="sans-serif" font-size="14" lengthAdjust="spacing" textLength="83" x="861.5" y="1267.7751">UUID getId()</text><ellipse cx="852.5" cy="1280.7253" fill="#84BE84" rx="3" ry="3" style="stroke:#038048;stroke-width:1.0;"/><text fill="#000000" font-family="sans-serif" font-size="14" lengthAdjust="spacing" textLength="230" x="861.5" y="1284.072">KeyPerformanceIndicator getKpi()</text><ellipse cx="852.5" cy="1297.0222" fill="#84BE84" rx="3" ry="3" style="stroke:#038048;stroke-width:1.0;"/><text fill="#000000" font-family="sans-serif" font-size="14" lengthAdjust="spacing" textLength="206" x="861.5" y="1300.3689">Set&lt;Problem&gt; getProblems()</text><ellipse cx="852.5" cy="1313.3191" fill="#84BE84" rx="3" ry="3" style="stroke:#038048;stroke-width:1.0;"/><text fill="#000000" font-family="sans-serif" font-size="14" lengthAdjust="spacing" textLength="233" x="861.5" y="1316.6657">void setProblems(Set&lt;Problem&gt;)</text></g><!--class KeyPerformanceIndicator--><g id="elem_KeyPerformanceIndicator"><rect codeLine="87" fill="#F1F1F1" height="96.8906" id="KeyPerformanceIndicator" rx="2.5" ry="2.5" style="stroke:#181818;stroke-width:0.5;" width="279" x="797.5" y="1422.97"/><ellipse cx="846.75" cy="1438.97" fill="#ADD1B2" rx="11" ry="11" style="stroke:#181818;stroke-width:1.0;"/><path d="M849.7188,1444.6106 Q849.1406,1444.9075 848.5,1445.0481 Q847.8594,1445.2044 847.1563,1445.2044 Q844.6563,1445.2044 843.3281,1443.5638 Q842.0156,1441.9075 842.0156,1438.7825 Q842.0156,1435.6575 843.3281,1434.0013 Q844.6563,1432.345 847.1563,1432.345 Q847.8594,1432.345 848.5,1432.5013 Q849.1563,1432.6575 849.7188,1432.9544 L849.7188,1435.6731 Q849.0938,1435.095 848.5,1434.8294 Q847.9063,1434.5481 847.2813,1434.5481 Q845.9375,1434.5481 845.25,1435.6263 Q844.5625,1436.6888 844.5625,1438.7825 Q844.5625,1440.8763 845.25,1441.9544 Q845.9375,1443.0169 847.2813,1443.0169 Q847.9063,1443.0169 848.5,1442.7513 Q849.0938,1442.47 849.7188,1441.8919 L849.7188,1444.6106 Z " fill="#000000"/><text fill="#000000" font-family="sans-serif" font-size="14" lengthAdjust="spacing" textLength="172" x="867.25" y="1443.8167">KeyPerformanceIndicator</text><line style="stroke:#181818;stroke-width:0.5;" x1="798.5" x2="1075.5" y1="1454.97" y2="1454.97"/><line style="stroke:#181818;stroke-width:0.5;" x1="798.5" x2="1075.5" y1="1462.97" y2="1462.97"/><ellipse cx="808.5" cy="1476.6184" fill="#84BE84" rx="3" ry="3" style="stroke:#038048;stroke-width:1.0;"/><text fill="#000000" font-family="sans-serif" font-size="14" lengthAdjust="spacing" textLength="253" x="817.5" y="1479.9651">String getPumpPowerConsumption()</text><ellipse cx="808.5" cy="1492.9153" fill="#84BE84" rx="3" ry="3" style="stroke:#038048;stroke-width:1.0;"/><text fill="#000000" font-family="sans-serif" font-size="14" lengthAdjust="spacing" textLength="108" x="817.5" y="1496.262">String getFlow()</text><ellipse cx="808.5" cy="1509.2122" fill="#84BE84" rx="3" ry="3" style="stroke:#038048;stroke-width:1.0;"/><text fill="#000000" font-family="sans-serif" font-size="14" lengthAdjust="spacing" textLength="140" x="817.5" y="1512.5589">Number getRainfall()</text></g><!--class Problem--><g id="elem_Problem"><rect codeLine="92" fill="#F1F1F1" height="80.5938" id="Problem" rx="2.5" ry="2.5" style="stroke:#181818;stroke-width:0.5;" width="243" x="1133.5" y="1431.12"/><ellipse cx="1222.25" cy="1447.12" fill="#ADD1B2" rx="11" ry="11" style="stroke:#181818;stroke-width:1.0;"/><path d="M1225.2188,1452.7606 Q1224.6406,1453.0575 1224,1453.1981 Q1223.3594,1453.3544 1222.6563,1453.3544 Q1220.1563,1453.3544 1218.8281,1451.7138 Q1217.5156,1450.0575 1217.5156,1446.9325 Q1217.5156,1443.8075 1218.8281,1442.1513 Q1220.1563,1440.495 1222.6563,1440.495 Q1223.3594,1440.495 1224,1440.6513 Q1224.6563,1440.8075 1225.2188,1441.1044 L1225.2188,1443.8231 Q1224.5938,1443.245 1224,1442.9794 Q1223.4063,1442.6981 1222.7813,1442.6981 Q1221.4375,1442.6981 1220.75,1443.7763 Q1220.0625,1444.8388 1220.0625,1446.9325 Q1220.0625,1449.0263 1220.75,1450.1044 Q1221.4375,1451.1669 1222.7813,1451.1669 Q1223.4063,1451.1669 1224,1450.9013 Q1224.5938,1450.62 1225.2188,1450.0419 L1225.2188,1452.7606 Z " fill="#000000"/><text fill="#000000" font-family="sans-serif" font-size="14" lengthAdjust="spacing" textLength="57" x="1242.75" y="1451.9667">Problem</text><line style="stroke:#181818;stroke-width:0.5;" x1="1134.5" x2="1375.5" y1="1463.12" y2="1463.12"/><line style="stroke:#181818;stroke-width:0.5;" x1="1134.5" x2="1375.5" y1="1471.12" y2="1471.12"/><ellipse cx="1144.5" cy="1484.7684" fill="#84BE84" rx="3" ry="3" style="stroke:#038048;stroke-width:1.0;"/><text fill="#000000" font-family="sans-serif" font-size="14" lengthAdjust="spacing" textLength="130" x="1153.5" y="1488.1151">String getReason()</text><ellipse cx="1144.5" cy="1501.0653" fill="#84BE84" rx="3" ry="3" style="stroke:#038048;stroke-width:1.0;"/><text fill="#000000" font-family="sans-serif" font-size="14" lengthAdjust="spacing" textLength="217" x="1153.5" y="1504.412">Number getOverflowIndication()</text></g><!--class SewerIndicationUseCase--><g id="elem_SewerIndicationUseCase"><rect codeLine="96" fill="#F1F1F1" height="64.2969" id="SewerIndicationUseCase" rx="2.5" ry="2.5" style="stroke:#181818;stroke-width:0.5;" width="203" x="642.5" y="515.6"/><ellipse cx="657.5" cy="531.6" fill="#ADD1B2" rx="11" ry="11" style="stroke:#181818;stroke-width:1.0;"/><path d="M660.4688,537.2406 Q659.8906,537.5375 659.25,537.6781 Q658.6094,537.8344 657.9063,537.8344 Q655.4063,537.8344 654.0781,536.1937 Q652.7656,534.5375 652.7656,531.4125 Q652.7656,528.2875 654.0781,526.6312 Q655.4063,524.975 657.9063,524.975 Q658.6094,524.975 659.25,525.1312 Q659.9063,525.2875 660.4688,525.5844 L660.4688,528.3031 Q659.8438,527.725 659.25,527.4594 Q658.6563,527.1781 658.0313,527.1781 Q656.6875,527.1781 656,528.2562 Q655.3125,529.3187 655.3125,531.4125 Q655.3125,533.5062 656,534.5844 Q656.6875,535.6469 658.0313,535.6469 Q658.6563,535.6469 659.25,535.3812 Q659.8438,535.1 660.4688,534.5219 L660.4688,537.2406 Z " fill="#000000"/><text fill="#000000" font-family="sans-serif" font-size="14" lengthAdjust="spacing" textLength="171" x="671.5" y="536.4467">SewerIndicationUseCase</text><line style="stroke:#181818;stroke-width:0.5;" x1="643.5" x2="844.5" y1="547.6" y2="547.6"/><line style="stroke:#181818;stroke-width:0.5;" x1="643.5" x2="844.5" y1="555.6" y2="555.6"/><ellipse cx="653.5" cy="569.2484" fill="#84BE84" rx="3" ry="3" style="stroke:#038048;stroke-width:1.0;"/><text fill="#000000" font-family="sans-serif" font-size="14" lengthAdjust="spacing" textLength="120" x="662.5" y="572.5951">void serve(String)</text></g><!--class SewerObservationUseCase--><g id="elem_SewerObservationUseCase"><rect codeLine="99" fill="#F1F1F1" height="64.2969" id="SewerObservationUseCase" rx="2.5" ry="2.5" style="stroke:#181818;stroke-width:0.5;" width="220" x="1667" y="697.89"/><ellipse cx="1682" cy="713.89" fill="#ADD1B2" rx="11" ry="11" style="stroke:#181818;stroke-width:1.0;"/><path d="M1684.9688,719.5306 Q1684.3906,719.8275 1683.75,719.9681 Q1683.1094,720.1244 1682.4063,720.1244 Q1679.9063,720.1244 1678.5781,718.4837 Q1677.2656,716.8275 1677.2656,713.7025 Q1677.2656,710.5775 1678.5781,708.9212 Q1679.9063,707.265 1682.4063,707.265 Q1683.1094,707.265 1683.75,707.4212 Q1684.4063,707.5775 1684.9688,707.8744 L1684.9688,710.5931 Q1684.3438,710.015 1683.75,709.7494 Q1683.1563,709.4681 1682.5313,709.4681 Q1681.1875,709.4681 1680.5,710.5462 Q1679.8125,711.6087 1679.8125,713.7025 Q1679.8125,715.7962 1680.5,716.8744 Q1681.1875,717.9369 1682.5313,717.9369 Q1683.1563,717.9369 1683.75,717.6712 Q1684.3438,717.39 1684.9688,716.8119 L1684.9688,719.5306 Z " fill="#000000"/><text fill="#000000" font-family="sans-serif" font-size="14" lengthAdjust="spacing" textLength="188" x="1696" y="718.7367">SewerObservationUseCase</text><line style="stroke:#181818;stroke-width:0.5;" x1="1668" x2="1886" y1="729.89" y2="729.89"/><line style="stroke:#181818;stroke-width:0.5;" x1="1668" x2="1886" y1="737.89" y2="737.89"/><ellipse cx="1678" cy="751.5384" fill="#84BE84" rx="3" ry="3" style="stroke:#038048;stroke-width:1.0;"/><text fill="#000000" font-family="sans-serif" font-size="14" lengthAdjust="spacing" textLength="182" x="1687" y="754.8851">Set&lt;Sewer&gt; serve(String)</text></g><!--class SewersUseCase--><g id="elem_SewersUseCase"><rect codeLine="102" fill="#F1F1F1" height="80.5938" id="SewersUseCase" rx="2.5" ry="2.5" style="stroke:#181818;stroke-width:0.5;" width="222" x="1666" y="1599.86"/><ellipse cx="1716.25" cy="1615.86" fill="#B4A7E5" rx="11" ry="11" style="stroke:#181818;stroke-width:1.0;"/><path d="M1712.1719,1611.6256 L1712.1719,1609.4694 L1719.5625,1609.4694 L1719.5625,1611.6256 L1717.0938,1611.6256 L1717.0938,1619.7038 L1719.5625,1619.7038 L1719.5625,1621.86 L1712.1719,1621.86 L1712.1719,1619.7038 L1714.6406,1619.7038 L1714.6406,1611.6256 L1712.1719,1611.6256 Z " fill="#000000"/><text fill="#000000" font-family="sans-serif" font-size="14" font-style="italic" lengthAdjust="spacing" textLength="113" x="1736.75" y="1620.7067">SewersUseCase</text><line style="stroke:#181818;stroke-width:0.5;" x1="1667" x2="1887" y1="1631.86" y2="1631.86"/><line style="stroke:#181818;stroke-width:0.5;" x1="1667" x2="1887" y1="1639.86" y2="1639.86"/><ellipse cx="1677" cy="1653.5084" fill="#84BE84" rx="3" ry="3" style="stroke:#038048;stroke-width:1.0;"/><text fill="#000000" font-family="sans-serif" font-size="14" font-style="italic" lengthAdjust="spacing" textLength="196" x="1686" y="1656.8551">Set&lt;Object&gt; observe(UUID)</text><ellipse cx="1677" cy="1669.8053" fill="#84BE84" rx="3" ry="3" style="stroke:#038048;stroke-width:1.0;"/><text fill="#000000" font-family="sans-serif" font-size="14" font-style="italic" lengthAdjust="spacing" textLength="183" x="1686" y="1673.152">void indicate(UUID, Object)</text></g><!--class SewersUseCaseBridge--><g id="elem_SewersUseCaseBridge"><rect codeLine="106" fill="#F1F1F1" height="80.5938" id="SewersUseCaseBridge" rx="2.5" ry="2.5" style="stroke:#181818;stroke-width:0.5;" width="220" x="1666" y="1431.12"/><ellipse cx="1694.5" cy="1447.12" fill="#ADD1B2" rx="11" ry="11" style="stroke:#181818;stroke-width:1.0;"/><path d="M1697.4688,1452.7606 Q1696.8906,1453.0575 1696.25,1453.1981 Q1695.6094,1453.3544 1694.9063,1453.3544 Q1692.4063,1453.3544 1691.0781,1451.7138 Q1689.7656,1450.0575 1689.7656,1446.9325 Q1689.7656,1443.8075 1691.0781,1442.1513 Q1692.4063,1440.495 1694.9063,1440.495 Q1695.6094,1440.495 1696.25,1440.6513 Q1696.9063,1440.8075 1697.4688,1441.1044 L1697.4688,1443.8231 Q1696.8438,1443.245 1696.25,1442.9794 Q1695.6563,1442.6981 1695.0313,1442.6981 Q1693.6875,1442.6981 1693,1443.7763 Q1692.3125,1444.8388 1692.3125,1446.9325 Q1692.3125,1449.0263 1693,1450.1044 Q1693.6875,1451.1669 1695.0313,1451.1669 Q1695.6563,1451.1669 1696.25,1450.9013 Q1696.8438,1450.62 1697.4688,1450.0419 L1697.4688,1452.7606 Z " fill="#000000"/><text fill="#000000" font-family="sans-serif" font-size="14" lengthAdjust="spacing" textLength="158" x="1711.5" y="1451.9667">SewersUseCaseBridge</text><line style="stroke:#181818;stroke-width:0.5;" x1="1667" x2="1885" y1="1463.12" y2="1463.12"/><line style="stroke:#181818;stroke-width:0.5;" x1="1667" x2="1885" y1="1471.12" y2="1471.12"/><ellipse cx="1677" cy="1484.7684" fill="#84BE84" rx="3" ry="3" style="stroke:#038048;stroke-width:1.0;"/><text fill="#000000" font-family="sans-serif" font-size="14" lengthAdjust="spacing" textLength="194" x="1686" y="1488.1151">Set&lt;Sewer&gt; observe(UUID)</text><ellipse cx="1677" cy="1501.0653" fill="#84BE84" rx="3" ry="3" style="stroke:#038048;stroke-width:1.0;"/><text fill="#000000" font-family="sans-serif" font-size="14" lengthAdjust="spacing" textLength="139" x="1686" y="1504.412">void indicate(Sewer)</text></g><!--class JSONRainfallIndicationDriver--><g id="elem_JSONRainfallIndicationDriver"><rect codeLine="110" fill="#F1F1F1" height="64.2969" id="JSONRainfallIndicationDriver" rx="2.5" ry="2.5" style="stroke:#181818;stroke-width:0.5;" width="219" x="666.5" y="127"/><ellipse cx="681.5" cy="143" fill="#ADD1B2" rx="11" ry="11" style="stroke:#181818;stroke-width:1.0;"/><path d="M684.4688,148.6406 Q683.8906,148.9375 683.25,149.0781 Q682.6094,149.2344 681.9063,149.2344 Q679.4063,149.2344 678.0781,147.5938 Q676.7656,145.9375 676.7656,142.8125 Q676.7656,139.6875 678.0781,138.0313 Q679.4063,136.375 681.9063,136.375 Q682.6094,136.375 683.25,136.5313 Q683.9063,136.6875 684.4688,136.9844 L684.4688,139.7031 Q683.8438,139.125 683.25,138.8594 Q682.6563,138.5781 682.0313,138.5781 Q680.6875,138.5781 680,139.6563 Q679.3125,140.7188 679.3125,142.8125 Q679.3125,144.9063 680,145.9844 Q680.6875,147.0469 682.0313,147.0469 Q682.6563,147.0469 683.25,146.7813 Q683.8438,146.5 684.4688,145.9219 L684.4688,148.6406 Z " fill="#000000"/><text fill="#000000" font-family="sans-serif" font-size="14" lengthAdjust="spacing" textLength="187" x="695.5" y="147.8467">JSONRainfallIndicationDriver</text><line style="stroke:#181818;stroke-width:0.5;" x1="667.5" x2="884.5" y1="159" y2="159"/><line style="stroke:#181818;stroke-width:0.5;" x1="667.5" x2="884.5" y1="167" y2="167"/><ellipse cx="677.5" cy="180.6484" fill="#84BE84" rx="3" ry="3" style="stroke:#038048;stroke-width:1.0;"/><text fill="#000000" font-family="sans-serif" font-size="14" lengthAdjust="spacing" textLength="120" x="686.5" y="183.9951">void serve(String)</text></g><!--class PdfPumpPowerConsumptionIndicationDriver--><g id="elem_PdfPumpPowerConsumptionIndicationDriver"><rect codeLine="113" fill="#F1F1F1" height="64.2969" id="PdfPumpPowerConsumptionIndicationDriver" rx="2.5" ry="2.5" style="stroke:#181818;stroke-width:0.5;" width="336" x="46" y="127"/><ellipse cx="61" cy="143" fill="#ADD1B2" rx="11" ry="11" style="stroke:#181818;stroke-width:1.0;"/><path d="M63.9688,148.6406 Q63.3906,148.9375 62.75,149.0781 Q62.1094,149.2344 61.4063,149.2344 Q58.9063,149.2344 57.5781,147.5938 Q56.2656,145.9375 56.2656,142.8125 Q56.2656,139.6875 57.5781,138.0313 Q58.9063,136.375 61.4063,136.375 Q62.1094,136.375 62.75,136.5313 Q63.4063,136.6875 63.9688,136.9844 L63.9688,139.7031 Q63.3438,139.125 62.75,138.8594 Q62.1563,138.5781 61.5313,138.5781 Q60.1875,138.5781 59.5,139.6563 Q58.8125,140.7188 58.8125,142.8125 Q58.8125,144.9063 59.5,145.9844 Q60.1875,147.0469 61.5313,147.0469 Q62.1563,147.0469 62.75,146.7813 Q63.3438,146.5 63.9688,145.9219 L63.9688,148.6406 Z " fill="#000000"/><text fill="#000000" font-family="sans-serif" font-size="14" lengthAdjust="spacing" textLength="304" x="75" y="147.8467">PdfPumpPowerConsumptionIndicationDriver</text><line style="stroke:#181818;stroke-width:0.5;" x1="47" x2="381" y1="159" y2="159"/><line style="stroke:#181818;stroke-width:0.5;" x1="47" x2="381" y1="167" y2="167"/><ellipse cx="57" cy="180.6484" fill="#84BE84" rx="3" ry="3" style="stroke:#038048;stroke-width:1.0;"/><text fill="#000000" font-family="sans-serif" font-size="14" lengthAdjust="spacing" textLength="120" x="66" y="183.9951">void serve(String)</text></g><!--class XMLRainfallIndicationDriver--><g id="elem_XMLRainfallIndicationDriver"><rect codeLine="116" fill="#F1F1F1" height="64.2969" id="XMLRainfallIndicationDriver" rx="2.5" ry="2.5" style="stroke:#181818;stroke-width:0.5;" width="214" x="417" y="127"/><ellipse cx="432" cy="143" fill="#ADD1B2" rx="11" ry="11" style="stroke:#181818;stroke-width:1.0;"/><path d="M434.9688,148.6406 Q434.3906,148.9375 433.75,149.0781 Q433.1094,149.2344 432.4063,149.2344 Q429.9063,149.2344 428.5781,147.5938 Q427.2656,145.9375 427.2656,142.8125 Q427.2656,139.6875 428.5781,138.0313 Q429.9063,136.375 432.4063,136.375 Q433.1094,136.375 433.75,136.5313 Q434.4063,136.6875 434.9688,136.9844 L434.9688,139.7031 Q434.3438,139.125 433.75,138.8594 Q433.1563,138.5781 432.5313,138.5781 Q431.1875,138.5781 430.5,139.6563 Q429.8125,140.7188 429.8125,142.8125 Q429.8125,144.9063 430.5,145.9844 Q431.1875,147.0469 432.5313,147.0469 Q433.1563,147.0469 433.75,146.7813 Q434.3438,146.5 434.9688,145.9219 L434.9688,148.6406 Z " fill="#000000"/><text fill="#000000" font-family="sans-serif" font-size="14" lengthAdjust="spacing" textLength="182" x="446" y="147.8467">XMLRainfallIndicationDriver</text><line style="stroke:#181818;stroke-width:0.5;" x1="418" x2="630" y1="159" y2="159"/><line style="stroke:#181818;stroke-width:0.5;" x1="418" x2="630" y1="167" y2="167"/><ellipse cx="428" cy="180.6484" fill="#84BE84" rx="3" ry="3" style="stroke:#038048;stroke-width:1.0;"/><text fill="#000000" font-family="sans-serif" font-size="14" lengthAdjust="spacing" textLength="120" x="437" y="183.9951">void serve(String)</text></g><!--class DynamoSewersDriver--><g id="elem_DynamoSewersDriver"><rect codeLine="119" fill="#F1F1F1" height="80.5938" id="DynamoSewersDriver" rx="2.5" ry="2.5" style="stroke:#181818;stroke-width:0.5;" width="222" x="1105" y="2341.24"/><ellipse cx="1138.9" cy="2357.24" fill="#ADD1B2" rx="11" ry="11" style="stroke:#181818;stroke-width:1.0;"/><path d="M1141.8688,2362.8806 Q1141.2906,2363.1775 1140.65,2363.3181 Q1140.0094,2363.4744 1139.3063,2363.4744 Q1136.8063,2363.4744 1135.4781,2361.8338 Q1134.1656,2360.1775 1134.1656,2357.0525 Q1134.1656,2353.9275 1135.4781,2352.2713 Q1136.8063,2350.615 1139.3063,2350.615 Q1140.0094,2350.615 1140.65,2350.7713 Q1141.3063,2350.9275 1141.8688,2351.2244 L1141.8688,2353.9431 Q1141.2438,2353.365 1140.65,2353.0994 Q1140.0563,2352.8181 1139.4313,2352.8181 Q1138.0875,2352.8181 1137.4,2353.8963 Q1136.7125,2354.9588 1136.7125,2357.0525 Q1136.7125,2359.1463 1137.4,2360.2244 Q1138.0875,2361.2869 1139.4313,2361.2869 Q1140.0563,2361.2869 1140.65,2361.0213 Q1141.2438,2360.74 1141.8688,2360.1619 L1141.8688,2362.8806 Z " fill="#000000"/><text fill="#000000" font-family="sans-serif" font-size="14" lengthAdjust="spacing" textLength="148" x="1157.1" y="2362.0867">DynamoSewersDriver</text><line style="stroke:#181818;stroke-width:0.5;" x1="1106" x2="1326" y1="2373.24" y2="2373.24"/><line style="stroke:#181818;stroke-width:0.5;" x1="1106" x2="1326" y1="2381.24" y2="2381.24"/><ellipse cx="1116" cy="2394.8884" fill="#84BE84" rx="3" ry="3" style="stroke:#038048;stroke-width:1.0;"/><text fill="#000000" font-family="sans-serif" font-size="14" lengthAdjust="spacing" textLength="196" x="1125" y="2398.2351">Set&lt;Object&gt; observe(UUID)</text><ellipse cx="1116" cy="2411.1853" fill="#84BE84" rx="3" ry="3" style="stroke:#038048;stroke-width:1.0;"/><text fill="#000000" font-family="sans-serif" font-size="14" lengthAdjust="spacing" textLength="183" x="1125" y="2414.532">void indicate(UUID, Object)</text></g><!--class S3SewersDriver--><g id="elem_S3SewersDriver"><rect codeLine="123" fill="#F1F1F1" height="80.5938" id="S3SewersDriver" rx="2.5" ry="2.5" style="stroke:#181818;stroke-width:0.5;" width="222" x="1383" y="2341.24"/><ellipse cx="1435.25" cy="2357.24" fill="#ADD1B2" rx="11" ry="11" style="stroke:#181818;stroke-width:1.0;"/><path d="M1438.2188,2362.8806 Q1437.6406,2363.1775 1437,2363.3181 Q1436.3594,2363.4744 1435.6563,2363.4744 Q1433.1563,2363.4744 1431.8281,2361.8338 Q1430.5156,2360.1775 1430.5156,2357.0525 Q1430.5156,2353.9275 1431.8281,2352.2713 Q1433.1563,2350.615 1435.6563,2350.615 Q1436.3594,2350.615 1437,2350.7713 Q1437.6563,2350.9275 1438.2188,2351.2244 L1438.2188,2353.9431 Q1437.5938,2353.365 1437,2353.0994 Q1436.4063,2352.8181 1435.7813,2352.8181 Q1434.4375,2352.8181 1433.75,2353.8963 Q1433.0625,2354.9588 1433.0625,2357.0525 Q1433.0625,2359.1463 1433.75,2360.2244 Q1434.4375,2361.2869 1435.7813,2361.2869 Q1436.4063,2361.2869 1437,2361.0213 Q1437.5938,2360.74 1438.2188,2360.1619 L1438.2188,2362.8806 Z " fill="#000000"/><text fill="#000000" font-family="sans-serif" font-size="14" lengthAdjust="spacing" textLength="109" x="1455.75" y="2362.0867">S3SewersDriver</text><line style="stroke:#181818;stroke-width:0.5;" x1="1384" x2="1604" y1="2373.24" y2="2373.24"/><line style="stroke:#181818;stroke-width:0.5;" x1="1384" x2="1604" y1="2381.24" y2="2381.24"/><ellipse cx="1394" cy="2394.8884" fill="#84BE84" rx="3" ry="3" style="stroke:#038048;stroke-width:1.0;"/><text fill="#000000" font-family="sans-serif" font-size="14" lengthAdjust="spacing" textLength="196" x="1403" y="2398.2351">Set&lt;Object&gt; observe(UUID)</text><ellipse cx="1394" cy="2411.1853" fill="#84BE84" rx="3" ry="3" style="stroke:#038048;stroke-width:1.0;"/><text fill="#000000" font-family="sans-serif" font-size="14" lengthAdjust="spacing" textLength="183" x="1403" y="2414.532">void indicate(UUID, Object)</text></g><!--class FileSewersDriver--><g id="elem_FileSewersDriver"><rect codeLine="127" fill="#F1F1F1" height="80.5938" id="FileSewersDriver" rx="2.5" ry="2.5" style="stroke:#181818;stroke-width:0.5;" width="222" x="1685" y="2341.24"/><ellipse cx="1734.75" cy="2357.24" fill="#ADD1B2" rx="11" ry="11" style="stroke:#181818;stroke-width:1.0;"/><path d="M1737.7188,2362.8806 Q1737.1406,2363.1775 1736.5,2363.3181 Q1735.8594,2363.4744 1735.1563,2363.4744 Q1732.6563,2363.4744 1731.3281,2361.8338 Q1730.0156,2360.1775 1730.0156,2357.0525 Q1730.0156,2353.9275 1731.3281,2352.2713 Q1732.6563,2350.615 1735.1563,2350.615 Q1735.8594,2350.615 1736.5,2350.7713 Q1737.1563,2350.9275 1737.7188,2351.2244 L1737.7188,2353.9431 Q1737.0938,2353.365 1736.5,2353.0994 Q1735.9063,2352.8181 1735.2813,2352.8181 Q1733.9375,2352.8181 1733.25,2353.8963 Q1732.5625,2354.9588 1732.5625,2357.0525 Q1732.5625,2359.1463 1733.25,2360.2244 Q1733.9375,2361.2869 1735.2813,2361.2869 Q1735.9063,2361.2869 1736.5,2361.0213 Q1737.0938,2360.74 1737.7188,2360.1619 L1737.7188,2362.8806 Z " fill="#000000"/><text fill="#000000" font-family="sans-serif" font-size="14" lengthAdjust="spacing" textLength="114" x="1755.25" y="2362.0867">FileSewersDriver</text><line style="stroke:#181818;stroke-width:0.5;" x1="1686" x2="1906" y1="2373.24" y2="2373.24"/><line style="stroke:#181818;stroke-width:0.5;" x1="1686" x2="1906" y1="2381.24" y2="2381.24"/><ellipse cx="1696" cy="2394.8884" fill="#84BE84" rx="3" ry="3" style="stroke:#038048;stroke-width:1.0;"/><text fill="#000000" font-family="sans-serif" font-size="14" lengthAdjust="spacing" textLength="196" x="1705" y="2398.2351">Set&lt;Object&gt; observe(UUID)</text><ellipse cx="1696" cy="2411.1853" fill="#84BE84" rx="3" ry="3" style="stroke:#038048;stroke-width:1.0;"/><text fill="#000000" font-family="sans-serif" font-size="14" lengthAdjust="spacing" textLength="183" x="1705" y="2414.532">void indicate(UUID, Object)</text></g><!--class SewersDriverOrchestrator--><g id="elem_SewersDriverOrchestrator"><rect codeLine="131" fill="#F1F1F1" height="80.5938" id="SewersDriverOrchestrator" rx="2.5" ry="2.5" style="stroke:#181818;stroke-width:0.5;" width="222" x="1685" y="2142.64"/><ellipse cx="1705.4" cy="2158.64" fill="#ADD1B2" rx="11" ry="11" style="stroke:#181818;stroke-width:1.0;"/><path d="M1708.3688,2164.2806 Q1707.7906,2164.5775 1707.15,2164.7181 Q1706.5094,2164.8744 1705.8063,2164.8744 Q1703.3063,2164.8744 1701.9781,2163.2338 Q1700.6656,2161.5775 1700.6656,2158.4525 Q1700.6656,2155.3275 1701.9781,2153.6713 Q1703.3063,2152.015 1705.8063,2152.015 Q1706.5094,2152.015 1707.15,2152.1713 Q1707.8063,2152.3275 1708.3688,2152.6244 L1708.3688,2155.3431 Q1707.7438,2154.765 1707.15,2154.4994 Q1706.5563,2154.2181 1705.9313,2154.2181 Q1704.5875,2154.2181 1703.9,2155.2963 Q1703.2125,2156.3588 1703.2125,2158.4525 Q1703.2125,2160.5463 1703.9,2161.6244 Q1704.5875,2162.6869 1705.9313,2162.6869 Q1706.5563,2162.6869 1707.15,2162.4213 Q1707.7438,2162.14 1708.3688,2161.5619 L1708.3688,2164.2806 Z " fill="#000000"/><text fill="#000000" font-family="sans-serif" font-size="14" lengthAdjust="spacing" textLength="178" x="1720.6" y="2163.4867">SewersDriverOrchestrator</text><line style="stroke:#181818;stroke-width:0.5;" x1="1686" x2="1906" y1="2174.64" y2="2174.64"/><line style="stroke:#181818;stroke-width:0.5;" x1="1686" x2="1906" y1="2182.64" y2="2182.64"/><ellipse cx="1696" cy="2196.2884" fill="#84BE84" rx="3" ry="3" style="stroke:#038048;stroke-width:1.0;"/><text fill="#000000" font-family="sans-serif" font-size="14" lengthAdjust="spacing" textLength="196" x="1705" y="2199.6351">Set&lt;Object&gt; observe(UUID)</text><ellipse cx="1696" cy="2212.5853" fill="#84BE84" rx="3" ry="3" style="stroke:#038048;stroke-width:1.0;"/><text fill="#000000" font-family="sans-serif" font-size="14" lengthAdjust="spacing" textLength="183" x="1705" y="2215.932">void indicate(UUID, Object)</text></g><!--class PanacheSewersDriver--><g id="elem_PanacheSewersDriver"><rect codeLine="135" fill="#F1F1F1" height="80.5938" id="PanacheSewersDriver" rx="2.5" ry="2.5" style="stroke:#181818;stroke-width:0.5;" width="222" x="1963" y="2341.24"/><ellipse cx="1995.55" cy="2357.24" fill="#ADD1B2" rx="11" ry="11" style="stroke:#181818;stroke-width:1.0;"/><path d="M1998.5188,2362.8806 Q1997.9406,2363.1775 1997.3,2363.3181 Q1996.6594,2363.4744 1995.9563,2363.4744 Q1993.4563,2363.4744 1992.1281,2361.8338 Q1990.8156,2360.1775 1990.8156,2357.0525 Q1990.8156,2353.9275 1992.1281,2352.2713 Q1993.4563,2350.615 1995.9563,2350.615 Q1996.6594,2350.615 1997.3,2350.7713 Q1997.9563,2350.9275 1998.5188,2351.2244 L1998.5188,2353.9431 Q1997.8938,2353.365 1997.3,2353.0994 Q1996.7063,2352.8181 1996.0813,2352.8181 Q1994.7375,2352.8181 1994.05,2353.8963 Q1993.3625,2354.9588 1993.3625,2357.0525 Q1993.3625,2359.1463 1994.05,2360.2244 Q1994.7375,2361.2869 1996.0813,2361.2869 Q1996.7063,2361.2869 1997.3,2361.0213 Q1997.8938,2360.74 1998.5188,2360.1619 L1998.5188,2362.8806 Z " fill="#000000"/><text fill="#000000" font-family="sans-serif" font-size="14" lengthAdjust="spacing" textLength="151" x="2013.45" y="2362.0867">PanacheSewersDriver</text><line style="stroke:#181818;stroke-width:0.5;" x1="1964" x2="2184" y1="2373.24" y2="2373.24"/><line style="stroke:#181818;stroke-width:0.5;" x1="1964" x2="2184" y1="2381.24" y2="2381.24"/><ellipse cx="1974" cy="2394.8884" fill="#84BE84" rx="3" ry="3" style="stroke:#038048;stroke-width:1.0;"/><text fill="#000000" font-family="sans-serif" font-size="14" lengthAdjust="spacing" textLength="196" x="1983" y="2398.2351">Set&lt;Object&gt; observe(UUID)</text><ellipse cx="1974" cy="2411.1853" fill="#84BE84" rx="3" ry="3" style="stroke:#038048;stroke-width:1.0;"/><text fill="#000000" font-family="sans-serif" font-size="14" lengthAdjust="spacing" textLength="183" x="1983" y="2414.532">void indicate(UUID, Object)</text></g><!--class FlowIndicationResourceDriver--><g id="elem_FlowIndicationResourceDriver"><rect codeLine="139" fill="#F1F1F1" height="64.2969" id="FlowIndicationResourceDriver" rx="2.5" ry="2.5" style="stroke:#181818;stroke-width:0.5;" width="236" x="1671" y="127"/><ellipse cx="1686" cy="143" fill="#ADD1B2" rx="11" ry="11" style="stroke:#181818;stroke-width:1.0;"/><path d="M1688.9688,148.6406 Q1688.3906,148.9375 1687.75,149.0781 Q1687.1094,149.2344 1686.4063,149.2344 Q1683.9063,149.2344 1682.5781,147.5938 Q1681.2656,145.9375 1681.2656,142.8125 Q1681.2656,139.6875 1682.5781,138.0313 Q1683.9063,136.375 1686.4063,136.375 Q1687.1094,136.375 1687.75,136.5313 Q1688.4063,136.6875 1688.9688,136.9844 L1688.9688,139.7031 Q1688.3438,139.125 1687.75,138.8594 Q1687.1563,138.5781 1686.5313,138.5781 Q1685.1875,138.5781 1684.5,139.6563 Q1683.8125,140.7188 1683.8125,142.8125 Q1683.8125,144.9063 1684.5,145.9844 Q1685.1875,147.0469 1686.5313,147.0469 Q1687.1563,147.0469 1687.75,146.7813 Q1688.3438,146.5 1688.9688,145.9219 L1688.9688,148.6406 Z " fill="#000000"/><text fill="#000000" font-family="sans-serif" font-size="14" lengthAdjust="spacing" textLength="204" x="1700" y="147.8467">FlowIndicationResourceDriver</text><line style="stroke:#181818;stroke-width:0.5;" x1="1672" x2="1906" y1="159" y2="159"/><line style="stroke:#181818;stroke-width:0.5;" x1="1672" x2="1906" y1="167" y2="167"/><ellipse cx="1682" cy="180.6484" fill="#84BE84" rx="3" ry="3" style="stroke:#038048;stroke-width:1.0;"/><text fill="#000000" font-family="sans-serif" font-size="14" lengthAdjust="spacing" textLength="120" x="1691" y="183.9951">void serve(String)</text></g><!--class PumpPowerConsumptionIndicationResourceDriver--><g id="elem_PumpPowerConsumptionIndicationResourceDriver"><rect codeLine="142" fill="#F1F1F1" height="64.2969" id="PumpPowerConsumptionIndicationResourceDriver" rx="2.5" ry="2.5" style="stroke:#181818;stroke-width:0.5;" width="381" x="966.5" y="127"/><ellipse cx="981.5" cy="143" fill="#ADD1B2" rx="11" ry="11" style="stroke:#181818;stroke-width:1.0;"/><path d="M984.4688,148.6406 Q983.8906,148.9375 983.25,149.0781 Q982.6094,149.2344 981.9063,149.2344 Q979.4063,149.2344 978.0781,147.5938 Q976.7656,145.9375 976.7656,142.8125 Q976.7656,139.6875 978.0781,138.0313 Q979.4063,136.375 981.9063,136.375 Q982.6094,136.375 983.25,136.5313 Q983.9063,136.6875 984.4688,136.9844 L984.4688,139.7031 Q983.8438,139.125 983.25,138.8594 Q982.6563,138.5781 982.0313,138.5781 Q980.6875,138.5781 980,139.6563 Q979.3125,140.7188 979.3125,142.8125 Q979.3125,144.9063 980,145.9844 Q980.6875,147.0469 982.0313,147.0469 Q982.6563,147.0469 983.25,146.7813 Q983.8438,146.5 984.4688,145.9219 L984.4688,148.6406 Z " fill="#000000"/><text fill="#000000" font-family="sans-serif" font-size="14" lengthAdjust="spacing" textLength="349" x="995.5" y="147.8467">PumpPowerConsumptionIndicationResourceDriver</text><line style="stroke:#181818;stroke-width:0.5;" x1="967.5" x2="1346.5" y1="159" y2="159"/><line style="stroke:#181818;stroke-width:0.5;" x1="967.5" x2="1346.5" y1="167" y2="167"/><ellipse cx="977.5" cy="180.6484" fill="#84BE84" rx="3" ry="3" style="stroke:#038048;stroke-width:1.0;"/><text fill="#000000" font-family="sans-serif" font-size="14" lengthAdjust="spacing" textLength="120" x="986.5" y="183.9951">void serve(String)</text></g><!--class RainfallIndicationResourceDriver--><g id="elem_RainfallIndicationResourceDriver"><rect codeLine="145" fill="#F1F1F1" height="64.2969" id="RainfallIndicationResourceDriver" rx="2.5" ry="2.5" style="stroke:#181818;stroke-width:0.5;" width="253" x="1382.5" y="127"/><ellipse cx="1397.5" cy="143" fill="#ADD1B2" rx="11" ry="11" style="stroke:#181818;stroke-width:1.0;"/><path d="M1400.4688,148.6406 Q1399.8906,148.9375 1399.25,149.0781 Q1398.6094,149.2344 1397.9063,149.2344 Q1395.4063,149.2344 1394.0781,147.5938 Q1392.7656,145.9375 1392.7656,142.8125 Q1392.7656,139.6875 1394.0781,138.0313 Q1395.4063,136.375 1397.9063,136.375 Q1398.6094,136.375 1399.25,136.5313 Q1399.9063,136.6875 1400.4688,136.9844 L1400.4688,139.7031 Q1399.8438,139.125 1399.25,138.8594 Q1398.6563,138.5781 1398.0313,138.5781 Q1396.6875,138.5781 1396,139.6563 Q1395.3125,140.7188 1395.3125,142.8125 Q1395.3125,144.9063 1396,145.9844 Q1396.6875,147.0469 1398.0313,147.0469 Q1398.6563,147.0469 1399.25,146.7813 Q1399.8438,146.5 1400.4688,145.9219 L1400.4688,148.6406 Z " fill="#000000"/><text fill="#000000" font-family="sans-serif" font-size="14" lengthAdjust="spacing" textLength="221" x="1411.5" y="147.8467">RainfallIndicationResourceDriver</text><line style="stroke:#181818;stroke-width:0.5;" x1="1383.5" x2="1634.5" y1="159" y2="159"/><line style="stroke:#181818;stroke-width:0.5;" x1="1383.5" x2="1634.5" y1="167" y2="167"/><ellipse cx="1393.5" cy="180.6484" fill="#84BE84" rx="3" ry="3" style="stroke:#038048;stroke-width:1.0;"/><text fill="#000000" font-family="sans-serif" font-size="14" lengthAdjust="spacing" textLength="120" x="1402.5" y="183.9951">void serve(String)</text></g><!--class ObservationResourceDriver--><g id="elem_ObservationResourceDriver"><rect codeLine="148" fill="#F1F1F1" height="64.2969" id="ObservationResourceDriver" rx="2.5" ry="2.5" style="stroke:#181818;stroke-width:0.5;" width="222" x="1963" y="127"/><ellipse cx="1978" cy="143" fill="#ADD1B2" rx="11" ry="11" style="stroke:#181818;stroke-width:1.0;"/><path d="M1980.9688,148.6406 Q1980.3906,148.9375 1979.75,149.0781 Q1979.1094,149.2344 1978.4063,149.2344 Q1975.9063,149.2344 1974.5781,147.5938 Q1973.2656,145.9375 1973.2656,142.8125 Q1973.2656,139.6875 1974.5781,138.0313 Q1975.9063,136.375 1978.4063,136.375 Q1979.1094,136.375 1979.75,136.5313 Q1980.4063,136.6875 1980.9688,136.9844 L1980.9688,139.7031 Q1980.3438,139.125 1979.75,138.8594 Q1979.1563,138.5781 1978.5313,138.5781 Q1977.1875,138.5781 1976.5,139.6563 Q1975.8125,140.7188 1975.8125,142.8125 Q1975.8125,144.9063 1976.5,145.9844 Q1977.1875,147.0469 1978.5313,147.0469 Q1979.1563,147.0469 1979.75,146.7813 Q1980.3438,146.5 1980.9688,145.9219 L1980.9688,148.6406 Z " fill="#000000"/><text fill="#000000" font-family="sans-serif" font-size="14" lengthAdjust="spacing" textLength="190" x="1992" y="147.8467">ObservationResourceDriver</text><line style="stroke:#181818;stroke-width:0.5;" x1="1964" x2="2184" y1="159" y2="159"/><line style="stroke:#181818;stroke-width:0.5;" x1="1964" x2="2184" y1="167" y2="167"/><ellipse cx="1974" cy="180.6484" fill="#84BE84" rx="3" ry="3" style="stroke:#038048;stroke-width:1.0;"/><text fill="#000000" font-family="sans-serif" font-size="14" lengthAdjust="spacing" textLength="132" x="1983" y="183.9951">String serve(String)</text></g><!--class PanacheRepository--><g id="elem_PanacheRepository"><rect codeLine="151" fill="#F1F1F1" height="48" id="PanacheRepository" rx="2.5" ry="2.5" style="stroke:#181818;stroke-width:0.5;" width="205" x="2314.5" y="135.15"/><ellipse cx="2329.5" cy="151.15" fill="#B4A7E5" rx="11" ry="11" style="stroke:#181818;stroke-width:1.0;"/><path d="M2325.4219,146.9156 L2325.4219,144.7594 L2332.8125,144.7594 L2332.8125,146.9156 L2330.3438,146.9156 L2330.3438,154.9938 L2332.8125,154.9938 L2332.8125,157.15 L2325.4219,157.15 L2325.4219,154.9938 L2327.8906,154.9938 L2327.8906,146.9156 L2325.4219,146.9156 Z " fill="#000000"/><text fill="#000000" font-family="sans-serif" font-size="14" font-style="italic" lengthAdjust="spacing" textLength="134" x="2343.5" y="155.9967">PanacheRepository</text><rect fill="#FFFFFF" height="15.9688" style="stroke:#181818;stroke-width:1.0;stroke-dasharray:2.0,2.0;" width="37" x="2485.5" y="132.15"/><text fill="#000000" font-family="sans-serif" font-size="12" font-style="italic" lengthAdjust="spacing" textLength="35" x="2486.5" y="144.2887">Entity</text><line style="stroke:#181818;stroke-width:0.5;" x1="2315.5" x2="2518.5" y1="167.15" y2="167.15"/><line style="stroke:#181818;stroke-width:0.5;" x1="2315.5" x2="2518.5" y1="175.15" y2="175.15"/></g><!--link SewerIndicationAdapter to SewerIndicationUseCase--><g id="link_SewerIndicationAdapter_SewerIndicationUseCase"><path codeLine="153" d="M762,398.04 C762,431.12 762,476.04 762,509.13 " fill="none" id="SewerIndicationAdapter-to-SewerIndicationUseCase" style="stroke:#181818;stroke-width:1.0;"/><polygon fill="#181818" points="762,515.13,766,506.13,762,510.13,758,506.13,762,515.13" style="stroke:#181818;stroke-width:1.0;"/></g><!--link SewerObservationAdapter to SewerObservationUseCase--><g id="link_SewerObservationAdapter_SewerObservationUseCase"><path codeLine="154" d="M2021,580.05 C2021,632.61 2021,730.83 2021,730.83 C2021,730.83 1957.88,730.83 1893.22,730.83 " fill="none" id="SewerObservationAdapter-to-SewerObservationUseCase" style="stroke:#181818;stroke-width:1.0;"/><polygon fill="#181818" points="1887.22,730.83,1896.22,734.83,1892.22,730.83,1896.22,726.83,1887.22,730.83" style="stroke:#181818;stroke-width:1.0;"/></g><!--reverse link SewersUseCase to SewersAdapterBridge--><g id="link_SewersUseCase_SewersAdapterBridge"><path codeLine="155" d="M1745,1698.91 C1745,1728.3 1745,1749.81 1745,1779.16 " fill="none" id="SewersUseCase-backto-SewersAdapterBridge" style="stroke:#181818;stroke-width:1.0;stroke-dasharray:7.0,7.0;"/><polygon fill="none" points="1745,1680.91,1739,1698.91,1751,1698.91,1745,1680.91" style="stroke:#181818;stroke-width:1.0;"/></g><!--link SewersAdapterBridge to SewersAdapter--><g id="link_SewersAdapterBridge_SewersAdapter"><path codeLine="156" d="M1713,1860.42 C1713,1879.07 1713,1895.13 1713,1913.77 " fill="none" id="SewersAdapterBridge-to-SewersAdapter" style="stroke:#181818;stroke-width:1.0;"/><polygon fill="#181818" points="1713,1919.77,1717,1910.77,1713,1914.77,1709,1910.77,1713,1919.77" style="stroke:#181818;stroke-width:1.0;"/></g><!--link SewerOverflowIndicationService to SewerOverflowIndicationComponent--><g id="link_SewerOverflowIndicationService_SewerOverflowIndicationComponent"><path codeLine="157" d="M701.25,762.35 C701.25,784.69 701.25,808.31 701.25,830.72 " fill="none" id="SewerOverflowIndicationService-to-SewerOverflowIndicationComponent" style="stroke:#181818;stroke-width:1.0;"/><polygon fill="#181818" points="701.25,836.72,705.25,827.72,701.25,831.72,697.25,827.72,701.25,836.72" style="stroke:#181818;stroke-width:1.0;"/></g><!--link FlowIndicationComponent to Sewers--><g id="link_FlowIndicationComponent_Sewers"><path codeLine="158" d="M1192.95,869.83 C1240.23,869.83 1278.83,869.83 1278.83,869.83 C1278.83,869.83 1278.83,1119.38 1278.83,1220.7 " fill="none" id="FlowIndicationComponent-to-Sewers" style="stroke:#181818;stroke-width:1.0;"/><polygon fill="#181818" points="1278.83,1226.7,1282.83,1217.7,1278.83,1221.7,1274.83,1217.7,1278.83,1226.7" style="stroke:#181818;stroke-width:1.0;"/></g><!--link PumpIndicationComponent to Sewers--><g id="link_PumpIndicationComponent_Sewers"><path codeLine="159" d="M1173.67,1026.11 C1173.67,1076.25 1173.67,1166.39 1173.67,1220.95 " fill="none" id="PumpIndicationComponent-to-Sewers" style="stroke:#181818;stroke-width:1.0;"/><polygon fill="#181818" points="1173.67,1226.95,1177.67,1217.95,1173.67,1221.95,1169.67,1217.95,1173.67,1226.95" style="stroke:#181818;stroke-width:1.0;"/></g><!--link RainShortageIndicationComponent to Sewers--><g id="link_RainShortageIndicationComponent_Sewers"><path codeLine="160" d="M807,1026.2 C807,1063.3 807,1118.83 807,1118.83 C807,1118.83 1154.83,1118.83 1154.83,1118.83 C1154.83,1118.83 1154.83,1176.8 1154.83,1220.79 " fill="none" id="RainShortageIndicationComponent-to-Sewers" style="stroke:#181818;stroke-width:1.0;"/><polygon fill="#181818" points="1154.83,1226.79,1158.83,1217.79,1154.83,1221.79,1150.83,1217.79,1154.83,1226.79" style="stroke:#181818;stroke-width:1.0;"/></g><!--link SewerOverflowIndicationComponent to RainShortageIndicationComponent--><g id="link_SewerOverflowIndicationComponent_RainShortageIndicationComponent"><path codeLine="161" d="M589.17,901.67 C589.17,919.94 589.17,936.72 589.17,955.03 " fill="none" id="SewerOverflowIndicationComponent-to-RainShortageIndicationComponent" style="stroke:#181818;stroke-width:1.0;"/><polygon fill="#181818" points="589.17,961.03,593.17,952.03,589.17,956.03,585.17,952.03,589.17,961.03" style="stroke:#181818;stroke-width:1.0;"/></g><!--link SewerOverflowIndicationComponent to Sewers--><g id="link_SewerOverflowIndicationComponent_Sewers"><path codeLine="162" d="M702.83,901.68 C702.83,916.93 702.83,931.83 702.83,931.83 C702.83,931.83 1235.67,931.83 1235.67,931.83 C1235.67,931.83 1235.67,1131.66 1235.67,1220.9 " fill="none" id="SewerOverflowIndicationComponent-to-Sewers" style="stroke:#181818;stroke-width:1.0;"/><polygon fill="#181818" points="1235.67,1226.9,1239.67,1217.9,1235.67,1221.9,1231.67,1217.9,1235.67,1226.9" style="stroke:#181818;stroke-width:1.0;"/></g><!--link SewerOverflowIndicationComponent to PumpIndicationComponent--><g id="link_SewerOverflowIndicationComponent_PumpIndicationComponent"><path codeLine="163" d="M816.56,869.83 C822.69,869.83 826.25,869.83 826.25,869.83 C826.25,869.83 826.25,993.83 826.25,993.83 C826.25,993.83 829.95,993.83 845.04,993.83 " fill="none" id="SewerOverflowIndicationComponent-to-PumpIndicationComponent" style="stroke:#181818;stroke-width:1.0;"/><polygon fill="#181818" points="851.04,993.83,842.04,989.83,846.04,993.83,842.04,997.83,851.04,993.83" style="stroke:#181818;stroke-width:1.0;"/></g><!--link SewerObservationService to SewerObservationComponent--><g id="link_SewerObservationService_SewerObservationComponent"><path codeLine="164" d="M1460,901.67 C1460,919.94 1460,936.72 1460,955.03 " fill="none" id="SewerObservationService-to-SewerObservationComponent" style="stroke:#181818;stroke-width:1.0;"/><polygon fill="#181818" points="1460,961.03,1464,952.03,1460,956.03,1456,952.03,1460,961.03" style="stroke:#181818;stroke-width:1.0;"/></g><!--link SewerObservationComponent to Sewers--><g id="link_SewerObservationComponent_Sewers"><path codeLine="165" d="M1339,1026.11 C1339,1076.25 1339,1166.39 1339,1220.95 " fill="none" id="SewerObservationComponent-to-Sewers" style="stroke:#181818;stroke-width:1.0;"/><polygon fill="#181818" points="1339,1226.95,1343,1217.95,1339,1221.95,1335,1217.95,1339,1226.95" style="stroke:#181818;stroke-width:1.0;"/></g><!--link Sewer to Problem--><g id="link_Sewer_Problem"><path codeLine="166" d="M1088.5,1324.33 C1088.5,1384.82 1088.5,1471.83 1088.5,1471.83 C1088.5,1471.83 1101.73,1471.83 1127.12,1471.83 " fill="none" id="Sewer-to-Problem" style="stroke:#181818;stroke-width:1.0;"/><polygon fill="#181818" points="1133.12,1471.83,1124.12,1467.83,1128.12,1471.83,1124.12,1475.83,1133.12,1471.83" style="stroke:#181818;stroke-width:1.0;"/></g><!--link Sewer to KeyPerformanceIndicator--><g id="link_Sewer_KeyPerformanceIndicator"><path codeLine="167" d="M959,1324.21 C959,1355.11 959,1386.93 959,1416.5 " fill="none" id="Sewer-to-KeyPerformanceIndicator" style="stroke:#181818;stroke-width:1.0;"/><polygon fill="#181818" points="959,1422.5,963,1413.5,959,1417.5,955,1413.5,959,1422.5" style="stroke:#181818;stroke-width:1.0;"/></g><!--link SewerIndicationUseCase to SewerOverflowIndicationService--><g id="link_SewerIndicationUseCase_SewerOverflowIndicationService"><path codeLine="168" d="M739.25,580.33 C739.25,613.41 739.25,658.34 739.25,691.43 " fill="none" id="SewerIndicationUseCase-to-SewerOverflowIndicationService" style="stroke:#181818;stroke-width:1.0;"/><polygon fill="#181818" points="739.25,697.43,743.25,688.43,739.25,692.43,735.25,688.43,739.25,697.43" style="stroke:#181818;stroke-width:1.0;"/></g><!--link SewerObservationUseCase to SewerObservationService--><g id="link_SewerObservationUseCase_SewerObservationService"><path codeLine="169" d="M1666.69,730.83 C1591.25,730.83 1504.83,730.83 1504.83,730.83 C1504.83,730.83 1504.83,789.93 1504.83,830.86 " fill="none" id="SewerObservationUseCase-to-SewerObservationService" style="stroke:#181818;stroke-width:1.0;"/><polygon fill="#181818" points="1504.83,836.86,1508.83,827.86,1504.83,831.86,1500.83,827.86,1504.83,836.86" style="stroke:#181818;stroke-width:1.0;"/></g><!--reverse link Sewers to SewersUseCaseBridge--><g id="link_Sewers_SewersUseCaseBridge"><path codeLine="170" d="M1374.24,1267.83 C1529.67,1267.83 1776.5,1267.83 1776.5,1267.83 C1776.5,1267.83 1776.5,1371.29 1776.5,1430.71 " fill="none" id="Sewers-backto-SewersUseCaseBridge" style="stroke:#181818;stroke-width:1.0;stroke-dasharray:7.0,7.0;"/><polygon fill="none" points="1356.24,1267.83,1374.24,1273.83,1374.24,1261.83,1356.24,1267.83" style="stroke:#181818;stroke-width:1.0;"/></g><!--link SewersUseCaseBridge to SewersUseCase--><g id="link_SewersUseCaseBridge_SewersUseCase"><path codeLine="171" d="M1776,1511.83 C1776,1538.35 1776,1566.91 1776,1593.49 " fill="none" id="SewersUseCaseBridge-to-SewersUseCase" style="stroke:#181818;stroke-width:1.0;"/><polygon fill="#181818" points="1776,1599.49,1780,1590.49,1776,1594.49,1772,1590.49,1776,1599.49" style="stroke:#181818;stroke-width:1.0;"/></g><!--link JSONRainfallIndicationDriver to SewerIndicationAdapter--><g id="link_JSONRainfallIndicationDriver_SewerIndicationAdapter"><path codeLine="172" d="M776,191.38 C776,230.03 776,288.41 776,327.1 " fill="none" id="JSONRainfallIndicationDriver-to-SewerIndicationAdapter" style="stroke:#181818;stroke-width:1.0;"/><polygon fill="#181818" points="776,333.1,780,324.1,776,328.1,772,324.1,776,333.1" style="stroke:#181818;stroke-width:1.0;"/></g><!--link PdfPumpPowerConsumptionIndicationDriver to SewerIndicationAdapter--><g id="link_PdfPumpPowerConsumptionIndicationDriver_SewerIndicationAdapter"><path codeLine="173" d="M214,191.74 C214,252.46 214,376.83 214,376.83 C214,376.83 511.09,376.83 672.11,376.83 " fill="none" id="PdfPumpPowerConsumptionIndicationDriver-to-SewerIndicationAdapter" style="stroke:#181818;stroke-width:1.0;"/><polygon fill="#181818" points="678.11,376.83,669.11,372.83,673.11,376.83,669.11,380.83,678.11,376.83" style="stroke:#181818;stroke-width:1.0;"/></g><!--link XMLRainfallIndicationDriver to SewerIndicationAdapter--><g id="link_XMLRainfallIndicationDriver_SewerIndicationAdapter"><path codeLine="174" d="M608.5,191.46 C608.5,247.04 608.5,354.83 608.5,354.83 C608.5,354.83 635.43,354.83 672.08,354.83 " fill="none" id="XMLRainfallIndicationDriver-to-SewerIndicationAdapter" style="stroke:#181818;stroke-width:1.0;"/><polygon fill="#181818" points="678.08,354.83,669.08,350.83,673.08,354.83,669.08,358.83,678.08,354.83" style="stroke:#181818;stroke-width:1.0;"/></g><!--reverse link SewersAdapter to DynamoSewersDriver--><g id="link_SewersAdapter_DynamoSewersDriver"><path codeLine="175" d="M1583.57,1947.83 C1432.14,1947.83 1198,1947.83 1198,1947.83 C1198,1947.83 1198,2233.45 1198,2341.12 " fill="none" id="SewersAdapter-backto-DynamoSewersDriver" style="stroke:#181818;stroke-width:1.0;stroke-dasharray:7.0,7.0;"/><polygon fill="none" points="1601.57,1947.83,1583.57,1941.83,1583.57,1953.83,1601.57,1947.83" style="stroke:#181818;stroke-width:1.0;"/></g><!--reverse link SewersAdapter to S3SewersDriver--><g id="link_SewersAdapter_S3SewersDriver"><path codeLine="176" d="M1583.52,1973.83 C1569.53,1973.83 1578,1973.83 1578,1973.83 C1578,1973.83 1578,2237.83 1578,2340.95 " fill="none" id="SewersAdapter-backto-S3SewersDriver" style="stroke:#181818;stroke-width:1.0;stroke-dasharray:7.0,7.0;"/><polygon fill="none" points="1601.52,1973.83,1583.52,1967.83,1583.52,1979.83,1601.52,1973.83" style="stroke:#181818;stroke-width:1.0;"/></g><!--reverse link SewersAdapter to FileSewersDriver--><g id="link_SewersAdapter_FileSewersDriver"><path codeLine="177" d="M1645,2019.14 C1645,2124.92 1645,2381.83 1645,2381.83 C1645,2381.83 1662.04,2381.83 1684.67,2381.83 " fill="none" id="SewersAdapter-backto-FileSewersDriver" style="stroke:#181818;stroke-width:1.0;stroke-dasharray:7.0,7.0;"/><polygon fill="none" points="1645,2001.14,1639,2019.14,1651,2019.14,1645,2001.14" style="stroke:#181818;stroke-width:1.0;"/></g><!--reverse link SewersAdapter to SewersDriverOrchestrator--><g id="link_SewersAdapter_SewersDriverOrchestrator"><path codeLine="178" d="M1754.5,2018.91 C1754.5,2059.04 1754.5,2102.11 1754.5,2142.27 " fill="none" id="SewersAdapter-backto-SewersDriverOrchestrator" style="stroke:#181818;stroke-width:1.0;stroke-dasharray:7.0,7.0;"/><polygon fill="none" points="1754.5,2000.91,1748.5,2018.91,1760.5,2018.91,1754.5,2000.91" style="stroke:#181818;stroke-width:1.0;"/></g><!--link SewersDriverOrchestrator to DynamoSewersDriver--><g id="link_SewersDriverOrchestrator_DynamoSewersDriver"><path codeLine="179" d="M1684.81,2169.83 C1528.46,2169.83 1262.5,2169.83 1262.5,2169.83 C1262.5,2169.83 1262.5,2273.79 1262.5,2335.22 " fill="none" id="SewersDriverOrchestrator-to-DynamoSewersDriver" style="stroke:#181818;stroke-width:1.0;"/><polygon fill="#181818" points="1262.5,2341.22,1266.5,2332.22,1262.5,2336.22,1258.5,2332.22,1262.5,2341.22" style="stroke:#181818;stroke-width:1.0;"/></g><!--link SewersDriverOrchestrator to PanacheSewersDriver--><g id="link_SewersDriverOrchestrator_PanacheSewersDriver"><path codeLine="180" d="M1907.47,2183.83 C1984.81,2183.83 2074,2183.83 2074,2183.83 C2074,2183.83 2074,2277.21 2074,2335.05 " fill="none" id="SewersDriverOrchestrator-to-PanacheSewersDriver" style="stroke:#181818;stroke-width:1.0;"/><polygon fill="#181818" points="2074,2341.05,2078,2332.05,2074,2336.05,2070,2332.05,2074,2341.05" style="stroke:#181818;stroke-width:1.0;"/></g><!--link SewersDriverOrchestrator to FileSewersDriver--><g id="link_SewersDriverOrchestrator_FileSewersDriver"><path codeLine="181" d="M1796,2223.61 C1796,2257.88 1796,2300.66 1796,2334.92 " fill="none" id="SewersDriverOrchestrator-to-FileSewersDriver" style="stroke:#181818;stroke-width:1.0;"/><polygon fill="#181818" points="1796,2340.92,1800,2331.92,1796,2335.92,1792,2331.92,1796,2340.92" style="stroke:#181818;stroke-width:1.0;"/></g><!--link SewersDriverOrchestrator to S3SewersDriver--><g id="link_SewersDriverOrchestrator_S3SewersDriver"><path codeLine="182" d="M1684.56,2196.83 C1636.02,2196.83 1590,2196.83 1590,2196.83 C1590,2196.83 1590,2280.63 1590,2335 " fill="none" id="SewersDriverOrchestrator-to-S3SewersDriver" style="stroke:#181818;stroke-width:1.0;"/><polygon fill="#181818" points="1590,2341,1594,2332,1590,2336,1586,2332,1590,2341" style="stroke:#181818;stroke-width:1.0;"/></g><!--reverse link SewersAdapter to PanacheSewersDriver--><g id="link_SewersAdapter_PanacheSewersDriver"><path codeLine="183" d="M1842.49,1960.83 C1965.11,1960.83 2127,1960.83 2127,1960.83 C2127,1960.83 2127,2235.23 2127,2340.81 " fill="none" id="SewersAdapter-backto-PanacheSewersDriver" style="stroke:#181818;stroke-width:1.0;stroke-dasharray:7.0,7.0;"/><polygon fill="none" points="1824.49,1960.83,1842.49,1966.83,1842.49,1954.83,1824.49,1960.83" style="stroke:#181818;stroke-width:1.0;"/></g><!--link FlowIndicationResourceDriver to SewerIndicationAdapter--><g id="link_FlowIndicationResourceDriver_SewerIndicationAdapter"><path codeLine="184" d="M1779,191.53 C1779,253.29 1779,381.83 1779,381.83 C1779,381.83 1132.38,381.83 880,381.83 " fill="none" id="FlowIndicationResourceDriver-to-SewerIndicationAdapter" style="stroke:#181818;stroke-width:1.0;"/><polygon fill="#181818" points="874,381.83,883,385.83,879,381.83,883,377.83,874,381.83" style="stroke:#181818;stroke-width:1.0;"/></g><!--link PumpPowerConsumptionIndicationResourceDriver to SewerIndicationAdapter--><g id="link_PumpPowerConsumptionIndicationResourceDriver_SewerIndicationAdapter"><path codeLine="185" d="M1079.5,191.5 C1079.5,245.9 1079.5,349.83 1079.5,349.83 C1079.5,349.83 968.42,349.83 879.7,349.83 " fill="none" id="PumpPowerConsumptionIndicationResourceDriver-to-SewerIndicationAdapter" style="stroke:#181818;stroke-width:1.0;"/><polygon fill="#181818" points="873.7,349.83,882.7,353.83,878.7,349.83,882.7,345.83,873.7,349.83" style="stroke:#181818;stroke-width:1.0;"/></g><!--link RainfallIndicationResourceDriver to SewerIndicationAdapter--><g id="link_RainfallIndicationResourceDriver_SewerIndicationAdapter"><path codeLine="186" d="M1443.67,191.44 C1443.67,249.57 1443.67,365.83 1443.67,365.83 C1443.67,365.83 1065.25,365.83 879.8,365.83 " fill="none" id="RainfallIndicationResourceDriver-to-SewerIndicationAdapter" style="stroke:#181818;stroke-width:1.0;"/><polygon fill="#181818" points="873.8,365.83,882.8,369.83,878.8,365.83,882.8,361.83,873.8,365.83" style="stroke:#181818;stroke-width:1.0;"/></g><!--link ObservationResourceDriver to SewerObservationAdapter--><g id="link_ObservationResourceDriver_SewerObservationAdapter"><path codeLine="187" d="M2074,191.61 C2074,264.76 2074,435.78 2074,509.1 " fill="none" id="ObservationResourceDriver-to-SewerObservationAdapter" style="stroke:#181818;stroke-width:1.0;"/><polygon fill="#181818" points="2074,515.1,2078,506.1,2074,510.1,2070,506.1,2074,515.1" style="stroke:#181818;stroke-width:1.0;"/></g><!--SRC=[vLbTRzis57tNhz3a5mThYQBfXWO8FBH90sHT6oD6WBqDj4JPN6HH8-MaHfR_FagKRNsBaaZPnfwIAEIvvrvUNbuU_XHGk5X1SytGhHyYka8EXY6QGliHBX0pNUWnPB17x0UGmfNfOH-5cm2PX8PBOh0bUJOPduT8zDK8n3pJeVW9KMP2PZe8s6GLG7y30ah2U1nWw1bHi1qrOe-RkRT6vilh3W4wC0Yb8S1k-EZZUzUTVqX3pSdQTo3Tj8G2s7UmpOC1TW0Z3w-G2cWoPuW-wK2EFxCQOBxIVzcGeRQH1Vk98zUzW1SNQLJaXpZ4FK313c7asgupVwSY64LqcKMrYHzIukam1hRO8qAXlq2Qd6nEBtK-vcqDvA8OEOI3MKjrxiLJDjfCWWHVxmOH8ny3F61mqzO6372PsI63p6VEFRGQCD1vYmC6kygqre1hFCBtHlGTvdiRZSTwInCkzf1CT08-6FC6pxUH979wnkXvYSDiM_VCskE0QDRevjsdz-SVU_YSGmJEneSheZoqUJFiNAk9U2Lr6Y3KNY8MKXWIsco8mq8-leETxSpHXrylVldoMH7x1BMPEEK-IkB7GukvtP9bXAAXGCMmpINfdpMaZ-juCs82jd-Ln3wreFk1O8ddYFeHSK9NPKjds1vapBHc4RbRuIKc_YTHsgpUTp5G3co-6ARvynF1ZXb7O3mBAVONPyPhXj1T79zUZ0fzRmMmO3H3uUNT_6zaXvC2CHnTl5t8wwKWnxfIokKuoA097kOBd4TxsGvVqvGIPyOF3xVNPxbnSJ2tyOz7l375l7nKjwO-K-mia5hw0hCOp09pURfttBphaUTz4iqu5BRRCvUw-jNRB2JkDnXSYXnvOugVavG3DncCAqwK-DosfVFI2YgCfgYZ7yXUXrdol_6ll1OxB5c6j1lJzIeOt8qAeptSk8VOdoq93Nd17DoT1kCztAh8s87yQhBUsx5zgLQuxnkFXSn-ZofPF60YUrmf3NwLTWCghHPeRqDVSvnPwXKH0Lnwf2Myv4-qU48-ufPk5KUu83o8E9eB5DuwuvZgLxIPyX3opWho5ZP9VKAZ8Ly3BCP4hax5bNeI_IFvdOtFKkV8_cjwUChN2alM418Bg79Jf5YSJx5dl5nF2GUx8ZxZlqVvcCHWDoOwcSItx-iLxqoZRr5TTA7dZTFdZGY1DPIg0HA3UP_k4MHRB_QCYyLkdC_B_RyU6BhYZ2o5uWWeDz6-f-xFhR6CPhZLbD52DUhFhRnFpH3IssOdfZgssPAEv1lkghfQNqn_dzrztsx4VM9TnvoiNbeLg8DkJjcfuvOL5iKS9Qqqq_tpsn-QmbY3t4phEfRGHDwqOoCdne6Y0MLNm7CLj8lY7iW2gw9xmrUlB-4ogH3aWPLUiHFCkvI4Q2cM846L8LMEJ8MurJVu5K8aA85NbZEPNk8UCRAcDchdGhbA2UgW9OflRKrKIhIDgMRYnKgfb6mJV3F1L8VKWrcX-wg4pJIsDRrNakNtA20CyysviMG4PL2OTlabxgidtEwheKL0VljsehcVDhJ8pDrvo_RQXcen5wp1lnCTlQjofcs3Mujf32qjTqyD1JATCRWShS3TKhd965oHFZrFciJeq_EeKORMkhiQuddQRl-lLh9YZnj3lJSeSAxzSu4n_0F5iUQbp6k0CkwIilH9-TJXAS7GB8nhAHZrpPoXMK_NKIOgIfAXJxNkSxFGKWPaI7SFVU_BK1U9lIrTsHkueLzkFqBgTJBy8Ubsr-dRxy7Uj-Rswlo1ISefyWScsKrzFqdIaZkjywOuMYzQl4uShGzIc-ceywYnNXaQ7vqEi66xF2uTyZ1KySPqXFmRdvqEphd5WrHRhh8FBFy1]--></g></svg>