<svg xmlns="http://www.w3.org/2000/svg" xmlns:xlink="http://www.w3.org/1999/xlink" contentStyleType="text/css" height="1150px" preserveAspectRatio="none" style="width:5297px;height:1150px;background:#FFFFFF;" version="1.1" viewBox="0 0 5297 1150" width="5297px" zoomAndPan="magnify"><defs/><g><!--cluster drivers--><g id="cluster_drivers"><path d="M8.5,6 L304.5,6 A3.75,3.75 0 0 1 307,8.5 L314,28.2969 L1969.5,28.2969 A2.5,2.5 0 0 1 1972,30.7969 L1972,1141.17 A2.5,2.5 0 0 1 1969.5,1143.67 L8.5,1143.67 A2.5,2.5 0 0 1 6,1141.17 L6,8.5 A2.5,2.5 0 0 1 8.5,6 " fill="#87CEEB" style="stroke:#000000;stroke-width:1.5;"/><line style="stroke:#000000;stroke-width:1.5;" x1="6" x2="314" y1="28.2969" y2="28.2969"/><text fill="#000000" font-family="sans-serif" font-size="14" font-weight="bold" lengthAdjust="spacing" textLength="295" x="10" y="20.9951">de.company.prototype.sewer.drivers</text></g><!--cluster adapters--><g id="cluster_adapters"><path d="M48.5,65 L119.5,65 A3.75,3.75 0 0 1 122,67.5 L129,87.2969 L1921.5,87.2969 A2.5,2.5 0 0 1 1924,89.7969 L1924,1101.17 A2.5,2.5 0 0 1 1921.5,1103.67 L48.5,1103.67 A2.5,2.5 0 0 1 46,1101.17 L46,67.5 A2.5,2.5 0 0 1 48.5,65 " fill="#82FFB4" style="stroke:#000000;stroke-width:1.5;"/><line style="stroke:#000000;stroke-width:1.5;" x1="46" x2="129" y1="87.2969" y2="87.2969"/><text fill="#000000" font-family="sans-serif" font-size="14" font-weight="bold" lengthAdjust="spacing" textLength="70" x="50" y="79.9951">adapters</text></g><!--cluster use_cases--><g id="cluster_use_cases"><path d="M88.5,124 L171.5,124 A3.75,3.75 0 0 1 174,126.5 L181,146.2969 L1873.5,146.2969 A2.5,2.5 0 0 1 1876,148.7969 L1876,1061.17 A2.5,2.5 0 0 1 1873.5,1063.67 L88.5,1063.67 A2.5,2.5 0 0 1 86,1061.17 L86,126.5 A2.5,2.5 0 0 1 88.5,124 " fill="#FF9A99" style="stroke:#000000;stroke-width:1.5;"/><line style="stroke:#000000;stroke-width:1.5;" x1="86" x2="181" y1="146.2969" y2="146.2969"/><text fill="#000000" font-family="sans-serif" font-size="14" font-weight="bold" lengthAdjust="spacing" textLength="82" x="90" y="138.9951">use_cases</text></g><!--cluster entities--><g id="cluster_entities"><path d="M128.5,183 L188.5,183 A3.75,3.75 0 0 1 191,185.5 L198,205.2969 L1825.5,205.2969 A2.5,2.5 0 0 1 1828,207.7969 L1828,1021.17 A2.5,2.5 0 0 1 1825.5,1023.67 L128.5,1023.67 A2.5,2.5 0 0 1 126,1021.17 L126,185.5 A2.5,2.5 0 0 1 128.5,183 " fill="#FCFDB0" style="stroke:#000000;stroke-width:1.5;"/><line style="stroke:#000000;stroke-width:1.5;" x1="126" x2="198" y1="205.2969" y2="205.2969"/><text fill="#000000" font-family="sans-serif" font-size="14" font-weight="bold" lengthAdjust="spacing" textLength="59" x="130" y="197.9951">entities</text></g><!--cluster boundary--><g id="cluster_boundary"><path d="M160.5,234 L303.5,234 A3.75,3.75 0 0 1 306,236.5 L313,256.2969 L1101.5,256.2969 A2.5,2.5 0 0 1 1104,258.7969 L1104,768.83 A2.5,2.5 0 0 1 1101.5,771.33 L160.5,771.33 A2.5,2.5 0 0 1 158,768.83 L158,236.5 A2.5,2.5 0 0 1 160.5,234 " fill="#00FF00" style="stroke:#000000;stroke-width:1.5;"/><line style="stroke:#000000;stroke-width:1.5;" x1="158" x2="313" y1="256.2969" y2="256.2969"/><text fill="#000000" font-family="sans-serif" font-size="14" font-weight="bold" lengthAdjust="spacing" textLength="142" x="162" y="248.9951">indicate.boundary</text></g><!--cluster control--><g id="cluster_control"><path d="M184.5,358.29 L241.5,358.29 A3.75,3.75 0 0 1 244,360.79 L251,380.5869 L1077.5,380.5869 A2.5,2.5 0 0 1 1080,383.0869 L1080,744.83 A2.5,2.5 0 0 1 1077.5,747.33 L184.5,747.33 A2.5,2.5 0 0 1 182,744.83 L182,360.79 A2.5,2.5 0 0 1 184.5,358.29 " fill="#FFA500" style="stroke:#000000;stroke-width:1.5;"/><line style="stroke:#000000;stroke-width:1.5;" x1="182" x2="251" y1="380.5869" y2="380.5869"/><text fill="#000000" font-family="sans-serif" font-size="14" font-weight="bold" lengthAdjust="spacing" textLength="56" x="186" y="373.2851">control</text></g><!--cluster boundary--><g id="cluster_boundary"><path d="M1454.5,234 L1600.5,234 A3.75,3.75 0 0 1 1603,236.5 L1610,256.2969 L1769.5,256.2969 A2.5,2.5 0 0 1 1772,258.7969 L1772,495.09 A2.5,2.5 0 0 1 1769.5,497.59 L1454.5,497.59 A2.5,2.5 0 0 1 1452,495.09 L1452,236.5 A2.5,2.5 0 0 1 1454.5,234 " fill="#00FF00" style="stroke:#000000;stroke-width:1.5;"/><line style="stroke:#000000;stroke-width:1.5;" x1="1452" x2="1610" y1="256.2969" y2="256.2969"/><text fill="#000000" font-family="sans-serif" font-size="14" font-weight="bold" lengthAdjust="spacing" textLength="145" x="1456" y="248.9951">observe.boundary</text></g><!--cluster control--><g id="cluster_control"><path d="M1478.5,358.29 L1535.5,358.29 A3.75,3.75 0 0 1 1538,360.79 L1545,380.5869 L1745.5,380.5869 A2.5,2.5 0 0 1 1748,383.0869 L1748,471.09 A2.5,2.5 0 0 1 1745.5,473.59 L1478.5,473.59 A2.5,2.5 0 0 1 1476,471.09 L1476,360.79 A2.5,2.5 0 0 1 1478.5,358.29 " fill="#FFA500" style="stroke:#000000;stroke-width:1.5;"/><line style="stroke:#000000;stroke-width:1.5;" x1="1476" x2="1545" y1="380.5869" y2="380.5869"/><text fill="#000000" font-family="sans-serif" font-size="14" font-weight="bold" lengthAdjust="spacing" textLength="56" x="1480" y="373.2851">control</text></g><!--cluster sewer--><g id="cluster_sewer"><path d="M1130.5,521.59 L1181.5,521.59 A3.75,3.75 0 0 1 1184,524.09 L1191,543.8869 L1785.5,543.8869 A2.5,2.5 0 0 1 1788,546.3869 L1788,989.17 A2.5,2.5 0 0 1 1785.5,991.67 L1130.5,991.67 A2.5,2.5 0 0 1 1128,989.17 L1128,524.09 A2.5,2.5 0 0 1 1130.5,521.59 " fill="none" style="stroke:#000000;stroke-width:1.5;"/><line style="stroke:#000000;stroke-width:1.5;" x1="1128" x2="1191" y1="543.8869" y2="543.8869"/><text fill="#000000" font-family="sans-serif" font-size="14" font-weight="bold" lengthAdjust="spacing" textLength="50" x="1132" y="536.5851">sewer</text></g><!--cluster boundary--><g id="cluster_boundary"><path d="M1170.5,564.59 L1246.5,564.59 A3.75,3.75 0 0 1 1249,567.09 L1256,586.8869 L1735.5,586.8869 A2.5,2.5 0 0 1 1738,589.3869 L1738,793.28 A2.5,2.5 0 0 1 1735.5,795.78 L1170.5,795.78 A2.5,2.5 0 0 1 1168,793.28 L1168,567.09 A2.5,2.5 0 0 1 1170.5,564.59 " fill="#00FF00" style="stroke:#000000;stroke-width:1.5;"/><line style="stroke:#000000;stroke-width:1.5;" x1="1168" x2="1256" y1="586.8869" y2="586.8869"/><text fill="#000000" font-family="sans-serif" font-size="14" font-weight="bold" lengthAdjust="spacing" textLength="75" x="1172" y="579.5851">boundary</text></g><!--cluster entity--><g id="cluster_entity"><path d="M1194.5,607.59 L1301.5,607.59 A3.75,3.75 0 0 1 1304,610.09 L1311,629.8869 L1479.5,629.8869 A2.5,2.5 0 0 1 1482,632.3869 L1482,769.28 A2.5,2.5 0 0 1 1479.5,771.78 L1194.5,771.78 A2.5,2.5 0 0 1 1192,769.28 L1192,610.09 A2.5,2.5 0 0 1 1194.5,607.59 " fill="#FCFDB0" style="stroke:#000000;stroke-width:1.5;"/><line style="stroke:#000000;stroke-width:1.5;" x1="1192" x2="1311" y1="629.8869" y2="629.8869"/><text fill="#000000" font-family="sans-serif" font-size="14" font-weight="bold" lengthAdjust="spacing" textLength="106" x="1196" y="622.5851">control.entity</text></g><!--cluster entity--><g id="cluster_entity"><path d="M1154.5,819.78 L1369.5,819.78 A3.75,3.75 0 0 1 1372,822.28 L1379,842.0769 L1461.5,842.0769 A2.5,2.5 0 0 1 1464,844.5769 L1464,965.17 A2.5,2.5 0 0 1 1461.5,967.67 L1154.5,967.67 A2.5,2.5 0 0 1 1152,965.17 L1152,822.28 A2.5,2.5 0 0 1 1154.5,819.78 " fill="#FCFDB0" style="stroke:#000000;stroke-width:1.5;"/><line style="stroke:#000000;stroke-width:1.5;" x1="1152" x2="1379" y1="842.0769" y2="842.0769"/><text fill="#000000" font-family="sans-serif" font-size="14" font-weight="bold" lengthAdjust="spacing" textLength="214" x="1156" y="834.7751">kpi.boundary.control.entity</text></g><!--cluster entity--><g id="cluster_entity"><path d="M1490.5,827.93 L1747.5,827.93 A3.75,3.75 0 0 1 1750,830.43 L1757,850.2269 L1761.5,850.2269 A2.5,2.5 0 0 1 1764,852.7269 L1764,957.02 A2.5,2.5 0 0 1 1761.5,959.52 L1490.5,959.52 A2.5,2.5 0 0 1 1488,957.02 L1488,830.43 A2.5,2.5 0 0 1 1490.5,827.93 " fill="#FCFDB0" style="stroke:#000000;stroke-width:1.5;"/><line style="stroke:#000000;stroke-width:1.5;" x1="1488" x2="1757" y1="850.2269" y2="850.2269"/><text fill="#000000" font-family="sans-serif" font-size="14" font-weight="bold" lengthAdjust="spacing" textLength="256" x="1492" y="842.9251">problem.boundary.control.entity</text></g><!--class SewerOverflowIndicationService--><g id="elem_SewerOverflowIndicationService"><rect codeLine="22" fill="#F1F1F1" height="64.2969" id="SewerOverflowIndicationService" rx="2.5" ry="2.5" style="stroke:#181818;stroke-width:0.5;" width="250" x="798" y="269"/><ellipse cx="813" cy="285" fill="#ADD1B2" rx="11" ry="11" style="stroke:#181818;stroke-width:1.0;"/><path d="M815.9688,290.6406 Q815.3906,290.9375 814.75,291.0781 Q814.1094,291.2344 813.4063,291.2344 Q810.9063,291.2344 809.5781,289.5938 Q808.2656,287.9375 808.2656,284.8125 Q808.2656,281.6875 809.5781,280.0313 Q810.9063,278.375 813.4063,278.375 Q814.1094,278.375 814.75,278.5313 Q815.4063,278.6875 815.9688,278.9844 L815.9688,281.7031 Q815.3438,281.125 814.75,280.8594 Q814.1563,280.5781 813.5313,280.5781 Q812.1875,280.5781 811.5,281.6563 Q810.8125,282.7188 810.8125,284.8125 Q810.8125,286.9063 811.5,287.9844 Q812.1875,289.0469 813.5313,289.0469 Q814.1563,289.0469 814.75,288.7813 Q815.3438,288.5 815.9688,287.9219 L815.9688,290.6406 Z " fill="#000000"/><text fill="#000000" font-family="sans-serif" font-size="14" lengthAdjust="spacing" textLength="218" x="827" y="289.8467">SewerOverflowIndicationService</text><line style="stroke:#181818;stroke-width:0.5;" x1="799" x2="1047" y1="301" y2="301"/><line style="stroke:#181818;stroke-width:0.5;" x1="799" x2="1047" y1="309" y2="309"/><ellipse cx="809" cy="322.6484" fill="#84BE84" rx="3" ry="3" style="stroke:#038048;stroke-width:1.0;"/><text fill="#000000" font-family="sans-serif" font-size="14" lengthAdjust="spacing" textLength="221" x="818" y="325.9951">void serve(Map&lt;String, String&gt;)</text></g><!--class FlowIndicationComponent--><g id="elem_FlowIndicationComponent"><rect codeLine="25" fill="#F1F1F1" height="64.2969" id="FlowIndicationComponent" rx="2.5" ry="2.5" style="stroke:#181818;stroke-width:0.5;" width="265" x="198.5" y="667.04"/><ellipse cx="237.8" cy="683.04" fill="#ADD1B2" rx="11" ry="11" style="stroke:#181818;stroke-width:1.0;"/><path d="M240.7688,688.6806 Q240.1906,688.9775 239.55,689.1181 Q238.9094,689.2744 238.2063,689.2744 Q235.7063,689.2744 234.3781,687.6338 Q233.0656,685.9775 233.0656,682.8525 Q233.0656,679.7275 234.3781,678.0713 Q235.7063,676.415 238.2063,676.415 Q238.9094,676.415 239.55,676.5713 Q240.2063,676.7275 240.7688,677.0244 L240.7688,679.7431 Q240.1438,679.165 239.55,678.8994 Q238.9563,678.6181 238.3313,678.6181 Q236.9875,678.6181 236.3,679.6963 Q235.6125,680.7588 235.6125,682.8525 Q235.6125,684.9463 236.3,686.0244 Q236.9875,687.0869 238.3313,687.0869 Q238.9563,687.0869 239.55,686.8213 Q240.1438,686.54 240.7688,685.9619 L240.7688,688.6806 Z " fill="#000000"/><text fill="#000000" font-family="sans-serif" font-size="14" lengthAdjust="spacing" textLength="179" x="257.2" y="687.8867">FlowIndicationComponent</text><line style="stroke:#181818;stroke-width:0.5;" x1="199.5" x2="462.5" y1="699.04" y2="699.04"/><line style="stroke:#181818;stroke-width:0.5;" x1="199.5" x2="462.5" y1="707.04" y2="707.04"/><ellipse cx="209.5" cy="720.6884" fill="#84BE84" rx="3" ry="3" style="stroke:#038048;stroke-width:1.0;"/><text fill="#000000" font-family="sans-serif" font-size="14" lengthAdjust="spacing" textLength="239" x="218.5" y="724.0351">void execute(Map&lt;String, String&gt;)</text></g><!--class PumpIndicationComponent--><g id="elem_PumpIndicationComponent"><rect codeLine="28" fill="#F1F1F1" height="64.2969" id="PumpIndicationComponent" rx="2.5" ry="2.5" style="stroke:#181818;stroke-width:0.5;" width="265" x="498.5" y="667.04"/><ellipse cx="533.75" cy="683.04" fill="#ADD1B2" rx="11" ry="11" style="stroke:#181818;stroke-width:1.0;"/><path d="M536.7188,688.6806 Q536.1406,688.9775 535.5,689.1181 Q534.8594,689.2744 534.1563,689.2744 Q531.6563,689.2744 530.3281,687.6338 Q529.0156,685.9775 529.0156,682.8525 Q529.0156,679.7275 530.3281,678.0713 Q531.6563,676.415 534.1563,676.415 Q534.8594,676.415 535.5,676.5713 Q536.1563,676.7275 536.7188,677.0244 L536.7188,679.7431 Q536.0938,679.165 535.5,678.8994 Q534.9063,678.6181 534.2813,678.6181 Q532.9375,678.6181 532.25,679.6963 Q531.5625,680.7588 531.5625,682.8525 Q531.5625,684.9463 532.25,686.0244 Q532.9375,687.0869 534.2813,687.0869 Q534.9063,687.0869 535.5,686.8213 Q536.0938,686.54 536.7188,685.9619 L536.7188,688.6806 Z " fill="#000000"/><text fill="#000000" font-family="sans-serif" font-size="14" lengthAdjust="spacing" textLength="188" x="552.25" y="687.8867">PumpIndicationComponent</text><line style="stroke:#181818;stroke-width:0.5;" x1="499.5" x2="762.5" y1="699.04" y2="699.04"/><line style="stroke:#181818;stroke-width:0.5;" x1="499.5" x2="762.5" y1="707.04" y2="707.04"/><ellipse cx="509.5" cy="720.6884" fill="#84BE84" rx="3" ry="3" style="stroke:#038048;stroke-width:1.0;"/><text fill="#000000" font-family="sans-serif" font-size="14" lengthAdjust="spacing" textLength="239" x="518.5" y="724.0351">void execute(Map&lt;String, String&gt;)</text></g><!--class RainIndicationComponent--><g id="elem_RainIndicationComponent"><rect codeLine="31" fill="#F1F1F1" height="64.2969" id="RainIndicationComponent" rx="2.5" ry="2.5" style="stroke:#181818;stroke-width:0.5;" width="265" x="798.5" y="667.04"/><ellipse cx="838.25" cy="683.04" fill="#ADD1B2" rx="11" ry="11" style="stroke:#181818;stroke-width:1.0;"/><path d="M841.2188,688.6806 Q840.6406,688.9775 840,689.1181 Q839.3594,689.2744 838.6563,689.2744 Q836.1563,689.2744 834.8281,687.6338 Q833.5156,685.9775 833.5156,682.8525 Q833.5156,679.7275 834.8281,678.0713 Q836.1563,676.415 838.6563,676.415 Q839.3594,676.415 840,676.5713 Q840.6563,676.7275 841.2188,677.0244 L841.2188,679.7431 Q840.5938,679.165 840,678.8994 Q839.4063,678.6181 838.7813,678.6181 Q837.4375,678.6181 836.75,679.6963 Q836.0625,680.7588 836.0625,682.8525 Q836.0625,684.9463 836.75,686.0244 Q837.4375,687.0869 838.7813,687.0869 Q839.4063,687.0869 840,686.8213 Q840.5938,686.54 841.2188,685.9619 L841.2188,688.6806 Z " fill="#000000"/><text fill="#000000" font-family="sans-serif" font-size="14" lengthAdjust="spacing" textLength="178" x="857.75" y="687.8867">RainIndicationComponent</text><line style="stroke:#181818;stroke-width:0.5;" x1="799.5" x2="1062.5" y1="699.04" y2="699.04"/><line style="stroke:#181818;stroke-width:0.5;" x1="799.5" x2="1062.5" y1="707.04" y2="707.04"/><ellipse cx="809.5" cy="720.6884" fill="#84BE84" rx="3" ry="3" style="stroke:#038048;stroke-width:1.0;"/><text fill="#000000" font-family="sans-serif" font-size="14" lengthAdjust="spacing" textLength="239" x="818.5" y="724.0351">void execute(Map&lt;String, String&gt;)</text></g><!--class SewerOverflowIndicationComponent--><g id="elem_SewerOverflowIndicationComponent"><rect codeLine="34" fill="#F1F1F1" height="64.2969" id="SewerOverflowIndicationComponent" rx="2.5" ry="2.5" style="stroke:#181818;stroke-width:0.5;" width="282" x="782" y="393.29"/><ellipse cx="797" cy="409.29" fill="#ADD1B2" rx="11" ry="11" style="stroke:#181818;stroke-width:1.0;"/><path d="M799.9688,414.9306 Q799.3906,415.2275 798.75,415.3681 Q798.1094,415.5244 797.4063,415.5244 Q794.9063,415.5244 793.5781,413.8838 Q792.2656,412.2275 792.2656,409.1025 Q792.2656,405.9775 793.5781,404.3213 Q794.9063,402.665 797.4063,402.665 Q798.1094,402.665 798.75,402.8213 Q799.4063,402.9775 799.9688,403.2744 L799.9688,405.9931 Q799.3438,405.415 798.75,405.1494 Q798.1563,404.8681 797.5313,404.8681 Q796.1875,404.8681 795.5,405.9463 Q794.8125,407.0088 794.8125,409.1025 Q794.8125,411.1963 795.5,412.2744 Q796.1875,413.3369 797.5313,413.3369 Q798.1563,413.3369 798.75,413.0713 Q799.3438,412.79 799.9688,412.2119 L799.9688,414.9306 Z " fill="#000000"/><text fill="#000000" font-family="sans-serif" font-size="14" lengthAdjust="spacing" textLength="250" x="811" y="414.1367">SewerOverflowIndicationComponent</text><line style="stroke:#181818;stroke-width:0.5;" x1="783" x2="1063" y1="425.29" y2="425.29"/><line style="stroke:#181818;stroke-width:0.5;" x1="783" x2="1063" y1="433.29" y2="433.29"/><ellipse cx="793" cy="446.9384" fill="#84BE84" rx="3" ry="3" style="stroke:#038048;stroke-width:1.0;"/><text fill="#000000" font-family="sans-serif" font-size="14" lengthAdjust="spacing" textLength="239" x="802" y="450.2851">void execute(Map&lt;String, String&gt;)</text></g><!--class SewerObservationService--><g id="elem_SewerObservationService"><rect codeLine="40" fill="#F1F1F1" height="64.2969" id="SewerObservationService" rx="2.5" ry="2.5" style="stroke:#181818;stroke-width:0.5;" width="208" x="1508" y="269"/><ellipse cx="1523" cy="285" fill="#ADD1B2" rx="11" ry="11" style="stroke:#181818;stroke-width:1.0;"/><path d="M1525.9688,290.6406 Q1525.3906,290.9375 1524.75,291.0781 Q1524.1094,291.2344 1523.4063,291.2344 Q1520.9063,291.2344 1519.5781,289.5938 Q1518.2656,287.9375 1518.2656,284.8125 Q1518.2656,281.6875 1519.5781,280.0313 Q1520.9063,278.375 1523.4063,278.375 Q1524.1094,278.375 1524.75,278.5313 Q1525.4063,278.6875 1525.9688,278.9844 L1525.9688,281.7031 Q1525.3438,281.125 1524.75,280.8594 Q1524.1563,280.5781 1523.5313,280.5781 Q1522.1875,280.5781 1521.5,281.6563 Q1520.8125,282.7188 1520.8125,284.8125 Q1520.8125,286.9063 1521.5,287.9844 Q1522.1875,289.0469 1523.5313,289.0469 Q1524.1563,289.0469 1524.75,288.7813 Q1525.3438,288.5 1525.9688,287.9219 L1525.9688,290.6406 Z " fill="#000000"/><text fill="#000000" font-family="sans-serif" font-size="14" lengthAdjust="spacing" textLength="176" x="1537" y="289.8467">SewerObservationService</text><line style="stroke:#181818;stroke-width:0.5;" x1="1509" x2="1715" y1="301" y2="301"/><line style="stroke:#181818;stroke-width:0.5;" x1="1509" x2="1715" y1="309" y2="309"/><ellipse cx="1519" cy="322.6484" fill="#84BE84" rx="3" ry="3" style="stroke:#038048;stroke-width:1.0;"/><text fill="#000000" font-family="sans-serif" font-size="14" lengthAdjust="spacing" textLength="182" x="1528" y="325.9951">Set&lt;Sewer&gt; serve(String)</text></g><!--class SewerObservationComponent--><g id="elem_SewerObservationComponent"><rect codeLine="43" fill="#F1F1F1" height="64.2969" id="SewerObservationComponent" rx="2.5" ry="2.5" style="stroke:#181818;stroke-width:0.5;" width="240" x="1492" y="393.29"/><ellipse cx="1507" cy="409.29" fill="#ADD1B2" rx="11" ry="11" style="stroke:#181818;stroke-width:1.0;"/><path d="M1509.9688,414.9306 Q1509.3906,415.2275 1508.75,415.3681 Q1508.1094,415.5244 1507.4063,415.5244 Q1504.9063,415.5244 1503.5781,413.8838 Q1502.2656,412.2275 1502.2656,409.1025 Q1502.2656,405.9775 1503.5781,404.3213 Q1504.9063,402.665 1507.4063,402.665 Q1508.1094,402.665 1508.75,402.8213 Q1509.4063,402.9775 1509.9688,403.2744 L1509.9688,405.9931 Q1509.3438,405.415 1508.75,405.1494 Q1508.1563,404.8681 1507.5313,404.8681 Q1506.1875,404.8681 1505.5,405.9463 Q1504.8125,407.0088 1504.8125,409.1025 Q1504.8125,411.1963 1505.5,412.2744 Q1506.1875,413.3369 1507.5313,413.3369 Q1508.1563,413.3369 1508.75,413.0713 Q1509.3438,412.79 1509.9688,412.2119 L1509.9688,414.9306 Z " fill="#000000"/><text fill="#000000" font-family="sans-serif" font-size="14" lengthAdjust="spacing" textLength="208" x="1521" y="414.1367">SewerObservationComponent</text><line style="stroke:#181818;stroke-width:0.5;" x1="1493" x2="1731" y1="425.29" y2="425.29"/><line style="stroke:#181818;stroke-width:0.5;" x1="1493" x2="1731" y1="433.29" y2="433.29"/><ellipse cx="1503" cy="446.9384" fill="#84BE84" rx="3" ry="3" style="stroke:#038048;stroke-width:1.0;"/><text fill="#000000" font-family="sans-serif" font-size="14" lengthAdjust="spacing" textLength="200" x="1512" y="450.2851">Set&lt;Sewer&gt; execute(String)</text></g><!--class Sewers--><g id="elem_Sewers"><rect codeLine="46" fill="#F1F1F1" height="80.5938" id="Sewers" rx="2.5" ry="2.5" style="stroke:#181818;stroke-width:0.5;" width="220" x="1502" y="658.89"/><ellipse cx="1582.25" cy="674.89" fill="#B4A7E5" rx="11" ry="11" style="stroke:#181818;stroke-width:1.0;"/><path d="M1578.1719,670.6556 L1578.1719,668.4994 L1585.5625,668.4994 L1585.5625,670.6556 L1583.0938,670.6556 L1583.0938,678.7338 L1585.5625,678.7338 L1585.5625,680.89 L1578.1719,680.89 L1578.1719,678.7338 L1580.6406,678.7338 L1580.6406,670.6556 L1578.1719,670.6556 Z " fill="#000000"/><text fill="#000000" font-family="sans-serif" font-size="14" font-style="italic" lengthAdjust="spacing" textLength="51" x="1602.75" y="679.7367">Sewers</text><line style="stroke:#181818;stroke-width:0.5;" x1="1503" x2="1721" y1="690.89" y2="690.89"/><line style="stroke:#181818;stroke-width:0.5;" x1="1503" x2="1721" y1="698.89" y2="698.89"/><ellipse cx="1513" cy="712.5384" fill="#84BE84" rx="3" ry="3" style="stroke:#038048;stroke-width:1.0;"/><text fill="#000000" font-family="sans-serif" font-size="14" font-style="italic" lengthAdjust="spacing" textLength="194" x="1522" y="715.8851">Set&lt;Sewer&gt; observe(UUID)</text><ellipse cx="1513" cy="728.8353" fill="#84BE84" rx="3" ry="3" style="stroke:#038048;stroke-width:1.0;"/><text fill="#000000" font-family="sans-serif" font-size="14" font-style="italic" lengthAdjust="spacing" textLength="139" x="1522" y="732.182">void indicate(Sewer)</text></g><!--class Sewer--><g id="elem_Sewer"><rect codeLine="53" fill="#F1F1F1" height="113.1875" id="Sewer" rx="2.5" ry="2.5" style="stroke:#181818;stroke-width:0.5;" width="259" x="1207.5" y="642.59"/><ellipse cx="1311.25" cy="658.59" fill="#ADD1B2" rx="11" ry="11" style="stroke:#181818;stroke-width:1.0;"/><path d="M1314.2188,664.2306 Q1313.6406,664.5275 1313,664.6681 Q1312.3594,664.8244 1311.6563,664.8244 Q1309.1563,664.8244 1307.8281,663.1838 Q1306.5156,661.5275 1306.5156,658.4025 Q1306.5156,655.2775 1307.8281,653.6213 Q1309.1563,651.965 1311.6563,651.965 Q1312.3594,651.965 1313,652.1213 Q1313.6563,652.2775 1314.2188,652.5744 L1314.2188,655.2931 Q1313.5938,654.715 1313,654.4494 Q1312.4063,654.1681 1311.7813,654.1681 Q1310.4375,654.1681 1309.75,655.2463 Q1309.0625,656.3088 1309.0625,658.4025 Q1309.0625,660.4963 1309.75,661.5744 Q1310.4375,662.6369 1311.7813,662.6369 Q1312.4063,662.6369 1313,662.3713 Q1313.5938,662.09 1314.2188,661.5119 L1314.2188,664.2306 Z " fill="#000000"/><text fill="#000000" font-family="sans-serif" font-size="14" lengthAdjust="spacing" textLength="43" x="1331.75" y="663.4367">Sewer</text><line style="stroke:#181818;stroke-width:0.5;" x1="1208.5" x2="1465.5" y1="674.59" y2="674.59"/><line style="stroke:#181818;stroke-width:0.5;" x1="1208.5" x2="1465.5" y1="682.59" y2="682.59"/><ellipse cx="1218.5" cy="696.2384" fill="#84BE84" rx="3" ry="3" style="stroke:#038048;stroke-width:1.0;"/><text fill="#000000" font-family="sans-serif" font-size="14" lengthAdjust="spacing" textLength="83" x="1227.5" y="699.5851">UUID getId()</text><ellipse cx="1218.5" cy="712.5353" fill="#84BE84" rx="3" ry="3" style="stroke:#038048;stroke-width:1.0;"/><text fill="#000000" font-family="sans-serif" font-size="14" lengthAdjust="spacing" textLength="230" x="1227.5" y="715.882">KeyPerformanceIndicator getKpi()</text><ellipse cx="1218.5" cy="728.8322" fill="#84BE84" rx="3" ry="3" style="stroke:#038048;stroke-width:1.0;"/><text fill="#000000" font-family="sans-serif" font-size="14" lengthAdjust="spacing" textLength="206" x="1227.5" y="732.1789">Set&lt;Problem&gt; getProblems()</text><ellipse cx="1218.5" cy="745.1291" fill="#84BE84" rx="3" ry="3" style="stroke:#038048;stroke-width:1.0;"/><text fill="#000000" font-family="sans-serif" font-size="14" lengthAdjust="spacing" textLength="233" x="1227.5" y="748.4757">void setProblems(Set&lt;Problem&gt;)</text></g><!--class KeyPerformanceIndicator--><g id="elem_KeyPerformanceIndicator"><rect codeLine="59" fill="#F1F1F1" height="96.8906" id="KeyPerformanceIndicator" rx="2.5" ry="2.5" style="stroke:#181818;stroke-width:0.5;" width="279" x="1168.5" y="854.78"/><ellipse cx="1217.75" cy="870.78" fill="#ADD1B2" rx="11" ry="11" style="stroke:#181818;stroke-width:1.0;"/><path d="M1220.7188,876.4206 Q1220.1406,876.7175 1219.5,876.8581 Q1218.8594,877.0144 1218.1563,877.0144 Q1215.6563,877.0144 1214.3281,875.3738 Q1213.0156,873.7175 1213.0156,870.5925 Q1213.0156,867.4675 1214.3281,865.8113 Q1215.6563,864.155 1218.1563,864.155 Q1218.8594,864.155 1219.5,864.3113 Q1220.1563,864.4675 1220.7188,864.7644 L1220.7188,867.4831 Q1220.0938,866.905 1219.5,866.6394 Q1218.9063,866.3581 1218.2813,866.3581 Q1216.9375,866.3581 1216.25,867.4363 Q1215.5625,868.4988 1215.5625,870.5925 Q1215.5625,872.6863 1216.25,873.7644 Q1216.9375,874.8269 1218.2813,874.8269 Q1218.9063,874.8269 1219.5,874.5613 Q1220.0938,874.28 1220.7188,873.7019 L1220.7188,876.4206 Z " fill="#000000"/><text fill="#000000" font-family="sans-serif" font-size="14" lengthAdjust="spacing" textLength="172" x="1238.25" y="875.6267">KeyPerformanceIndicator</text><line style="stroke:#181818;stroke-width:0.5;" x1="1169.5" x2="1446.5" y1="886.78" y2="886.78"/><line style="stroke:#181818;stroke-width:0.5;" x1="1169.5" x2="1446.5" y1="894.78" y2="894.78"/><ellipse cx="1179.5" cy="908.4284" fill="#84BE84" rx="3" ry="3" style="stroke:#038048;stroke-width:1.0;"/><text fill="#000000" font-family="sans-serif" font-size="14" lengthAdjust="spacing" textLength="253" x="1188.5" y="911.7751">String getPumpPowerConsumption()</text><ellipse cx="1179.5" cy="924.7253" fill="#84BE84" rx="3" ry="3" style="stroke:#038048;stroke-width:1.0;"/><text fill="#000000" font-family="sans-serif" font-size="14" lengthAdjust="spacing" textLength="108" x="1188.5" y="928.072">String getFlow()</text><ellipse cx="1179.5" cy="941.0222" fill="#84BE84" rx="3" ry="3" style="stroke:#038048;stroke-width:1.0;"/><text fill="#000000" font-family="sans-serif" font-size="14" lengthAdjust="spacing" textLength="140" x="1188.5" y="944.3689">Number getRainfall()</text></g><!--class Problem--><g id="elem_Problem"><rect codeLine="64" fill="#F1F1F1" height="80.5938" id="Problem" rx="2.5" ry="2.5" style="stroke:#181818;stroke-width:0.5;" width="243" x="1504.5" y="862.93"/><ellipse cx="1593.25" cy="878.93" fill="#ADD1B2" rx="11" ry="11" style="stroke:#181818;stroke-width:1.0;"/><path d="M1596.2188,884.5706 Q1595.6406,884.8675 1595,885.0081 Q1594.3594,885.1644 1593.6563,885.1644 Q1591.1563,885.1644 1589.8281,883.5238 Q1588.5156,881.8675 1588.5156,878.7425 Q1588.5156,875.6175 1589.8281,873.9613 Q1591.1563,872.305 1593.6563,872.305 Q1594.3594,872.305 1595,872.4613 Q1595.6563,872.6175 1596.2188,872.9144 L1596.2188,875.6331 Q1595.5938,875.055 1595,874.7894 Q1594.4063,874.5081 1593.7813,874.5081 Q1592.4375,874.5081 1591.75,875.5863 Q1591.0625,876.6488 1591.0625,878.7425 Q1591.0625,880.8363 1591.75,881.9144 Q1592.4375,882.9769 1593.7813,882.9769 Q1594.4063,882.9769 1595,882.7113 Q1595.5938,882.43 1596.2188,881.8519 L1596.2188,884.5706 Z " fill="#000000"/><text fill="#000000" font-family="sans-serif" font-size="14" lengthAdjust="spacing" textLength="57" x="1613.75" y="883.7767">Problem</text><line style="stroke:#181818;stroke-width:0.5;" x1="1505.5" x2="1746.5" y1="894.93" y2="894.93"/><line style="stroke:#181818;stroke-width:0.5;" x1="1505.5" x2="1746.5" y1="902.93" y2="902.93"/><ellipse cx="1515.5" cy="916.5784" fill="#84BE84" rx="3" ry="3" style="stroke:#038048;stroke-width:1.0;"/><text fill="#000000" font-family="sans-serif" font-size="14" lengthAdjust="spacing" textLength="130" x="1524.5" y="919.9251">String getReason()</text><ellipse cx="1515.5" cy="932.8753" fill="#84BE84" rx="3" ry="3" style="stroke:#038048;stroke-width:1.0;"/><text fill="#000000" font-family="sans-serif" font-size="14" lengthAdjust="spacing" textLength="217" x="1524.5" y="936.222">Number getOverflowIndication()</text></g><g id="elem_GMN33"><path d="M1996,686.62 L1996,711.7528 L2444,711.7528 L2444,696.62 L2434,686.62 L1996,686.62 " fill="#FEFFDD" style="stroke:#181818;stroke-width:0.5;"/><path d="M2434,686.62 L2434,696.62 L2444,696.62 L2434,686.62 " fill="#FEFFDD" style="stroke:#181818;stroke-width:1.0;"/><text fill="#000000" font-family="sans-serif" font-size="13" lengthAdjust="spacing" textLength="427" x="2002" y="703.6869">Invokes other components to build the final indication composition.</text></g><g id="elem_GMN39"><path d="M1996,890.66 L1996,915.7928 L2534,915.7928 L2534,900.66 L2524,890.66 L1996,890.66 " fill="#FEFFDD" style="stroke:#181818;stroke-width:0.5;"/><path d="M2524,890.66 L2524,900.66 L2534,900.66 L2524,890.66 " fill="#FEFFDD" style="stroke:#181818;stroke-width:1.0;"/><text fill="#000000" font-family="sans-serif" font-size="13" lengthAdjust="spacing" textLength="517" x="2002" y="907.7269">Represents the abstract functionality only; implementation details are elsewhere.</text></g><g id="elem_GMN45"><path d="M4819.5,412.88 L4819.5,438.0128 L5290.5,438.0128 L5290.5,422.88 L5280.5,412.88 L4819.5,412.88 " fill="#FEFFDD" style="stroke:#181818;stroke-width:0.5;"/><path d="M5280.5,412.88 L5280.5,422.88 L5290.5,422.88 L5280.5,412.88 " fill="#FEFFDD" style="stroke:#181818;stroke-width:1.0;"/><text fill="#000000" font-family="sans-serif" font-size="13" lengthAdjust="spacing" textLength="450" x="4825.5" y="429.9469">Frameworks and tools such as the Database, the Web Framework, etc.</text></g><g id="elem_GMN48"><path d="M3678,412.88 L3678,438.0128 L4784,438.0128 L4784,422.88 L4774,412.88 L3678,412.88 " fill="#FEFFDD" style="stroke:#181818;stroke-width:0.5;"/><path d="M4774,412.88 L4774,422.88 L4784,422.88 L4774,412.88 " fill="#FEFFDD" style="stroke:#181818;stroke-width:1.0;"/><text fill="#000000" font-family="sans-serif" font-size="13" lengthAdjust="spacing" textLength="1085" x="3684" y="429.9469">Convert data from the format most convenient for the use cases and entities, to the format most convenient for some external agency such as the Database or the Web.</text></g><g id="elem_GMN51"><path d="M2970.5,412.88 L2970.5,438.0128 L3643.5,438.0128 L3643.5,422.88 L3633.5,412.88 L2970.5,412.88 " fill="#FEFFDD" style="stroke:#181818;stroke-width:0.5;"/><path d="M3633.5,412.88 L3633.5,422.88 L3643.5,422.88 L3633.5,412.88 " fill="#FEFFDD" style="stroke:#181818;stroke-width:1.0;"/><text fill="#000000" font-family="sans-serif" font-size="13" lengthAdjust="spacing" textLength="652" x="2976.5" y="429.9469">Application specific business rules. It encapsulates and implements all of the use cases of the system.</text></g><g id="elem_GMN54"><path d="M1996.5,412.88 L1996.5,438.0128 L2935.5,438.0128 L2935.5,422.88 L2925.5,412.88 L1996.5,412.88 " fill="#FEFFDD" style="stroke:#181818;stroke-width:0.5;"/><path d="M2925.5,412.88 L2925.5,422.88 L2935.5,422.88 L2925.5,412.88 " fill="#FEFFDD" style="stroke:#181818;stroke-width:1.0;"/><text fill="#000000" font-family="sans-serif" font-size="13" lengthAdjust="spacing" textLength="918" x="2002.5" y="429.9469">Entities encapsulate Enterprise wide business rules. An entity can be an object with methods, or it can be a set of data structures and functions.</text></g><!--link SewerOverflowIndicationComponent to GMN33--><g id="link_SewerOverflowIndicationComponent_GMN33"><path d="M886.83,458.02 C886.83,495.12 886.83,550.67 886.83,550.67 C886.83,550.67 2220.25,550.67 2220.25,550.67 C2220.25,550.67 2220.25,650.13 2220.25,686.27 " fill="none" id="SewerOverflowIndicationComponent-GMN33" style="stroke:#181818;stroke-width:1.0;stroke-dasharray:7.0,7.0;"/></g><!--link Sewers to GMN39--><g id="link_Sewers_GMN39"><path d="M1722.46,725.67 C1897.75,725.67 2220,725.67 2220,725.67 C2220,725.67 2220,849.16 2220,890.17 " fill="none" id="Sewers-GMN39" style="stroke:#181818;stroke-width:1.0;stroke-dasharray:7.0,7.0;"/></g><!--link drivers to GMN45--><g id="link_drivers_GMN45"><path d="M1972.7618,301.67 C1974.2043,301.67 1975.821,301.67 1977.609,301.67 C1984.7609,301.67 1994.6537,301.67 2007.1031,301.67 C2032.0019,301.67 2067.127,301.67 2111.0044,301.67 C2198.7591,301.67 2321.5226,301.67 2467.5014,301.67 C2759.4591,301.67 3144.2781,301.67 3527.6113,301.67 C4294.2775,301.67 5055,301.67 5055,301.67 C5055,301.67 5055,381.04 5055,412.66 " fill="none" id="drivers-GMN45" style="stroke:#181818;stroke-width:1.0;stroke-dasharray:7.0,7.0;"/></g><!--link adapters to GMN48--><g id="link_adapters_GMN48"><path d="M1925.3872,363.67 C1925.9478,363.67 1926.5326,363.67 1927.1416,363.67 C1929.5776,363.67 1932.3996,363.67 1935.5944,363.67 C1948.3733,363.67 1967.1157,363.67 1990.9697,363.67 C2038.6777,363.67 2106.832,363.67 2188.6172,363.67 C2352.1875,363.67 2570.2813,363.67 2788.375,363.67 C3224.5625,363.67 3660.75,363.67 3660.75,363.67 C3660.75,363.67 3660.75,425.67 3660.75,425.67 C3660.75,425.67 3666.75,425.67 3677.51,425.67 " fill="none" id="adapters-GMN48" style="stroke:#181818;stroke-width:1.0;stroke-dasharray:7.0,7.0;"/></g><!--link use_cases to GMN51--><g id="link_use_cases_GMN51"><path d="M1877.1892,318.67 C1879.1983,318.67 1881.5258,318.67 1884.1606,318.67 C1894.7002,318.67 1910.1582,318.67 1929.832,318.67 C1969.1797,318.67 2025.3906,318.67 2092.8438,318.67 C2227.75,318.67 2407.625,318.67 2587.5,318.67 C2947.25,318.67 3307,318.67 3307,318.67 C3307,318.67 3307,384.49 3307,412.78 " fill="none" id="use_cases-GMN51" style="stroke:#181818;stroke-width:1.0;stroke-dasharray:7.0,7.0;"/></g><!--link entities to GMN54--><g id="link_entities_GMN54"><path d="M1828.3219,425.67 C1828.5386,425.67 1828.7593,425.67 1828.9841,425.67 C1829.4336,425.67 1829.8991,425.67 1830.3803,425.67 C1831.3429,425.67 1832.3686,425.67 1833.4559,425.67 C1842.1544,425.67 1854.7937,425.67 1870.5575,425.67 C1902.085,425.67 1946.11,425.67 1996.1,425.67 " fill="none" id="entities-GMN54" style="stroke:#181818;stroke-width:1.0;stroke-dasharray:7.0,7.0;"/></g><!--link SewerOverflowIndicationService to SewerOverflowIndicationComponent--><g id="link_SewerOverflowIndicationService_SewerOverflowIndicationComponent"><path codeLine="80" d="M923,333.48 C923,351.75 923,368.53 923,386.84 " fill="none" id="SewerOverflowIndicationService-to-SewerOverflowIndicationComponent" style="stroke:#181818;stroke-width:1.0;"/><polygon fill="#181818" points="923,392.84,927,383.84,923,387.84,919,383.84,923,392.84" style="stroke:#181818;stroke-width:1.0;"/></g><!--link SewerOverflowIndicationComponent to Sewers--><g id="link_SewerOverflowIndicationComponent_Sewers"><path codeLine="81" d="M1064.44,425.67 C1229.24,425.67 1479.25,425.67 1479.25,425.67 C1479.25,425.67 1479.25,699.67 1479.25,699.67 C1479.25,699.67 1482.34,699.67 1495.77,699.67 " fill="none" id="SewerOverflowIndicationComponent-to-Sewers" style="stroke:#181818;stroke-width:1.0;"/><polygon fill="#181818" points="1501.77,699.67,1492.77,695.67,1496.77,699.67,1492.77,703.67,1501.77,699.67" style="stroke:#181818;stroke-width:1.0;"/></g><!--link SewerOverflowIndicationComponent to RainIndicationComponent--><g id="link_SewerOverflowIndicationComponent_RainIndicationComponent"><path codeLine="82" d="M975.17,457.92 C975.17,510.6 975.17,608.09 975.17,660.75 " fill="none" id="SewerOverflowIndicationComponent-to-RainIndicationComponent" style="stroke:#181818;stroke-width:1.0;"/><polygon fill="#181818" points="975.17,666.75,979.17,657.75,975.17,661.75,971.17,657.75,975.17,666.75" style="stroke:#181818;stroke-width:1.0;"/></g><!--link SewerOverflowIndicationComponent to PumpIndicationComponent--><g id="link_SewerOverflowIndicationComponent_PumpIndicationComponent"><path codeLine="83" d="M790.25,457.98 C790.25,530.62 790.25,699.67 790.25,699.67 C790.25,699.67 785.67,699.67 769.95,699.67 " fill="none" id="SewerOverflowIndicationComponent-to-PumpIndicationComponent" style="stroke:#181818;stroke-width:1.0;"/><polygon fill="#181818" points="763.95,699.67,772.95,703.67,768.95,699.67,772.95,695.67,763.95,699.67" style="stroke:#181818;stroke-width:1.0;"/></g><!--link SewerOverflowIndicationComponent to FlowIndicationComponent--><g id="link_SewerOverflowIndicationComponent_FlowIndicationComponent"><path codeLine="84" d="M781.58,425.67 C606.46,425.67 331,425.67 331,425.67 C331,425.67 331,588.28 331,660.74 " fill="none" id="SewerOverflowIndicationComponent-to-FlowIndicationComponent" style="stroke:#181818;stroke-width:1.0;"/><polygon fill="#181818" points="331,666.74,335,657.74,331,661.74,327,657.74,331,666.74" style="stroke:#181818;stroke-width:1.0;"/></g><!--link SewerObservationService to SewerObservationComponent--><g id="link_SewerObservationService_SewerObservationComponent"><path codeLine="85" d="M1612,333.48 C1612,351.75 1612,368.53 1612,386.84 " fill="none" id="SewerObservationService-to-SewerObservationComponent" style="stroke:#181818;stroke-width:1.0;"/><polygon fill="#181818" points="1612,392.84,1616,383.84,1612,387.84,1608,383.84,1612,392.84" style="stroke:#181818;stroke-width:1.0;"/></g><!--link SewerObservationComponent to Sewers--><g id="link_SewerObservationComponent_Sewers"><path codeLine="86" d="M1612,457.92 C1612,508.06 1612,598.2 1612,652.76 " fill="none" id="SewerObservationComponent-to-Sewers" style="stroke:#181818;stroke-width:1.0;"/><polygon fill="#181818" points="1612,658.76,1616,649.76,1612,653.76,1608,649.76,1612,658.76" style="stroke:#181818;stroke-width:1.0;"/></g><!--link Sewer to Problem--><g id="link_Sewer_Problem"><path codeLine="87" d="M1457,756.15 C1457,816.65 1457,903.67 1457,903.67 C1457,903.67 1471.43,903.67 1498.08,903.67 " fill="none" id="Sewer-to-Problem" style="stroke:#181818;stroke-width:1.0;"/><polygon fill="#181818" points="1504.08,903.67,1495.08,899.67,1499.08,903.67,1495.08,907.67,1504.08,903.67" style="stroke:#181818;stroke-width:1.0;"/></g><!--link Sewer to KeyPerformanceIndicator--><g id="link_Sewer_KeyPerformanceIndicator"><path codeLine="88" d="M1327.5,756.02 C1327.5,786.92 1327.5,818.74 1327.5,848.31 " fill="none" id="Sewer-to-KeyPerformanceIndicator" style="stroke:#181818;stroke-width:1.0;"/><polygon fill="#181818" points="1327.5,854.31,1331.5,845.31,1327.5,849.31,1323.5,845.31,1327.5,854.31" style="stroke:#181818;stroke-width:1.0;"/></g><!--SRC=[tLZVRzis47xNNt6pNrmi5OPX3mjM12ZQ1Z2ARK62eey3HPripXGfa9HT8yZ_lgCeoN9iDNPgAskVB5F7k-yx7k-7VYeCc-KCIejJvT3ac0hcy8Rn1PkXXOn9Yv5T25KmmtAGGg5R5mZQkBcEx5olmD8-r7urAi8-I8rOeh70BAGOSvqNJAtZmcXNoSKMLsZYHcfi5-j4bWZt3wq6bhB27QmYRiN7l_-QPSblNLN4xH_EB1whAzvi76VP9Rkyx6f5vOGJtw0qRZMCCvwboIzTxOakLShC-jkrnqAbWjEPngtEiHJvbhEvLiveUGvZSQDxh0rJCpmJIPrODCjXE3wsDH3583a4mMrBNwDNRLcVpMHSwp_l1GcIYq8CwDokjG4TlC_ia4wcdOd4V417FxOueBFxJEznUCGbinP6TtxZtwG_ater3RbKQ7L7-KPm79qbGN_T9jn703yljKYXodgJFrdnviuPeMON47wlNaKF3O7hBHtl2AXMP7jqpj8IznZjGCSlo4lt5FYRCYy61zzZz6ZmjqoemS7t63qQV4yC3iJYAUk7qr7Q-QpfdCv1Po-7E9ggfLvGQwdT70tmPjs2qv2KGgP0Bo0JYaaGxVuWQ8L_ZYDKANX2suTKDJ-dpaexBLMFhN0IT-ZUL09NTKuA9x0JJvlj9msallulxhMw0xi9emrmuQUlZ1750DwEJjzL1SK13Dopn3h3k7leuAgfJJvzchv_zKYiYlyc92VLXjE7_5x4qIqM1cs8NmhR1X9afUBUqKpwUggLNFy18Y-ew99iYEWK7HEIfZH3zPrcsHNT1-o9xT6v6zd09no0Tp7Cq4tJIUNfZxY-eGZG9cUAOtsdjV4Y7miHPFn9tOIkuig_g9zjU5iNwSrgLxnpENeiZOReCkC-ck66LDUXOaPLyKQJidTQMNhsPrdxe9NnPJ-i_LNc2LQkyWKfOr9EkcKzk60qL6CNrmOVSxf5PXiM6yIxMNpoh6iLNHkMuqgR1GKxHRVJciBUbdpkUVjhyvuvbX2VY-hVPqoWtN81w7ZdLZp_KaTqOBJW82Lha1bIK5KQV-0EScsTR_6Ng8JFYxHSlIPNG_s9XY0qxhxmrUg9tLRJ_81VoBGlPTJ5AxxUonfgKyJx94GtuH6zBGhPL51R81UPu5HbhL18yMTAIP43KqUyE2jiAIb_1g9jhgA_Kde0sywe5-pQEWgtqw9kWphwq7o7wk233xuU5KOGbfL8SOVEMzMCIvmfI2WfAweU_o9bvPLmSyZHpNLAHqXk5wuLylcfWkoZWx9uoLrfQcyqsTnsc0uzxRn-VVM2NTlBTRWduBs_T7_Nb8uUV7vKkZr3wezAz_eyz_FWAUS4v8uVKgBXnwB_QzOvf8a_6VO3kydlYjCp9e3_0000]--></g></svg>