<svg xmlns="http://www.w3.org/2000/svg" xmlns:xlink="http://www.w3.org/1999/xlink" contentStyleType="text/css" height="821px" preserveAspectRatio="none" style="width:792px;height:821px;background:#FFFFFF;" version="1.1" viewBox="0 0 792 821" width="792px" zoomAndPan="magnify"><defs/><g><!--cluster entities--><g id="cluster_entities"><path d="M8.5,6 L530.5,6 A3.75,3.75 0 0 1 533,8.5 L540,28.2969 L782.5,28.2969 A2.5,2.5 0 0 1 785,30.7969 L785,811.87 A2.5,2.5 0 0 1 782.5,814.37 L8.5,814.37 A2.5,2.5 0 0 1 6,811.87 L6,8.5 A2.5,2.5 0 0 1 8.5,6 " fill="#FCFDB0" style="stroke:#000000;stroke-width:1.5;"/><line style="stroke:#000000;stroke-width:1.5;" x1="6" x2="540" y1="28.2969" y2="28.2969"/><text fill="#000000" font-family="sans-serif" font-size="14" font-weight="bold" lengthAdjust="spacing" textLength="521" x="10" y="20.9951">de.company.prototype.sewer.drivers.adapters.use_cases.entities</text></g><!--cluster boundary--><g id="cluster_boundary"><path d="M44.5,49 L187.5,49 A3.75,3.75 0 0 1 190,51.5 L197,71.2969 L401.5,71.2969 A2.5,2.5 0 0 1 404,73.7969 L404,310.09 A2.5,2.5 0 0 1 401.5,312.59 L44.5,312.59 A2.5,2.5 0 0 1 42,310.09 L42,51.5 A2.5,2.5 0 0 1 44.5,49 " fill="#00FF00" style="stroke:#000000;stroke-width:1.5;"/><line style="stroke:#000000;stroke-width:1.5;" x1="42" x2="197" y1="71.2969" y2="71.2969"/><text fill="#000000" font-family="sans-serif" font-size="14" font-weight="bold" lengthAdjust="spacing" textLength="142" x="46" y="63.9951">indicate.boundary</text></g><!--cluster control--><g id="cluster_control"><path d="M68.5,173.29 L125.5,173.29 A3.75,3.75 0 0 1 128,175.79 L135,195.5869 L377.5,195.5869 A2.5,2.5 0 0 1 380,198.0869 L380,286.09 A2.5,2.5 0 0 1 377.5,288.59 L68.5,288.59 A2.5,2.5 0 0 1 66,286.09 L66,175.79 A2.5,2.5 0 0 1 68.5,173.29 " fill="#FFA500" style="stroke:#000000;stroke-width:1.5;"/><line style="stroke:#000000;stroke-width:1.5;" x1="66" x2="135" y1="195.5869" y2="195.5869"/><text fill="#000000" font-family="sans-serif" font-size="14" font-weight="bold" lengthAdjust="spacing" textLength="56" x="70" y="188.2851">control</text></g><!--cluster boundary--><g id="cluster_boundary"><path d="M430.5,49 L576.5,49 A3.75,3.75 0 0 1 579,51.5 L586,71.2969 L745.5,71.2969 A2.5,2.5 0 0 1 748,73.7969 L748,310.09 A2.5,2.5 0 0 1 745.5,312.59 L430.5,312.59 A2.5,2.5 0 0 1 428,310.09 L428,51.5 A2.5,2.5 0 0 1 430.5,49 " fill="#00FF00" style="stroke:#000000;stroke-width:1.5;"/><line style="stroke:#000000;stroke-width:1.5;" x1="428" x2="586" y1="71.2969" y2="71.2969"/><text fill="#000000" font-family="sans-serif" font-size="14" font-weight="bold" lengthAdjust="spacing" textLength="145" x="432" y="63.9951">observe.boundary</text></g><!--cluster control--><g id="cluster_control"><path d="M454.5,173.29 L511.5,173.29 A3.75,3.75 0 0 1 514,175.79 L521,195.5869 L721.5,195.5869 A2.5,2.5 0 0 1 724,198.0869 L724,286.09 A2.5,2.5 0 0 1 721.5,288.59 L454.5,288.59 A2.5,2.5 0 0 1 452,286.09 L452,175.79 A2.5,2.5 0 0 1 454.5,173.29 " fill="#FFA500" style="stroke:#000000;stroke-width:1.5;"/><line style="stroke:#000000;stroke-width:1.5;" x1="452" x2="521" y1="195.5869" y2="195.5869"/><text fill="#000000" font-family="sans-serif" font-size="14" font-weight="bold" lengthAdjust="spacing" textLength="56" x="456" y="188.2851">control</text></g><!--cluster sewer--><g id="cluster_sewer"><path d="M32.5,336.59 L83.5,336.59 A3.75,3.75 0 0 1 86,339.09 L93,358.8869 L758.5,358.8869 A2.5,2.5 0 0 1 761,361.3869 L761,787.87 A2.5,2.5 0 0 1 758.5,790.37 L32.5,790.37 A2.5,2.5 0 0 1 30,787.87 L30,339.09 A2.5,2.5 0 0 1 32.5,336.59 " fill="none" style="stroke:#000000;stroke-width:1.5;"/><line style="stroke:#000000;stroke-width:1.5;" x1="30" x2="93" y1="358.8869" y2="358.8869"/><text fill="#000000" font-family="sans-serif" font-size="14" font-weight="bold" lengthAdjust="spacing" textLength="50" x="34" y="351.5851">sewer</text></g><!--cluster boundary--><g id="cluster_boundary"><path d="M56.5,379.59 L132.5,379.59 A3.75,3.75 0 0 1 135,382.09 L142,401.8869 L734.5,401.8869 A2.5,2.5 0 0 1 737,404.3869 L737,591.98 A2.5,2.5 0 0 1 734.5,594.48 L56.5,594.48 A2.5,2.5 0 0 1 54,591.98 L54,382.09 A2.5,2.5 0 0 1 56.5,379.59 " fill="#00FF00" style="stroke:#000000;stroke-width:1.5;"/><line style="stroke:#000000;stroke-width:1.5;" x1="54" x2="142" y1="401.8869" y2="401.8869"/><text fill="#000000" font-family="sans-serif" font-size="14" font-weight="bold" lengthAdjust="spacing" textLength="75" x="58" y="394.5851">boundary</text></g><!--cluster entity--><g id="cluster_entity"><path d="M80.5,422.59 L187.5,422.59 A3.75,3.75 0 0 1 190,425.09 L197,444.8869 L363.5,444.8869 A2.5,2.5 0 0 1 366,447.3869 L366,567.98 A2.5,2.5 0 0 1 363.5,570.48 L80.5,570.48 A2.5,2.5 0 0 1 78,567.98 L78,425.09 A2.5,2.5 0 0 1 80.5,422.59 " fill="#FCFDB0" style="stroke:#000000;stroke-width:1.5;"/><line style="stroke:#000000;stroke-width:1.5;" x1="78" x2="197" y1="444.8869" y2="444.8869"/><text fill="#000000" font-family="sans-serif" font-size="14" font-weight="bold" lengthAdjust="spacing" textLength="106" x="82" y="437.5851">control.entity</text></g><!--cluster entity--><g id="cluster_entity"><path d="M62.5,618.48 L277.5,618.48 A3.75,3.75 0 0 1 280,620.98 L287,640.7769 L369.5,640.7769 A2.5,2.5 0 0 1 372,643.2769 L372,763.87 A2.5,2.5 0 0 1 369.5,766.37 L62.5,766.37 A2.5,2.5 0 0 1 60,763.87 L60,620.98 A2.5,2.5 0 0 1 62.5,618.48 " fill="#FCFDB0" style="stroke:#000000;stroke-width:1.5;"/><line style="stroke:#000000;stroke-width:1.5;" x1="60" x2="287" y1="640.7769" y2="640.7769"/><text fill="#000000" font-family="sans-serif" font-size="14" font-weight="bold" lengthAdjust="spacing" textLength="214" x="64" y="633.4751">kpi.boundary.control.entity</text></g><!--cluster entity--><g id="cluster_entity"><path d="M398.5,626.63 L655.5,626.63 A3.75,3.75 0 0 1 658,629.13 L665,648.9269 L669.5,648.9269 A2.5,2.5 0 0 1 672,651.4269 L672,755.72 A2.5,2.5 0 0 1 669.5,758.22 L398.5,758.22 A2.5,2.5 0 0 1 396,755.72 L396,629.13 A2.5,2.5 0 0 1 398.5,626.63 " fill="#FCFDB0" style="stroke:#000000;stroke-width:1.5;"/><line style="stroke:#000000;stroke-width:1.5;" x1="396" x2="665" y1="648.9269" y2="648.9269"/><text fill="#000000" font-family="sans-serif" font-size="14" font-weight="bold" lengthAdjust="spacing" textLength="256" x="400" y="641.6251">problem.boundary.control.entity</text></g><!--class SewerOverflowIndicationService--><g id="elem_SewerOverflowIndicationService"><rect codeLine="22" fill="#F1F1F1" height="64.2969" id="SewerOverflowIndicationService" rx="2.5" ry="2.5" style="stroke:#181818;stroke-width:0.5;" width="250" x="98" y="84"/><ellipse cx="113" cy="100" fill="#ADD1B2" rx="11" ry="11" style="stroke:#181818;stroke-width:1.0;"/><path d="M115.9688,105.6406 Q115.3906,105.9375 114.75,106.0781 Q114.1094,106.2344 113.4063,106.2344 Q110.9063,106.2344 109.5781,104.5938 Q108.2656,102.9375 108.2656,99.8125 Q108.2656,96.6875 109.5781,95.0313 Q110.9063,93.375 113.4063,93.375 Q114.1094,93.375 114.75,93.5313 Q115.4063,93.6875 115.9688,93.9844 L115.9688,96.7031 Q115.3438,96.125 114.75,95.8594 Q114.1563,95.5781 113.5313,95.5781 Q112.1875,95.5781 111.5,96.6563 Q110.8125,97.7188 110.8125,99.8125 Q110.8125,101.9063 111.5,102.9844 Q112.1875,104.0469 113.5313,104.0469 Q114.1563,104.0469 114.75,103.7813 Q115.3438,103.5 115.9688,102.9219 L115.9688,105.6406 Z " fill="#000000"/><text fill="#000000" font-family="sans-serif" font-size="14" lengthAdjust="spacing" textLength="218" x="127" y="104.8467">SewerOverflowIndicationService</text><line style="stroke:#181818;stroke-width:0.5;" x1="99" x2="347" y1="116" y2="116"/><line style="stroke:#181818;stroke-width:0.5;" x1="99" x2="347" y1="124" y2="124"/><ellipse cx="109" cy="137.6484" fill="#84BE84" rx="3" ry="3" style="stroke:#038048;stroke-width:1.0;"/><text fill="#000000" font-family="sans-serif" font-size="14" lengthAdjust="spacing" textLength="123" x="118" y="140.9951">void serve(Sewer)</text></g><!--class SewerOverflowIndicationComponent--><g id="elem_SewerOverflowIndicationComponent"><rect codeLine="25" fill="#F1F1F1" height="64.2969" id="SewerOverflowIndicationComponent" rx="2.5" ry="2.5" style="stroke:#181818;stroke-width:0.5;" width="282" x="82" y="208.29"/><ellipse cx="97" cy="224.29" fill="#ADD1B2" rx="11" ry="11" style="stroke:#181818;stroke-width:1.0;"/><path d="M99.9688,229.9306 Q99.3906,230.2275 98.75,230.3681 Q98.1094,230.5244 97.4063,230.5244 Q94.9063,230.5244 93.5781,228.8837 Q92.2656,227.2275 92.2656,224.1025 Q92.2656,220.9775 93.5781,219.3212 Q94.9063,217.665 97.4063,217.665 Q98.1094,217.665 98.75,217.8212 Q99.4063,217.9775 99.9688,218.2744 L99.9688,220.9931 Q99.3438,220.415 98.75,220.1494 Q98.1563,219.8681 97.5313,219.8681 Q96.1875,219.8681 95.5,220.9462 Q94.8125,222.0087 94.8125,224.1025 Q94.8125,226.1962 95.5,227.2744 Q96.1875,228.3369 97.5313,228.3369 Q98.1563,228.3369 98.75,228.0712 Q99.3438,227.79 99.9688,227.2119 L99.9688,229.9306 Z " fill="#000000"/><text fill="#000000" font-family="sans-serif" font-size="14" lengthAdjust="spacing" textLength="250" x="111" y="229.1367">SewerOverflowIndicationComponent</text><line style="stroke:#181818;stroke-width:0.5;" x1="83" x2="363" y1="240.29" y2="240.29"/><line style="stroke:#181818;stroke-width:0.5;" x1="83" x2="363" y1="248.29" y2="248.29"/><ellipse cx="93" cy="261.9384" fill="#84BE84" rx="3" ry="3" style="stroke:#038048;stroke-width:1.0;"/><text fill="#000000" font-family="sans-serif" font-size="14" lengthAdjust="spacing" textLength="141" x="102" y="265.2851">void execute(Sewer)</text></g><!--class SewerObservationService--><g id="elem_SewerObservationService"><rect codeLine="28" fill="#F1F1F1" height="64.2969" id="SewerObservationService" rx="2.5" ry="2.5" style="stroke:#181818;stroke-width:0.5;" width="208" x="484" y="84"/><ellipse cx="499" cy="100" fill="#ADD1B2" rx="11" ry="11" style="stroke:#181818;stroke-width:1.0;"/><path d="M501.9688,105.6406 Q501.3906,105.9375 500.75,106.0781 Q500.1094,106.2344 499.4063,106.2344 Q496.9063,106.2344 495.5781,104.5938 Q494.2656,102.9375 494.2656,99.8125 Q494.2656,96.6875 495.5781,95.0313 Q496.9063,93.375 499.4063,93.375 Q500.1094,93.375 500.75,93.5313 Q501.4063,93.6875 501.9688,93.9844 L501.9688,96.7031 Q501.3438,96.125 500.75,95.8594 Q500.1563,95.5781 499.5313,95.5781 Q498.1875,95.5781 497.5,96.6563 Q496.8125,97.7188 496.8125,99.8125 Q496.8125,101.9063 497.5,102.9844 Q498.1875,104.0469 499.5313,104.0469 Q500.1563,104.0469 500.75,103.7813 Q501.3438,103.5 501.9688,102.9219 L501.9688,105.6406 Z " fill="#000000"/><text fill="#000000" font-family="sans-serif" font-size="14" lengthAdjust="spacing" textLength="176" x="513" y="104.8467">SewerObservationService</text><line style="stroke:#181818;stroke-width:0.5;" x1="485" x2="691" y1="116" y2="116"/><line style="stroke:#181818;stroke-width:0.5;" x1="485" x2="691" y1="124" y2="124"/><ellipse cx="495" cy="137.6484" fill="#84BE84" rx="3" ry="3" style="stroke:#038048;stroke-width:1.0;"/><text fill="#000000" font-family="sans-serif" font-size="14" lengthAdjust="spacing" textLength="182" x="504" y="140.9951">Set&lt;Sewer&gt; serve(String)</text></g><!--class SewerObservationComponent--><g id="elem_SewerObservationComponent"><rect codeLine="31" fill="#F1F1F1" height="64.2969" id="SewerObservationComponent" rx="2.5" ry="2.5" style="stroke:#181818;stroke-width:0.5;" width="240" x="468" y="208.29"/><ellipse cx="483" cy="224.29" fill="#ADD1B2" rx="11" ry="11" style="stroke:#181818;stroke-width:1.0;"/><path d="M485.9688,229.9306 Q485.3906,230.2275 484.75,230.3681 Q484.1094,230.5244 483.4063,230.5244 Q480.9063,230.5244 479.5781,228.8837 Q478.2656,227.2275 478.2656,224.1025 Q478.2656,220.9775 479.5781,219.3212 Q480.9063,217.665 483.4063,217.665 Q484.1094,217.665 484.75,217.8212 Q485.4063,217.9775 485.9688,218.2744 L485.9688,220.9931 Q485.3438,220.415 484.75,220.1494 Q484.1563,219.8681 483.5313,219.8681 Q482.1875,219.8681 481.5,220.9462 Q480.8125,222.0087 480.8125,224.1025 Q480.8125,226.1962 481.5,227.2744 Q482.1875,228.3369 483.5313,228.3369 Q484.1563,228.3369 484.75,228.0712 Q485.3438,227.79 485.9688,227.2119 L485.9688,229.9306 Z " fill="#000000"/><text fill="#000000" font-family="sans-serif" font-size="14" lengthAdjust="spacing" textLength="208" x="497" y="229.1367">SewerObservationComponent</text><line style="stroke:#181818;stroke-width:0.5;" x1="469" x2="707" y1="240.29" y2="240.29"/><line style="stroke:#181818;stroke-width:0.5;" x1="469" x2="707" y1="248.29" y2="248.29"/><ellipse cx="479" cy="261.9384" fill="#84BE84" rx="3" ry="3" style="stroke:#038048;stroke-width:1.0;"/><text fill="#000000" font-family="sans-serif" font-size="14" lengthAdjust="spacing" textLength="200" x="488" y="265.2851">Set&lt;Sewer&gt; execute(String)</text></g><!--class Sewers--><g id="elem_Sewers"><rect codeLine="34" fill="#F1F1F1" height="80.5938" id="Sewers" rx="2.5" ry="2.5" style="stroke:#181818;stroke-width:0.5;" width="336" x="385" y="465.74"/><ellipse cx="523.25" cy="481.74" fill="#B4A7E5" rx="11" ry="11" style="stroke:#181818;stroke-width:1.0;"/><path d="M519.1719,477.5056 L519.1719,475.3494 L526.5625,475.3494 L526.5625,477.5056 L524.0938,477.5056 L524.0938,485.5838 L526.5625,485.5838 L526.5625,487.74 L519.1719,487.74 L519.1719,485.5838 L521.6406,485.5838 L521.6406,477.5056 L519.1719,477.5056 Z " fill="#000000"/><text fill="#000000" font-family="sans-serif" font-size="14" font-style="italic" lengthAdjust="spacing" textLength="51" x="543.75" y="486.5867">Sewers</text><line style="stroke:#181818;stroke-width:0.5;" x1="386" x2="720" y1="497.74" y2="497.74"/><line style="stroke:#181818;stroke-width:0.5;" x1="386" x2="720" y1="505.74" y2="505.74"/><ellipse cx="396" cy="519.3884" fill="#84BE84" rx="3" ry="3" style="stroke:#038048;stroke-width:1.0;"/><text fill="#000000" font-family="sans-serif" font-size="14" font-style="italic" lengthAdjust="spacing" textLength="194" x="405" y="522.7351">Set&lt;Sewer&gt; observe(UUID)</text><ellipse cx="396" cy="535.6853" fill="#84BE84" rx="3" ry="3" style="stroke:#038048;stroke-width:1.0;"/><text fill="#000000" font-family="sans-serif" font-size="14" font-style="italic" lengthAdjust="spacing" textLength="310" x="405" y="539.032">void indicate(UUID, KeyPerformanceIndicator)</text></g><!--class Sewer--><g id="elem_Sewer"><rect codeLine="38" fill="#F1F1F1" height="96.8906" id="Sewer" rx="2.5" ry="2.5" style="stroke:#181818;stroke-width:0.5;" width="256" x="94" y="457.59"/><ellipse cx="196.25" cy="473.59" fill="#ADD1B2" rx="11" ry="11" style="stroke:#181818;stroke-width:1.0;"/><path d="M199.2188,479.2306 Q198.6406,479.5275 198,479.6681 Q197.3594,479.8244 196.6563,479.8244 Q194.1563,479.8244 192.8281,478.1838 Q191.5156,476.5275 191.5156,473.4025 Q191.5156,470.2775 192.8281,468.6213 Q194.1563,466.965 196.6563,466.965 Q197.3594,466.965 198,467.1213 Q198.6563,467.2775 199.2188,467.5744 L199.2188,470.2931 Q198.5938,469.715 198,469.4494 Q197.4063,469.1681 196.7813,469.1681 Q195.4375,469.1681 194.75,470.2463 Q194.0625,471.3088 194.0625,473.4025 Q194.0625,475.4963 194.75,476.5744 Q195.4375,477.6369 196.7813,477.6369 Q197.4063,477.6369 198,477.3713 Q198.5938,477.09 199.2188,476.5119 L199.2188,479.2306 Z " fill="#000000"/><text fill="#000000" font-family="sans-serif" font-size="14" lengthAdjust="spacing" textLength="43" x="216.75" y="478.4367">Sewer</text><line style="stroke:#181818;stroke-width:0.5;" x1="95" x2="349" y1="489.59" y2="489.59"/><line style="stroke:#181818;stroke-width:0.5;" x1="95" x2="349" y1="497.59" y2="497.59"/><ellipse cx="105" cy="511.2384" fill="#84BE84" rx="3" ry="3" style="stroke:#038048;stroke-width:1.0;"/><text fill="#000000" font-family="sans-serif" font-size="14" lengthAdjust="spacing" textLength="83" x="114" y="514.5851">UUID getId()</text><ellipse cx="105" cy="527.5353" fill="#84BE84" rx="3" ry="3" style="stroke:#038048;stroke-width:1.0;"/><text fill="#000000" font-family="sans-serif" font-size="14" lengthAdjust="spacing" textLength="230" x="114" y="530.882">KeyPerformanceIndicator getKpi()</text><ellipse cx="105" cy="543.8322" fill="#84BE84" rx="3" ry="3" style="stroke:#038048;stroke-width:1.0;"/><text fill="#000000" font-family="sans-serif" font-size="14" lengthAdjust="spacing" textLength="151" x="114" y="547.1789">Problem getProblem()</text></g><!--class KeyPerformanceIndicator--><g id="elem_KeyPerformanceIndicator"><rect codeLine="43" fill="#F1F1F1" height="96.8906" id="KeyPerformanceIndicator" rx="2.5" ry="2.5" style="stroke:#181818;stroke-width:0.5;" width="279" x="76.5" y="653.48"/><ellipse cx="125.75" cy="669.48" fill="#ADD1B2" rx="11" ry="11" style="stroke:#181818;stroke-width:1.0;"/><path d="M128.7188,675.1206 Q128.1406,675.4175 127.5,675.5581 Q126.8594,675.7144 126.1563,675.7144 Q123.6563,675.7144 122.3281,674.0738 Q121.0156,672.4175 121.0156,669.2925 Q121.0156,666.1675 122.3281,664.5113 Q123.6563,662.855 126.1563,662.855 Q126.8594,662.855 127.5,663.0113 Q128.1563,663.1675 128.7188,663.4644 L128.7188,666.1831 Q128.0938,665.605 127.5,665.3394 Q126.9063,665.0581 126.2813,665.0581 Q124.9375,665.0581 124.25,666.1363 Q123.5625,667.1988 123.5625,669.2925 Q123.5625,671.3863 124.25,672.4644 Q124.9375,673.5269 126.2813,673.5269 Q126.9063,673.5269 127.5,673.2613 Q128.0938,672.98 128.7188,672.4019 L128.7188,675.1206 Z " fill="#000000"/><text fill="#000000" font-family="sans-serif" font-size="14" lengthAdjust="spacing" textLength="172" x="146.25" y="674.3267">KeyPerformanceIndicator</text><line style="stroke:#181818;stroke-width:0.5;" x1="77.5" x2="354.5" y1="685.48" y2="685.48"/><line style="stroke:#181818;stroke-width:0.5;" x1="77.5" x2="354.5" y1="693.48" y2="693.48"/><ellipse cx="87.5" cy="707.1284" fill="#84BE84" rx="3" ry="3" style="stroke:#038048;stroke-width:1.0;"/><text fill="#000000" font-family="sans-serif" font-size="14" lengthAdjust="spacing" textLength="253" x="96.5" y="710.4751">String getPumpPowerConsumption()</text><ellipse cx="87.5" cy="723.4253" fill="#84BE84" rx="3" ry="3" style="stroke:#038048;stroke-width:1.0;"/><text fill="#000000" font-family="sans-serif" font-size="14" lengthAdjust="spacing" textLength="108" x="96.5" y="726.772">String getFlow()</text><ellipse cx="87.5" cy="739.7222" fill="#84BE84" rx="3" ry="3" style="stroke:#038048;stroke-width:1.0;"/><text fill="#000000" font-family="sans-serif" font-size="14" lengthAdjust="spacing" textLength="125" x="96.5" y="743.0689">String getRainfall()</text></g><!--class Problem--><g id="elem_Problem"><rect codeLine="48" fill="#F1F1F1" height="80.5938" id="Problem" rx="2.5" ry="2.5" style="stroke:#181818;stroke-width:0.5;" width="243" x="412.5" y="661.63"/><ellipse cx="501.25" cy="677.63" fill="#ADD1B2" rx="11" ry="11" style="stroke:#181818;stroke-width:1.0;"/><path d="M504.2188,683.2706 Q503.6406,683.5675 503,683.7081 Q502.3594,683.8644 501.6563,683.8644 Q499.1563,683.8644 497.8281,682.2238 Q496.5156,680.5675 496.5156,677.4425 Q496.5156,674.3175 497.8281,672.6613 Q499.1563,671.005 501.6563,671.005 Q502.3594,671.005 503,671.1613 Q503.6563,671.3175 504.2188,671.6144 L504.2188,674.3331 Q503.5938,673.755 503,673.4894 Q502.4063,673.2081 501.7813,673.2081 Q500.4375,673.2081 499.75,674.2863 Q499.0625,675.3488 499.0625,677.4425 Q499.0625,679.5363 499.75,680.6144 Q500.4375,681.6769 501.7813,681.6769 Q502.4063,681.6769 503,681.4113 Q503.5938,681.13 504.2188,680.5519 L504.2188,683.2706 Z " fill="#000000"/><text fill="#000000" font-family="sans-serif" font-size="14" lengthAdjust="spacing" textLength="57" x="521.75" y="682.4767">Problem</text><line style="stroke:#181818;stroke-width:0.5;" x1="413.5" x2="654.5" y1="693.63" y2="693.63"/><line style="stroke:#181818;stroke-width:0.5;" x1="413.5" x2="654.5" y1="701.63" y2="701.63"/><ellipse cx="423.5" cy="715.2784" fill="#84BE84" rx="3" ry="3" style="stroke:#038048;stroke-width:1.0;"/><text fill="#000000" font-family="sans-serif" font-size="14" lengthAdjust="spacing" textLength="130" x="432.5" y="718.6251">String getReason()</text><ellipse cx="423.5" cy="731.5753" fill="#84BE84" rx="3" ry="3" style="stroke:#038048;stroke-width:1.0;"/><text fill="#000000" font-family="sans-serif" font-size="14" lengthAdjust="spacing" textLength="217" x="432.5" y="734.922">Number getOverflowIndication()</text></g><!--link SewerOverflowIndicationService to SewerOverflowIndicationComponent--><g id="link_SewerOverflowIndicationService_SewerOverflowIndicationComponent"><path codeLine="52" d="M223,148.48 C223,166.75 223,183.52 223,201.84 " fill="none" id="SewerOverflowIndicationService-to-SewerOverflowIndicationComponent" style="stroke:#181818;stroke-width:1.0;"/><polygon fill="#181818" points="223,207.84,227,198.84,223,202.84,219,198.84,223,207.84" style="stroke:#181818;stroke-width:1.0;"/></g><!--link SewerOverflowIndicationComponent to Sewers--><g id="link_SewerOverflowIndicationComponent_Sewers"><path codeLine="53" d="M359.75,273.05 C359.75,344.06 359.75,506.37 359.75,506.37 C359.75,506.37 363.5,506.37 378.62,506.37 " fill="none" id="SewerOverflowIndicationComponent-to-Sewers" style="stroke:#181818;stroke-width:1.0;"/><polygon fill="#181818" points="384.62,506.37,375.62,502.37,379.62,506.37,375.62,510.37,384.62,506.37" style="stroke:#181818;stroke-width:1.0;"/></g><!--link SewerObservationService to SewerObservationComponent--><g id="link_SewerObservationService_SewerObservationComponent"><path codeLine="54" d="M588,148.48 C588,166.75 588,183.52 588,201.84 " fill="none" id="SewerObservationService-to-SewerObservationComponent" style="stroke:#181818;stroke-width:1.0;"/><polygon fill="#181818" points="588,207.84,592,198.84,588,202.84,584,198.84,588,207.84" style="stroke:#181818;stroke-width:1.0;"/></g><!--link SewerObservationComponent to Sewers--><g id="link_SewerObservationComponent_Sewers"><path codeLine="55" d="M588,273.01 C588,321.49 588,406.58 588,459.37 " fill="none" id="SewerObservationComponent-to-Sewers" style="stroke:#181818;stroke-width:1.0;"/><polygon fill="#181818" points="588,465.37,592,456.37,588,460.37,584,456.37,588,465.37" style="stroke:#181818;stroke-width:1.0;"/></g><!--link Sewer to Problem--><g id="link_Sewer_Problem"><path codeLine="56" d="M350.25,551.37 C436.31,551.37 534,551.37 534,551.37 C534,551.37 534,610.6 534,655.18 " fill="none" id="Sewer-to-Problem" style="stroke:#181818;stroke-width:1.0;"/><polygon fill="#181818" points="534,661.18,538,652.18,534,656.18,530,652.18,534,661.18" style="stroke:#181818;stroke-width:1.0;"/></g><!--link Sewer to KeyPerformanceIndicator--><g id="link_Sewer_KeyPerformanceIndicator"><path codeLine="57" d="M222,554.96 C222,584.99 222,617.3 222,647.28 " fill="none" id="Sewer-to-KeyPerformanceIndicator" style="stroke:#181818;stroke-width:1.0;"/><polygon fill="#181818" points="222,653.28,226,644.28,222,648.28,218,644.28,222,653.28" style="stroke:#181818;stroke-width:1.0;"/></g><!--SRC=[rLTFQzim5B_xKsZs9MMh66E71KOl7ODGs49BpqEMdrCHMpAIdCo4VFV9KkowIPocgwrkDoEUVl_y_5xohf1aaHDKAfXn3JA7X14DSqANP04AfIHJ4AWbumMH94SPuw2h0f2G-a44wa6iaJBtGDIdGU7keKIo5KY5Y489O2hoWl0A5r9eMuSLh47YfYfIoohEIa2RROj04bBeio5mMnvz-PIcyUSkbF7sYn85ByN2ZnUZD9sIwRIB2bmppLu1Ybk4AALf4d_ieiUYv0cHrUlHCUC9e-QTuXOpobZ-96mgk9OY6uCCDzYHa8GlO2IJ8bOWLtuyxdDvikWgVHXyodJAdhrIZKQ9T_ZZVY2kSbamZ-5ssJm6V8pMPyZcPfn1xZ7eVKQFOVTH7maye1bH2eLtzSMV1Z_Dn7hcPYaJ_CxC6qOX76L0d-P4cm2Xzol14cIdtiIMNmJRPoHV6us26zfmpAs2dsFlo8VVG4lTPy3EzA73FjWKFLnEvHtehxRWgebQIyON9wGE6dBVMiEzh0UosuXRuQp-KPaIOz69L-7moy81Ep5eGsAb9Q5wsz6ripQvlvzzkzWhixtHD9Yj-81ke9eRsKBcX5FOjPKuQ9fmxCNdh3bdjJAq03rB9jP2ZyQwvAPWhcRk9b1zjdkST3pq88G-jWtka-zQolQFbLtcnLmOi6l1bNck-yzvUwpvRZxz_RDRmhZvxv9r_UuY27qDUDp4l-Vf5eXgNFmeynZiIpiSObQxxt5_UNdrTjCwUBizCO3lesCfyBL21Z3myWqG-Dyv_-gBEcUG3wRzpCdpNtdwYstn1m00]--></g></svg>