<svg xmlns="http://www.w3.org/2000/svg" xmlns:xlink="http://www.w3.org/1999/xlink" contentStyleType="text/css" height="1193px" preserveAspectRatio="none" style="width:5341px;height:1193px;background:#FFFFFF;" version="1.1" viewBox="0 0 5341 1193" width="5341px" zoomAndPan="magnify"><defs/><g><!--cluster drivers--><g id="cluster_drivers"><path d="M8.5,6 L304.5,6 A3.75,3.75 0 0 1 307,8.5 L314,28.2969 L2013.5,28.2969 A2.5,2.5 0 0 1 2016,30.7969 L2016,1184.17 A2.5,2.5 0 0 1 2013.5,1186.67 L8.5,1186.67 A2.5,2.5 0 0 1 6,1184.17 L6,8.5 A2.5,2.5 0 0 1 8.5,6 " fill="#87CEEB" style="stroke:#000000;stroke-width:1.5;"/><line style="stroke:#000000;stroke-width:1.5;" x1="6" x2="314" y1="28.2969" y2="28.2969"/><text fill="#000000" font-family="sans-serif" font-size="14" font-weight="bold" lengthAdjust="spacing" textLength="295" x="10" y="20.9951">de.company.prototype.sewer.drivers</text></g><!--cluster adapters--><g id="cluster_adapters"><path d="M48.5,65 L119.5,65 A3.75,3.75 0 0 1 122,67.5 L129,87.2969 L1965.5,87.2969 A2.5,2.5 0 0 1 1968,89.7969 L1968,1144.17 A2.5,2.5 0 0 1 1965.5,1146.67 L48.5,1146.67 A2.5,2.5 0 0 1 46,1144.17 L46,67.5 A2.5,2.5 0 0 1 48.5,65 " fill="#82FFB4" style="stroke:#000000;stroke-width:1.5;"/><line style="stroke:#000000;stroke-width:1.5;" x1="46" x2="129" y1="87.2969" y2="87.2969"/><text fill="#000000" font-family="sans-serif" font-size="14" font-weight="bold" lengthAdjust="spacing" textLength="70" x="50" y="79.9951">adapters</text></g><!--cluster use_cases--><g id="cluster_use_cases"><path d="M88.5,124 L171.5,124 A3.75,3.75 0 0 1 174,126.5 L181,146.2969 L1917.5,146.2969 A2.5,2.5 0 0 1 1920,148.7969 L1920,1104.17 A2.5,2.5 0 0 1 1917.5,1106.67 L88.5,1106.67 A2.5,2.5 0 0 1 86,1104.17 L86,126.5 A2.5,2.5 0 0 1 88.5,124 " fill="#FF9A99" style="stroke:#000000;stroke-width:1.5;"/><line style="stroke:#000000;stroke-width:1.5;" x1="86" x2="181" y1="146.2969" y2="146.2969"/><text fill="#000000" font-family="sans-serif" font-size="14" font-weight="bold" lengthAdjust="spacing" textLength="82" x="90" y="138.9951">use_cases</text></g><!--cluster entities--><g id="cluster_entities"><path d="M128.5,183 L188.5,183 A3.75,3.75 0 0 1 191,185.5 L198,205.2969 L1869.5,205.2969 A2.5,2.5 0 0 1 1872,207.7969 L1872,1064.17 A2.5,2.5 0 0 1 1869.5,1066.67 L128.5,1066.67 A2.5,2.5 0 0 1 126,1064.17 L126,185.5 A2.5,2.5 0 0 1 128.5,183 " fill="#FCFDB0" style="stroke:#000000;stroke-width:1.5;"/><line style="stroke:#000000;stroke-width:1.5;" x1="126" x2="198" y1="205.2969" y2="205.2969"/><text fill="#000000" font-family="sans-serif" font-size="14" font-weight="bold" lengthAdjust="spacing" textLength="59" x="130" y="197.9951">entities</text></g><!--cluster indicate--><g id="cluster_indicate"><path d="M160.5,234 L223.5,234 A3.75,3.75 0 0 1 226,236.5 L233,256.2969 L1145.5,256.2969 A2.5,2.5 0 0 1 1148,258.7969 L1148,811.83 A2.5,2.5 0 0 1 1145.5,814.33 L160.5,814.33 A2.5,2.5 0 0 1 158,811.83 L158,236.5 A2.5,2.5 0 0 1 160.5,234 " fill="#FFFFFF" style="stroke:#000000;stroke-width:1.5;"/><line style="stroke:#000000;stroke-width:1.5;" x1="158" x2="233" y1="256.2969" y2="256.2969"/><text fill="#000000" font-family="sans-serif" font-size="14" font-weight="bold" lengthAdjust="spacing" textLength="62" x="162" y="248.9951">indicate</text></g><!--cluster boundary--><g id="cluster_boundary"><path d="M764.5,277 L840.5,277 A3.75,3.75 0 0 1 843,279.5 L850,299.2969 L1121.5,299.2969 A2.5,2.5 0 0 1 1124,301.7969 L1124,538.09 A2.5,2.5 0 0 1 1121.5,540.59 L764.5,540.59 A2.5,2.5 0 0 1 762,538.09 L762,279.5 A2.5,2.5 0 0 1 764.5,277 " fill="#00FF00" style="stroke:#000000;stroke-width:1.5;"/><line style="stroke:#000000;stroke-width:1.5;" x1="762" x2="850" y1="299.2969" y2="299.2969"/><text fill="#000000" font-family="sans-serif" font-size="14" font-weight="bold" lengthAdjust="spacing" textLength="75" x="766" y="291.9951">boundary</text></g><!--cluster control--><g id="cluster_control"><path d="M788.5,401.29 L845.5,401.29 A3.75,3.75 0 0 1 848,403.79 L855,423.5869 L1097.5,423.5869 A2.5,2.5 0 0 1 1100,426.0869 L1100,514.09 A2.5,2.5 0 0 1 1097.5,516.59 L788.5,516.59 A2.5,2.5 0 0 1 786,514.09 L786,403.79 A2.5,2.5 0 0 1 788.5,401.29 " fill="#FFA500" style="stroke:#000000;stroke-width:1.5;"/><line style="stroke:#000000;stroke-width:1.5;" x1="786" x2="855" y1="423.5869" y2="423.5869"/><text fill="#000000" font-family="sans-serif" font-size="14" font-weight="bold" lengthAdjust="spacing" textLength="56" x="790" y="416.2851">control</text></g><!--cluster control--><g id="cluster_control"><path d="M184.5,675.04 L360.5,675.04 A3.75,3.75 0 0 1 363,677.54 L370,697.3369 L477.5,697.3369 A2.5,2.5 0 0 1 480,699.8369 L480,787.83 A2.5,2.5 0 0 1 477.5,790.33 L184.5,790.33 A2.5,2.5 0 0 1 182,787.83 L182,677.54 A2.5,2.5 0 0 1 184.5,675.04 " fill="#FFA500" style="stroke:#000000;stroke-width:1.5;"/><line style="stroke:#000000;stroke-width:1.5;" x1="182" x2="370" y1="697.3369" y2="697.3369"/><text fill="#000000" font-family="sans-serif" font-size="14" font-weight="bold" lengthAdjust="spacing" textLength="175" x="186" y="690.0351">flow.boundary.control</text></g><!--cluster control--><g id="cluster_control"><path d="M506.5,675.04 L692.5,675.04 A3.75,3.75 0 0 1 695,677.54 L702,697.3369 L799.5,697.3369 A2.5,2.5 0 0 1 802,699.8369 L802,787.83 A2.5,2.5 0 0 1 799.5,790.33 L506.5,790.33 A2.5,2.5 0 0 1 504,787.83 L504,677.54 A2.5,2.5 0 0 1 506.5,675.04 " fill="#FFA500" style="stroke:#000000;stroke-width:1.5;"/><line style="stroke:#000000;stroke-width:1.5;" x1="504" x2="702" y1="697.3369" y2="697.3369"/><text fill="#000000" font-family="sans-serif" font-size="14" font-weight="bold" lengthAdjust="spacing" textLength="185" x="508" y="690.0351">pump.boundary.control</text></g><!--cluster control--><g id="cluster_control"><path d="M828.5,675.04 L1000.5,675.04 A3.75,3.75 0 0 1 1003,677.54 L1010,697.3369 L1121.5,697.3369 A2.5,2.5 0 0 1 1124,699.8369 L1124,787.83 A2.5,2.5 0 0 1 1121.5,790.33 L828.5,790.33 A2.5,2.5 0 0 1 826,787.83 L826,677.54 A2.5,2.5 0 0 1 828.5,675.04 " fill="#FFA500" style="stroke:#000000;stroke-width:1.5;"/><line style="stroke:#000000;stroke-width:1.5;" x1="826" x2="1010" y1="697.3369" y2="697.3369"/><text fill="#000000" font-family="sans-serif" font-size="14" font-weight="bold" lengthAdjust="spacing" textLength="171" x="830" y="690.0351">rain.boundary.control</text></g><!--cluster boundary--><g id="cluster_boundary"><path d="M1498.5,277 L1644.5,277 A3.75,3.75 0 0 1 1647,279.5 L1654,299.2969 L1813.5,299.2969 A2.5,2.5 0 0 1 1816,301.7969 L1816,538.09 A2.5,2.5 0 0 1 1813.5,540.59 L1498.5,540.59 A2.5,2.5 0 0 1 1496,538.09 L1496,279.5 A2.5,2.5 0 0 1 1498.5,277 " fill="#00FF00" style="stroke:#000000;stroke-width:1.5;"/><line style="stroke:#000000;stroke-width:1.5;" x1="1496" x2="1654" y1="299.2969" y2="299.2969"/><text fill="#000000" font-family="sans-serif" font-size="14" font-weight="bold" lengthAdjust="spacing" textLength="145" x="1500" y="291.9951">observe.boundary</text></g><!--cluster control--><g id="cluster_control"><path d="M1522.5,401.29 L1579.5,401.29 A3.75,3.75 0 0 1 1582,403.79 L1589,423.5869 L1789.5,423.5869 A2.5,2.5 0 0 1 1792,426.0869 L1792,514.09 A2.5,2.5 0 0 1 1789.5,516.59 L1522.5,516.59 A2.5,2.5 0 0 1 1520,514.09 L1520,403.79 A2.5,2.5 0 0 1 1522.5,401.29 " fill="#FFA500" style="stroke:#000000;stroke-width:1.5;"/><line style="stroke:#000000;stroke-width:1.5;" x1="1520" x2="1589" y1="423.5869" y2="423.5869"/><text fill="#000000" font-family="sans-serif" font-size="14" font-weight="bold" lengthAdjust="spacing" textLength="56" x="1524" y="416.2851">control</text></g><!--cluster sewer--><g id="cluster_sewer"><path d="M1174.5,564.59 L1225.5,564.59 A3.75,3.75 0 0 1 1228,567.09 L1235,586.8869 L1829.5,586.8869 A2.5,2.5 0 0 1 1832,589.3869 L1832,1032.17 A2.5,2.5 0 0 1 1829.5,1034.67 L1174.5,1034.67 A2.5,2.5 0 0 1 1172,1032.17 L1172,567.09 A2.5,2.5 0 0 1 1174.5,564.59 " fill="#FFFFFF" style="stroke:#000000;stroke-width:1.5;"/><line style="stroke:#000000;stroke-width:1.5;" x1="1172" x2="1235" y1="586.8869" y2="586.8869"/><text fill="#000000" font-family="sans-serif" font-size="14" font-weight="bold" lengthAdjust="spacing" textLength="50" x="1176" y="579.5851">sewer</text></g><!--cluster boundary--><g id="cluster_boundary"><path d="M1214.5,607.59 L1290.5,607.59 A3.75,3.75 0 0 1 1293,610.09 L1300,629.8869 L1779.5,629.8869 A2.5,2.5 0 0 1 1782,632.3869 L1782,836.28 A2.5,2.5 0 0 1 1779.5,838.78 L1214.5,838.78 A2.5,2.5 0 0 1 1212,836.28 L1212,610.09 A2.5,2.5 0 0 1 1214.5,607.59 " fill="#00FF00" style="stroke:#000000;stroke-width:1.5;"/><line style="stroke:#000000;stroke-width:1.5;" x1="1212" x2="1300" y1="629.8869" y2="629.8869"/><text fill="#000000" font-family="sans-serif" font-size="14" font-weight="bold" lengthAdjust="spacing" textLength="75" x="1216" y="622.5851">boundary</text></g><!--cluster entity--><g id="cluster_entity"><path d="M1238.5,650.59 L1345.5,650.59 A3.75,3.75 0 0 1 1348,653.09 L1355,672.8869 L1523.5,672.8869 A2.5,2.5 0 0 1 1526,675.3869 L1526,812.28 A2.5,2.5 0 0 1 1523.5,814.78 L1238.5,814.78 A2.5,2.5 0 0 1 1236,812.28 L1236,653.09 A2.5,2.5 0 0 1 1238.5,650.59 " fill="#FCFDB0" style="stroke:#000000;stroke-width:1.5;"/><line style="stroke:#000000;stroke-width:1.5;" x1="1236" x2="1355" y1="672.8869" y2="672.8869"/><text fill="#000000" font-family="sans-serif" font-size="14" font-weight="bold" lengthAdjust="spacing" textLength="106" x="1240" y="665.5851">control.entity</text></g><!--cluster entity--><g id="cluster_entity"><path d="M1198.5,862.78 L1413.5,862.78 A3.75,3.75 0 0 1 1416,865.28 L1423,885.0769 L1505.5,885.0769 A2.5,2.5 0 0 1 1508,887.5769 L1508,1008.17 A2.5,2.5 0 0 1 1505.5,1010.67 L1198.5,1010.67 A2.5,2.5 0 0 1 1196,1008.17 L1196,865.28 A2.5,2.5 0 0 1 1198.5,862.78 " fill="#FCFDB0" style="stroke:#000000;stroke-width:1.5;"/><line style="stroke:#000000;stroke-width:1.5;" x1="1196" x2="1423" y1="885.0769" y2="885.0769"/><text fill="#000000" font-family="sans-serif" font-size="14" font-weight="bold" lengthAdjust="spacing" textLength="214" x="1200" y="877.7751">kpi.boundary.control.entity</text></g><!--cluster entity--><g id="cluster_entity"><path d="M1534.5,870.93 L1791.5,870.93 A3.75,3.75 0 0 1 1794,873.43 L1801,893.2269 L1805.5,893.2269 A2.5,2.5 0 0 1 1808,895.7269 L1808,1000.02 A2.5,2.5 0 0 1 1805.5,1002.52 L1534.5,1002.52 A2.5,2.5 0 0 1 1532,1000.02 L1532,873.43 A2.5,2.5 0 0 1 1534.5,870.93 " fill="#FCFDB0" style="stroke:#000000;stroke-width:1.5;"/><line style="stroke:#000000;stroke-width:1.5;" x1="1532" x2="1801" y1="893.2269" y2="893.2269"/><text fill="#000000" font-family="sans-serif" font-size="14" font-weight="bold" lengthAdjust="spacing" textLength="256" x="1536" y="885.9251">problem.boundary.control.entity</text></g><!--class SewerOverflowIndicationService--><g id="elem_SewerOverflowIndicationService"><rect codeLine="32" fill="#F1F1F1" height="64.2969" id="SewerOverflowIndicationService" rx="2.5" ry="2.5" style="stroke:#181818;stroke-width:0.5;" width="250" x="818" y="312"/><ellipse cx="833" cy="328" fill="#ADD1B2" rx="11" ry="11" style="stroke:#181818;stroke-width:1.0;"/><path d="M835.9688,333.6406 Q835.3906,333.9375 834.75,334.0781 Q834.1094,334.2344 833.4063,334.2344 Q830.9063,334.2344 829.5781,332.5938 Q828.2656,330.9375 828.2656,327.8125 Q828.2656,324.6875 829.5781,323.0313 Q830.9063,321.375 833.4063,321.375 Q834.1094,321.375 834.75,321.5313 Q835.4063,321.6875 835.9688,321.9844 L835.9688,324.7031 Q835.3438,324.125 834.75,323.8594 Q834.1563,323.5781 833.5313,323.5781 Q832.1875,323.5781 831.5,324.6563 Q830.8125,325.7188 830.8125,327.8125 Q830.8125,329.9063 831.5,330.9844 Q832.1875,332.0469 833.5313,332.0469 Q834.1563,332.0469 834.75,331.7813 Q835.3438,331.5 835.9688,330.9219 L835.9688,333.6406 Z " fill="#000000"/><text fill="#000000" font-family="sans-serif" font-size="14" lengthAdjust="spacing" textLength="218" x="847" y="332.8467">SewerOverflowIndicationService</text><line style="stroke:#181818;stroke-width:0.5;" x1="819" x2="1067" y1="344" y2="344"/><line style="stroke:#181818;stroke-width:0.5;" x1="819" x2="1067" y1="352" y2="352"/><ellipse cx="829" cy="365.6484" fill="#84BE84" rx="3" ry="3" style="stroke:#038048;stroke-width:1.0;"/><text fill="#000000" font-family="sans-serif" font-size="14" lengthAdjust="spacing" textLength="221" x="838" y="368.9951">void serve(Map&lt;String, String&gt;)</text></g><!--class SewerOverflowIndicationComponent--><g id="elem_SewerOverflowIndicationComponent"><rect codeLine="35" fill="#F1F1F1" height="64.2969" id="SewerOverflowIndicationComponent" rx="2.5" ry="2.5" style="stroke:#181818;stroke-width:0.5;" width="282" x="802" y="436.29"/><ellipse cx="817" cy="452.29" fill="#ADD1B2" rx="11" ry="11" style="stroke:#181818;stroke-width:1.0;"/><path d="M819.9688,457.9306 Q819.3906,458.2275 818.75,458.3681 Q818.1094,458.5244 817.4063,458.5244 Q814.9063,458.5244 813.5781,456.8838 Q812.2656,455.2275 812.2656,452.1025 Q812.2656,448.9775 813.5781,447.3213 Q814.9063,445.665 817.4063,445.665 Q818.1094,445.665 818.75,445.8213 Q819.4063,445.9775 819.9688,446.2744 L819.9688,448.9931 Q819.3438,448.415 818.75,448.1494 Q818.1563,447.8681 817.5313,447.8681 Q816.1875,447.8681 815.5,448.9463 Q814.8125,450.0088 814.8125,452.1025 Q814.8125,454.1963 815.5,455.2744 Q816.1875,456.3369 817.5313,456.3369 Q818.1563,456.3369 818.75,456.0713 Q819.3438,455.79 819.9688,455.2119 L819.9688,457.9306 Z " fill="#000000"/><text fill="#000000" font-family="sans-serif" font-size="14" lengthAdjust="spacing" textLength="250" x="831" y="457.1367">SewerOverflowIndicationComponent</text><line style="stroke:#181818;stroke-width:0.5;" x1="803" x2="1083" y1="468.29" y2="468.29"/><line style="stroke:#181818;stroke-width:0.5;" x1="803" x2="1083" y1="476.29" y2="476.29"/><ellipse cx="813" cy="489.9384" fill="#84BE84" rx="3" ry="3" style="stroke:#038048;stroke-width:1.0;"/><text fill="#000000" font-family="sans-serif" font-size="14" lengthAdjust="spacing" textLength="239" x="822" y="493.2851">void execute(Map&lt;String, String&gt;)</text></g><!--class FlowIndicationComponent--><g id="elem_FlowIndicationComponent"><rect codeLine="41" fill="#F1F1F1" height="64.2969" id="FlowIndicationComponent" rx="2.5" ry="2.5" style="stroke:#181818;stroke-width:0.5;" width="265" x="198.5" y="710.04"/><ellipse cx="237.8" cy="726.04" fill="#ADD1B2" rx="11" ry="11" style="stroke:#181818;stroke-width:1.0;"/><path d="M240.7688,731.6806 Q240.1906,731.9775 239.55,732.1181 Q238.9094,732.2744 238.2063,732.2744 Q235.7063,732.2744 234.3781,730.6338 Q233.0656,728.9775 233.0656,725.8525 Q233.0656,722.7275 234.3781,721.0713 Q235.7063,719.415 238.2063,719.415 Q238.9094,719.415 239.55,719.5713 Q240.2063,719.7275 240.7688,720.0244 L240.7688,722.7431 Q240.1438,722.165 239.55,721.8994 Q238.9563,721.6181 238.3313,721.6181 Q236.9875,721.6181 236.3,722.6963 Q235.6125,723.7588 235.6125,725.8525 Q235.6125,727.9463 236.3,729.0244 Q236.9875,730.0869 238.3313,730.0869 Q238.9563,730.0869 239.55,729.8213 Q240.1438,729.54 240.7688,728.9619 L240.7688,731.6806 Z " fill="#000000"/><text fill="#000000" font-family="sans-serif" font-size="14" lengthAdjust="spacing" textLength="179" x="257.2" y="730.8867">FlowIndicationComponent</text><line style="stroke:#181818;stroke-width:0.5;" x1="199.5" x2="462.5" y1="742.04" y2="742.04"/><line style="stroke:#181818;stroke-width:0.5;" x1="199.5" x2="462.5" y1="750.04" y2="750.04"/><ellipse cx="209.5" cy="763.6884" fill="#84BE84" rx="3" ry="3" style="stroke:#038048;stroke-width:1.0;"/><text fill="#000000" font-family="sans-serif" font-size="14" lengthAdjust="spacing" textLength="239" x="218.5" y="767.0351">void execute(Map&lt;String, String&gt;)</text></g><!--class PumpIndicationComponent--><g id="elem_PumpIndicationComponent"><rect codeLine="44" fill="#F1F1F1" height="64.2969" id="PumpIndicationComponent" rx="2.5" ry="2.5" style="stroke:#181818;stroke-width:0.5;" width="265" x="520.5" y="710.04"/><ellipse cx="555.75" cy="726.04" fill="#ADD1B2" rx="11" ry="11" style="stroke:#181818;stroke-width:1.0;"/><path d="M558.7188,731.6806 Q558.1406,731.9775 557.5,732.1181 Q556.8594,732.2744 556.1563,732.2744 Q553.6563,732.2744 552.3281,730.6338 Q551.0156,728.9775 551.0156,725.8525 Q551.0156,722.7275 552.3281,721.0713 Q553.6563,719.415 556.1563,719.415 Q556.8594,719.415 557.5,719.5713 Q558.1563,719.7275 558.7188,720.0244 L558.7188,722.7431 Q558.0938,722.165 557.5,721.8994 Q556.9063,721.6181 556.2813,721.6181 Q554.9375,721.6181 554.25,722.6963 Q553.5625,723.7588 553.5625,725.8525 Q553.5625,727.9463 554.25,729.0244 Q554.9375,730.0869 556.2813,730.0869 Q556.9063,730.0869 557.5,729.8213 Q558.0938,729.54 558.7188,728.9619 L558.7188,731.6806 Z " fill="#000000"/><text fill="#000000" font-family="sans-serif" font-size="14" lengthAdjust="spacing" textLength="188" x="574.25" y="730.8867">PumpIndicationComponent</text><line style="stroke:#181818;stroke-width:0.5;" x1="521.5" x2="784.5" y1="742.04" y2="742.04"/><line style="stroke:#181818;stroke-width:0.5;" x1="521.5" x2="784.5" y1="750.04" y2="750.04"/><ellipse cx="531.5" cy="763.6884" fill="#84BE84" rx="3" ry="3" style="stroke:#038048;stroke-width:1.0;"/><text fill="#000000" font-family="sans-serif" font-size="14" lengthAdjust="spacing" textLength="239" x="540.5" y="767.0351">void execute(Map&lt;String, String&gt;)</text></g><!--class RainIndicationComponent--><g id="elem_RainIndicationComponent"><rect codeLine="47" fill="#F1F1F1" height="64.2969" id="RainIndicationComponent" rx="2.5" ry="2.5" style="stroke:#181818;stroke-width:0.5;" width="265" x="842.5" y="710.04"/><ellipse cx="882.25" cy="726.04" fill="#ADD1B2" rx="11" ry="11" style="stroke:#181818;stroke-width:1.0;"/><path d="M885.2188,731.6806 Q884.6406,731.9775 884,732.1181 Q883.3594,732.2744 882.6563,732.2744 Q880.1563,732.2744 878.8281,730.6338 Q877.5156,728.9775 877.5156,725.8525 Q877.5156,722.7275 878.8281,721.0713 Q880.1563,719.415 882.6563,719.415 Q883.3594,719.415 884,719.5713 Q884.6563,719.7275 885.2188,720.0244 L885.2188,722.7431 Q884.5938,722.165 884,721.8994 Q883.4063,721.6181 882.7813,721.6181 Q881.4375,721.6181 880.75,722.6963 Q880.0625,723.7588 880.0625,725.8525 Q880.0625,727.9463 880.75,729.0244 Q881.4375,730.0869 882.7813,730.0869 Q883.4063,730.0869 884,729.8213 Q884.5938,729.54 885.2188,728.9619 L885.2188,731.6806 Z " fill="#000000"/><text fill="#000000" font-family="sans-serif" font-size="14" lengthAdjust="spacing" textLength="178" x="901.75" y="730.8867">RainIndicationComponent</text><line style="stroke:#181818;stroke-width:0.5;" x1="843.5" x2="1106.5" y1="742.04" y2="742.04"/><line style="stroke:#181818;stroke-width:0.5;" x1="843.5" x2="1106.5" y1="750.04" y2="750.04"/><ellipse cx="853.5" cy="763.6884" fill="#84BE84" rx="3" ry="3" style="stroke:#038048;stroke-width:1.0;"/><text fill="#000000" font-family="sans-serif" font-size="14" lengthAdjust="spacing" textLength="239" x="862.5" y="767.0351">void execute(Map&lt;String, String&gt;)</text></g><!--class SewerObservationService--><g id="elem_SewerObservationService"><rect codeLine="50" fill="#F1F1F1" height="64.2969" id="SewerObservationService" rx="2.5" ry="2.5" style="stroke:#181818;stroke-width:0.5;" width="208" x="1552" y="312"/><ellipse cx="1567" cy="328" fill="#ADD1B2" rx="11" ry="11" style="stroke:#181818;stroke-width:1.0;"/><path d="M1569.9688,333.6406 Q1569.3906,333.9375 1568.75,334.0781 Q1568.1094,334.2344 1567.4063,334.2344 Q1564.9063,334.2344 1563.5781,332.5938 Q1562.2656,330.9375 1562.2656,327.8125 Q1562.2656,324.6875 1563.5781,323.0313 Q1564.9063,321.375 1567.4063,321.375 Q1568.1094,321.375 1568.75,321.5313 Q1569.4063,321.6875 1569.9688,321.9844 L1569.9688,324.7031 Q1569.3438,324.125 1568.75,323.8594 Q1568.1563,323.5781 1567.5313,323.5781 Q1566.1875,323.5781 1565.5,324.6563 Q1564.8125,325.7188 1564.8125,327.8125 Q1564.8125,329.9063 1565.5,330.9844 Q1566.1875,332.0469 1567.5313,332.0469 Q1568.1563,332.0469 1568.75,331.7813 Q1569.3438,331.5 1569.9688,330.9219 L1569.9688,333.6406 Z " fill="#000000"/><text fill="#000000" font-family="sans-serif" font-size="14" lengthAdjust="spacing" textLength="176" x="1581" y="332.8467">SewerObservationService</text><line style="stroke:#181818;stroke-width:0.5;" x1="1553" x2="1759" y1="344" y2="344"/><line style="stroke:#181818;stroke-width:0.5;" x1="1553" x2="1759" y1="352" y2="352"/><ellipse cx="1563" cy="365.6484" fill="#84BE84" rx="3" ry="3" style="stroke:#038048;stroke-width:1.0;"/><text fill="#000000" font-family="sans-serif" font-size="14" lengthAdjust="spacing" textLength="182" x="1572" y="368.9951">Set&lt;Sewer&gt; serve(String)</text></g><!--class SewerObservationComponent--><g id="elem_SewerObservationComponent"><rect codeLine="53" fill="#F1F1F1" height="64.2969" id="SewerObservationComponent" rx="2.5" ry="2.5" style="stroke:#181818;stroke-width:0.5;" width="240" x="1536" y="436.29"/><ellipse cx="1551" cy="452.29" fill="#ADD1B2" rx="11" ry="11" style="stroke:#181818;stroke-width:1.0;"/><path d="M1553.9688,457.9306 Q1553.3906,458.2275 1552.75,458.3681 Q1552.1094,458.5244 1551.4063,458.5244 Q1548.9063,458.5244 1547.5781,456.8838 Q1546.2656,455.2275 1546.2656,452.1025 Q1546.2656,448.9775 1547.5781,447.3213 Q1548.9063,445.665 1551.4063,445.665 Q1552.1094,445.665 1552.75,445.8213 Q1553.4063,445.9775 1553.9688,446.2744 L1553.9688,448.9931 Q1553.3438,448.415 1552.75,448.1494 Q1552.1563,447.8681 1551.5313,447.8681 Q1550.1875,447.8681 1549.5,448.9463 Q1548.8125,450.0088 1548.8125,452.1025 Q1548.8125,454.1963 1549.5,455.2744 Q1550.1875,456.3369 1551.5313,456.3369 Q1552.1563,456.3369 1552.75,456.0713 Q1553.3438,455.79 1553.9688,455.2119 L1553.9688,457.9306 Z " fill="#000000"/><text fill="#000000" font-family="sans-serif" font-size="14" lengthAdjust="spacing" textLength="208" x="1565" y="457.1367">SewerObservationComponent</text><line style="stroke:#181818;stroke-width:0.5;" x1="1537" x2="1775" y1="468.29" y2="468.29"/><line style="stroke:#181818;stroke-width:0.5;" x1="1537" x2="1775" y1="476.29" y2="476.29"/><ellipse cx="1547" cy="489.9384" fill="#84BE84" rx="3" ry="3" style="stroke:#038048;stroke-width:1.0;"/><text fill="#000000" font-family="sans-serif" font-size="14" lengthAdjust="spacing" textLength="200" x="1556" y="493.2851">Set&lt;Sewer&gt; execute(String)</text></g><!--class Sewers--><g id="elem_Sewers"><rect codeLine="56" fill="#F1F1F1" height="80.5938" id="Sewers" rx="2.5" ry="2.5" style="stroke:#181818;stroke-width:0.5;" width="220" x="1546" y="701.89"/><ellipse cx="1626.25" cy="717.89" fill="#B4A7E5" rx="11" ry="11" style="stroke:#181818;stroke-width:1.0;"/><path d="M1622.1719,713.6556 L1622.1719,711.4994 L1629.5625,711.4994 L1629.5625,713.6556 L1627.0938,713.6556 L1627.0938,721.7338 L1629.5625,721.7338 L1629.5625,723.89 L1622.1719,723.89 L1622.1719,721.7338 L1624.6406,721.7338 L1624.6406,713.6556 L1622.1719,713.6556 Z " fill="#000000"/><text fill="#000000" font-family="sans-serif" font-size="14" font-style="italic" lengthAdjust="spacing" textLength="51" x="1646.75" y="722.7367">Sewers</text><line style="stroke:#181818;stroke-width:0.5;" x1="1547" x2="1765" y1="733.89" y2="733.89"/><line style="stroke:#181818;stroke-width:0.5;" x1="1547" x2="1765" y1="741.89" y2="741.89"/><ellipse cx="1557" cy="755.5384" fill="#84BE84" rx="3" ry="3" style="stroke:#038048;stroke-width:1.0;"/><text fill="#000000" font-family="sans-serif" font-size="14" font-style="italic" lengthAdjust="spacing" textLength="194" x="1566" y="758.8851">Set&lt;Sewer&gt; observe(UUID)</text><ellipse cx="1557" cy="771.8353" fill="#84BE84" rx="3" ry="3" style="stroke:#038048;stroke-width:1.0;"/><text fill="#000000" font-family="sans-serif" font-size="14" font-style="italic" lengthAdjust="spacing" textLength="139" x="1566" y="775.182">void indicate(Sewer)</text></g><!--class Sewer--><g id="elem_Sewer"><rect codeLine="63" fill="#F1F1F1" height="113.1875" id="Sewer" rx="2.5" ry="2.5" style="stroke:#181818;stroke-width:0.5;" width="259" x="1251.5" y="685.59"/><ellipse cx="1355.25" cy="701.59" fill="#ADD1B2" rx="11" ry="11" style="stroke:#181818;stroke-width:1.0;"/><path d="M1358.2188,707.2306 Q1357.6406,707.5275 1357,707.6681 Q1356.3594,707.8244 1355.6563,707.8244 Q1353.1563,707.8244 1351.8281,706.1838 Q1350.5156,704.5275 1350.5156,701.4025 Q1350.5156,698.2775 1351.8281,696.6213 Q1353.1563,694.965 1355.6563,694.965 Q1356.3594,694.965 1357,695.1213 Q1357.6563,695.2775 1358.2188,695.5744 L1358.2188,698.2931 Q1357.5938,697.715 1357,697.4494 Q1356.4063,697.1681 1355.7813,697.1681 Q1354.4375,697.1681 1353.75,698.2463 Q1353.0625,699.3088 1353.0625,701.4025 Q1353.0625,703.4963 1353.75,704.5744 Q1354.4375,705.6369 1355.7813,705.6369 Q1356.4063,705.6369 1357,705.3713 Q1357.5938,705.09 1358.2188,704.5119 L1358.2188,707.2306 Z " fill="#000000"/><text fill="#000000" font-family="sans-serif" font-size="14" lengthAdjust="spacing" textLength="43" x="1375.75" y="706.4367">Sewer</text><line style="stroke:#181818;stroke-width:0.5;" x1="1252.5" x2="1509.5" y1="717.59" y2="717.59"/><line style="stroke:#181818;stroke-width:0.5;" x1="1252.5" x2="1509.5" y1="725.59" y2="725.59"/><ellipse cx="1262.5" cy="739.2384" fill="#84BE84" rx="3" ry="3" style="stroke:#038048;stroke-width:1.0;"/><text fill="#000000" font-family="sans-serif" font-size="14" lengthAdjust="spacing" textLength="83" x="1271.5" y="742.5851">UUID getId()</text><ellipse cx="1262.5" cy="755.5353" fill="#84BE84" rx="3" ry="3" style="stroke:#038048;stroke-width:1.0;"/><text fill="#000000" font-family="sans-serif" font-size="14" lengthAdjust="spacing" textLength="230" x="1271.5" y="758.882">KeyPerformanceIndicator getKpi()</text><ellipse cx="1262.5" cy="771.8322" fill="#84BE84" rx="3" ry="3" style="stroke:#038048;stroke-width:1.0;"/><text fill="#000000" font-family="sans-serif" font-size="14" lengthAdjust="spacing" textLength="206" x="1271.5" y="775.1789">Set&lt;Problem&gt; getProblems()</text><ellipse cx="1262.5" cy="788.1291" fill="#84BE84" rx="3" ry="3" style="stroke:#038048;stroke-width:1.0;"/><text fill="#000000" font-family="sans-serif" font-size="14" lengthAdjust="spacing" textLength="233" x="1271.5" y="791.4757">void setProblems(Set&lt;Problem&gt;)</text></g><!--class KeyPerformanceIndicator--><g id="elem_KeyPerformanceIndicator"><rect codeLine="69" fill="#F1F1F1" height="96.8906" id="KeyPerformanceIndicator" rx="2.5" ry="2.5" style="stroke:#181818;stroke-width:0.5;" width="279" x="1212.5" y="897.78"/><ellipse cx="1261.75" cy="913.78" fill="#ADD1B2" rx="11" ry="11" style="stroke:#181818;stroke-width:1.0;"/><path d="M1264.7188,919.4206 Q1264.1406,919.7175 1263.5,919.8581 Q1262.8594,920.0144 1262.1563,920.0144 Q1259.6563,920.0144 1258.3281,918.3738 Q1257.0156,916.7175 1257.0156,913.5925 Q1257.0156,910.4675 1258.3281,908.8113 Q1259.6563,907.155 1262.1563,907.155 Q1262.8594,907.155 1263.5,907.3113 Q1264.1563,907.4675 1264.7188,907.7644 L1264.7188,910.4831 Q1264.0938,909.905 1263.5,909.6394 Q1262.9063,909.3581 1262.2813,909.3581 Q1260.9375,909.3581 1260.25,910.4363 Q1259.5625,911.4988 1259.5625,913.5925 Q1259.5625,915.6863 1260.25,916.7644 Q1260.9375,917.8269 1262.2813,917.8269 Q1262.9063,917.8269 1263.5,917.5613 Q1264.0938,917.28 1264.7188,916.7019 L1264.7188,919.4206 Z " fill="#000000"/><text fill="#000000" font-family="sans-serif" font-size="14" lengthAdjust="spacing" textLength="172" x="1282.25" y="918.6267">KeyPerformanceIndicator</text><line style="stroke:#181818;stroke-width:0.5;" x1="1213.5" x2="1490.5" y1="929.78" y2="929.78"/><line style="stroke:#181818;stroke-width:0.5;" x1="1213.5" x2="1490.5" y1="937.78" y2="937.78"/><ellipse cx="1223.5" cy="951.4284" fill="#84BE84" rx="3" ry="3" style="stroke:#038048;stroke-width:1.0;"/><text fill="#000000" font-family="sans-serif" font-size="14" lengthAdjust="spacing" textLength="253" x="1232.5" y="954.7751">String getPumpPowerConsumption()</text><ellipse cx="1223.5" cy="967.7253" fill="#84BE84" rx="3" ry="3" style="stroke:#038048;stroke-width:1.0;"/><text fill="#000000" font-family="sans-serif" font-size="14" lengthAdjust="spacing" textLength="108" x="1232.5" y="971.072">String getFlow()</text><ellipse cx="1223.5" cy="984.0222" fill="#84BE84" rx="3" ry="3" style="stroke:#038048;stroke-width:1.0;"/><text fill="#000000" font-family="sans-serif" font-size="14" lengthAdjust="spacing" textLength="140" x="1232.5" y="987.3689">Number getRainfall()</text></g><!--class Problem--><g id="elem_Problem"><rect codeLine="74" fill="#F1F1F1" height="80.5938" id="Problem" rx="2.5" ry="2.5" style="stroke:#181818;stroke-width:0.5;" width="243" x="1548.5" y="905.93"/><ellipse cx="1637.25" cy="921.93" fill="#ADD1B2" rx="11" ry="11" style="stroke:#181818;stroke-width:1.0;"/><path d="M1640.2188,927.5706 Q1639.6406,927.8675 1639,928.0081 Q1638.3594,928.1644 1637.6563,928.1644 Q1635.1563,928.1644 1633.8281,926.5238 Q1632.5156,924.8675 1632.5156,921.7425 Q1632.5156,918.6175 1633.8281,916.9613 Q1635.1563,915.305 1637.6563,915.305 Q1638.3594,915.305 1639,915.4613 Q1639.6563,915.6175 1640.2188,915.9144 L1640.2188,918.6331 Q1639.5938,918.055 1639,917.7894 Q1638.4063,917.5081 1637.7813,917.5081 Q1636.4375,917.5081 1635.75,918.5863 Q1635.0625,919.6488 1635.0625,921.7425 Q1635.0625,923.8363 1635.75,924.9144 Q1636.4375,925.9769 1637.7813,925.9769 Q1638.4063,925.9769 1639,925.7113 Q1639.5938,925.43 1640.2188,924.8519 L1640.2188,927.5706 Z " fill="#000000"/><text fill="#000000" font-family="sans-serif" font-size="14" lengthAdjust="spacing" textLength="57" x="1657.75" y="926.7767">Problem</text><line style="stroke:#181818;stroke-width:0.5;" x1="1549.5" x2="1790.5" y1="937.93" y2="937.93"/><line style="stroke:#181818;stroke-width:0.5;" x1="1549.5" x2="1790.5" y1="945.93" y2="945.93"/><ellipse cx="1559.5" cy="959.5784" fill="#84BE84" rx="3" ry="3" style="stroke:#038048;stroke-width:1.0;"/><text fill="#000000" font-family="sans-serif" font-size="14" lengthAdjust="spacing" textLength="130" x="1568.5" y="962.9251">String getReason()</text><ellipse cx="1559.5" cy="975.8753" fill="#84BE84" rx="3" ry="3" style="stroke:#038048;stroke-width:1.0;"/><text fill="#000000" font-family="sans-serif" font-size="14" lengthAdjust="spacing" textLength="217" x="1568.5" y="979.222">Number getOverflowIndication()</text></g><g id="elem_GMN39"><path d="M2040,729.62 L2040,754.7528 L2488,754.7528 L2488,739.62 L2478,729.62 L2040,729.62 " fill="#FEFFDD" style="stroke:#181818;stroke-width:0.5;"/><path d="M2478,729.62 L2478,739.62 L2488,739.62 L2478,729.62 " fill="#FEFFDD" style="stroke:#181818;stroke-width:1.0;"/><text fill="#000000" font-family="sans-serif" font-size="13" lengthAdjust="spacing" textLength="427" x="2046" y="746.6869">Invokes other components to build the final indication composition.</text></g><g id="elem_GMN48"><path d="M2040,933.66 L2040,958.7928 L2578,958.7928 L2578,943.66 L2568,933.66 L2040,933.66 " fill="#FEFFDD" style="stroke:#181818;stroke-width:0.5;"/><path d="M2568,933.66 L2568,943.66 L2578,943.66 L2568,933.66 " fill="#FEFFDD" style="stroke:#181818;stroke-width:1.0;"/><text fill="#000000" font-family="sans-serif" font-size="13" lengthAdjust="spacing" textLength="517" x="2046" y="950.7269">Represents the abstract functionality only; implementation details are elsewhere.</text></g><g id="elem_GMN54"><path d="M4863.5,455.88 L4863.5,481.0128 L5334.5,481.0128 L5334.5,465.88 L5324.5,455.88 L4863.5,455.88 " fill="#FEFFDD" style="stroke:#181818;stroke-width:0.5;"/><path d="M5324.5,455.88 L5324.5,465.88 L5334.5,465.88 L5324.5,455.88 " fill="#FEFFDD" style="stroke:#181818;stroke-width:1.0;"/><text fill="#000000" font-family="sans-serif" font-size="13" lengthAdjust="spacing" textLength="450" x="4869.5" y="472.9469">Frameworks and tools such as the Database, the Web Framework, etc.</text></g><g id="elem_GMN57"><path d="M3722,455.88 L3722,481.0128 L4828,481.0128 L4828,465.88 L4818,455.88 L3722,455.88 " fill="#FEFFDD" style="stroke:#181818;stroke-width:0.5;"/><path d="M4818,455.88 L4818,465.88 L4828,465.88 L4818,455.88 " fill="#FEFFDD" style="stroke:#181818;stroke-width:1.0;"/><text fill="#000000" font-family="sans-serif" font-size="13" lengthAdjust="spacing" textLength="1085" x="3728" y="472.9469">Convert data from the format most convenient for the use cases and entities, to the format most convenient for some external agency such as the Database or the Web.</text></g><g id="elem_GMN60"><path d="M3014.5,455.88 L3014.5,481.0128 L3687.5,481.0128 L3687.5,465.88 L3677.5,455.88 L3014.5,455.88 " fill="#FEFFDD" style="stroke:#181818;stroke-width:0.5;"/><path d="M3677.5,455.88 L3677.5,465.88 L3687.5,465.88 L3677.5,455.88 " fill="#FEFFDD" style="stroke:#181818;stroke-width:1.0;"/><text fill="#000000" font-family="sans-serif" font-size="13" lengthAdjust="spacing" textLength="652" x="3020.5" y="472.9469">Application specific business rules. It encapsulates and implements all of the use cases of the system.</text></g><g id="elem_GMN63"><path d="M2040.5,455.88 L2040.5,481.0128 L2979.5,481.0128 L2979.5,465.88 L2969.5,455.88 L2040.5,455.88 " fill="#FEFFDD" style="stroke:#181818;stroke-width:0.5;"/><path d="M2969.5,455.88 L2969.5,465.88 L2979.5,465.88 L2969.5,455.88 " fill="#FEFFDD" style="stroke:#181818;stroke-width:1.0;"/><text fill="#000000" font-family="sans-serif" font-size="13" lengthAdjust="spacing" textLength="918" x="2046.5" y="472.9469">Entities encapsulate Enterprise wide business rules. An entity can be an object with methods, or it can be a set of data structures and functions.</text></g><!--link SewerOverflowIndicationComponent to GMN39--><g id="link_SewerOverflowIndicationComponent_GMN39"><path d="M923,501.02 C923,538.12 923,593.67 923,593.67 C923,593.67 2264.25,593.67 2264.25,593.67 C2264.25,593.67 2264.25,693.13 2264.25,729.27 " fill="none" id="SewerOverflowIndicationComponent-GMN39" style="stroke:#181818;stroke-width:1.0;stroke-dasharray:7.0,7.0;"/></g><!--link Sewers to GMN48--><g id="link_Sewers_GMN48"><path d="M1766.46,768.67 C1941.75,768.67 2264,768.67 2264,768.67 C2264,768.67 2264,892.16 2264,933.17 " fill="none" id="Sewers-GMN48" style="stroke:#181818;stroke-width:1.0;stroke-dasharray:7.0,7.0;"/></g><!--link drivers to GMN54--><g id="link_drivers_GMN54"><path d="M2016.7618,344.67 C2018.2043,344.67 2019.821,344.67 2021.609,344.67 C2028.7609,344.67 2038.6537,344.67 2051.1031,344.67 C2076.0019,344.67 2111.127,344.67 2155.0044,344.67 C2242.7591,344.67 2365.5226,344.67 2511.5014,344.67 C2803.4591,344.67 3188.2781,344.67 3571.6113,344.67 C4338.2775,344.67 5099,344.67 5099,344.67 C5099,344.67 5099,424.04 5099,455.66 " fill="none" id="drivers-GMN54" style="stroke:#181818;stroke-width:1.0;stroke-dasharray:7.0,7.0;"/></g><!--link adapters to GMN57--><g id="link_adapters_GMN57"><path d="M1969.3872,406.67 C1969.9478,406.67 1970.5326,406.67 1971.1416,406.67 C1973.5776,406.67 1976.3996,406.67 1979.5944,406.67 C1992.3733,406.67 2011.1157,406.67 2034.9697,406.67 C2082.6777,406.67 2150.832,406.67 2232.6172,406.67 C2396.1875,406.67 2614.2813,406.67 2832.375,406.67 C3268.5625,406.67 3704.75,406.67 3704.75,406.67 C3704.75,406.67 3704.75,468.67 3704.75,468.67 C3704.75,468.67 3710.75,468.67 3721.51,468.67 " fill="none" id="adapters-GMN57" style="stroke:#181818;stroke-width:1.0;stroke-dasharray:7.0,7.0;"/></g><!--link use_cases to GMN60--><g id="link_use_cases_GMN60"><path d="M1921.1892,361.67 C1923.1983,361.67 1925.5258,361.67 1928.1606,361.67 C1938.7002,361.67 1954.1582,361.67 1973.832,361.67 C2013.1797,361.67 2069.3906,361.67 2136.8438,361.67 C2271.75,361.67 2451.625,361.67 2631.5,361.67 C2991.25,361.67 3351,361.67 3351,361.67 C3351,361.67 3351,427.49 3351,455.78 " fill="none" id="use_cases-GMN60" style="stroke:#181818;stroke-width:1.0;stroke-dasharray:7.0,7.0;"/></g><!--link entities to GMN63--><g id="link_entities_GMN63"><path d="M1872.3219,468.67 C1872.5386,468.67 1872.7593,468.67 1872.9841,468.67 C1873.4336,468.67 1873.8991,468.67 1874.3803,468.67 C1875.3429,468.67 1876.3686,468.67 1877.4559,468.67 C1886.1544,468.67 1898.7937,468.67 1914.5575,468.67 C1946.085,468.67 1990.11,468.67 2040.1,468.67 " fill="none" id="entities-GMN63" style="stroke:#181818;stroke-width:1.0;stroke-dasharray:7.0,7.0;"/></g><!--link SewerOverflowIndicationService to SewerOverflowIndicationComponent--><g id="link_SewerOverflowIndicationService_SewerOverflowIndicationComponent"><path codeLine="90" d="M943,376.48 C943,394.75 943,411.53 943,429.84 " fill="none" id="SewerOverflowIndicationService-to-SewerOverflowIndicationComponent" style="stroke:#181818;stroke-width:1.0;"/><polygon fill="#181818" points="943,435.84,947,426.84,943,430.84,939,426.84,943,435.84" style="stroke:#181818;stroke-width:1.0;"/></g><!--link SewerOverflowIndicationComponent to FlowIndicationComponent--><g id="link_SewerOverflowIndicationComponent_FlowIndicationComponent"><path codeLine="91" d="M801.83,468.67 C621.09,468.67 331,468.67 331,468.67 C331,468.67 331,631.28 331,703.74 " fill="none" id="SewerOverflowIndicationComponent-to-FlowIndicationComponent" style="stroke:#181818;stroke-width:1.0;"/><polygon fill="#181818" points="331,709.74,335,700.74,331,704.74,327,700.74,331,709.74" style="stroke:#181818;stroke-width:1.0;"/></g><!--link SewerOverflowIndicationComponent to Sewers--><g id="link_SewerOverflowIndicationComponent_Sewers"><path codeLine="92" d="M1084.2,468.67 C1255.96,468.67 1523.25,468.67 1523.25,468.67 C1523.25,468.67 1523.25,742.67 1523.25,742.67 C1523.25,742.67 1526.34,742.67 1539.77,742.67 " fill="none" id="SewerOverflowIndicationComponent-to-Sewers" style="stroke:#181818;stroke-width:1.0;"/><polygon fill="#181818" points="1545.77,742.67,1536.77,738.67,1540.77,742.67,1536.77,746.67,1545.77,742.67" style="stroke:#181818;stroke-width:1.0;"/></g><!--link SewerOverflowIndicationComponent to PumpIndicationComponent--><g id="link_SewerOverflowIndicationComponent_PumpIndicationComponent"><path codeLine="93" d="M822.25,500.98 C822.25,573.62 822.25,742.67 822.25,742.67 C822.25,742.67 813.14,742.67 791.94,742.67 " fill="none" id="SewerOverflowIndicationComponent-to-PumpIndicationComponent" style="stroke:#181818;stroke-width:1.0;"/><polygon fill="#181818" points="785.94,742.67,794.94,746.67,790.94,742.67,794.94,738.67,785.94,742.67" style="stroke:#181818;stroke-width:1.0;"/></g><!--link SewerOverflowIndicationComponent to RainIndicationComponent--><g id="link_SewerOverflowIndicationComponent_RainIndicationComponent"><path codeLine="94" d="M1003.5,500.92 C1003.5,553.6 1003.5,651.09 1003.5,703.75 " fill="none" id="SewerOverflowIndicationComponent-to-RainIndicationComponent" style="stroke:#181818;stroke-width:1.0;"/><polygon fill="#181818" points="1003.5,709.75,1007.5,700.75,1003.5,704.75,999.5,700.75,1003.5,709.75" style="stroke:#181818;stroke-width:1.0;"/></g><!--link SewerObservationService to SewerObservationComponent--><g id="link_SewerObservationService_SewerObservationComponent"><path codeLine="95" d="M1656,376.48 C1656,394.75 1656,411.53 1656,429.84 " fill="none" id="SewerObservationService-to-SewerObservationComponent" style="stroke:#181818;stroke-width:1.0;"/><polygon fill="#181818" points="1656,435.84,1660,426.84,1656,430.84,1652,426.84,1656,435.84" style="stroke:#181818;stroke-width:1.0;"/></g><!--link SewerObservationComponent to Sewers--><g id="link_SewerObservationComponent_Sewers"><path codeLine="96" d="M1656,500.92 C1656,551.06 1656,641.2 1656,695.76 " fill="none" id="SewerObservationComponent-to-Sewers" style="stroke:#181818;stroke-width:1.0;"/><polygon fill="#181818" points="1656,701.76,1660,692.76,1656,696.76,1652,692.76,1656,701.76" style="stroke:#181818;stroke-width:1.0;"/></g><!--link Sewer to Problem--><g id="link_Sewer_Problem"><path codeLine="97" d="M1501,799.15 C1501,859.65 1501,946.67 1501,946.67 C1501,946.67 1515.43,946.67 1542.08,946.67 " fill="none" id="Sewer-to-Problem" style="stroke:#181818;stroke-width:1.0;"/><polygon fill="#181818" points="1548.08,946.67,1539.08,942.67,1543.08,946.67,1539.08,950.67,1548.08,946.67" style="stroke:#181818;stroke-width:1.0;"/></g><!--link Sewer to KeyPerformanceIndicator--><g id="link_Sewer_KeyPerformanceIndicator"><path codeLine="98" d="M1371.5,799.02 C1371.5,829.92 1371.5,861.74 1371.5,891.31 " fill="none" id="Sewer-to-KeyPerformanceIndicator" style="stroke:#181818;stroke-width:1.0;"/><polygon fill="#181818" points="1371.5,897.31,1375.5,888.31,1371.5,892.31,1367.5,888.31,1371.5,897.31" style="stroke:#181818;stroke-width:1.0;"/></g><!--SRC=[tLXHRzis47xNh-3i5nTBYM7Omu8L0Ogs0OnYMv2WwED0KIURCqKA96NN2FBVTnGbMOujnqvaPUsJPOgyxxxZyUwZVieDcsMC51Qcoe79817CmGtZ2pO3Ir8cBKHs8LJE3Ck850hSEWUYZPlhoCxrYbXS1zgFHdbOHooim11cIGAKwondQarperqvYuQtuzLSE23t3ysgn8Wb67ju7QrdZUrY7SjYom9BMEwEDa6RwUFVVqtJ-BUsAOp8FvnPEDKMtImSf-abkxniMmNbX1ClC4eR2-EKfqdyIzkwK8dWk7qljquRKxlR5Ej29SoiUqIXZSsn5DaM6jVA6ItF0KPhssDjc9gTdMGgzMfOfbk8GzFDYomVbkuMuj1q3HDgMBfRY8VewjY2MVPH5cfBPwqA5SWWmNoCTIYCHtIrep2x-b-F8GmpXmZWDjAXy9LBrcU3f9NzFNsnzy0kSZ5WSDje0mPu7-oGGSQLiOHim40_HXmms5tGUm8USSci9QCxl_1ljE-x_3Gq1Q7L7TOpmM5q5iLq69FSHuJylDGY8MLLdVp9ydTtpWWrko3Xz-fDzF04WG_eiLRenEYSeey-XTuY0z-05wwJZjBEfxzpEYCwVJsFewbQwWLU3RIROuFXzRWbJfEu438X-8AaGZ5PtnLmVPXeXN-c4QY4U4Br9bqFi3TxPIgzVkc-L0nkK1MUcy5UvKaxa4zcS8j2xzmCzef9se5yCeEGkgNMwhj8xIYu3gpWynsuT-M4gwf41LyFkDfhkBla9kr4tN6x3lZ6SU6_tAGCAGRdxQX_aHKC1sV8FOkjCuoxXvPV5RN9bo_JZsyUJIipfKwrIRcW_yAvr-Fe5d83DbH1B7wrIoGj5FU1PjAtLwta-WyYiXnxCCuDTJ41nuIqX1biznBDOrM5tGfP0etEhMi3dx01FiHa1cwQJCf8VuRr3MQ0DXbJ7AhpgesVyZaNOOxVgPiWCgxyY-hPXhTLpzwCjgUt3aS7qcW8qKcxQ8OJKXw7aXbMtHkDnZvePV7PxsKLWsQExorXxAyYYw4CbQzrAPDoqkuT8GIZeNGUhG0VSxe5PciM6uztjS3aMSSgkZOiWvKs2qnsp6wdDQQzBVZSy_R7vYDpB4O-5-M_hn2JPia50STRf-BvXph23SC1Hn948wb10wLUyHlkIAQjyuf_2KhukeZ3vMiCDQa-rA8BTRWllEPvOhNLU9s0RmZj1H6AUiNNUrcJ2Wfvzq9qanxH-poNjGwpEN2H2evQpGe5c7-ca9WvPEgG5sUvBIJMpq2qgLNuLqhlm7OmgW6xjWxJhL-lcwIEFjLVerl-aK- -7-L6e2yhaS0EdVUglZrnfaYCHLbXz_WNi2glX9kJ3DnS9xY567RXcac-FfKk- -p0AbvmLvWg6dKrjoscGrz-thwzUaNj_thtf3vvdtGJ-BuvxvShFyOsddGT-a4udtI1YeQwzFJ0yFGxIpJyBUd_UY2FqVIz-NwakFokE3tZGl0V]--></g></svg>