<svg xmlns="http://www.w3.org/2000/svg" xmlns:xlink="http://www.w3.org/1999/xlink" contentStyleType="text/css" height="1150px" preserveAspectRatio="none" style="width:5515px;height:1150px;background:#FFFFFF;" version="1.1" viewBox="0 0 5515 1150" width="5515px" zoomAndPan="magnify"><defs/><g><!--cluster drivers--><g id="cluster_drivers"><path d="M504,6 L800,6 A3.75,3.75 0 0 1 802.5,8.5 L809.5,28.2969 L2691,28.2969 A2.5,2.5 0 0 1 2693.5,30.7969 L2693.5,1141.17 A2.5,2.5 0 0 1 2691,1143.67 L504,1143.67 A2.5,2.5 0 0 1 501.5,1141.17 L501.5,8.5 A2.5,2.5 0 0 1 504,6 " fill="#87CEEB" style="stroke:#000000;stroke-width:1.5;"/><line style="stroke:#000000;stroke-width:1.5;" x1="501.5" x2="809.5" y1="28.2969" y2="28.2969"/><text fill="#000000" font-family="sans-serif" font-size="14" font-weight="bold" lengthAdjust="spacing" textLength="295" x="505.5" y="20.9951">de.company.prototype.sewer.drivers</text></g><!--cluster adapters--><g id="cluster_adapters"><path d="M544,65 L615,65 A3.75,3.75 0 0 1 617.5,67.5 L624.5,87.2969 L2643,87.2969 A2.5,2.5 0 0 1 2645.5,89.7969 L2645.5,1101.17 A2.5,2.5 0 0 1 2643,1103.67 L544,1103.67 A2.5,2.5 0 0 1 541.5,1101.17 L541.5,67.5 A2.5,2.5 0 0 1 544,65 " fill="#82FFB4" style="stroke:#000000;stroke-width:1.5;"/><line style="stroke:#000000;stroke-width:1.5;" x1="541.5" x2="624.5" y1="87.2969" y2="87.2969"/><text fill="#000000" font-family="sans-serif" font-size="14" font-weight="bold" lengthAdjust="spacing" textLength="70" x="545.5" y="79.9951">adapters</text></g><!--cluster use_cases--><g id="cluster_use_cases"><path d="M584,124 L667,124 A3.75,3.75 0 0 1 669.5,126.5 L676.5,146.2969 L2595,146.2969 A2.5,2.5 0 0 1 2597.5,148.7969 L2597.5,1061.17 A2.5,2.5 0 0 1 2595,1063.67 L584,1063.67 A2.5,2.5 0 0 1 581.5,1061.17 L581.5,126.5 A2.5,2.5 0 0 1 584,124 " fill="#FF9A99" style="stroke:#000000;stroke-width:1.5;"/><line style="stroke:#000000;stroke-width:1.5;" x1="581.5" x2="676.5" y1="146.2969" y2="146.2969"/><text fill="#000000" font-family="sans-serif" font-size="14" font-weight="bold" lengthAdjust="spacing" textLength="82" x="585.5" y="138.9951">use_cases</text></g><!--cluster entities--><g id="cluster_entities"><path d="M624,183 L684,183 A3.75,3.75 0 0 1 686.5,185.5 L693.5,205.2969 L2547,205.2969 A2.5,2.5 0 0 1 2549.5,207.7969 L2549.5,1021.17 A2.5,2.5 0 0 1 2547,1023.67 L624,1023.67 A2.5,2.5 0 0 1 621.5,1021.17 L621.5,185.5 A2.5,2.5 0 0 1 624,183 " fill="#FCFDB0" style="stroke:#000000;stroke-width:1.5;"/><line style="stroke:#000000;stroke-width:1.5;" x1="621.5" x2="693.5" y1="205.2969" y2="205.2969"/><text fill="#000000" font-family="sans-serif" font-size="14" font-weight="bold" lengthAdjust="spacing" textLength="59" x="625.5" y="197.9951">entities</text></g><!--cluster boundary--><g id="cluster_boundary"><path d="M656,234 L799,234 A3.75,3.75 0 0 1 801.5,236.5 L808.5,256.2969 L1823,256.2969 A2.5,2.5 0 0 1 1825.5,258.7969 L1825.5,768.83 A2.5,2.5 0 0 1 1823,771.33 L656,771.33 A2.5,2.5 0 0 1 653.5,768.83 L653.5,236.5 A2.5,2.5 0 0 1 656,234 " fill="#00FF00" style="stroke:#000000;stroke-width:1.5;"/><line style="stroke:#000000;stroke-width:1.5;" x1="653.5" x2="808.5" y1="256.2969" y2="256.2969"/><text fill="#000000" font-family="sans-serif" font-size="14" font-weight="bold" lengthAdjust="spacing" textLength="142" x="657.5" y="248.9951">indicate.boundary</text></g><!--cluster control--><g id="cluster_control"><path d="M680,358.29 L737,358.29 A3.75,3.75 0 0 1 739.5,360.79 L746.5,380.5869 L1799,380.5869 A2.5,2.5 0 0 1 1801.5,383.0869 L1801.5,744.83 A2.5,2.5 0 0 1 1799,747.33 L680,747.33 A2.5,2.5 0 0 1 677.5,744.83 L677.5,360.79 A2.5,2.5 0 0 1 680,358.29 " fill="#FFA500" style="stroke:#000000;stroke-width:1.5;"/><line style="stroke:#000000;stroke-width:1.5;" x1="677.5" x2="746.5" y1="380.5869" y2="380.5869"/><text fill="#000000" font-family="sans-serif" font-size="14" font-weight="bold" lengthAdjust="spacing" textLength="56" x="681.5" y="373.2851">control</text></g><!--cluster boundary--><g id="cluster_boundary"><path d="M2160,234 L2306,234 A3.75,3.75 0 0 1 2308.5,236.5 L2315.5,256.2969 L2475,256.2969 A2.5,2.5 0 0 1 2477.5,258.7969 L2477.5,495.09 A2.5,2.5 0 0 1 2475,497.59 L2160,497.59 A2.5,2.5 0 0 1 2157.5,495.09 L2157.5,236.5 A2.5,2.5 0 0 1 2160,234 " fill="#00FF00" style="stroke:#000000;stroke-width:1.5;"/><line style="stroke:#000000;stroke-width:1.5;" x1="2157.5" x2="2315.5" y1="256.2969" y2="256.2969"/><text fill="#000000" font-family="sans-serif" font-size="14" font-weight="bold" lengthAdjust="spacing" textLength="145" x="2161.5" y="248.9951">observe.boundary</text></g><!--cluster control--><g id="cluster_control"><path d="M2184,358.29 L2241,358.29 A3.75,3.75 0 0 1 2243.5,360.79 L2250.5,380.5869 L2451,380.5869 A2.5,2.5 0 0 1 2453.5,383.0869 L2453.5,471.09 A2.5,2.5 0 0 1 2451,473.59 L2184,473.59 A2.5,2.5 0 0 1 2181.5,471.09 L2181.5,360.79 A2.5,2.5 0 0 1 2184,358.29 " fill="#FFA500" style="stroke:#000000;stroke-width:1.5;"/><line style="stroke:#000000;stroke-width:1.5;" x1="2181.5" x2="2250.5" y1="380.5869" y2="380.5869"/><text fill="#000000" font-family="sans-serif" font-size="14" font-weight="bold" lengthAdjust="spacing" textLength="56" x="2185.5" y="373.2851">control</text></g><!--cluster sewer--><g id="cluster_sewer"><path d="M1852,521.59 L1903,521.59 A3.75,3.75 0 0 1 1905.5,524.09 L1912.5,543.8869 L2507,543.8869 A2.5,2.5 0 0 1 2509.5,546.3869 L2509.5,989.17 A2.5,2.5 0 0 1 2507,991.67 L1852,991.67 A2.5,2.5 0 0 1 1849.5,989.17 L1849.5,524.09 A2.5,2.5 0 0 1 1852,521.59 " fill="none" style="stroke:#000000;stroke-width:1.5;"/><line style="stroke:#000000;stroke-width:1.5;" x1="1849.5" x2="1912.5" y1="543.8869" y2="543.8869"/><text fill="#000000" font-family="sans-serif" font-size="14" font-weight="bold" lengthAdjust="spacing" textLength="50" x="1853.5" y="536.5851">sewer</text></g><!--cluster boundary--><g id="cluster_boundary"><path d="M1876,564.59 L1952,564.59 A3.75,3.75 0 0 1 1954.5,567.09 L1961.5,586.8869 L2441,586.8869 A2.5,2.5 0 0 1 2443.5,589.3869 L2443.5,793.28 A2.5,2.5 0 0 1 2441,795.78 L1876,795.78 A2.5,2.5 0 0 1 1873.5,793.28 L1873.5,567.09 A2.5,2.5 0 0 1 1876,564.59 " fill="#00FF00" style="stroke:#000000;stroke-width:1.5;"/><line style="stroke:#000000;stroke-width:1.5;" x1="1873.5" x2="1961.5" y1="586.8869" y2="586.8869"/><text fill="#000000" font-family="sans-serif" font-size="14" font-weight="bold" lengthAdjust="spacing" textLength="75" x="1877.5" y="579.5851">boundary</text></g><!--cluster entity--><g id="cluster_entity"><path d="M1900,607.59 L2007,607.59 A3.75,3.75 0 0 1 2009.5,610.09 L2016.5,629.8869 L2185,629.8869 A2.5,2.5 0 0 1 2187.5,632.3869 L2187.5,769.28 A2.5,2.5 0 0 1 2185,771.78 L1900,771.78 A2.5,2.5 0 0 1 1897.5,769.28 L1897.5,610.09 A2.5,2.5 0 0 1 1900,607.59 " fill="#FCFDB0" style="stroke:#000000;stroke-width:1.5;"/><line style="stroke:#000000;stroke-width:1.5;" x1="1897.5" x2="2016.5" y1="629.8869" y2="629.8869"/><text fill="#000000" font-family="sans-serif" font-size="14" font-weight="bold" lengthAdjust="spacing" textLength="106" x="1901.5" y="622.5851">control.entity</text></g><!--cluster entity--><g id="cluster_entity"><path d="M1876,819.78 L2091,819.78 A3.75,3.75 0 0 1 2093.5,822.28 L2100.5,842.0769 L2183,842.0769 A2.5,2.5 0 0 1 2185.5,844.5769 L2185.5,965.17 A2.5,2.5 0 0 1 2183,967.67 L1876,967.67 A2.5,2.5 0 0 1 1873.5,965.17 L1873.5,822.28 A2.5,2.5 0 0 1 1876,819.78 " fill="#FCFDB0" style="stroke:#000000;stroke-width:1.5;"/><line style="stroke:#000000;stroke-width:1.5;" x1="1873.5" x2="2100.5" y1="842.0769" y2="842.0769"/><text fill="#000000" font-family="sans-serif" font-size="14" font-weight="bold" lengthAdjust="spacing" textLength="214" x="1877.5" y="834.7751">kpi.boundary.control.entity</text></g><!--cluster entity--><g id="cluster_entity"><path d="M2212,827.93 L2469,827.93 A3.75,3.75 0 0 1 2471.5,830.43 L2478.5,850.2269 L2483,850.2269 A2.5,2.5 0 0 1 2485.5,852.7269 L2485.5,957.02 A2.5,2.5 0 0 1 2483,959.52 L2212,959.52 A2.5,2.5 0 0 1 2209.5,957.02 L2209.5,830.43 A2.5,2.5 0 0 1 2212,827.93 " fill="#FCFDB0" style="stroke:#000000;stroke-width:1.5;"/><line style="stroke:#000000;stroke-width:1.5;" x1="2209.5" x2="2478.5" y1="850.2269" y2="850.2269"/><text fill="#000000" font-family="sans-serif" font-size="14" font-weight="bold" lengthAdjust="spacing" textLength="256" x="2213.5" y="842.9251">problem.boundary.control.entity</text></g><!--class SewerOverflowIndicationService--><g id="elem_SewerOverflowIndicationService"><rect codeLine="22" fill="#F1F1F1" height="64.2969" id="SewerOverflowIndicationService" rx="2.5" ry="2.5" style="stroke:#181818;stroke-width:0.5;" width="250" x="1302.5" y="269"/><ellipse cx="1317.5" cy="285" fill="#ADD1B2" rx="11" ry="11" style="stroke:#181818;stroke-width:1.0;"/><path d="M1320.4688,290.6406 Q1319.8906,290.9375 1319.25,291.0781 Q1318.6094,291.2344 1317.9063,291.2344 Q1315.4063,291.2344 1314.0781,289.5938 Q1312.7656,287.9375 1312.7656,284.8125 Q1312.7656,281.6875 1314.0781,280.0313 Q1315.4063,278.375 1317.9063,278.375 Q1318.6094,278.375 1319.25,278.5313 Q1319.9063,278.6875 1320.4688,278.9844 L1320.4688,281.7031 Q1319.8438,281.125 1319.25,280.8594 Q1318.6563,280.5781 1318.0313,280.5781 Q1316.6875,280.5781 1316,281.6563 Q1315.3125,282.7188 1315.3125,284.8125 Q1315.3125,286.9063 1316,287.9844 Q1316.6875,289.0469 1318.0313,289.0469 Q1318.6563,289.0469 1319.25,288.7813 Q1319.8438,288.5 1320.4688,287.9219 L1320.4688,290.6406 Z " fill="#000000"/><text fill="#000000" font-family="sans-serif" font-size="14" lengthAdjust="spacing" textLength="218" x="1331.5" y="289.8467">SewerOverflowIndicationService</text><line style="stroke:#181818;stroke-width:0.5;" x1="1303.5" x2="1551.5" y1="301" y2="301"/><line style="stroke:#181818;stroke-width:0.5;" x1="1303.5" x2="1551.5" y1="309" y2="309"/><ellipse cx="1313.5" cy="322.6484" fill="#84BE84" rx="3" ry="3" style="stroke:#038048;stroke-width:1.0;"/><text fill="#000000" font-family="sans-serif" font-size="14" lengthAdjust="spacing" textLength="221" x="1322.5" y="325.9951">void serve(Map&lt;String, String&gt;)</text></g><!--class FlowIndicationComponent--><g id="elem_FlowIndicationComponent"><rect codeLine="25" fill="#F1F1F1" height="64.2969" id="FlowIndicationComponent" rx="2.5" ry="2.5" style="stroke:#181818;stroke-width:0.5;" width="341" x="693" y="667.04"/><ellipse cx="769.75" cy="683.04" fill="#ADD1B2" rx="11" ry="11" style="stroke:#181818;stroke-width:1.0;"/><path d="M772.7188,688.6806 Q772.1406,688.9775 771.5,689.1181 Q770.8594,689.2744 770.1563,689.2744 Q767.6563,689.2744 766.3281,687.6338 Q765.0156,685.9775 765.0156,682.8525 Q765.0156,679.7275 766.3281,678.0713 Q767.6563,676.415 770.1563,676.415 Q770.8594,676.415 771.5,676.5713 Q772.1563,676.7275 772.7188,677.0244 L772.7188,679.7431 Q772.0938,679.165 771.5,678.8994 Q770.9063,678.6181 770.2813,678.6181 Q768.9375,678.6181 768.25,679.6963 Q767.5625,680.7588 767.5625,682.8525 Q767.5625,684.9463 768.25,686.0244 Q768.9375,687.0869 770.2813,687.0869 Q770.9063,687.0869 771.5,686.8213 Q772.0938,686.54 772.7188,685.9619 L772.7188,688.6806 Z " fill="#000000"/><text fill="#000000" font-family="sans-serif" font-size="14" lengthAdjust="spacing" textLength="179" x="790.25" y="687.8867">FlowIndicationComponent</text><line style="stroke:#181818;stroke-width:0.5;" x1="694" x2="1033" y1="699.04" y2="699.04"/><line style="stroke:#181818;stroke-width:0.5;" x1="694" x2="1033" y1="707.04" y2="707.04"/><ellipse cx="704" cy="720.6884" fill="#84BE84" rx="3" ry="3" style="stroke:#038048;stroke-width:1.0;"/><text fill="#000000" font-family="sans-serif" font-size="14" lengthAdjust="spacing" textLength="315" x="713" y="724.0351">void execute(Map&lt;String, ? extends Object&gt;)</text></g><!--class PumpIndicationComponent--><g id="elem_PumpIndicationComponent"><rect codeLine="28" fill="#F1F1F1" height="64.2969" id="PumpIndicationComponent" rx="2.5" ry="2.5" style="stroke:#181818;stroke-width:0.5;" width="341" x="1069" y="667.04"/><ellipse cx="1141.25" cy="683.04" fill="#ADD1B2" rx="11" ry="11" style="stroke:#181818;stroke-width:1.0;"/><path d="M1144.2188,688.6806 Q1143.6406,688.9775 1143,689.1181 Q1142.3594,689.2744 1141.6563,689.2744 Q1139.1563,689.2744 1137.8281,687.6338 Q1136.5156,685.9775 1136.5156,682.8525 Q1136.5156,679.7275 1137.8281,678.0713 Q1139.1563,676.415 1141.6563,676.415 Q1142.3594,676.415 1143,676.5713 Q1143.6563,676.7275 1144.2188,677.0244 L1144.2188,679.7431 Q1143.5938,679.165 1143,678.8994 Q1142.4063,678.6181 1141.7813,678.6181 Q1140.4375,678.6181 1139.75,679.6963 Q1139.0625,680.7588 1139.0625,682.8525 Q1139.0625,684.9463 1139.75,686.0244 Q1140.4375,687.0869 1141.7813,687.0869 Q1142.4063,687.0869 1143,686.8213 Q1143.5938,686.54 1144.2188,685.9619 L1144.2188,688.6806 Z " fill="#000000"/><text fill="#000000" font-family="sans-serif" font-size="14" lengthAdjust="spacing" textLength="188" x="1161.75" y="687.8867">PumpIndicationComponent</text><line style="stroke:#181818;stroke-width:0.5;" x1="1070" x2="1409" y1="699.04" y2="699.04"/><line style="stroke:#181818;stroke-width:0.5;" x1="1070" x2="1409" y1="707.04" y2="707.04"/><ellipse cx="1080" cy="720.6884" fill="#84BE84" rx="3" ry="3" style="stroke:#038048;stroke-width:1.0;"/><text fill="#000000" font-family="sans-serif" font-size="14" lengthAdjust="spacing" textLength="315" x="1089" y="724.0351">void execute(Map&lt;String, ? extends Object&gt;)</text></g><!--class RainIndicationComponent--><g id="elem_RainIndicationComponent"><rect codeLine="31" fill="#F1F1F1" height="64.2969" id="RainIndicationComponent" rx="2.5" ry="2.5" style="stroke:#181818;stroke-width:0.5;" width="341" x="1445" y="667.04"/><ellipse cx="1522.25" cy="683.04" fill="#ADD1B2" rx="11" ry="11" style="stroke:#181818;stroke-width:1.0;"/><path d="M1525.2188,688.6806 Q1524.6406,688.9775 1524,689.1181 Q1523.3594,689.2744 1522.6563,689.2744 Q1520.1563,689.2744 1518.8281,687.6338 Q1517.5156,685.9775 1517.5156,682.8525 Q1517.5156,679.7275 1518.8281,678.0713 Q1520.1563,676.415 1522.6563,676.415 Q1523.3594,676.415 1524,676.5713 Q1524.6563,676.7275 1525.2188,677.0244 L1525.2188,679.7431 Q1524.5938,679.165 1524,678.8994 Q1523.4063,678.6181 1522.7813,678.6181 Q1521.4375,678.6181 1520.75,679.6963 Q1520.0625,680.7588 1520.0625,682.8525 Q1520.0625,684.9463 1520.75,686.0244 Q1521.4375,687.0869 1522.7813,687.0869 Q1523.4063,687.0869 1524,686.8213 Q1524.5938,686.54 1525.2188,685.9619 L1525.2188,688.6806 Z " fill="#000000"/><text fill="#000000" font-family="sans-serif" font-size="14" lengthAdjust="spacing" textLength="178" x="1542.75" y="687.8867">RainIndicationComponent</text><line style="stroke:#181818;stroke-width:0.5;" x1="1446" x2="1785" y1="699.04" y2="699.04"/><line style="stroke:#181818;stroke-width:0.5;" x1="1446" x2="1785" y1="707.04" y2="707.04"/><ellipse cx="1456" cy="720.6884" fill="#84BE84" rx="3" ry="3" style="stroke:#038048;stroke-width:1.0;"/><text fill="#000000" font-family="sans-serif" font-size="14" lengthAdjust="spacing" textLength="315" x="1465" y="724.0351">void execute(Map&lt;String, ? extends Object&gt;)</text></g><!--class SewerOverflowIndicationComponent--><g id="elem_SewerOverflowIndicationComponent"><rect codeLine="34" fill="#F1F1F1" height="64.2969" id="SewerOverflowIndicationComponent" rx="2.5" ry="2.5" style="stroke:#181818;stroke-width:0.5;" width="341" x="1257" y="393.29"/><ellipse cx="1298.55" cy="409.29" fill="#ADD1B2" rx="11" ry="11" style="stroke:#181818;stroke-width:1.0;"/><path d="M1301.5188,414.9306 Q1300.9406,415.2275 1300.3,415.3681 Q1299.6594,415.5244 1298.9563,415.5244 Q1296.4563,415.5244 1295.1281,413.8838 Q1293.8156,412.2275 1293.8156,409.1025 Q1293.8156,405.9775 1295.1281,404.3213 Q1296.4563,402.665 1298.9563,402.665 Q1299.6594,402.665 1300.3,402.8213 Q1300.9563,402.9775 1301.5188,403.2744 L1301.5188,405.9931 Q1300.8938,405.415 1300.3,405.1494 Q1299.7063,404.8681 1299.0813,404.8681 Q1297.7375,404.8681 1297.05,405.9463 Q1296.3625,407.0088 1296.3625,409.1025 Q1296.3625,411.1963 1297.05,412.2744 Q1297.7375,413.3369 1299.0813,413.3369 Q1299.7063,413.3369 1300.3,413.0713 Q1300.8938,412.79 1301.5188,412.2119 L1301.5188,414.9306 Z " fill="#000000"/><text fill="#000000" font-family="sans-serif" font-size="14" lengthAdjust="spacing" textLength="250" x="1318.45" y="414.1367">SewerOverflowIndicationComponent</text><line style="stroke:#181818;stroke-width:0.5;" x1="1258" x2="1597" y1="425.29" y2="425.29"/><line style="stroke:#181818;stroke-width:0.5;" x1="1258" x2="1597" y1="433.29" y2="433.29"/><ellipse cx="1268" cy="446.9384" fill="#84BE84" rx="3" ry="3" style="stroke:#038048;stroke-width:1.0;"/><text fill="#000000" font-family="sans-serif" font-size="14" lengthAdjust="spacing" textLength="315" x="1277" y="450.2851">void execute(Map&lt;String, ? extends Object&gt;)</text></g><!--class SewerObservationService--><g id="elem_SewerObservationService"><rect codeLine="37" fill="#F1F1F1" height="64.2969" id="SewerObservationService" rx="2.5" ry="2.5" style="stroke:#181818;stroke-width:0.5;" width="208" x="2213.5" y="269"/><ellipse cx="2228.5" cy="285" fill="#ADD1B2" rx="11" ry="11" style="stroke:#181818;stroke-width:1.0;"/><path d="M2231.4688,290.6406 Q2230.8906,290.9375 2230.25,291.0781 Q2229.6094,291.2344 2228.9063,291.2344 Q2226.4063,291.2344 2225.0781,289.5938 Q2223.7656,287.9375 2223.7656,284.8125 Q2223.7656,281.6875 2225.0781,280.0313 Q2226.4063,278.375 2228.9063,278.375 Q2229.6094,278.375 2230.25,278.5313 Q2230.9063,278.6875 2231.4688,278.9844 L2231.4688,281.7031 Q2230.8438,281.125 2230.25,280.8594 Q2229.6563,280.5781 2229.0313,280.5781 Q2227.6875,280.5781 2227,281.6563 Q2226.3125,282.7188 2226.3125,284.8125 Q2226.3125,286.9063 2227,287.9844 Q2227.6875,289.0469 2229.0313,289.0469 Q2229.6563,289.0469 2230.25,288.7813 Q2230.8438,288.5 2231.4688,287.9219 L2231.4688,290.6406 Z " fill="#000000"/><text fill="#000000" font-family="sans-serif" font-size="14" lengthAdjust="spacing" textLength="176" x="2242.5" y="289.8467">SewerObservationService</text><line style="stroke:#181818;stroke-width:0.5;" x1="2214.5" x2="2420.5" y1="301" y2="301"/><line style="stroke:#181818;stroke-width:0.5;" x1="2214.5" x2="2420.5" y1="309" y2="309"/><ellipse cx="2224.5" cy="322.6484" fill="#84BE84" rx="3" ry="3" style="stroke:#038048;stroke-width:1.0;"/><text fill="#000000" font-family="sans-serif" font-size="14" lengthAdjust="spacing" textLength="182" x="2233.5" y="325.9951">Set&lt;Sewer&gt; serve(String)</text></g><!--class SewerObservationComponent--><g id="elem_SewerObservationComponent"><rect codeLine="40" fill="#F1F1F1" height="64.2969" id="SewerObservationComponent" rx="2.5" ry="2.5" style="stroke:#181818;stroke-width:0.5;" width="240" x="2197.5" y="393.29"/><ellipse cx="2212.5" cy="409.29" fill="#ADD1B2" rx="11" ry="11" style="stroke:#181818;stroke-width:1.0;"/><path d="M2215.4688,414.9306 Q2214.8906,415.2275 2214.25,415.3681 Q2213.6094,415.5244 2212.9063,415.5244 Q2210.4063,415.5244 2209.0781,413.8838 Q2207.7656,412.2275 2207.7656,409.1025 Q2207.7656,405.9775 2209.0781,404.3213 Q2210.4063,402.665 2212.9063,402.665 Q2213.6094,402.665 2214.25,402.8213 Q2214.9063,402.9775 2215.4688,403.2744 L2215.4688,405.9931 Q2214.8438,405.415 2214.25,405.1494 Q2213.6563,404.8681 2213.0313,404.8681 Q2211.6875,404.8681 2211,405.9463 Q2210.3125,407.0088 2210.3125,409.1025 Q2210.3125,411.1963 2211,412.2744 Q2211.6875,413.3369 2213.0313,413.3369 Q2213.6563,413.3369 2214.25,413.0713 Q2214.8438,412.79 2215.4688,412.2119 L2215.4688,414.9306 Z " fill="#000000"/><text fill="#000000" font-family="sans-serif" font-size="14" lengthAdjust="spacing" textLength="208" x="2226.5" y="414.1367">SewerObservationComponent</text><line style="stroke:#181818;stroke-width:0.5;" x1="2198.5" x2="2436.5" y1="425.29" y2="425.29"/><line style="stroke:#181818;stroke-width:0.5;" x1="2198.5" x2="2436.5" y1="433.29" y2="433.29"/><ellipse cx="2208.5" cy="446.9384" fill="#84BE84" rx="3" ry="3" style="stroke:#038048;stroke-width:1.0;"/><text fill="#000000" font-family="sans-serif" font-size="14" lengthAdjust="spacing" textLength="200" x="2217.5" y="450.2851">Set&lt;Sewer&gt; execute(String)</text></g><!--class Sewers--><g id="elem_Sewers"><rect codeLine="43" fill="#F1F1F1" height="80.5938" id="Sewers" rx="2.5" ry="2.5" style="stroke:#181818;stroke-width:0.5;" width="220" x="2207.5" y="658.89"/><ellipse cx="2287.75" cy="674.89" fill="#B4A7E5" rx="11" ry="11" style="stroke:#181818;stroke-width:1.0;"/><path d="M2283.6719,670.6556 L2283.6719,668.4994 L2291.0625,668.4994 L2291.0625,670.6556 L2288.5938,670.6556 L2288.5938,678.7338 L2291.0625,678.7338 L2291.0625,680.89 L2283.6719,680.89 L2283.6719,678.7338 L2286.1406,678.7338 L2286.1406,670.6556 L2283.6719,670.6556 Z " fill="#000000"/><text fill="#000000" font-family="sans-serif" font-size="14" font-style="italic" lengthAdjust="spacing" textLength="51" x="2308.25" y="679.7367">Sewers</text><line style="stroke:#181818;stroke-width:0.5;" x1="2208.5" x2="2426.5" y1="690.89" y2="690.89"/><line style="stroke:#181818;stroke-width:0.5;" x1="2208.5" x2="2426.5" y1="698.89" y2="698.89"/><ellipse cx="2218.5" cy="712.5384" fill="#84BE84" rx="3" ry="3" style="stroke:#038048;stroke-width:1.0;"/><text fill="#000000" font-family="sans-serif" font-size="14" font-style="italic" lengthAdjust="spacing" textLength="194" x="2227.5" y="715.8851">Set&lt;Sewer&gt; observe(UUID)</text><ellipse cx="2218.5" cy="728.8353" fill="#84BE84" rx="3" ry="3" style="stroke:#038048;stroke-width:1.0;"/><text fill="#000000" font-family="sans-serif" font-size="14" font-style="italic" lengthAdjust="spacing" textLength="139" x="2227.5" y="732.182">void indicate(Sewer)</text></g><!--class Sewer--><g id="elem_Sewer"><rect codeLine="47" fill="#F1F1F1" height="113.1875" id="Sewer" rx="2.5" ry="2.5" style="stroke:#181818;stroke-width:0.5;" width="259" x="1913" y="642.59"/><ellipse cx="2016.75" cy="658.59" fill="#ADD1B2" rx="11" ry="11" style="stroke:#181818;stroke-width:1.0;"/><path d="M2019.7188,664.2306 Q2019.1406,664.5275 2018.5,664.6681 Q2017.8594,664.8244 2017.1563,664.8244 Q2014.6563,664.8244 2013.3281,663.1838 Q2012.0156,661.5275 2012.0156,658.4025 Q2012.0156,655.2775 2013.3281,653.6213 Q2014.6563,651.965 2017.1563,651.965 Q2017.8594,651.965 2018.5,652.1213 Q2019.1563,652.2775 2019.7188,652.5744 L2019.7188,655.2931 Q2019.0938,654.715 2018.5,654.4494 Q2017.9063,654.1681 2017.2813,654.1681 Q2015.9375,654.1681 2015.25,655.2463 Q2014.5625,656.3088 2014.5625,658.4025 Q2014.5625,660.4963 2015.25,661.5744 Q2015.9375,662.6369 2017.2813,662.6369 Q2017.9063,662.6369 2018.5,662.3713 Q2019.0938,662.09 2019.7188,661.5119 L2019.7188,664.2306 Z " fill="#000000"/><text fill="#000000" font-family="sans-serif" font-size="14" lengthAdjust="spacing" textLength="43" x="2037.25" y="663.4367">Sewer</text><line style="stroke:#181818;stroke-width:0.5;" x1="1914" x2="2171" y1="674.59" y2="674.59"/><line style="stroke:#181818;stroke-width:0.5;" x1="1914" x2="2171" y1="682.59" y2="682.59"/><ellipse cx="1924" cy="696.2384" fill="#84BE84" rx="3" ry="3" style="stroke:#038048;stroke-width:1.0;"/><text fill="#000000" font-family="sans-serif" font-size="14" lengthAdjust="spacing" textLength="83" x="1933" y="699.5851">UUID getId()</text><ellipse cx="1924" cy="712.5353" fill="#84BE84" rx="3" ry="3" style="stroke:#038048;stroke-width:1.0;"/><text fill="#000000" font-family="sans-serif" font-size="14" lengthAdjust="spacing" textLength="230" x="1933" y="715.882">KeyPerformanceIndicator getKpi()</text><ellipse cx="1924" cy="728.8322" fill="#84BE84" rx="3" ry="3" style="stroke:#038048;stroke-width:1.0;"/><text fill="#000000" font-family="sans-serif" font-size="14" lengthAdjust="spacing" textLength="206" x="1933" y="732.1789">Set&lt;Problem&gt; getProblems()</text><ellipse cx="1924" cy="745.1291" fill="#84BE84" rx="3" ry="3" style="stroke:#038048;stroke-width:1.0;"/><text fill="#000000" font-family="sans-serif" font-size="14" lengthAdjust="spacing" textLength="233" x="1933" y="748.4757">void setProblems(Set&lt;Problem&gt;)</text></g><!--class KeyPerformanceIndicator--><g id="elem_KeyPerformanceIndicator"><rect codeLine="53" fill="#F1F1F1" height="96.8906" id="KeyPerformanceIndicator" rx="2.5" ry="2.5" style="stroke:#181818;stroke-width:0.5;" width="279" x="1890" y="854.78"/><ellipse cx="1939.25" cy="870.78" fill="#ADD1B2" rx="11" ry="11" style="stroke:#181818;stroke-width:1.0;"/><path d="M1942.2188,876.4206 Q1941.6406,876.7175 1941,876.8581 Q1940.3594,877.0144 1939.6563,877.0144 Q1937.1563,877.0144 1935.8281,875.3738 Q1934.5156,873.7175 1934.5156,870.5925 Q1934.5156,867.4675 1935.8281,865.8113 Q1937.1563,864.155 1939.6563,864.155 Q1940.3594,864.155 1941,864.3113 Q1941.6563,864.4675 1942.2188,864.7644 L1942.2188,867.4831 Q1941.5938,866.905 1941,866.6394 Q1940.4063,866.3581 1939.7813,866.3581 Q1938.4375,866.3581 1937.75,867.4363 Q1937.0625,868.4988 1937.0625,870.5925 Q1937.0625,872.6863 1937.75,873.7644 Q1938.4375,874.8269 1939.7813,874.8269 Q1940.4063,874.8269 1941,874.5613 Q1941.5938,874.28 1942.2188,873.7019 L1942.2188,876.4206 Z " fill="#000000"/><text fill="#000000" font-family="sans-serif" font-size="14" lengthAdjust="spacing" textLength="172" x="1959.75" y="875.6267">KeyPerformanceIndicator</text><line style="stroke:#181818;stroke-width:0.5;" x1="1891" x2="2168" y1="886.78" y2="886.78"/><line style="stroke:#181818;stroke-width:0.5;" x1="1891" x2="2168" y1="894.78" y2="894.78"/><ellipse cx="1901" cy="908.4284" fill="#84BE84" rx="3" ry="3" style="stroke:#038048;stroke-width:1.0;"/><text fill="#000000" font-family="sans-serif" font-size="14" lengthAdjust="spacing" textLength="253" x="1910" y="911.7751">String getPumpPowerConsumption()</text><ellipse cx="1901" cy="924.7253" fill="#84BE84" rx="3" ry="3" style="stroke:#038048;stroke-width:1.0;"/><text fill="#000000" font-family="sans-serif" font-size="14" lengthAdjust="spacing" textLength="108" x="1910" y="928.072">String getFlow()</text><ellipse cx="1901" cy="941.0222" fill="#84BE84" rx="3" ry="3" style="stroke:#038048;stroke-width:1.0;"/><text fill="#000000" font-family="sans-serif" font-size="14" lengthAdjust="spacing" textLength="140" x="1910" y="944.3689">Number getRainfall()</text></g><!--class Problem--><g id="elem_Problem"><rect codeLine="58" fill="#F1F1F1" height="80.5938" id="Problem" rx="2.5" ry="2.5" style="stroke:#181818;stroke-width:0.5;" width="243" x="2226" y="862.93"/><ellipse cx="2314.75" cy="878.93" fill="#ADD1B2" rx="11" ry="11" style="stroke:#181818;stroke-width:1.0;"/><path d="M2317.7188,884.5706 Q2317.1406,884.8675 2316.5,885.0081 Q2315.8594,885.1644 2315.1563,885.1644 Q2312.6563,885.1644 2311.3281,883.5238 Q2310.0156,881.8675 2310.0156,878.7425 Q2310.0156,875.6175 2311.3281,873.9613 Q2312.6563,872.305 2315.1563,872.305 Q2315.8594,872.305 2316.5,872.4613 Q2317.1563,872.6175 2317.7188,872.9144 L2317.7188,875.6331 Q2317.0938,875.055 2316.5,874.7894 Q2315.9063,874.5081 2315.2813,874.5081 Q2313.9375,874.5081 2313.25,875.5863 Q2312.5625,876.6488 2312.5625,878.7425 Q2312.5625,880.8363 2313.25,881.9144 Q2313.9375,882.9769 2315.2813,882.9769 Q2315.9063,882.9769 2316.5,882.7113 Q2317.0938,882.43 2317.7188,881.8519 L2317.7188,884.5706 Z " fill="#000000"/><text fill="#000000" font-family="sans-serif" font-size="14" lengthAdjust="spacing" textLength="57" x="2335.25" y="883.7767">Problem</text><line style="stroke:#181818;stroke-width:0.5;" x1="2227" x2="2468" y1="894.93" y2="894.93"/><line style="stroke:#181818;stroke-width:0.5;" x1="2227" x2="2468" y1="902.93" y2="902.93"/><ellipse cx="2237" cy="916.5784" fill="#84BE84" rx="3" ry="3" style="stroke:#038048;stroke-width:1.0;"/><text fill="#000000" font-family="sans-serif" font-size="14" lengthAdjust="spacing" textLength="130" x="2246" y="919.9251">String getReason()</text><ellipse cx="2237" cy="932.8753" fill="#84BE84" rx="3" ry="3" style="stroke:#038048;stroke-width:1.0;"/><text fill="#000000" font-family="sans-serif" font-size="14" lengthAdjust="spacing" textLength="217" x="2246" y="936.222">Number getOverflowIndication()</text></g><g id="elem_GMN39"><path d="M6,288.58 L6,313.7128 L477,313.7128 L477,298.58 L467,288.58 L6,288.58 " fill="#FEFFDD" style="stroke:#181818;stroke-width:0.5;"/><path d="M467,288.58 L467,298.58 L477,298.58 L467,288.58 " fill="#FEFFDD" style="stroke:#181818;stroke-width:1.0;"/><text fill="#000000" font-family="sans-serif" font-size="13" lengthAdjust="spacing" textLength="450" x="12" y="305.6469">Frameworks and tools such as the Database, the Web Framework, etc.</text></g><g id="elem_GMN42"><path d="M2720.5,288.58 L2720.5,313.7128 L3826.5,313.7128 L3826.5,298.58 L3816.5,288.58 L2720.5,288.58 " fill="#FEFFDD" style="stroke:#181818;stroke-width:0.5;"/><path d="M3816.5,288.58 L3816.5,298.58 L3826.5,298.58 L3816.5,288.58 " fill="#FEFFDD" style="stroke:#181818;stroke-width:1.0;"/><text fill="#000000" font-family="sans-serif" font-size="13" lengthAdjust="spacing" textLength="1085" x="2726.5" y="305.6469">Convert data from the format most convenient for the use cases and entities, to the format most convenient for some external agency such as the Database or the Web.</text></g><g id="elem_GMN45"><path d="M3861,288.58 L3861,313.7128 L4534,313.7128 L4534,298.58 L4524,288.58 L3861,288.58 " fill="#FEFFDD" style="stroke:#181818;stroke-width:0.5;"/><path d="M4524,288.58 L4524,298.58 L4534,298.58 L4524,288.58 " fill="#FEFFDD" style="stroke:#181818;stroke-width:1.0;"/><text fill="#000000" font-family="sans-serif" font-size="13" lengthAdjust="spacing" textLength="652" x="3867" y="305.6469">Application specific business rules. It encapsulates and implements all of the use cases of the system.</text></g><g id="elem_GMN48"><path d="M4569,288.58 L4569,313.7128 L5508,313.7128 L5508,298.58 L5498,288.58 L4569,288.58 " fill="#FEFFDD" style="stroke:#181818;stroke-width:0.5;"/><path d="M5498,288.58 L5498,298.58 L5508,298.58 L5498,288.58 " fill="#FEFFDD" style="stroke:#181818;stroke-width:1.0;"/><text fill="#000000" font-family="sans-serif" font-size="13" lengthAdjust="spacing" textLength="918" x="4575" y="305.6469">Entities encapsulate Enterprise wide business rules. An entity can be an object with methods, or it can be a set of data structures and functions.</text></g><!--link GMN39 to drivers--><g id="link_GMN39_drivers"><path d="M241.5,288.15 C241.5,273.49 241.5,251.67 241.5,251.67 C241.5,251.67 279.6875,251.67 346.5156,251.67 C379.9297,251.67 420.5039,251.67 467.0449,251.67 C472.8625,251.67 478.7734,251.67 484.7752,251.67 C487.776,251.67 490.7996,251.67 493.8457,251.67 " fill="none" id="GMN39-drivers" style="stroke:#181818;stroke-width:1.0;stroke-dasharray:7.0,7.0;"/></g><!--link GMN42 to adapters--><g id="link_GMN42_adapters"><path d="M2720.32,308.67 C2695.165,308.67 2674.46,308.67 2660.0438,308.67 C2656.4397,308.67 2653.2287,308.67 2650.4394,308.67 C2649.0448,308.67 2647.7556,308.67 2646.5755,308.67 C2646.2805,308.67 2645.9922,308.67 2645.7109,308.67 C2645.6406,308.67 2645.5707,308.67 2645.5012,308.67 " fill="none" id="GMN42-adapters" style="stroke:#181818;stroke-width:1.0;stroke-dasharray:7.0,7.0;"/></g><!--link GMN45 to use_cases--><g id="link_GMN45_use_cases"><path d="M4197.5,288.41 C4197.5,283.78 4197.5,279.67 4197.5,279.67 C4197.5,279.67 3795.5,279.67 3393.5,279.67 C3192.5,279.67 2991.5,279.67 2840.75,279.67 C2765.375,279.67 2702.5625,279.67 2658.5938,279.67 C2636.6094,279.67 2619.3359,279.67 2607.5586,279.67 C2604.6143,279.67 2602.0134,279.67 2599.7684,279.67 C2599.2071,279.67 2598.6681,279.67 2598.1515,279.67 " fill="none" id="GMN45-use_cases" style="stroke:#181818;stroke-width:1.0;stroke-dasharray:7.0,7.0;"/></g><!--link GMN48 to entities--><g id="link_GMN48_entities"><path d="M5038.5,313.99 C5038.5,319.05 5038.5,323.67 5038.5,323.67 C5038.5,323.67 4414.25,323.67 3790,323.67 C3477.875,323.67 3165.75,323.67 2931.6563,323.67 C2814.6094,323.67 2717.0703,323.67 2648.793,323.67 C2614.6543,323.67 2587.8311,323.67 2569.5425,323.67 C2564.9703,323.67 2560.9316,323.67 2557.4454,323.67 C2555.7022,323.67 2554.0972,323.67 2552.6327,323.67 C2551.9004,323.67 2551.2033,323.67 2550.5416,323.67 " fill="none" id="GMN48-entities" style="stroke:#181818;stroke-width:1.0;stroke-dasharray:7.0,7.0;"/></g><!--link SewerOverflowIndicationService to SewerOverflowIndicationComponent--><g id="link_SewerOverflowIndicationService_SewerOverflowIndicationComponent"><path codeLine="74" d="M1427.5,333.48 C1427.5,351.75 1427.5,368.53 1427.5,386.84 " fill="none" id="SewerOverflowIndicationService-to-SewerOverflowIndicationComponent" style="stroke:#181818;stroke-width:1.0;"/><polygon fill="#181818" points="1427.5,392.84,1431.5,383.84,1427.5,387.84,1423.5,383.84,1427.5,392.84" style="stroke:#181818;stroke-width:1.0;"/></g><!--link SewerOverflowIndicationComponent to Sewers--><g id="link_SewerOverflowIndicationComponent_Sewers"><path codeLine="75" d="M1598.39,425.67 C1821.73,425.67 2184.75,425.67 2184.75,425.67 C2184.75,425.67 2184.75,699.67 2184.75,699.67 C2184.75,699.67 2187.84,699.67 2201.27,699.67 " fill="none" id="SewerOverflowIndicationComponent-to-Sewers" style="stroke:#181818;stroke-width:1.0;"/><polygon fill="#181818" points="2207.27,699.67,2198.27,695.67,2202.27,699.67,2198.27,703.67,2207.27,699.67" style="stroke:#181818;stroke-width:1.0;"/></g><!--link SewerOverflowIndicationComponent to RainIndicationComponent--><g id="link_SewerOverflowIndicationComponent_RainIndicationComponent"><path codeLine="76" d="M1521.5,457.92 C1521.5,510.6 1521.5,608.09 1521.5,660.75 " fill="none" id="SewerOverflowIndicationComponent-to-RainIndicationComponent" style="stroke:#181818;stroke-width:1.0;"/><polygon fill="#181818" points="1521.5,666.75,1525.5,657.75,1521.5,661.75,1517.5,657.75,1521.5,666.75" style="stroke:#181818;stroke-width:1.0;"/></g><!--link SewerOverflowIndicationComponent to PumpIndicationComponent--><g id="link_SewerOverflowIndicationComponent_PumpIndicationComponent"><path codeLine="77" d="M1333.5,457.92 C1333.5,510.6 1333.5,608.09 1333.5,660.75 " fill="none" id="SewerOverflowIndicationComponent-to-PumpIndicationComponent" style="stroke:#181818;stroke-width:1.0;"/><polygon fill="#181818" points="1333.5,666.75,1337.5,657.75,1333.5,661.75,1329.5,657.75,1333.5,666.75" style="stroke:#181818;stroke-width:1.0;"/></g><!--link SewerOverflowIndicationComponent to FlowIndicationComponent--><g id="link_SewerOverflowIndicationComponent_FlowIndicationComponent"><path codeLine="78" d="M1256.75,425.67 C1090.75,425.67 863.5,425.67 863.5,425.67 C863.5,425.67 863.5,588.28 863.5,660.74 " fill="none" id="SewerOverflowIndicationComponent-to-FlowIndicationComponent" style="stroke:#181818;stroke-width:1.0;"/><polygon fill="#181818" points="863.5,666.74,867.5,657.74,863.5,661.74,859.5,657.74,863.5,666.74" style="stroke:#181818;stroke-width:1.0;"/></g><!--link SewerObservationService to SewerObservationComponent--><g id="link_SewerObservationService_SewerObservationComponent"><path codeLine="79" d="M2317.5,333.48 C2317.5,351.75 2317.5,368.53 2317.5,386.84 " fill="none" id="SewerObservationService-to-SewerObservationComponent" style="stroke:#181818;stroke-width:1.0;"/><polygon fill="#181818" points="2317.5,392.84,2321.5,383.84,2317.5,387.84,2313.5,383.84,2317.5,392.84" style="stroke:#181818;stroke-width:1.0;"/></g><!--link SewerObservationComponent to Sewers--><g id="link_SewerObservationComponent_Sewers"><path codeLine="80" d="M2317.5,457.92 C2317.5,508.06 2317.5,598.2 2317.5,652.76 " fill="none" id="SewerObservationComponent-to-Sewers" style="stroke:#181818;stroke-width:1.0;"/><polygon fill="#181818" points="2317.5,658.76,2321.5,649.76,2317.5,653.76,2313.5,649.76,2317.5,658.76" style="stroke:#181818;stroke-width:1.0;"/></g><!--link Sewer to Problem--><g id="link_Sewer_Problem"><path codeLine="81" d="M2172.15,747.67 C2247.12,747.67 2326.75,747.67 2326.75,747.67 C2326.75,747.67 2326.75,810.67 2326.75,856.76 " fill="none" id="Sewer-to-Problem" style="stroke:#181818;stroke-width:1.0;"/><polygon fill="#181818" points="2326.75,862.76,2330.75,853.76,2326.75,857.76,2322.75,853.76,2326.75,862.76" style="stroke:#181818;stroke-width:1.0;"/></g><!--link Sewer to KeyPerformanceIndicator--><g id="link_Sewer_KeyPerformanceIndicator"><path codeLine="82" d="M2041,756.02 C2041,786.92 2041,818.74 2041,848.31 " fill="none" id="Sewer-to-KeyPerformanceIndicator" style="stroke:#181818;stroke-width:1.0;"/><polygon fill="#181818" points="2041,854.31,2045,845.31,2041,849.31,2037,845.31,2041,854.31" style="stroke:#181818;stroke-width:1.0;"/></g><!--SRC=[tLXBRziu4BxhLypQ5nUR2ekYXmrGP56q3M0KtHeDWXuBYXhPN4kaG5Bn6a7-UuUa9CjEb3grhJvEjgdXV0-DXYF_KMesBnXK1gVIeYum5SpYZF4bcwE1ZEK68xCKicIQ5P0BYNPT8YXj5oeo2xK2G_jGkTMe3FiWrU86jG5c8CMOgw9aSXsNMbaV5njSeOwRgB5PhfEyGhYzQpEmb9LsxnHn6px- -qMM9I-xgKZR5yuCFZLNlDauph9pTdxUpOhI2YiEI1gt6SOPpzBahsxsH5KoPNfzUFPOo5HmkgTnctESYsBBRAwarIe_1LZSv1uhpUGSJoHI9GRrpJ0QTx46aXWYXn2uZVIOFBzbVJB8kCv_sWSaH2vBCQ2vNRG13Nu8TaYJQMUIOp6WqRk80vhT1_s0uH7FcJ4mkd8RFrB-B5UhQUYbGiahwZU2u-Wa3VfnJBYD0FwyKI85t_Kc7rZvwifg8UTd43uldaLtZO3BhHnlYAYIX3qwvT4Izu1sgEF_o2kxJVuVMhKeKmCVa_-GswwCMLMKWyle0Jr0nYScvE0oUa0FaD5JeGFf-HRwmSByE77iv_pUaDA35TXVeNtb0oxgfpomVuJgKStlcwZYNjHxj1lhDyI5Uv_964aCvCte-7DAI1p8m2rBZDMCsxiEhrhQvFfw-lRPJfYlcQRm9dx3hkEZKyzMGK9Gu3Z27EqqdNYgxt4z8mkLBfZaM9U-qYxaVIb2Z9Cw2mVTXRjGVpVXQdrkR5QxuHsjFKYZ8GQVk4zcA35VJruPjUUPecHlb3JqtTLZxK4RuqwYiFPlLIJehNBza5wZyqdtV0aMZ8QQDU8QS5VJ9sIcKR5XVB_PUUvIMOGSCmigsuDrTAbPWIkbb_IEB5EmIkK6JCKNJhLT8BnbbYMavip_-em9j5lE02sF8-gRu62VYjqw5j7DeWKBAM51fbNXiVpDjb0eOzt4UODIkAP2o_uosGprFmP4eB6QQAflxJQAnbdNyBLaDCJEKVBrWvgXXYBLHv2vAOpeTLdczLq3Ko8NcU2GL4P8fChJLKur0rDBgZWhJPLJwmaoHL5IXP0G-fddZi2s5VM2MHjBXNPCpcqnH- -QlqGwxE2TQ-Ib5iHa9LAy9-QrR2PtpYGaI6gexRgpbkBj0Wgq2vNIxIFBXMs3N5_ob5rbK4UkkArqxKLMIUuSD1sTGm_UpvzV_BYX9lfnuzGHT3zuIl_QafuyR_-kSdlUadvNkPUdUJxtVZquWhYdJ_VHyEyJFslNsMTuFnhtFQV8NqhJTqp-Nm40]--></g></svg>