<svg xmlns="http://www.w3.org/2000/svg" xmlns:xlink="http://www.w3.org/1999/xlink" contentStyleType="text/css" height="961px" preserveAspectRatio="none" style="width:1227px;height:961px;background:#FFFFFF;" version="1.1" viewBox="0 0 1227 961" width="1227px" zoomAndPan="magnify"><defs/><g><!--cluster entities--><g id="cluster_entities"><path d="M8.5,6 L530.5,6 A3.75,3.75 0 0 1 533,8.5 L540,28.2969 L1217.5,28.2969 A2.5,2.5 0 0 1 1220,30.7969 L1220,952.47 A2.5,2.5 0 0 1 1217.5,954.97 L8.5,954.97 A2.5,2.5 0 0 1 6,952.47 L6,8.5 A2.5,2.5 0 0 1 8.5,6 " fill="#FCFDB0" style="stroke:#000000;stroke-width:1.5;"/><line style="stroke:#000000;stroke-width:1.5;" x1="6" x2="540" y1="28.2969" y2="28.2969"/><text fill="#000000" font-family="sans-serif" font-size="14" font-weight="bold" lengthAdjust="spacing" textLength="521" x="10" y="20.9951">de.company.prototype.sewer.drivers.adapters.use_cases.entities</text></g><!--cluster boundary--><g id="cluster_boundary"><path d="M32.5,49 L175.5,49 A3.75,3.75 0 0 1 178,51.5 L185,71.2969 L823.5,71.2969 A2.5,2.5 0 0 1 826,73.7969 L826,434.39 A2.5,2.5 0 0 1 823.5,436.89 L32.5,436.89 A2.5,2.5 0 0 1 30,434.39 L30,51.5 A2.5,2.5 0 0 1 32.5,49 " fill="#00FF00" style="stroke:#000000;stroke-width:1.5;"/><line style="stroke:#000000;stroke-width:1.5;" x1="30" x2="185" y1="71.2969" y2="71.2969"/><text fill="#000000" font-family="sans-serif" font-size="14" font-weight="bold" lengthAdjust="spacing" textLength="142" x="34" y="63.9951">indicate.boundary</text></g><!--cluster control--><g id="cluster_control"><path d="M56.5,173.3 L113.5,173.3 A3.75,3.75 0 0 1 116,175.8 L123,195.5969 L799.5,195.5969 A2.5,2.5 0 0 1 802,198.0969 L802,410.39 A2.5,2.5 0 0 1 799.5,412.89 L56.5,412.89 A2.5,2.5 0 0 1 54,410.39 L54,175.8 A2.5,2.5 0 0 1 56.5,173.3 " fill="#FFA500" style="stroke:#000000;stroke-width:1.5;"/><line style="stroke:#000000;stroke-width:1.5;" x1="54" x2="123" y1="195.5969" y2="195.5969"/><text fill="#000000" font-family="sans-serif" font-size="14" font-weight="bold" lengthAdjust="spacing" textLength="56" x="58" y="188.2951">control</text></g><!--cluster boundary--><g id="cluster_boundary"><path d="M878.5,173.3 L1024.5,173.3 A3.75,3.75 0 0 1 1027,175.8 L1034,195.5969 L1193.5,195.5969 A2.5,2.5 0 0 1 1196,198.0969 L1196,434.39 A2.5,2.5 0 0 1 1193.5,436.89 L878.5,436.89 A2.5,2.5 0 0 1 876,434.39 L876,175.8 A2.5,2.5 0 0 1 878.5,173.3 " fill="#00FF00" style="stroke:#000000;stroke-width:1.5;"/><line style="stroke:#000000;stroke-width:1.5;" x1="876" x2="1034" y1="195.5969" y2="195.5969"/><text fill="#000000" font-family="sans-serif" font-size="14" font-weight="bold" lengthAdjust="spacing" textLength="145" x="880" y="188.2951">observe.boundary</text></g><!--cluster control--><g id="cluster_control"><path d="M902.5,297.59 L959.5,297.59 A3.75,3.75 0 0 1 962,300.09 L969,319.8869 L1169.5,319.8869 A2.5,2.5 0 0 1 1172,322.3869 L1172,410.39 A2.5,2.5 0 0 1 1169.5,412.89 L902.5,412.89 A2.5,2.5 0 0 1 900,410.39 L900,300.09 A2.5,2.5 0 0 1 902.5,297.59 " fill="#FFA500" style="stroke:#000000;stroke-width:1.5;"/><line style="stroke:#000000;stroke-width:1.5;" x1="900" x2="969" y1="319.8869" y2="319.8869"/><text fill="#000000" font-family="sans-serif" font-size="14" font-weight="bold" lengthAdjust="spacing" textLength="56" x="904" y="312.5851">control</text></g><!--cluster sewer--><g id="cluster_sewer"><path d="M335.5,460.89 L386.5,460.89 A3.75,3.75 0 0 1 389,463.39 L396,483.1869 L990.5,483.1869 A2.5,2.5 0 0 1 993,485.6869 L993,928.47 A2.5,2.5 0 0 1 990.5,930.97 L335.5,930.97 A2.5,2.5 0 0 1 333,928.47 L333,463.39 A2.5,2.5 0 0 1 335.5,460.89 " fill="none" style="stroke:#000000;stroke-width:1.5;"/><line style="stroke:#000000;stroke-width:1.5;" x1="333" x2="396" y1="483.1869" y2="483.1869"/><text fill="#000000" font-family="sans-serif" font-size="14" font-weight="bold" lengthAdjust="spacing" textLength="50" x="337" y="475.8851">sewer</text></g><!--cluster boundary--><g id="cluster_boundary"><path d="M380.5,503.89 L456.5,503.89 A3.75,3.75 0 0 1 459,506.39 L466,526.1869 L945.5,526.1869 A2.5,2.5 0 0 1 948,528.6869 L948,732.58 A2.5,2.5 0 0 1 945.5,735.08 L380.5,735.08 A2.5,2.5 0 0 1 378,732.58 L378,506.39 A2.5,2.5 0 0 1 380.5,503.89 " fill="#00FF00" style="stroke:#000000;stroke-width:1.5;"/><line style="stroke:#000000;stroke-width:1.5;" x1="378" x2="466" y1="526.1869" y2="526.1869"/><text fill="#000000" font-family="sans-serif" font-size="14" font-weight="bold" lengthAdjust="spacing" textLength="75" x="382" y="518.8851">boundary</text></g><!--cluster entity--><g id="cluster_entity"><path d="M404.5,546.89 L511.5,546.89 A3.75,3.75 0 0 1 514,549.39 L521,569.1869 L689.5,569.1869 A2.5,2.5 0 0 1 692,571.6869 L692,708.58 A2.5,2.5 0 0 1 689.5,711.08 L404.5,711.08 A2.5,2.5 0 0 1 402,708.58 L402,549.39 A2.5,2.5 0 0 1 404.5,546.89 " fill="#FCFDB0" style="stroke:#000000;stroke-width:1.5;"/><line style="stroke:#000000;stroke-width:1.5;" x1="402" x2="521" y1="569.1869" y2="569.1869"/><text fill="#000000" font-family="sans-serif" font-size="14" font-weight="bold" lengthAdjust="spacing" textLength="106" x="406" y="561.8851">control.entity</text></g><!--cluster entity--><g id="cluster_entity"><path d="M359.5,759.08 L574.5,759.08 A3.75,3.75 0 0 1 577,761.58 L584,781.3769 L666.5,781.3769 A2.5,2.5 0 0 1 669,783.8769 L669,904.47 A2.5,2.5 0 0 1 666.5,906.97 L359.5,906.97 A2.5,2.5 0 0 1 357,904.47 L357,761.58 A2.5,2.5 0 0 1 359.5,759.08 " fill="#FCFDB0" style="stroke:#000000;stroke-width:1.5;"/><line style="stroke:#000000;stroke-width:1.5;" x1="357" x2="584" y1="781.3769" y2="781.3769"/><text fill="#000000" font-family="sans-serif" font-size="14" font-weight="bold" lengthAdjust="spacing" textLength="214" x="361" y="774.0751">kpi.boundary.control.entity</text></g><!--cluster entity--><g id="cluster_entity"><path d="M695.5,767.23 L952.5,767.23 A3.75,3.75 0 0 1 955,769.73 L962,789.5269 L966.5,789.5269 A2.5,2.5 0 0 1 969,792.0269 L969,896.32 A2.5,2.5 0 0 1 966.5,898.82 L695.5,898.82 A2.5,2.5 0 0 1 693,896.32 L693,769.73 A2.5,2.5 0 0 1 695.5,767.23 " fill="#FCFDB0" style="stroke:#000000;stroke-width:1.5;"/><line style="stroke:#000000;stroke-width:1.5;" x1="693" x2="962" y1="789.5269" y2="789.5269"/><text fill="#000000" font-family="sans-serif" font-size="14" font-weight="bold" lengthAdjust="spacing" textLength="256" x="697" y="782.2251">problem.boundary.control.entity</text></g><!--class SewerOverflowIndicationService--><g id="elem_SewerOverflowIndicationService"><rect codeLine="22" fill="#F1F1F1" height="64.2969" id="SewerOverflowIndicationService" rx="2.5" ry="2.5" style="stroke:#181818;stroke-width:0.5;" width="250" x="115" y="84"/><ellipse cx="130" cy="100" fill="#ADD1B2" rx="11" ry="11" style="stroke:#181818;stroke-width:1.0;"/><path d="M132.9688,105.6406 Q132.3906,105.9375 131.75,106.0781 Q131.1094,106.2344 130.4063,106.2344 Q127.9063,106.2344 126.5781,104.5938 Q125.2656,102.9375 125.2656,99.8125 Q125.2656,96.6875 126.5781,95.0313 Q127.9063,93.375 130.4063,93.375 Q131.1094,93.375 131.75,93.5313 Q132.4063,93.6875 132.9688,93.9844 L132.9688,96.7031 Q132.3438,96.125 131.75,95.8594 Q131.1563,95.5781 130.5313,95.5781 Q129.1875,95.5781 128.5,96.6563 Q127.8125,97.7188 127.8125,99.8125 Q127.8125,101.9063 128.5,102.9844 Q129.1875,104.0469 130.5313,104.0469 Q131.1563,104.0469 131.75,103.7813 Q132.3438,103.5 132.9688,102.9219 L132.9688,105.6406 Z " fill="#000000"/><text fill="#000000" font-family="sans-serif" font-size="14" lengthAdjust="spacing" textLength="218" x="144" y="104.8467">SewerOverflowIndicationService</text><line style="stroke:#181818;stroke-width:0.5;" x1="116" x2="364" y1="116" y2="116"/><line style="stroke:#181818;stroke-width:0.5;" x1="116" x2="364" y1="124" y2="124"/><ellipse cx="126" cy="137.6484" fill="#84BE84" rx="3" ry="3" style="stroke:#038048;stroke-width:1.0;"/><text fill="#000000" font-family="sans-serif" font-size="14" lengthAdjust="spacing" textLength="221" x="135" y="140.9951">void serve(Map&lt;String, String&gt;)</text></g><!--class FlowIndicationComponent--><g id="elem_FlowIndicationComponent"><rect codeLine="25" fill="#F1F1F1" height="64.2969" id="FlowIndicationComponent" rx="2.5" ry="2.5" style="stroke:#181818;stroke-width:0.5;" width="341" x="445.5" y="208.3"/><ellipse cx="522.25" cy="224.3" fill="#ADD1B2" rx="11" ry="11" style="stroke:#181818;stroke-width:1.0;"/><path d="M525.2188,229.9406 Q524.6406,230.2375 524,230.3781 Q523.3594,230.5344 522.6563,230.5344 Q520.1563,230.5344 518.8281,228.8938 Q517.5156,227.2375 517.5156,224.1125 Q517.5156,220.9875 518.8281,219.3313 Q520.1563,217.675 522.6563,217.675 Q523.3594,217.675 524,217.8313 Q524.6563,217.9875 525.2188,218.2844 L525.2188,221.0031 Q524.5938,220.425 524,220.1594 Q523.4063,219.8781 522.7813,219.8781 Q521.4375,219.8781 520.75,220.9563 Q520.0625,222.0188 520.0625,224.1125 Q520.0625,226.2063 520.75,227.2844 Q521.4375,228.3469 522.7813,228.3469 Q523.4063,228.3469 524,228.0813 Q524.5938,227.8 525.2188,227.2219 L525.2188,229.9406 Z " fill="#000000"/><text fill="#000000" font-family="sans-serif" font-size="14" lengthAdjust="spacing" textLength="179" x="542.75" y="229.1467">FlowIndicationComponent</text><line style="stroke:#181818;stroke-width:0.5;" x1="446.5" x2="785.5" y1="240.3" y2="240.3"/><line style="stroke:#181818;stroke-width:0.5;" x1="446.5" x2="785.5" y1="248.3" y2="248.3"/><ellipse cx="456.5" cy="261.9484" fill="#84BE84" rx="3" ry="3" style="stroke:#038048;stroke-width:1.0;"/><text fill="#000000" font-family="sans-serif" font-size="14" lengthAdjust="spacing" textLength="315" x="465.5" y="265.2951">void execute(Map&lt;String, ? extends Object&gt;)</text></g><!--class PumpIndicationComponent--><g id="elem_PumpIndicationComponent"><rect codeLine="28" fill="#F1F1F1" height="64.2969" id="PumpIndicationComponent" rx="2.5" ry="2.5" style="stroke:#181818;stroke-width:0.5;" width="341" x="445.5" y="332.59"/><ellipse cx="517.75" cy="348.59" fill="#ADD1B2" rx="11" ry="11" style="stroke:#181818;stroke-width:1.0;"/><path d="M520.7188,354.2306 Q520.1406,354.5275 519.5,354.6681 Q518.8594,354.8244 518.1563,354.8244 Q515.6563,354.8244 514.3281,353.1838 Q513.0156,351.5275 513.0156,348.4025 Q513.0156,345.2775 514.3281,343.6213 Q515.6563,341.965 518.1563,341.965 Q518.8594,341.965 519.5,342.1213 Q520.1563,342.2775 520.7188,342.5744 L520.7188,345.2931 Q520.0938,344.715 519.5,344.4494 Q518.9063,344.1681 518.2813,344.1681 Q516.9375,344.1681 516.25,345.2463 Q515.5625,346.3088 515.5625,348.4025 Q515.5625,350.4963 516.25,351.5744 Q516.9375,352.6369 518.2813,352.6369 Q518.9063,352.6369 519.5,352.3713 Q520.0938,352.09 520.7188,351.5119 L520.7188,354.2306 Z " fill="#000000"/><text fill="#000000" font-family="sans-serif" font-size="14" lengthAdjust="spacing" textLength="188" x="538.25" y="353.4367">PumpIndicationComponent</text><line style="stroke:#181818;stroke-width:0.5;" x1="446.5" x2="785.5" y1="364.59" y2="364.59"/><line style="stroke:#181818;stroke-width:0.5;" x1="446.5" x2="785.5" y1="372.59" y2="372.59"/><ellipse cx="456.5" cy="386.2384" fill="#84BE84" rx="3" ry="3" style="stroke:#038048;stroke-width:1.0;"/><text fill="#000000" font-family="sans-serif" font-size="14" lengthAdjust="spacing" textLength="315" x="465.5" y="389.5851">void execute(Map&lt;String, ? extends Object&gt;)</text></g><!--class RainShortageIndicationComponent--><g id="elem_RainShortageIndicationComponent"><rect codeLine="31" fill="#F1F1F1" height="64.2969" id="RainShortageIndicationComponent" rx="2.5" ry="2.5" style="stroke:#181818;stroke-width:0.5;" width="341" x="69.5" y="332.59"/><ellipse cx="115.25" cy="348.59" fill="#ADD1B2" rx="11" ry="11" style="stroke:#181818;stroke-width:1.0;"/><path d="M118.2188,354.2306 Q117.6406,354.5275 117,354.6681 Q116.3594,354.8244 115.6563,354.8244 Q113.1563,354.8244 111.8281,353.1838 Q110.5156,351.5275 110.5156,348.4025 Q110.5156,345.2775 111.8281,343.6213 Q113.1563,341.965 115.6563,341.965 Q116.3594,341.965 117,342.1213 Q117.6563,342.2775 118.2188,342.5744 L118.2188,345.2931 Q117.5938,344.715 117,344.4494 Q116.4063,344.1681 115.7813,344.1681 Q114.4375,344.1681 113.75,345.2463 Q113.0625,346.3088 113.0625,348.4025 Q113.0625,350.4963 113.75,351.5744 Q114.4375,352.6369 115.7813,352.6369 Q116.4063,352.6369 117,352.3713 Q117.5938,352.09 118.2188,351.5119 L118.2188,354.2306 Z " fill="#000000"/><text fill="#000000" font-family="sans-serif" font-size="14" lengthAdjust="spacing" textLength="241" x="135.75" y="353.4367">RainShortageIndicationComponent</text><line style="stroke:#181818;stroke-width:0.5;" x1="70.5" x2="409.5" y1="364.59" y2="364.59"/><line style="stroke:#181818;stroke-width:0.5;" x1="70.5" x2="409.5" y1="372.59" y2="372.59"/><ellipse cx="80.5" cy="386.2384" fill="#84BE84" rx="3" ry="3" style="stroke:#038048;stroke-width:1.0;"/><text fill="#000000" font-family="sans-serif" font-size="14" lengthAdjust="spacing" textLength="315" x="89.5" y="389.5851">void execute(Map&lt;String, ? extends Object&gt;)</text></g><!--class SewerOverflowIndicationComponent--><g id="elem_SewerOverflowIndicationComponent"><rect codeLine="34" fill="#F1F1F1" height="64.2969" id="SewerOverflowIndicationComponent" rx="2.5" ry="2.5" style="stroke:#181818;stroke-width:0.5;" width="341" x="69.5" y="208.3"/><ellipse cx="111.05" cy="224.3" fill="#ADD1B2" rx="11" ry="11" style="stroke:#181818;stroke-width:1.0;"/><path d="M114.0188,229.9406 Q113.4406,230.2375 112.8,230.3781 Q112.1594,230.5344 111.4563,230.5344 Q108.9563,230.5344 107.6281,228.8938 Q106.3156,227.2375 106.3156,224.1125 Q106.3156,220.9875 107.6281,219.3313 Q108.9563,217.675 111.4563,217.675 Q112.1594,217.675 112.8,217.8313 Q113.4563,217.9875 114.0188,218.2844 L114.0188,221.0031 Q113.3938,220.425 112.8,220.1594 Q112.2063,219.8781 111.5813,219.8781 Q110.2375,219.8781 109.55,220.9563 Q108.8625,222.0188 108.8625,224.1125 Q108.8625,226.2063 109.55,227.2844 Q110.2375,228.3469 111.5813,228.3469 Q112.2063,228.3469 112.8,228.0813 Q113.3938,227.8 114.0188,227.2219 L114.0188,229.9406 Z " fill="#000000"/><text fill="#000000" font-family="sans-serif" font-size="14" lengthAdjust="spacing" textLength="250" x="130.95" y="229.1467">SewerOverflowIndicationComponent</text><line style="stroke:#181818;stroke-width:0.5;" x1="70.5" x2="409.5" y1="240.3" y2="240.3"/><line style="stroke:#181818;stroke-width:0.5;" x1="70.5" x2="409.5" y1="248.3" y2="248.3"/><ellipse cx="80.5" cy="261.9484" fill="#84BE84" rx="3" ry="3" style="stroke:#038048;stroke-width:1.0;"/><text fill="#000000" font-family="sans-serif" font-size="14" lengthAdjust="spacing" textLength="315" x="89.5" y="265.2951">void execute(Map&lt;String, ? extends Object&gt;)</text></g><!--class SewerObservationService--><g id="elem_SewerObservationService"><rect codeLine="37" fill="#F1F1F1" height="64.2969" id="SewerObservationService" rx="2.5" ry="2.5" style="stroke:#181818;stroke-width:0.5;" width="208" x="932" y="208.3"/><ellipse cx="947" cy="224.3" fill="#ADD1B2" rx="11" ry="11" style="stroke:#181818;stroke-width:1.0;"/><path d="M949.9688,229.9406 Q949.3906,230.2375 948.75,230.3781 Q948.1094,230.5344 947.4063,230.5344 Q944.9063,230.5344 943.5781,228.8938 Q942.2656,227.2375 942.2656,224.1125 Q942.2656,220.9875 943.5781,219.3313 Q944.9063,217.675 947.4063,217.675 Q948.1094,217.675 948.75,217.8313 Q949.4063,217.9875 949.9688,218.2844 L949.9688,221.0031 Q949.3438,220.425 948.75,220.1594 Q948.1563,219.8781 947.5313,219.8781 Q946.1875,219.8781 945.5,220.9563 Q944.8125,222.0188 944.8125,224.1125 Q944.8125,226.2063 945.5,227.2844 Q946.1875,228.3469 947.5313,228.3469 Q948.1563,228.3469 948.75,228.0813 Q949.3438,227.8 949.9688,227.2219 L949.9688,229.9406 Z " fill="#000000"/><text fill="#000000" font-family="sans-serif" font-size="14" lengthAdjust="spacing" textLength="176" x="961" y="229.1467">SewerObservationService</text><line style="stroke:#181818;stroke-width:0.5;" x1="933" x2="1139" y1="240.3" y2="240.3"/><line style="stroke:#181818;stroke-width:0.5;" x1="933" x2="1139" y1="248.3" y2="248.3"/><ellipse cx="943" cy="261.9484" fill="#84BE84" rx="3" ry="3" style="stroke:#038048;stroke-width:1.0;"/><text fill="#000000" font-family="sans-serif" font-size="14" lengthAdjust="spacing" textLength="182" x="952" y="265.2951">Set&lt;Sewer&gt; serve(String)</text></g><!--class SewerObservationComponent--><g id="elem_SewerObservationComponent"><rect codeLine="40" fill="#F1F1F1" height="64.2969" id="SewerObservationComponent" rx="2.5" ry="2.5" style="stroke:#181818;stroke-width:0.5;" width="240" x="916" y="332.59"/><ellipse cx="931" cy="348.59" fill="#ADD1B2" rx="11" ry="11" style="stroke:#181818;stroke-width:1.0;"/><path d="M933.9688,354.2306 Q933.3906,354.5275 932.75,354.6681 Q932.1094,354.8244 931.4063,354.8244 Q928.9063,354.8244 927.5781,353.1838 Q926.2656,351.5275 926.2656,348.4025 Q926.2656,345.2775 927.5781,343.6213 Q928.9063,341.965 931.4063,341.965 Q932.1094,341.965 932.75,342.1213 Q933.4063,342.2775 933.9688,342.5744 L933.9688,345.2931 Q933.3438,344.715 932.75,344.4494 Q932.1563,344.1681 931.5313,344.1681 Q930.1875,344.1681 929.5,345.2463 Q928.8125,346.3088 928.8125,348.4025 Q928.8125,350.4963 929.5,351.5744 Q930.1875,352.6369 931.5313,352.6369 Q932.1563,352.6369 932.75,352.3713 Q933.3438,352.09 933.9688,351.5119 L933.9688,354.2306 Z " fill="#000000"/><text fill="#000000" font-family="sans-serif" font-size="14" lengthAdjust="spacing" textLength="208" x="945" y="353.4367">SewerObservationComponent</text><line style="stroke:#181818;stroke-width:0.5;" x1="917" x2="1155" y1="364.59" y2="364.59"/><line style="stroke:#181818;stroke-width:0.5;" x1="917" x2="1155" y1="372.59" y2="372.59"/><ellipse cx="927" cy="386.2384" fill="#84BE84" rx="3" ry="3" style="stroke:#038048;stroke-width:1.0;"/><text fill="#000000" font-family="sans-serif" font-size="14" lengthAdjust="spacing" textLength="200" x="936" y="389.5851">Set&lt;Sewer&gt; execute(String)</text></g><!--class Sewers--><g id="elem_Sewers"><rect codeLine="43" fill="#F1F1F1" height="80.5938" id="Sewers" rx="2.5" ry="2.5" style="stroke:#181818;stroke-width:0.5;" width="220" x="712" y="598.19"/><ellipse cx="792.25" cy="614.19" fill="#B4A7E5" rx="11" ry="11" style="stroke:#181818;stroke-width:1.0;"/><path d="M788.1719,609.9556 L788.1719,607.7994 L795.5625,607.7994 L795.5625,609.9556 L793.0938,609.9556 L793.0938,618.0338 L795.5625,618.0338 L795.5625,620.19 L788.1719,620.19 L788.1719,618.0338 L790.6406,618.0338 L790.6406,609.9556 L788.1719,609.9556 Z " fill="#000000"/><text fill="#000000" font-family="sans-serif" font-size="14" font-style="italic" lengthAdjust="spacing" textLength="51" x="812.75" y="619.0367">Sewers</text><line style="stroke:#181818;stroke-width:0.5;" x1="713" x2="931" y1="630.19" y2="630.19"/><line style="stroke:#181818;stroke-width:0.5;" x1="713" x2="931" y1="638.19" y2="638.19"/><ellipse cx="723" cy="651.8384" fill="#84BE84" rx="3" ry="3" style="stroke:#038048;stroke-width:1.0;"/><text fill="#000000" font-family="sans-serif" font-size="14" font-style="italic" lengthAdjust="spacing" textLength="194" x="732" y="655.1851">Set&lt;Sewer&gt; observe(UUID)</text><ellipse cx="723" cy="668.1353" fill="#84BE84" rx="3" ry="3" style="stroke:#038048;stroke-width:1.0;"/><text fill="#000000" font-family="sans-serif" font-size="14" font-style="italic" lengthAdjust="spacing" textLength="139" x="732" y="671.482">void indicate(Sewer)</text></g><!--class Sewer--><g id="elem_Sewer"><rect codeLine="47" fill="#F1F1F1" height="113.1875" id="Sewer" rx="2.5" ry="2.5" style="stroke:#181818;stroke-width:0.5;" width="259" x="417.5" y="581.89"/><ellipse cx="521.25" cy="597.89" fill="#ADD1B2" rx="11" ry="11" style="stroke:#181818;stroke-width:1.0;"/><path d="M524.2188,603.5306 Q523.6406,603.8275 523,603.9681 Q522.3594,604.1244 521.6563,604.1244 Q519.1563,604.1244 517.8281,602.4838 Q516.5156,600.8275 516.5156,597.7025 Q516.5156,594.5775 517.8281,592.9213 Q519.1563,591.265 521.6563,591.265 Q522.3594,591.265 523,591.4213 Q523.6563,591.5775 524.2188,591.8744 L524.2188,594.5931 Q523.5938,594.015 523,593.7494 Q522.4063,593.4681 521.7813,593.4681 Q520.4375,593.4681 519.75,594.5463 Q519.0625,595.6088 519.0625,597.7025 Q519.0625,599.7963 519.75,600.8744 Q520.4375,601.9369 521.7813,601.9369 Q522.4063,601.9369 523,601.6713 Q523.5938,601.39 524.2188,600.8119 L524.2188,603.5306 Z " fill="#000000"/><text fill="#000000" font-family="sans-serif" font-size="14" lengthAdjust="spacing" textLength="43" x="541.75" y="602.7367">Sewer</text><line style="stroke:#181818;stroke-width:0.5;" x1="418.5" x2="675.5" y1="613.89" y2="613.89"/><line style="stroke:#181818;stroke-width:0.5;" x1="418.5" x2="675.5" y1="621.89" y2="621.89"/><ellipse cx="428.5" cy="635.5384" fill="#84BE84" rx="3" ry="3" style="stroke:#038048;stroke-width:1.0;"/><text fill="#000000" font-family="sans-serif" font-size="14" lengthAdjust="spacing" textLength="83" x="437.5" y="638.8851">UUID getId()</text><ellipse cx="428.5" cy="651.8353" fill="#84BE84" rx="3" ry="3" style="stroke:#038048;stroke-width:1.0;"/><text fill="#000000" font-family="sans-serif" font-size="14" lengthAdjust="spacing" textLength="230" x="437.5" y="655.182">KeyPerformanceIndicator getKpi()</text><ellipse cx="428.5" cy="668.1322" fill="#84BE84" rx="3" ry="3" style="stroke:#038048;stroke-width:1.0;"/><text fill="#000000" font-family="sans-serif" font-size="14" lengthAdjust="spacing" textLength="206" x="437.5" y="671.4789">Set&lt;Problem&gt; getProblems()</text><ellipse cx="428.5" cy="684.4291" fill="#84BE84" rx="3" ry="3" style="stroke:#038048;stroke-width:1.0;"/><text fill="#000000" font-family="sans-serif" font-size="14" lengthAdjust="spacing" textLength="233" x="437.5" y="687.7757">void setProblems(Set&lt;Problem&gt;)</text></g><!--class KeyPerformanceIndicator--><g id="elem_KeyPerformanceIndicator"><rect codeLine="53" fill="#F1F1F1" height="96.8906" id="KeyPerformanceIndicator" rx="2.5" ry="2.5" style="stroke:#181818;stroke-width:0.5;" width="279" x="373.5" y="794.08"/><ellipse cx="422.75" cy="810.08" fill="#ADD1B2" rx="11" ry="11" style="stroke:#181818;stroke-width:1.0;"/><path d="M425.7188,815.7206 Q425.1406,816.0175 424.5,816.1581 Q423.8594,816.3144 423.1563,816.3144 Q420.6563,816.3144 419.3281,814.6738 Q418.0156,813.0175 418.0156,809.8925 Q418.0156,806.7675 419.3281,805.1113 Q420.6563,803.455 423.1563,803.455 Q423.8594,803.455 424.5,803.6113 Q425.1563,803.7675 425.7188,804.0644 L425.7188,806.7831 Q425.0938,806.205 424.5,805.9394 Q423.9063,805.6581 423.2813,805.6581 Q421.9375,805.6581 421.25,806.7363 Q420.5625,807.7988 420.5625,809.8925 Q420.5625,811.9863 421.25,813.0644 Q421.9375,814.1269 423.2813,814.1269 Q423.9063,814.1269 424.5,813.8613 Q425.0938,813.58 425.7188,813.0019 L425.7188,815.7206 Z " fill="#000000"/><text fill="#000000" font-family="sans-serif" font-size="14" lengthAdjust="spacing" textLength="172" x="443.25" y="814.9267">KeyPerformanceIndicator</text><line style="stroke:#181818;stroke-width:0.5;" x1="374.5" x2="651.5" y1="826.08" y2="826.08"/><line style="stroke:#181818;stroke-width:0.5;" x1="374.5" x2="651.5" y1="834.08" y2="834.08"/><ellipse cx="384.5" cy="847.7284" fill="#84BE84" rx="3" ry="3" style="stroke:#038048;stroke-width:1.0;"/><text fill="#000000" font-family="sans-serif" font-size="14" lengthAdjust="spacing" textLength="253" x="393.5" y="851.0751">String getPumpPowerConsumption()</text><ellipse cx="384.5" cy="864.0253" fill="#84BE84" rx="3" ry="3" style="stroke:#038048;stroke-width:1.0;"/><text fill="#000000" font-family="sans-serif" font-size="14" lengthAdjust="spacing" textLength="108" x="393.5" y="867.372">String getFlow()</text><ellipse cx="384.5" cy="880.3222" fill="#84BE84" rx="3" ry="3" style="stroke:#038048;stroke-width:1.0;"/><text fill="#000000" font-family="sans-serif" font-size="14" lengthAdjust="spacing" textLength="140" x="393.5" y="883.6689">Number getRainfall()</text></g><!--class Problem--><g id="elem_Problem"><rect codeLine="58" fill="#F1F1F1" height="80.5938" id="Problem" rx="2.5" ry="2.5" style="stroke:#181818;stroke-width:0.5;" width="243" x="709.5" y="802.23"/><ellipse cx="798.25" cy="818.23" fill="#ADD1B2" rx="11" ry="11" style="stroke:#181818;stroke-width:1.0;"/><path d="M801.2188,823.8706 Q800.6406,824.1675 800,824.3081 Q799.3594,824.4644 798.6563,824.4644 Q796.1563,824.4644 794.8281,822.8238 Q793.5156,821.1675 793.5156,818.0425 Q793.5156,814.9175 794.8281,813.2613 Q796.1563,811.605 798.6563,811.605 Q799.3594,811.605 800,811.7613 Q800.6563,811.9175 801.2188,812.2144 L801.2188,814.9331 Q800.5938,814.355 800,814.0894 Q799.4063,813.8081 798.7813,813.8081 Q797.4375,813.8081 796.75,814.8863 Q796.0625,815.9488 796.0625,818.0425 Q796.0625,820.1363 796.75,821.2144 Q797.4375,822.2769 798.7813,822.2769 Q799.4063,822.2769 800,822.0113 Q800.5938,821.73 801.2188,821.1519 L801.2188,823.8706 Z " fill="#000000"/><text fill="#000000" font-family="sans-serif" font-size="14" lengthAdjust="spacing" textLength="57" x="818.75" y="823.0767">Problem</text><line style="stroke:#181818;stroke-width:0.5;" x1="710.5" x2="951.5" y1="834.23" y2="834.23"/><line style="stroke:#181818;stroke-width:0.5;" x1="710.5" x2="951.5" y1="842.23" y2="842.23"/><ellipse cx="720.5" cy="855.8784" fill="#84BE84" rx="3" ry="3" style="stroke:#038048;stroke-width:1.0;"/><text fill="#000000" font-family="sans-serif" font-size="14" lengthAdjust="spacing" textLength="130" x="729.5" y="859.2251">String getReason()</text><ellipse cx="720.5" cy="872.1753" fill="#84BE84" rx="3" ry="3" style="stroke:#038048;stroke-width:1.0;"/><text fill="#000000" font-family="sans-serif" font-size="14" lengthAdjust="spacing" textLength="217" x="729.5" y="875.522">Number getOverflowIndication()</text></g><!--link SewerOverflowIndicationService to SewerOverflowIndicationComponent--><g id="link_SewerOverflowIndicationService_SewerOverflowIndicationComponent"><path codeLine="62" d="M240,148.48 C240,166.75 240,183.53 240,201.84 " fill="none" id="SewerOverflowIndicationService-to-SewerOverflowIndicationComponent" style="stroke:#181818;stroke-width:1.0;"/><polygon fill="#181818" points="240,207.84,244,198.84,240,202.84,236,198.84,240,207.84" style="stroke:#181818;stroke-width:1.0;"/></g><!--link FlowIndicationComponent to Sewers--><g id="link_FlowIndicationComponent_Sewers"><path codeLine="63" d="M786.94,240.97 C812.05,240.97 829.67,240.97 829.67,240.97 C829.67,240.97 829.67,490.5 829.67,591.81 " fill="none" id="FlowIndicationComponent-to-Sewers" style="stroke:#181818;stroke-width:1.0;"/><polygon fill="#181818" points="829.67,597.81,833.67,588.81,829.67,592.81,825.67,588.81,829.67,597.81" style="stroke:#181818;stroke-width:1.0;"/></g><!--link PumpIndicationComponent to Sewers--><g id="link_PumpIndicationComponent_Sewers"><path codeLine="64" d="M761.67,397.22 C761.67,447.36 761.67,537.5 761.67,592.06 " fill="none" id="PumpIndicationComponent-to-Sewers" style="stroke:#181818;stroke-width:1.0;"/><polygon fill="#181818" points="761.67,598.06,765.67,589.06,761.67,593.06,757.67,589.06,761.67,598.06" style="stroke:#181818;stroke-width:1.0;"/></g><!--link RainShortageIndicationComponent to Sewers--><g id="link_RainShortageIndicationComponent_Sewers"><path codeLine="65" d="M392,397.32 C392,434.42 392,489.97 392,489.97 C392,489.97 736.83,489.97 736.83,489.97 C736.83,489.97 736.83,547.93 736.83,591.9 " fill="none" id="RainShortageIndicationComponent-to-Sewers" style="stroke:#181818;stroke-width:1.0;"/><polygon fill="#181818" points="736.83,597.9,740.83,588.9,736.83,592.9,732.83,588.9,736.83,597.9" style="stroke:#181818;stroke-width:1.0;"/></g><!--link SewerOverflowIndicationComponent to RainShortageIndicationComponent--><g id="link_SewerOverflowIndicationComponent_RainShortageIndicationComponent"><path codeLine="66" d="M240,272.78 C240,291.05 240,307.83 240,326.14 " fill="none" id="SewerOverflowIndicationComponent-to-RainShortageIndicationComponent" style="stroke:#181818;stroke-width:1.0;"/><polygon fill="#181818" points="240,332.14,244,323.14,240,327.14,236,323.14,240,332.14" style="stroke:#181818;stroke-width:1.0;"/></g><!--link SewerOverflowIndicationComponent to Sewers--><g id="link_SewerOverflowIndicationComponent_Sewers"><path codeLine="67" d="M387.75,207.91 C387.75,193.16 387.75,178.97 387.75,178.97 C387.75,178.97 872.83,178.97 872.83,178.97 C872.83,178.97 872.83,479.25 872.83,591.71 " fill="none" id="SewerOverflowIndicationComponent-to-Sewers" style="stroke:#181818;stroke-width:1.0;"/><polygon fill="#181818" points="872.83,597.71,876.83,588.71,872.83,592.71,868.83,588.71,872.83,597.71" style="stroke:#181818;stroke-width:1.0;"/></g><!--link SewerOverflowIndicationComponent to PumpIndicationComponent--><g id="link_SewerOverflowIndicationComponent_PumpIndicationComponent"><path codeLine="68" d="M410.98,240.97 C412.94,240.97 414,240.97 414,240.97 C414,240.97 414,364.97 414,364.97 C414,364.97 420.43,364.97 439.12,364.97 " fill="none" id="SewerOverflowIndicationComponent-to-PumpIndicationComponent" style="stroke:#181818;stroke-width:1.0;"/><polygon fill="#181818" points="445.12,364.97,436.12,360.97,440.12,364.97,436.12,368.97,445.12,364.97" style="stroke:#181818;stroke-width:1.0;"/></g><!--link SewerObservationService to SewerObservationComponent--><g id="link_SewerObservationService_SewerObservationComponent"><path codeLine="69" d="M1036,272.78 C1036,291.05 1036,307.83 1036,326.14 " fill="none" id="SewerObservationService-to-SewerObservationComponent" style="stroke:#181818;stroke-width:1.0;"/><polygon fill="#181818" points="1036,332.14,1040,323.14,1036,327.14,1032,323.14,1036,332.14" style="stroke:#181818;stroke-width:1.0;"/></g><!--link SewerObservationComponent to Sewers--><g id="link_SewerObservationComponent_Sewers"><path codeLine="70" d="M924,397.22 C924,447.36 924,537.5 924,592.06 " fill="none" id="SewerObservationComponent-to-Sewers" style="stroke:#181818;stroke-width:1.0;"/><polygon fill="#181818" points="924,598.06,928,589.06,924,593.06,920,589.06,924,598.06" style="stroke:#181818;stroke-width:1.0;"/></g><!--link Sewer to Problem--><g id="link_Sewer_Problem"><path codeLine="71" d="M664.5,695.45 C664.5,755.95 664.5,842.97 664.5,842.97 C664.5,842.97 677.73,842.97 703.12,842.97 " fill="none" id="Sewer-to-Problem" style="stroke:#181818;stroke-width:1.0;"/><polygon fill="#181818" points="709.12,842.97,700.12,838.97,704.12,842.97,700.12,846.97,709.12,842.97" style="stroke:#181818;stroke-width:1.0;"/></g><!--link Sewer to KeyPerformanceIndicator--><g id="link_Sewer_KeyPerformanceIndicator"><path codeLine="72" d="M535,695.32 C535,726.22 535,758.04 535,787.61 " fill="none" id="Sewer-to-KeyPerformanceIndicator" style="stroke:#181818;stroke-width:1.0;"/><polygon fill="#181818" points="535,793.61,539,784.61,535,788.61,531,784.61,535,793.61" style="stroke:#181818;stroke-width:1.0;"/></g><!--SRC=[vLTDZzem4BtdLxZ9XLMxLbNrKAGLFMnL2QtQHOlsN3d915mIEx8TA4Bxt-l42OIF05iIjwWd8cSyxxrXF7vvameoIGZA90oP0f50I8c24GbcP08IHIIMuCWPPIaH944nPQ2MAI0kr9GxSieNIEfzmFDL9pNxK2Ze78H4HA8GSC2JbB0bJWLNHHoMi021goXFpfP-d05QlQmpa92awkmKU1tkVVeGHVx7UYgjxKT09Bms5zvizAAeJ_hzUbPWYYfwGLAypk15GHJwx-lPVPwna8ZbvTanPI4Dz7-Arpczc2PRnGuuKuB7NO3XAhV71M4Jw4WazoM8kHsDkrYM99f86mAtaOx9AxOiEuF4PVvk3uY9dANKOd7hQ1OBV0ZMPf7rJZ-6n6AXTn4j5hi9-a31dI0cKY9td6zyrFcZc2-6PfPIpiPwtj00t4u6z75Cj78GUZldD4J5rEjz8-dTM0dA9k-G-HtSE2-LWAzREUurKSuqjjlbrO8RG6lKuHS4cTec_rclAc2XH8_-JmXKNSOeIrBhCXf0Bv3nH2WRJxLLqzrjNSu9y0jaDNIi9Lsdq2yMLjYBji_zdcbfm3Binw3kYe11UUeD-oDKMor-ayF2ZQXxjAlIRuZJ_Fic8bgY8I_TzdsBIMp8e1NnfH8aK2yrNgMqtlFpyClDJbZHCrNZzOeDknLtk_PQHe9Ha7D44r33i5TGVO3bI9UGYuIme3hJNEGX3oarCRdKaRdu1lcBybcQj-KzibcjXzUqDY2vDemGRf9fMgpefqAP7jSZhfFTSoRrSzwFPGtMCVdDPDQ-PuaFHQdokQW_g-DU_Run9N1jUGzS0kvgUW8YAnKRnll3hk1ksudStWx-tbHthBkN5kGUd4wETGDpVKfEUPVhKtJIjNHwkaxKyxfb_rV_PCCPTspPqnR4lTvTElRzxB_Qb-UOnzQud-bYhahJ7pZFtm00]--></g></svg>