<svg xmlns="http://www.w3.org/2000/svg" xmlns:xlink="http://www.w3.org/1999/xlink" contentStyleType="text/css" height="894px" preserveAspectRatio="none" style="width:1879px;height:894px;background:#FFFFFF;" version="1.1" viewBox="0 0 1879 894" width="1879px" zoomAndPan="magnify"><defs/><g><!--cluster entities--><g id="cluster_entities"><path d="M8.5,6 L530.5,6 A3.75,3.75 0 0 1 533,8.5 L540,28.2969 L1869.5,28.2969 A2.5,2.5 0 0 1 1872,30.7969 L1872,885.21 A2.5,2.5 0 0 1 1869.5,887.71 L8.5,887.71 A2.5,2.5 0 0 1 6,885.21 L6,8.5 A2.5,2.5 0 0 1 8.5,6 " fill="#FCFDB0" style="stroke:#000000;stroke-width:1.5;"/><line style="stroke:#000000;stroke-width:1.5;" x1="6" x2="540" y1="28.2969" y2="28.2969"/><text fill="#000000" font-family="sans-serif" font-size="14" font-weight="bold" lengthAdjust="spacing" textLength="521" x="10" y="20.9951">de.company.prototype.sewer.drivers.adapters.use_cases.entities</text></g><!--cluster boundary--><g id="cluster_boundary"><path d="M32.5,49 L175.5,49 A3.75,3.75 0 0 1 178,51.5 L185,71.2969 L1199.5,71.2969 A2.5,2.5 0 0 1 1202,73.7969 L1202,640.87 A2.5,2.5 0 0 1 1199.5,643.37 L32.5,643.37 A2.5,2.5 0 0 1 30,640.87 L30,51.5 A2.5,2.5 0 0 1 32.5,49 " fill="#00FF00" style="stroke:#000000;stroke-width:1.5;"/><line style="stroke:#000000;stroke-width:1.5;" x1="30" x2="185" y1="71.2969" y2="71.2969"/><text fill="#000000" font-family="sans-serif" font-size="14" font-weight="bold" lengthAdjust="spacing" textLength="142" x="34" y="63.9951">indicate.boundary</text></g><!--cluster control--><g id="cluster_control"><path d="M56.5,189.59 L113.5,189.59 A3.75,3.75 0 0 1 116,192.09 L123,211.8869 L1175.5,211.8869 A2.5,2.5 0 0 1 1178,214.3869 L1178,616.87 A2.5,2.5 0 0 1 1175.5,619.37 L56.5,619.37 A2.5,2.5 0 0 1 54,616.87 L54,192.09 A2.5,2.5 0 0 1 56.5,189.59 " fill="#FFA500" style="stroke:#000000;stroke-width:1.5;"/><line style="stroke:#000000;stroke-width:1.5;" x1="54" x2="123" y1="211.8869" y2="211.8869"/><text fill="#000000" font-family="sans-serif" font-size="14" font-weight="bold" lengthAdjust="spacing" textLength="56" x="58" y="204.5851">control</text></g><!--cluster boundary--><g id="cluster_boundary"><path d="M1454.5,49 L1600.5,49 A3.75,3.75 0 0 1 1603,51.5 L1610,71.2969 L1845.5,71.2969 A2.5,2.5 0 0 1 1848,73.7969 L1848,367.13 A2.5,2.5 0 0 1 1845.5,369.63 L1454.5,369.63 A2.5,2.5 0 0 1 1452,367.13 L1452,51.5 A2.5,2.5 0 0 1 1454.5,49 " fill="#00FF00" style="stroke:#000000;stroke-width:1.5;"/><line style="stroke:#000000;stroke-width:1.5;" x1="1452" x2="1610" y1="71.2969" y2="71.2969"/><text fill="#000000" font-family="sans-serif" font-size="14" font-weight="bold" lengthAdjust="spacing" textLength="145" x="1456" y="63.9951">observe.boundary</text></g><!--cluster control--><g id="cluster_control"><path d="M1535.5,214.04 L1592.5,214.04 A3.75,3.75 0 0 1 1595,216.54 L1602,236.3369 L1802.5,236.3369 A2.5,2.5 0 0 1 1805,238.8369 L1805,343.13 A2.5,2.5 0 0 1 1802.5,345.63 L1535.5,345.63 A2.5,2.5 0 0 1 1533,343.13 L1533,216.54 A2.5,2.5 0 0 1 1535.5,214.04 " fill="#FFA500" style="stroke:#000000;stroke-width:1.5;"/><line style="stroke:#000000;stroke-width:1.5;" x1="1533" x2="1602" y1="236.3369" y2="236.3369"/><text fill="#000000" font-family="sans-serif" font-size="14" font-weight="bold" lengthAdjust="spacing" textLength="56" x="1537" y="229.0351">control</text></g><!--cluster sewer--><g id="cluster_sewer"><path d="M1228.5,393.63 L1279.5,393.63 A3.75,3.75 0 0 1 1282,396.13 L1289,415.9269 L1845.5,415.9269 A2.5,2.5 0 0 1 1848,418.4269 L1848,861.21 A2.5,2.5 0 0 1 1845.5,863.71 L1228.5,863.71 A2.5,2.5 0 0 1 1226,861.21 L1226,396.13 A2.5,2.5 0 0 1 1228.5,393.63 " fill="none" style="stroke:#000000;stroke-width:1.5;"/><line style="stroke:#000000;stroke-width:1.5;" x1="1226" x2="1289" y1="415.9269" y2="415.9269"/><text fill="#000000" font-family="sans-serif" font-size="14" font-weight="bold" lengthAdjust="spacing" textLength="50" x="1230" y="408.6251">sewer</text></g><!--cluster boundary--><g id="cluster_boundary"><path d="M1252.5,436.63 L1328.5,436.63 A3.75,3.75 0 0 1 1331,439.13 L1338,458.9269 L1817.5,458.9269 A2.5,2.5 0 0 1 1820,461.4269 L1820,665.32 A2.5,2.5 0 0 1 1817.5,667.82 L1252.5,667.82 A2.5,2.5 0 0 1 1250,665.32 L1250,439.13 A2.5,2.5 0 0 1 1252.5,436.63 " fill="#00FF00" style="stroke:#000000;stroke-width:1.5;"/><line style="stroke:#000000;stroke-width:1.5;" x1="1250" x2="1338" y1="458.9269" y2="458.9269"/><text fill="#000000" font-family="sans-serif" font-size="14" font-weight="bold" lengthAdjust="spacing" textLength="75" x="1254" y="451.6251">boundary</text></g><!--cluster entity--><g id="cluster_entity"><path d="M1276.5,479.63 L1383.5,479.63 A3.75,3.75 0 0 1 1386,482.13 L1393,501.9269 L1561.5,501.9269 A2.5,2.5 0 0 1 1564,504.4269 L1564,641.32 A2.5,2.5 0 0 1 1561.5,643.82 L1276.5,643.82 A2.5,2.5 0 0 1 1274,641.32 L1274,482.13 A2.5,2.5 0 0 1 1276.5,479.63 " fill="#FCFDB0" style="stroke:#000000;stroke-width:1.5;"/><line style="stroke:#000000;stroke-width:1.5;" x1="1274" x2="1393" y1="501.9269" y2="501.9269"/><text fill="#000000" font-family="sans-serif" font-size="14" font-weight="bold" lengthAdjust="spacing" textLength="106" x="1278" y="494.6251">control.entity</text></g><!--cluster entity--><g id="cluster_entity"><path d="M1252.5,691.82 L1467.5,691.82 A3.75,3.75 0 0 1 1470,694.32 L1477,714.1169 L1525.5,714.1169 A2.5,2.5 0 0 1 1528,716.6169 L1528,837.21 A2.5,2.5 0 0 1 1525.5,839.71 L1252.5,839.71 A2.5,2.5 0 0 1 1250,837.21 L1250,694.32 A2.5,2.5 0 0 1 1252.5,691.82 " fill="#FCFDB0" style="stroke:#000000;stroke-width:1.5;"/><line style="stroke:#000000;stroke-width:1.5;" x1="1250" x2="1477" y1="714.1169" y2="714.1169"/><text fill="#000000" font-family="sans-serif" font-size="14" font-weight="bold" lengthAdjust="spacing" textLength="214" x="1254" y="706.8151">kpi.boundary.control.entity</text></g><!--cluster entity--><g id="cluster_entity"><path d="M1554.5,699.97 L1811.5,699.97 A3.75,3.75 0 0 1 1814,702.47 L1821,722.2669 L1821.5,722.2669 A2.5,2.5 0 0 1 1824,724.7669 L1824,829.06 A2.5,2.5 0 0 1 1821.5,831.56 L1554.5,831.56 A2.5,2.5 0 0 1 1552,829.06 L1552,702.47 A2.5,2.5 0 0 1 1554.5,699.97 " fill="#FCFDB0" style="stroke:#000000;stroke-width:1.5;"/><line style="stroke:#000000;stroke-width:1.5;" x1="1552" x2="1821" y1="722.2669" y2="722.2669"/><text fill="#000000" font-family="sans-serif" font-size="14" font-weight="bold" lengthAdjust="spacing" textLength="256" x="1556" y="714.9651">problem.boundary.control.entity</text></g><!--class SewerOverflowIndicationService--><g id="elem_SewerOverflowIndicationService"><rect codeLine="22" fill="#F1F1F1" height="80.5938" id="SewerOverflowIndicationService" rx="2.5" ry="2.5" style="stroke:#181818;stroke-width:0.5;" width="447" x="565.5" y="84"/><ellipse cx="675.75" cy="100" fill="#ADD1B2" rx="11" ry="11" style="stroke:#181818;stroke-width:1.0;"/><path d="M678.7188,105.6406 Q678.1406,105.9375 677.5,106.0781 Q676.8594,106.2344 676.1563,106.2344 Q673.6563,106.2344 672.3281,104.5938 Q671.0156,102.9375 671.0156,99.8125 Q671.0156,96.6875 672.3281,95.0313 Q673.6563,93.375 676.1563,93.375 Q676.8594,93.375 677.5,93.5313 Q678.1563,93.6875 678.7188,93.9844 L678.7188,96.7031 Q678.0938,96.125 677.5,95.8594 Q676.9063,95.5781 676.2813,95.5781 Q674.9375,95.5781 674.25,96.6563 Q673.5625,97.7188 673.5625,99.8125 Q673.5625,101.9063 674.25,102.9844 Q674.9375,104.0469 676.2813,104.0469 Q676.9063,104.0469 677.5,103.7813 Q678.0938,103.5 678.7188,102.9219 L678.7188,105.6406 Z " fill="#000000"/><text fill="#000000" font-family="sans-serif" font-size="14" lengthAdjust="spacing" textLength="218" x="696.25" y="104.8467">SewerOverflowIndicationService</text><line style="stroke:#181818;stroke-width:0.5;" x1="566.5" x2="1011.5" y1="116" y2="116"/><rect fill="none" height="6" style="stroke:#C82930;stroke-width:1.0;" width="6" x="573.5" y="126.6484"/><text fill="#000000" font-family="sans-serif" font-size="14" lengthAdjust="spacing" textLength="421" x="585.5" y="132.9951">SewerOverflowIndicationComponent sewerOverflowIndication</text><line style="stroke:#181818;stroke-width:0.5;" x1="566.5" x2="1011.5" y1="140.2969" y2="140.2969"/><ellipse cx="576.5" cy="153.9453" fill="#84BE84" rx="3" ry="3" style="stroke:#038048;stroke-width:1.0;"/><text fill="#000000" font-family="sans-serif" font-size="14" lengthAdjust="spacing" textLength="221" x="585.5" y="157.292">void serve(Map&lt;String, String&gt;)</text></g><!--class FlowIndicationComponent--><g id="elem_FlowIndicationComponent"><rect codeLine="27" fill="#F1F1F1" height="64.2969" id="FlowIndicationComponent" rx="2.5" ry="2.5" style="stroke:#181818;stroke-width:0.5;" width="341" x="69.5" y="539.08"/><ellipse cx="146.25" cy="555.08" fill="#ADD1B2" rx="11" ry="11" style="stroke:#181818;stroke-width:1.0;"/><path d="M149.2188,560.7206 Q148.6406,561.0175 148,561.1581 Q147.3594,561.3144 146.6563,561.3144 Q144.1563,561.3144 142.8281,559.6738 Q141.5156,558.0175 141.5156,554.8925 Q141.5156,551.7675 142.8281,550.1113 Q144.1563,548.455 146.6563,548.455 Q147.3594,548.455 148,548.6113 Q148.6563,548.7675 149.2188,549.0644 L149.2188,551.7831 Q148.5938,551.205 148,550.9394 Q147.4063,550.6581 146.7813,550.6581 Q145.4375,550.6581 144.75,551.7363 Q144.0625,552.7988 144.0625,554.8925 Q144.0625,556.9863 144.75,558.0644 Q145.4375,559.1269 146.7813,559.1269 Q147.4063,559.1269 148,558.8613 Q148.5938,558.58 149.2188,558.0019 L149.2188,560.7206 Z " fill="#000000"/><text fill="#000000" font-family="sans-serif" font-size="14" lengthAdjust="spacing" textLength="179" x="166.75" y="559.9267">FlowIndicationComponent</text><line style="stroke:#181818;stroke-width:0.5;" x1="70.5" x2="409.5" y1="571.08" y2="571.08"/><line style="stroke:#181818;stroke-width:0.5;" x1="70.5" x2="409.5" y1="579.08" y2="579.08"/><ellipse cx="80.5" cy="592.7284" fill="#84BE84" rx="3" ry="3" style="stroke:#038048;stroke-width:1.0;"/><text fill="#000000" font-family="sans-serif" font-size="14" lengthAdjust="spacing" textLength="315" x="89.5" y="596.0751">void execute(Map&lt;String, ? extends Object&gt;)</text></g><!--class PumpIndicationComponent--><g id="elem_PumpIndicationComponent"><rect codeLine="30" fill="#F1F1F1" height="64.2969" id="PumpIndicationComponent" rx="2.5" ry="2.5" style="stroke:#181818;stroke-width:0.5;" width="341" x="445.5" y="539.08"/><ellipse cx="517.75" cy="555.08" fill="#ADD1B2" rx="11" ry="11" style="stroke:#181818;stroke-width:1.0;"/><path d="M520.7188,560.7206 Q520.1406,561.0175 519.5,561.1581 Q518.8594,561.3144 518.1563,561.3144 Q515.6563,561.3144 514.3281,559.6738 Q513.0156,558.0175 513.0156,554.8925 Q513.0156,551.7675 514.3281,550.1113 Q515.6563,548.455 518.1563,548.455 Q518.8594,548.455 519.5,548.6113 Q520.1563,548.7675 520.7188,549.0644 L520.7188,551.7831 Q520.0938,551.205 519.5,550.9394 Q518.9063,550.6581 518.2813,550.6581 Q516.9375,550.6581 516.25,551.7363 Q515.5625,552.7988 515.5625,554.8925 Q515.5625,556.9863 516.25,558.0644 Q516.9375,559.1269 518.2813,559.1269 Q518.9063,559.1269 519.5,558.8613 Q520.0938,558.58 520.7188,558.0019 L520.7188,560.7206 Z " fill="#000000"/><text fill="#000000" font-family="sans-serif" font-size="14" lengthAdjust="spacing" textLength="188" x="538.25" y="559.9267">PumpIndicationComponent</text><line style="stroke:#181818;stroke-width:0.5;" x1="446.5" x2="785.5" y1="571.08" y2="571.08"/><line style="stroke:#181818;stroke-width:0.5;" x1="446.5" x2="785.5" y1="579.08" y2="579.08"/><ellipse cx="456.5" cy="592.7284" fill="#84BE84" rx="3" ry="3" style="stroke:#038048;stroke-width:1.0;"/><text fill="#000000" font-family="sans-serif" font-size="14" lengthAdjust="spacing" textLength="315" x="465.5" y="596.0751">void execute(Map&lt;String, ? extends Object&gt;)</text></g><!--class RainIndicationComponent--><g id="elem_RainIndicationComponent"><rect codeLine="33" fill="#F1F1F1" height="64.2969" id="RainIndicationComponent" rx="2.5" ry="2.5" style="stroke:#181818;stroke-width:0.5;" width="341" x="821.5" y="539.08"/><ellipse cx="898.75" cy="555.08" fill="#ADD1B2" rx="11" ry="11" style="stroke:#181818;stroke-width:1.0;"/><path d="M901.7188,560.7206 Q901.1406,561.0175 900.5,561.1581 Q899.8594,561.3144 899.1563,561.3144 Q896.6563,561.3144 895.3281,559.6738 Q894.0156,558.0175 894.0156,554.8925 Q894.0156,551.7675 895.3281,550.1113 Q896.6563,548.455 899.1563,548.455 Q899.8594,548.455 900.5,548.6113 Q901.1563,548.7675 901.7188,549.0644 L901.7188,551.7831 Q901.0938,551.205 900.5,550.9394 Q899.9063,550.6581 899.2813,550.6581 Q897.9375,550.6581 897.25,551.7363 Q896.5625,552.7988 896.5625,554.8925 Q896.5625,556.9863 897.25,558.0644 Q897.9375,559.1269 899.2813,559.1269 Q899.9063,559.1269 900.5,558.8613 Q901.0938,558.58 901.7188,558.0019 L901.7188,560.7206 Z " fill="#000000"/><text fill="#000000" font-family="sans-serif" font-size="14" lengthAdjust="spacing" textLength="178" x="919.25" y="559.9267">RainIndicationComponent</text><line style="stroke:#181818;stroke-width:0.5;" x1="822.5" x2="1161.5" y1="571.08" y2="571.08"/><line style="stroke:#181818;stroke-width:0.5;" x1="822.5" x2="1161.5" y1="579.08" y2="579.08"/><ellipse cx="832.5" cy="592.7284" fill="#84BE84" rx="3" ry="3" style="stroke:#038048;stroke-width:1.0;"/><text fill="#000000" font-family="sans-serif" font-size="14" lengthAdjust="spacing" textLength="315" x="841.5" y="596.0751">void execute(Map&lt;String, ? extends Object&gt;)</text></g><!--class SewerOverflowIndicationComponent--><g id="elem_SewerOverflowIndicationComponent"><rect codeLine="36" fill="#F1F1F1" height="129.4844" id="SewerOverflowIndicationComponent" rx="2.5" ry="2.5" style="stroke:#181818;stroke-width:0.5;" width="341" x="618.5" y="224.59"/><ellipse cx="660.05" cy="240.59" fill="#ADD1B2" rx="11" ry="11" style="stroke:#181818;stroke-width:1.0;"/><path d="M663.0188,246.2306 Q662.4406,246.5275 661.8,246.6681 Q661.1594,246.8244 660.4563,246.8244 Q657.9563,246.8244 656.6281,245.1838 Q655.3156,243.5275 655.3156,240.4025 Q655.3156,237.2775 656.6281,235.6213 Q657.9563,233.965 660.4563,233.965 Q661.1594,233.965 661.8,234.1213 Q662.4563,234.2775 663.0188,234.5744 L663.0188,237.2931 Q662.3938,236.715 661.8,236.4494 Q661.2063,236.1681 660.5813,236.1681 Q659.2375,236.1681 658.55,237.2463 Q657.8625,238.3088 657.8625,240.4025 Q657.8625,242.4963 658.55,243.5744 Q659.2375,244.6369 660.5813,244.6369 Q661.2063,244.6369 661.8,244.3713 Q662.3938,244.09 663.0188,243.5119 L663.0188,246.2306 Z " fill="#000000"/><text fill="#000000" font-family="sans-serif" font-size="14" lengthAdjust="spacing" textLength="250" x="679.95" y="245.4367">SewerOverflowIndicationComponent</text><line style="stroke:#181818;stroke-width:0.5;" x1="619.5" x2="958.5" y1="256.59" y2="256.59"/><rect fill="none" height="6" style="stroke:#C82930;stroke-width:1.0;" width="6" x="626.5" y="267.2384"/><text fill="#000000" font-family="sans-serif" font-size="14" lengthAdjust="spacing" textLength="105" x="638.5" y="273.5851">Sewers sewers</text><rect fill="none" height="6" style="stroke:#C82930;stroke-width:1.0;" width="6" x="626.5" y="283.5353"/><text fill="#000000" font-family="sans-serif" font-size="14" lengthAdjust="spacing" textLength="273" x="638.5" y="289.882">RainIndicationComponent rainIndication</text><rect fill="none" height="6" style="stroke:#C82930;stroke-width:1.0;" width="6" x="626.5" y="299.8322"/><text fill="#000000" font-family="sans-serif" font-size="14" lengthAdjust="spacing" textLength="276" x="638.5" y="306.1789">FlowIndicationComponent flowIndication</text><rect fill="none" height="6" style="stroke:#C82930;stroke-width:1.0;" width="6" x="626.5" y="316.1291"/><text fill="#000000" font-family="sans-serif" font-size="14" lengthAdjust="spacing" textLength="298" x="638.5" y="322.4757">PumpIndicationComponent pumpIndication</text><line style="stroke:#181818;stroke-width:0.5;" x1="619.5" x2="958.5" y1="329.7775" y2="329.7775"/><ellipse cx="629.5" cy="343.4259" fill="#84BE84" rx="3" ry="3" style="stroke:#038048;stroke-width:1.0;"/><text fill="#000000" font-family="sans-serif" font-size="14" lengthAdjust="spacing" textLength="315" x="638.5" y="346.7726">void execute(Map&lt;String, ? extends Object&gt;)</text></g><!--class SewerObservationService--><g id="elem_SewerObservationService"><rect codeLine="44" fill="#F1F1F1" height="80.5938" id="SewerObservationService" rx="2.5" ry="2.5" style="stroke:#181818;stroke-width:0.5;" width="363" x="1468.5" y="84"/><ellipse cx="1557.75" cy="100" fill="#ADD1B2" rx="11" ry="11" style="stroke:#181818;stroke-width:1.0;"/><path d="M1560.7188,105.6406 Q1560.1406,105.9375 1559.5,106.0781 Q1558.8594,106.2344 1558.1563,106.2344 Q1555.6563,106.2344 1554.3281,104.5938 Q1553.0156,102.9375 1553.0156,99.8125 Q1553.0156,96.6875 1554.3281,95.0313 Q1555.6563,93.375 1558.1563,93.375 Q1558.8594,93.375 1559.5,93.5313 Q1560.1563,93.6875 1560.7188,93.9844 L1560.7188,96.7031 Q1560.0938,96.125 1559.5,95.8594 Q1558.9063,95.5781 1558.2813,95.5781 Q1556.9375,95.5781 1556.25,96.6563 Q1555.5625,97.7188 1555.5625,99.8125 Q1555.5625,101.9063 1556.25,102.9844 Q1556.9375,104.0469 1558.2813,104.0469 Q1558.9063,104.0469 1559.5,103.7813 Q1560.0938,103.5 1560.7188,102.9219 L1560.7188,105.6406 Z " fill="#000000"/><text fill="#000000" font-family="sans-serif" font-size="14" lengthAdjust="spacing" textLength="176" x="1578.25" y="104.8467">SewerObservationService</text><line style="stroke:#181818;stroke-width:0.5;" x1="1469.5" x2="1830.5" y1="116" y2="116"/><rect fill="none" height="6" style="stroke:#C82930;stroke-width:1.0;" width="6" x="1476.5" y="126.6484"/><text fill="#000000" font-family="sans-serif" font-size="14" lengthAdjust="spacing" textLength="337" x="1488.5" y="132.9951">SewerObservationComponent sewerObservation</text><line style="stroke:#181818;stroke-width:0.5;" x1="1469.5" x2="1830.5" y1="140.2969" y2="140.2969"/><ellipse cx="1479.5" cy="153.9453" fill="#84BE84" rx="3" ry="3" style="stroke:#038048;stroke-width:1.0;"/><text fill="#000000" font-family="sans-serif" font-size="14" lengthAdjust="spacing" textLength="182" x="1488.5" y="157.292">Set&lt;Sewer&gt; serve(String)</text></g><!--class SewerObservationComponent--><g id="elem_SewerObservationComponent"><rect codeLine="49" fill="#F1F1F1" height="80.5938" id="SewerObservationComponent" rx="2.5" ry="2.5" style="stroke:#181818;stroke-width:0.5;" width="240" x="1549" y="249.04"/><ellipse cx="1564" cy="265.04" fill="#ADD1B2" rx="11" ry="11" style="stroke:#181818;stroke-width:1.0;"/><path d="M1566.9688,270.6806 Q1566.3906,270.9775 1565.75,271.1181 Q1565.1094,271.2744 1564.4063,271.2744 Q1561.9063,271.2744 1560.5781,269.6338 Q1559.2656,267.9775 1559.2656,264.8525 Q1559.2656,261.7275 1560.5781,260.0713 Q1561.9063,258.415 1564.4063,258.415 Q1565.1094,258.415 1565.75,258.5713 Q1566.4063,258.7275 1566.9688,259.0244 L1566.9688,261.7431 Q1566.3438,261.165 1565.75,260.8994 Q1565.1563,260.6181 1564.5313,260.6181 Q1563.1875,260.6181 1562.5,261.6963 Q1561.8125,262.7588 1561.8125,264.8525 Q1561.8125,266.9463 1562.5,268.0244 Q1563.1875,269.0869 1564.5313,269.0869 Q1565.1563,269.0869 1565.75,268.8213 Q1566.3438,268.54 1566.9688,267.9619 L1566.9688,270.6806 Z " fill="#000000"/><text fill="#000000" font-family="sans-serif" font-size="14" lengthAdjust="spacing" textLength="208" x="1578" y="269.8867">SewerObservationComponent</text><line style="stroke:#181818;stroke-width:0.5;" x1="1550" x2="1788" y1="281.04" y2="281.04"/><rect fill="none" height="6" style="stroke:#C82930;stroke-width:1.0;" width="6" x="1557" y="291.6884"/><text fill="#000000" font-family="sans-serif" font-size="14" lengthAdjust="spacing" textLength="105" x="1569" y="298.0351">Sewers sewers</text><line style="stroke:#181818;stroke-width:0.5;" x1="1550" x2="1788" y1="305.3369" y2="305.3369"/><ellipse cx="1560" cy="318.9853" fill="#84BE84" rx="3" ry="3" style="stroke:#038048;stroke-width:1.0;"/><text fill="#000000" font-family="sans-serif" font-size="14" lengthAdjust="spacing" textLength="200" x="1569" y="322.332">Set&lt;Sewer&gt; execute(String)</text></g><!--class Sewers--><g id="elem_Sewers"><rect codeLine="54" fill="#F1F1F1" height="80.5938" id="Sewers" rx="2.5" ry="2.5" style="stroke:#181818;stroke-width:0.5;" width="220" x="1584" y="530.93"/><ellipse cx="1664.25" cy="546.93" fill="#B4A7E5" rx="11" ry="11" style="stroke:#181818;stroke-width:1.0;"/><path d="M1660.1719,542.6956 L1660.1719,540.5394 L1667.5625,540.5394 L1667.5625,542.6956 L1665.0938,542.6956 L1665.0938,550.7738 L1667.5625,550.7738 L1667.5625,552.93 L1660.1719,552.93 L1660.1719,550.7738 L1662.6406,550.7738 L1662.6406,542.6956 L1660.1719,542.6956 Z " fill="#000000"/><text fill="#000000" font-family="sans-serif" font-size="14" font-style="italic" lengthAdjust="spacing" textLength="51" x="1684.75" y="551.7767">Sewers</text><line style="stroke:#181818;stroke-width:0.5;" x1="1585" x2="1803" y1="562.93" y2="562.93"/><line style="stroke:#181818;stroke-width:0.5;" x1="1585" x2="1803" y1="570.93" y2="570.93"/><ellipse cx="1595" cy="584.5784" fill="#84BE84" rx="3" ry="3" style="stroke:#038048;stroke-width:1.0;"/><text fill="#000000" font-family="sans-serif" font-size="14" font-style="italic" lengthAdjust="spacing" textLength="194" x="1604" y="587.9251">Set&lt;Sewer&gt; observe(UUID)</text><ellipse cx="1595" cy="600.8753" fill="#84BE84" rx="3" ry="3" style="stroke:#038048;stroke-width:1.0;"/><text fill="#000000" font-family="sans-serif" font-size="14" font-style="italic" lengthAdjust="spacing" textLength="139" x="1604" y="604.222">void indicate(Sewer)</text></g><!--class Sewer--><g id="elem_Sewer"><rect codeLine="58" fill="#F1F1F1" height="113.1875" id="Sewer" rx="2.5" ry="2.5" style="stroke:#181818;stroke-width:0.5;" width="259" x="1289.5" y="514.63"/><ellipse cx="1393.25" cy="530.63" fill="#ADD1B2" rx="11" ry="11" style="stroke:#181818;stroke-width:1.0;"/><path d="M1396.2188,536.2706 Q1395.6406,536.5675 1395,536.7081 Q1394.3594,536.8644 1393.6563,536.8644 Q1391.1563,536.8644 1389.8281,535.2238 Q1388.5156,533.5675 1388.5156,530.4425 Q1388.5156,527.3175 1389.8281,525.6613 Q1391.1563,524.005 1393.6563,524.005 Q1394.3594,524.005 1395,524.1613 Q1395.6563,524.3175 1396.2188,524.6144 L1396.2188,527.3331 Q1395.5938,526.755 1395,526.4894 Q1394.4063,526.2081 1393.7813,526.2081 Q1392.4375,526.2081 1391.75,527.2863 Q1391.0625,528.3488 1391.0625,530.4425 Q1391.0625,532.5363 1391.75,533.6144 Q1392.4375,534.6769 1393.7813,534.6769 Q1394.4063,534.6769 1395,534.4113 Q1395.5938,534.13 1396.2188,533.5519 L1396.2188,536.2706 Z " fill="#000000"/><text fill="#000000" font-family="sans-serif" font-size="14" lengthAdjust="spacing" textLength="43" x="1413.75" y="535.4767">Sewer</text><line style="stroke:#181818;stroke-width:0.5;" x1="1290.5" x2="1547.5" y1="546.63" y2="546.63"/><rect fill="none" height="6" style="stroke:#C82930;stroke-width:1.0;" width="6" x="1297.5" y="557.2784"/><text fill="#000000" font-family="sans-serif" font-size="14" lengthAdjust="spacing" textLength="50" x="1309.5" y="563.6251">UUID id</text><rect fill="none" height="6" style="stroke:#C82930;stroke-width:1.0;" width="6" x="1297.5" y="573.5753"/><text fill="#000000" font-family="sans-serif" font-size="14" lengthAdjust="spacing" textLength="196" x="1309.5" y="579.922">KeyPerformanceIndicator kpi</text><rect fill="none" height="6" style="stroke:#C82930;stroke-width:1.0;" width="6" x="1297.5" y="589.8722"/><text fill="#000000" font-family="sans-serif" font-size="14" lengthAdjust="spacing" textLength="173" x="1309.5" y="596.2189">Set&lt;Problem&gt; problems</text><line style="stroke:#181818;stroke-width:0.5;" x1="1290.5" x2="1547.5" y1="603.5206" y2="603.5206"/><ellipse cx="1300.5" cy="617.1691" fill="#84BE84" rx="3" ry="3" style="stroke:#038048;stroke-width:1.0;"/><text fill="#000000" font-family="sans-serif" font-size="14" lengthAdjust="spacing" textLength="233" x="1309.5" y="620.5157">void setProblems(Set&lt;Problem&gt;)</text></g><!--class KeyPerformanceIndicator--><g id="elem_KeyPerformanceIndicator"><rect codeLine="65" fill="#F1F1F1" height="96.8906" id="KeyPerformanceIndicator" rx="2.5" ry="2.5" style="stroke:#181818;stroke-width:0.5;" width="246" x="1266" y="726.82"/><ellipse cx="1299.9" cy="742.82" fill="#ADD1B2" rx="11" ry="11" style="stroke:#181818;stroke-width:1.0;"/><path d="M1302.8688,748.4606 Q1302.2906,748.7575 1301.65,748.8981 Q1301.0094,749.0544 1300.3063,749.0544 Q1297.8063,749.0544 1296.4781,747.4138 Q1295.1656,745.7575 1295.1656,742.6325 Q1295.1656,739.5075 1296.4781,737.8513 Q1297.8063,736.195 1300.3063,736.195 Q1301.0094,736.195 1301.65,736.3513 Q1302.3063,736.5075 1302.8688,736.8044 L1302.8688,739.5231 Q1302.2438,738.945 1301.65,738.6794 Q1301.0563,738.3981 1300.4313,738.3981 Q1299.0875,738.3981 1298.4,739.4763 Q1297.7125,740.5388 1297.7125,742.6325 Q1297.7125,744.7263 1298.4,745.8044 Q1299.0875,746.8669 1300.4313,746.8669 Q1301.0563,746.8669 1301.65,746.6013 Q1302.2438,746.32 1302.8688,745.7419 L1302.8688,748.4606 Z " fill="#000000"/><text fill="#000000" font-family="sans-serif" font-size="14" lengthAdjust="spacing" textLength="172" x="1318.1" y="747.6667">KeyPerformanceIndicator</text><line style="stroke:#181818;stroke-width:0.5;" x1="1267" x2="1511" y1="758.82" y2="758.82"/><rect fill="none" height="6" style="stroke:#C82930;stroke-width:1.0;" width="6" x="1274" y="769.4684"/><text fill="#000000" font-family="sans-serif" font-size="14" lengthAdjust="spacing" textLength="220" x="1286" y="775.8151">String pumpPowerConsumption</text><rect fill="none" height="6" style="stroke:#C82930;stroke-width:1.0;" width="6" x="1274" y="785.7653"/><text fill="#000000" font-family="sans-serif" font-size="14" lengthAdjust="spacing" textLength="71" x="1286" y="792.112">String flow</text><rect fill="none" height="6" style="stroke:#C82930;stroke-width:1.0;" width="6" x="1274" y="802.0622"/><text fill="#000000" font-family="sans-serif" font-size="14" lengthAdjust="spacing" textLength="102" x="1286" y="808.4089">Number rainfall</text><line style="stroke:#181818;stroke-width:0.5;" x1="1267" x2="1511" y1="815.7106" y2="815.7106"/></g><!--class Problem--><g id="elem_Problem"><rect codeLine="70" fill="#F1F1F1" height="80.5938" id="Problem" rx="2.5" ry="2.5" style="stroke:#181818;stroke-width:0.5;" width="208" x="1568" y="734.97"/><ellipse cx="1639.25" cy="750.97" fill="#ADD1B2" rx="11" ry="11" style="stroke:#181818;stroke-width:1.0;"/><path d="M1642.2188,756.6106 Q1641.6406,756.9075 1641,757.0481 Q1640.3594,757.2044 1639.6563,757.2044 Q1637.1563,757.2044 1635.8281,755.5638 Q1634.5156,753.9075 1634.5156,750.7825 Q1634.5156,747.6575 1635.8281,746.0013 Q1637.1563,744.345 1639.6563,744.345 Q1640.3594,744.345 1641,744.5013 Q1641.6563,744.6575 1642.2188,744.9544 L1642.2188,747.6731 Q1641.5938,747.095 1641,746.8294 Q1640.4063,746.5481 1639.7813,746.5481 Q1638.4375,746.5481 1637.75,747.6263 Q1637.0625,748.6888 1637.0625,750.7825 Q1637.0625,752.8763 1637.75,753.9544 Q1638.4375,755.0169 1639.7813,755.0169 Q1640.4063,755.0169 1641,754.7513 Q1641.5938,754.47 1642.2188,753.8919 L1642.2188,756.6106 Z " fill="#000000"/><text fill="#000000" font-family="sans-serif" font-size="14" lengthAdjust="spacing" textLength="57" x="1659.75" y="755.8167">Problem</text><line style="stroke:#181818;stroke-width:0.5;" x1="1569" x2="1775" y1="766.97" y2="766.97"/><rect fill="none" height="6" style="stroke:#C82930;stroke-width:1.0;" width="6" x="1576" y="777.6184"/><text fill="#000000" font-family="sans-serif" font-size="14" lengthAdjust="spacing" textLength="92" x="1588" y="783.9651">String reason</text><rect fill="none" height="6" style="stroke:#C82930;stroke-width:1.0;" width="6" x="1576" y="793.9153"/><text fill="#000000" font-family="sans-serif" font-size="14" lengthAdjust="spacing" textLength="182" x="1588" y="800.262">Number overflowIndication</text><line style="stroke:#181818;stroke-width:0.5;" x1="1569" x2="1775" y1="807.5638" y2="807.5638"/></g><!--link SewerOverflowIndicationService to SewerOverflowIndicationComponent--><g id="link_SewerOverflowIndicationService_SewerOverflowIndicationComponent"><path codeLine="74" d="M789,165.09 C789,182.94 789,198.33 789,218.28 " fill="none" id="SewerOverflowIndicationService-to-SewerOverflowIndicationComponent" style="stroke:#181818;stroke-width:1.0;"/><polygon fill="#181818" points="789,224.28,793,215.28,789,219.28,785,215.28,789,224.28" style="stroke:#181818;stroke-width:1.0;"/></g><!--link SewerOverflowIndicationComponent to Sewers--><g id="link_SewerOverflowIndicationComponent_Sewers"><path codeLine="75" d="M959.82,342.71 C1211.47,342.71 1652.33,342.71 1652.33,342.71 C1652.33,342.71 1652.33,458.97 1652.33,524.63 " fill="none" id="SewerOverflowIndicationComponent-to-Sewers" style="stroke:#181818;stroke-width:1.0;"/><polygon fill="#181818" points="1652.33,530.63,1656.33,521.63,1652.33,525.63,1648.33,521.63,1652.33,530.63" style="stroke:#181818;stroke-width:1.0;"/></g><!--link SewerOverflowIndicationComponent to RainIndicationComponent--><g id="link_SewerOverflowIndicationComponent_RainIndicationComponent"><path codeLine="76" d="M890.5,354.36 C890.5,412.08 890.5,488.02 890.5,532.84 " fill="none" id="SewerOverflowIndicationComponent-to-RainIndicationComponent" style="stroke:#181818;stroke-width:1.0;"/><polygon fill="#181818" points="890.5,538.84,894.5,529.84,890.5,533.84,886.5,529.84,890.5,538.84" style="stroke:#181818;stroke-width:1.0;"/></g><!--link SewerOverflowIndicationComponent to PumpIndicationComponent--><g id="link_SewerOverflowIndicationComponent_PumpIndicationComponent"><path codeLine="77" d="M702.5,354.36 C702.5,412.08 702.5,488.02 702.5,532.84 " fill="none" id="SewerOverflowIndicationComponent-to-PumpIndicationComponent" style="stroke:#181818;stroke-width:1.0;"/><polygon fill="#181818" points="702.5,538.84,706.5,529.84,702.5,533.84,698.5,529.84,702.5,538.84" style="stroke:#181818;stroke-width:1.0;"/></g><!--link SewerOverflowIndicationComponent to FlowIndicationComponent--><g id="link_SewerOverflowIndicationComponent_FlowIndicationComponent"><path codeLine="78" d="M618.3,289.71 C457.14,289.71 240,289.71 240,289.71 C240,289.71 240,458.55 240,532.66 " fill="none" id="SewerOverflowIndicationComponent-to-FlowIndicationComponent" style="stroke:#181818;stroke-width:1.0;"/><polygon fill="#181818" points="240,538.66,244,529.66,240,533.66,236,529.66,240,538.66" style="stroke:#181818;stroke-width:1.0;"/></g><!--link SewerObservationService to SewerObservationComponent--><g id="link_SewerObservationService_SewerObservationComponent"><path codeLine="79" d="M1669,165.09 C1669,190.58 1669,217.27 1669,242.72 " fill="none" id="SewerObservationService-to-SewerObservationComponent" style="stroke:#181818;stroke-width:1.0;"/><polygon fill="#181818" points="1669,248.72,1673,239.72,1669,243.72,1665,239.72,1669,248.72" style="stroke:#181818;stroke-width:1.0;"/></g><!--link SewerObservationComponent to Sewers--><g id="link_SewerObservationComponent_Sewers"><path codeLine="80" d="M1720.67,330.02 C1720.67,383.54 1720.67,471.04 1720.67,524.55 " fill="none" id="SewerObservationComponent-to-Sewers" style="stroke:#181818;stroke-width:1.0;"/><polygon fill="#181818" points="1720.67,530.55,1724.67,521.55,1720.67,525.55,1716.67,521.55,1720.67,530.55" style="stroke:#181818;stroke-width:1.0;"/></g><!--link Sewer to Problem--><g id="link_Sewer_Problem"><path codeLine="81" d="M1548.65,619.71 C1564.92,619.71 1576,619.71 1576,619.71 C1576,619.71 1576,682.71 1576,728.8 " fill="none" id="Sewer-to-Problem" style="stroke:#181818;stroke-width:1.0;"/><polygon fill="#181818" points="1576,734.8,1580,725.8,1576,729.8,1572,725.8,1576,734.8" style="stroke:#181818;stroke-width:1.0;"/></g><!--link Sewer to KeyPerformanceIndicator--><g id="link_Sewer_KeyPerformanceIndicator"><path codeLine="82" d="M1400.75,628.06 C1400.75,658.96 1400.75,690.78 1400.75,720.35 " fill="none" id="Sewer-to-KeyPerformanceIndicator" style="stroke:#181818;stroke-width:1.0;"/><polygon fill="#181818" points="1400.75,726.35,1404.75,717.35,1400.75,721.35,1396.75,717.35,1400.75,726.35" style="stroke:#181818;stroke-width:1.0;"/></g><!--SRC=[tLTHRzem47xFh_322zE6DKrxMAMAFNIgL4rRqL2VgqjoeHw97Tcc7QhuxtFY00dWbXRYhds1uDpTTz_PT_vuLqYOv41c2Y-uHfbZma3Z2E8fJ52H53A5WPeoNe24d6ICevuNI8JKDo9GD-AEAEE7ebmD2kj74ibkKIe2YYH8Ov4NmEUqa49NTbJX7KgwjEgfwJpAPaZk5wi8a42Xzmv1L-Qzhv_JDFhI36MuNSUWyAcnwDgnbwOdS7BIZ8fSCyqE24fN4Nffd2RHfsRqICnu0d9-U7JAUC9YiwTq5RENiRnLx5XmBKNM1HXTnku92No27P4KaK9vwuVZ9fOdYjRI1y4sqaFqAfTvPv2qZjzjWrZBQS4y5hU9vh70ks1z5jbuHXdc7WkzYUYns2xe7GKFuWoK8k6uTBmqyTDCt5tOMSe47vjvms8CEndG3sEI-u2GWSFcp2GYk8bDr6u3utjzRJu-t0gMa6fizdz2SJhMal79HsA_X- -3nR82vxi1mYxl9ke0hRZRrF4lnZFTJlwRMTN84qKkepyOwoQDqImllDDmW1v0upSmxfs60_G06eyTtsxvFDeywnPJjf5KkU0gWsojbvQkuxlLYmFN2IbQw-skVLwnAurqxE6rfRmSMCsXjNwvEQtMRrQ4nwXFAxTXFQmiuGVO7VKCkPGbTLFPUNQso2ptS4s7bV_sKZ2rifHKU7mLLwTLzIsvXqXf2R5UDFAg2VUlhYw-lzymgmxViglwbSFcFeHTAqzBmHQvp96mf7pyWVEHgPwGEV0OwyOHaXXvPRT3duxivJyajGfGcrUXhYrKlsdUOEW02Ns8GUfYQ8zRTOggeJ4I9jAPuCeyBuTC_RgSFkNFNxCyCZKinrOAMTQu8otdq9VWeZLWYuH4K3RjEa-nBM8MWM_HDHWCN-u-2bxk9Zm2xvqpw7LJUh9KUgjq7VBbhT8zxwO_zrPHHo3tT4KJ-DTG_-lKsKUQ72ttFI_FLyNf6Ghd7m00]--></g></svg>