<svg xmlns="http://www.w3.org/2000/svg" xmlns:xlink="http://www.w3.org/1999/xlink" contentStyleType="text/css" height="739px" preserveAspectRatio="none" style="width:1875px;height:739px;background:#FFFFFF;" version="1.1" viewBox="0 0 1875 739" width="1875px" zoomAndPan="magnify"><defs/><g><!--cluster entities--><g id="cluster_entities"><path d="M8.5,6 L530.5,6 A3.75,3.75 0 0 1 533,8.5 L540,28.2969 L1865.5,28.2969 A2.5,2.5 0 0 1 1868,30.7969 L1868,730.39 A2.5,2.5 0 0 1 1865.5,732.89 L8.5,732.89 A2.5,2.5 0 0 1 6,730.39 L6,8.5 A2.5,2.5 0 0 1 8.5,6 " fill="#FCFDB0" style="stroke:#000000;stroke-width:1.5;"/><line style="stroke:#000000;stroke-width:1.5;" x1="6" x2="540" y1="28.2969" y2="28.2969"/><text fill="#000000" font-family="sans-serif" font-size="14" font-weight="bold" lengthAdjust="spacing" textLength="521" x="10" y="20.9951">de.company.prototype.sewer.drivers.adapters.use_cases.entities</text></g><!--cluster boundary--><g id="cluster_boundary"><path d="M32.5,49 L175.5,49 A3.75,3.75 0 0 1 178,51.5 L185,71.2969 L1199.5,71.2969 A2.5,2.5 0 0 1 1202,73.7969 L1202,559.39 A2.5,2.5 0 0 1 1199.5,561.89 L32.5,561.89 A2.5,2.5 0 0 1 30,559.39 L30,51.5 A2.5,2.5 0 0 1 32.5,49 " fill="#00FF00" style="stroke:#000000;stroke-width:1.5;"/><line style="stroke:#000000;stroke-width:1.5;" x1="30" x2="185" y1="71.2969" y2="71.2969"/><text fill="#000000" font-family="sans-serif" font-size="14" font-weight="bold" lengthAdjust="spacing" textLength="142" x="34" y="63.9951">indicate.boundary</text></g><!--cluster control--><g id="cluster_control"><path d="M56.5,173.3 L113.5,173.3 A3.75,3.75 0 0 1 116,175.8 L123,195.5969 L1175.5,195.5969 A2.5,2.5 0 0 1 1178,198.0969 L1178,535.39 A2.5,2.5 0 0 1 1175.5,537.89 L56.5,537.89 A2.5,2.5 0 0 1 54,535.39 L54,175.8 A2.5,2.5 0 0 1 56.5,173.3 " fill="#FFA500" style="stroke:#000000;stroke-width:1.5;"/><line style="stroke:#000000;stroke-width:1.5;" x1="54" x2="123" y1="195.5969" y2="195.5969"/><text fill="#000000" font-family="sans-serif" font-size="14" font-weight="bold" lengthAdjust="spacing" textLength="56" x="58" y="188.2951">control</text></g><!--cluster boundary--><g id="cluster_boundary"><path d="M1526.5,49 L1672.5,49 A3.75,3.75 0 0 1 1675,51.5 L1682,71.2969 L1841.5,71.2969 A2.5,2.5 0 0 1 1844,73.7969 L1844,310.09 A2.5,2.5 0 0 1 1841.5,312.59 L1526.5,312.59 A2.5,2.5 0 0 1 1524,310.09 L1524,51.5 A2.5,2.5 0 0 1 1526.5,49 " fill="#00FF00" style="stroke:#000000;stroke-width:1.5;"/><line style="stroke:#000000;stroke-width:1.5;" x1="1524" x2="1682" y1="71.2969" y2="71.2969"/><text fill="#000000" font-family="sans-serif" font-size="14" font-weight="bold" lengthAdjust="spacing" textLength="145" x="1528" y="63.9951">observe.boundary</text></g><!--cluster control--><g id="cluster_control"><path d="M1550.5,173.3 L1607.5,173.3 A3.75,3.75 0 0 1 1610,175.8 L1617,195.5969 L1817.5,195.5969 A2.5,2.5 0 0 1 1820,198.0969 L1820,286.09 A2.5,2.5 0 0 1 1817.5,288.59 L1550.5,288.59 A2.5,2.5 0 0 1 1548,286.09 L1548,175.8 A2.5,2.5 0 0 1 1550.5,173.3 " fill="#FFA500" style="stroke:#000000;stroke-width:1.5;"/><line style="stroke:#000000;stroke-width:1.5;" x1="1548" x2="1617" y1="195.5969" y2="195.5969"/><text fill="#000000" font-family="sans-serif" font-size="14" font-weight="bold" lengthAdjust="spacing" textLength="56" x="1552" y="188.2951">control</text></g><!--cluster sewer--><g id="cluster_sewer"><path d="M1228.5,336.59 L1279.5,336.59 A3.75,3.75 0 0 1 1282,339.09 L1289,358.8869 L1841.5,358.8869 A2.5,2.5 0 0 1 1844,361.3869 L1844,706.39 A2.5,2.5 0 0 1 1841.5,708.89 L1228.5,708.89 A2.5,2.5 0 0 1 1226,706.39 L1226,339.09 A2.5,2.5 0 0 1 1228.5,336.59 " fill="none" style="stroke:#000000;stroke-width:1.5;"/><line style="stroke:#000000;stroke-width:1.5;" x1="1226" x2="1289" y1="358.8869" y2="358.8869"/><text fill="#000000" font-family="sans-serif" font-size="14" font-weight="bold" lengthAdjust="spacing" textLength="50" x="1230" y="351.5851">sewer</text></g><!--cluster boundary--><g id="cluster_boundary"><path d="M1252.5,379.59 L1328.5,379.59 A3.75,3.75 0 0 1 1331,382.09 L1338,401.8869 L1817.5,401.8869 A2.5,2.5 0 0 1 1820,404.3869 L1820,559.39 A2.5,2.5 0 0 1 1817.5,561.89 L1252.5,561.89 A2.5,2.5 0 0 1 1250,559.39 L1250,382.09 A2.5,2.5 0 0 1 1252.5,379.59 " fill="#00FF00" style="stroke:#000000;stroke-width:1.5;"/><line style="stroke:#000000;stroke-width:1.5;" x1="1250" x2="1338" y1="401.8869" y2="401.8869"/><text fill="#000000" font-family="sans-serif" font-size="14" font-weight="bold" lengthAdjust="spacing" textLength="75" x="1254" y="394.5851">boundary</text></g><!--cluster entity--><g id="cluster_entity"><path d="M1276.5,422.59 L1383.5,422.59 A3.75,3.75 0 0 1 1386,425.09 L1393,444.8869 L1561.5,444.8869 A2.5,2.5 0 0 1 1564,447.3869 L1564,535.39 A2.5,2.5 0 0 1 1561.5,537.89 L1276.5,537.89 A2.5,2.5 0 0 1 1274,535.39 L1274,425.09 A2.5,2.5 0 0 1 1276.5,422.59 " fill="#FCFDB0" style="stroke:#000000;stroke-width:1.5;"/><line style="stroke:#000000;stroke-width:1.5;" x1="1274" x2="1393" y1="444.8869" y2="444.8869"/><text fill="#000000" font-family="sans-serif" font-size="14" font-weight="bold" lengthAdjust="spacing" textLength="106" x="1278" y="437.5851">control.entity</text></g><!--cluster entity--><g id="cluster_entity"><path d="M1271.5,585.89 L1486.5,585.89 A3.75,3.75 0 0 1 1489,588.39 L1496,608.1869 L1502.5,608.1869 A2.5,2.5 0 0 1 1505,610.6869 L1505,682.39 A2.5,2.5 0 0 1 1502.5,684.89 L1271.5,684.89 A2.5,2.5 0 0 1 1269,682.39 L1269,588.39 A2.5,2.5 0 0 1 1271.5,585.89 " fill="#FCFDB0" style="stroke:#000000;stroke-width:1.5;"/><line style="stroke:#000000;stroke-width:1.5;" x1="1269" x2="1496" y1="608.1869" y2="608.1869"/><text fill="#000000" font-family="sans-serif" font-size="14" font-weight="bold" lengthAdjust="spacing" textLength="214" x="1273" y="600.8851">kpi.boundary.control.entity</text></g><!--cluster entity--><g id="cluster_entity"><path d="M1531.5,585.89 L1788.5,585.89 A3.75,3.75 0 0 1 1791,588.39 L1798,608.1869 L1798.5,608.1869 A2.5,2.5 0 0 1 1801,610.6869 L1801,682.39 A2.5,2.5 0 0 1 1798.5,684.89 L1531.5,684.89 A2.5,2.5 0 0 1 1529,682.39 L1529,588.39 A2.5,2.5 0 0 1 1531.5,585.89 " fill="#FCFDB0" style="stroke:#000000;stroke-width:1.5;"/><line style="stroke:#000000;stroke-width:1.5;" x1="1529" x2="1798" y1="608.1869" y2="608.1869"/><text fill="#000000" font-family="sans-serif" font-size="14" font-weight="bold" lengthAdjust="spacing" textLength="256" x="1533" y="600.8851">problem.boundary.control.entity</text></g><!--class SewerOverflowIndicationService--><g id="elem_SewerOverflowIndicationService"><rect codeLine="22" fill="#F1F1F1" height="64.2969" id="SewerOverflowIndicationService" rx="2.5" ry="2.5" style="stroke:#181818;stroke-width:0.5;" width="250" x="679" y="84"/><ellipse cx="694" cy="100" fill="#ADD1B2" rx="11" ry="11" style="stroke:#181818;stroke-width:1.0;"/><path d="M696.9688,105.6406 Q696.3906,105.9375 695.75,106.0781 Q695.1094,106.2344 694.4063,106.2344 Q691.9063,106.2344 690.5781,104.5938 Q689.2656,102.9375 689.2656,99.8125 Q689.2656,96.6875 690.5781,95.0313 Q691.9063,93.375 694.4063,93.375 Q695.1094,93.375 695.75,93.5313 Q696.4063,93.6875 696.9688,93.9844 L696.9688,96.7031 Q696.3438,96.125 695.75,95.8594 Q695.1563,95.5781 694.5313,95.5781 Q693.1875,95.5781 692.5,96.6563 Q691.8125,97.7188 691.8125,99.8125 Q691.8125,101.9063 692.5,102.9844 Q693.1875,104.0469 694.5313,104.0469 Q695.1563,104.0469 695.75,103.7813 Q696.3438,103.5 696.9688,102.9219 L696.9688,105.6406 Z " fill="#000000"/><text fill="#000000" font-family="sans-serif" font-size="14" lengthAdjust="spacing" textLength="218" x="708" y="104.8467">SewerOverflowIndicationService</text><line style="stroke:#181818;stroke-width:0.5;" x1="680" x2="928" y1="116" y2="116"/><line style="stroke:#181818;stroke-width:0.5;" x1="680" x2="928" y1="124" y2="124"/><ellipse cx="690" cy="137.6484" fill="#84BE84" rx="3" ry="3" style="stroke:#038048;stroke-width:1.0;"/><text fill="#000000" font-family="sans-serif" font-size="14" lengthAdjust="spacing" textLength="221" x="699" y="140.9951">void serve(Map&lt;String, String&gt;)</text></g><!--class FlowIndicationComponent--><g id="elem_FlowIndicationComponent"><rect codeLine="25" fill="#F1F1F1" height="64.2969" id="FlowIndicationComponent" rx="2.5" ry="2.5" style="stroke:#181818;stroke-width:0.5;" width="341" x="69.5" y="457.59"/><ellipse cx="146.25" cy="473.59" fill="#ADD1B2" rx="11" ry="11" style="stroke:#181818;stroke-width:1.0;"/><path d="M149.2188,479.2306 Q148.6406,479.5275 148,479.6681 Q147.3594,479.8244 146.6563,479.8244 Q144.1563,479.8244 142.8281,478.1838 Q141.5156,476.5275 141.5156,473.4025 Q141.5156,470.2775 142.8281,468.6213 Q144.1563,466.965 146.6563,466.965 Q147.3594,466.965 148,467.1213 Q148.6563,467.2775 149.2188,467.5744 L149.2188,470.2931 Q148.5938,469.715 148,469.4494 Q147.4063,469.1681 146.7813,469.1681 Q145.4375,469.1681 144.75,470.2463 Q144.0625,471.3088 144.0625,473.4025 Q144.0625,475.4963 144.75,476.5744 Q145.4375,477.6369 146.7813,477.6369 Q147.4063,477.6369 148,477.3713 Q148.5938,477.09 149.2188,476.5119 L149.2188,479.2306 Z " fill="#000000"/><text fill="#000000" font-family="sans-serif" font-size="14" lengthAdjust="spacing" textLength="179" x="166.75" y="478.4367">FlowIndicationComponent</text><line style="stroke:#181818;stroke-width:0.5;" x1="70.5" x2="409.5" y1="489.59" y2="489.59"/><line style="stroke:#181818;stroke-width:0.5;" x1="70.5" x2="409.5" y1="497.59" y2="497.59"/><ellipse cx="80.5" cy="511.2384" fill="#84BE84" rx="3" ry="3" style="stroke:#038048;stroke-width:1.0;"/><text fill="#000000" font-family="sans-serif" font-size="14" lengthAdjust="spacing" textLength="315" x="89.5" y="514.5851">void execute(Map&lt;String, ? extends Object&gt;)</text></g><!--class PumpIndicationComponent--><g id="elem_PumpIndicationComponent"><rect codeLine="28" fill="#F1F1F1" height="64.2969" id="PumpIndicationComponent" rx="2.5" ry="2.5" style="stroke:#181818;stroke-width:0.5;" width="341" x="445.5" y="457.59"/><ellipse cx="517.75" cy="473.59" fill="#ADD1B2" rx="11" ry="11" style="stroke:#181818;stroke-width:1.0;"/><path d="M520.7188,479.2306 Q520.1406,479.5275 519.5,479.6681 Q518.8594,479.8244 518.1563,479.8244 Q515.6563,479.8244 514.3281,478.1838 Q513.0156,476.5275 513.0156,473.4025 Q513.0156,470.2775 514.3281,468.6213 Q515.6563,466.965 518.1563,466.965 Q518.8594,466.965 519.5,467.1213 Q520.1563,467.2775 520.7188,467.5744 L520.7188,470.2931 Q520.0938,469.715 519.5,469.4494 Q518.9063,469.1681 518.2813,469.1681 Q516.9375,469.1681 516.25,470.2463 Q515.5625,471.3088 515.5625,473.4025 Q515.5625,475.4963 516.25,476.5744 Q516.9375,477.6369 518.2813,477.6369 Q518.9063,477.6369 519.5,477.3713 Q520.0938,477.09 520.7188,476.5119 L520.7188,479.2306 Z " fill="#000000"/><text fill="#000000" font-family="sans-serif" font-size="14" lengthAdjust="spacing" textLength="188" x="538.25" y="478.4367">PumpIndicationComponent</text><line style="stroke:#181818;stroke-width:0.5;" x1="446.5" x2="785.5" y1="489.59" y2="489.59"/><line style="stroke:#181818;stroke-width:0.5;" x1="446.5" x2="785.5" y1="497.59" y2="497.59"/><ellipse cx="456.5" cy="511.2384" fill="#84BE84" rx="3" ry="3" style="stroke:#038048;stroke-width:1.0;"/><text fill="#000000" font-family="sans-serif" font-size="14" lengthAdjust="spacing" textLength="315" x="465.5" y="514.5851">void execute(Map&lt;String, ? extends Object&gt;)</text></g><!--class RainIndicationComponent--><g id="elem_RainIndicationComponent"><rect codeLine="31" fill="#F1F1F1" height="64.2969" id="RainIndicationComponent" rx="2.5" ry="2.5" style="stroke:#181818;stroke-width:0.5;" width="341" x="821.5" y="457.59"/><ellipse cx="898.75" cy="473.59" fill="#ADD1B2" rx="11" ry="11" style="stroke:#181818;stroke-width:1.0;"/><path d="M901.7188,479.2306 Q901.1406,479.5275 900.5,479.6681 Q899.8594,479.8244 899.1563,479.8244 Q896.6563,479.8244 895.3281,478.1838 Q894.0156,476.5275 894.0156,473.4025 Q894.0156,470.2775 895.3281,468.6213 Q896.6563,466.965 899.1563,466.965 Q899.8594,466.965 900.5,467.1213 Q901.1563,467.2775 901.7188,467.5744 L901.7188,470.2931 Q901.0938,469.715 900.5,469.4494 Q899.9063,469.1681 899.2813,469.1681 Q897.9375,469.1681 897.25,470.2463 Q896.5625,471.3088 896.5625,473.4025 Q896.5625,475.4963 897.25,476.5744 Q897.9375,477.6369 899.2813,477.6369 Q899.9063,477.6369 900.5,477.3713 Q901.0938,477.09 901.7188,476.5119 L901.7188,479.2306 Z " fill="#000000"/><text fill="#000000" font-family="sans-serif" font-size="14" lengthAdjust="spacing" textLength="178" x="919.25" y="478.4367">RainIndicationComponent</text><line style="stroke:#181818;stroke-width:0.5;" x1="822.5" x2="1161.5" y1="489.59" y2="489.59"/><line style="stroke:#181818;stroke-width:0.5;" x1="822.5" x2="1161.5" y1="497.59" y2="497.59"/><ellipse cx="832.5" cy="511.2384" fill="#84BE84" rx="3" ry="3" style="stroke:#038048;stroke-width:1.0;"/><text fill="#000000" font-family="sans-serif" font-size="14" lengthAdjust="spacing" textLength="315" x="841.5" y="514.5851">void execute(Map&lt;String, ? extends Object&gt;)</text></g><!--class SewerOverflowIndicationComponent--><g id="elem_SewerOverflowIndicationComponent"><rect codeLine="34" fill="#F1F1F1" height="64.2969" id="SewerOverflowIndicationComponent" rx="2.5" ry="2.5" style="stroke:#181818;stroke-width:0.5;" width="341" x="633.5" y="208.3"/><ellipse cx="675.05" cy="224.3" fill="#ADD1B2" rx="11" ry="11" style="stroke:#181818;stroke-width:1.0;"/><path d="M678.0188,229.9406 Q677.4406,230.2375 676.8,230.3781 Q676.1594,230.5344 675.4563,230.5344 Q672.9563,230.5344 671.6281,228.8937 Q670.3156,227.2375 670.3156,224.1125 Q670.3156,220.9875 671.6281,219.3312 Q672.9563,217.675 675.4563,217.675 Q676.1594,217.675 676.8,217.8312 Q677.4563,217.9875 678.0188,218.2844 L678.0188,221.0031 Q677.3938,220.425 676.8,220.1594 Q676.2063,219.8781 675.5813,219.8781 Q674.2375,219.8781 673.55,220.9562 Q672.8625,222.0187 672.8625,224.1125 Q672.8625,226.2062 673.55,227.2844 Q674.2375,228.3469 675.5813,228.3469 Q676.2063,228.3469 676.8,228.0812 Q677.3938,227.8 678.0188,227.2219 L678.0188,229.9406 Z " fill="#000000"/><text fill="#000000" font-family="sans-serif" font-size="14" lengthAdjust="spacing" textLength="250" x="694.95" y="229.1467">SewerOverflowIndicationComponent</text><line style="stroke:#181818;stroke-width:0.5;" x1="634.5" x2="973.5" y1="240.3" y2="240.3"/><line style="stroke:#181818;stroke-width:0.5;" x1="634.5" x2="973.5" y1="248.3" y2="248.3"/><ellipse cx="644.5" cy="261.9484" fill="#84BE84" rx="3" ry="3" style="stroke:#038048;stroke-width:1.0;"/><text fill="#000000" font-family="sans-serif" font-size="14" lengthAdjust="spacing" textLength="315" x="653.5" y="265.2951">void execute(Map&lt;String, ? extends Object&gt;)</text></g><!--class SewerObservationService--><g id="elem_SewerObservationService"><rect codeLine="37" fill="#F1F1F1" height="64.2969" id="SewerObservationService" rx="2.5" ry="2.5" style="stroke:#181818;stroke-width:0.5;" width="208" x="1580" y="84"/><ellipse cx="1595" cy="100" fill="#ADD1B2" rx="11" ry="11" style="stroke:#181818;stroke-width:1.0;"/><path d="M1597.9688,105.6406 Q1597.3906,105.9375 1596.75,106.0781 Q1596.1094,106.2344 1595.4063,106.2344 Q1592.9063,106.2344 1591.5781,104.5938 Q1590.2656,102.9375 1590.2656,99.8125 Q1590.2656,96.6875 1591.5781,95.0313 Q1592.9063,93.375 1595.4063,93.375 Q1596.1094,93.375 1596.75,93.5313 Q1597.4063,93.6875 1597.9688,93.9844 L1597.9688,96.7031 Q1597.3438,96.125 1596.75,95.8594 Q1596.1563,95.5781 1595.5313,95.5781 Q1594.1875,95.5781 1593.5,96.6563 Q1592.8125,97.7188 1592.8125,99.8125 Q1592.8125,101.9063 1593.5,102.9844 Q1594.1875,104.0469 1595.5313,104.0469 Q1596.1563,104.0469 1596.75,103.7813 Q1597.3438,103.5 1597.9688,102.9219 L1597.9688,105.6406 Z " fill="#000000"/><text fill="#000000" font-family="sans-serif" font-size="14" lengthAdjust="spacing" textLength="176" x="1609" y="104.8467">SewerObservationService</text><line style="stroke:#181818;stroke-width:0.5;" x1="1581" x2="1787" y1="116" y2="116"/><line style="stroke:#181818;stroke-width:0.5;" x1="1581" x2="1787" y1="124" y2="124"/><ellipse cx="1591" cy="137.6484" fill="#84BE84" rx="3" ry="3" style="stroke:#038048;stroke-width:1.0;"/><text fill="#000000" font-family="sans-serif" font-size="14" lengthAdjust="spacing" textLength="182" x="1600" y="140.9951">Set&lt;Sewer&gt; serve(String)</text></g><!--class SewerObservationComponent--><g id="elem_SewerObservationComponent"><rect codeLine="40" fill="#F1F1F1" height="64.2969" id="SewerObservationComponent" rx="2.5" ry="2.5" style="stroke:#181818;stroke-width:0.5;" width="240" x="1564" y="208.3"/><ellipse cx="1579" cy="224.3" fill="#ADD1B2" rx="11" ry="11" style="stroke:#181818;stroke-width:1.0;"/><path d="M1581.9688,229.9406 Q1581.3906,230.2375 1580.75,230.3781 Q1580.1094,230.5344 1579.4063,230.5344 Q1576.9063,230.5344 1575.5781,228.8937 Q1574.2656,227.2375 1574.2656,224.1125 Q1574.2656,220.9875 1575.5781,219.3312 Q1576.9063,217.675 1579.4063,217.675 Q1580.1094,217.675 1580.75,217.8312 Q1581.4063,217.9875 1581.9688,218.2844 L1581.9688,221.0031 Q1581.3438,220.425 1580.75,220.1594 Q1580.1563,219.8781 1579.5313,219.8781 Q1578.1875,219.8781 1577.5,220.9562 Q1576.8125,222.0187 1576.8125,224.1125 Q1576.8125,226.2062 1577.5,227.2844 Q1578.1875,228.3469 1579.5313,228.3469 Q1580.1563,228.3469 1580.75,228.0812 Q1581.3438,227.8 1581.9688,227.2219 L1581.9688,229.9406 Z " fill="#000000"/><text fill="#000000" font-family="sans-serif" font-size="14" lengthAdjust="spacing" textLength="208" x="1593" y="229.1467">SewerObservationComponent</text><line style="stroke:#181818;stroke-width:0.5;" x1="1565" x2="1803" y1="240.3" y2="240.3"/><line style="stroke:#181818;stroke-width:0.5;" x1="1565" x2="1803" y1="248.3" y2="248.3"/><ellipse cx="1575" cy="261.9484" fill="#84BE84" rx="3" ry="3" style="stroke:#038048;stroke-width:1.0;"/><text fill="#000000" font-family="sans-serif" font-size="14" lengthAdjust="spacing" textLength="200" x="1584" y="265.2951">Set&lt;Sewer&gt; execute(String)</text></g><!--class Sewers--><g id="elem_Sewers"><rect codeLine="43" fill="#F1F1F1" height="80.5938" id="Sewers" rx="2.5" ry="2.5" style="stroke:#181818;stroke-width:0.5;" width="220" x="1584" y="449.44"/><ellipse cx="1664.25" cy="465.44" fill="#B4A7E5" rx="11" ry="11" style="stroke:#181818;stroke-width:1.0;"/><path d="M1660.1719,461.2056 L1660.1719,459.0494 L1667.5625,459.0494 L1667.5625,461.2056 L1665.0938,461.2056 L1665.0938,469.2838 L1667.5625,469.2838 L1667.5625,471.44 L1660.1719,471.44 L1660.1719,469.2838 L1662.6406,469.2838 L1662.6406,461.2056 L1660.1719,461.2056 Z " fill="#000000"/><text fill="#000000" font-family="sans-serif" font-size="14" font-style="italic" lengthAdjust="spacing" textLength="51" x="1684.75" y="470.2867">Sewers</text><line style="stroke:#181818;stroke-width:0.5;" x1="1585" x2="1803" y1="481.44" y2="481.44"/><line style="stroke:#181818;stroke-width:0.5;" x1="1585" x2="1803" y1="489.44" y2="489.44"/><ellipse cx="1595" cy="503.0884" fill="#84BE84" rx="3" ry="3" style="stroke:#038048;stroke-width:1.0;"/><text fill="#000000" font-family="sans-serif" font-size="14" font-style="italic" lengthAdjust="spacing" textLength="194" x="1604" y="506.4351">Set&lt;Sewer&gt; observe(UUID)</text><ellipse cx="1595" cy="519.3853" fill="#84BE84" rx="3" ry="3" style="stroke:#038048;stroke-width:1.0;"/><text fill="#000000" font-family="sans-serif" font-size="14" font-style="italic" lengthAdjust="spacing" textLength="139" x="1604" y="522.732">void indicate(Sewer)</text></g><!--class Sewer--><g id="elem_Sewer"><rect codeLine="47" fill="#F1F1F1" height="64.2969" id="Sewer" rx="2.5" ry="2.5" style="stroke:#181818;stroke-width:0.5;" width="259" x="1289.5" y="457.59"/><ellipse cx="1393.25" cy="473.59" fill="#ADD1B2" rx="11" ry="11" style="stroke:#181818;stroke-width:1.0;"/><path d="M1396.2188,479.2306 Q1395.6406,479.5275 1395,479.6681 Q1394.3594,479.8244 1393.6563,479.8244 Q1391.1563,479.8244 1389.8281,478.1838 Q1388.5156,476.5275 1388.5156,473.4025 Q1388.5156,470.2775 1389.8281,468.6213 Q1391.1563,466.965 1393.6563,466.965 Q1394.3594,466.965 1395,467.1213 Q1395.6563,467.2775 1396.2188,467.5744 L1396.2188,470.2931 Q1395.5938,469.715 1395,469.4494 Q1394.4063,469.1681 1393.7813,469.1681 Q1392.4375,469.1681 1391.75,470.2463 Q1391.0625,471.3088 1391.0625,473.4025 Q1391.0625,475.4963 1391.75,476.5744 Q1392.4375,477.6369 1393.7813,477.6369 Q1394.4063,477.6369 1395,477.3713 Q1395.5938,477.09 1396.2188,476.5119 L1396.2188,479.2306 Z " fill="#000000"/><text fill="#000000" font-family="sans-serif" font-size="14" lengthAdjust="spacing" textLength="43" x="1413.75" y="478.4367">Sewer</text><line style="stroke:#181818;stroke-width:0.5;" x1="1290.5" x2="1547.5" y1="489.59" y2="489.59"/><line style="stroke:#181818;stroke-width:0.5;" x1="1290.5" x2="1547.5" y1="497.59" y2="497.59"/><ellipse cx="1300.5" cy="511.2384" fill="#84BE84" rx="3" ry="3" style="stroke:#038048;stroke-width:1.0;"/><text fill="#000000" font-family="sans-serif" font-size="14" lengthAdjust="spacing" textLength="233" x="1309.5" y="514.5851">void setProblems(Set&lt;Problem&gt;)</text></g><!--class KeyPerformanceIndicator--><g id="elem_KeyPerformanceIndicator"><rect codeLine="50" fill="#F1F1F1" height="48" id="KeyPerformanceIndicator" rx="2.5" ry="2.5" style="stroke:#181818;stroke-width:0.5;" width="204" x="1285" y="620.89"/><ellipse cx="1300" cy="636.89" fill="#ADD1B2" rx="11" ry="11" style="stroke:#181818;stroke-width:1.0;"/><path d="M1302.9688,642.5306 Q1302.3906,642.8275 1301.75,642.9681 Q1301.1094,643.1244 1300.4063,643.1244 Q1297.9063,643.1244 1296.5781,641.4838 Q1295.2656,639.8275 1295.2656,636.7025 Q1295.2656,633.5775 1296.5781,631.9213 Q1297.9063,630.265 1300.4063,630.265 Q1301.1094,630.265 1301.75,630.4213 Q1302.4063,630.5775 1302.9688,630.8744 L1302.9688,633.5931 Q1302.3438,633.015 1301.75,632.7494 Q1301.1563,632.4681 1300.5313,632.4681 Q1299.1875,632.4681 1298.5,633.5463 Q1297.8125,634.6088 1297.8125,636.7025 Q1297.8125,638.7963 1298.5,639.8744 Q1299.1875,640.9369 1300.5313,640.9369 Q1301.1563,640.9369 1301.75,640.6713 Q1302.3438,640.39 1302.9688,639.8119 L1302.9688,642.5306 Z " fill="#000000"/><text fill="#000000" font-family="sans-serif" font-size="14" lengthAdjust="spacing" textLength="172" x="1314" y="641.7367">KeyPerformanceIndicator</text><line style="stroke:#181818;stroke-width:0.5;" x1="1286" x2="1488" y1="652.89" y2="652.89"/><line style="stroke:#181818;stroke-width:0.5;" x1="1286" x2="1488" y1="660.89" y2="660.89"/></g><!--class Problem--><g id="elem_Problem"><rect codeLine="52" fill="#F1F1F1" height="48" id="Problem" rx="2.5" ry="2.5" style="stroke:#181818;stroke-width:0.5;" width="89" x="1544.5" y="620.89"/><ellipse cx="1559.5" cy="636.89" fill="#ADD1B2" rx="11" ry="11" style="stroke:#181818;stroke-width:1.0;"/><path d="M1562.4688,642.5306 Q1561.8906,642.8275 1561.25,642.9681 Q1560.6094,643.1244 1559.9063,643.1244 Q1557.4063,643.1244 1556.0781,641.4838 Q1554.7656,639.8275 1554.7656,636.7025 Q1554.7656,633.5775 1556.0781,631.9213 Q1557.4063,630.265 1559.9063,630.265 Q1560.6094,630.265 1561.25,630.4213 Q1561.9063,630.5775 1562.4688,630.8744 L1562.4688,633.5931 Q1561.8438,633.015 1561.25,632.7494 Q1560.6563,632.4681 1560.0313,632.4681 Q1558.6875,632.4681 1558,633.5463 Q1557.3125,634.6088 1557.3125,636.7025 Q1557.3125,638.7963 1558,639.8744 Q1558.6875,640.9369 1560.0313,640.9369 Q1560.6563,640.9369 1561.25,640.6713 Q1561.8438,640.39 1562.4688,639.8119 L1562.4688,642.5306 Z " fill="#000000"/><text fill="#000000" font-family="sans-serif" font-size="14" lengthAdjust="spacing" textLength="57" x="1573.5" y="641.7367">Problem</text><line style="stroke:#181818;stroke-width:0.5;" x1="1545.5" x2="1632.5" y1="652.89" y2="652.89"/><line style="stroke:#181818;stroke-width:0.5;" x1="1545.5" x2="1632.5" y1="660.89" y2="660.89"/></g><!--link SewerOverflowIndicationService to SewerOverflowIndicationComponent--><g id="link_SewerOverflowIndicationService_SewerOverflowIndicationComponent"><path codeLine="54" d="M804,148.48 C804,166.75 804,183.53 804,201.84 " fill="none" id="SewerOverflowIndicationService-to-SewerOverflowIndicationComponent" style="stroke:#181818;stroke-width:1.0;"/><polygon fill="#181818" points="804,207.84,808,198.84,804,202.84,800,198.84,804,207.84" style="stroke:#181818;stroke-width:1.0;"/></g><!--link SewerOverflowIndicationComponent to Sewers--><g id="link_SewerOverflowIndicationComponent_Sewers"><path codeLine="55" d="M923.5,272.86 C923.5,332.57 923.5,453.89 923.5,453.89 C923.5,453.89 1364.56,453.89 1577.61,453.89 " fill="none" id="SewerOverflowIndicationComponent-to-Sewers" style="stroke:#181818;stroke-width:1.0;"/><polygon fill="#181818" points="1583.61,453.89,1574.61,449.89,1578.61,453.89,1574.61,457.89,1583.61,453.89" style="stroke:#181818;stroke-width:1.0;"/></g><!--link SewerOverflowIndicationComponent to RainIndicationComponent--><g id="link_SewerOverflowIndicationComponent_RainIndicationComponent"><path codeLine="56" d="M872.5,273.04 C872.5,320.81 872.5,403.36 872.5,451.14 " fill="none" id="SewerOverflowIndicationComponent-to-RainIndicationComponent" style="stroke:#181818;stroke-width:1.0;"/><polygon fill="#181818" points="872.5,457.14,876.5,448.14,872.5,452.14,868.5,448.14,872.5,457.14" style="stroke:#181818;stroke-width:1.0;"/></g><!--link SewerOverflowIndicationComponent to PumpIndicationComponent--><g id="link_SewerOverflowIndicationComponent_PumpIndicationComponent"><path codeLine="57" d="M710,273.04 C710,320.81 710,403.36 710,451.14 " fill="none" id="SewerOverflowIndicationComponent-to-PumpIndicationComponent" style="stroke:#181818;stroke-width:1.0;"/><polygon fill="#181818" points="710,457.14,714,448.14,710,452.14,706,448.14,710,457.14" style="stroke:#181818;stroke-width:1.0;"/></g><!--link SewerOverflowIndicationComponent to FlowIndicationComponent--><g id="link_SewerOverflowIndicationComponent_FlowIndicationComponent"><path codeLine="58" d="M633.25,240.89 C467.25,240.89 240,240.89 240,240.89 C240,240.89 240,383.75 240,451.21 " fill="none" id="SewerOverflowIndicationComponent-to-FlowIndicationComponent" style="stroke:#181818;stroke-width:1.0;"/><polygon fill="#181818" points="240,457.21,244,448.21,240,452.21,236,448.21,240,457.21" style="stroke:#181818;stroke-width:1.0;"/></g><!--link SewerObservationService to SewerObservationComponent--><g id="link_SewerObservationService_SewerObservationComponent"><path codeLine="59" d="M1684,148.48 C1684,166.75 1684,183.53 1684,201.84 " fill="none" id="SewerObservationService-to-SewerObservationComponent" style="stroke:#181818;stroke-width:1.0;"/><polygon fill="#181818" points="1684,207.84,1688,198.84,1684,202.84,1680,198.84,1684,207.84" style="stroke:#181818;stroke-width:1.0;"/></g><!--link SewerObservationComponent to Sewers--><g id="link_SewerObservationComponent_Sewers"><path codeLine="60" d="M1694,273.04 C1694,318.31 1694,394.18 1694,443.29 " fill="none" id="SewerObservationComponent-to-Sewers" style="stroke:#181818;stroke-width:1.0;"/><polygon fill="#181818" points="1694,449.29,1698,440.29,1694,444.29,1690,440.29,1694,449.29" style="stroke:#181818;stroke-width:1.0;"/></g><!--link Sewer to Problem--><g id="link_Sewer_Problem"><path codeLine="61" d="M1548.87,489.89 C1553.54,489.89 1556.25,489.89 1556.25,489.89 C1556.25,489.89 1556.25,571.08 1556.25,614.67 " fill="none" id="Sewer-to-Problem" style="stroke:#181818;stroke-width:1.0;"/><polygon fill="#181818" points="1556.25,620.67,1560.25,611.67,1556.25,615.67,1552.25,611.67,1556.25,620.67" style="stroke:#181818;stroke-width:1.0;"/></g><!--link Sewer to KeyPerformanceIndicator--><g id="link_Sewer_KeyPerformanceIndicator"><path codeLine="62" d="M1389.25,522.27 C1389.25,551.59 1389.25,588.05 1389.25,614.54 " fill="none" id="Sewer-to-KeyPerformanceIndicator" style="stroke:#181818;stroke-width:1.0;"/><polygon fill="#181818" points="1389.25,620.54,1393.25,611.54,1389.25,615.54,1385.25,611.54,1389.25,620.54" style="stroke:#181818;stroke-width:1.0;"/></g><!--SRC=[tLTVRzem47_Ff_2I5wgjrZJjOKWLUzXK2KrJqL2VfujpeHw97Ta65g5-zuKuGA24mKZSjKzHehlVdyE-Ezva2YOfa9d6eJ2eKemu61m1cy84DOaXqUZfAHSPA4X9mWMQF4CYbNcGddwG2wABF9IhhrvcyqYa-1oL9g19X9J9D0EHqqn9KyPHZGjKT1qLw6aU9ZCaoySD0aIGcPCXw2Oy-FGXZiEFTQZ2sqy66i_5ejl488xxqE_NKL4ORlW5e7I34CGiZiBtTVHGpaG4AhySdN8HSLRyfdI36IGytIasay8ecNH1HjVOWLGW9jYHIHbgL7Ct7lUv75cqaIuCxZ8TirUcv9rHqWg_smjY8wSPTrZSEfl30X-YTLda8ZDCC7LOw7r6XyLkeZvGS8ybe3Nnnwl4km8_JkHYQ7ifbs9Sz1lEqE-aGH_d94kFaBTpoIDIThtUTyXknaPnCNb7x7DmvJsk3TpkO7mfX4fHSFjTZXRQG5gJZh-HpSok-C_5LuCYqkGk_8NCr6sCPcdct4O3wGKsVW0Npcqqa5vWe-64ElBpD_QBZPNhHDlt_CcIqi1brO_Ht9G1W-gMM_L7fBPQ_AQDYZQoFf6zBlrME5_zducXi6Z5Qx_zFSK2Mp5a2Q4s2fXvhEcghFNkxuTVh_R2oZEpFdYzCc6_udxNkvMriDFbpSWEBjrR-QXUwiVs6-QZehHIfI0OLbT2jgZro9f26yWB1zlkRINxhYOvhGXB3Qxdy_NruFbwd_TyNRS5tmSlyyksTFPOVgrs6vQfrshtjflxUV8MqOAvyvS0p_tQyRzsdLDcV6lQJno7ByhJFwmSVm00]--></g></svg>