<svg xmlns="http://www.w3.org/2000/svg" xmlns:xlink="http://www.w3.org/1999/xlink" contentStyleType="text/css" height="837px" preserveAspectRatio="none" style="width:1917px;height:837px;background:#FFFFFF;" version="1.1" viewBox="0 0 1917 837" width="1917px" zoomAndPan="magnify"><defs/><g><!--cluster entities--><g id="cluster_entities"><path d="M8.5,6 L530.5,6 A3.75,3.75 0 0 1 533,8.5 L540,28.2969 L1907.5,28.2969 A2.5,2.5 0 0 1 1910,30.7969 L1910,828.17 A2.5,2.5 0 0 1 1907.5,830.67 L8.5,830.67 A2.5,2.5 0 0 1 6,828.17 L6,8.5 A2.5,2.5 0 0 1 8.5,6 " fill="#FCFDB0" style="stroke:#000000;stroke-width:1.5;"/><line style="stroke:#000000;stroke-width:1.5;" x1="6" x2="540" y1="28.2969" y2="28.2969"/><text fill="#000000" font-family="sans-serif" font-size="14" font-weight="bold" lengthAdjust="spacing" textLength="521" x="10" y="20.9951">de.company.prototype.sewer.drivers.adapters.use_cases.entities</text></g><!--cluster boundary--><g id="cluster_boundary"><path d="M32.5,49 L175.5,49 A3.75,3.75 0 0 1 178,51.5 L185,71.2969 L1199.5,71.2969 A2.5,2.5 0 0 1 1202,73.7969 L1202,583.83 A2.5,2.5 0 0 1 1199.5,586.33 L32.5,586.33 A2.5,2.5 0 0 1 30,583.83 L30,51.5 A2.5,2.5 0 0 1 32.5,49 " fill="#00FF00" style="stroke:#000000;stroke-width:1.5;"/><line style="stroke:#000000;stroke-width:1.5;" x1="30" x2="185" y1="71.2969" y2="71.2969"/><text fill="#000000" font-family="sans-serif" font-size="14" font-weight="bold" lengthAdjust="spacing" textLength="142" x="34" y="63.9951">indicate.boundary</text></g><!--cluster control--><g id="cluster_control"><path d="M56.5,173.29 L113.5,173.29 A3.75,3.75 0 0 1 116,175.79 L123,195.5869 L1175.5,195.5869 A2.5,2.5 0 0 1 1178,198.0869 L1178,559.83 A2.5,2.5 0 0 1 1175.5,562.33 L56.5,562.33 A2.5,2.5 0 0 1 54,559.83 L54,175.79 A2.5,2.5 0 0 1 56.5,173.29 " fill="#FFA500" style="stroke:#000000;stroke-width:1.5;"/><line style="stroke:#000000;stroke-width:1.5;" x1="54" x2="123" y1="195.5869" y2="195.5869"/><text fill="#000000" font-family="sans-serif" font-size="14" font-weight="bold" lengthAdjust="spacing" textLength="56" x="58" y="188.2851">control</text></g><!--cluster boundary--><g id="cluster_boundary"><path d="M1536.5,49 L1682.5,49 A3.75,3.75 0 0 1 1685,51.5 L1692,71.2969 L1851.5,71.2969 A2.5,2.5 0 0 1 1854,73.7969 L1854,310.09 A2.5,2.5 0 0 1 1851.5,312.59 L1536.5,312.59 A2.5,2.5 0 0 1 1534,310.09 L1534,51.5 A2.5,2.5 0 0 1 1536.5,49 " fill="#00FF00" style="stroke:#000000;stroke-width:1.5;"/><line style="stroke:#000000;stroke-width:1.5;" x1="1534" x2="1692" y1="71.2969" y2="71.2969"/><text fill="#000000" font-family="sans-serif" font-size="14" font-weight="bold" lengthAdjust="spacing" textLength="145" x="1538" y="63.9951">observe.boundary</text></g><!--cluster control--><g id="cluster_control"><path d="M1560.5,173.29 L1617.5,173.29 A3.75,3.75 0 0 1 1620,175.79 L1627,195.5869 L1827.5,195.5869 A2.5,2.5 0 0 1 1830,198.0869 L1830,286.09 A2.5,2.5 0 0 1 1827.5,288.59 L1560.5,288.59 A2.5,2.5 0 0 1 1558,286.09 L1558,175.79 A2.5,2.5 0 0 1 1560.5,173.29 " fill="#FFA500" style="stroke:#000000;stroke-width:1.5;"/><line style="stroke:#000000;stroke-width:1.5;" x1="1558" x2="1627" y1="195.5869" y2="195.5869"/><text fill="#000000" font-family="sans-serif" font-size="14" font-weight="bold" lengthAdjust="spacing" textLength="56" x="1562" y="188.2851">control</text></g><!--cluster sewer--><g id="cluster_sewer"><path d="M1228.5,336.59 L1279.5,336.59 A3.75,3.75 0 0 1 1282,339.09 L1289,358.8869 L1883.5,358.8869 A2.5,2.5 0 0 1 1886,361.3869 L1886,804.17 A2.5,2.5 0 0 1 1883.5,806.67 L1228.5,806.67 A2.5,2.5 0 0 1 1226,804.17 L1226,339.09 A2.5,2.5 0 0 1 1228.5,336.59 " fill="none" style="stroke:#000000;stroke-width:1.5;"/><line style="stroke:#000000;stroke-width:1.5;" x1="1226" x2="1289" y1="358.8869" y2="358.8869"/><text fill="#000000" font-family="sans-serif" font-size="14" font-weight="bold" lengthAdjust="spacing" textLength="50" x="1230" y="351.5851">sewer</text></g><!--cluster boundary--><g id="cluster_boundary"><path d="M1252.5,379.59 L1328.5,379.59 A3.75,3.75 0 0 1 1331,382.09 L1338,401.8869 L1817.5,401.8869 A2.5,2.5 0 0 1 1820,404.3869 L1820,608.28 A2.5,2.5 0 0 1 1817.5,610.78 L1252.5,610.78 A2.5,2.5 0 0 1 1250,608.28 L1250,382.09 A2.5,2.5 0 0 1 1252.5,379.59 " fill="#00FF00" style="stroke:#000000;stroke-width:1.5;"/><line style="stroke:#000000;stroke-width:1.5;" x1="1250" x2="1338" y1="401.8869" y2="401.8869"/><text fill="#000000" font-family="sans-serif" font-size="14" font-weight="bold" lengthAdjust="spacing" textLength="75" x="1254" y="394.5851">boundary</text></g><!--cluster entity--><g id="cluster_entity"><path d="M1276.5,422.59 L1383.5,422.59 A3.75,3.75 0 0 1 1386,425.09 L1393,444.8869 L1561.5,444.8869 A2.5,2.5 0 0 1 1564,447.3869 L1564,584.28 A2.5,2.5 0 0 1 1561.5,586.78 L1276.5,586.78 A2.5,2.5 0 0 1 1274,584.28 L1274,425.09 A2.5,2.5 0 0 1 1276.5,422.59 " fill="#FCFDB0" style="stroke:#000000;stroke-width:1.5;"/><line style="stroke:#000000;stroke-width:1.5;" x1="1274" x2="1393" y1="444.8869" y2="444.8869"/><text fill="#000000" font-family="sans-serif" font-size="14" font-weight="bold" lengthAdjust="spacing" textLength="106" x="1278" y="437.5851">control.entity</text></g><!--cluster entity--><g id="cluster_entity"><path d="M1252.5,634.78 L1467.5,634.78 A3.75,3.75 0 0 1 1470,637.28 L1477,657.0769 L1559.5,657.0769 A2.5,2.5 0 0 1 1562,659.5769 L1562,780.17 A2.5,2.5 0 0 1 1559.5,782.67 L1252.5,782.67 A2.5,2.5 0 0 1 1250,780.17 L1250,637.28 A2.5,2.5 0 0 1 1252.5,634.78 " fill="#FCFDB0" style="stroke:#000000;stroke-width:1.5;"/><line style="stroke:#000000;stroke-width:1.5;" x1="1250" x2="1477" y1="657.0769" y2="657.0769"/><text fill="#000000" font-family="sans-serif" font-size="14" font-weight="bold" lengthAdjust="spacing" textLength="214" x="1254" y="649.7751">kpi.boundary.control.entity</text></g><!--cluster entity--><g id="cluster_entity"><path d="M1588.5,642.93 L1845.5,642.93 A3.75,3.75 0 0 1 1848,645.43 L1855,665.2269 L1859.5,665.2269 A2.5,2.5 0 0 1 1862,667.7269 L1862,772.02 A2.5,2.5 0 0 1 1859.5,774.52 L1588.5,774.52 A2.5,2.5 0 0 1 1586,772.02 L1586,645.43 A2.5,2.5 0 0 1 1588.5,642.93 " fill="#FCFDB0" style="stroke:#000000;stroke-width:1.5;"/><line style="stroke:#000000;stroke-width:1.5;" x1="1586" x2="1855" y1="665.2269" y2="665.2269"/><text fill="#000000" font-family="sans-serif" font-size="14" font-weight="bold" lengthAdjust="spacing" textLength="256" x="1590" y="657.9251">problem.boundary.control.entity</text></g><!--class SewerOverflowIndicationService--><g id="elem_SewerOverflowIndicationService"><rect codeLine="22" fill="#F1F1F1" height="64.2969" id="SewerOverflowIndicationService" rx="2.5" ry="2.5" style="stroke:#181818;stroke-width:0.5;" width="250" x="679" y="84"/><ellipse cx="694" cy="100" fill="#ADD1B2" rx="11" ry="11" style="stroke:#181818;stroke-width:1.0;"/><path d="M696.9688,105.6406 Q696.3906,105.9375 695.75,106.0781 Q695.1094,106.2344 694.4063,106.2344 Q691.9063,106.2344 690.5781,104.5938 Q689.2656,102.9375 689.2656,99.8125 Q689.2656,96.6875 690.5781,95.0313 Q691.9063,93.375 694.4063,93.375 Q695.1094,93.375 695.75,93.5313 Q696.4063,93.6875 696.9688,93.9844 L696.9688,96.7031 Q696.3438,96.125 695.75,95.8594 Q695.1563,95.5781 694.5313,95.5781 Q693.1875,95.5781 692.5,96.6563 Q691.8125,97.7188 691.8125,99.8125 Q691.8125,101.9063 692.5,102.9844 Q693.1875,104.0469 694.5313,104.0469 Q695.1563,104.0469 695.75,103.7813 Q696.3438,103.5 696.9688,102.9219 L696.9688,105.6406 Z " fill="#000000"/><text fill="#000000" font-family="sans-serif" font-size="14" lengthAdjust="spacing" textLength="218" x="708" y="104.8467">SewerOverflowIndicationService</text><line style="stroke:#181818;stroke-width:0.5;" x1="680" x2="928" y1="116" y2="116"/><line style="stroke:#181818;stroke-width:0.5;" x1="680" x2="928" y1="124" y2="124"/><ellipse cx="690" cy="137.6484" fill="#84BE84" rx="3" ry="3" style="stroke:#038048;stroke-width:1.0;"/><text fill="#000000" font-family="sans-serif" font-size="14" lengthAdjust="spacing" textLength="221" x="699" y="140.9951">void serve(Map&lt;String, String&gt;)</text></g><!--class FlowIndicationComponent--><g id="elem_FlowIndicationComponent"><rect codeLine="25" fill="#F1F1F1" height="64.2969" id="FlowIndicationComponent" rx="2.5" ry="2.5" style="stroke:#181818;stroke-width:0.5;" width="341" x="69.5" y="482.04"/><ellipse cx="146.25" cy="498.04" fill="#ADD1B2" rx="11" ry="11" style="stroke:#181818;stroke-width:1.0;"/><path d="M149.2188,503.6806 Q148.6406,503.9775 148,504.1181 Q147.3594,504.2744 146.6563,504.2744 Q144.1563,504.2744 142.8281,502.6337 Q141.5156,500.9775 141.5156,497.8525 Q141.5156,494.7275 142.8281,493.0712 Q144.1563,491.415 146.6563,491.415 Q147.3594,491.415 148,491.5712 Q148.6563,491.7275 149.2188,492.0244 L149.2188,494.7431 Q148.5938,494.165 148,493.8994 Q147.4063,493.6181 146.7813,493.6181 Q145.4375,493.6181 144.75,494.6962 Q144.0625,495.7587 144.0625,497.8525 Q144.0625,499.9462 144.75,501.0244 Q145.4375,502.0869 146.7813,502.0869 Q147.4063,502.0869 148,501.8212 Q148.5938,501.54 149.2188,500.9619 L149.2188,503.6806 Z " fill="#000000"/><text fill="#000000" font-family="sans-serif" font-size="14" lengthAdjust="spacing" textLength="179" x="166.75" y="502.8867">FlowIndicationComponent</text><line style="stroke:#181818;stroke-width:0.5;" x1="70.5" x2="409.5" y1="514.04" y2="514.04"/><line style="stroke:#181818;stroke-width:0.5;" x1="70.5" x2="409.5" y1="522.04" y2="522.04"/><ellipse cx="80.5" cy="535.6884" fill="#84BE84" rx="3" ry="3" style="stroke:#038048;stroke-width:1.0;"/><text fill="#000000" font-family="sans-serif" font-size="14" lengthAdjust="spacing" textLength="315" x="89.5" y="539.0351">void execute(Map&lt;String, ? extends Object&gt;)</text></g><!--class PumpIndicationComponent--><g id="elem_PumpIndicationComponent"><rect codeLine="28" fill="#F1F1F1" height="64.2969" id="PumpIndicationComponent" rx="2.5" ry="2.5" style="stroke:#181818;stroke-width:0.5;" width="341" x="445.5" y="482.04"/><ellipse cx="517.75" cy="498.04" fill="#ADD1B2" rx="11" ry="11" style="stroke:#181818;stroke-width:1.0;"/><path d="M520.7188,503.6806 Q520.1406,503.9775 519.5,504.1181 Q518.8594,504.2744 518.1563,504.2744 Q515.6563,504.2744 514.3281,502.6337 Q513.0156,500.9775 513.0156,497.8525 Q513.0156,494.7275 514.3281,493.0712 Q515.6563,491.415 518.1563,491.415 Q518.8594,491.415 519.5,491.5712 Q520.1563,491.7275 520.7188,492.0244 L520.7188,494.7431 Q520.0938,494.165 519.5,493.8994 Q518.9063,493.6181 518.2813,493.6181 Q516.9375,493.6181 516.25,494.6962 Q515.5625,495.7587 515.5625,497.8525 Q515.5625,499.9462 516.25,501.0244 Q516.9375,502.0869 518.2813,502.0869 Q518.9063,502.0869 519.5,501.8212 Q520.0938,501.54 520.7188,500.9619 L520.7188,503.6806 Z " fill="#000000"/><text fill="#000000" font-family="sans-serif" font-size="14" lengthAdjust="spacing" textLength="188" x="538.25" y="502.8867">PumpIndicationComponent</text><line style="stroke:#181818;stroke-width:0.5;" x1="446.5" x2="785.5" y1="514.04" y2="514.04"/><line style="stroke:#181818;stroke-width:0.5;" x1="446.5" x2="785.5" y1="522.04" y2="522.04"/><ellipse cx="456.5" cy="535.6884" fill="#84BE84" rx="3" ry="3" style="stroke:#038048;stroke-width:1.0;"/><text fill="#000000" font-family="sans-serif" font-size="14" lengthAdjust="spacing" textLength="315" x="465.5" y="539.0351">void execute(Map&lt;String, ? extends Object&gt;)</text></g><!--class RainIndicationComponent--><g id="elem_RainIndicationComponent"><rect codeLine="31" fill="#F1F1F1" height="64.2969" id="RainIndicationComponent" rx="2.5" ry="2.5" style="stroke:#181818;stroke-width:0.5;" width="341" x="821.5" y="482.04"/><ellipse cx="898.75" cy="498.04" fill="#ADD1B2" rx="11" ry="11" style="stroke:#181818;stroke-width:1.0;"/><path d="M901.7188,503.6806 Q901.1406,503.9775 900.5,504.1181 Q899.8594,504.2744 899.1563,504.2744 Q896.6563,504.2744 895.3281,502.6337 Q894.0156,500.9775 894.0156,497.8525 Q894.0156,494.7275 895.3281,493.0712 Q896.6563,491.415 899.1563,491.415 Q899.8594,491.415 900.5,491.5712 Q901.1563,491.7275 901.7188,492.0244 L901.7188,494.7431 Q901.0938,494.165 900.5,493.8994 Q899.9063,493.6181 899.2813,493.6181 Q897.9375,493.6181 897.25,494.6962 Q896.5625,495.7587 896.5625,497.8525 Q896.5625,499.9462 897.25,501.0244 Q897.9375,502.0869 899.2813,502.0869 Q899.9063,502.0869 900.5,501.8212 Q901.0938,501.54 901.7188,500.9619 L901.7188,503.6806 Z " fill="#000000"/><text fill="#000000" font-family="sans-serif" font-size="14" lengthAdjust="spacing" textLength="178" x="919.25" y="502.8867">RainIndicationComponent</text><line style="stroke:#181818;stroke-width:0.5;" x1="822.5" x2="1161.5" y1="514.04" y2="514.04"/><line style="stroke:#181818;stroke-width:0.5;" x1="822.5" x2="1161.5" y1="522.04" y2="522.04"/><ellipse cx="832.5" cy="535.6884" fill="#84BE84" rx="3" ry="3" style="stroke:#038048;stroke-width:1.0;"/><text fill="#000000" font-family="sans-serif" font-size="14" lengthAdjust="spacing" textLength="315" x="841.5" y="539.0351">void execute(Map&lt;String, ? extends Object&gt;)</text></g><!--class SewerOverflowIndicationComponent--><g id="elem_SewerOverflowIndicationComponent"><rect codeLine="34" fill="#F1F1F1" height="64.2969" id="SewerOverflowIndicationComponent" rx="2.5" ry="2.5" style="stroke:#181818;stroke-width:0.5;" width="341" x="633.5" y="208.29"/><ellipse cx="675.05" cy="224.29" fill="#ADD1B2" rx="11" ry="11" style="stroke:#181818;stroke-width:1.0;"/><path d="M678.0188,229.9306 Q677.4406,230.2275 676.8,230.3681 Q676.1594,230.5244 675.4563,230.5244 Q672.9563,230.5244 671.6281,228.8837 Q670.3156,227.2275 670.3156,224.1025 Q670.3156,220.9775 671.6281,219.3212 Q672.9563,217.665 675.4563,217.665 Q676.1594,217.665 676.8,217.8212 Q677.4563,217.9775 678.0188,218.2744 L678.0188,220.9931 Q677.3938,220.415 676.8,220.1494 Q676.2063,219.8681 675.5813,219.8681 Q674.2375,219.8681 673.55,220.9462 Q672.8625,222.0087 672.8625,224.1025 Q672.8625,226.1962 673.55,227.2744 Q674.2375,228.3369 675.5813,228.3369 Q676.2063,228.3369 676.8,228.0712 Q677.3938,227.79 678.0188,227.2119 L678.0188,229.9306 Z " fill="#000000"/><text fill="#000000" font-family="sans-serif" font-size="14" lengthAdjust="spacing" textLength="250" x="694.95" y="229.1367">SewerOverflowIndicationComponent</text><line style="stroke:#181818;stroke-width:0.5;" x1="634.5" x2="973.5" y1="240.29" y2="240.29"/><line style="stroke:#181818;stroke-width:0.5;" x1="634.5" x2="973.5" y1="248.29" y2="248.29"/><ellipse cx="644.5" cy="261.9384" fill="#84BE84" rx="3" ry="3" style="stroke:#038048;stroke-width:1.0;"/><text fill="#000000" font-family="sans-serif" font-size="14" lengthAdjust="spacing" textLength="315" x="653.5" y="265.2851">void execute(Map&lt;String, ? extends Object&gt;)</text></g><!--class SewerObservationService--><g id="elem_SewerObservationService"><rect codeLine="37" fill="#F1F1F1" height="64.2969" id="SewerObservationService" rx="2.5" ry="2.5" style="stroke:#181818;stroke-width:0.5;" width="208" x="1590" y="84"/><ellipse cx="1605" cy="100" fill="#ADD1B2" rx="11" ry="11" style="stroke:#181818;stroke-width:1.0;"/><path d="M1607.9688,105.6406 Q1607.3906,105.9375 1606.75,106.0781 Q1606.1094,106.2344 1605.4063,106.2344 Q1602.9063,106.2344 1601.5781,104.5938 Q1600.2656,102.9375 1600.2656,99.8125 Q1600.2656,96.6875 1601.5781,95.0313 Q1602.9063,93.375 1605.4063,93.375 Q1606.1094,93.375 1606.75,93.5313 Q1607.4063,93.6875 1607.9688,93.9844 L1607.9688,96.7031 Q1607.3438,96.125 1606.75,95.8594 Q1606.1563,95.5781 1605.5313,95.5781 Q1604.1875,95.5781 1603.5,96.6563 Q1602.8125,97.7188 1602.8125,99.8125 Q1602.8125,101.9063 1603.5,102.9844 Q1604.1875,104.0469 1605.5313,104.0469 Q1606.1563,104.0469 1606.75,103.7813 Q1607.3438,103.5 1607.9688,102.9219 L1607.9688,105.6406 Z " fill="#000000"/><text fill="#000000" font-family="sans-serif" font-size="14" lengthAdjust="spacing" textLength="176" x="1619" y="104.8467">SewerObservationService</text><line style="stroke:#181818;stroke-width:0.5;" x1="1591" x2="1797" y1="116" y2="116"/><line style="stroke:#181818;stroke-width:0.5;" x1="1591" x2="1797" y1="124" y2="124"/><ellipse cx="1601" cy="137.6484" fill="#84BE84" rx="3" ry="3" style="stroke:#038048;stroke-width:1.0;"/><text fill="#000000" font-family="sans-serif" font-size="14" lengthAdjust="spacing" textLength="182" x="1610" y="140.9951">Set&lt;Sewer&gt; serve(String)</text></g><!--class SewerObservationComponent--><g id="elem_SewerObservationComponent"><rect codeLine="40" fill="#F1F1F1" height="64.2969" id="SewerObservationComponent" rx="2.5" ry="2.5" style="stroke:#181818;stroke-width:0.5;" width="240" x="1574" y="208.29"/><ellipse cx="1589" cy="224.29" fill="#ADD1B2" rx="11" ry="11" style="stroke:#181818;stroke-width:1.0;"/><path d="M1591.9688,229.9306 Q1591.3906,230.2275 1590.75,230.3681 Q1590.1094,230.5244 1589.4063,230.5244 Q1586.9063,230.5244 1585.5781,228.8837 Q1584.2656,227.2275 1584.2656,224.1025 Q1584.2656,220.9775 1585.5781,219.3212 Q1586.9063,217.665 1589.4063,217.665 Q1590.1094,217.665 1590.75,217.8212 Q1591.4063,217.9775 1591.9688,218.2744 L1591.9688,220.9931 Q1591.3438,220.415 1590.75,220.1494 Q1590.1563,219.8681 1589.5313,219.8681 Q1588.1875,219.8681 1587.5,220.9462 Q1586.8125,222.0087 1586.8125,224.1025 Q1586.8125,226.1962 1587.5,227.2744 Q1588.1875,228.3369 1589.5313,228.3369 Q1590.1563,228.3369 1590.75,228.0712 Q1591.3438,227.79 1591.9688,227.2119 L1591.9688,229.9306 Z " fill="#000000"/><text fill="#000000" font-family="sans-serif" font-size="14" lengthAdjust="spacing" textLength="208" x="1603" y="229.1367">SewerObservationComponent</text><line style="stroke:#181818;stroke-width:0.5;" x1="1575" x2="1813" y1="240.29" y2="240.29"/><line style="stroke:#181818;stroke-width:0.5;" x1="1575" x2="1813" y1="248.29" y2="248.29"/><ellipse cx="1585" cy="261.9384" fill="#84BE84" rx="3" ry="3" style="stroke:#038048;stroke-width:1.0;"/><text fill="#000000" font-family="sans-serif" font-size="14" lengthAdjust="spacing" textLength="200" x="1594" y="265.2851">Set&lt;Sewer&gt; execute(String)</text></g><!--class Sewers--><g id="elem_Sewers"><rect codeLine="43" fill="#F1F1F1" height="80.5938" id="Sewers" rx="2.5" ry="2.5" style="stroke:#181818;stroke-width:0.5;" width="220" x="1584" y="473.89"/><ellipse cx="1664.25" cy="489.89" fill="#B4A7E5" rx="11" ry="11" style="stroke:#181818;stroke-width:1.0;"/><path d="M1660.1719,485.6556 L1660.1719,483.4994 L1667.5625,483.4994 L1667.5625,485.6556 L1665.0938,485.6556 L1665.0938,493.7338 L1667.5625,493.7338 L1667.5625,495.89 L1660.1719,495.89 L1660.1719,493.7338 L1662.6406,493.7338 L1662.6406,485.6556 L1660.1719,485.6556 Z " fill="#000000"/><text fill="#000000" font-family="sans-serif" font-size="14" font-style="italic" lengthAdjust="spacing" textLength="51" x="1684.75" y="494.7367">Sewers</text><line style="stroke:#181818;stroke-width:0.5;" x1="1585" x2="1803" y1="505.89" y2="505.89"/><line style="stroke:#181818;stroke-width:0.5;" x1="1585" x2="1803" y1="513.89" y2="513.89"/><ellipse cx="1595" cy="527.5384" fill="#84BE84" rx="3" ry="3" style="stroke:#038048;stroke-width:1.0;"/><text fill="#000000" font-family="sans-serif" font-size="14" font-style="italic" lengthAdjust="spacing" textLength="194" x="1604" y="530.8851">Set&lt;Sewer&gt; observe(UUID)</text><ellipse cx="1595" cy="543.8353" fill="#84BE84" rx="3" ry="3" style="stroke:#038048;stroke-width:1.0;"/><text fill="#000000" font-family="sans-serif" font-size="14" font-style="italic" lengthAdjust="spacing" textLength="139" x="1604" y="547.182">void indicate(Sewer)</text></g><!--class Sewer--><g id="elem_Sewer"><rect codeLine="47" fill="#F1F1F1" height="113.1875" id="Sewer" rx="2.5" ry="2.5" style="stroke:#181818;stroke-width:0.5;" width="259" x="1289.5" y="457.59"/><ellipse cx="1393.25" cy="473.59" fill="#ADD1B2" rx="11" ry="11" style="stroke:#181818;stroke-width:1.0;"/><path d="M1396.2188,479.2306 Q1395.6406,479.5275 1395,479.6681 Q1394.3594,479.8244 1393.6563,479.8244 Q1391.1563,479.8244 1389.8281,478.1838 Q1388.5156,476.5275 1388.5156,473.4025 Q1388.5156,470.2775 1389.8281,468.6213 Q1391.1563,466.965 1393.6563,466.965 Q1394.3594,466.965 1395,467.1213 Q1395.6563,467.2775 1396.2188,467.5744 L1396.2188,470.2931 Q1395.5938,469.715 1395,469.4494 Q1394.4063,469.1681 1393.7813,469.1681 Q1392.4375,469.1681 1391.75,470.2463 Q1391.0625,471.3088 1391.0625,473.4025 Q1391.0625,475.4963 1391.75,476.5744 Q1392.4375,477.6369 1393.7813,477.6369 Q1394.4063,477.6369 1395,477.3713 Q1395.5938,477.09 1396.2188,476.5119 L1396.2188,479.2306 Z " fill="#000000"/><text fill="#000000" font-family="sans-serif" font-size="14" lengthAdjust="spacing" textLength="43" x="1413.75" y="478.4367">Sewer</text><line style="stroke:#181818;stroke-width:0.5;" x1="1290.5" x2="1547.5" y1="489.59" y2="489.59"/><line style="stroke:#181818;stroke-width:0.5;" x1="1290.5" x2="1547.5" y1="497.59" y2="497.59"/><ellipse cx="1300.5" cy="511.2384" fill="#84BE84" rx="3" ry="3" style="stroke:#038048;stroke-width:1.0;"/><text fill="#000000" font-family="sans-serif" font-size="14" lengthAdjust="spacing" textLength="83" x="1309.5" y="514.5851">UUID getId()</text><ellipse cx="1300.5" cy="527.5353" fill="#84BE84" rx="3" ry="3" style="stroke:#038048;stroke-width:1.0;"/><text fill="#000000" font-family="sans-serif" font-size="14" lengthAdjust="spacing" textLength="230" x="1309.5" y="530.882">KeyPerformanceIndicator getKpi()</text><ellipse cx="1300.5" cy="543.8322" fill="#84BE84" rx="3" ry="3" style="stroke:#038048;stroke-width:1.0;"/><text fill="#000000" font-family="sans-serif" font-size="14" lengthAdjust="spacing" textLength="206" x="1309.5" y="547.1789">Set&lt;Problem&gt; getProblems()</text><ellipse cx="1300.5" cy="560.1291" fill="#84BE84" rx="3" ry="3" style="stroke:#038048;stroke-width:1.0;"/><text fill="#000000" font-family="sans-serif" font-size="14" lengthAdjust="spacing" textLength="233" x="1309.5" y="563.4757">void setProblems(Set&lt;Problem&gt;)</text></g><!--class KeyPerformanceIndicator--><g id="elem_KeyPerformanceIndicator"><rect codeLine="53" fill="#F1F1F1" height="96.8906" id="KeyPerformanceIndicator" rx="2.5" ry="2.5" style="stroke:#181818;stroke-width:0.5;" width="279" x="1266.5" y="669.78"/><ellipse cx="1315.75" cy="685.78" fill="#ADD1B2" rx="11" ry="11" style="stroke:#181818;stroke-width:1.0;"/><path d="M1318.7188,691.4206 Q1318.1406,691.7175 1317.5,691.8581 Q1316.8594,692.0144 1316.1563,692.0144 Q1313.6563,692.0144 1312.3281,690.3738 Q1311.0156,688.7175 1311.0156,685.5925 Q1311.0156,682.4675 1312.3281,680.8113 Q1313.6563,679.155 1316.1563,679.155 Q1316.8594,679.155 1317.5,679.3113 Q1318.1563,679.4675 1318.7188,679.7644 L1318.7188,682.4831 Q1318.0938,681.905 1317.5,681.6394 Q1316.9063,681.3581 1316.2813,681.3581 Q1314.9375,681.3581 1314.25,682.4363 Q1313.5625,683.4988 1313.5625,685.5925 Q1313.5625,687.6863 1314.25,688.7644 Q1314.9375,689.8269 1316.2813,689.8269 Q1316.9063,689.8269 1317.5,689.5613 Q1318.0938,689.28 1318.7188,688.7019 L1318.7188,691.4206 Z " fill="#000000"/><text fill="#000000" font-family="sans-serif" font-size="14" lengthAdjust="spacing" textLength="172" x="1336.25" y="690.6267">KeyPerformanceIndicator</text><line style="stroke:#181818;stroke-width:0.5;" x1="1267.5" x2="1544.5" y1="701.78" y2="701.78"/><line style="stroke:#181818;stroke-width:0.5;" x1="1267.5" x2="1544.5" y1="709.78" y2="709.78"/><ellipse cx="1277.5" cy="723.4284" fill="#84BE84" rx="3" ry="3" style="stroke:#038048;stroke-width:1.0;"/><text fill="#000000" font-family="sans-serif" font-size="14" lengthAdjust="spacing" textLength="253" x="1286.5" y="726.7751">String getPumpPowerConsumption()</text><ellipse cx="1277.5" cy="739.7253" fill="#84BE84" rx="3" ry="3" style="stroke:#038048;stroke-width:1.0;"/><text fill="#000000" font-family="sans-serif" font-size="14" lengthAdjust="spacing" textLength="108" x="1286.5" y="743.072">String getFlow()</text><ellipse cx="1277.5" cy="756.0222" fill="#84BE84" rx="3" ry="3" style="stroke:#038048;stroke-width:1.0;"/><text fill="#000000" font-family="sans-serif" font-size="14" lengthAdjust="spacing" textLength="140" x="1286.5" y="759.3689">Number getRainfall()</text></g><!--class Problem--><g id="elem_Problem"><rect codeLine="58" fill="#F1F1F1" height="80.5938" id="Problem" rx="2.5" ry="2.5" style="stroke:#181818;stroke-width:0.5;" width="243" x="1602.5" y="677.93"/><ellipse cx="1691.25" cy="693.93" fill="#ADD1B2" rx="11" ry="11" style="stroke:#181818;stroke-width:1.0;"/><path d="M1694.2188,699.5706 Q1693.6406,699.8675 1693,700.0081 Q1692.3594,700.1644 1691.6563,700.1644 Q1689.1563,700.1644 1687.8281,698.5238 Q1686.5156,696.8675 1686.5156,693.7425 Q1686.5156,690.6175 1687.8281,688.9613 Q1689.1563,687.305 1691.6563,687.305 Q1692.3594,687.305 1693,687.4613 Q1693.6563,687.6175 1694.2188,687.9144 L1694.2188,690.6331 Q1693.5938,690.055 1693,689.7894 Q1692.4063,689.5081 1691.7813,689.5081 Q1690.4375,689.5081 1689.75,690.5863 Q1689.0625,691.6488 1689.0625,693.7425 Q1689.0625,695.8363 1689.75,696.9144 Q1690.4375,697.9769 1691.7813,697.9769 Q1692.4063,697.9769 1693,697.7113 Q1693.5938,697.43 1694.2188,696.8519 L1694.2188,699.5706 Z " fill="#000000"/><text fill="#000000" font-family="sans-serif" font-size="14" lengthAdjust="spacing" textLength="57" x="1711.75" y="698.7767">Problem</text><line style="stroke:#181818;stroke-width:0.5;" x1="1603.5" x2="1844.5" y1="709.93" y2="709.93"/><line style="stroke:#181818;stroke-width:0.5;" x1="1603.5" x2="1844.5" y1="717.93" y2="717.93"/><ellipse cx="1613.5" cy="731.5784" fill="#84BE84" rx="3" ry="3" style="stroke:#038048;stroke-width:1.0;"/><text fill="#000000" font-family="sans-serif" font-size="14" lengthAdjust="spacing" textLength="130" x="1622.5" y="734.9251">String getReason()</text><ellipse cx="1613.5" cy="747.8753" fill="#84BE84" rx="3" ry="3" style="stroke:#038048;stroke-width:1.0;"/><text fill="#000000" font-family="sans-serif" font-size="14" lengthAdjust="spacing" textLength="217" x="1622.5" y="751.222">Number getOverflowIndication()</text></g><!--link SewerOverflowIndicationService to SewerOverflowIndicationComponent--><g id="link_SewerOverflowIndicationService_SewerOverflowIndicationComponent"><path codeLine="62" d="M804,148.48 C804,166.75 804,183.53 804,201.84 " fill="none" id="SewerOverflowIndicationService-to-SewerOverflowIndicationComponent" style="stroke:#181818;stroke-width:1.0;"/><polygon fill="#181818" points="804,207.84,808,198.84,804,202.84,800,198.84,804,207.84" style="stroke:#181818;stroke-width:1.0;"/></g><!--link SewerOverflowIndicationComponent to Sewers--><g id="link_SewerOverflowIndicationComponent_Sewers"><path codeLine="63" d="M974.89,240.67 C1198.23,240.67 1561.25,240.67 1561.25,240.67 C1561.25,240.67 1561.25,514.67 1561.25,514.67 C1561.25,514.67 1564.34,514.67 1577.77,514.67 " fill="none" id="SewerOverflowIndicationComponent-to-Sewers" style="stroke:#181818;stroke-width:1.0;"/><polygon fill="#181818" points="1583.77,514.67,1574.77,510.67,1578.77,514.67,1574.77,518.67,1583.77,514.67" style="stroke:#181818;stroke-width:1.0;"/></g><!--link SewerOverflowIndicationComponent to RainIndicationComponent--><g id="link_SewerOverflowIndicationComponent_RainIndicationComponent"><path codeLine="64" d="M898,272.92 C898,325.6 898,423.09 898,475.75 " fill="none" id="SewerOverflowIndicationComponent-to-RainIndicationComponent" style="stroke:#181818;stroke-width:1.0;"/><polygon fill="#181818" points="898,481.75,902,472.75,898,476.75,894,472.75,898,481.75" style="stroke:#181818;stroke-width:1.0;"/></g><!--link SewerOverflowIndicationComponent to PumpIndicationComponent--><g id="link_SewerOverflowIndicationComponent_PumpIndicationComponent"><path codeLine="65" d="M710,272.92 C710,325.6 710,423.09 710,475.75 " fill="none" id="SewerOverflowIndicationComponent-to-PumpIndicationComponent" style="stroke:#181818;stroke-width:1.0;"/><polygon fill="#181818" points="710,481.75,714,472.75,710,476.75,706,472.75,710,481.75" style="stroke:#181818;stroke-width:1.0;"/></g><!--link SewerOverflowIndicationComponent to FlowIndicationComponent--><g id="link_SewerOverflowIndicationComponent_FlowIndicationComponent"><path codeLine="66" d="M633.25,240.67 C467.25,240.67 240,240.67 240,240.67 C240,240.67 240,403.28 240,475.74 " fill="none" id="SewerOverflowIndicationComponent-to-FlowIndicationComponent" style="stroke:#181818;stroke-width:1.0;"/><polygon fill="#181818" points="240,481.74,244,472.74,240,476.74,236,472.74,240,481.74" style="stroke:#181818;stroke-width:1.0;"/></g><!--link SewerObservationService to SewerObservationComponent--><g id="link_SewerObservationService_SewerObservationComponent"><path codeLine="67" d="M1694,148.48 C1694,166.75 1694,183.53 1694,201.84 " fill="none" id="SewerObservationService-to-SewerObservationComponent" style="stroke:#181818;stroke-width:1.0;"/><polygon fill="#181818" points="1694,207.84,1698,198.84,1694,202.84,1690,198.84,1694,207.84" style="stroke:#181818;stroke-width:1.0;"/></g><!--link SewerObservationComponent to Sewers--><g id="link_SewerObservationComponent_Sewers"><path codeLine="68" d="M1694,272.92 C1694,323.06 1694,413.2 1694,467.76 " fill="none" id="SewerObservationComponent-to-Sewers" style="stroke:#181818;stroke-width:1.0;"/><polygon fill="#181818" points="1694,473.76,1698,464.76,1694,468.76,1690,464.76,1694,473.76" style="stroke:#181818;stroke-width:1.0;"/></g><!--link Sewer to Problem--><g id="link_Sewer_Problem"><path codeLine="69" d="M1548.65,562.67 C1623.62,562.67 1703.25,562.67 1703.25,562.67 C1703.25,562.67 1703.25,625.67 1703.25,671.76 " fill="none" id="Sewer-to-Problem" style="stroke:#181818;stroke-width:1.0;"/><polygon fill="#181818" points="1703.25,677.76,1707.25,668.76,1703.25,672.76,1699.25,668.76,1703.25,677.76" style="stroke:#181818;stroke-width:1.0;"/></g><!--link Sewer to KeyPerformanceIndicator--><g id="link_Sewer_KeyPerformanceIndicator"><path codeLine="70" d="M1417.5,571.02 C1417.5,601.92 1417.5,633.74 1417.5,663.31 " fill="none" id="Sewer-to-KeyPerformanceIndicator" style="stroke:#181818;stroke-width:1.0;"/><polygon fill="#181818" points="1417.5,669.31,1421.5,660.31,1417.5,664.31,1413.5,660.31,1417.5,669.31" style="stroke:#181818;stroke-width:1.0;"/></g><!--SRC=[tLVDRvim5B_pLtXmIRNLcgOT5gdA3fqgHTNMg57Fau57wWLiP9jaACh_FeD9GZx8aWNSjQSWy_pxUB7VUxnB1Paa16KIXao1I22aHC6815Co0OaY4ajmv9Iob0YIe9WoK7aAY0lrp1tvpET8wdt0YrKdDVjGAEWCX4H4eX1mm9EKi1odWgio3akOWy2hA4zESp_E02sMQmGIabIT387NuTwNJr7aVwv3QMy_0oBXN2oysUX5KP_q-tLKO8egUW4eNYDuKH25_iSwkiyp5XAHNuwEAGjfeFzJlCRqOffi9JlWJ0aUTq66LzWU5uHDe2EJt9SWPdOyxd9PicWYRHZSPZfchzoITqQ9A_nkBuY9dARKOdBhR1OJV8ZMPfBrJZ-6n6AYTnaj9hk9-a32dI0cKY9tN6nyqFXHpET3KqifPsDTRsW0RYS5-ZWdMZW8lPzn6gAowlM-a_Hch0Hbam_8_0wkdENAmDqMngqMofdcThjiBRY1j2OTVaEGgMtnN_Mg0XPAzE3_Wa3LROoo9BLkeu7q0XkFX3BhDXf8Bx3HS48j-VaR-yN6od6YxNk-DwGqS1drOr0tPS2WkkL6_H6fhIQ_QQB2ZQnxibUftmYdnVTCHBH58rwwxSyf1jY8GGlYIoL8e9OrNPMrtjFJyDlLJbXvPbO7hrTksCsus_LiPImO1uL6D04r37kbr7l8Hpg5N2I41L0TVIwAaFkKcfZ2wiWqka7nedgMvctLDpQhzV2QrmOcryRWWvjicYDMdgVIcIxF8wx1RZcJ-hauZrKErZ559p9hFxB4Xp9LHJtKdz5nhzvVJ0fSMxC6hWXtFJq2aIiN6yNxnQxKRdlokBuUl5nLTrwkdxJW-s2PUjsMpXuutghTXZ7nhTgzw-P-dZmVjM3k_F76iJzG_QzLvvJffJNj9xRHL-Nf7qQVFm00]--></g></svg>