<svg xmlns="http://www.w3.org/2000/svg" xmlns:xlink="http://www.w3.org/1999/xlink" contentStyleType="text/css" height="1150px" preserveAspectRatio="none" style="width:5300px;height:1150px;background:#FFFFFF;" version="1.1" viewBox="0 0 5300 1150" width="5300px" zoomAndPan="magnify"><defs/><g><!--cluster drivers--><g id="cluster_drivers"><path d="M8.5,6 L304.5,6 A3.75,3.75 0 0 1 307,8.5 L314,28.2969 L1969.5,28.2969 A2.5,2.5 0 0 1 1972,30.7969 L1972,1141.17 A2.5,2.5 0 0 1 1969.5,1143.67 L8.5,1143.67 A2.5,2.5 0 0 1 6,1141.17 L6,8.5 A2.5,2.5 0 0 1 8.5,6 " fill="#87CEEB" style="stroke:#000000;stroke-width:1.5;"/><line style="stroke:#000000;stroke-width:1.5;" x1="6" x2="314" y1="28.2969" y2="28.2969"/><text fill="#000000" font-family="sans-serif" font-size="14" font-weight="bold" lengthAdjust="spacing" textLength="295" x="10" y="20.9951">de.company.prototype.sewer.drivers</text></g><!--cluster adapters--><g id="cluster_adapters"><path d="M48.5,65 L119.5,65 A3.75,3.75 0 0 1 122,67.5 L129,87.2969 L1921.5,87.2969 A2.5,2.5 0 0 1 1924,89.7969 L1924,1101.17 A2.5,2.5 0 0 1 1921.5,1103.67 L48.5,1103.67 A2.5,2.5 0 0 1 46,1101.17 L46,67.5 A2.5,2.5 0 0 1 48.5,65 " fill="#82FFB4" style="stroke:#000000;stroke-width:1.5;"/><line style="stroke:#000000;stroke-width:1.5;" x1="46" x2="129" y1="87.2969" y2="87.2969"/><text fill="#000000" font-family="sans-serif" font-size="14" font-weight="bold" lengthAdjust="spacing" textLength="70" x="50" y="79.9951">adapters</text></g><!--cluster use_cases--><g id="cluster_use_cases"><path d="M88.5,124 L171.5,124 A3.75,3.75 0 0 1 174,126.5 L181,146.2969 L1873.5,146.2969 A2.5,2.5 0 0 1 1876,148.7969 L1876,1061.17 A2.5,2.5 0 0 1 1873.5,1063.67 L88.5,1063.67 A2.5,2.5 0 0 1 86,1061.17 L86,126.5 A2.5,2.5 0 0 1 88.5,124 " fill="#FF9A99" style="stroke:#000000;stroke-width:1.5;"/><line style="stroke:#000000;stroke-width:1.5;" x1="86" x2="181" y1="146.2969" y2="146.2969"/><text fill="#000000" font-family="sans-serif" font-size="14" font-weight="bold" lengthAdjust="spacing" textLength="82" x="90" y="138.9951">use_cases</text></g><!--cluster entities--><g id="cluster_entities"><path d="M128.5,183 L188.5,183 A3.75,3.75 0 0 1 191,185.5 L198,205.2969 L1825.5,205.2969 A2.5,2.5 0 0 1 1828,207.7969 L1828,1021.17 A2.5,2.5 0 0 1 1825.5,1023.67 L128.5,1023.67 A2.5,2.5 0 0 1 126,1021.17 L126,185.5 A2.5,2.5 0 0 1 128.5,183 " fill="#FCFDB0" style="stroke:#000000;stroke-width:1.5;"/><line style="stroke:#000000;stroke-width:1.5;" x1="126" x2="198" y1="205.2969" y2="205.2969"/><text fill="#000000" font-family="sans-serif" font-size="14" font-weight="bold" lengthAdjust="spacing" textLength="59" x="130" y="197.9951">entities</text></g><!--cluster boundary--><g id="cluster_boundary"><path d="M160.5,234 L303.5,234 A3.75,3.75 0 0 1 306,236.5 L313,256.2969 L1101.5,256.2969 A2.5,2.5 0 0 1 1104,258.7969 L1104,768.83 A2.5,2.5 0 0 1 1101.5,771.33 L160.5,771.33 A2.5,2.5 0 0 1 158,768.83 L158,236.5 A2.5,2.5 0 0 1 160.5,234 " fill="#00FF00" style="stroke:#000000;stroke-width:1.5;"/><line style="stroke:#000000;stroke-width:1.5;" x1="158" x2="313" y1="256.2969" y2="256.2969"/><text fill="#000000" font-family="sans-serif" font-size="14" font-weight="bold" lengthAdjust="spacing" textLength="142" x="162" y="248.9951">indicate.boundary</text></g><!--cluster control--><g id="cluster_control"><path d="M184.5,358.29 L241.5,358.29 A3.75,3.75 0 0 1 244,360.79 L251,380.5869 L1077.5,380.5869 A2.5,2.5 0 0 1 1080,383.0869 L1080,744.83 A2.5,2.5 0 0 1 1077.5,747.33 L184.5,747.33 A2.5,2.5 0 0 1 182,744.83 L182,360.79 A2.5,2.5 0 0 1 184.5,358.29 " fill="#FFA500" style="stroke:#000000;stroke-width:1.5;"/><line style="stroke:#000000;stroke-width:1.5;" x1="182" x2="251" y1="380.5869" y2="380.5869"/><text fill="#000000" font-family="sans-serif" font-size="14" font-weight="bold" lengthAdjust="spacing" textLength="56" x="186" y="373.2851">control</text></g><!--cluster boundary--><g id="cluster_boundary"><path d="M1438.5,234 L1584.5,234 A3.75,3.75 0 0 1 1587,236.5 L1594,256.2969 L1753.5,256.2969 A2.5,2.5 0 0 1 1756,258.7969 L1756,495.09 A2.5,2.5 0 0 1 1753.5,497.59 L1438.5,497.59 A2.5,2.5 0 0 1 1436,495.09 L1436,236.5 A2.5,2.5 0 0 1 1438.5,234 " fill="#00FF00" style="stroke:#000000;stroke-width:1.5;"/><line style="stroke:#000000;stroke-width:1.5;" x1="1436" x2="1594" y1="256.2969" y2="256.2969"/><text fill="#000000" font-family="sans-serif" font-size="14" font-weight="bold" lengthAdjust="spacing" textLength="145" x="1440" y="248.9951">observe.boundary</text></g><!--cluster control--><g id="cluster_control"><path d="M1462.5,358.29 L1519.5,358.29 A3.75,3.75 0 0 1 1522,360.79 L1529,380.5869 L1729.5,380.5869 A2.5,2.5 0 0 1 1732,383.0869 L1732,471.09 A2.5,2.5 0 0 1 1729.5,473.59 L1462.5,473.59 A2.5,2.5 0 0 1 1460,471.09 L1460,360.79 A2.5,2.5 0 0 1 1462.5,358.29 " fill="#FFA500" style="stroke:#000000;stroke-width:1.5;"/><line style="stroke:#000000;stroke-width:1.5;" x1="1460" x2="1529" y1="380.5869" y2="380.5869"/><text fill="#000000" font-family="sans-serif" font-size="14" font-weight="bold" lengthAdjust="spacing" textLength="56" x="1464" y="373.2851">control</text></g><!--cluster sewer--><g id="cluster_sewer"><path d="M1130.5,521.59 L1181.5,521.59 A3.75,3.75 0 0 1 1184,524.09 L1191,543.8869 L1785.5,543.8869 A2.5,2.5 0 0 1 1788,546.3869 L1788,989.17 A2.5,2.5 0 0 1 1785.5,991.67 L1130.5,991.67 A2.5,2.5 0 0 1 1128,989.17 L1128,524.09 A2.5,2.5 0 0 1 1130.5,521.59 " fill="none" style="stroke:#000000;stroke-width:1.5;"/><line style="stroke:#000000;stroke-width:1.5;" x1="1128" x2="1191" y1="543.8869" y2="543.8869"/><text fill="#000000" font-family="sans-serif" font-size="14" font-weight="bold" lengthAdjust="spacing" textLength="50" x="1132" y="536.5851">sewer</text></g><!--cluster boundary--><g id="cluster_boundary"><path d="M1154.5,564.59 L1230.5,564.59 A3.75,3.75 0 0 1 1233,567.09 L1240,586.8869 L1719.5,586.8869 A2.5,2.5 0 0 1 1722,589.3869 L1722,793.28 A2.5,2.5 0 0 1 1719.5,795.78 L1154.5,795.78 A2.5,2.5 0 0 1 1152,793.28 L1152,567.09 A2.5,2.5 0 0 1 1154.5,564.59 " fill="#00FF00" style="stroke:#000000;stroke-width:1.5;"/><line style="stroke:#000000;stroke-width:1.5;" x1="1152" x2="1240" y1="586.8869" y2="586.8869"/><text fill="#000000" font-family="sans-serif" font-size="14" font-weight="bold" lengthAdjust="spacing" textLength="75" x="1156" y="579.5851">boundary</text></g><!--cluster entity--><g id="cluster_entity"><path d="M1178.5,607.59 L1285.5,607.59 A3.75,3.75 0 0 1 1288,610.09 L1295,629.8869 L1463.5,629.8869 A2.5,2.5 0 0 1 1466,632.3869 L1466,769.28 A2.5,2.5 0 0 1 1463.5,771.78 L1178.5,771.78 A2.5,2.5 0 0 1 1176,769.28 L1176,610.09 A2.5,2.5 0 0 1 1178.5,607.59 " fill="#FCFDB0" style="stroke:#000000;stroke-width:1.5;"/><line style="stroke:#000000;stroke-width:1.5;" x1="1176" x2="1295" y1="629.8869" y2="629.8869"/><text fill="#000000" font-family="sans-serif" font-size="14" font-weight="bold" lengthAdjust="spacing" textLength="106" x="1180" y="622.5851">control.entity</text></g><!--cluster entity--><g id="cluster_entity"><path d="M1154.5,819.78 L1369.5,819.78 A3.75,3.75 0 0 1 1372,822.28 L1379,842.0769 L1461.5,842.0769 A2.5,2.5 0 0 1 1464,844.5769 L1464,965.17 A2.5,2.5 0 0 1 1461.5,967.67 L1154.5,967.67 A2.5,2.5 0 0 1 1152,965.17 L1152,822.28 A2.5,2.5 0 0 1 1154.5,819.78 " fill="#FCFDB0" style="stroke:#000000;stroke-width:1.5;"/><line style="stroke:#000000;stroke-width:1.5;" x1="1152" x2="1379" y1="842.0769" y2="842.0769"/><text fill="#000000" font-family="sans-serif" font-size="14" font-weight="bold" lengthAdjust="spacing" textLength="214" x="1156" y="834.7751">kpi.boundary.control.entity</text></g><!--cluster entity--><g id="cluster_entity"><path d="M1490.5,827.93 L1747.5,827.93 A3.75,3.75 0 0 1 1750,830.43 L1757,850.2269 L1761.5,850.2269 A2.5,2.5 0 0 1 1764,852.7269 L1764,957.02 A2.5,2.5 0 0 1 1761.5,959.52 L1490.5,959.52 A2.5,2.5 0 0 1 1488,957.02 L1488,830.43 A2.5,2.5 0 0 1 1490.5,827.93 " fill="#FCFDB0" style="stroke:#000000;stroke-width:1.5;"/><line style="stroke:#000000;stroke-width:1.5;" x1="1488" x2="1757" y1="850.2269" y2="850.2269"/><text fill="#000000" font-family="sans-serif" font-size="14" font-weight="bold" lengthAdjust="spacing" textLength="256" x="1492" y="842.9251">problem.boundary.control.entity</text></g><!--class SewerOverflowIndicationService--><g id="elem_SewerOverflowIndicationService"><rect codeLine="22" fill="#F1F1F1" height="64.2969" id="SewerOverflowIndicationService" rx="2.5" ry="2.5" style="stroke:#181818;stroke-width:0.5;" width="250" x="652" y="269"/><ellipse cx="667" cy="285" fill="#ADD1B2" rx="11" ry="11" style="stroke:#181818;stroke-width:1.0;"/><path d="M669.9688,290.6406 Q669.3906,290.9375 668.75,291.0781 Q668.1094,291.2344 667.4063,291.2344 Q664.9063,291.2344 663.5781,289.5938 Q662.2656,287.9375 662.2656,284.8125 Q662.2656,281.6875 663.5781,280.0313 Q664.9063,278.375 667.4063,278.375 Q668.1094,278.375 668.75,278.5313 Q669.4063,278.6875 669.9688,278.9844 L669.9688,281.7031 Q669.3438,281.125 668.75,280.8594 Q668.1563,280.5781 667.5313,280.5781 Q666.1875,280.5781 665.5,281.6563 Q664.8125,282.7188 664.8125,284.8125 Q664.8125,286.9063 665.5,287.9844 Q666.1875,289.0469 667.5313,289.0469 Q668.1563,289.0469 668.75,288.7813 Q669.3438,288.5 669.9688,287.9219 L669.9688,290.6406 Z " fill="#000000"/><text fill="#000000" font-family="sans-serif" font-size="14" lengthAdjust="spacing" textLength="218" x="681" y="289.8467">SewerOverflowIndicationService</text><line style="stroke:#181818;stroke-width:0.5;" x1="653" x2="901" y1="301" y2="301"/><line style="stroke:#181818;stroke-width:0.5;" x1="653" x2="901" y1="309" y2="309"/><ellipse cx="663" cy="322.6484" fill="#84BE84" rx="3" ry="3" style="stroke:#038048;stroke-width:1.0;"/><text fill="#000000" font-family="sans-serif" font-size="14" lengthAdjust="spacing" textLength="221" x="672" y="325.9951">void serve(Map&lt;String, String&gt;)</text></g><!--class FlowIndicationComponent--><g id="elem_FlowIndicationComponent"><rect codeLine="25" fill="#F1F1F1" height="64.2969" id="FlowIndicationComponent" rx="2.5" ry="2.5" style="stroke:#181818;stroke-width:0.5;" width="265" x="198.5" y="667.04"/><ellipse cx="237.8" cy="683.04" fill="#ADD1B2" rx="11" ry="11" style="stroke:#181818;stroke-width:1.0;"/><path d="M240.7688,688.6806 Q240.1906,688.9775 239.55,689.1181 Q238.9094,689.2744 238.2063,689.2744 Q235.7063,689.2744 234.3781,687.6338 Q233.0656,685.9775 233.0656,682.8525 Q233.0656,679.7275 234.3781,678.0713 Q235.7063,676.415 238.2063,676.415 Q238.9094,676.415 239.55,676.5713 Q240.2063,676.7275 240.7688,677.0244 L240.7688,679.7431 Q240.1438,679.165 239.55,678.8994 Q238.9563,678.6181 238.3313,678.6181 Q236.9875,678.6181 236.3,679.6963 Q235.6125,680.7588 235.6125,682.8525 Q235.6125,684.9463 236.3,686.0244 Q236.9875,687.0869 238.3313,687.0869 Q238.9563,687.0869 239.55,686.8213 Q240.1438,686.54 240.7688,685.9619 L240.7688,688.6806 Z " fill="#000000"/><text fill="#000000" font-family="sans-serif" font-size="14" lengthAdjust="spacing" textLength="179" x="257.2" y="687.8867">FlowIndicationComponent</text><line style="stroke:#181818;stroke-width:0.5;" x1="199.5" x2="462.5" y1="699.04" y2="699.04"/><line style="stroke:#181818;stroke-width:0.5;" x1="199.5" x2="462.5" y1="707.04" y2="707.04"/><ellipse cx="209.5" cy="720.6884" fill="#84BE84" rx="3" ry="3" style="stroke:#038048;stroke-width:1.0;"/><text fill="#000000" font-family="sans-serif" font-size="14" lengthAdjust="spacing" textLength="239" x="218.5" y="724.0351">void execute(Map&lt;String, String&gt;)</text></g><!--class PumpIndicationComponent--><g id="elem_PumpIndicationComponent"><rect codeLine="28" fill="#F1F1F1" height="64.2969" id="PumpIndicationComponent" rx="2.5" ry="2.5" style="stroke:#181818;stroke-width:0.5;" width="265" x="498.5" y="667.04"/><ellipse cx="533.75" cy="683.04" fill="#ADD1B2" rx="11" ry="11" style="stroke:#181818;stroke-width:1.0;"/><path d="M536.7188,688.6806 Q536.1406,688.9775 535.5,689.1181 Q534.8594,689.2744 534.1563,689.2744 Q531.6563,689.2744 530.3281,687.6338 Q529.0156,685.9775 529.0156,682.8525 Q529.0156,679.7275 530.3281,678.0713 Q531.6563,676.415 534.1563,676.415 Q534.8594,676.415 535.5,676.5713 Q536.1563,676.7275 536.7188,677.0244 L536.7188,679.7431 Q536.0938,679.165 535.5,678.8994 Q534.9063,678.6181 534.2813,678.6181 Q532.9375,678.6181 532.25,679.6963 Q531.5625,680.7588 531.5625,682.8525 Q531.5625,684.9463 532.25,686.0244 Q532.9375,687.0869 534.2813,687.0869 Q534.9063,687.0869 535.5,686.8213 Q536.0938,686.54 536.7188,685.9619 L536.7188,688.6806 Z " fill="#000000"/><text fill="#000000" font-family="sans-serif" font-size="14" lengthAdjust="spacing" textLength="188" x="552.25" y="687.8867">PumpIndicationComponent</text><line style="stroke:#181818;stroke-width:0.5;" x1="499.5" x2="762.5" y1="699.04" y2="699.04"/><line style="stroke:#181818;stroke-width:0.5;" x1="499.5" x2="762.5" y1="707.04" y2="707.04"/><ellipse cx="509.5" cy="720.6884" fill="#84BE84" rx="3" ry="3" style="stroke:#038048;stroke-width:1.0;"/><text fill="#000000" font-family="sans-serif" font-size="14" lengthAdjust="spacing" textLength="239" x="518.5" y="724.0351">void execute(Map&lt;String, String&gt;)</text></g><!--class RainIndicationComponent--><g id="elem_RainIndicationComponent"><rect codeLine="31" fill="#F1F1F1" height="64.2969" id="RainIndicationComponent" rx="2.5" ry="2.5" style="stroke:#181818;stroke-width:0.5;" width="265" x="798.5" y="667.04"/><ellipse cx="838.25" cy="683.04" fill="#ADD1B2" rx="11" ry="11" style="stroke:#181818;stroke-width:1.0;"/><path d="M841.2188,688.6806 Q840.6406,688.9775 840,689.1181 Q839.3594,689.2744 838.6563,689.2744 Q836.1563,689.2744 834.8281,687.6338 Q833.5156,685.9775 833.5156,682.8525 Q833.5156,679.7275 834.8281,678.0713 Q836.1563,676.415 838.6563,676.415 Q839.3594,676.415 840,676.5713 Q840.6563,676.7275 841.2188,677.0244 L841.2188,679.7431 Q840.5938,679.165 840,678.8994 Q839.4063,678.6181 838.7813,678.6181 Q837.4375,678.6181 836.75,679.6963 Q836.0625,680.7588 836.0625,682.8525 Q836.0625,684.9463 836.75,686.0244 Q837.4375,687.0869 838.7813,687.0869 Q839.4063,687.0869 840,686.8213 Q840.5938,686.54 841.2188,685.9619 L841.2188,688.6806 Z " fill="#000000"/><text fill="#000000" font-family="sans-serif" font-size="14" lengthAdjust="spacing" textLength="178" x="857.75" y="687.8867">RainIndicationComponent</text><line style="stroke:#181818;stroke-width:0.5;" x1="799.5" x2="1062.5" y1="699.04" y2="699.04"/><line style="stroke:#181818;stroke-width:0.5;" x1="799.5" x2="1062.5" y1="707.04" y2="707.04"/><ellipse cx="809.5" cy="720.6884" fill="#84BE84" rx="3" ry="3" style="stroke:#038048;stroke-width:1.0;"/><text fill="#000000" font-family="sans-serif" font-size="14" lengthAdjust="spacing" textLength="239" x="818.5" y="724.0351">void execute(Map&lt;String, String&gt;)</text></g><!--class SewerOverflowIndicationComponent--><g id="elem_SewerOverflowIndicationComponent"><rect codeLine="34" fill="#F1F1F1" height="64.2969" id="SewerOverflowIndicationComponent" rx="2.5" ry="2.5" style="stroke:#181818;stroke-width:0.5;" width="282" x="636" y="393.29"/><ellipse cx="651" cy="409.29" fill="#ADD1B2" rx="11" ry="11" style="stroke:#181818;stroke-width:1.0;"/><path d="M653.9688,414.9306 Q653.3906,415.2275 652.75,415.3681 Q652.1094,415.5244 651.4063,415.5244 Q648.9063,415.5244 647.5781,413.8838 Q646.2656,412.2275 646.2656,409.1025 Q646.2656,405.9775 647.5781,404.3213 Q648.9063,402.665 651.4063,402.665 Q652.1094,402.665 652.75,402.8213 Q653.4063,402.9775 653.9688,403.2744 L653.9688,405.9931 Q653.3438,405.415 652.75,405.1494 Q652.1563,404.8681 651.5313,404.8681 Q650.1875,404.8681 649.5,405.9463 Q648.8125,407.0088 648.8125,409.1025 Q648.8125,411.1963 649.5,412.2744 Q650.1875,413.3369 651.5313,413.3369 Q652.1563,413.3369 652.75,413.0713 Q653.3438,412.79 653.9688,412.2119 L653.9688,414.9306 Z " fill="#000000"/><text fill="#000000" font-family="sans-serif" font-size="14" lengthAdjust="spacing" textLength="250" x="665" y="414.1367">SewerOverflowIndicationComponent</text><line style="stroke:#181818;stroke-width:0.5;" x1="637" x2="917" y1="425.29" y2="425.29"/><line style="stroke:#181818;stroke-width:0.5;" x1="637" x2="917" y1="433.29" y2="433.29"/><ellipse cx="647" cy="446.9384" fill="#84BE84" rx="3" ry="3" style="stroke:#038048;stroke-width:1.0;"/><text fill="#000000" font-family="sans-serif" font-size="14" lengthAdjust="spacing" textLength="239" x="656" y="450.2851">void execute(Map&lt;String, String&gt;)</text></g><!--class SewerObservationService--><g id="elem_SewerObservationService"><rect codeLine="37" fill="#F1F1F1" height="64.2969" id="SewerObservationService" rx="2.5" ry="2.5" style="stroke:#181818;stroke-width:0.5;" width="208" x="1492" y="269"/><ellipse cx="1507" cy="285" fill="#ADD1B2" rx="11" ry="11" style="stroke:#181818;stroke-width:1.0;"/><path d="M1509.9688,290.6406 Q1509.3906,290.9375 1508.75,291.0781 Q1508.1094,291.2344 1507.4063,291.2344 Q1504.9063,291.2344 1503.5781,289.5938 Q1502.2656,287.9375 1502.2656,284.8125 Q1502.2656,281.6875 1503.5781,280.0313 Q1504.9063,278.375 1507.4063,278.375 Q1508.1094,278.375 1508.75,278.5313 Q1509.4063,278.6875 1509.9688,278.9844 L1509.9688,281.7031 Q1509.3438,281.125 1508.75,280.8594 Q1508.1563,280.5781 1507.5313,280.5781 Q1506.1875,280.5781 1505.5,281.6563 Q1504.8125,282.7188 1504.8125,284.8125 Q1504.8125,286.9063 1505.5,287.9844 Q1506.1875,289.0469 1507.5313,289.0469 Q1508.1563,289.0469 1508.75,288.7813 Q1509.3438,288.5 1509.9688,287.9219 L1509.9688,290.6406 Z " fill="#000000"/><text fill="#000000" font-family="sans-serif" font-size="14" lengthAdjust="spacing" textLength="176" x="1521" y="289.8467">SewerObservationService</text><line style="stroke:#181818;stroke-width:0.5;" x1="1493" x2="1699" y1="301" y2="301"/><line style="stroke:#181818;stroke-width:0.5;" x1="1493" x2="1699" y1="309" y2="309"/><ellipse cx="1503" cy="322.6484" fill="#84BE84" rx="3" ry="3" style="stroke:#038048;stroke-width:1.0;"/><text fill="#000000" font-family="sans-serif" font-size="14" lengthAdjust="spacing" textLength="182" x="1512" y="325.9951">Set&lt;Sewer&gt; serve(String)</text></g><!--class SewerObservationComponent--><g id="elem_SewerObservationComponent"><rect codeLine="40" fill="#F1F1F1" height="64.2969" id="SewerObservationComponent" rx="2.5" ry="2.5" style="stroke:#181818;stroke-width:0.5;" width="240" x="1476" y="393.29"/><ellipse cx="1491" cy="409.29" fill="#ADD1B2" rx="11" ry="11" style="stroke:#181818;stroke-width:1.0;"/><path d="M1493.9688,414.9306 Q1493.3906,415.2275 1492.75,415.3681 Q1492.1094,415.5244 1491.4063,415.5244 Q1488.9063,415.5244 1487.5781,413.8838 Q1486.2656,412.2275 1486.2656,409.1025 Q1486.2656,405.9775 1487.5781,404.3213 Q1488.9063,402.665 1491.4063,402.665 Q1492.1094,402.665 1492.75,402.8213 Q1493.4063,402.9775 1493.9688,403.2744 L1493.9688,405.9931 Q1493.3438,405.415 1492.75,405.1494 Q1492.1563,404.8681 1491.5313,404.8681 Q1490.1875,404.8681 1489.5,405.9463 Q1488.8125,407.0088 1488.8125,409.1025 Q1488.8125,411.1963 1489.5,412.2744 Q1490.1875,413.3369 1491.5313,413.3369 Q1492.1563,413.3369 1492.75,413.0713 Q1493.3438,412.79 1493.9688,412.2119 L1493.9688,414.9306 Z " fill="#000000"/><text fill="#000000" font-family="sans-serif" font-size="14" lengthAdjust="spacing" textLength="208" x="1505" y="414.1367">SewerObservationComponent</text><line style="stroke:#181818;stroke-width:0.5;" x1="1477" x2="1715" y1="425.29" y2="425.29"/><line style="stroke:#181818;stroke-width:0.5;" x1="1477" x2="1715" y1="433.29" y2="433.29"/><ellipse cx="1487" cy="446.9384" fill="#84BE84" rx="3" ry="3" style="stroke:#038048;stroke-width:1.0;"/><text fill="#000000" font-family="sans-serif" font-size="14" lengthAdjust="spacing" textLength="200" x="1496" y="450.2851">Set&lt;Sewer&gt; execute(String)</text></g><!--class Sewers--><g id="elem_Sewers"><rect codeLine="43" fill="#F1F1F1" height="80.5938" id="Sewers" rx="2.5" ry="2.5" style="stroke:#181818;stroke-width:0.5;" width="220" x="1486" y="658.89"/><ellipse cx="1566.25" cy="674.89" fill="#B4A7E5" rx="11" ry="11" style="stroke:#181818;stroke-width:1.0;"/><path d="M1562.1719,670.6556 L1562.1719,668.4994 L1569.5625,668.4994 L1569.5625,670.6556 L1567.0938,670.6556 L1567.0938,678.7338 L1569.5625,678.7338 L1569.5625,680.89 L1562.1719,680.89 L1562.1719,678.7338 L1564.6406,678.7338 L1564.6406,670.6556 L1562.1719,670.6556 Z " fill="#000000"/><text fill="#000000" font-family="sans-serif" font-size="14" font-style="italic" lengthAdjust="spacing" textLength="51" x="1586.75" y="679.7367">Sewers</text><line style="stroke:#181818;stroke-width:0.5;" x1="1487" x2="1705" y1="690.89" y2="690.89"/><line style="stroke:#181818;stroke-width:0.5;" x1="1487" x2="1705" y1="698.89" y2="698.89"/><ellipse cx="1497" cy="712.5384" fill="#84BE84" rx="3" ry="3" style="stroke:#038048;stroke-width:1.0;"/><text fill="#000000" font-family="sans-serif" font-size="14" font-style="italic" lengthAdjust="spacing" textLength="194" x="1506" y="715.8851">Set&lt;Sewer&gt; observe(UUID)</text><ellipse cx="1497" cy="728.8353" fill="#84BE84" rx="3" ry="3" style="stroke:#038048;stroke-width:1.0;"/><text fill="#000000" font-family="sans-serif" font-size="14" font-style="italic" lengthAdjust="spacing" textLength="139" x="1506" y="732.182">void indicate(Sewer)</text></g><!--class Sewer--><g id="elem_Sewer"><rect codeLine="47" fill="#F1F1F1" height="113.1875" id="Sewer" rx="2.5" ry="2.5" style="stroke:#181818;stroke-width:0.5;" width="259" x="1191.5" y="642.59"/><ellipse cx="1295.25" cy="658.59" fill="#ADD1B2" rx="11" ry="11" style="stroke:#181818;stroke-width:1.0;"/><path d="M1298.2188,664.2306 Q1297.6406,664.5275 1297,664.6681 Q1296.3594,664.8244 1295.6563,664.8244 Q1293.1563,664.8244 1291.8281,663.1838 Q1290.5156,661.5275 1290.5156,658.4025 Q1290.5156,655.2775 1291.8281,653.6213 Q1293.1563,651.965 1295.6563,651.965 Q1296.3594,651.965 1297,652.1213 Q1297.6563,652.2775 1298.2188,652.5744 L1298.2188,655.2931 Q1297.5938,654.715 1297,654.4494 Q1296.4063,654.1681 1295.7813,654.1681 Q1294.4375,654.1681 1293.75,655.2463 Q1293.0625,656.3088 1293.0625,658.4025 Q1293.0625,660.4963 1293.75,661.5744 Q1294.4375,662.6369 1295.7813,662.6369 Q1296.4063,662.6369 1297,662.3713 Q1297.5938,662.09 1298.2188,661.5119 L1298.2188,664.2306 Z " fill="#000000"/><text fill="#000000" font-family="sans-serif" font-size="14" lengthAdjust="spacing" textLength="43" x="1315.75" y="663.4367">Sewer</text><line style="stroke:#181818;stroke-width:0.5;" x1="1192.5" x2="1449.5" y1="674.59" y2="674.59"/><line style="stroke:#181818;stroke-width:0.5;" x1="1192.5" x2="1449.5" y1="682.59" y2="682.59"/><ellipse cx="1202.5" cy="696.2384" fill="#84BE84" rx="3" ry="3" style="stroke:#038048;stroke-width:1.0;"/><text fill="#000000" font-family="sans-serif" font-size="14" lengthAdjust="spacing" textLength="83" x="1211.5" y="699.5851">UUID getId()</text><ellipse cx="1202.5" cy="712.5353" fill="#84BE84" rx="3" ry="3" style="stroke:#038048;stroke-width:1.0;"/><text fill="#000000" font-family="sans-serif" font-size="14" lengthAdjust="spacing" textLength="230" x="1211.5" y="715.882">KeyPerformanceIndicator getKpi()</text><ellipse cx="1202.5" cy="728.8322" fill="#84BE84" rx="3" ry="3" style="stroke:#038048;stroke-width:1.0;"/><text fill="#000000" font-family="sans-serif" font-size="14" lengthAdjust="spacing" textLength="206" x="1211.5" y="732.1789">Set&lt;Problem&gt; getProblems()</text><ellipse cx="1202.5" cy="745.1291" fill="#84BE84" rx="3" ry="3" style="stroke:#038048;stroke-width:1.0;"/><text fill="#000000" font-family="sans-serif" font-size="14" lengthAdjust="spacing" textLength="233" x="1211.5" y="748.4757">void setProblems(Set&lt;Problem&gt;)</text></g><!--class KeyPerformanceIndicator--><g id="elem_KeyPerformanceIndicator"><rect codeLine="53" fill="#F1F1F1" height="96.8906" id="KeyPerformanceIndicator" rx="2.5" ry="2.5" style="stroke:#181818;stroke-width:0.5;" width="279" x="1168.5" y="854.78"/><ellipse cx="1217.75" cy="870.78" fill="#ADD1B2" rx="11" ry="11" style="stroke:#181818;stroke-width:1.0;"/><path d="M1220.7188,876.4206 Q1220.1406,876.7175 1219.5,876.8581 Q1218.8594,877.0144 1218.1563,877.0144 Q1215.6563,877.0144 1214.3281,875.3738 Q1213.0156,873.7175 1213.0156,870.5925 Q1213.0156,867.4675 1214.3281,865.8113 Q1215.6563,864.155 1218.1563,864.155 Q1218.8594,864.155 1219.5,864.3113 Q1220.1563,864.4675 1220.7188,864.7644 L1220.7188,867.4831 Q1220.0938,866.905 1219.5,866.6394 Q1218.9063,866.3581 1218.2813,866.3581 Q1216.9375,866.3581 1216.25,867.4363 Q1215.5625,868.4988 1215.5625,870.5925 Q1215.5625,872.6863 1216.25,873.7644 Q1216.9375,874.8269 1218.2813,874.8269 Q1218.9063,874.8269 1219.5,874.5613 Q1220.0938,874.28 1220.7188,873.7019 L1220.7188,876.4206 Z " fill="#000000"/><text fill="#000000" font-family="sans-serif" font-size="14" lengthAdjust="spacing" textLength="172" x="1238.25" y="875.6267">KeyPerformanceIndicator</text><line style="stroke:#181818;stroke-width:0.5;" x1="1169.5" x2="1446.5" y1="886.78" y2="886.78"/><line style="stroke:#181818;stroke-width:0.5;" x1="1169.5" x2="1446.5" y1="894.78" y2="894.78"/><ellipse cx="1179.5" cy="908.4284" fill="#84BE84" rx="3" ry="3" style="stroke:#038048;stroke-width:1.0;"/><text fill="#000000" font-family="sans-serif" font-size="14" lengthAdjust="spacing" textLength="253" x="1188.5" y="911.7751">String getPumpPowerConsumption()</text><ellipse cx="1179.5" cy="924.7253" fill="#84BE84" rx="3" ry="3" style="stroke:#038048;stroke-width:1.0;"/><text fill="#000000" font-family="sans-serif" font-size="14" lengthAdjust="spacing" textLength="108" x="1188.5" y="928.072">String getFlow()</text><ellipse cx="1179.5" cy="941.0222" fill="#84BE84" rx="3" ry="3" style="stroke:#038048;stroke-width:1.0;"/><text fill="#000000" font-family="sans-serif" font-size="14" lengthAdjust="spacing" textLength="140" x="1188.5" y="944.3689">Number getRainfall()</text></g><!--class Problem--><g id="elem_Problem"><rect codeLine="58" fill="#F1F1F1" height="80.5938" id="Problem" rx="2.5" ry="2.5" style="stroke:#181818;stroke-width:0.5;" width="243" x="1504.5" y="862.93"/><ellipse cx="1593.25" cy="878.93" fill="#ADD1B2" rx="11" ry="11" style="stroke:#181818;stroke-width:1.0;"/><path d="M1596.2188,884.5706 Q1595.6406,884.8675 1595,885.0081 Q1594.3594,885.1644 1593.6563,885.1644 Q1591.1563,885.1644 1589.8281,883.5238 Q1588.5156,881.8675 1588.5156,878.7425 Q1588.5156,875.6175 1589.8281,873.9613 Q1591.1563,872.305 1593.6563,872.305 Q1594.3594,872.305 1595,872.4613 Q1595.6563,872.6175 1596.2188,872.9144 L1596.2188,875.6331 Q1595.5938,875.055 1595,874.7894 Q1594.4063,874.5081 1593.7813,874.5081 Q1592.4375,874.5081 1591.75,875.5863 Q1591.0625,876.6488 1591.0625,878.7425 Q1591.0625,880.8363 1591.75,881.9144 Q1592.4375,882.9769 1593.7813,882.9769 Q1594.4063,882.9769 1595,882.7113 Q1595.5938,882.43 1596.2188,881.8519 L1596.2188,884.5706 Z " fill="#000000"/><text fill="#000000" font-family="sans-serif" font-size="14" lengthAdjust="spacing" textLength="57" x="1613.75" y="883.7767">Problem</text><line style="stroke:#181818;stroke-width:0.5;" x1="1505.5" x2="1746.5" y1="894.93" y2="894.93"/><line style="stroke:#181818;stroke-width:0.5;" x1="1505.5" x2="1746.5" y1="902.93" y2="902.93"/><ellipse cx="1515.5" cy="916.5784" fill="#84BE84" rx="3" ry="3" style="stroke:#038048;stroke-width:1.0;"/><text fill="#000000" font-family="sans-serif" font-size="14" lengthAdjust="spacing" textLength="130" x="1524.5" y="919.9251">String getReason()</text><ellipse cx="1515.5" cy="932.8753" fill="#84BE84" rx="3" ry="3" style="stroke:#038048;stroke-width:1.0;"/><text fill="#000000" font-family="sans-serif" font-size="14" lengthAdjust="spacing" textLength="217" x="1524.5" y="936.222">Number getOverflowIndication()</text></g><g id="elem_GMN39"><path d="M1999.5,288.58 L1999.5,313.7128 L2470.5,313.7128 L2470.5,298.58 L2460.5,288.58 L1999.5,288.58 " fill="#FEFFDD" style="stroke:#181818;stroke-width:0.5;"/><path d="M2460.5,288.58 L2460.5,298.58 L2470.5,298.58 L2460.5,288.58 " fill="#FEFFDD" style="stroke:#181818;stroke-width:1.0;"/><text fill="#000000" font-family="sans-serif" font-size="13" lengthAdjust="spacing" textLength="450" x="2005.5" y="305.6469">Frameworks and tools such as the Database, the Web Framework, etc.</text></g><g id="elem_GMN42"><path d="M2506,288.58 L2506,313.7128 L3612,313.7128 L3612,298.58 L3602,288.58 L2506,288.58 " fill="#FEFFDD" style="stroke:#181818;stroke-width:0.5;"/><path d="M3602,288.58 L3602,298.58 L3612,298.58 L3602,288.58 " fill="#FEFFDD" style="stroke:#181818;stroke-width:1.0;"/><text fill="#000000" font-family="sans-serif" font-size="13" lengthAdjust="spacing" textLength="1085" x="2512" y="305.6469">Convert data from the format most convenient for the use cases and entities, to the format most convenient for some external agency such as the Database or the Web.</text></g><g id="elem_GMN45"><path d="M3646.5,288.58 L3646.5,313.7128 L4319.5,313.7128 L4319.5,298.58 L4309.5,288.58 L3646.5,288.58 " fill="#FEFFDD" style="stroke:#181818;stroke-width:0.5;"/><path d="M4309.5,288.58 L4309.5,298.58 L4319.5,298.58 L4309.5,288.58 " fill="#FEFFDD" style="stroke:#181818;stroke-width:1.0;"/><text fill="#000000" font-family="sans-serif" font-size="13" lengthAdjust="spacing" textLength="652" x="3652.5" y="305.6469">Application specific business rules. It encapsulates and implements all of the use cases of the system.</text></g><g id="elem_GMN48"><path d="M4354.5,288.58 L4354.5,313.7128 L5293.5,313.7128 L5293.5,298.58 L5283.5,288.58 L4354.5,288.58 " fill="#FEFFDD" style="stroke:#181818;stroke-width:0.5;"/><path d="M5283.5,288.58 L5283.5,298.58 L5293.5,298.58 L5283.5,288.58 " fill="#FEFFDD" style="stroke:#181818;stroke-width:1.0;"/><text fill="#000000" font-family="sans-serif" font-size="13" lengthAdjust="spacing" textLength="918" x="4360.5" y="305.6469">Entities encapsulate Enterprise wide business rules. An entity can be an object with methods, or it can be a set of data structures and functions.</text></g><!--link drivers to GMN39--><g id="link_drivers_GMN39"><path d="M1972.0634,301.67 C1972.103,301.67 1972.1428,301.67 1972.1826,301.67 C1972.2624,301.67 1972.3427,301.67 1972.4235,301.67 C1972.7468,301.67 1973.0787,301.67 1973.4189,301.67 C1974.0994,301.67 1974.8134,301.67 1975.56,301.67 C1981.5325,301.67 1989.585,301.67 1999.16,301.67 " fill="none" id="drivers-GMN39" style="stroke:#181818;stroke-width:1.0;stroke-dasharray:7.0,7.0;"/></g><!--link adapters to GMN42--><g id="link_adapters_GMN42"><path d="M1924.0895,320.67 C1924.674,320.67 1925.2885,320.67 1925.9325,320.67 C1927.2204,320.67 1928.6262,320.67 1930.1456,320.67 C1933.1843,320.67 1936.677,320.67 1940.5889,320.67 C1956.2363,320.67 1978.5898,320.67 2005.4141,320.67 C2059.0625,320.67 2130.5938,320.67 2202.125,320.67 C2345.1875,320.67 2488.25,320.67 2488.25,320.67 C2488.25,320.67 2488.25,301.67 2488.25,301.67 C2488.25,301.67 2494.48,301.67 2505.64,301.67 " fill="none" id="adapters-GMN42" style="stroke:#181818;stroke-width:1.0;stroke-dasharray:7.0,7.0;"/></g><!--link use_cases to GMN45--><g id="link_use_cases_GMN45"><path d="M1877.4296,279.67 C1878.67,279.67 1880.0295,279.67 1881.506,279.67 C1884.4589,279.67 1887.8798,279.67 1891.7524,279.67 C1907.2432,279.67 1929.9629,279.67 1958.8789,279.67 C2016.7109,279.67 2099.3281,279.67 2198.4688,279.67 C2396.75,279.67 2661.125,279.67 2925.5,279.67 C3454.25,279.67 3983,279.67 3983,279.67 C3983,279.67 3983,283.78 3983,288.41 " fill="none" id="use_cases-GMN45" style="stroke:#181818;stroke-width:1.0;stroke-dasharray:7.0,7.0;"/></g><!--link entities to GMN48--><g id="link_entities_GMN48"><path d="M1828.6174,327.67 C1834.3013,327.67 1842.7354,327.67 1853.7363,327.67 C1875.7383,327.67 1908.0078,327.67 1949.0781,327.67 C2031.2188,327.67 2148.5625,327.67 2289.375,327.67 C2571,327.67 2946.5,327.67 3322,327.67 C4073,327.67 4824,327.67 4824,327.67 C4824,327.67 4824,320.83 4824,314.1 " fill="none" id="entities-GMN48" style="stroke:#181818;stroke-width:1.0;stroke-dasharray:7.0,7.0;"/></g><!--link SewerOverflowIndicationService to SewerOverflowIndicationComponent--><g id="link_SewerOverflowIndicationService_SewerOverflowIndicationComponent"><path codeLine="74" d="M777,333.48 C777,351.75 777,368.53 777,386.84 " fill="none" id="SewerOverflowIndicationService-to-SewerOverflowIndicationComponent" style="stroke:#181818;stroke-width:1.0;"/><polygon fill="#181818" points="777,392.84,781,383.84,777,387.84,773,383.84,777,392.84" style="stroke:#181818;stroke-width:1.0;"/></g><!--link SewerOverflowIndicationComponent to Sewers--><g id="link_SewerOverflowIndicationComponent_Sewers"><path codeLine="75" d="M918.36,425.67 C1119.25,425.67 1463.25,425.67 1463.25,425.67 C1463.25,425.67 1463.25,699.67 1463.25,699.67 C1463.25,699.67 1466.34,699.67 1479.77,699.67 " fill="none" id="SewerOverflowIndicationComponent-to-Sewers" style="stroke:#181818;stroke-width:1.0;"/><polygon fill="#181818" points="1485.77,699.67,1476.77,695.67,1480.77,699.67,1476.77,703.67,1485.77,699.67" style="stroke:#181818;stroke-width:1.0;"/></g><!--link SewerOverflowIndicationComponent to RainIndicationComponent--><g id="link_SewerOverflowIndicationComponent_RainIndicationComponent"><path codeLine="76" d="M858.25,457.92 C858.25,510.6 858.25,608.09 858.25,660.75 " fill="none" id="SewerOverflowIndicationComponent-to-RainIndicationComponent" style="stroke:#181818;stroke-width:1.0;"/><polygon fill="#181818" points="858.25,666.75,862.25,657.75,858.25,661.75,854.25,657.75,858.25,666.75" style="stroke:#181818;stroke-width:1.0;"/></g><!--link SewerOverflowIndicationComponent to PumpIndicationComponent--><g id="link_SewerOverflowIndicationComponent_PumpIndicationComponent"><path codeLine="77" d="M699.75,457.92 C699.75,510.6 699.75,608.09 699.75,660.75 " fill="none" id="SewerOverflowIndicationComponent-to-PumpIndicationComponent" style="stroke:#181818;stroke-width:1.0;"/><polygon fill="#181818" points="699.75,666.75,703.75,657.75,699.75,661.75,695.75,657.75,699.75,666.75" style="stroke:#181818;stroke-width:1.0;"/></g><!--link SewerOverflowIndicationComponent to FlowIndicationComponent--><g id="link_SewerOverflowIndicationComponent_FlowIndicationComponent"><path codeLine="78" d="M635.58,425.67 C504.95,425.67 331,425.67 331,425.67 C331,425.67 331,588.28 331,660.74 " fill="none" id="SewerOverflowIndicationComponent-to-FlowIndicationComponent" style="stroke:#181818;stroke-width:1.0;"/><polygon fill="#181818" points="331,666.74,335,657.74,331,661.74,327,657.74,331,666.74" style="stroke:#181818;stroke-width:1.0;"/></g><!--link SewerObservationService to SewerObservationComponent--><g id="link_SewerObservationService_SewerObservationComponent"><path codeLine="79" d="M1596,333.48 C1596,351.75 1596,368.53 1596,386.84 " fill="none" id="SewerObservationService-to-SewerObservationComponent" style="stroke:#181818;stroke-width:1.0;"/><polygon fill="#181818" points="1596,392.84,1600,383.84,1596,387.84,1592,383.84,1596,392.84" style="stroke:#181818;stroke-width:1.0;"/></g><!--link SewerObservationComponent to Sewers--><g id="link_SewerObservationComponent_Sewers"><path codeLine="80" d="M1596,457.92 C1596,508.06 1596,598.2 1596,652.76 " fill="none" id="SewerObservationComponent-to-Sewers" style="stroke:#181818;stroke-width:1.0;"/><polygon fill="#181818" points="1596,658.76,1600,649.76,1596,653.76,1592,649.76,1596,658.76" style="stroke:#181818;stroke-width:1.0;"/></g><!--link Sewer to Problem--><g id="link_Sewer_Problem"><path codeLine="81" d="M1450.65,747.67 C1525.62,747.67 1605.25,747.67 1605.25,747.67 C1605.25,747.67 1605.25,810.67 1605.25,856.76 " fill="none" id="Sewer-to-Problem" style="stroke:#181818;stroke-width:1.0;"/><polygon fill="#181818" points="1605.25,862.76,1609.25,853.76,1605.25,857.76,1601.25,853.76,1605.25,862.76" style="stroke:#181818;stroke-width:1.0;"/></g><!--link Sewer to KeyPerformanceIndicator--><g id="link_Sewer_KeyPerformanceIndicator"><path codeLine="82" d="M1319.5,756.02 C1319.5,786.92 1319.5,818.74 1319.5,848.31 " fill="none" id="Sewer-to-KeyPerformanceIndicator" style="stroke:#181818;stroke-width:1.0;"/><polygon fill="#181818" points="1319.5,854.31,1323.5,845.31,1319.5,849.31,1315.5,845.31,1319.5,854.31" style="stroke:#181818;stroke-width:1.0;"/></g><!--SRC=[tLZVRzCm47xFNt6qBqMC224Uc8Gc8M1IXO2A2V687EVIcYPsP3ihrRJ_dRETf5ctR2squSTJM-VklkyxNyxdFYercnSCAeDJQL4Nc0fcSSRuaitHGCPoWv5P2baopGh8XKIxBX6KjWiLcOLQWI4_L6urAeCVf5fSeZR03AGOSrMKJAxZKYlhxMA3AzHnOpKsotMILmXNrsq4bhBIxXmYRit7BvzdMVAY6ugqVUFCuBwnuetZECjEsUbfDofAAwpuZQ1n6s6SyInDddMZ9wgIATFhtuyU2vaAJdiQjp77kIXk99ihQRNAZm4MDx77IZCvnoE9L8b1VJcCncsiWIG6oo44taIwJvvtMHyDCgxZ7_S52PRBKWoOt2xQW0c-2tR899DdacCnOAAt4GTCTX_q7GcFUCwCWT65S_n4yRDShQQXbmebBwZV28wZepJe-p7XAW9uSgb42hxhJJwmyjM5rKBEJo1ydZsEhXi1vpTYl26YIXBsw9X7Izm3sg6EFv1NzY7oiwee1oVV0xet-SzCoC79zu3kJRwd1WTIyH3wByhnOyAXtzzRmqSFLk1yWVQLDpYhtzx0zHwg1qrvtwGKzwBUejqaV4DSk7jAnaXY86z6Xvy_Gk101gvOOgnct5vtUDNI9b- -JDy-tZBpbTAKsyGxR6TyTEoPAKW82Xn7cAETfXDFzJskPvH2fGicETO5hxGpUL-AOEEapi81TkOUrDzDU5gV1vlLhdb7Qm_IQ8Y19kwJ6KhCrvDNHWrufYZO6oKDVNVrMEUWjN4dJ5ZxM1K9-bIvtaVNutpIFK522aP3pH1n3RYjwJCoqwZOCBxTuZntgIo25lE51PNjG3iwrwp0bT9BklpA5AnIkG5JyOMJRHS8Rvbb2SavyR- -OWAjomcWvN64vETmzmPlSnRHTj62XPJ08DEgy61-koqKobWtIrwY5AwjqB9_J8c6-hy0Oj0actYgXxoDea4LVn2qP3IUpb7ozPsYeOOYsOVGkQcDw7LPvlN6WIcHYqnmI2eZ95BnwIgdie6f9LcSbQRAgVi4dQ8egKX82VtCSqVWPYxg1RCsbchjeAJRWexUDNztTEZ1EzVCIos8oagaU4lDQzbCvPn9I93aKElzZjoIlLr0WNQXKjf0IhgmhP7hJPwogmtgoXMtbQwJaLMIknIQZj2XX-gdJy_-t3WJ_Rb1wW2wxpof_sr9Uy_N_wlSdhlG_oht_3ZlvyvNX0E8st_2ZuQ_K_ojNMUN0VvWt7US9FyfJRym_Vy4]--></g></svg>