<svg xmlns="http://www.w3.org/2000/svg" xmlns:xlink="http://www.w3.org/1999/xlink" contentStyleType="text/css" height="2131px" preserveAspectRatio="none" style="width:3817px;height:2131px;background:#FFFFFF;" version="1.1" viewBox="0 0 3817 2131" width="3817px" zoomAndPan="magnify"><defs/><g><!--cluster drivers--><g id="cluster_drivers"><path d="M8.5,6 L304.5,6 A3.75,3.75 0 0 1 307,8.5 L314,28.2969 L3495.5,28.2969 A2.5,2.5 0 0 1 3498,30.7969 L3498,2121.95 A2.5,2.5 0 0 1 3495.5,2124.45 L8.5,2124.45 A2.5,2.5 0 0 1 6,2121.95 L6,8.5 A2.5,2.5 0 0 1 8.5,6 " fill="#87CEEB" style="stroke:#000000;stroke-width:1.5;"/><line style="stroke:#000000;stroke-width:1.5;" x1="6" x2="314" y1="28.2969" y2="28.2969"/><text fill="#000000" font-family="sans-serif" font-size="14" font-weight="bold" lengthAdjust="spacing" textLength="295" x="10" y="20.9951">de.company.prototype.sewer.drivers</text></g><!--cluster adapters--><g id="cluster_adapters"><path d="M32.5,255.29 L103.5,255.29 A3.75,3.75 0 0 1 106,257.79 L113,277.5869 L2263.5,277.5869 A2.5,2.5 0 0 1 2266,280.0869 L2266,1851.36 A2.5,2.5 0 0 1 2263.5,1853.86 L32.5,1853.86 A2.5,2.5 0 0 1 30,1851.36 L30,257.79 A2.5,2.5 0 0 1 32.5,255.29 " fill="#82FFB4" style="stroke:#000000;stroke-width:1.5;"/><line style="stroke:#000000;stroke-width:1.5;" x1="30" x2="113" y1="277.5869" y2="277.5869"/><text fill="#000000" font-family="sans-serif" font-size="14" font-weight="bold" lengthAdjust="spacing" textLength="70" x="34" y="270.2851">adapters</text></g><!--cluster boundary--><g id="cluster_boundary"><path d="M809.5,298.29 L952.5,298.29 A3.75,3.75 0 0 1 955,300.79 L962,320.5869 L1030.5,320.5869 A2.5,2.5 0 0 1 1033,323.0869 L1033,411.09 A2.5,2.5 0 0 1 1030.5,413.59 L809.5,413.59 A2.5,2.5 0 0 1 807,411.09 L807,300.79 A2.5,2.5 0 0 1 809.5,298.29 " fill="#00FF00" style="stroke:#000000;stroke-width:1.5;"/><line style="stroke:#000000;stroke-width:1.5;" x1="807" x2="962" y1="320.5869" y2="320.5869"/><text fill="#000000" font-family="sans-serif" font-size="14" font-weight="bold" lengthAdjust="spacing" textLength="142" x="811" y="313.2851">indicate.boundary</text></g><!--cluster boundary--><g id="cluster_boundary"><path d="M1884.5,298.29 L2030.5,298.29 A3.75,3.75 0 0 1 2033,300.79 L2040,320.5869 L2123.5,320.5869 A2.5,2.5 0 0 1 2126,323.0869 L2126,411.09 A2.5,2.5 0 0 1 2123.5,413.59 L1884.5,413.59 A2.5,2.5 0 0 1 1882,411.09 L1882,300.79 A2.5,2.5 0 0 1 1884.5,298.29 " fill="#00FF00" style="stroke:#000000;stroke-width:1.5;"/><line style="stroke:#000000;stroke-width:1.5;" x1="1882" x2="2040" y1="320.5869" y2="320.5869"/><text fill="#000000" font-family="sans-serif" font-size="14" font-weight="bold" lengthAdjust="spacing" textLength="145" x="1886" y="313.2851">observe.boundary</text></g><!--cluster boundary--><g id="cluster_boundary"><path d="M1990.5,1523.67 L2130.5,1523.67 A3.75,3.75 0 0 1 2133,1526.17 L2140,1545.9669 L2239.5,1545.9669 A2.5,2.5 0 0 1 2242,1548.4669 L2242,1827.36 A2.5,2.5 0 0 1 2239.5,1829.86 L1990.5,1829.86 A2.5,2.5 0 0 1 1988,1827.36 L1988,1526.17 A2.5,2.5 0 0 1 1990.5,1523.67 " fill="#00FF00" style="stroke:#000000;stroke-width:1.5;"/><line style="stroke:#000000;stroke-width:1.5;" x1="1988" x2="2140" y1="1545.9669" y2="1545.9669"/><text fill="#000000" font-family="sans-serif" font-size="14" font-weight="bold" lengthAdjust="spacing" textLength="139" x="1992" y="1538.6651">sewers.boundary</text></g><!--cluster use_cases--><g id="cluster_use_cases"><path d="M56.5,437.59 L139.5,437.59 A3.75,3.75 0 0 1 142,440.09 L149,459.8869 L2239.5,459.8869 A2.5,2.5 0 0 1 2242,462.3869 L2242,1497.17 A2.5,2.5 0 0 1 2239.5,1499.67 L56.5,1499.67 A2.5,2.5 0 0 1 54,1497.17 L54,440.09 A2.5,2.5 0 0 1 56.5,437.59 " fill="#FF9A99" style="stroke:#000000;stroke-width:1.5;"/><line style="stroke:#000000;stroke-width:1.5;" x1="54" x2="149" y1="459.8869" y2="459.8869"/><text fill="#000000" font-family="sans-serif" font-size="14" font-weight="bold" lengthAdjust="spacing" textLength="82" x="58" y="452.5851">use_cases</text></g><!--cluster entities--><g id="cluster_entities"><path d="M80.5,619.89 L140.5,619.89 A3.75,3.75 0 0 1 143,622.39 L150,642.1869 L1937.5,642.1869 A2.5,2.5 0 0 1 1940,644.6869 L1940,1360.57 A2.5,2.5 0 0 1 1937.5,1363.07 L80.5,1363.07 A2.5,2.5 0 0 1 78,1360.57 L78,622.39 A2.5,2.5 0 0 1 80.5,619.89 " fill="#FCFDB0" style="stroke:#000000;stroke-width:1.5;"/><line style="stroke:#000000;stroke-width:1.5;" x1="78" x2="150" y1="642.1869" y2="642.1869"/><text fill="#000000" font-family="sans-serif" font-size="14" font-weight="bold" lengthAdjust="spacing" textLength="59" x="82" y="634.8851">entities</text></g><!--cluster boundary--><g id="cluster_boundary"><path d="M104.5,662.89 L247.5,662.89 A3.75,3.75 0 0 1 250,665.39 L257,685.1869 L1271.5,685.1869 A2.5,2.5 0 0 1 1274,687.6869 L1274,1173.28 A2.5,2.5 0 0 1 1271.5,1175.78 L104.5,1175.78 A2.5,2.5 0 0 1 102,1173.28 L102,665.39 A2.5,2.5 0 0 1 104.5,662.89 " fill="#00FF00" style="stroke:#000000;stroke-width:1.5;"/><line style="stroke:#000000;stroke-width:1.5;" x1="102" x2="257" y1="685.1869" y2="685.1869"/><text fill="#000000" font-family="sans-serif" font-size="14" font-weight="bold" lengthAdjust="spacing" textLength="142" x="106" y="677.8851">indicate.boundary</text></g><!--cluster control--><g id="cluster_control"><path d="M128.5,787.18 L185.5,787.18 A3.75,3.75 0 0 1 188,789.68 L195,809.4769 L1247.5,809.4769 A2.5,2.5 0 0 1 1250,811.9769 L1250,1149.28 A2.5,2.5 0 0 1 1247.5,1151.78 L128.5,1151.78 A2.5,2.5 0 0 1 126,1149.28 L126,789.68 A2.5,2.5 0 0 1 128.5,787.18 " fill="#FFA500" style="stroke:#000000;stroke-width:1.5;"/><line style="stroke:#000000;stroke-width:1.5;" x1="126" x2="195" y1="809.4769" y2="809.4769"/><text fill="#000000" font-family="sans-serif" font-size="14" font-weight="bold" lengthAdjust="spacing" textLength="56" x="130" y="802.1751">control</text></g><!--cluster boundary--><g id="cluster_boundary"><path d="M1598.5,662.89 L1744.5,662.89 A3.75,3.75 0 0 1 1747,665.39 L1754,685.1869 L1913.5,685.1869 A2.5,2.5 0 0 1 1916,687.6869 L1916,923.98 A2.5,2.5 0 0 1 1913.5,926.48 L1598.5,926.48 A2.5,2.5 0 0 1 1596,923.98 L1596,665.39 A2.5,2.5 0 0 1 1598.5,662.89 " fill="#00FF00" style="stroke:#000000;stroke-width:1.5;"/><line style="stroke:#000000;stroke-width:1.5;" x1="1596" x2="1754" y1="685.1869" y2="685.1869"/><text fill="#000000" font-family="sans-serif" font-size="14" font-weight="bold" lengthAdjust="spacing" textLength="145" x="1600" y="677.8851">observe.boundary</text></g><!--cluster control--><g id="cluster_control"><path d="M1622.5,787.18 L1679.5,787.18 A3.75,3.75 0 0 1 1682,789.68 L1689,809.4769 L1889.5,809.4769 A2.5,2.5 0 0 1 1892,811.9769 L1892,899.98 A2.5,2.5 0 0 1 1889.5,902.48 L1622.5,902.48 A2.5,2.5 0 0 1 1620,899.98 L1620,789.68 A2.5,2.5 0 0 1 1622.5,787.18 " fill="#FFA500" style="stroke:#000000;stroke-width:1.5;"/><line style="stroke:#000000;stroke-width:1.5;" x1="1620" x2="1689" y1="809.4769" y2="809.4769"/><text fill="#000000" font-family="sans-serif" font-size="14" font-weight="bold" lengthAdjust="spacing" textLength="56" x="1624" y="802.1751">control</text></g><!--cluster sewer--><g id="cluster_sewer"><path d="M1300.5,950.48 L1351.5,950.48 A3.75,3.75 0 0 1 1354,952.98 L1361,972.7769 L1913.5,972.7769 A2.5,2.5 0 0 1 1916,975.2769 L1916,1336.57 A2.5,2.5 0 0 1 1913.5,1339.07 L1300.5,1339.07 A2.5,2.5 0 0 1 1298,1336.57 L1298,952.98 A2.5,2.5 0 0 1 1300.5,950.48 " fill="none" style="stroke:#000000;stroke-width:1.5;"/><line style="stroke:#000000;stroke-width:1.5;" x1="1298" x2="1361" y1="972.7769" y2="972.7769"/><text fill="#000000" font-family="sans-serif" font-size="14" font-weight="bold" lengthAdjust="spacing" textLength="50" x="1302" y="965.4751">sewer</text></g><!--cluster boundary--><g id="cluster_boundary"><path d="M1324.5,993.48 L1400.5,993.48 A3.75,3.75 0 0 1 1403,995.98 L1410,1015.7769 L1889.5,1015.7769 A2.5,2.5 0 0 1 1892,1018.2769 L1892,1173.28 A2.5,2.5 0 0 1 1889.5,1175.78 L1324.5,1175.78 A2.5,2.5 0 0 1 1322,1173.28 L1322,995.98 A2.5,2.5 0 0 1 1324.5,993.48 " fill="#00FF00" style="stroke:#000000;stroke-width:1.5;"/><line style="stroke:#000000;stroke-width:1.5;" x1="1322" x2="1410" y1="1015.7769" y2="1015.7769"/><text fill="#000000" font-family="sans-serif" font-size="14" font-weight="bold" lengthAdjust="spacing" textLength="75" x="1326" y="1008.4751">boundary</text></g><!--cluster entity--><g id="cluster_entity"><path d="M1348.5,1036.48 L1455.5,1036.48 A3.75,3.75 0 0 1 1458,1038.98 L1465,1058.7769 L1633.5,1058.7769 A2.5,2.5 0 0 1 1636,1061.2769 L1636,1149.28 A2.5,2.5 0 0 1 1633.5,1151.78 L1348.5,1151.78 A2.5,2.5 0 0 1 1346,1149.28 L1346,1038.98 A2.5,2.5 0 0 1 1348.5,1036.48 " fill="#FCFDB0" style="stroke:#000000;stroke-width:1.5;"/><line style="stroke:#000000;stroke-width:1.5;" x1="1346" x2="1465" y1="1058.7769" y2="1058.7769"/><text fill="#000000" font-family="sans-serif" font-size="14" font-weight="bold" lengthAdjust="spacing" textLength="106" x="1350" y="1051.4751">control.entity</text></g><!--cluster entity--><g id="cluster_entity"><path d="M1343.5,1216.07 L1558.5,1216.07 A3.75,3.75 0 0 1 1561,1218.57 L1568,1238.3669 L1574.5,1238.3669 A2.5,2.5 0 0 1 1577,1240.8669 L1577,1312.57 A2.5,2.5 0 0 1 1574.5,1315.07 L1343.5,1315.07 A2.5,2.5 0 0 1 1341,1312.57 L1341,1218.57 A2.5,2.5 0 0 1 1343.5,1216.07 " fill="#FCFDB0" style="stroke:#000000;stroke-width:1.5;"/><line style="stroke:#000000;stroke-width:1.5;" x1="1341" x2="1568" y1="1238.3669" y2="1238.3669"/><text fill="#000000" font-family="sans-serif" font-size="14" font-weight="bold" lengthAdjust="spacing" textLength="214" x="1345" y="1231.0651">kpi.boundary.control.entity</text></g><!--cluster entity--><g id="cluster_entity"><path d="M1603.5,1216.07 L1860.5,1216.07 A3.75,3.75 0 0 1 1863,1218.57 L1870,1238.3669 L1870.5,1238.3669 A2.5,2.5 0 0 1 1873,1240.8669 L1873,1312.57 A2.5,2.5 0 0 1 1870.5,1315.07 L1603.5,1315.07 A2.5,2.5 0 0 1 1601,1312.57 L1601,1218.57 A2.5,2.5 0 0 1 1603.5,1216.07 " fill="#FCFDB0" style="stroke:#000000;stroke-width:1.5;"/><line style="stroke:#000000;stroke-width:1.5;" x1="1601" x2="1870" y1="1238.3669" y2="1238.3669"/><text fill="#000000" font-family="sans-serif" font-size="14" font-weight="bold" lengthAdjust="spacing" textLength="256" x="1605" y="1231.0651">problem.boundary.control.entity</text></g><!--cluster boundary--><g id="cluster_boundary"><path d="M805.5,480.59 L948.5,480.59 A3.75,3.75 0 0 1 951,483.09 L958,502.8869 L1034.5,502.8869 A2.5,2.5 0 0 1 1037,505.3869 L1037,593.39 A2.5,2.5 0 0 1 1034.5,595.89 L805.5,595.89 A2.5,2.5 0 0 1 803,593.39 L803,483.09 A2.5,2.5 0 0 1 805.5,480.59 " fill="#00FF00" style="stroke:#000000;stroke-width:1.5;"/><line style="stroke:#000000;stroke-width:1.5;" x1="803" x2="958" y1="502.8869" y2="502.8869"/><text fill="#000000" font-family="sans-serif" font-size="14" font-weight="bold" lengthAdjust="spacing" textLength="142" x="807" y="495.5851">indicate.boundary</text></g><!--cluster boundary--><g id="cluster_boundary"><path d="M1811.5,480.59 L1957.5,480.59 A3.75,3.75 0 0 1 1960,483.09 L1967,502.8869 L2058.5,502.8869 A2.5,2.5 0 0 1 2061,505.3869 L2061,593.39 A2.5,2.5 0 0 1 2058.5,595.89 L1811.5,595.89 A2.5,2.5 0 0 1 1809,593.39 L1809,483.09 A2.5,2.5 0 0 1 1811.5,480.59 " fill="#00FF00" style="stroke:#000000;stroke-width:1.5;"/><line style="stroke:#000000;stroke-width:1.5;" x1="1809" x2="1967" y1="502.8869" y2="502.8869"/><text fill="#000000" font-family="sans-serif" font-size="14" font-weight="bold" lengthAdjust="spacing" textLength="145" x="1813" y="495.5851">observe.boundary</text></g><!--cluster boundary--><g id="cluster_boundary"><path d="M1966.5,1199.78 L2106.5,1199.78 A3.75,3.75 0 0 1 2109,1202.28 L2116,1222.0769 L2215.5,1222.0769 A2.5,2.5 0 0 1 2218,1224.5769 L2218,1473.17 A2.5,2.5 0 0 1 2215.5,1475.67 L1966.5,1475.67 A2.5,2.5 0 0 1 1964,1473.17 L1964,1202.28 A2.5,2.5 0 0 1 1966.5,1199.78 " fill="#00FF00" style="stroke:#000000;stroke-width:1.5;"/><line style="stroke:#000000;stroke-width:1.5;" x1="1964" x2="2116" y1="1222.0769" y2="1222.0769"/><text fill="#000000" font-family="sans-serif" font-size="14" font-weight="bold" lengthAdjust="spacing" textLength="139" x="1968" y="1214.7751">sewers.boundary</text></g><!--cluster boundary--><g id="cluster_boundary"><path d="M32.5,92 L204.5,92 A3.75,3.75 0 0 1 207,94.5 L214,114.2969 L899.5,114.2969 A2.5,2.5 0 0 1 902,116.7969 L902,204.79 A2.5,2.5 0 0 1 899.5,207.29 L32.5,207.29 A2.5,2.5 0 0 1 30,204.79 L30,94.5 A2.5,2.5 0 0 1 32.5,92 " fill="#00FF00" style="stroke:#000000;stroke-width:1.5;"/><line style="stroke:#000000;stroke-width:1.5;" x1="30" x2="214" y1="114.2969" y2="114.2969"/><text fill="#000000" font-family="sans-serif" font-size="14" font-weight="bold" lengthAdjust="spacing" textLength="171" x="34" y="106.9951">file.indicate.boundary</text></g><!--cluster persistence--><g id="cluster_persistence"><path d="M2292.5,1655.26 L2387.5,1655.26 A3.75,3.75 0 0 1 2390,1657.76 L2397,1677.5569 L3471.5,1677.5569 A2.5,2.5 0 0 1 3474,1680.0569 L3474,2097.95 A2.5,2.5 0 0 1 3471.5,2100.45 L2292.5,2100.45 A2.5,2.5 0 0 1 2290,2097.95 L2290,1657.76 A2.5,2.5 0 0 1 2292.5,1655.26 " fill="#FFFFFF" style="stroke:#000000;stroke-width:1.5;"/><line style="stroke:#000000;stroke-width:1.5;" x1="2290" x2="2397" y1="1677.5569" y2="1677.5569"/><text fill="#000000" font-family="sans-serif" font-size="14" font-weight="bold" lengthAdjust="spacing" textLength="94" x="2294" y="1670.2551">persistence</text></g><!--cluster aws--><g id="cluster_aws"><path d="M2594.5,1877.86 L2627.5,1877.86 A3.75,3.75 0 0 1 2630,1880.36 L2637,1900.1569 L3169.5,1900.1569 A2.5,2.5 0 0 1 3172,1902.6569 L3172,2073.95 A2.5,2.5 0 0 1 3169.5,2076.45 L2594.5,2076.45 A2.5,2.5 0 0 1 2592,2073.95 L2592,1880.36 A2.5,2.5 0 0 1 2594.5,1877.86 " fill="#F0A238" style="stroke:#000000;stroke-width:1.5;"/><line style="stroke:#000000;stroke-width:1.5;" x1="2592" x2="2637" y1="1900.1569" y2="1900.1569"/><text fill="#000000" font-family="sans-serif" font-size="14" font-weight="bold" lengthAdjust="spacing" textLength="32" x="2596" y="1892.8551">aws</text></g><!--cluster boundary--><g id="cluster_boundary"><path d="M2618.5,1920.86 L2825.5,1920.86 A3.75,3.75 0 0 1 2828,1923.36 L2835,1943.1569 L2867.5,1943.1569 A2.5,2.5 0 0 1 2870,1945.6569 L2870,2049.95 A2.5,2.5 0 0 1 2867.5,2052.45 L2618.5,2052.45 A2.5,2.5 0 0 1 2616,2049.95 L2616,1923.36 A2.5,2.5 0 0 1 2618.5,1920.86 " fill="#00FF00" style="stroke:#000000;stroke-width:1.5;"/><line style="stroke:#000000;stroke-width:1.5;" x1="2616" x2="2835" y1="1943.1569" y2="1943.1569"/><text fill="#000000" font-family="sans-serif" font-size="14" font-weight="bold" lengthAdjust="spacing" textLength="206" x="2620" y="1935.8551">dynamo.sewers.boundary</text></g><!--cluster boundary--><g id="cluster_boundary"><path d="M2896.5,1920.86 L3060.5,1920.86 A3.75,3.75 0 0 1 3063,1923.36 L3070,1943.1569 L3145.5,1943.1569 A2.5,2.5 0 0 1 3148,1945.6569 L3148,2049.95 A2.5,2.5 0 0 1 3145.5,2052.45 L2896.5,2052.45 A2.5,2.5 0 0 1 2894,2049.95 L2894,1923.36 A2.5,2.5 0 0 1 2896.5,1920.86 " fill="#00FF00" style="stroke:#000000;stroke-width:1.5;"/><line style="stroke:#000000;stroke-width:1.5;" x1="2894" x2="3070" y1="1943.1569" y2="1943.1569"/><text fill="#000000" font-family="sans-serif" font-size="14" font-weight="bold" lengthAdjust="spacing" textLength="163" x="2898" y="1935.8551">s3.sewers.boundary</text></g><!--cluster boundary--><g id="cluster_boundary"><path d="M3198.5,1920.86 L3367.5,1920.86 A3.75,3.75 0 0 1 3370,1923.36 L3377,1943.1569 L3447.5,1943.1569 A2.5,2.5 0 0 1 3450,1945.6569 L3450,2049.95 A2.5,2.5 0 0 1 3447.5,2052.45 L3198.5,2052.45 A2.5,2.5 0 0 1 3196,2049.95 L3196,1923.36 A2.5,2.5 0 0 1 3198.5,1920.86 " fill="#00FF00" style="stroke:#000000;stroke-width:1.5;"/><line style="stroke:#000000;stroke-width:1.5;" x1="3196" x2="3377" y1="1943.1569" y2="1943.1569"/><text fill="#000000" font-family="sans-serif" font-size="14" font-weight="bold" lengthAdjust="spacing" textLength="168" x="3200" y="1935.8551">file.sewers.boundary</text></g><!--cluster boundary--><g id="cluster_boundary"><path d="M2615.5,1698.26 L2860.5,1698.26 A3.75,3.75 0 0 1 2863,1700.76 L2870,1720.5569 L2870.5,1720.5569 A2.5,2.5 0 0 1 2873,1723.0569 L2873,1827.36 A2.5,2.5 0 0 1 2870.5,1829.86 L2615.5,1829.86 A2.5,2.5 0 0 1 2613,1827.36 L2613,1700.76 A2.5,2.5 0 0 1 2615.5,1698.26 " fill="#00FF00" style="stroke:#000000;stroke-width:1.5;"/><line style="stroke:#000000;stroke-width:1.5;" x1="2613" x2="2870" y1="1720.5569" y2="1720.5569"/><text fill="#000000" font-family="sans-serif" font-size="14" font-weight="bold" lengthAdjust="spacing" textLength="244" x="2617" y="1713.2551">orchestrator.sewers.boundary</text></g><!--cluster boundary--><g id="cluster_boundary"><path d="M2316.5,1920.86 L2528.5,1920.86 A3.75,3.75 0 0 1 2531,1923.36 L2538,1943.1569 L2565.5,1943.1569 A2.5,2.5 0 0 1 2568,1945.6569 L2568,2049.95 A2.5,2.5 0 0 1 2565.5,2052.45 L2316.5,2052.45 A2.5,2.5 0 0 1 2314,2049.95 L2314,1923.36 A2.5,2.5 0 0 1 2316.5,1920.86 " fill="#00FF00" style="stroke:#000000;stroke-width:1.5;"/><line style="stroke:#000000;stroke-width:1.5;" x1="2314" x2="2538" y1="1943.1569" y2="1943.1569"/><text fill="#000000" font-family="sans-serif" font-size="14" font-weight="bold" lengthAdjust="spacing" textLength="211" x="2318" y="1935.8551">panache.sewers.boundary</text></g><!--cluster rest--><g id="cluster_rest"><path d="M928.5,49 L961.5,49 A3.75,3.75 0 0 1 964,51.5 L971,71.2969 L2222.5,71.2969 A2.5,2.5 0 0 1 2225,73.7969 L2225,228.79 A2.5,2.5 0 0 1 2222.5,231.29 L928.5,231.29 A2.5,2.5 0 0 1 926,228.79 L926,51.5 A2.5,2.5 0 0 1 928.5,49 " fill="#FFFFFF" style="stroke:#000000;stroke-width:1.5;"/><line style="stroke:#000000;stroke-width:1.5;" x1="926" x2="971" y1="71.2969" y2="71.2969"/><text fill="#000000" font-family="sans-serif" font-size="14" font-weight="bold" lengthAdjust="spacing" textLength="32" x="930" y="63.9951">rest</text></g><!--cluster boundary--><g id="cluster_boundary"><path d="M952.5,92 L1095.5,92 A3.75,3.75 0 0 1 1098,94.5 L1105,114.2969 L1920.5,114.2969 A2.5,2.5 0 0 1 1923,116.7969 L1923,204.79 A2.5,2.5 0 0 1 1920.5,207.29 L952.5,207.29 A2.5,2.5 0 0 1 950,204.79 L950,94.5 A2.5,2.5 0 0 1 952.5,92 " fill="#00FF00" style="stroke:#000000;stroke-width:1.5;"/><line style="stroke:#000000;stroke-width:1.5;" x1="950" x2="1105" y1="114.2969" y2="114.2969"/><text fill="#000000" font-family="sans-serif" font-size="14" font-weight="bold" lengthAdjust="spacing" textLength="142" x="954" y="106.9951">indicate.boundary</text></g><!--cluster boundary--><g id="cluster_boundary"><path d="M1949.5,92 L2095.5,92 A3.75,3.75 0 0 1 2098,94.5 L2105,114.2969 L2198.5,114.2969 A2.5,2.5 0 0 1 2201,116.7969 L2201,204.79 A2.5,2.5 0 0 1 2198.5,207.29 L1949.5,207.29 A2.5,2.5 0 0 1 1947,204.79 L1947,94.5 A2.5,2.5 0 0 1 1949.5,92 " fill="#00FF00" style="stroke:#000000;stroke-width:1.5;"/><line style="stroke:#000000;stroke-width:1.5;" x1="1947" x2="2105" y1="114.2969" y2="114.2969"/><text fill="#000000" font-family="sans-serif" font-size="14" font-weight="bold" lengthAdjust="spacing" textLength="145" x="1951" y="106.9951">observe.boundary</text></g><!--cluster panache--><g id="cluster_panache"><path d="M3524.5,100.15 L3797.5,100.15 A3.75,3.75 0 0 1 3800,102.65 L3807,122.4469 L3807.5,122.4469 A2.5,2.5 0 0 1 3810,124.9469 L3810,196.65 A2.5,2.5 0 0 1 3807.5,199.15 L3524.5,199.15 A2.5,2.5 0 0 1 3522,196.65 L3522,102.65 A2.5,2.5 0 0 1 3524.5,100.15 " fill="#4695EB" style="stroke:#000000;stroke-width:1.5;"/><line style="stroke:#000000;stroke-width:1.5;" x1="3522" x2="3807" y1="122.4469" y2="122.4469"/><text fill="#000000" font-family="sans-serif" font-size="14" font-weight="bold" lengthAdjust="spacing" textLength="272" x="3526" y="115.1451">io.quarkus.hibernate.orm.panache</text></g><!--class SewerIndicationAdapter--><g id="elem_SewerIndicationAdapter"><rect codeLine="42" fill="#F1F1F1" height="64.2969" id="SewerIndicationAdapter" rx="2.5" ry="2.5" style="stroke:#181818;stroke-width:0.5;" width="195" x="822.5" y="333.29"/><ellipse cx="837.5" cy="349.29" fill="#ADD1B2" rx="11" ry="11" style="stroke:#181818;stroke-width:1.0;"/><path d="M840.4688,354.9306 Q839.8906,355.2275 839.25,355.3681 Q838.6094,355.5244 837.9063,355.5244 Q835.4063,355.5244 834.0781,353.8837 Q832.7656,352.2275 832.7656,349.1025 Q832.7656,345.9775 834.0781,344.3212 Q835.4063,342.665 837.9063,342.665 Q838.6094,342.665 839.25,342.8212 Q839.9063,342.9775 840.4688,343.2744 L840.4688,345.9931 Q839.8438,345.415 839.25,345.1494 Q838.6563,344.8681 838.0313,344.8681 Q836.6875,344.8681 836,345.9462 Q835.3125,347.0087 835.3125,349.1025 Q835.3125,351.1962 836,352.2744 Q836.6875,353.3369 838.0313,353.3369 Q838.6563,353.3369 839.25,353.0712 Q839.8438,352.79 840.4688,352.2119 L840.4688,354.9306 Z " fill="#000000"/><text fill="#000000" font-family="sans-serif" font-size="14" lengthAdjust="spacing" textLength="163" x="851.5" y="354.1367">SewerIndicationAdapter</text><line style="stroke:#181818;stroke-width:0.5;" x1="823.5" x2="1016.5" y1="365.29" y2="365.29"/><line style="stroke:#181818;stroke-width:0.5;" x1="823.5" x2="1016.5" y1="373.29" y2="373.29"/><ellipse cx="833.5" cy="386.9384" fill="#84BE84" rx="3" ry="3" style="stroke:#038048;stroke-width:1.0;"/><text fill="#000000" font-family="sans-serif" font-size="14" lengthAdjust="spacing" textLength="120" x="842.5" y="390.2851">void serve(String)</text></g><!--class SewerObservationAdapter--><g id="elem_SewerObservationAdapter"><rect codeLine="45" fill="#F1F1F1" height="64.2969" id="SewerObservationAdapter" rx="2.5" ry="2.5" style="stroke:#181818;stroke-width:0.5;" width="212" x="1898" y="333.29"/><ellipse cx="1913" cy="349.29" fill="#ADD1B2" rx="11" ry="11" style="stroke:#181818;stroke-width:1.0;"/><path d="M1915.9688,354.9306 Q1915.3906,355.2275 1914.75,355.3681 Q1914.1094,355.5244 1913.4063,355.5244 Q1910.9063,355.5244 1909.5781,353.8837 Q1908.2656,352.2275 1908.2656,349.1025 Q1908.2656,345.9775 1909.5781,344.3212 Q1910.9063,342.665 1913.4063,342.665 Q1914.1094,342.665 1914.75,342.8212 Q1915.4063,342.9775 1915.9688,343.2744 L1915.9688,345.9931 Q1915.3438,345.415 1914.75,345.1494 Q1914.1563,344.8681 1913.5313,344.8681 Q1912.1875,344.8681 1911.5,345.9462 Q1910.8125,347.0087 1910.8125,349.1025 Q1910.8125,351.1962 1911.5,352.2744 Q1912.1875,353.3369 1913.5313,353.3369 Q1914.1563,353.3369 1914.75,353.0712 Q1915.3438,352.79 1915.9688,352.2119 L1915.9688,354.9306 Z " fill="#000000"/><text fill="#000000" font-family="sans-serif" font-size="14" lengthAdjust="spacing" textLength="180" x="1927" y="354.1367">SewerObservationAdapter</text><line style="stroke:#181818;stroke-width:0.5;" x1="1899" x2="2109" y1="365.29" y2="365.29"/><line style="stroke:#181818;stroke-width:0.5;" x1="1899" x2="2109" y1="373.29" y2="373.29"/><ellipse cx="1909" cy="386.9384" fill="#84BE84" rx="3" ry="3" style="stroke:#038048;stroke-width:1.0;"/><text fill="#000000" font-family="sans-serif" font-size="14" lengthAdjust="spacing" textLength="184" x="1918" y="390.2851">Set&lt;Object&gt; serve(String)</text></g><!--class SewersAdapter--><g id="elem_SewersAdapter"><rect codeLine="48" fill="#F1F1F1" height="80.5938" id="SewersAdapter" rx="2.5" ry="2.5" style="stroke:#181818;stroke-width:0.5;" width="222" x="2004" y="1733.26"/><ellipse cx="2058.25" cy="1749.26" fill="#B4A7E5" rx="11" ry="11" style="stroke:#181818;stroke-width:1.0;"/><path d="M2054.1719,1745.0256 L2054.1719,1742.8694 L2061.5625,1742.8694 L2061.5625,1745.0256 L2059.0938,1745.0256 L2059.0938,1753.1037 L2061.5625,1753.1037 L2061.5625,1755.26 L2054.1719,1755.26 L2054.1719,1753.1037 L2056.6406,1753.1037 L2056.6406,1745.0256 L2054.1719,1745.0256 Z " fill="#000000"/><text fill="#000000" font-family="sans-serif" font-size="14" font-style="italic" lengthAdjust="spacing" textLength="105" x="2078.75" y="1754.1067">SewersAdapter</text><line style="stroke:#181818;stroke-width:0.5;" x1="2005" x2="2225" y1="1765.26" y2="1765.26"/><line style="stroke:#181818;stroke-width:0.5;" x1="2005" x2="2225" y1="1773.26" y2="1773.26"/><ellipse cx="2015" cy="1786.9084" fill="#84BE84" rx="3" ry="3" style="stroke:#038048;stroke-width:1.0;"/><text fill="#000000" font-family="sans-serif" font-size="14" font-style="italic" lengthAdjust="spacing" textLength="196" x="2024" y="1790.2551">Set&lt;Object&gt; observe(UUID)</text><ellipse cx="2015" cy="1803.2053" fill="#84BE84" rx="3" ry="3" style="stroke:#038048;stroke-width:1.0;"/><text fill="#000000" font-family="sans-serif" font-size="14" font-style="italic" lengthAdjust="spacing" textLength="183" x="2024" y="1806.552">void indicate(UUID, Object)</text></g><!--class SewersAdapterBridge--><g id="elem_SewersAdapterBridge"><rect codeLine="52" fill="#F1F1F1" height="80.5938" id="SewersAdapterBridge" rx="2.5" ry="2.5" style="stroke:#181818;stroke-width:0.5;" width="222" x="2004" y="1558.67"/><ellipse cx="2037" cy="1574.67" fill="#ADD1B2" rx="11" ry="11" style="stroke:#181818;stroke-width:1.0;"/><path d="M2039.9688,1580.3106 Q2039.3906,1580.6075 2038.75,1580.7481 Q2038.1094,1580.9044 2037.4063,1580.9044 Q2034.9063,1580.9044 2033.5781,1579.2637 Q2032.2656,1577.6075 2032.2656,1574.4825 Q2032.2656,1571.3575 2033.5781,1569.7012 Q2034.9063,1568.045 2037.4063,1568.045 Q2038.1094,1568.045 2038.75,1568.2012 Q2039.4063,1568.3575 2039.9688,1568.6544 L2039.9688,1571.3731 Q2039.3438,1570.795 2038.75,1570.5294 Q2038.1563,1570.2481 2037.5313,1570.2481 Q2036.1875,1570.2481 2035.5,1571.3262 Q2034.8125,1572.3887 2034.8125,1574.4825 Q2034.8125,1576.5762 2035.5,1577.6544 Q2036.1875,1578.7169 2037.5313,1578.7169 Q2038.1563,1578.7169 2038.75,1578.4512 Q2039.3438,1578.17 2039.9688,1577.5919 L2039.9688,1580.3106 Z " fill="#000000"/><text fill="#000000" font-family="sans-serif" font-size="14" lengthAdjust="spacing" textLength="150" x="2055" y="1579.5167">SewersAdapterBridge</text><line style="stroke:#181818;stroke-width:0.5;" x1="2005" x2="2225" y1="1590.67" y2="1590.67"/><line style="stroke:#181818;stroke-width:0.5;" x1="2005" x2="2225" y1="1598.67" y2="1598.67"/><ellipse cx="2015" cy="1612.3184" fill="#84BE84" rx="3" ry="3" style="stroke:#038048;stroke-width:1.0;"/><text fill="#000000" font-family="sans-serif" font-size="14" lengthAdjust="spacing" textLength="196" x="2024" y="1615.6651">Set&lt;Object&gt; observe(UUID)</text><ellipse cx="2015" cy="1628.6153" fill="#84BE84" rx="3" ry="3" style="stroke:#038048;stroke-width:1.0;"/><text fill="#000000" font-family="sans-serif" font-size="14" lengthAdjust="spacing" textLength="183" x="2024" y="1631.962">void indicate(UUID, Object)</text></g><!--class SewerOverflowIndicationService--><g id="elem_SewerOverflowIndicationService"><rect codeLine="56" fill="#F1F1F1" height="64.2969" id="SewerOverflowIndicationService" rx="2.5" ry="2.5" style="stroke:#181818;stroke-width:0.5;" width="250" x="795" y="697.89"/><ellipse cx="810" cy="713.89" fill="#ADD1B2" rx="11" ry="11" style="stroke:#181818;stroke-width:1.0;"/><path d="M812.9688,719.5306 Q812.3906,719.8275 811.75,719.9681 Q811.1094,720.1244 810.4063,720.1244 Q807.9063,720.1244 806.5781,718.4837 Q805.2656,716.8275 805.2656,713.7025 Q805.2656,710.5775 806.5781,708.9212 Q807.9063,707.265 810.4063,707.265 Q811.1094,707.265 811.75,707.4212 Q812.4063,707.5775 812.9688,707.8744 L812.9688,710.5931 Q812.3438,710.015 811.75,709.7494 Q811.1563,709.4681 810.5313,709.4681 Q809.1875,709.4681 808.5,710.5462 Q807.8125,711.6087 807.8125,713.7025 Q807.8125,715.7962 808.5,716.8744 Q809.1875,717.9369 810.5313,717.9369 Q811.1563,717.9369 811.75,717.6712 Q812.3438,717.39 812.9688,716.8119 L812.9688,719.5306 Z " fill="#000000"/><text fill="#000000" font-family="sans-serif" font-size="14" lengthAdjust="spacing" textLength="218" x="824" y="718.7367">SewerOverflowIndicationService</text><line style="stroke:#181818;stroke-width:0.5;" x1="796" x2="1044" y1="729.89" y2="729.89"/><line style="stroke:#181818;stroke-width:0.5;" x1="796" x2="1044" y1="737.89" y2="737.89"/><ellipse cx="806" cy="751.5384" fill="#84BE84" rx="3" ry="3" style="stroke:#038048;stroke-width:1.0;"/><text fill="#000000" font-family="sans-serif" font-size="14" lengthAdjust="spacing" textLength="221" x="815" y="754.8851">void serve(Map&lt;String, String&gt;)</text></g><!--class FlowIndicationComponent--><g id="elem_FlowIndicationComponent"><rect codeLine="59" fill="#F1F1F1" height="64.2969" id="FlowIndicationComponent" rx="2.5" ry="2.5" style="stroke:#181818;stroke-width:0.5;" width="341" x="893.5" y="1071.48"/><ellipse cx="970.25" cy="1087.48" fill="#ADD1B2" rx="11" ry="11" style="stroke:#181818;stroke-width:1.0;"/><path d="M973.2188,1093.1206 Q972.6406,1093.4175 972,1093.5581 Q971.3594,1093.7144 970.6563,1093.7144 Q968.1563,1093.7144 966.8281,1092.0737 Q965.5156,1090.4175 965.5156,1087.2925 Q965.5156,1084.1675 966.8281,1082.5112 Q968.1563,1080.855 970.6563,1080.855 Q971.3594,1080.855 972,1081.0112 Q972.6563,1081.1675 973.2188,1081.4644 L973.2188,1084.1831 Q972.5938,1083.605 972,1083.3394 Q971.4063,1083.0581 970.7813,1083.0581 Q969.4375,1083.0581 968.75,1084.1362 Q968.0625,1085.1987 968.0625,1087.2925 Q968.0625,1089.3862 968.75,1090.4644 Q969.4375,1091.5269 970.7813,1091.5269 Q971.4063,1091.5269 972,1091.2612 Q972.5938,1090.98 973.2188,1090.4019 L973.2188,1093.1206 Z " fill="#000000"/><text fill="#000000" font-family="sans-serif" font-size="14" lengthAdjust="spacing" textLength="179" x="990.75" y="1092.3267">FlowIndicationComponent</text><line style="stroke:#181818;stroke-width:0.5;" x1="894.5" x2="1233.5" y1="1103.48" y2="1103.48"/><line style="stroke:#181818;stroke-width:0.5;" x1="894.5" x2="1233.5" y1="1111.48" y2="1111.48"/><ellipse cx="904.5" cy="1125.1284" fill="#84BE84" rx="3" ry="3" style="stroke:#038048;stroke-width:1.0;"/><text fill="#000000" font-family="sans-serif" font-size="14" lengthAdjust="spacing" textLength="315" x="913.5" y="1128.4751">void execute(Map&lt;String, ? extends Object&gt;)</text></g><!--class PumpIndicationComponent--><g id="elem_PumpIndicationComponent"><rect codeLine="62" fill="#F1F1F1" height="64.2969" id="PumpIndicationComponent" rx="2.5" ry="2.5" style="stroke:#181818;stroke-width:0.5;" width="341" x="141.5" y="1071.48"/><ellipse cx="213.75" cy="1087.48" fill="#ADD1B2" rx="11" ry="11" style="stroke:#181818;stroke-width:1.0;"/><path d="M216.7188,1093.1206 Q216.1406,1093.4175 215.5,1093.5581 Q214.8594,1093.7144 214.1563,1093.7144 Q211.6563,1093.7144 210.3281,1092.0737 Q209.0156,1090.4175 209.0156,1087.2925 Q209.0156,1084.1675 210.3281,1082.5112 Q211.6563,1080.855 214.1563,1080.855 Q214.8594,1080.855 215.5,1081.0112 Q216.1563,1081.1675 216.7188,1081.4644 L216.7188,1084.1831 Q216.0938,1083.605 215.5,1083.3394 Q214.9063,1083.0581 214.2813,1083.0581 Q212.9375,1083.0581 212.25,1084.1362 Q211.5625,1085.1987 211.5625,1087.2925 Q211.5625,1089.3862 212.25,1090.4644 Q212.9375,1091.5269 214.2813,1091.5269 Q214.9063,1091.5269 215.5,1091.2612 Q216.0938,1090.98 216.7188,1090.4019 L216.7188,1093.1206 Z " fill="#000000"/><text fill="#000000" font-family="sans-serif" font-size="14" lengthAdjust="spacing" textLength="188" x="234.25" y="1092.3267">PumpIndicationComponent</text><line style="stroke:#181818;stroke-width:0.5;" x1="142.5" x2="481.5" y1="1103.48" y2="1103.48"/><line style="stroke:#181818;stroke-width:0.5;" x1="142.5" x2="481.5" y1="1111.48" y2="1111.48"/><ellipse cx="152.5" cy="1125.1284" fill="#84BE84" rx="3" ry="3" style="stroke:#038048;stroke-width:1.0;"/><text fill="#000000" font-family="sans-serif" font-size="14" lengthAdjust="spacing" textLength="315" x="161.5" y="1128.4751">void execute(Map&lt;String, ? extends Object&gt;)</text></g><!--class RainIndicationComponent--><g id="elem_RainIndicationComponent"><rect codeLine="65" fill="#F1F1F1" height="64.2969" id="RainIndicationComponent" rx="2.5" ry="2.5" style="stroke:#181818;stroke-width:0.5;" width="341" x="517.5" y="1071.48"/><ellipse cx="594.75" cy="1087.48" fill="#ADD1B2" rx="11" ry="11" style="stroke:#181818;stroke-width:1.0;"/><path d="M597.7188,1093.1206 Q597.1406,1093.4175 596.5,1093.5581 Q595.8594,1093.7144 595.1563,1093.7144 Q592.6563,1093.7144 591.3281,1092.0737 Q590.0156,1090.4175 590.0156,1087.2925 Q590.0156,1084.1675 591.3281,1082.5112 Q592.6563,1080.855 595.1563,1080.855 Q595.8594,1080.855 596.5,1081.0112 Q597.1563,1081.1675 597.7188,1081.4644 L597.7188,1084.1831 Q597.0938,1083.605 596.5,1083.3394 Q595.9063,1083.0581 595.2813,1083.0581 Q593.9375,1083.0581 593.25,1084.1362 Q592.5625,1085.1987 592.5625,1087.2925 Q592.5625,1089.3862 593.25,1090.4644 Q593.9375,1091.5269 595.2813,1091.5269 Q595.9063,1091.5269 596.5,1091.2612 Q597.0938,1090.98 597.7188,1090.4019 L597.7188,1093.1206 Z " fill="#000000"/><text fill="#000000" font-family="sans-serif" font-size="14" lengthAdjust="spacing" textLength="178" x="615.25" y="1092.3267">RainIndicationComponent</text><line style="stroke:#181818;stroke-width:0.5;" x1="518.5" x2="857.5" y1="1103.48" y2="1103.48"/><line style="stroke:#181818;stroke-width:0.5;" x1="518.5" x2="857.5" y1="1111.48" y2="1111.48"/><ellipse cx="528.5" cy="1125.1284" fill="#84BE84" rx="3" ry="3" style="stroke:#038048;stroke-width:1.0;"/><text fill="#000000" font-family="sans-serif" font-size="14" lengthAdjust="spacing" textLength="315" x="537.5" y="1128.4751">void execute(Map&lt;String, ? extends Object&gt;)</text></g><!--class SewerOverflowIndicationComponent--><g id="elem_SewerOverflowIndicationComponent"><rect codeLine="68" fill="#F1F1F1" height="64.2969" id="SewerOverflowIndicationComponent" rx="2.5" ry="2.5" style="stroke:#181818;stroke-width:0.5;" width="341" x="749.5" y="822.18"/><ellipse cx="791.05" cy="838.18" fill="#ADD1B2" rx="11" ry="11" style="stroke:#181818;stroke-width:1.0;"/><path d="M794.0188,843.8206 Q793.4406,844.1175 792.8,844.2581 Q792.1594,844.4144 791.4563,844.4144 Q788.9563,844.4144 787.6281,842.7737 Q786.3156,841.1175 786.3156,837.9925 Q786.3156,834.8675 787.6281,833.2112 Q788.9563,831.555 791.4563,831.555 Q792.1594,831.555 792.8,831.7112 Q793.4563,831.8675 794.0188,832.1644 L794.0188,834.8831 Q793.3938,834.305 792.8,834.0394 Q792.2063,833.7581 791.5813,833.7581 Q790.2375,833.7581 789.55,834.8362 Q788.8625,835.8987 788.8625,837.9925 Q788.8625,840.0862 789.55,841.1644 Q790.2375,842.2269 791.5813,842.2269 Q792.2063,842.2269 792.8,841.9612 Q793.3938,841.68 794.0188,841.1019 L794.0188,843.8206 Z " fill="#000000"/><text fill="#000000" font-family="sans-serif" font-size="14" lengthAdjust="spacing" textLength="250" x="810.95" y="843.0267">SewerOverflowIndicationComponent</text><line style="stroke:#181818;stroke-width:0.5;" x1="750.5" x2="1089.5" y1="854.18" y2="854.18"/><line style="stroke:#181818;stroke-width:0.5;" x1="750.5" x2="1089.5" y1="862.18" y2="862.18"/><ellipse cx="760.5" cy="875.8284" fill="#84BE84" rx="3" ry="3" style="stroke:#038048;stroke-width:1.0;"/><text fill="#000000" font-family="sans-serif" font-size="14" lengthAdjust="spacing" textLength="315" x="769.5" y="879.1751">void execute(Map&lt;String, ? extends Object&gt;)</text></g><!--class SewerObservationService--><g id="elem_SewerObservationService"><rect codeLine="71" fill="#F1F1F1" height="64.2969" id="SewerObservationService" rx="2.5" ry="2.5" style="stroke:#181818;stroke-width:0.5;" width="208" x="1672" y="697.89"/><ellipse cx="1687" cy="713.89" fill="#ADD1B2" rx="11" ry="11" style="stroke:#181818;stroke-width:1.0;"/><path d="M1689.9688,719.5306 Q1689.3906,719.8275 1688.75,719.9681 Q1688.1094,720.1244 1687.4063,720.1244 Q1684.9063,720.1244 1683.5781,718.4837 Q1682.2656,716.8275 1682.2656,713.7025 Q1682.2656,710.5775 1683.5781,708.9212 Q1684.9063,707.265 1687.4063,707.265 Q1688.1094,707.265 1688.75,707.4212 Q1689.4063,707.5775 1689.9688,707.8744 L1689.9688,710.5931 Q1689.3438,710.015 1688.75,709.7494 Q1688.1563,709.4681 1687.5313,709.4681 Q1686.1875,709.4681 1685.5,710.5462 Q1684.8125,711.6087 1684.8125,713.7025 Q1684.8125,715.7962 1685.5,716.8744 Q1686.1875,717.9369 1687.5313,717.9369 Q1688.1563,717.9369 1688.75,717.6712 Q1689.3438,717.39 1689.9688,716.8119 L1689.9688,719.5306 Z " fill="#000000"/><text fill="#000000" font-family="sans-serif" font-size="14" lengthAdjust="spacing" textLength="176" x="1701" y="718.7367">SewerObservationService</text><line style="stroke:#181818;stroke-width:0.5;" x1="1673" x2="1879" y1="729.89" y2="729.89"/><line style="stroke:#181818;stroke-width:0.5;" x1="1673" x2="1879" y1="737.89" y2="737.89"/><ellipse cx="1683" cy="751.5384" fill="#84BE84" rx="3" ry="3" style="stroke:#038048;stroke-width:1.0;"/><text fill="#000000" font-family="sans-serif" font-size="14" lengthAdjust="spacing" textLength="182" x="1692" y="754.8851">Set&lt;Sewer&gt; serve(String)</text></g><!--class SewerObservationComponent--><g id="elem_SewerObservationComponent"><rect codeLine="74" fill="#F1F1F1" height="64.2969" id="SewerObservationComponent" rx="2.5" ry="2.5" style="stroke:#181818;stroke-width:0.5;" width="240" x="1636" y="822.18"/><ellipse cx="1651" cy="838.18" fill="#ADD1B2" rx="11" ry="11" style="stroke:#181818;stroke-width:1.0;"/><path d="M1653.9688,843.8206 Q1653.3906,844.1175 1652.75,844.2581 Q1652.1094,844.4144 1651.4063,844.4144 Q1648.9063,844.4144 1647.5781,842.7737 Q1646.2656,841.1175 1646.2656,837.9925 Q1646.2656,834.8675 1647.5781,833.2112 Q1648.9063,831.555 1651.4063,831.555 Q1652.1094,831.555 1652.75,831.7112 Q1653.4063,831.8675 1653.9688,832.1644 L1653.9688,834.8831 Q1653.3438,834.305 1652.75,834.0394 Q1652.1563,833.7581 1651.5313,833.7581 Q1650.1875,833.7581 1649.5,834.8362 Q1648.8125,835.8987 1648.8125,837.9925 Q1648.8125,840.0862 1649.5,841.1644 Q1650.1875,842.2269 1651.5313,842.2269 Q1652.1563,842.2269 1652.75,841.9612 Q1653.3438,841.68 1653.9688,841.1019 L1653.9688,843.8206 Z " fill="#000000"/><text fill="#000000" font-family="sans-serif" font-size="14" lengthAdjust="spacing" textLength="208" x="1665" y="843.0267">SewerObservationComponent</text><line style="stroke:#181818;stroke-width:0.5;" x1="1637" x2="1875" y1="854.18" y2="854.18"/><line style="stroke:#181818;stroke-width:0.5;" x1="1637" x2="1875" y1="862.18" y2="862.18"/><ellipse cx="1647" cy="875.8284" fill="#84BE84" rx="3" ry="3" style="stroke:#038048;stroke-width:1.0;"/><text fill="#000000" font-family="sans-serif" font-size="14" lengthAdjust="spacing" textLength="200" x="1656" y="879.1751">Set&lt;Sewer&gt; execute(String)</text></g><!--class Sewers--><g id="elem_Sewers"><rect codeLine="77" fill="#F1F1F1" height="80.5938" id="Sewers" rx="2.5" ry="2.5" style="stroke:#181818;stroke-width:0.5;" width="220" x="1656" y="1063.33"/><ellipse cx="1736.25" cy="1079.33" fill="#B4A7E5" rx="11" ry="11" style="stroke:#181818;stroke-width:1.0;"/><path d="M1732.1719,1075.0956 L1732.1719,1072.9394 L1739.5625,1072.9394 L1739.5625,1075.0956 L1737.0938,1075.0956 L1737.0938,1083.1738 L1739.5625,1083.1738 L1739.5625,1085.33 L1732.1719,1085.33 L1732.1719,1083.1738 L1734.6406,1083.1738 L1734.6406,1075.0956 L1732.1719,1075.0956 Z " fill="#000000"/><text fill="#000000" font-family="sans-serif" font-size="14" font-style="italic" lengthAdjust="spacing" textLength="51" x="1756.75" y="1084.1767">Sewers</text><line style="stroke:#181818;stroke-width:0.5;" x1="1657" x2="1875" y1="1095.33" y2="1095.33"/><line style="stroke:#181818;stroke-width:0.5;" x1="1657" x2="1875" y1="1103.33" y2="1103.33"/><ellipse cx="1667" cy="1116.9784" fill="#84BE84" rx="3" ry="3" style="stroke:#038048;stroke-width:1.0;"/><text fill="#000000" font-family="sans-serif" font-size="14" font-style="italic" lengthAdjust="spacing" textLength="194" x="1676" y="1120.3251">Set&lt;Sewer&gt; observe(UUID)</text><ellipse cx="1667" cy="1133.2753" fill="#84BE84" rx="3" ry="3" style="stroke:#038048;stroke-width:1.0;"/><text fill="#000000" font-family="sans-serif" font-size="14" font-style="italic" lengthAdjust="spacing" textLength="139" x="1676" y="1136.622">void indicate(Sewer)</text></g><!--class Sewer--><g id="elem_Sewer"><rect codeLine="81" fill="#F1F1F1" height="64.2969" id="Sewer" rx="2.5" ry="2.5" style="stroke:#181818;stroke-width:0.5;" width="259" x="1361.5" y="1071.48"/><ellipse cx="1465.25" cy="1087.48" fill="#ADD1B2" rx="11" ry="11" style="stroke:#181818;stroke-width:1.0;"/><path d="M1468.2188,1093.1206 Q1467.6406,1093.4175 1467,1093.5581 Q1466.3594,1093.7144 1465.6563,1093.7144 Q1463.1563,1093.7144 1461.8281,1092.0737 Q1460.5156,1090.4175 1460.5156,1087.2925 Q1460.5156,1084.1675 1461.8281,1082.5112 Q1463.1563,1080.855 1465.6563,1080.855 Q1466.3594,1080.855 1467,1081.0112 Q1467.6563,1081.1675 1468.2188,1081.4644 L1468.2188,1084.1831 Q1467.5938,1083.605 1467,1083.3394 Q1466.4063,1083.0581 1465.7813,1083.0581 Q1464.4375,1083.0581 1463.75,1084.1362 Q1463.0625,1085.1987 1463.0625,1087.2925 Q1463.0625,1089.3862 1463.75,1090.4644 Q1464.4375,1091.5269 1465.7813,1091.5269 Q1466.4063,1091.5269 1467,1091.2612 Q1467.5938,1090.98 1468.2188,1090.4019 L1468.2188,1093.1206 Z " fill="#000000"/><text fill="#000000" font-family="sans-serif" font-size="14" lengthAdjust="spacing" textLength="43" x="1485.75" y="1092.3267">Sewer</text><line style="stroke:#181818;stroke-width:0.5;" x1="1362.5" x2="1619.5" y1="1103.48" y2="1103.48"/><line style="stroke:#181818;stroke-width:0.5;" x1="1362.5" x2="1619.5" y1="1111.48" y2="1111.48"/><ellipse cx="1372.5" cy="1125.1284" fill="#84BE84" rx="3" ry="3" style="stroke:#038048;stroke-width:1.0;"/><text fill="#000000" font-family="sans-serif" font-size="14" lengthAdjust="spacing" textLength="233" x="1381.5" y="1128.4751">void setProblems(Set&lt;Problem&gt;)</text></g><!--class KeyPerformanceIndicator--><g id="elem_KeyPerformanceIndicator"><rect codeLine="84" fill="#F1F1F1" height="48" id="KeyPerformanceIndicator" rx="2.5" ry="2.5" style="stroke:#181818;stroke-width:0.5;" width="204" x="1357" y="1251.07"/><ellipse cx="1372" cy="1267.07" fill="#ADD1B2" rx="11" ry="11" style="stroke:#181818;stroke-width:1.0;"/><path d="M1374.9688,1272.7106 Q1374.3906,1273.0075 1373.75,1273.1481 Q1373.1094,1273.3044 1372.4063,1273.3044 Q1369.9063,1273.3044 1368.5781,1271.6637 Q1367.2656,1270.0075 1367.2656,1266.8825 Q1367.2656,1263.7575 1368.5781,1262.1012 Q1369.9063,1260.445 1372.4063,1260.445 Q1373.1094,1260.445 1373.75,1260.6012 Q1374.4063,1260.7575 1374.9688,1261.0544 L1374.9688,1263.7731 Q1374.3438,1263.195 1373.75,1262.9294 Q1373.1563,1262.6481 1372.5313,1262.6481 Q1371.1875,1262.6481 1370.5,1263.7262 Q1369.8125,1264.7887 1369.8125,1266.8825 Q1369.8125,1268.9762 1370.5,1270.0544 Q1371.1875,1271.1169 1372.5313,1271.1169 Q1373.1563,1271.1169 1373.75,1270.8512 Q1374.3438,1270.57 1374.9688,1269.9919 L1374.9688,1272.7106 Z " fill="#000000"/><text fill="#000000" font-family="sans-serif" font-size="14" lengthAdjust="spacing" textLength="172" x="1386" y="1271.9167">KeyPerformanceIndicator</text><line style="stroke:#181818;stroke-width:0.5;" x1="1358" x2="1560" y1="1283.07" y2="1283.07"/><line style="stroke:#181818;stroke-width:0.5;" x1="1358" x2="1560" y1="1291.07" y2="1291.07"/></g><!--class Problem--><g id="elem_Problem"><rect codeLine="86" fill="#F1F1F1" height="48" id="Problem" rx="2.5" ry="2.5" style="stroke:#181818;stroke-width:0.5;" width="89" x="1616.5" y="1251.07"/><ellipse cx="1631.5" cy="1267.07" fill="#ADD1B2" rx="11" ry="11" style="stroke:#181818;stroke-width:1.0;"/><path d="M1634.4688,1272.7106 Q1633.8906,1273.0075 1633.25,1273.1481 Q1632.6094,1273.3044 1631.9063,1273.3044 Q1629.4063,1273.3044 1628.0781,1271.6637 Q1626.7656,1270.0075 1626.7656,1266.8825 Q1626.7656,1263.7575 1628.0781,1262.1012 Q1629.4063,1260.445 1631.9063,1260.445 Q1632.6094,1260.445 1633.25,1260.6012 Q1633.9063,1260.7575 1634.4688,1261.0544 L1634.4688,1263.7731 Q1633.8438,1263.195 1633.25,1262.9294 Q1632.6563,1262.6481 1632.0313,1262.6481 Q1630.6875,1262.6481 1630,1263.7262 Q1629.3125,1264.7887 1629.3125,1266.8825 Q1629.3125,1268.9762 1630,1270.0544 Q1630.6875,1271.1169 1632.0313,1271.1169 Q1632.6563,1271.1169 1633.25,1270.8512 Q1633.8438,1270.57 1634.4688,1269.9919 L1634.4688,1272.7106 Z " fill="#000000"/><text fill="#000000" font-family="sans-serif" font-size="14" lengthAdjust="spacing" textLength="57" x="1645.5" y="1271.9167">Problem</text><line style="stroke:#181818;stroke-width:0.5;" x1="1617.5" x2="1704.5" y1="1283.07" y2="1283.07"/><line style="stroke:#181818;stroke-width:0.5;" x1="1617.5" x2="1704.5" y1="1291.07" y2="1291.07"/></g><!--class SewerIndicationUseCase--><g id="elem_SewerIndicationUseCase"><rect codeLine="88" fill="#F1F1F1" height="64.2969" id="SewerIndicationUseCase" rx="2.5" ry="2.5" style="stroke:#181818;stroke-width:0.5;" width="203" x="818.5" y="515.59"/><ellipse cx="833.5" cy="531.59" fill="#ADD1B2" rx="11" ry="11" style="stroke:#181818;stroke-width:1.0;"/><path d="M836.4688,537.2306 Q835.8906,537.5275 835.25,537.6681 Q834.6094,537.8244 833.9063,537.8244 Q831.4063,537.8244 830.0781,536.1837 Q828.7656,534.5275 828.7656,531.4025 Q828.7656,528.2775 830.0781,526.6212 Q831.4063,524.965 833.9063,524.965 Q834.6094,524.965 835.25,525.1212 Q835.9063,525.2775 836.4688,525.5744 L836.4688,528.2931 Q835.8438,527.715 835.25,527.4494 Q834.6563,527.1681 834.0313,527.1681 Q832.6875,527.1681 832,528.2462 Q831.3125,529.3087 831.3125,531.4025 Q831.3125,533.4962 832,534.5744 Q832.6875,535.6369 834.0313,535.6369 Q834.6563,535.6369 835.25,535.3712 Q835.8438,535.09 836.4688,534.5119 L836.4688,537.2306 Z " fill="#000000"/><text fill="#000000" font-family="sans-serif" font-size="14" lengthAdjust="spacing" textLength="171" x="847.5" y="536.4367">SewerIndicationUseCase</text><line style="stroke:#181818;stroke-width:0.5;" x1="819.5" x2="1020.5" y1="547.59" y2="547.59"/><line style="stroke:#181818;stroke-width:0.5;" x1="819.5" x2="1020.5" y1="555.59" y2="555.59"/><ellipse cx="829.5" cy="569.2384" fill="#84BE84" rx="3" ry="3" style="stroke:#038048;stroke-width:1.0;"/><text fill="#000000" font-family="sans-serif" font-size="14" lengthAdjust="spacing" textLength="120" x="838.5" y="572.5851">void serve(String)</text></g><!--class SewerObservationUseCase--><g id="elem_SewerObservationUseCase"><rect codeLine="91" fill="#F1F1F1" height="64.2969" id="SewerObservationUseCase" rx="2.5" ry="2.5" style="stroke:#181818;stroke-width:0.5;" width="220" x="1825" y="515.59"/><ellipse cx="1840" cy="531.59" fill="#ADD1B2" rx="11" ry="11" style="stroke:#181818;stroke-width:1.0;"/><path d="M1842.9688,537.2306 Q1842.3906,537.5275 1841.75,537.6681 Q1841.1094,537.8244 1840.4063,537.8244 Q1837.9063,537.8244 1836.5781,536.1837 Q1835.2656,534.5275 1835.2656,531.4025 Q1835.2656,528.2775 1836.5781,526.6212 Q1837.9063,524.965 1840.4063,524.965 Q1841.1094,524.965 1841.75,525.1212 Q1842.4063,525.2775 1842.9688,525.5744 L1842.9688,528.2931 Q1842.3438,527.715 1841.75,527.4494 Q1841.1563,527.1681 1840.5313,527.1681 Q1839.1875,527.1681 1838.5,528.2462 Q1837.8125,529.3087 1837.8125,531.4025 Q1837.8125,533.4962 1838.5,534.5744 Q1839.1875,535.6369 1840.5313,535.6369 Q1841.1563,535.6369 1841.75,535.3712 Q1842.3438,535.09 1842.9688,534.5119 L1842.9688,537.2306 Z " fill="#000000"/><text fill="#000000" font-family="sans-serif" font-size="14" lengthAdjust="spacing" textLength="188" x="1854" y="536.4367">SewerObservationUseCase</text><line style="stroke:#181818;stroke-width:0.5;" x1="1826" x2="2044" y1="547.59" y2="547.59"/><line style="stroke:#181818;stroke-width:0.5;" x1="1826" x2="2044" y1="555.59" y2="555.59"/><ellipse cx="1836" cy="569.2384" fill="#84BE84" rx="3" ry="3" style="stroke:#038048;stroke-width:1.0;"/><text fill="#000000" font-family="sans-serif" font-size="14" lengthAdjust="spacing" textLength="182" x="1845" y="572.5851">Set&lt;Sewer&gt; serve(String)</text></g><!--class SewersUseCase--><g id="elem_SewersUseCase"><rect codeLine="94" fill="#F1F1F1" height="80.5938" id="SewersUseCase" rx="2.5" ry="2.5" style="stroke:#181818;stroke-width:0.5;" width="222" x="1980" y="1379.07"/><ellipse cx="2030.25" cy="1395.07" fill="#B4A7E5" rx="11" ry="11" style="stroke:#181818;stroke-width:1.0;"/><path d="M2026.1719,1390.8356 L2026.1719,1388.6794 L2033.5625,1388.6794 L2033.5625,1390.8356 L2031.0938,1390.8356 L2031.0938,1398.9137 L2033.5625,1398.9137 L2033.5625,1401.07 L2026.1719,1401.07 L2026.1719,1398.9137 L2028.6406,1398.9137 L2028.6406,1390.8356 L2026.1719,1390.8356 Z " fill="#000000"/><text fill="#000000" font-family="sans-serif" font-size="14" font-style="italic" lengthAdjust="spacing" textLength="113" x="2050.75" y="1399.9167">SewersUseCase</text><line style="stroke:#181818;stroke-width:0.5;" x1="1981" x2="2201" y1="1411.07" y2="1411.07"/><line style="stroke:#181818;stroke-width:0.5;" x1="1981" x2="2201" y1="1419.07" y2="1419.07"/><ellipse cx="1991" cy="1432.7184" fill="#84BE84" rx="3" ry="3" style="stroke:#038048;stroke-width:1.0;"/><text fill="#000000" font-family="sans-serif" font-size="14" font-style="italic" lengthAdjust="spacing" textLength="196" x="2000" y="1436.0651">Set&lt;Object&gt; observe(UUID)</text><ellipse cx="1991" cy="1449.0153" fill="#84BE84" rx="3" ry="3" style="stroke:#038048;stroke-width:1.0;"/><text fill="#000000" font-family="sans-serif" font-size="14" font-style="italic" lengthAdjust="spacing" textLength="183" x="2000" y="1452.362">void indicate(UUID, Object)</text></g><!--class SewersUseCaseBridge--><g id="elem_SewersUseCaseBridge"><rect codeLine="98" fill="#F1F1F1" height="80.5938" id="SewersUseCaseBridge" rx="2.5" ry="2.5" style="stroke:#181818;stroke-width:0.5;" width="220" x="1980" y="1234.78"/><ellipse cx="2008.5" cy="1250.78" fill="#ADD1B2" rx="11" ry="11" style="stroke:#181818;stroke-width:1.0;"/><path d="M2011.4688,1256.4206 Q2010.8906,1256.7175 2010.25,1256.8581 Q2009.6094,1257.0144 2008.9063,1257.0144 Q2006.4063,1257.0144 2005.0781,1255.3737 Q2003.7656,1253.7175 2003.7656,1250.5925 Q2003.7656,1247.4675 2005.0781,1245.8112 Q2006.4063,1244.155 2008.9063,1244.155 Q2009.6094,1244.155 2010.25,1244.3112 Q2010.9063,1244.4675 2011.4688,1244.7644 L2011.4688,1247.4831 Q2010.8438,1246.905 2010.25,1246.6394 Q2009.6563,1246.3581 2009.0313,1246.3581 Q2007.6875,1246.3581 2007,1247.4362 Q2006.3125,1248.4987 2006.3125,1250.5925 Q2006.3125,1252.6862 2007,1253.7644 Q2007.6875,1254.8269 2009.0313,1254.8269 Q2009.6563,1254.8269 2010.25,1254.5612 Q2010.8438,1254.28 2011.4688,1253.7019 L2011.4688,1256.4206 Z " fill="#000000"/><text fill="#000000" font-family="sans-serif" font-size="14" lengthAdjust="spacing" textLength="158" x="2025.5" y="1255.6267">SewersUseCaseBridge</text><line style="stroke:#181818;stroke-width:0.5;" x1="1981" x2="2199" y1="1266.78" y2="1266.78"/><line style="stroke:#181818;stroke-width:0.5;" x1="1981" x2="2199" y1="1274.78" y2="1274.78"/><ellipse cx="1991" cy="1288.4284" fill="#84BE84" rx="3" ry="3" style="stroke:#038048;stroke-width:1.0;"/><text fill="#000000" font-family="sans-serif" font-size="14" lengthAdjust="spacing" textLength="194" x="2000" y="1291.7751">Set&lt;Sewer&gt; observe(UUID)</text><ellipse cx="1991" cy="1304.7253" fill="#84BE84" rx="3" ry="3" style="stroke:#038048;stroke-width:1.0;"/><text fill="#000000" font-family="sans-serif" font-size="14" lengthAdjust="spacing" textLength="139" x="2000" y="1308.072">void indicate(Sewer)</text></g><!--class JSONRainfallIndicationDriver--><g id="elem_JSONRainfallIndicationDriver"><rect codeLine="102" fill="#F1F1F1" height="64.2969" id="JSONRainfallIndicationDriver" rx="2.5" ry="2.5" style="stroke:#181818;stroke-width:0.5;" width="219" x="666.5" y="127"/><ellipse cx="681.5" cy="143" fill="#ADD1B2" rx="11" ry="11" style="stroke:#181818;stroke-width:1.0;"/><path d="M684.4688,148.6406 Q683.8906,148.9375 683.25,149.0781 Q682.6094,149.2344 681.9063,149.2344 Q679.4063,149.2344 678.0781,147.5937 Q676.7656,145.9375 676.7656,142.8125 Q676.7656,139.6875 678.0781,138.0312 Q679.4063,136.375 681.9063,136.375 Q682.6094,136.375 683.25,136.5312 Q683.9063,136.6875 684.4688,136.9844 L684.4688,139.7031 Q683.8438,139.125 683.25,138.8594 Q682.6563,138.5781 682.0313,138.5781 Q680.6875,138.5781 680,139.6562 Q679.3125,140.7187 679.3125,142.8125 Q679.3125,144.9062 680,145.9844 Q680.6875,147.0469 682.0313,147.0469 Q682.6563,147.0469 683.25,146.7812 Q683.8438,146.5 684.4688,145.9219 L684.4688,148.6406 Z " fill="#000000"/><text fill="#000000" font-family="sans-serif" font-size="14" lengthAdjust="spacing" textLength="187" x="695.5" y="147.8467">JSONRainfallIndicationDriver</text><line style="stroke:#181818;stroke-width:0.5;" x1="667.5" x2="884.5" y1="159" y2="159"/><line style="stroke:#181818;stroke-width:0.5;" x1="667.5" x2="884.5" y1="167" y2="167"/><ellipse cx="677.5" cy="180.6484" fill="#84BE84" rx="3" ry="3" style="stroke:#038048;stroke-width:1.0;"/><text fill="#000000" font-family="sans-serif" font-size="14" lengthAdjust="spacing" textLength="120" x="686.5" y="183.9951">void serve(String)</text></g><!--class PdfPumpPowerConsumptionIndicationDriver--><g id="elem_PdfPumpPowerConsumptionIndicationDriver"><rect codeLine="105" fill="#F1F1F1" height="64.2969" id="PdfPumpPowerConsumptionIndicationDriver" rx="2.5" ry="2.5" style="stroke:#181818;stroke-width:0.5;" width="336" x="46" y="127"/><ellipse cx="61" cy="143" fill="#ADD1B2" rx="11" ry="11" style="stroke:#181818;stroke-width:1.0;"/><path d="M63.9688,148.6406 Q63.3906,148.9375 62.75,149.0781 Q62.1094,149.2344 61.4063,149.2344 Q58.9063,149.2344 57.5781,147.5937 Q56.2656,145.9375 56.2656,142.8125 Q56.2656,139.6875 57.5781,138.0312 Q58.9063,136.375 61.4063,136.375 Q62.1094,136.375 62.75,136.5312 Q63.4063,136.6875 63.9688,136.9844 L63.9688,139.7031 Q63.3438,139.125 62.75,138.8594 Q62.1563,138.5781 61.5313,138.5781 Q60.1875,138.5781 59.5,139.6562 Q58.8125,140.7187 58.8125,142.8125 Q58.8125,144.9062 59.5,145.9844 Q60.1875,147.0469 61.5313,147.0469 Q62.1563,147.0469 62.75,146.7812 Q63.3438,146.5 63.9688,145.9219 L63.9688,148.6406 Z " fill="#000000"/><text fill="#000000" font-family="sans-serif" font-size="14" lengthAdjust="spacing" textLength="304" x="75" y="147.8467">PdfPumpPowerConsumptionIndicationDriver</text><line style="stroke:#181818;stroke-width:0.5;" x1="47" x2="381" y1="159" y2="159"/><line style="stroke:#181818;stroke-width:0.5;" x1="47" x2="381" y1="167" y2="167"/><ellipse cx="57" cy="180.6484" fill="#84BE84" rx="3" ry="3" style="stroke:#038048;stroke-width:1.0;"/><text fill="#000000" font-family="sans-serif" font-size="14" lengthAdjust="spacing" textLength="120" x="66" y="183.9951">void serve(String)</text></g><!--class XMLRainfallIndicationDriver--><g id="elem_XMLRainfallIndicationDriver"><rect codeLine="108" fill="#F1F1F1" height="64.2969" id="XMLRainfallIndicationDriver" rx="2.5" ry="2.5" style="stroke:#181818;stroke-width:0.5;" width="214" x="417" y="127"/><ellipse cx="432" cy="143" fill="#ADD1B2" rx="11" ry="11" style="stroke:#181818;stroke-width:1.0;"/><path d="M434.9688,148.6406 Q434.3906,148.9375 433.75,149.0781 Q433.1094,149.2344 432.4063,149.2344 Q429.9063,149.2344 428.5781,147.5937 Q427.2656,145.9375 427.2656,142.8125 Q427.2656,139.6875 428.5781,138.0312 Q429.9063,136.375 432.4063,136.375 Q433.1094,136.375 433.75,136.5312 Q434.4063,136.6875 434.9688,136.9844 L434.9688,139.7031 Q434.3438,139.125 433.75,138.8594 Q433.1563,138.5781 432.5313,138.5781 Q431.1875,138.5781 430.5,139.6562 Q429.8125,140.7187 429.8125,142.8125 Q429.8125,144.9062 430.5,145.9844 Q431.1875,147.0469 432.5313,147.0469 Q433.1563,147.0469 433.75,146.7812 Q434.3438,146.5 434.9688,145.9219 L434.9688,148.6406 Z " fill="#000000"/><text fill="#000000" font-family="sans-serif" font-size="14" lengthAdjust="spacing" textLength="182" x="446" y="147.8467">XMLRainfallIndicationDriver</text><line style="stroke:#181818;stroke-width:0.5;" x1="418" x2="630" y1="159" y2="159"/><line style="stroke:#181818;stroke-width:0.5;" x1="418" x2="630" y1="167" y2="167"/><ellipse cx="428" cy="180.6484" fill="#84BE84" rx="3" ry="3" style="stroke:#038048;stroke-width:1.0;"/><text fill="#000000" font-family="sans-serif" font-size="14" lengthAdjust="spacing" textLength="120" x="437" y="183.9951">void serve(String)</text></g><!--class DynamoSewersDriver--><g id="elem_DynamoSewersDriver"><rect codeLine="111" fill="#F1F1F1" height="80.5938" id="DynamoSewersDriver" rx="2.5" ry="2.5" style="stroke:#181818;stroke-width:0.5;" width="222" x="2632" y="1955.86"/><ellipse cx="2665.9" cy="1971.86" fill="#ADD1B2" rx="11" ry="11" style="stroke:#181818;stroke-width:1.0;"/><path d="M2668.8688,1977.5006 Q2668.2906,1977.7975 2667.65,1977.9381 Q2667.0094,1978.0944 2666.3063,1978.0944 Q2663.8063,1978.0944 2662.4781,1976.4538 Q2661.1656,1974.7975 2661.1656,1971.6725 Q2661.1656,1968.5475 2662.4781,1966.8913 Q2663.8063,1965.235 2666.3063,1965.235 Q2667.0094,1965.235 2667.65,1965.3913 Q2668.3063,1965.5475 2668.8688,1965.8444 L2668.8688,1968.5631 Q2668.2438,1967.985 2667.65,1967.7194 Q2667.0563,1967.4381 2666.4313,1967.4381 Q2665.0875,1967.4381 2664.4,1968.5163 Q2663.7125,1969.5788 2663.7125,1971.6725 Q2663.7125,1973.7663 2664.4,1974.8444 Q2665.0875,1975.9069 2666.4313,1975.9069 Q2667.0563,1975.9069 2667.65,1975.6413 Q2668.2438,1975.36 2668.8688,1974.7819 L2668.8688,1977.5006 Z " fill="#000000"/><text fill="#000000" font-family="sans-serif" font-size="14" lengthAdjust="spacing" textLength="148" x="2684.1" y="1976.7067">DynamoSewersDriver</text><line style="stroke:#181818;stroke-width:0.5;" x1="2633" x2="2853" y1="1987.86" y2="1987.86"/><line style="stroke:#181818;stroke-width:0.5;" x1="2633" x2="2853" y1="1995.86" y2="1995.86"/><ellipse cx="2643" cy="2009.5084" fill="#84BE84" rx="3" ry="3" style="stroke:#038048;stroke-width:1.0;"/><text fill="#000000" font-family="sans-serif" font-size="14" lengthAdjust="spacing" textLength="196" x="2652" y="2012.8551">Set&lt;Object&gt; observe(UUID)</text><ellipse cx="2643" cy="2025.8053" fill="#84BE84" rx="3" ry="3" style="stroke:#038048;stroke-width:1.0;"/><text fill="#000000" font-family="sans-serif" font-size="14" lengthAdjust="spacing" textLength="183" x="2652" y="2029.152">void indicate(UUID, Object)</text></g><!--class S3SewersDriver--><g id="elem_S3SewersDriver"><rect codeLine="115" fill="#F1F1F1" height="80.5938" id="S3SewersDriver" rx="2.5" ry="2.5" style="stroke:#181818;stroke-width:0.5;" width="222" x="2910" y="1955.86"/><ellipse cx="2962.25" cy="1971.86" fill="#ADD1B2" rx="11" ry="11" style="stroke:#181818;stroke-width:1.0;"/><path d="M2965.2188,1977.5006 Q2964.6406,1977.7975 2964,1977.9381 Q2963.3594,1978.0944 2962.6563,1978.0944 Q2960.1563,1978.0944 2958.8281,1976.4538 Q2957.5156,1974.7975 2957.5156,1971.6725 Q2957.5156,1968.5475 2958.8281,1966.8913 Q2960.1563,1965.235 2962.6563,1965.235 Q2963.3594,1965.235 2964,1965.3913 Q2964.6563,1965.5475 2965.2188,1965.8444 L2965.2188,1968.5631 Q2964.5938,1967.985 2964,1967.7194 Q2963.4063,1967.4381 2962.7813,1967.4381 Q2961.4375,1967.4381 2960.75,1968.5163 Q2960.0625,1969.5788 2960.0625,1971.6725 Q2960.0625,1973.7663 2960.75,1974.8444 Q2961.4375,1975.9069 2962.7813,1975.9069 Q2963.4063,1975.9069 2964,1975.6413 Q2964.5938,1975.36 2965.2188,1974.7819 L2965.2188,1977.5006 Z " fill="#000000"/><text fill="#000000" font-family="sans-serif" font-size="14" lengthAdjust="spacing" textLength="109" x="2982.75" y="1976.7067">S3SewersDriver</text><line style="stroke:#181818;stroke-width:0.5;" x1="2911" x2="3131" y1="1987.86" y2="1987.86"/><line style="stroke:#181818;stroke-width:0.5;" x1="2911" x2="3131" y1="1995.86" y2="1995.86"/><ellipse cx="2921" cy="2009.5084" fill="#84BE84" rx="3" ry="3" style="stroke:#038048;stroke-width:1.0;"/><text fill="#000000" font-family="sans-serif" font-size="14" lengthAdjust="spacing" textLength="196" x="2930" y="2012.8551">Set&lt;Object&gt; observe(UUID)</text><ellipse cx="2921" cy="2025.8053" fill="#84BE84" rx="3" ry="3" style="stroke:#038048;stroke-width:1.0;"/><text fill="#000000" font-family="sans-serif" font-size="14" lengthAdjust="spacing" textLength="183" x="2930" y="2029.152">void indicate(UUID, Object)</text></g><!--class FileSewersDriver--><g id="elem_FileSewersDriver"><rect codeLine="119" fill="#F1F1F1" height="80.5938" id="FileSewersDriver" rx="2.5" ry="2.5" style="stroke:#181818;stroke-width:0.5;" width="222" x="3212" y="1955.86"/><ellipse cx="3261.75" cy="1971.86" fill="#ADD1B2" rx="11" ry="11" style="stroke:#181818;stroke-width:1.0;"/><path d="M3264.7188,1977.5006 Q3264.1406,1977.7975 3263.5,1977.9381 Q3262.8594,1978.0944 3262.1563,1978.0944 Q3259.6563,1978.0944 3258.3281,1976.4538 Q3257.0156,1974.7975 3257.0156,1971.6725 Q3257.0156,1968.5475 3258.3281,1966.8913 Q3259.6563,1965.235 3262.1563,1965.235 Q3262.8594,1965.235 3263.5,1965.3913 Q3264.1563,1965.5475 3264.7188,1965.8444 L3264.7188,1968.5631 Q3264.0938,1967.985 3263.5,1967.7194 Q3262.9063,1967.4381 3262.2813,1967.4381 Q3260.9375,1967.4381 3260.25,1968.5163 Q3259.5625,1969.5788 3259.5625,1971.6725 Q3259.5625,1973.7663 3260.25,1974.8444 Q3260.9375,1975.9069 3262.2813,1975.9069 Q3262.9063,1975.9069 3263.5,1975.6413 Q3264.0938,1975.36 3264.7188,1974.7819 L3264.7188,1977.5006 Z " fill="#000000"/><text fill="#000000" font-family="sans-serif" font-size="14" lengthAdjust="spacing" textLength="114" x="3282.25" y="1976.7067">FileSewersDriver</text><line style="stroke:#181818;stroke-width:0.5;" x1="3213" x2="3433" y1="1987.86" y2="1987.86"/><line style="stroke:#181818;stroke-width:0.5;" x1="3213" x2="3433" y1="1995.86" y2="1995.86"/><ellipse cx="3223" cy="2009.5084" fill="#84BE84" rx="3" ry="3" style="stroke:#038048;stroke-width:1.0;"/><text fill="#000000" font-family="sans-serif" font-size="14" lengthAdjust="spacing" textLength="196" x="3232" y="2012.8551">Set&lt;Object&gt; observe(UUID)</text><ellipse cx="3223" cy="2025.8053" fill="#84BE84" rx="3" ry="3" style="stroke:#038048;stroke-width:1.0;"/><text fill="#000000" font-family="sans-serif" font-size="14" lengthAdjust="spacing" textLength="183" x="3232" y="2029.152">void indicate(UUID, Object)</text></g><!--class SewersDriverOrchestrator--><g id="elem_SewersDriverOrchestrator"><rect codeLine="123" fill="#F1F1F1" height="80.5938" id="SewersDriverOrchestrator" rx="2.5" ry="2.5" style="stroke:#181818;stroke-width:0.5;" width="222" x="2632" y="1733.26"/><ellipse cx="2652.4" cy="1749.26" fill="#ADD1B2" rx="11" ry="11" style="stroke:#181818;stroke-width:1.0;"/><path d="M2655.3688,1754.9006 Q2654.7906,1755.1975 2654.15,1755.3381 Q2653.5094,1755.4944 2652.8063,1755.4944 Q2650.3063,1755.4944 2648.9781,1753.8537 Q2647.6656,1752.1975 2647.6656,1749.0725 Q2647.6656,1745.9475 2648.9781,1744.2912 Q2650.3063,1742.635 2652.8063,1742.635 Q2653.5094,1742.635 2654.15,1742.7912 Q2654.8063,1742.9475 2655.3688,1743.2444 L2655.3688,1745.9631 Q2654.7438,1745.385 2654.15,1745.1194 Q2653.5563,1744.8381 2652.9313,1744.8381 Q2651.5875,1744.8381 2650.9,1745.9162 Q2650.2125,1746.9787 2650.2125,1749.0725 Q2650.2125,1751.1662 2650.9,1752.2444 Q2651.5875,1753.3069 2652.9313,1753.3069 Q2653.5563,1753.3069 2654.15,1753.0412 Q2654.7438,1752.76 2655.3688,1752.1819 L2655.3688,1754.9006 Z " fill="#000000"/><text fill="#000000" font-family="sans-serif" font-size="14" lengthAdjust="spacing" textLength="178" x="2667.6" y="1754.1067">SewersDriverOrchestrator</text><line style="stroke:#181818;stroke-width:0.5;" x1="2633" x2="2853" y1="1765.26" y2="1765.26"/><line style="stroke:#181818;stroke-width:0.5;" x1="2633" x2="2853" y1="1773.26" y2="1773.26"/><ellipse cx="2643" cy="1786.9084" fill="#84BE84" rx="3" ry="3" style="stroke:#038048;stroke-width:1.0;"/><text fill="#000000" font-family="sans-serif" font-size="14" lengthAdjust="spacing" textLength="196" x="2652" y="1790.2551">Set&lt;Object&gt; observe(UUID)</text><ellipse cx="2643" cy="1803.2053" fill="#84BE84" rx="3" ry="3" style="stroke:#038048;stroke-width:1.0;"/><text fill="#000000" font-family="sans-serif" font-size="14" lengthAdjust="spacing" textLength="183" x="2652" y="1806.552">void indicate(UUID, Object)</text></g><!--class PanacheSewersDriver--><g id="elem_PanacheSewersDriver"><rect codeLine="127" fill="#F1F1F1" height="80.5938" id="PanacheSewersDriver" rx="2.5" ry="2.5" style="stroke:#181818;stroke-width:0.5;" width="222" x="2330" y="1955.86"/><ellipse cx="2362.55" cy="1971.86" fill="#ADD1B2" rx="11" ry="11" style="stroke:#181818;stroke-width:1.0;"/><path d="M2365.5188,1977.5006 Q2364.9406,1977.7975 2364.3,1977.9381 Q2363.6594,1978.0944 2362.9563,1978.0944 Q2360.4563,1978.0944 2359.1281,1976.4538 Q2357.8156,1974.7975 2357.8156,1971.6725 Q2357.8156,1968.5475 2359.1281,1966.8913 Q2360.4563,1965.235 2362.9563,1965.235 Q2363.6594,1965.235 2364.3,1965.3913 Q2364.9563,1965.5475 2365.5188,1965.8444 L2365.5188,1968.5631 Q2364.8938,1967.985 2364.3,1967.7194 Q2363.7063,1967.4381 2363.0813,1967.4381 Q2361.7375,1967.4381 2361.05,1968.5163 Q2360.3625,1969.5788 2360.3625,1971.6725 Q2360.3625,1973.7663 2361.05,1974.8444 Q2361.7375,1975.9069 2363.0813,1975.9069 Q2363.7063,1975.9069 2364.3,1975.6413 Q2364.8938,1975.36 2365.5188,1974.7819 L2365.5188,1977.5006 Z " fill="#000000"/><text fill="#000000" font-family="sans-serif" font-size="14" lengthAdjust="spacing" textLength="151" x="2380.45" y="1976.7067">PanacheSewersDriver</text><line style="stroke:#181818;stroke-width:0.5;" x1="2331" x2="2551" y1="1987.86" y2="1987.86"/><line style="stroke:#181818;stroke-width:0.5;" x1="2331" x2="2551" y1="1995.86" y2="1995.86"/><ellipse cx="2341" cy="2009.5084" fill="#84BE84" rx="3" ry="3" style="stroke:#038048;stroke-width:1.0;"/><text fill="#000000" font-family="sans-serif" font-size="14" lengthAdjust="spacing" textLength="196" x="2350" y="2012.8551">Set&lt;Object&gt; observe(UUID)</text><ellipse cx="2341" cy="2025.8053" fill="#84BE84" rx="3" ry="3" style="stroke:#038048;stroke-width:1.0;"/><text fill="#000000" font-family="sans-serif" font-size="14" lengthAdjust="spacing" textLength="183" x="2350" y="2029.152">void indicate(UUID, Object)</text></g><!--class FlowIndicationResourceDriver--><g id="elem_FlowIndicationResourceDriver"><rect codeLine="131" fill="#F1F1F1" height="64.2969" id="FlowIndicationResourceDriver" rx="2.5" ry="2.5" style="stroke:#181818;stroke-width:0.5;" width="236" x="1671" y="127"/><ellipse cx="1686" cy="143" fill="#ADD1B2" rx="11" ry="11" style="stroke:#181818;stroke-width:1.0;"/><path d="M1688.9688,148.6406 Q1688.3906,148.9375 1687.75,149.0781 Q1687.1094,149.2344 1686.4063,149.2344 Q1683.9063,149.2344 1682.5781,147.5937 Q1681.2656,145.9375 1681.2656,142.8125 Q1681.2656,139.6875 1682.5781,138.0312 Q1683.9063,136.375 1686.4063,136.375 Q1687.1094,136.375 1687.75,136.5312 Q1688.4063,136.6875 1688.9688,136.9844 L1688.9688,139.7031 Q1688.3438,139.125 1687.75,138.8594 Q1687.1563,138.5781 1686.5313,138.5781 Q1685.1875,138.5781 1684.5,139.6562 Q1683.8125,140.7187 1683.8125,142.8125 Q1683.8125,144.9062 1684.5,145.9844 Q1685.1875,147.0469 1686.5313,147.0469 Q1687.1563,147.0469 1687.75,146.7812 Q1688.3438,146.5 1688.9688,145.9219 L1688.9688,148.6406 Z " fill="#000000"/><text fill="#000000" font-family="sans-serif" font-size="14" lengthAdjust="spacing" textLength="204" x="1700" y="147.8467">FlowIndicationResourceDriver</text><line style="stroke:#181818;stroke-width:0.5;" x1="1672" x2="1906" y1="159" y2="159"/><line style="stroke:#181818;stroke-width:0.5;" x1="1672" x2="1906" y1="167" y2="167"/><ellipse cx="1682" cy="180.6484" fill="#84BE84" rx="3" ry="3" style="stroke:#038048;stroke-width:1.0;"/><text fill="#000000" font-family="sans-serif" font-size="14" lengthAdjust="spacing" textLength="120" x="1691" y="183.9951">void serve(String)</text></g><!--class PumpPowerConsumptionIndicationResourceDriver--><g id="elem_PumpPowerConsumptionIndicationResourceDriver"><rect codeLine="134" fill="#F1F1F1" height="64.2969" id="PumpPowerConsumptionIndicationResourceDriver" rx="2.5" ry="2.5" style="stroke:#181818;stroke-width:0.5;" width="381" x="966.5" y="127"/><ellipse cx="981.5" cy="143" fill="#ADD1B2" rx="11" ry="11" style="stroke:#181818;stroke-width:1.0;"/><path d="M984.4688,148.6406 Q983.8906,148.9375 983.25,149.0781 Q982.6094,149.2344 981.9063,149.2344 Q979.4063,149.2344 978.0781,147.5937 Q976.7656,145.9375 976.7656,142.8125 Q976.7656,139.6875 978.0781,138.0312 Q979.4063,136.375 981.9063,136.375 Q982.6094,136.375 983.25,136.5312 Q983.9063,136.6875 984.4688,136.9844 L984.4688,139.7031 Q983.8438,139.125 983.25,138.8594 Q982.6563,138.5781 982.0313,138.5781 Q980.6875,138.5781 980,139.6562 Q979.3125,140.7187 979.3125,142.8125 Q979.3125,144.9062 980,145.9844 Q980.6875,147.0469 982.0313,147.0469 Q982.6563,147.0469 983.25,146.7812 Q983.8438,146.5 984.4688,145.9219 L984.4688,148.6406 Z " fill="#000000"/><text fill="#000000" font-family="sans-serif" font-size="14" lengthAdjust="spacing" textLength="349" x="995.5" y="147.8467">PumpPowerConsumptionIndicationResourceDriver</text><line style="stroke:#181818;stroke-width:0.5;" x1="967.5" x2="1346.5" y1="159" y2="159"/><line style="stroke:#181818;stroke-width:0.5;" x1="967.5" x2="1346.5" y1="167" y2="167"/><ellipse cx="977.5" cy="180.6484" fill="#84BE84" rx="3" ry="3" style="stroke:#038048;stroke-width:1.0;"/><text fill="#000000" font-family="sans-serif" font-size="14" lengthAdjust="spacing" textLength="120" x="986.5" y="183.9951">void serve(String)</text></g><!--class RainfallIndicationResourceDriver--><g id="elem_RainfallIndicationResourceDriver"><rect codeLine="137" fill="#F1F1F1" height="64.2969" id="RainfallIndicationResourceDriver" rx="2.5" ry="2.5" style="stroke:#181818;stroke-width:0.5;" width="253" x="1382.5" y="127"/><ellipse cx="1397.5" cy="143" fill="#ADD1B2" rx="11" ry="11" style="stroke:#181818;stroke-width:1.0;"/><path d="M1400.4688,148.6406 Q1399.8906,148.9375 1399.25,149.0781 Q1398.6094,149.2344 1397.9063,149.2344 Q1395.4063,149.2344 1394.0781,147.5937 Q1392.7656,145.9375 1392.7656,142.8125 Q1392.7656,139.6875 1394.0781,138.0312 Q1395.4063,136.375 1397.9063,136.375 Q1398.6094,136.375 1399.25,136.5312 Q1399.9063,136.6875 1400.4688,136.9844 L1400.4688,139.7031 Q1399.8438,139.125 1399.25,138.8594 Q1398.6563,138.5781 1398.0313,138.5781 Q1396.6875,138.5781 1396,139.6562 Q1395.3125,140.7187 1395.3125,142.8125 Q1395.3125,144.9062 1396,145.9844 Q1396.6875,147.0469 1398.0313,147.0469 Q1398.6563,147.0469 1399.25,146.7812 Q1399.8438,146.5 1400.4688,145.9219 L1400.4688,148.6406 Z " fill="#000000"/><text fill="#000000" font-family="sans-serif" font-size="14" lengthAdjust="spacing" textLength="221" x="1411.5" y="147.8467">RainfallIndicationResourceDriver</text><line style="stroke:#181818;stroke-width:0.5;" x1="1383.5" x2="1634.5" y1="159" y2="159"/><line style="stroke:#181818;stroke-width:0.5;" x1="1383.5" x2="1634.5" y1="167" y2="167"/><ellipse cx="1393.5" cy="180.6484" fill="#84BE84" rx="3" ry="3" style="stroke:#038048;stroke-width:1.0;"/><text fill="#000000" font-family="sans-serif" font-size="14" lengthAdjust="spacing" textLength="120" x="1402.5" y="183.9951">void serve(String)</text></g><!--class ObservationResourceDriver--><g id="elem_ObservationResourceDriver"><rect codeLine="140" fill="#F1F1F1" height="64.2969" id="ObservationResourceDriver" rx="2.5" ry="2.5" style="stroke:#181818;stroke-width:0.5;" width="222" x="1963" y="127"/><ellipse cx="1978" cy="143" fill="#ADD1B2" rx="11" ry="11" style="stroke:#181818;stroke-width:1.0;"/><path d="M1980.9688,148.6406 Q1980.3906,148.9375 1979.75,149.0781 Q1979.1094,149.2344 1978.4063,149.2344 Q1975.9063,149.2344 1974.5781,147.5937 Q1973.2656,145.9375 1973.2656,142.8125 Q1973.2656,139.6875 1974.5781,138.0312 Q1975.9063,136.375 1978.4063,136.375 Q1979.1094,136.375 1979.75,136.5312 Q1980.4063,136.6875 1980.9688,136.9844 L1980.9688,139.7031 Q1980.3438,139.125 1979.75,138.8594 Q1979.1563,138.5781 1978.5313,138.5781 Q1977.1875,138.5781 1976.5,139.6562 Q1975.8125,140.7187 1975.8125,142.8125 Q1975.8125,144.9062 1976.5,145.9844 Q1977.1875,147.0469 1978.5313,147.0469 Q1979.1563,147.0469 1979.75,146.7812 Q1980.3438,146.5 1980.9688,145.9219 L1980.9688,148.6406 Z " fill="#000000"/><text fill="#000000" font-family="sans-serif" font-size="14" lengthAdjust="spacing" textLength="190" x="1992" y="147.8467">ObservationResourceDriver</text><line style="stroke:#181818;stroke-width:0.5;" x1="1964" x2="2184" y1="159" y2="159"/><line style="stroke:#181818;stroke-width:0.5;" x1="1964" x2="2184" y1="167" y2="167"/><ellipse cx="1974" cy="180.6484" fill="#84BE84" rx="3" ry="3" style="stroke:#038048;stroke-width:1.0;"/><text fill="#000000" font-family="sans-serif" font-size="14" lengthAdjust="spacing" textLength="132" x="1983" y="183.9951">String serve(String)</text></g><!--class PanacheRepository--><g id="elem_PanacheRepository"><rect codeLine="143" fill="#F1F1F1" height="48" id="PanacheRepository" rx="2.5" ry="2.5" style="stroke:#181818;stroke-width:0.5;" width="205" x="3563.5" y="135.15"/><ellipse cx="3578.5" cy="151.15" fill="#B4A7E5" rx="11" ry="11" style="stroke:#181818;stroke-width:1.0;"/><path d="M3574.4219,146.9156 L3574.4219,144.7594 L3581.8125,144.7594 L3581.8125,146.9156 L3579.3438,146.9156 L3579.3438,154.9937 L3581.8125,154.9937 L3581.8125,157.15 L3574.4219,157.15 L3574.4219,154.9937 L3576.8906,154.9937 L3576.8906,146.9156 L3574.4219,146.9156 Z " fill="#000000"/><text fill="#000000" font-family="sans-serif" font-size="14" font-style="italic" lengthAdjust="spacing" textLength="134" x="3592.5" y="155.9967">PanacheRepository</text><rect fill="#FFFFFF" height="15.9688" style="stroke:#181818;stroke-width:1.0;stroke-dasharray:2.0,2.0;" width="37" x="3734.5" y="132.15"/><text fill="#000000" font-family="sans-serif" font-size="12" font-style="italic" lengthAdjust="spacing" textLength="35" x="3735.5" y="144.2887">Entity</text><line style="stroke:#181818;stroke-width:0.5;" x1="3564.5" x2="3767.5" y1="167.15" y2="167.15"/><line style="stroke:#181818;stroke-width:0.5;" x1="3564.5" x2="3767.5" y1="175.15" y2="175.15"/></g><!--link SewerIndicationAdapter to SewerIndicationUseCase--><g id="link_SewerIndicationAdapter_SewerIndicationUseCase"><path codeLine="145" d="M920,398.03 C920,431.11 920,476.04 920,509.12 " fill="none" id="SewerIndicationAdapter-to-SewerIndicationUseCase" style="stroke:#181818;stroke-width:1.0;"/><polygon fill="#181818" points="920,515.12,924,506.12,920,510.12,916,506.12,920,515.12" style="stroke:#181818;stroke-width:1.0;"/></g><!--link SewerObservationAdapter to SewerObservationUseCase--><g id="link_SewerObservationAdapter_SewerObservationUseCase"><path codeLine="146" d="M1971.5,398.03 C1971.5,431.11 1971.5,476.04 1971.5,509.12 " fill="none" id="SewerObservationAdapter-to-SewerObservationUseCase" style="stroke:#181818;stroke-width:1.0;"/><polygon fill="#181818" points="1971.5,515.12,1975.5,506.12,1971.5,510.12,1967.5,506.12,1971.5,515.12" style="stroke:#181818;stroke-width:1.0;"/></g><!--reverse link SewersUseCase to SewersAdapterBridge--><g id="link_SewersUseCase_SewersAdapterBridge"><path codeLine="147" d="M2103,1478.12 C2103,1507.52 2103,1529.02 2103,1558.37 " fill="none" id="SewersUseCase-backto-SewersAdapterBridge" style="stroke:#181818;stroke-width:1.0;stroke-dasharray:7.0,7.0;"/><polygon fill="none" points="2103,1460.12,2097,1478.12,2109,1478.12,2103,1460.12" style="stroke:#181818;stroke-width:1.0;"/></g><!--link SewersAdapterBridge to SewersAdapter--><g id="link_SewersAdapterBridge_SewersAdapter"><path codeLine="148" d="M2115,1639.46 C2115,1667.57 2115,1698.86 2115,1726.98 " fill="none" id="SewersAdapterBridge-to-SewersAdapter" style="stroke:#181818;stroke-width:1.0;"/><polygon fill="#181818" points="2115,1732.98,2119,1723.98,2115,1727.98,2111,1723.98,2115,1732.98" style="stroke:#181818;stroke-width:1.0;"/></g><!--link SewerOverflowIndicationService to SewerOverflowIndicationComponent--><g id="link_SewerOverflowIndicationService_SewerOverflowIndicationComponent"><path codeLine="149" d="M920,762.37 C920,780.64 920,797.42 920,815.73 " fill="none" id="SewerOverflowIndicationService-to-SewerOverflowIndicationComponent" style="stroke:#181818;stroke-width:1.0;"/><polygon fill="#181818" points="920,821.73,924,812.73,920,816.73,916,812.73,920,821.73" style="stroke:#181818;stroke-width:1.0;"/></g><!--link SewerOverflowIndicationComponent to Sewers--><g id="link_SewerOverflowIndicationComponent_Sewers"><path codeLine="150" d="M1024.83,886.7 C1024.83,946.32 1024.83,1067.45 1024.83,1067.45 C1024.83,1067.45 1443.37,1067.45 1649.84,1067.45 " fill="none" id="SewerOverflowIndicationComponent-to-Sewers" style="stroke:#181818;stroke-width:1.0;"/><polygon fill="#181818" points="1655.84,1067.45,1646.84,1063.45,1650.84,1067.45,1646.84,1071.45,1655.84,1067.45" style="stroke:#181818;stroke-width:1.0;"/></g><!--link SewerOverflowIndicationComponent to RainIndicationComponent--><g id="link_SewerOverflowIndicationComponent_RainIndicationComponent"><path codeLine="151" d="M804,886.92 C804,934.7 804,1017.25 804,1065.03 " fill="none" id="SewerOverflowIndicationComponent-to-RainIndicationComponent" style="stroke:#181818;stroke-width:1.0;"/><polygon fill="#181818" points="804,1071.03,808,1062.03,804,1066.03,800,1062.03,804,1071.03" style="stroke:#181818;stroke-width:1.0;"/></g><!--link SewerOverflowIndicationComponent to PumpIndicationComponent--><g id="link_SewerOverflowIndicationComponent_PumpIndicationComponent"><path codeLine="152" d="M749.23,854.45 C614.71,854.45 449.75,854.45 449.75,854.45 C449.75,854.45 449.75,997.51 449.75,1065.05 " fill="none" id="SewerOverflowIndicationComponent-to-PumpIndicationComponent" style="stroke:#181818;stroke-width:1.0;"/><polygon fill="#181818" points="449.75,1071.05,453.75,1062.05,449.75,1066.05,445.75,1062.05,449.75,1071.05" style="stroke:#181818;stroke-width:1.0;"/></g><!--link SewerOverflowIndicationComponent to FlowIndicationComponent--><g id="link_SewerOverflowIndicationComponent_FlowIndicationComponent"><path codeLine="153" d="M959.17,886.92 C959.17,934.7 959.17,1017.25 959.17,1065.03 " fill="none" id="SewerOverflowIndicationComponent-to-FlowIndicationComponent" style="stroke:#181818;stroke-width:1.0;"/><polygon fill="#181818" points="959.17,1071.03,963.17,1062.03,959.17,1066.03,955.17,1062.03,959.17,1071.03" style="stroke:#181818;stroke-width:1.0;"/></g><!--link SewerObservationService to SewerObservationComponent--><g id="link_SewerObservationService_SewerObservationComponent"><path codeLine="154" d="M1774,762.37 C1774,780.64 1774,797.42 1774,815.73 " fill="none" id="SewerObservationService-to-SewerObservationComponent" style="stroke:#181818;stroke-width:1.0;"/><polygon fill="#181818" points="1774,821.73,1778,812.73,1774,816.73,1770,812.73,1774,821.73" style="stroke:#181818;stroke-width:1.0;"/></g><!--link SewerObservationComponent to Sewers--><g id="link_SewerObservationComponent_Sewers"><path codeLine="155" d="M1766,886.92 C1766,932.19 1766,1008.07 1766,1057.18 " fill="none" id="SewerObservationComponent-to-Sewers" style="stroke:#181818;stroke-width:1.0;"/><polygon fill="#181818" points="1766,1063.18,1770,1054.18,1766,1058.18,1762,1054.18,1766,1063.18" style="stroke:#181818;stroke-width:1.0;"/></g><!--link Sewer to Problem--><g id="link_Sewer_Problem"><path codeLine="156" d="M1620.63,1104.45 C1625.29,1104.45 1628,1104.45 1628,1104.45 C1628,1104.45 1628,1197.45 1628,1244.63 " fill="none" id="Sewer-to-Problem" style="stroke:#181818;stroke-width:1.0;"/><polygon fill="#181818" points="1628,1250.63,1632,1241.63,1628,1245.63,1624,1241.63,1628,1250.63" style="stroke:#181818;stroke-width:1.0;"/></g><!--link Sewer to KeyPerformanceIndicator--><g id="link_Sewer_KeyPerformanceIndicator"><path codeLine="157" d="M1461.25,1135.88 C1461.25,1169.24 1461.25,1214.61 1461.25,1244.73 " fill="none" id="Sewer-to-KeyPerformanceIndicator" style="stroke:#181818;stroke-width:1.0;"/><polygon fill="#181818" points="1461.25,1250.73,1465.25,1241.73,1461.25,1245.73,1457.25,1241.73,1461.25,1250.73" style="stroke:#181818;stroke-width:1.0;"/></g><!--link SewerIndicationUseCase to SewerOverflowIndicationService--><g id="link_SewerIndicationUseCase_SewerOverflowIndicationService"><path codeLine="158" d="M920,580.33 C920,613.41 920,658.33 920,691.42 " fill="none" id="SewerIndicationUseCase-to-SewerOverflowIndicationService" style="stroke:#181818;stroke-width:1.0;"/><polygon fill="#181818" points="920,697.42,924,688.42,920,692.42,916,688.42,920,697.42" style="stroke:#181818;stroke-width:1.0;"/></g><!--link SewerObservationUseCase to SewerObservationService--><g id="link_SewerObservationUseCase_SewerObservationService"><path codeLine="159" d="M1852.5,580.33 C1852.5,613.41 1852.5,658.33 1852.5,691.42 " fill="none" id="SewerObservationUseCase-to-SewerObservationService" style="stroke:#181818;stroke-width:1.0;"/><polygon fill="#181818" points="1852.5,697.42,1856.5,688.42,1852.5,692.42,1848.5,688.42,1852.5,697.42" style="stroke:#181818;stroke-width:1.0;"/></g><!--reverse link Sewers to SewersUseCaseBridge--><g id="link_Sewers_SewersUseCaseBridge"><path codeLine="160" d="M1894.27,1104.45 C1959.9,1104.45 2012.5,1104.45 2012.5,1104.45 C2012.5,1104.45 2012.5,1184.18 2012.5,1234.64 " fill="none" id="Sewers-backto-SewersUseCaseBridge" style="stroke:#181818;stroke-width:1.0;stroke-dasharray:7.0,7.0;"/><polygon fill="none" points="1876.27,1104.45,1894.27,1110.45,1894.27,1098.45,1876.27,1104.45" style="stroke:#181818;stroke-width:1.0;"/></g><!--link SewersUseCaseBridge to SewersUseCase--><g id="link_SewersUseCaseBridge_SewersUseCase"><path codeLine="161" d="M2090,1315.65 C2090,1335.33 2090,1352.9 2090,1372.6 " fill="none" id="SewersUseCaseBridge-to-SewersUseCase" style="stroke:#181818;stroke-width:1.0;"/><polygon fill="#181818" points="2090,1378.6,2094,1369.6,2090,1373.6,2086,1369.6,2090,1378.6" style="stroke:#181818;stroke-width:1.0;"/></g><!--link JSONRainfallIndicationDriver to SewerIndicationAdapter--><g id="link_JSONRainfallIndicationDriver_SewerIndicationAdapter"><path codeLine="162" d="M854,191.38 C854,230.02 854,288.4 854,327.09 " fill="none" id="JSONRainfallIndicationDriver-to-SewerIndicationAdapter" style="stroke:#181818;stroke-width:1.0;"/><polygon fill="#181818" points="854,333.09,858,324.09,854,328.09,850,324.09,854,333.09" style="stroke:#181818;stroke-width:1.0;"/></g><!--link PdfPumpPowerConsumptionIndicationDriver to SewerIndicationAdapter--><g id="link_PdfPumpPowerConsumptionIndicationDriver_SewerIndicationAdapter"><path codeLine="163" d="M261.75,191.68 C261.75,252.3 261.75,376.45 261.75,376.45 C261.75,376.45 632.8,376.45 816.16,376.45 " fill="none" id="PdfPumpPowerConsumptionIndicationDriver-to-SewerIndicationAdapter" style="stroke:#181818;stroke-width:1.0;"/><polygon fill="#181818" points="822.16,376.45,813.16,372.45,817.16,376.45,813.16,380.45,822.16,376.45" style="stroke:#181818;stroke-width:1.0;"/></g><!--link XMLRainfallIndicationDriver to SewerIndicationAdapter--><g id="link_XMLRainfallIndicationDriver_SewerIndicationAdapter"><path codeLine="164" d="M574.25,191.56 C574.25,247.32 574.25,355.45 574.25,355.45 C574.25,355.45 714.07,355.45 816.31,355.45 " fill="none" id="XMLRainfallIndicationDriver-to-SewerIndicationAdapter" style="stroke:#181818;stroke-width:1.0;"/><polygon fill="#181818" points="822.31,355.45,813.31,351.45,817.31,355.45,813.31,359.45,822.31,355.45" style="stroke:#181818;stroke-width:1.0;"/></g><!--reverse link SewersAdapter to DynamoSewersDriver--><g id="link_SewersAdapter_DynamoSewersDriver"><path codeLine="165" d="M2244.23,1766.45 C2385.18,1766.45 2592,1766.45 2592,1766.45 C2592,1766.45 2592,1996.45 2592,1996.45 C2592,1996.45 2609.04,1996.45 2631.67,1996.45 " fill="none" id="SewersAdapter-backto-DynamoSewersDriver" style="stroke:#181818;stroke-width:1.0;stroke-dasharray:7.0,7.0;"/><polygon fill="none" points="2226.23,1766.45,2244.23,1772.45,2244.23,1760.45,2226.23,1766.45" style="stroke:#181818;stroke-width:1.0;"/></g><!--reverse link SewersAdapter to S3SewersDriver--><g id="link_SewersAdapter_S3SewersDriver"><path codeLine="166" d="M2059.5,1832.33 C2059.5,1872.36 2059.5,1909.45 2059.5,1909.45 C2059.5,1909.45 2984,1909.45 2984,1909.45 C2984,1909.45 2984,1933.03 2984,1955.59 " fill="none" id="SewersAdapter-backto-S3SewersDriver" style="stroke:#181818;stroke-width:1.0;stroke-dasharray:7.0,7.0;"/><polygon fill="none" points="2059.5,1814.33,2053.5,1832.33,2065.5,1832.33,2059.5,1814.33" style="stroke:#181818;stroke-width:1.0;"/></g><!--reverse link SewersAdapter to FileSewersDriver--><g id="link_SewersAdapter_FileSewersDriver"><path codeLine="167" d="M2115,1832.16 C2115,1855.19 2115,1861.45 2115,1861.45 C2115,1861.45 3286,1861.45 3286,1861.45 C3286,1861.45 3286,1915.73 3286,1955.37 " fill="none" id="SewersAdapter-backto-FileSewersDriver" style="stroke:#181818;stroke-width:1.0;stroke-dasharray:7.0,7.0;"/><polygon fill="none" points="2115,1814.16,2109,1832.16,2121,1832.16,2115,1814.16" style="stroke:#181818;stroke-width:1.0;"/></g><!--reverse link SewersAdapter to SewersDriverOrchestrator--><g id="link_SewersAdapter_SewersDriverOrchestrator"><path codeLine="168" d="M2244.19,1749.45 C2358.42,1749.45 2517.24,1749.45 2631.56,1749.45 " fill="none" id="SewersAdapter-backto-SewersDriverOrchestrator" style="stroke:#181818;stroke-width:1.0;stroke-dasharray:7.0,7.0;"/><polygon fill="none" points="2226.19,1749.45,2244.19,1755.45,2244.19,1743.45,2226.19,1749.45" style="stroke:#181818;stroke-width:1.0;"/></g><!--link SewersDriverOrchestrator to DynamoSewersDriver--><g id="link_SewersDriverOrchestrator_DynamoSewersDriver"><path codeLine="169" d="M2743,1814.13 C2743,1854.25 2743,1909.33 2743,1949.49 " fill="none" id="SewersDriverOrchestrator-to-DynamoSewersDriver" style="stroke:#181818;stroke-width:1.0;"/><polygon fill="#181818" points="2743,1955.49,2747,1946.49,2743,1950.49,2739,1946.49,2743,1955.49" style="stroke:#181818;stroke-width:1.0;"/></g><!--link SewersDriverOrchestrator to PanacheSewersDriver--><g id="link_SewersDriverOrchestrator_PanacheSewersDriver"><path codeLine="170" d="M2631.77,1798.45 C2559.25,1798.45 2478,1798.45 2478,1798.45 C2478,1798.45 2478,1891.83 2478,1949.67 " fill="none" id="SewersDriverOrchestrator-to-PanacheSewersDriver" style="stroke:#181818;stroke-width:1.0;"/><polygon fill="#181818" points="2478,1955.67,2482,1946.67,2478,1950.67,2474,1946.67,2478,1955.67" style="stroke:#181818;stroke-width:1.0;"/></g><!--link SewersDriverOrchestrator to FileSewersDriver--><g id="link_SewersDriverOrchestrator_FileSewersDriver"><path codeLine="171" d="M2854.38,1760.45 C3032.1,1760.45 3360,1760.45 3360,1760.45 C3360,1760.45 3360,1881.9 3360,1949.37 " fill="none" id="SewersDriverOrchestrator-to-FileSewersDriver" style="stroke:#181818;stroke-width:1.0;"/><polygon fill="#181818" points="3360,1955.37,3364,1946.37,3360,1950.37,3356,1946.37,3360,1955.37" style="stroke:#181818;stroke-width:1.0;"/></g><!--link SewersDriverOrchestrator to S3SewersDriver--><g id="link_SewersDriverOrchestrator_S3SewersDriver"><path codeLine="172" d="M2854.06,1787.45 C2944.75,1787.45 3058,1787.45 3058,1787.45 C3058,1787.45 3058,1888.68 3058,1949.42 " fill="none" id="SewersDriverOrchestrator-to-S3SewersDriver" style="stroke:#181818;stroke-width:1.0;"/><polygon fill="#181818" points="3058,1955.42,3062,1946.42,3058,1950.42,3054,1946.42,3058,1955.42" style="stroke:#181818;stroke-width:1.0;"/></g><!--reverse link SewersAdapter to PanacheSewersDriver--><g id="link_SewersAdapter_PanacheSewersDriver"><path codeLine="173" d="M2244.32,1782.45 C2325.73,1782.45 2404,1782.45 2404,1782.45 C2404,1782.45 2404,1893.45 2404,1955.45 " fill="none" id="SewersAdapter-backto-PanacheSewersDriver" style="stroke:#181818;stroke-width:1.0;stroke-dasharray:7.0,7.0;"/><polygon fill="none" points="2226.32,1782.45,2244.32,1788.45,2244.32,1776.45,2226.32,1782.45" style="stroke:#181818;stroke-width:1.0;"/></g><!--link PanacheSewersDriver to SewersAdapter--><g id="link_PanacheSewersDriver_SewersAdapter"><path codeLine="174" d="M2329.81,1996.45 C2255.2,1996.45 2170.5,1996.45 2170.5,1996.45 C2170.5,1996.45 2170.5,1884.47 2170.5,1820.18 " fill="none" id="PanacheSewersDriver-to-SewersAdapter" style="stroke:#181818;stroke-width:1.0;"/><polygon fill="#181818" points="2170.5,1814.18,2166.5,1823.18,2170.5,1819.18,2174.5,1823.18,2170.5,1814.18" style="stroke:#181818;stroke-width:1.0;"/></g><!--link FlowIndicationResourceDriver to SewerIndicationAdapter--><g id="link_FlowIndicationResourceDriver_SewerIndicationAdapter"><path codeLine="175" d="M1748.5,191.68 C1748.5,252.3 1748.5,376.45 1748.5,376.45 C1748.5,376.45 1243.12,376.45 1023.88,376.45 " fill="none" id="FlowIndicationResourceDriver-to-SewerIndicationAdapter" style="stroke:#181818;stroke-width:1.0;"/><polygon fill="#181818" points="1017.88,376.45,1026.88,380.45,1022.88,376.45,1026.88,372.45,1017.88,376.45" style="stroke:#181818;stroke-width:1.0;"/></g><!--link PumpPowerConsumptionIndicationResourceDriver to SewerIndicationAdapter--><g id="link_PumpPowerConsumptionIndicationResourceDriver_SewerIndicationAdapter"><path codeLine="176" d="M992,191.38 C992,230.02 992,288.4 992,327.09 " fill="none" id="PumpPowerConsumptionIndicationResourceDriver-to-SewerIndicationAdapter" style="stroke:#181818;stroke-width:1.0;"/><polygon fill="#181818" points="992,333.09,996,324.09,992,328.09,988,324.09,992,333.09" style="stroke:#181818;stroke-width:1.0;"/></g><!--link RainfallIndicationResourceDriver to SewerIndicationAdapter--><g id="link_RainfallIndicationResourceDriver_SewerIndicationAdapter"><path codeLine="177" d="M1501.5,191.56 C1501.5,247.32 1501.5,355.45 1501.5,355.45 C1501.5,355.45 1189.71,355.45 1023.99,355.45 " fill="none" id="RainfallIndicationResourceDriver-to-SewerIndicationAdapter" style="stroke:#181818;stroke-width:1.0;"/><polygon fill="#181818" points="1017.99,355.45,1026.99,359.45,1022.99,355.45,1026.99,351.45,1017.99,355.45" style="stroke:#181818;stroke-width:1.0;"/></g><!--link ObservationResourceDriver to SewerObservationAdapter--><g id="link_ObservationResourceDriver_SewerObservationAdapter"><path codeLine="178" d="M2036.5,191.38 C2036.5,230.02 2036.5,288.4 2036.5,327.09 " fill="none" id="ObservationResourceDriver-to-SewerObservationAdapter" style="stroke:#181818;stroke-width:1.0;"/><polygon fill="#181818" points="2036.5,333.09,2040.5,324.09,2036.5,328.09,2032.5,324.09,2036.5,333.09" style="stroke:#181818;stroke-width:1.0;"/></g><!--SRC=[tLbTRzis57tNhr3bbnHhYQBfXWO8NBH90sHTPoD6WBqDj4JPh6LH8-LuHfR_Fkh3iRv5IgJiz2cnG9vpxXLvUNdqAg1miORcXg5RFqHqZHmCGpI5zWek43DTw35ai1Ns0qZXslImZy9TW4n2moKns99iJSRd8H8zDO9adkbG_80eCo4p7GHiiWwWlmC19M4y3Z2qHHJiHutOQZVtDiXyV7f6W0uCGc48y3nyzF6zwyu_PA7cPECxaEuaeG3s7MppP81dW967rqW5D9apH1zq8CUFMGCmVzD_sv0XsSo2myIHwrx0YuiiAl937E8UeE0POUJQhZD_fo8PPNIHbseJFwJ4qq46zjWZGg6_G9g2R5zUwc8iSWqKOZ9oY03pJ4tXnLDssYX1YgztWoGZLm4UCBbPjW4JN4KxP9BvpBc7rWCckiWuOBBhgBKcNECHVY3HTvWVE5gFTKaA5tj893i17unvW-VRI10vEsEqNU8mtzPjcJmEY6QDRjvzVd_-iKVC1KJWx7ou9ifJMwHXvrefuZUfau1GUubOI658Q3iHXuLyV0UU_SpHXzykVltwHP7w5BLTEEKn2kB7GyjhMr9bXAAXGCMmxINfdmsagqsy6J41-ryLkS-yqCD0iCHpHFr8EA7hgbTds1vapBHcaRZR94fC_Cz9QRDwtyL0DR3vQ9ZcBmy4EsQSWRDPIB6_U6qyvGHDulpqKbJgUsk04qKp55vEvZ-G7OvBmd1qyNOXhvU9EDPLKc6DWnnQeiDyXFDeBzlXKrPI6ipP_VtjzUl2k3YP-_p78zwOoRnYLlTKNoXs5aYj_0IpdCoISd6v4qxlUcHxM4Gp3eLjUUL2LxzcpjB2_Gw3osIDl36Jl-DC03SvZ2ikbFYSsz9vQGKrf1dfw5zaRyAy-4_yAQ_53ajVGpQCwMOT31v63McFCEuWzWSFeuQqHnWrAtIWUDhOUmTsACqAztdhCP3Rtr7bYWUCHOydfSclysf0BMj9zZxr3SUNfTu1IO0hZx1Kb_W95ayePjpIxTea8UIgV3XDhiJiB8eZ_P5Tjj_GRifJopiio5lPT4iGXLeR311GGyuZE5JlHB8rb4S0KiAiXa8RUC_G5KUs55e6e9f2ljFihwsrsEIqDHIRqfxjhwswUyi9qjjyfbGTcq_1G8fjQ5trQIuvlyycVqR7jmizxx2mhcDDLYy71pH1jo_PgUD6tT6KSAOhuZF-VpHTiKP1bdQvVtt_GrCQ6v3RPLt7nbAoRkJKY5bKe4oWx69qha9ssV82UM1LSc_us-ihkCf00qLWfHVF57EICTOinSOSg2DI5SWqiNpw9h_6dWCLyChMJEvwSOSOsL0RoOLGxTs19cY1ujjO4vKAbQ5g5rwkb4h5ji6t2ynqI3sKbRglMjXqgSOocdglT9NVeO0mp3VdpXAnMK5fskNNk3yUnusn5blrxTknvdxQq6A-TjSjsciRgYrEi07_ZNNqhigLoYQt4TCOsd3jlZGKc5d6yMmq1N5NkZClEoHfd_Ld3RV67VzPmxtHip-5RM45mScxkiRmFlAfLXqHqrQPTa5_yqN5rC53DZGxireAHdCtOMWsT7MKYPgIPEYpJVkqjbhAW8ZexgdltOrtyNXbvOfU0GtzVky9Ic_oWOyfjxjHBBy7Ur_RvEtX8uiKiuIFBBAR_ViYHGlkjCwRucIZaB37JpO6eSrqqkkejLuP6hzw77d3oaWTt0_iyXdccAUsYgyn9wY_zGFDqJLBVBgHrIhwAU9_]--></g></svg>