<svg xmlns="http://www.w3.org/2000/svg" xmlns:xlink="http://www.w3.org/1999/xlink" contentStyleType="text/css" height="2573px" preserveAspectRatio="none" style="width:2813px;height:2573px;background:#FFFFFF;" version="1.1" viewBox="0 0 2813 2573" width="2813px" zoomAndPan="magnify"><defs/><g><!--cluster drivers--><g id="cluster_drivers"><path d="M8.5,6 L304.5,6 A3.75,3.75 0 0 1 307,8.5 L314,28.2969 L2329.5,28.2969 A2.5,2.5 0 0 1 2332,30.7969 L2332,2563.92 A2.5,2.5 0 0 1 2329.5,2566.42 L8.5,2566.42 A2.5,2.5 0 0 1 6,2563.92 L6,8.5 A2.5,2.5 0 0 1 8.5,6 " fill="#87CEEB" style="stroke:#000000;stroke-width:1.5;"/><line style="stroke:#000000;stroke-width:1.5;" x1="6" x2="314" y1="28.2969" y2="28.2969"/><text fill="#000000" font-family="sans-serif" font-size="14" font-weight="bold" lengthAdjust="spacing" textLength="295" x="10" y="20.9951">de.company.prototype.sewer.drivers</text></g><!--cluster adapters--><g id="cluster_adapters"><path d="M32.5,255.29 L103.5,255.29 A3.75,3.75 0 0 1 106,257.79 L113,277.5869 L2305.5,277.5869 A2.5,2.5 0 0 1 2308,280.0869 L2308,1898.84 A2.5,2.5 0 0 1 2305.5,1901.34 L32.5,1901.34 A2.5,2.5 0 0 1 30,1898.84 L30,257.79 A2.5,2.5 0 0 1 32.5,255.29 " fill="#82FFB4" style="stroke:#000000;stroke-width:1.5;"/><line style="stroke:#000000;stroke-width:1.5;" x1="30" x2="113" y1="277.5869" y2="277.5869"/><text fill="#000000" font-family="sans-serif" font-size="14" font-weight="bold" lengthAdjust="spacing" textLength="70" x="34" y="270.2851">adapters</text></g><!--cluster boundary--><g id="cluster_boundary"><path d="M780.5,298.29 L923.5,298.29 A3.75,3.75 0 0 1 926,300.79 L933,320.5869 L1001.5,320.5869 A2.5,2.5 0 0 1 1004,323.0869 L1004,411.09 A2.5,2.5 0 0 1 1001.5,413.59 L780.5,413.59 A2.5,2.5 0 0 1 778,411.09 L778,300.79 A2.5,2.5 0 0 1 780.5,298.29 " fill="#00FF00" style="stroke:#000000;stroke-width:1.5;"/><line style="stroke:#000000;stroke-width:1.5;" x1="778" x2="933" y1="320.5869" y2="320.5869"/><text fill="#000000" font-family="sans-serif" font-size="14" font-weight="bold" lengthAdjust="spacing" textLength="142" x="782" y="313.2851">indicate.boundary</text></g><!--cluster boundary--><g id="cluster_boundary"><path d="M1895.5,298.29 L2041.5,298.29 A3.75,3.75 0 0 1 2044,300.79 L2051,320.5869 L2134.5,320.5869 A2.5,2.5 0 0 1 2137,323.0869 L2137,411.09 A2.5,2.5 0 0 1 2134.5,413.59 L1895.5,413.59 A2.5,2.5 0 0 1 1893,411.09 L1893,300.79 A2.5,2.5 0 0 1 1895.5,298.29 " fill="#00FF00" style="stroke:#000000;stroke-width:1.5;"/><line style="stroke:#000000;stroke-width:1.5;" x1="1893" x2="2051" y1="320.5869" y2="320.5869"/><text fill="#000000" font-family="sans-serif" font-size="14" font-weight="bold" lengthAdjust="spacing" textLength="145" x="1897" y="313.2851">observe.boundary</text></g><!--cluster boundary--><g id="cluster_boundary"><path d="M1680.5,1605.15 L1820.5,1605.15 A3.75,3.75 0 0 1 1823,1607.65 L1830,1627.4469 L1929.5,1627.4469 A2.5,2.5 0 0 1 1932,1629.9469 L1932,1874.84 A2.5,2.5 0 0 1 1929.5,1877.34 L1680.5,1877.34 A2.5,2.5 0 0 1 1678,1874.84 L1678,1607.65 A2.5,2.5 0 0 1 1680.5,1605.15 " fill="#00FF00" style="stroke:#000000;stroke-width:1.5;"/><line style="stroke:#000000;stroke-width:1.5;" x1="1678" x2="1830" y1="1627.4469" y2="1627.4469"/><text fill="#000000" font-family="sans-serif" font-size="14" font-weight="bold" lengthAdjust="spacing" textLength="139" x="1682" y="1620.1451">sewers.boundary</text></g><!--cluster use_cases--><g id="cluster_use_cases"><path d="M56.5,437.59 L139.5,437.59 A3.75,3.75 0 0 1 142,440.09 L149,459.8869 L2281.5,459.8869 A2.5,2.5 0 0 1 2284,462.3869 L2284,1578.65 A2.5,2.5 0 0 1 2281.5,1581.15 L56.5,1581.15 A2.5,2.5 0 0 1 54,1578.65 L54,440.09 A2.5,2.5 0 0 1 56.5,437.59 " fill="#FF9A99" style="stroke:#000000;stroke-width:1.5;"/><line style="stroke:#000000;stroke-width:1.5;" x1="54" x2="149" y1="459.8869" y2="459.8869"/><text fill="#000000" font-family="sans-serif" font-size="14" font-weight="bold" lengthAdjust="spacing" textLength="82" x="58" y="452.5851">use_cases</text></g><!--cluster entities--><g id="cluster_entities"><path d="M80.5,619.89 L140.5,619.89 A3.75,3.75 0 0 1 143,622.39 L150,642.1869 L1979.5,642.1869 A2.5,2.5 0 0 1 1982,644.6869 L1982,1442.06 A2.5,2.5 0 0 1 1979.5,1444.56 L80.5,1444.56 A2.5,2.5 0 0 1 78,1442.06 L78,622.39 A2.5,2.5 0 0 1 80.5,619.89 " fill="#FCFDB0" style="stroke:#000000;stroke-width:1.5;"/><line style="stroke:#000000;stroke-width:1.5;" x1="78" x2="150" y1="642.1869" y2="642.1869"/><text fill="#000000" font-family="sans-serif" font-size="14" font-weight="bold" lengthAdjust="spacing" textLength="59" x="82" y="634.8851">entities</text></g><!--cluster boundary--><g id="cluster_boundary"><path d="M104.5,662.89 L247.5,662.89 A3.75,3.75 0 0 1 250,665.39 L257,685.1869 L1271.5,685.1869 A2.5,2.5 0 0 1 1274,687.6869 L1274,1197.72 A2.5,2.5 0 0 1 1271.5,1200.22 L104.5,1200.22 A2.5,2.5 0 0 1 102,1197.72 L102,665.39 A2.5,2.5 0 0 1 104.5,662.89 " fill="#00FF00" style="stroke:#000000;stroke-width:1.5;"/><line style="stroke:#000000;stroke-width:1.5;" x1="102" x2="257" y1="685.1869" y2="685.1869"/><text fill="#000000" font-family="sans-serif" font-size="14" font-weight="bold" lengthAdjust="spacing" textLength="142" x="106" y="677.8851">indicate.boundary</text></g><!--cluster control--><g id="cluster_control"><path d="M128.5,787.19 L185.5,787.19 A3.75,3.75 0 0 1 188,789.69 L195,809.4869 L1247.5,809.4869 A2.5,2.5 0 0 1 1250,811.9869 L1250,1173.72 A2.5,2.5 0 0 1 1247.5,1176.22 L128.5,1176.22 A2.5,2.5 0 0 1 126,1173.72 L126,789.69 A2.5,2.5 0 0 1 128.5,787.19 " fill="#FFA500" style="stroke:#000000;stroke-width:1.5;"/><line style="stroke:#000000;stroke-width:1.5;" x1="126" x2="195" y1="809.4869" y2="809.4869"/><text fill="#000000" font-family="sans-serif" font-size="14" font-weight="bold" lengthAdjust="spacing" textLength="56" x="130" y="802.1851">control</text></g><!--cluster boundary--><g id="cluster_boundary"><path d="M1640.5,662.89 L1786.5,662.89 A3.75,3.75 0 0 1 1789,665.39 L1796,685.1869 L1955.5,685.1869 A2.5,2.5 0 0 1 1958,687.6869 L1958,923.98 A2.5,2.5 0 0 1 1955.5,926.48 L1640.5,926.48 A2.5,2.5 0 0 1 1638,923.98 L1638,665.39 A2.5,2.5 0 0 1 1640.5,662.89 " fill="#00FF00" style="stroke:#000000;stroke-width:1.5;"/><line style="stroke:#000000;stroke-width:1.5;" x1="1638" x2="1796" y1="685.1869" y2="685.1869"/><text fill="#000000" font-family="sans-serif" font-size="14" font-weight="bold" lengthAdjust="spacing" textLength="145" x="1642" y="677.8851">observe.boundary</text></g><!--cluster control--><g id="cluster_control"><path d="M1664.5,787.19 L1721.5,787.19 A3.75,3.75 0 0 1 1724,789.69 L1731,809.4869 L1931.5,809.4869 A2.5,2.5 0 0 1 1934,811.9869 L1934,899.98 A2.5,2.5 0 0 1 1931.5,902.48 L1664.5,902.48 A2.5,2.5 0 0 1 1662,899.98 L1662,789.69 A2.5,2.5 0 0 1 1664.5,787.19 " fill="#FFA500" style="stroke:#000000;stroke-width:1.5;"/><line style="stroke:#000000;stroke-width:1.5;" x1="1662" x2="1731" y1="809.4869" y2="809.4869"/><text fill="#000000" font-family="sans-serif" font-size="14" font-weight="bold" lengthAdjust="spacing" textLength="56" x="1666" y="802.1851">control</text></g><!--cluster sewer--><g id="cluster_sewer"><path d="M1300.5,950.48 L1351.5,950.48 A3.75,3.75 0 0 1 1354,952.98 L1361,972.7769 L1955.5,972.7769 A2.5,2.5 0 0 1 1958,975.2769 L1958,1418.06 A2.5,2.5 0 0 1 1955.5,1420.56 L1300.5,1420.56 A2.5,2.5 0 0 1 1298,1418.06 L1298,952.98 A2.5,2.5 0 0 1 1300.5,950.48 " fill="none" style="stroke:#000000;stroke-width:1.5;"/><line style="stroke:#000000;stroke-width:1.5;" x1="1298" x2="1361" y1="972.7769" y2="972.7769"/><text fill="#000000" font-family="sans-serif" font-size="14" font-weight="bold" lengthAdjust="spacing" textLength="50" x="1302" y="965.4751">sewer</text></g><!--cluster boundary--><g id="cluster_boundary"><path d="M1356.5,993.48 L1432.5,993.48 A3.75,3.75 0 0 1 1435,995.98 L1442,1015.7769 L1921.5,1015.7769 A2.5,2.5 0 0 1 1924,1018.2769 L1924,1222.17 A2.5,2.5 0 0 1 1921.5,1224.67 L1356.5,1224.67 A2.5,2.5 0 0 1 1354,1222.17 L1354,995.98 A2.5,2.5 0 0 1 1356.5,993.48 " fill="#00FF00" style="stroke:#000000;stroke-width:1.5;"/><line style="stroke:#000000;stroke-width:1.5;" x1="1354" x2="1442" y1="1015.7769" y2="1015.7769"/><text fill="#000000" font-family="sans-serif" font-size="14" font-weight="bold" lengthAdjust="spacing" textLength="75" x="1358" y="1008.4751">boundary</text></g><!--cluster entity--><g id="cluster_entity"><path d="M1380.5,1036.48 L1487.5,1036.48 A3.75,3.75 0 0 1 1490,1038.98 L1497,1058.7769 L1665.5,1058.7769 A2.5,2.5 0 0 1 1668,1061.2769 L1668,1198.17 A2.5,2.5 0 0 1 1665.5,1200.67 L1380.5,1200.67 A2.5,2.5 0 0 1 1378,1198.17 L1378,1038.98 A2.5,2.5 0 0 1 1380.5,1036.48 " fill="#FCFDB0" style="stroke:#000000;stroke-width:1.5;"/><line style="stroke:#000000;stroke-width:1.5;" x1="1378" x2="1497" y1="1058.7769" y2="1058.7769"/><text fill="#000000" font-family="sans-serif" font-size="14" font-weight="bold" lengthAdjust="spacing" textLength="106" x="1382" y="1051.4751">control.entity</text></g><!--cluster entity--><g id="cluster_entity"><path d="M1324.5,1248.67 L1539.5,1248.67 A3.75,3.75 0 0 1 1542,1251.17 L1549,1270.9669 L1631.5,1270.9669 A2.5,2.5 0 0 1 1634,1273.4669 L1634,1394.06 A2.5,2.5 0 0 1 1631.5,1396.56 L1324.5,1396.56 A2.5,2.5 0 0 1 1322,1394.06 L1322,1251.17 A2.5,2.5 0 0 1 1324.5,1248.67 " fill="#FCFDB0" style="stroke:#000000;stroke-width:1.5;"/><line style="stroke:#000000;stroke-width:1.5;" x1="1322" x2="1549" y1="1270.9669" y2="1270.9669"/><text fill="#000000" font-family="sans-serif" font-size="14" font-weight="bold" lengthAdjust="spacing" textLength="214" x="1326" y="1263.6651">kpi.boundary.control.entity</text></g><!--cluster entity--><g id="cluster_entity"><path d="M1660.5,1256.82 L1917.5,1256.82 A3.75,3.75 0 0 1 1920,1259.32 L1927,1279.1169 L1931.5,1279.1169 A2.5,2.5 0 0 1 1934,1281.6169 L1934,1385.91 A2.5,2.5 0 0 1 1931.5,1388.41 L1660.5,1388.41 A2.5,2.5 0 0 1 1658,1385.91 L1658,1259.32 A2.5,2.5 0 0 1 1660.5,1256.82 " fill="#FCFDB0" style="stroke:#000000;stroke-width:1.5;"/><line style="stroke:#000000;stroke-width:1.5;" x1="1658" x2="1927" y1="1279.1169" y2="1279.1169"/><text fill="#000000" font-family="sans-serif" font-size="14" font-weight="bold" lengthAdjust="spacing" textLength="256" x="1662" y="1271.8151">problem.boundary.control.entity</text></g><!--cluster boundary--><g id="cluster_boundary"><path d="M776.5,480.59 L919.5,480.59 A3.75,3.75 0 0 1 922,483.09 L929,502.8869 L1005.5,502.8869 A2.5,2.5 0 0 1 1008,505.3869 L1008,593.39 A2.5,2.5 0 0 1 1005.5,595.89 L776.5,595.89 A2.5,2.5 0 0 1 774,593.39 L774,483.09 A2.5,2.5 0 0 1 776.5,480.59 " fill="#00FF00" style="stroke:#000000;stroke-width:1.5;"/><line style="stroke:#000000;stroke-width:1.5;" x1="774" x2="929" y1="502.8869" y2="502.8869"/><text fill="#000000" font-family="sans-serif" font-size="14" font-weight="bold" lengthAdjust="spacing" textLength="142" x="778" y="495.5851">indicate.boundary</text></g><!--cluster boundary--><g id="cluster_boundary"><path d="M1832.5,480.59 L1978.5,480.59 A3.75,3.75 0 0 1 1981,483.09 L1988,502.8869 L2079.5,502.8869 A2.5,2.5 0 0 1 2082,505.3869 L2082,593.39 A2.5,2.5 0 0 1 2079.5,595.89 L1832.5,595.89 A2.5,2.5 0 0 1 1830,593.39 L1830,483.09 A2.5,2.5 0 0 1 1832.5,480.59 " fill="#00FF00" style="stroke:#000000;stroke-width:1.5;"/><line style="stroke:#000000;stroke-width:1.5;" x1="1830" x2="1988" y1="502.8869" y2="502.8869"/><text fill="#000000" font-family="sans-serif" font-size="14" font-weight="bold" lengthAdjust="spacing" textLength="145" x="1834" y="495.5851">observe.boundary</text></g><!--cluster boundary--><g id="cluster_boundary"><path d="M2008.5,1256.82 L2148.5,1256.82 A3.75,3.75 0 0 1 2151,1259.32 L2158,1279.1169 L2257.5,1279.1169 A2.5,2.5 0 0 1 2260,1281.6169 L2260,1554.65 A2.5,2.5 0 0 1 2257.5,1557.15 L2008.5,1557.15 A2.5,2.5 0 0 1 2006,1554.65 L2006,1259.32 A2.5,2.5 0 0 1 2008.5,1256.82 " fill="#00FF00" style="stroke:#000000;stroke-width:1.5;"/><line style="stroke:#000000;stroke-width:1.5;" x1="2006" x2="2158" y1="1279.1169" y2="1279.1169"/><text fill="#000000" font-family="sans-serif" font-size="14" font-weight="bold" lengthAdjust="spacing" textLength="139" x="2010" y="1271.8151">sewers.boundary</text></g><!--cluster boundary--><g id="cluster_boundary"><path d="M32.5,92 L204.5,92 A3.75,3.75 0 0 1 207,94.5 L214,114.2969 L899.5,114.2969 A2.5,2.5 0 0 1 902,116.7969 L902,204.79 A2.5,2.5 0 0 1 899.5,207.29 L32.5,207.29 A2.5,2.5 0 0 1 30,204.79 L30,94.5 A2.5,2.5 0 0 1 32.5,92 " fill="#00FF00" style="stroke:#000000;stroke-width:1.5;"/><line style="stroke:#000000;stroke-width:1.5;" x1="30" x2="214" y1="114.2969" y2="114.2969"/><text fill="#000000" font-family="sans-serif" font-size="14" font-weight="bold" lengthAdjust="spacing" textLength="171" x="34" y="106.9951">file.indicate.boundary</text></g><!--cluster persistence--><g id="cluster_persistence"><path d="M1126.5,1925.34 L1221.5,1925.34 A3.75,3.75 0 0 1 1224,1927.84 L1231,1947.6369 L2305.5,1947.6369 A2.5,2.5 0 0 1 2308,1950.1369 L2308,2539.92 A2.5,2.5 0 0 1 2305.5,2542.42 L1126.5,2542.42 A2.5,2.5 0 0 1 1124,2539.92 L1124,1927.84 A2.5,2.5 0 0 1 1126.5,1925.34 " fill="#FFFFFF" style="stroke:#000000;stroke-width:1.5;"/><line style="stroke:#000000;stroke-width:1.5;" x1="1124" x2="1231" y1="1947.6369" y2="1947.6369"/><text fill="#000000" font-family="sans-serif" font-size="14" font-weight="bold" lengthAdjust="spacing" textLength="94" x="1128" y="1940.3351">persistence</text></g><!--cluster aws--><g id="cluster_aws"><path d="M1150.5,2123.94 L1183.5,2123.94 A3.75,3.75 0 0 1 1186,2126.44 L1193,2146.2369 L1725.5,2146.2369 A2.5,2.5 0 0 1 1728,2148.7369 L1728,2320.03 A2.5,2.5 0 0 1 1725.5,2322.53 L1150.5,2322.53 A2.5,2.5 0 0 1 1148,2320.03 L1148,2126.44 A2.5,2.5 0 0 1 1150.5,2123.94 " fill="#F0A238" style="stroke:#000000;stroke-width:1.5;"/><line style="stroke:#000000;stroke-width:1.5;" x1="1148" x2="1193" y1="2146.2369" y2="2146.2369"/><text fill="#000000" font-family="sans-serif" font-size="14" font-weight="bold" lengthAdjust="spacing" textLength="32" x="1152" y="2138.9351">aws</text></g><!--cluster boundary--><g id="cluster_boundary"><path d="M1174.5,2166.94 L1381.5,2166.94 A3.75,3.75 0 0 1 1384,2169.44 L1391,2189.2369 L1423.5,2189.2369 A2.5,2.5 0 0 1 1426,2191.7369 L1426,2296.03 A2.5,2.5 0 0 1 1423.5,2298.53 L1174.5,2298.53 A2.5,2.5 0 0 1 1172,2296.03 L1172,2169.44 A2.5,2.5 0 0 1 1174.5,2166.94 " fill="#00FF00" style="stroke:#000000;stroke-width:1.5;"/><line style="stroke:#000000;stroke-width:1.5;" x1="1172" x2="1391" y1="2189.2369" y2="2189.2369"/><text fill="#000000" font-family="sans-serif" font-size="14" font-weight="bold" lengthAdjust="spacing" textLength="206" x="1176" y="2181.9351">dynamo.sewers.boundary</text></g><!--cluster boundary--><g id="cluster_boundary"><path d="M1452.5,2166.94 L1616.5,2166.94 A3.75,3.75 0 0 1 1619,2169.44 L1626,2189.2369 L1701.5,2189.2369 A2.5,2.5 0 0 1 1704,2191.7369 L1704,2296.03 A2.5,2.5 0 0 1 1701.5,2298.53 L1452.5,2298.53 A2.5,2.5 0 0 1 1450,2296.03 L1450,2169.44 A2.5,2.5 0 0 1 1452.5,2166.94 " fill="#00FF00" style="stroke:#000000;stroke-width:1.5;"/><line style="stroke:#000000;stroke-width:1.5;" x1="1450" x2="1626" y1="2189.2369" y2="2189.2369"/><text fill="#000000" font-family="sans-serif" font-size="14" font-weight="bold" lengthAdjust="spacing" textLength="163" x="1454" y="2181.9351">s3.sewers.boundary</text></g><!--cluster boundary--><g id="cluster_boundary"><path d="M1754.5,2166.94 L1923.5,2166.94 A3.75,3.75 0 0 1 1926,2169.44 L1933,2189.2369 L2003.5,2189.2369 A2.5,2.5 0 0 1 2006,2191.7369 L2006,2296.03 A2.5,2.5 0 0 1 2003.5,2298.53 L1754.5,2298.53 A2.5,2.5 0 0 1 1752,2296.03 L1752,2169.44 A2.5,2.5 0 0 1 1754.5,2166.94 " fill="#00FF00" style="stroke:#000000;stroke-width:1.5;"/><line style="stroke:#000000;stroke-width:1.5;" x1="1752" x2="1933" y1="2189.2369" y2="2189.2369"/><text fill="#000000" font-family="sans-serif" font-size="14" font-weight="bold" lengthAdjust="spacing" textLength="168" x="1756" y="2181.9351">file.sewers.boundary</text></g><!--cluster boundary--><g id="cluster_boundary"><path d="M1753.5,1968.34 L1998.5,1968.34 A3.75,3.75 0 0 1 2001,1970.84 L2008,1990.6369 L2008.5,1990.6369 A2.5,2.5 0 0 1 2011,1993.1369 L2011,2097.44 A2.5,2.5 0 0 1 2008.5,2099.94 L1753.5,2099.94 A2.5,2.5 0 0 1 1751,2097.44 L1751,1970.84 A2.5,2.5 0 0 1 1753.5,1968.34 " fill="#00FF00" style="stroke:#000000;stroke-width:1.5;"/><line style="stroke:#000000;stroke-width:1.5;" x1="1751" x2="2008" y1="1990.6369" y2="1990.6369"/><text fill="#000000" font-family="sans-serif" font-size="14" font-weight="bold" lengthAdjust="spacing" textLength="244" x="1755" y="1983.3351">orchestrator.sewers.boundary</text></g><!--cluster boundary--><g id="cluster_boundary"><path d="M2032.5,2166.94 L2244.5,2166.94 A3.75,3.75 0 0 1 2247,2169.44 L2254,2189.2369 L2281.5,2189.2369 A2.5,2.5 0 0 1 2284,2191.7369 L2284,2515.92 A2.5,2.5 0 0 1 2281.5,2518.42 L2032.5,2518.42 A2.5,2.5 0 0 1 2030,2515.92 L2030,2169.44 A2.5,2.5 0 0 1 2032.5,2166.94 " fill="#00FF00" style="stroke:#000000;stroke-width:1.5;"/><line style="stroke:#000000;stroke-width:1.5;" x1="2030" x2="2254" y1="2189.2369" y2="2189.2369"/><text fill="#000000" font-family="sans-serif" font-size="14" font-weight="bold" lengthAdjust="spacing" textLength="211" x="2034" y="2181.9351">panache.sewers.boundary</text></g><!--cluster entity--><g id="cluster_entity"><path d="M2056.5,2395.42 L2163.5,2395.42 A3.75,3.75 0 0 1 2166,2397.92 L2173,2417.7169 L2257.5,2417.7169 A2.5,2.5 0 0 1 2260,2420.2169 L2260,2491.92 A2.5,2.5 0 0 1 2257.5,2494.42 L2056.5,2494.42 A2.5,2.5 0 0 1 2054,2491.92 L2054,2397.92 A2.5,2.5 0 0 1 2056.5,2395.42 " fill="#FCFDB0" style="stroke:#000000;stroke-width:1.5;"/><line style="stroke:#000000;stroke-width:1.5;" x1="2054" x2="2173" y1="2417.7169" y2="2417.7169"/><text fill="#000000" font-family="sans-serif" font-size="14" font-weight="bold" lengthAdjust="spacing" textLength="106" x="2058" y="2410.4151">control.entity</text></g><!--cluster rest--><g id="cluster_rest"><path d="M928.5,49 L961.5,49 A3.75,3.75 0 0 1 964,51.5 L971,71.2969 L2223.5,71.2969 A2.5,2.5 0 0 1 2226,73.7969 L2226,228.79 A2.5,2.5 0 0 1 2223.5,231.29 L928.5,231.29 A2.5,2.5 0 0 1 926,228.79 L926,51.5 A2.5,2.5 0 0 1 928.5,49 " fill="#FFFFFF" style="stroke:#000000;stroke-width:1.5;"/><line style="stroke:#000000;stroke-width:1.5;" x1="926" x2="971" y1="71.2969" y2="71.2969"/><text fill="#000000" font-family="sans-serif" font-size="14" font-weight="bold" lengthAdjust="spacing" textLength="32" x="930" y="63.9951">rest</text></g><!--cluster boundary--><g id="cluster_boundary"><path d="M952.5,92 L1095.5,92 A3.75,3.75 0 0 1 1098,94.5 L1105,114.2969 L1921.5,114.2969 A2.5,2.5 0 0 1 1924,116.7969 L1924,204.79 A2.5,2.5 0 0 1 1921.5,207.29 L952.5,207.29 A2.5,2.5 0 0 1 950,204.79 L950,94.5 A2.5,2.5 0 0 1 952.5,92 " fill="#00FF00" style="stroke:#000000;stroke-width:1.5;"/><line style="stroke:#000000;stroke-width:1.5;" x1="950" x2="1105" y1="114.2969" y2="114.2969"/><text fill="#000000" font-family="sans-serif" font-size="14" font-weight="bold" lengthAdjust="spacing" textLength="142" x="954" y="106.9951">indicate.boundary</text></g><!--cluster boundary--><g id="cluster_boundary"><path d="M1950.5,92 L2096.5,92 A3.75,3.75 0 0 1 2099,94.5 L2106,114.2969 L2199.5,114.2969 A2.5,2.5 0 0 1 2202,116.7969 L2202,204.79 A2.5,2.5 0 0 1 2199.5,207.29 L1950.5,207.29 A2.5,2.5 0 0 1 1948,204.79 L1948,94.5 A2.5,2.5 0 0 1 1950.5,92 " fill="#00FF00" style="stroke:#000000;stroke-width:1.5;"/><line style="stroke:#000000;stroke-width:1.5;" x1="1948" x2="2106" y1="114.2969" y2="114.2969"/><text fill="#000000" font-family="sans-serif" font-size="14" font-weight="bold" lengthAdjust="spacing" textLength="145" x="1952" y="106.9951">observe.boundary</text></g><!--cluster kotlin--><g id="cluster_kotlin"><path d="M2358.5,2346.53 L2679.5,2346.53 A3.75,3.75 0 0 1 2682,2349.03 L2689,2368.8269 L2803.5,2368.8269 A2.5,2.5 0 0 1 2806,2371.3269 L2806,2540.81 A2.5,2.5 0 0 1 2803.5,2543.31 L2358.5,2543.31 A2.5,2.5 0 0 1 2356,2540.81 L2356,2349.03 A2.5,2.5 0 0 1 2358.5,2346.53 " fill="#4695EB" style="stroke:#000000;stroke-width:1.5;"/><line style="stroke:#000000;stroke-width:1.5;" x1="2356" x2="2689" y1="2368.8269" y2="2368.8269"/><text fill="#000000" font-family="sans-serif" font-size="14" font-weight="bold" lengthAdjust="spacing" textLength="320" x="2360" y="2361.5251">io.quarkus.hibernate.orm.panache.kotlin</text></g><!--class SewerIndicationAdapter--><g id="elem_SewerIndicationAdapter"><rect codeLine="47" fill="#F1F1F1" height="64.2969" id="SewerIndicationAdapter" rx="2.5" ry="2.5" style="stroke:#181818;stroke-width:0.5;" width="195" x="793.5" y="333.29"/><ellipse cx="808.5" cy="349.29" fill="#ADD1B2" rx="11" ry="11" style="stroke:#181818;stroke-width:1.0;"/><path d="M811.4688,354.9306 Q810.8906,355.2275 810.25,355.3681 Q809.6094,355.5244 808.9063,355.5244 Q806.4063,355.5244 805.0781,353.8837 Q803.7656,352.2275 803.7656,349.1025 Q803.7656,345.9775 805.0781,344.3212 Q806.4063,342.665 808.9063,342.665 Q809.6094,342.665 810.25,342.8212 Q810.9063,342.9775 811.4688,343.2744 L811.4688,345.9931 Q810.8438,345.415 810.25,345.1494 Q809.6563,344.8681 809.0313,344.8681 Q807.6875,344.8681 807,345.9462 Q806.3125,347.0087 806.3125,349.1025 Q806.3125,351.1962 807,352.2744 Q807.6875,353.3369 809.0313,353.3369 Q809.6563,353.3369 810.25,353.0712 Q810.8438,352.79 811.4688,352.2119 L811.4688,354.9306 Z " fill="#000000"/><text fill="#000000" font-family="sans-serif" font-size="14" lengthAdjust="spacing" textLength="163" x="822.5" y="354.1367">SewerIndicationAdapter</text><line style="stroke:#181818;stroke-width:0.5;" x1="794.5" x2="987.5" y1="365.29" y2="365.29"/><line style="stroke:#181818;stroke-width:0.5;" x1="794.5" x2="987.5" y1="373.29" y2="373.29"/><ellipse cx="804.5" cy="386.9384" fill="#84BE84" rx="3" ry="3" style="stroke:#038048;stroke-width:1.0;"/><text fill="#000000" font-family="sans-serif" font-size="14" lengthAdjust="spacing" textLength="120" x="813.5" y="390.2851">void serve(String)</text></g><!--class SewerObservationAdapter--><g id="elem_SewerObservationAdapter"><rect codeLine="50" fill="#F1F1F1" height="64.2969" id="SewerObservationAdapter" rx="2.5" ry="2.5" style="stroke:#181818;stroke-width:0.5;" width="212" x="1909" y="333.29"/><ellipse cx="1924" cy="349.29" fill="#ADD1B2" rx="11" ry="11" style="stroke:#181818;stroke-width:1.0;"/><path d="M1926.9688,354.9306 Q1926.3906,355.2275 1925.75,355.3681 Q1925.1094,355.5244 1924.4063,355.5244 Q1921.9063,355.5244 1920.5781,353.8837 Q1919.2656,352.2275 1919.2656,349.1025 Q1919.2656,345.9775 1920.5781,344.3212 Q1921.9063,342.665 1924.4063,342.665 Q1925.1094,342.665 1925.75,342.8212 Q1926.4063,342.9775 1926.9688,343.2744 L1926.9688,345.9931 Q1926.3438,345.415 1925.75,345.1494 Q1925.1563,344.8681 1924.5313,344.8681 Q1923.1875,344.8681 1922.5,345.9462 Q1921.8125,347.0087 1921.8125,349.1025 Q1921.8125,351.1962 1922.5,352.2744 Q1923.1875,353.3369 1924.5313,353.3369 Q1925.1563,353.3369 1925.75,353.0712 Q1926.3438,352.79 1926.9688,352.2119 L1926.9688,354.9306 Z " fill="#000000"/><text fill="#000000" font-family="sans-serif" font-size="14" lengthAdjust="spacing" textLength="180" x="1938" y="354.1367">SewerObservationAdapter</text><line style="stroke:#181818;stroke-width:0.5;" x1="1910" x2="2120" y1="365.29" y2="365.29"/><line style="stroke:#181818;stroke-width:0.5;" x1="1910" x2="2120" y1="373.29" y2="373.29"/><ellipse cx="1920" cy="386.9384" fill="#84BE84" rx="3" ry="3" style="stroke:#038048;stroke-width:1.0;"/><text fill="#000000" font-family="sans-serif" font-size="14" lengthAdjust="spacing" textLength="184" x="1929" y="390.2851">Set&lt;Object&gt; serve(String)</text></g><!--class SewersAdapter--><g id="elem_SewersAdapter"><rect codeLine="53" fill="#F1F1F1" height="80.5938" id="SewersAdapter" rx="2.5" ry="2.5" style="stroke:#181818;stroke-width:0.5;" width="222" x="1694" y="1780.75"/><ellipse cx="1748.25" cy="1796.75" fill="#B4A7E5" rx="11" ry="11" style="stroke:#181818;stroke-width:1.0;"/><path d="M1744.1719,1792.5156 L1744.1719,1790.3594 L1751.5625,1790.3594 L1751.5625,1792.5156 L1749.0938,1792.5156 L1749.0938,1800.5938 L1751.5625,1800.5938 L1751.5625,1802.75 L1744.1719,1802.75 L1744.1719,1800.5938 L1746.6406,1800.5938 L1746.6406,1792.5156 L1744.1719,1792.5156 Z " fill="#000000"/><text fill="#000000" font-family="sans-serif" font-size="14" font-style="italic" lengthAdjust="spacing" textLength="105" x="1768.75" y="1801.5967">SewersAdapter</text><line style="stroke:#181818;stroke-width:0.5;" x1="1695" x2="1915" y1="1812.75" y2="1812.75"/><line style="stroke:#181818;stroke-width:0.5;" x1="1695" x2="1915" y1="1820.75" y2="1820.75"/><ellipse cx="1705" cy="1834.3984" fill="#84BE84" rx="3" ry="3" style="stroke:#038048;stroke-width:1.0;"/><text fill="#000000" font-family="sans-serif" font-size="14" font-style="italic" lengthAdjust="spacing" textLength="196" x="1714" y="1837.7451">Set&lt;Object&gt; observe(UUID)</text><ellipse cx="1705" cy="1850.6953" fill="#84BE84" rx="3" ry="3" style="stroke:#038048;stroke-width:1.0;"/><text fill="#000000" font-family="sans-serif" font-size="14" font-style="italic" lengthAdjust="spacing" textLength="183" x="1714" y="1854.042">void indicate(UUID, Object)</text></g><!--class SewersAdapterBridge--><g id="elem_SewersAdapterBridge"><rect codeLine="57" fill="#F1F1F1" height="80.5938" id="SewersAdapterBridge" rx="2.5" ry="2.5" style="stroke:#181818;stroke-width:0.5;" width="222" x="1694" y="1640.15"/><ellipse cx="1727" cy="1656.15" fill="#ADD1B2" rx="11" ry="11" style="stroke:#181818;stroke-width:1.0;"/><path d="M1729.9688,1661.7906 Q1729.3906,1662.0875 1728.75,1662.2281 Q1728.1094,1662.3844 1727.4063,1662.3844 Q1724.9063,1662.3844 1723.5781,1660.7438 Q1722.2656,1659.0875 1722.2656,1655.9625 Q1722.2656,1652.8375 1723.5781,1651.1813 Q1724.9063,1649.525 1727.4063,1649.525 Q1728.1094,1649.525 1728.75,1649.6813 Q1729.4063,1649.8375 1729.9688,1650.1344 L1729.9688,1652.8531 Q1729.3438,1652.275 1728.75,1652.0094 Q1728.1563,1651.7281 1727.5313,1651.7281 Q1726.1875,1651.7281 1725.5,1652.8063 Q1724.8125,1653.8688 1724.8125,1655.9625 Q1724.8125,1658.0563 1725.5,1659.1344 Q1726.1875,1660.1969 1727.5313,1660.1969 Q1728.1563,1660.1969 1728.75,1659.9313 Q1729.3438,1659.65 1729.9688,1659.0719 L1729.9688,1661.7906 Z " fill="#000000"/><text fill="#000000" font-family="sans-serif" font-size="14" lengthAdjust="spacing" textLength="150" x="1745" y="1660.9967">SewersAdapterBridge</text><line style="stroke:#181818;stroke-width:0.5;" x1="1695" x2="1915" y1="1672.15" y2="1672.15"/><line style="stroke:#181818;stroke-width:0.5;" x1="1695" x2="1915" y1="1680.15" y2="1680.15"/><ellipse cx="1705" cy="1693.7984" fill="#84BE84" rx="3" ry="3" style="stroke:#038048;stroke-width:1.0;"/><text fill="#000000" font-family="sans-serif" font-size="14" lengthAdjust="spacing" textLength="196" x="1714" y="1697.1451">Set&lt;Object&gt; observe(UUID)</text><ellipse cx="1705" cy="1710.0953" fill="#84BE84" rx="3" ry="3" style="stroke:#038048;stroke-width:1.0;"/><text fill="#000000" font-family="sans-serif" font-size="14" lengthAdjust="spacing" textLength="183" x="1714" y="1713.442">void indicate(UUID, Object)</text></g><!--class SewerOverflowIndicationService--><g id="elem_SewerOverflowIndicationService"><rect codeLine="61" fill="#F1F1F1" height="64.2969" id="SewerOverflowIndicationService" rx="2.5" ry="2.5" style="stroke:#181818;stroke-width:0.5;" width="250" x="766" y="697.89"/><ellipse cx="781" cy="713.89" fill="#ADD1B2" rx="11" ry="11" style="stroke:#181818;stroke-width:1.0;"/><path d="M783.9688,719.5306 Q783.3906,719.8275 782.75,719.9681 Q782.1094,720.1244 781.4063,720.1244 Q778.9063,720.1244 777.5781,718.4838 Q776.2656,716.8275 776.2656,713.7025 Q776.2656,710.5775 777.5781,708.9213 Q778.9063,707.265 781.4063,707.265 Q782.1094,707.265 782.75,707.4213 Q783.4063,707.5775 783.9688,707.8744 L783.9688,710.5931 Q783.3438,710.015 782.75,709.7494 Q782.1563,709.4681 781.5313,709.4681 Q780.1875,709.4681 779.5,710.5463 Q778.8125,711.6088 778.8125,713.7025 Q778.8125,715.7963 779.5,716.8744 Q780.1875,717.9369 781.5313,717.9369 Q782.1563,717.9369 782.75,717.6713 Q783.3438,717.39 783.9688,716.8119 L783.9688,719.5306 Z " fill="#000000"/><text fill="#000000" font-family="sans-serif" font-size="14" lengthAdjust="spacing" textLength="218" x="795" y="718.7367">SewerOverflowIndicationService</text><line style="stroke:#181818;stroke-width:0.5;" x1="767" x2="1015" y1="729.89" y2="729.89"/><line style="stroke:#181818;stroke-width:0.5;" x1="767" x2="1015" y1="737.89" y2="737.89"/><ellipse cx="777" cy="751.5384" fill="#84BE84" rx="3" ry="3" style="stroke:#038048;stroke-width:1.0;"/><text fill="#000000" font-family="sans-serif" font-size="14" lengthAdjust="spacing" textLength="221" x="786" y="754.8851">void serve(Map&lt;String, String&gt;)</text></g><!--class FlowIndicationComponent--><g id="elem_FlowIndicationComponent"><rect codeLine="64" fill="#F1F1F1" height="64.2969" id="FlowIndicationComponent" rx="2.5" ry="2.5" style="stroke:#181818;stroke-width:0.5;" width="341" x="893.5" y="1095.93"/><ellipse cx="970.25" cy="1111.93" fill="#ADD1B2" rx="11" ry="11" style="stroke:#181818;stroke-width:1.0;"/><path d="M973.2188,1117.5706 Q972.6406,1117.8675 972,1118.0081 Q971.3594,1118.1644 970.6563,1118.1644 Q968.1563,1118.1644 966.8281,1116.5238 Q965.5156,1114.8675 965.5156,1111.7425 Q965.5156,1108.6175 966.8281,1106.9613 Q968.1563,1105.305 970.6563,1105.305 Q971.3594,1105.305 972,1105.4613 Q972.6563,1105.6175 973.2188,1105.9144 L973.2188,1108.6331 Q972.5938,1108.055 972,1107.7894 Q971.4063,1107.5081 970.7813,1107.5081 Q969.4375,1107.5081 968.75,1108.5863 Q968.0625,1109.6488 968.0625,1111.7425 Q968.0625,1113.8363 968.75,1114.9144 Q969.4375,1115.9769 970.7813,1115.9769 Q971.4063,1115.9769 972,1115.7113 Q972.5938,1115.43 973.2188,1114.8519 L973.2188,1117.5706 Z " fill="#000000"/><text fill="#000000" font-family="sans-serif" font-size="14" lengthAdjust="spacing" textLength="179" x="990.75" y="1116.7767">FlowIndicationComponent</text><line style="stroke:#181818;stroke-width:0.5;" x1="894.5" x2="1233.5" y1="1127.93" y2="1127.93"/><line style="stroke:#181818;stroke-width:0.5;" x1="894.5" x2="1233.5" y1="1135.93" y2="1135.93"/><ellipse cx="904.5" cy="1149.5784" fill="#84BE84" rx="3" ry="3" style="stroke:#038048;stroke-width:1.0;"/><text fill="#000000" font-family="sans-serif" font-size="14" lengthAdjust="spacing" textLength="315" x="913.5" y="1152.9251">void execute(Map&lt;String, ? extends Object&gt;)</text></g><!--class PumpIndicationComponent--><g id="elem_PumpIndicationComponent"><rect codeLine="67" fill="#F1F1F1" height="64.2969" id="PumpIndicationComponent" rx="2.5" ry="2.5" style="stroke:#181818;stroke-width:0.5;" width="341" x="141.5" y="1095.93"/><ellipse cx="213.75" cy="1111.93" fill="#ADD1B2" rx="11" ry="11" style="stroke:#181818;stroke-width:1.0;"/><path d="M216.7188,1117.5706 Q216.1406,1117.8675 215.5,1118.0081 Q214.8594,1118.1644 214.1563,1118.1644 Q211.6563,1118.1644 210.3281,1116.5238 Q209.0156,1114.8675 209.0156,1111.7425 Q209.0156,1108.6175 210.3281,1106.9613 Q211.6563,1105.305 214.1563,1105.305 Q214.8594,1105.305 215.5,1105.4613 Q216.1563,1105.6175 216.7188,1105.9144 L216.7188,1108.6331 Q216.0938,1108.055 215.5,1107.7894 Q214.9063,1107.5081 214.2813,1107.5081 Q212.9375,1107.5081 212.25,1108.5863 Q211.5625,1109.6488 211.5625,1111.7425 Q211.5625,1113.8363 212.25,1114.9144 Q212.9375,1115.9769 214.2813,1115.9769 Q214.9063,1115.9769 215.5,1115.7113 Q216.0938,1115.43 216.7188,1114.8519 L216.7188,1117.5706 Z " fill="#000000"/><text fill="#000000" font-family="sans-serif" font-size="14" lengthAdjust="spacing" textLength="188" x="234.25" y="1116.7767">PumpIndicationComponent</text><line style="stroke:#181818;stroke-width:0.5;" x1="142.5" x2="481.5" y1="1127.93" y2="1127.93"/><line style="stroke:#181818;stroke-width:0.5;" x1="142.5" x2="481.5" y1="1135.93" y2="1135.93"/><ellipse cx="152.5" cy="1149.5784" fill="#84BE84" rx="3" ry="3" style="stroke:#038048;stroke-width:1.0;"/><text fill="#000000" font-family="sans-serif" font-size="14" lengthAdjust="spacing" textLength="315" x="161.5" y="1152.9251">void execute(Map&lt;String, ? extends Object&gt;)</text></g><!--class RainIndicationComponent--><g id="elem_RainIndicationComponent"><rect codeLine="70" fill="#F1F1F1" height="64.2969" id="RainIndicationComponent" rx="2.5" ry="2.5" style="stroke:#181818;stroke-width:0.5;" width="341" x="517.5" y="1095.93"/><ellipse cx="594.75" cy="1111.93" fill="#ADD1B2" rx="11" ry="11" style="stroke:#181818;stroke-width:1.0;"/><path d="M597.7188,1117.5706 Q597.1406,1117.8675 596.5,1118.0081 Q595.8594,1118.1644 595.1563,1118.1644 Q592.6563,1118.1644 591.3281,1116.5238 Q590.0156,1114.8675 590.0156,1111.7425 Q590.0156,1108.6175 591.3281,1106.9613 Q592.6563,1105.305 595.1563,1105.305 Q595.8594,1105.305 596.5,1105.4613 Q597.1563,1105.6175 597.7188,1105.9144 L597.7188,1108.6331 Q597.0938,1108.055 596.5,1107.7894 Q595.9063,1107.5081 595.2813,1107.5081 Q593.9375,1107.5081 593.25,1108.5863 Q592.5625,1109.6488 592.5625,1111.7425 Q592.5625,1113.8363 593.25,1114.9144 Q593.9375,1115.9769 595.2813,1115.9769 Q595.9063,1115.9769 596.5,1115.7113 Q597.0938,1115.43 597.7188,1114.8519 L597.7188,1117.5706 Z " fill="#000000"/><text fill="#000000" font-family="sans-serif" font-size="14" lengthAdjust="spacing" textLength="178" x="615.25" y="1116.7767">RainIndicationComponent</text><line style="stroke:#181818;stroke-width:0.5;" x1="518.5" x2="857.5" y1="1127.93" y2="1127.93"/><line style="stroke:#181818;stroke-width:0.5;" x1="518.5" x2="857.5" y1="1135.93" y2="1135.93"/><ellipse cx="528.5" cy="1149.5784" fill="#84BE84" rx="3" ry="3" style="stroke:#038048;stroke-width:1.0;"/><text fill="#000000" font-family="sans-serif" font-size="14" lengthAdjust="spacing" textLength="315" x="537.5" y="1152.9251">void execute(Map&lt;String, ? extends Object&gt;)</text></g><!--class SewerOverflowIndicationComponent--><g id="elem_SewerOverflowIndicationComponent"><rect codeLine="73" fill="#F1F1F1" height="64.2969" id="SewerOverflowIndicationComponent" rx="2.5" ry="2.5" style="stroke:#181818;stroke-width:0.5;" width="341" x="720.5" y="822.19"/><ellipse cx="762.05" cy="838.19" fill="#ADD1B2" rx="11" ry="11" style="stroke:#181818;stroke-width:1.0;"/><path d="M765.0188,843.8306 Q764.4406,844.1275 763.8,844.2681 Q763.1594,844.4244 762.4563,844.4244 Q759.9563,844.4244 758.6281,842.7838 Q757.3156,841.1275 757.3156,838.0025 Q757.3156,834.8775 758.6281,833.2213 Q759.9563,831.565 762.4563,831.565 Q763.1594,831.565 763.8,831.7213 Q764.4563,831.8775 765.0188,832.1744 L765.0188,834.8931 Q764.3938,834.315 763.8,834.0494 Q763.2063,833.7681 762.5813,833.7681 Q761.2375,833.7681 760.55,834.8463 Q759.8625,835.9088 759.8625,838.0025 Q759.8625,840.0963 760.55,841.1744 Q761.2375,842.2369 762.5813,842.2369 Q763.2063,842.2369 763.8,841.9713 Q764.3938,841.69 765.0188,841.1119 L765.0188,843.8306 Z " fill="#000000"/><text fill="#000000" font-family="sans-serif" font-size="14" lengthAdjust="spacing" textLength="250" x="781.95" y="843.0367">SewerOverflowIndicationComponent</text><line style="stroke:#181818;stroke-width:0.5;" x1="721.5" x2="1060.5" y1="854.19" y2="854.19"/><line style="stroke:#181818;stroke-width:0.5;" x1="721.5" x2="1060.5" y1="862.19" y2="862.19"/><ellipse cx="731.5" cy="875.8384" fill="#84BE84" rx="3" ry="3" style="stroke:#038048;stroke-width:1.0;"/><text fill="#000000" font-family="sans-serif" font-size="14" lengthAdjust="spacing" textLength="315" x="740.5" y="879.1851">void execute(Map&lt;String, ? extends Object&gt;)</text></g><!--class SewerObservationService--><g id="elem_SewerObservationService"><rect codeLine="76" fill="#F1F1F1" height="64.2969" id="SewerObservationService" rx="2.5" ry="2.5" style="stroke:#181818;stroke-width:0.5;" width="208" x="1714" y="697.89"/><ellipse cx="1729" cy="713.89" fill="#ADD1B2" rx="11" ry="11" style="stroke:#181818;stroke-width:1.0;"/><path d="M1731.9688,719.5306 Q1731.3906,719.8275 1730.75,719.9681 Q1730.1094,720.1244 1729.4063,720.1244 Q1726.9063,720.1244 1725.5781,718.4838 Q1724.2656,716.8275 1724.2656,713.7025 Q1724.2656,710.5775 1725.5781,708.9213 Q1726.9063,707.265 1729.4063,707.265 Q1730.1094,707.265 1730.75,707.4213 Q1731.4063,707.5775 1731.9688,707.8744 L1731.9688,710.5931 Q1731.3438,710.015 1730.75,709.7494 Q1730.1563,709.4681 1729.5313,709.4681 Q1728.1875,709.4681 1727.5,710.5463 Q1726.8125,711.6088 1726.8125,713.7025 Q1726.8125,715.7963 1727.5,716.8744 Q1728.1875,717.9369 1729.5313,717.9369 Q1730.1563,717.9369 1730.75,717.6713 Q1731.3438,717.39 1731.9688,716.8119 L1731.9688,719.5306 Z " fill="#000000"/><text fill="#000000" font-family="sans-serif" font-size="14" lengthAdjust="spacing" textLength="176" x="1743" y="718.7367">SewerObservationService</text><line style="stroke:#181818;stroke-width:0.5;" x1="1715" x2="1921" y1="729.89" y2="729.89"/><line style="stroke:#181818;stroke-width:0.5;" x1="1715" x2="1921" y1="737.89" y2="737.89"/><ellipse cx="1725" cy="751.5384" fill="#84BE84" rx="3" ry="3" style="stroke:#038048;stroke-width:1.0;"/><text fill="#000000" font-family="sans-serif" font-size="14" lengthAdjust="spacing" textLength="182" x="1734" y="754.8851">Set&lt;Sewer&gt; serve(String)</text></g><!--class SewerObservationComponent--><g id="elem_SewerObservationComponent"><rect codeLine="79" fill="#F1F1F1" height="64.2969" id="SewerObservationComponent" rx="2.5" ry="2.5" style="stroke:#181818;stroke-width:0.5;" width="240" x="1678" y="822.19"/><ellipse cx="1693" cy="838.19" fill="#ADD1B2" rx="11" ry="11" style="stroke:#181818;stroke-width:1.0;"/><path d="M1695.9688,843.8306 Q1695.3906,844.1275 1694.75,844.2681 Q1694.1094,844.4244 1693.4063,844.4244 Q1690.9063,844.4244 1689.5781,842.7838 Q1688.2656,841.1275 1688.2656,838.0025 Q1688.2656,834.8775 1689.5781,833.2213 Q1690.9063,831.565 1693.4063,831.565 Q1694.1094,831.565 1694.75,831.7213 Q1695.4063,831.8775 1695.9688,832.1744 L1695.9688,834.8931 Q1695.3438,834.315 1694.75,834.0494 Q1694.1563,833.7681 1693.5313,833.7681 Q1692.1875,833.7681 1691.5,834.8463 Q1690.8125,835.9088 1690.8125,838.0025 Q1690.8125,840.0963 1691.5,841.1744 Q1692.1875,842.2369 1693.5313,842.2369 Q1694.1563,842.2369 1694.75,841.9713 Q1695.3438,841.69 1695.9688,841.1119 L1695.9688,843.8306 Z " fill="#000000"/><text fill="#000000" font-family="sans-serif" font-size="14" lengthAdjust="spacing" textLength="208" x="1707" y="843.0367">SewerObservationComponent</text><line style="stroke:#181818;stroke-width:0.5;" x1="1679" x2="1917" y1="854.19" y2="854.19"/><line style="stroke:#181818;stroke-width:0.5;" x1="1679" x2="1917" y1="862.19" y2="862.19"/><ellipse cx="1689" cy="875.8384" fill="#84BE84" rx="3" ry="3" style="stroke:#038048;stroke-width:1.0;"/><text fill="#000000" font-family="sans-serif" font-size="14" lengthAdjust="spacing" textLength="200" x="1698" y="879.1851">Set&lt;Sewer&gt; execute(String)</text></g><!--class Sewers--><g id="elem_Sewers"><rect codeLine="82" fill="#F1F1F1" height="80.5938" id="Sewers" rx="2.5" ry="2.5" style="stroke:#181818;stroke-width:0.5;" width="220" x="1688" y="1087.78"/><ellipse cx="1768.25" cy="1103.78" fill="#B4A7E5" rx="11" ry="11" style="stroke:#181818;stroke-width:1.0;"/><path d="M1764.1719,1099.5456 L1764.1719,1097.3894 L1771.5625,1097.3894 L1771.5625,1099.5456 L1769.0938,1099.5456 L1769.0938,1107.6238 L1771.5625,1107.6238 L1771.5625,1109.78 L1764.1719,1109.78 L1764.1719,1107.6238 L1766.6406,1107.6238 L1766.6406,1099.5456 L1764.1719,1099.5456 Z " fill="#000000"/><text fill="#000000" font-family="sans-serif" font-size="14" font-style="italic" lengthAdjust="spacing" textLength="51" x="1788.75" y="1108.6267">Sewers</text><line style="stroke:#181818;stroke-width:0.5;" x1="1689" x2="1907" y1="1119.78" y2="1119.78"/><line style="stroke:#181818;stroke-width:0.5;" x1="1689" x2="1907" y1="1127.78" y2="1127.78"/><ellipse cx="1699" cy="1141.4284" fill="#84BE84" rx="3" ry="3" style="stroke:#038048;stroke-width:1.0;"/><text fill="#000000" font-family="sans-serif" font-size="14" font-style="italic" lengthAdjust="spacing" textLength="194" x="1708" y="1144.7751">Set&lt;Sewer&gt; observe(UUID)</text><ellipse cx="1699" cy="1157.7253" fill="#84BE84" rx="3" ry="3" style="stroke:#038048;stroke-width:1.0;"/><text fill="#000000" font-family="sans-serif" font-size="14" font-style="italic" lengthAdjust="spacing" textLength="139" x="1708" y="1161.072">void indicate(Sewer)</text></g><!--class Sewer--><g id="elem_Sewer"><rect codeLine="86" fill="#F1F1F1" height="113.1875" id="Sewer" rx="2.5" ry="2.5" style="stroke:#181818;stroke-width:0.5;" width="259" x="1393.5" y="1071.48"/><ellipse cx="1497.25" cy="1087.48" fill="#ADD1B2" rx="11" ry="11" style="stroke:#181818;stroke-width:1.0;"/><path d="M1500.2188,1093.1206 Q1499.6406,1093.4175 1499,1093.5581 Q1498.3594,1093.7144 1497.6563,1093.7144 Q1495.1563,1093.7144 1493.8281,1092.0738 Q1492.5156,1090.4175 1492.5156,1087.2925 Q1492.5156,1084.1675 1493.8281,1082.5113 Q1495.1563,1080.855 1497.6563,1080.855 Q1498.3594,1080.855 1499,1081.0113 Q1499.6563,1081.1675 1500.2188,1081.4644 L1500.2188,1084.1831 Q1499.5938,1083.605 1499,1083.3394 Q1498.4063,1083.0581 1497.7813,1083.0581 Q1496.4375,1083.0581 1495.75,1084.1363 Q1495.0625,1085.1988 1495.0625,1087.2925 Q1495.0625,1089.3863 1495.75,1090.4644 Q1496.4375,1091.5269 1497.7813,1091.5269 Q1498.4063,1091.5269 1499,1091.2613 Q1499.5938,1090.98 1500.2188,1090.4019 L1500.2188,1093.1206 Z " fill="#000000"/><text fill="#000000" font-family="sans-serif" font-size="14" lengthAdjust="spacing" textLength="43" x="1517.75" y="1092.3267">Sewer</text><line style="stroke:#181818;stroke-width:0.5;" x1="1394.5" x2="1651.5" y1="1103.48" y2="1103.48"/><line style="stroke:#181818;stroke-width:0.5;" x1="1394.5" x2="1651.5" y1="1111.48" y2="1111.48"/><ellipse cx="1404.5" cy="1125.1284" fill="#84BE84" rx="3" ry="3" style="stroke:#038048;stroke-width:1.0;"/><text fill="#000000" font-family="sans-serif" font-size="14" lengthAdjust="spacing" textLength="83" x="1413.5" y="1128.4751">UUID getId()</text><ellipse cx="1404.5" cy="1141.4253" fill="#84BE84" rx="3" ry="3" style="stroke:#038048;stroke-width:1.0;"/><text fill="#000000" font-family="sans-serif" font-size="14" lengthAdjust="spacing" textLength="230" x="1413.5" y="1144.772">KeyPerformanceIndicator getKpi()</text><ellipse cx="1404.5" cy="1157.7222" fill="#84BE84" rx="3" ry="3" style="stroke:#038048;stroke-width:1.0;"/><text fill="#000000" font-family="sans-serif" font-size="14" lengthAdjust="spacing" textLength="206" x="1413.5" y="1161.0689">Set&lt;Problem&gt; getProblems()</text><ellipse cx="1404.5" cy="1174.0191" fill="#84BE84" rx="3" ry="3" style="stroke:#038048;stroke-width:1.0;"/><text fill="#000000" font-family="sans-serif" font-size="14" lengthAdjust="spacing" textLength="233" x="1413.5" y="1177.3657">void setProblems(Set&lt;Problem&gt;)</text></g><!--class KeyPerformanceIndicator--><g id="elem_KeyPerformanceIndicator"><rect codeLine="92" fill="#F1F1F1" height="96.8906" id="KeyPerformanceIndicator" rx="2.5" ry="2.5" style="stroke:#181818;stroke-width:0.5;" width="279" x="1338.5" y="1283.67"/><ellipse cx="1387.75" cy="1299.67" fill="#ADD1B2" rx="11" ry="11" style="stroke:#181818;stroke-width:1.0;"/><path d="M1390.7188,1305.3106 Q1390.1406,1305.6075 1389.5,1305.7481 Q1388.8594,1305.9044 1388.1563,1305.9044 Q1385.6563,1305.9044 1384.3281,1304.2638 Q1383.0156,1302.6075 1383.0156,1299.4825 Q1383.0156,1296.3575 1384.3281,1294.7013 Q1385.6563,1293.045 1388.1563,1293.045 Q1388.8594,1293.045 1389.5,1293.2013 Q1390.1563,1293.3575 1390.7188,1293.6544 L1390.7188,1296.3731 Q1390.0938,1295.795 1389.5,1295.5294 Q1388.9063,1295.2481 1388.2813,1295.2481 Q1386.9375,1295.2481 1386.25,1296.3263 Q1385.5625,1297.3888 1385.5625,1299.4825 Q1385.5625,1301.5763 1386.25,1302.6544 Q1386.9375,1303.7169 1388.2813,1303.7169 Q1388.9063,1303.7169 1389.5,1303.4513 Q1390.0938,1303.17 1390.7188,1302.5919 L1390.7188,1305.3106 Z " fill="#000000"/><text fill="#000000" font-family="sans-serif" font-size="14" lengthAdjust="spacing" textLength="172" x="1408.25" y="1304.5167">KeyPerformanceIndicator</text><line style="stroke:#181818;stroke-width:0.5;" x1="1339.5" x2="1616.5" y1="1315.67" y2="1315.67"/><line style="stroke:#181818;stroke-width:0.5;" x1="1339.5" x2="1616.5" y1="1323.67" y2="1323.67"/><ellipse cx="1349.5" cy="1337.3184" fill="#84BE84" rx="3" ry="3" style="stroke:#038048;stroke-width:1.0;"/><text fill="#000000" font-family="sans-serif" font-size="14" lengthAdjust="spacing" textLength="253" x="1358.5" y="1340.6651">String getPumpPowerConsumption()</text><ellipse cx="1349.5" cy="1353.6153" fill="#84BE84" rx="3" ry="3" style="stroke:#038048;stroke-width:1.0;"/><text fill="#000000" font-family="sans-serif" font-size="14" lengthAdjust="spacing" textLength="108" x="1358.5" y="1356.962">String getFlow()</text><ellipse cx="1349.5" cy="1369.9122" fill="#84BE84" rx="3" ry="3" style="stroke:#038048;stroke-width:1.0;"/><text fill="#000000" font-family="sans-serif" font-size="14" lengthAdjust="spacing" textLength="140" x="1358.5" y="1373.2589">Number getRainfall()</text></g><!--class Problem--><g id="elem_Problem"><rect codeLine="97" fill="#F1F1F1" height="80.5938" id="Problem" rx="2.5" ry="2.5" style="stroke:#181818;stroke-width:0.5;" width="243" x="1674.5" y="1291.82"/><ellipse cx="1763.25" cy="1307.82" fill="#ADD1B2" rx="11" ry="11" style="stroke:#181818;stroke-width:1.0;"/><path d="M1766.2188,1313.4606 Q1765.6406,1313.7575 1765,1313.8981 Q1764.3594,1314.0544 1763.6563,1314.0544 Q1761.1563,1314.0544 1759.8281,1312.4138 Q1758.5156,1310.7575 1758.5156,1307.6325 Q1758.5156,1304.5075 1759.8281,1302.8513 Q1761.1563,1301.195 1763.6563,1301.195 Q1764.3594,1301.195 1765,1301.3513 Q1765.6563,1301.5075 1766.2188,1301.8044 L1766.2188,1304.5231 Q1765.5938,1303.945 1765,1303.6794 Q1764.4063,1303.3981 1763.7813,1303.3981 Q1762.4375,1303.3981 1761.75,1304.4763 Q1761.0625,1305.5388 1761.0625,1307.6325 Q1761.0625,1309.7263 1761.75,1310.8044 Q1762.4375,1311.8669 1763.7813,1311.8669 Q1764.4063,1311.8669 1765,1311.6013 Q1765.5938,1311.32 1766.2188,1310.7419 L1766.2188,1313.4606 Z " fill="#000000"/><text fill="#000000" font-family="sans-serif" font-size="14" lengthAdjust="spacing" textLength="57" x="1783.75" y="1312.6667">Problem</text><line style="stroke:#181818;stroke-width:0.5;" x1="1675.5" x2="1916.5" y1="1323.82" y2="1323.82"/><line style="stroke:#181818;stroke-width:0.5;" x1="1675.5" x2="1916.5" y1="1331.82" y2="1331.82"/><ellipse cx="1685.5" cy="1345.4684" fill="#84BE84" rx="3" ry="3" style="stroke:#038048;stroke-width:1.0;"/><text fill="#000000" font-family="sans-serif" font-size="14" lengthAdjust="spacing" textLength="130" x="1694.5" y="1348.8151">String getReason()</text><ellipse cx="1685.5" cy="1361.7653" fill="#84BE84" rx="3" ry="3" style="stroke:#038048;stroke-width:1.0;"/><text fill="#000000" font-family="sans-serif" font-size="14" lengthAdjust="spacing" textLength="217" x="1694.5" y="1365.112">Number getOverflowIndication()</text></g><!--class SewerIndicationUseCase--><g id="elem_SewerIndicationUseCase"><rect codeLine="101" fill="#F1F1F1" height="64.2969" id="SewerIndicationUseCase" rx="2.5" ry="2.5" style="stroke:#181818;stroke-width:0.5;" width="203" x="789.5" y="515.59"/><ellipse cx="804.5" cy="531.59" fill="#ADD1B2" rx="11" ry="11" style="stroke:#181818;stroke-width:1.0;"/><path d="M807.4688,537.2306 Q806.8906,537.5275 806.25,537.6681 Q805.6094,537.8244 804.9063,537.8244 Q802.4063,537.8244 801.0781,536.1838 Q799.7656,534.5275 799.7656,531.4025 Q799.7656,528.2775 801.0781,526.6213 Q802.4063,524.965 804.9063,524.965 Q805.6094,524.965 806.25,525.1213 Q806.9063,525.2775 807.4688,525.5744 L807.4688,528.2931 Q806.8438,527.715 806.25,527.4494 Q805.6563,527.1681 805.0313,527.1681 Q803.6875,527.1681 803,528.2463 Q802.3125,529.3088 802.3125,531.4025 Q802.3125,533.4963 803,534.5744 Q803.6875,535.6369 805.0313,535.6369 Q805.6563,535.6369 806.25,535.3713 Q806.8438,535.09 807.4688,534.5119 L807.4688,537.2306 Z " fill="#000000"/><text fill="#000000" font-family="sans-serif" font-size="14" lengthAdjust="spacing" textLength="171" x="818.5" y="536.4367">SewerIndicationUseCase</text><line style="stroke:#181818;stroke-width:0.5;" x1="790.5" x2="991.5" y1="547.59" y2="547.59"/><line style="stroke:#181818;stroke-width:0.5;" x1="790.5" x2="991.5" y1="555.59" y2="555.59"/><ellipse cx="800.5" cy="569.2384" fill="#84BE84" rx="3" ry="3" style="stroke:#038048;stroke-width:1.0;"/><text fill="#000000" font-family="sans-serif" font-size="14" lengthAdjust="spacing" textLength="120" x="809.5" y="572.5851">void serve(String)</text></g><!--class SewerObservationUseCase--><g id="elem_SewerObservationUseCase"><rect codeLine="104" fill="#F1F1F1" height="64.2969" id="SewerObservationUseCase" rx="2.5" ry="2.5" style="stroke:#181818;stroke-width:0.5;" width="220" x="1846" y="515.59"/><ellipse cx="1861" cy="531.59" fill="#ADD1B2" rx="11" ry="11" style="stroke:#181818;stroke-width:1.0;"/><path d="M1863.9688,537.2306 Q1863.3906,537.5275 1862.75,537.6681 Q1862.1094,537.8244 1861.4063,537.8244 Q1858.9063,537.8244 1857.5781,536.1838 Q1856.2656,534.5275 1856.2656,531.4025 Q1856.2656,528.2775 1857.5781,526.6213 Q1858.9063,524.965 1861.4063,524.965 Q1862.1094,524.965 1862.75,525.1213 Q1863.4063,525.2775 1863.9688,525.5744 L1863.9688,528.2931 Q1863.3438,527.715 1862.75,527.4494 Q1862.1563,527.1681 1861.5313,527.1681 Q1860.1875,527.1681 1859.5,528.2463 Q1858.8125,529.3088 1858.8125,531.4025 Q1858.8125,533.4963 1859.5,534.5744 Q1860.1875,535.6369 1861.5313,535.6369 Q1862.1563,535.6369 1862.75,535.3713 Q1863.3438,535.09 1863.9688,534.5119 L1863.9688,537.2306 Z " fill="#000000"/><text fill="#000000" font-family="sans-serif" font-size="14" lengthAdjust="spacing" textLength="188" x="1875" y="536.4367">SewerObservationUseCase</text><line style="stroke:#181818;stroke-width:0.5;" x1="1847" x2="2065" y1="547.59" y2="547.59"/><line style="stroke:#181818;stroke-width:0.5;" x1="1847" x2="2065" y1="555.59" y2="555.59"/><ellipse cx="1857" cy="569.2384" fill="#84BE84" rx="3" ry="3" style="stroke:#038048;stroke-width:1.0;"/><text fill="#000000" font-family="sans-serif" font-size="14" lengthAdjust="spacing" textLength="182" x="1866" y="572.5851">Set&lt;Sewer&gt; serve(String)</text></g><!--class SewersUseCase--><g id="elem_SewersUseCase"><rect codeLine="107" fill="#F1F1F1" height="80.5938" id="SewersUseCase" rx="2.5" ry="2.5" style="stroke:#181818;stroke-width:0.5;" width="222" x="2022" y="1460.56"/><ellipse cx="2072.25" cy="1476.56" fill="#B4A7E5" rx="11" ry="11" style="stroke:#181818;stroke-width:1.0;"/><path d="M2068.1719,1472.3256 L2068.1719,1470.1694 L2075.5625,1470.1694 L2075.5625,1472.3256 L2073.0938,1472.3256 L2073.0938,1480.4038 L2075.5625,1480.4038 L2075.5625,1482.56 L2068.1719,1482.56 L2068.1719,1480.4038 L2070.6406,1480.4038 L2070.6406,1472.3256 L2068.1719,1472.3256 Z " fill="#000000"/><text fill="#000000" font-family="sans-serif" font-size="14" font-style="italic" lengthAdjust="spacing" textLength="113" x="2092.75" y="1481.4067">SewersUseCase</text><line style="stroke:#181818;stroke-width:0.5;" x1="2023" x2="2243" y1="1492.56" y2="1492.56"/><line style="stroke:#181818;stroke-width:0.5;" x1="2023" x2="2243" y1="1500.56" y2="1500.56"/><ellipse cx="2033" cy="1514.2084" fill="#84BE84" rx="3" ry="3" style="stroke:#038048;stroke-width:1.0;"/><text fill="#000000" font-family="sans-serif" font-size="14" font-style="italic" lengthAdjust="spacing" textLength="196" x="2042" y="1517.5551">Set&lt;Object&gt; observe(UUID)</text><ellipse cx="2033" cy="1530.5053" fill="#84BE84" rx="3" ry="3" style="stroke:#038048;stroke-width:1.0;"/><text fill="#000000" font-family="sans-serif" font-size="14" font-style="italic" lengthAdjust="spacing" textLength="183" x="2042" y="1533.852">void indicate(UUID, Object)</text></g><!--class SewersUseCaseBridge--><g id="elem_SewersUseCaseBridge"><rect codeLine="111" fill="#F1F1F1" height="80.5938" id="SewersUseCaseBridge" rx="2.5" ry="2.5" style="stroke:#181818;stroke-width:0.5;" width="220" x="2022" y="1291.82"/><ellipse cx="2050.5" cy="1307.82" fill="#ADD1B2" rx="11" ry="11" style="stroke:#181818;stroke-width:1.0;"/><path d="M2053.4688,1313.4606 Q2052.8906,1313.7575 2052.25,1313.8981 Q2051.6094,1314.0544 2050.9063,1314.0544 Q2048.4063,1314.0544 2047.0781,1312.4138 Q2045.7656,1310.7575 2045.7656,1307.6325 Q2045.7656,1304.5075 2047.0781,1302.8513 Q2048.4063,1301.195 2050.9063,1301.195 Q2051.6094,1301.195 2052.25,1301.3513 Q2052.9063,1301.5075 2053.4688,1301.8044 L2053.4688,1304.5231 Q2052.8438,1303.945 2052.25,1303.6794 Q2051.6563,1303.3981 2051.0313,1303.3981 Q2049.6875,1303.3981 2049,1304.4763 Q2048.3125,1305.5388 2048.3125,1307.6325 Q2048.3125,1309.7263 2049,1310.8044 Q2049.6875,1311.8669 2051.0313,1311.8669 Q2051.6563,1311.8669 2052.25,1311.6013 Q2052.8438,1311.32 2053.4688,1310.7419 L2053.4688,1313.4606 Z " fill="#000000"/><text fill="#000000" font-family="sans-serif" font-size="14" lengthAdjust="spacing" textLength="158" x="2067.5" y="1312.6667">SewersUseCaseBridge</text><line style="stroke:#181818;stroke-width:0.5;" x1="2023" x2="2241" y1="1323.82" y2="1323.82"/><line style="stroke:#181818;stroke-width:0.5;" x1="2023" x2="2241" y1="1331.82" y2="1331.82"/><ellipse cx="2033" cy="1345.4684" fill="#84BE84" rx="3" ry="3" style="stroke:#038048;stroke-width:1.0;"/><text fill="#000000" font-family="sans-serif" font-size="14" lengthAdjust="spacing" textLength="194" x="2042" y="1348.8151">Set&lt;Sewer&gt; observe(UUID)</text><ellipse cx="2033" cy="1361.7653" fill="#84BE84" rx="3" ry="3" style="stroke:#038048;stroke-width:1.0;"/><text fill="#000000" font-family="sans-serif" font-size="14" lengthAdjust="spacing" textLength="139" x="2042" y="1365.112">void indicate(Sewer)</text></g><!--class JSONRainfallIndicationDriver--><g id="elem_JSONRainfallIndicationDriver"><rect codeLine="115" fill="#F1F1F1" height="64.2969" id="JSONRainfallIndicationDriver" rx="2.5" ry="2.5" style="stroke:#181818;stroke-width:0.5;" width="219" x="295.5" y="127"/><ellipse cx="310.5" cy="143" fill="#ADD1B2" rx="11" ry="11" style="stroke:#181818;stroke-width:1.0;"/><path d="M313.4688,148.6406 Q312.8906,148.9375 312.25,149.0781 Q311.6094,149.2344 310.9063,149.2344 Q308.4063,149.2344 307.0781,147.5938 Q305.7656,145.9375 305.7656,142.8125 Q305.7656,139.6875 307.0781,138.0313 Q308.4063,136.375 310.9063,136.375 Q311.6094,136.375 312.25,136.5313 Q312.9063,136.6875 313.4688,136.9844 L313.4688,139.7031 Q312.8438,139.125 312.25,138.8594 Q311.6563,138.5781 311.0313,138.5781 Q309.6875,138.5781 309,139.6563 Q308.3125,140.7188 308.3125,142.8125 Q308.3125,144.9063 309,145.9844 Q309.6875,147.0469 311.0313,147.0469 Q311.6563,147.0469 312.25,146.7813 Q312.8438,146.5 313.4688,145.9219 L313.4688,148.6406 Z " fill="#000000"/><text fill="#000000" font-family="sans-serif" font-size="14" lengthAdjust="spacing" textLength="187" x="324.5" y="147.8467">JSONRainfallIndicationDriver</text><line style="stroke:#181818;stroke-width:0.5;" x1="296.5" x2="513.5" y1="159" y2="159"/><line style="stroke:#181818;stroke-width:0.5;" x1="296.5" x2="513.5" y1="167" y2="167"/><ellipse cx="306.5" cy="180.6484" fill="#84BE84" rx="3" ry="3" style="stroke:#038048;stroke-width:1.0;"/><text fill="#000000" font-family="sans-serif" font-size="14" lengthAdjust="spacing" textLength="120" x="315.5" y="183.9951">void serve(String)</text></g><!--class PdfPumpPowerConsumptionIndicationDriver--><g id="elem_PdfPumpPowerConsumptionIndicationDriver"><rect codeLine="118" fill="#F1F1F1" height="64.2969" id="PdfPumpPowerConsumptionIndicationDriver" rx="2.5" ry="2.5" style="stroke:#181818;stroke-width:0.5;" width="336" x="550" y="127"/><ellipse cx="565" cy="143" fill="#ADD1B2" rx="11" ry="11" style="stroke:#181818;stroke-width:1.0;"/><path d="M567.9688,148.6406 Q567.3906,148.9375 566.75,149.0781 Q566.1094,149.2344 565.4063,149.2344 Q562.9063,149.2344 561.5781,147.5938 Q560.2656,145.9375 560.2656,142.8125 Q560.2656,139.6875 561.5781,138.0313 Q562.9063,136.375 565.4063,136.375 Q566.1094,136.375 566.75,136.5313 Q567.4063,136.6875 567.9688,136.9844 L567.9688,139.7031 Q567.3438,139.125 566.75,138.8594 Q566.1563,138.5781 565.5313,138.5781 Q564.1875,138.5781 563.5,139.6563 Q562.8125,140.7188 562.8125,142.8125 Q562.8125,144.9063 563.5,145.9844 Q564.1875,147.0469 565.5313,147.0469 Q566.1563,147.0469 566.75,146.7813 Q567.3438,146.5 567.9688,145.9219 L567.9688,148.6406 Z " fill="#000000"/><text fill="#000000" font-family="sans-serif" font-size="14" lengthAdjust="spacing" textLength="304" x="579" y="147.8467">PdfPumpPowerConsumptionIndicationDriver</text><line style="stroke:#181818;stroke-width:0.5;" x1="551" x2="885" y1="159" y2="159"/><line style="stroke:#181818;stroke-width:0.5;" x1="551" x2="885" y1="167" y2="167"/><ellipse cx="561" cy="180.6484" fill="#84BE84" rx="3" ry="3" style="stroke:#038048;stroke-width:1.0;"/><text fill="#000000" font-family="sans-serif" font-size="14" lengthAdjust="spacing" textLength="120" x="570" y="183.9951">void serve(String)</text></g><!--class XMLRainfallIndicationDriver--><g id="elem_XMLRainfallIndicationDriver"><rect codeLine="121" fill="#F1F1F1" height="64.2969" id="XMLRainfallIndicationDriver" rx="2.5" ry="2.5" style="stroke:#181818;stroke-width:0.5;" width="214" x="46" y="127"/><ellipse cx="61" cy="143" fill="#ADD1B2" rx="11" ry="11" style="stroke:#181818;stroke-width:1.0;"/><path d="M63.9688,148.6406 Q63.3906,148.9375 62.75,149.0781 Q62.1094,149.2344 61.4063,149.2344 Q58.9063,149.2344 57.5781,147.5938 Q56.2656,145.9375 56.2656,142.8125 Q56.2656,139.6875 57.5781,138.0313 Q58.9063,136.375 61.4063,136.375 Q62.1094,136.375 62.75,136.5313 Q63.4063,136.6875 63.9688,136.9844 L63.9688,139.7031 Q63.3438,139.125 62.75,138.8594 Q62.1563,138.5781 61.5313,138.5781 Q60.1875,138.5781 59.5,139.6563 Q58.8125,140.7188 58.8125,142.8125 Q58.8125,144.9063 59.5,145.9844 Q60.1875,147.0469 61.5313,147.0469 Q62.1563,147.0469 62.75,146.7813 Q63.3438,146.5 63.9688,145.9219 L63.9688,148.6406 Z " fill="#000000"/><text fill="#000000" font-family="sans-serif" font-size="14" lengthAdjust="spacing" textLength="182" x="75" y="147.8467">XMLRainfallIndicationDriver</text><line style="stroke:#181818;stroke-width:0.5;" x1="47" x2="259" y1="159" y2="159"/><line style="stroke:#181818;stroke-width:0.5;" x1="47" x2="259" y1="167" y2="167"/><ellipse cx="57" cy="180.6484" fill="#84BE84" rx="3" ry="3" style="stroke:#038048;stroke-width:1.0;"/><text fill="#000000" font-family="sans-serif" font-size="14" lengthAdjust="spacing" textLength="120" x="66" y="183.9951">void serve(String)</text></g><!--class DynamoSewersDriver--><g id="elem_DynamoSewersDriver"><rect codeLine="124" fill="#F1F1F1" height="80.5938" id="DynamoSewersDriver" rx="2.5" ry="2.5" style="stroke:#181818;stroke-width:0.5;" width="222" x="1188" y="2201.94"/><ellipse cx="1221.9" cy="2217.94" fill="#ADD1B2" rx="11" ry="11" style="stroke:#181818;stroke-width:1.0;"/><path d="M1224.8688,2223.5806 Q1224.2906,2223.8775 1223.65,2224.0181 Q1223.0094,2224.1744 1222.3063,2224.1744 Q1219.8063,2224.1744 1218.4781,2222.5338 Q1217.1656,2220.8775 1217.1656,2217.7525 Q1217.1656,2214.6275 1218.4781,2212.9713 Q1219.8063,2211.315 1222.3063,2211.315 Q1223.0094,2211.315 1223.65,2211.4713 Q1224.3063,2211.6275 1224.8688,2211.9244 L1224.8688,2214.6431 Q1224.2438,2214.065 1223.65,2213.7994 Q1223.0563,2213.5181 1222.4313,2213.5181 Q1221.0875,2213.5181 1220.4,2214.5963 Q1219.7125,2215.6588 1219.7125,2217.7525 Q1219.7125,2219.8463 1220.4,2220.9244 Q1221.0875,2221.9869 1222.4313,2221.9869 Q1223.0563,2221.9869 1223.65,2221.7213 Q1224.2438,2221.44 1224.8688,2220.8619 L1224.8688,2223.5806 Z " fill="#000000"/><text fill="#000000" font-family="sans-serif" font-size="14" lengthAdjust="spacing" textLength="148" x="1240.1" y="2222.7867">DynamoSewersDriver</text><line style="stroke:#181818;stroke-width:0.5;" x1="1189" x2="1409" y1="2233.94" y2="2233.94"/><line style="stroke:#181818;stroke-width:0.5;" x1="1189" x2="1409" y1="2241.94" y2="2241.94"/><ellipse cx="1199" cy="2255.5884" fill="#84BE84" rx="3" ry="3" style="stroke:#038048;stroke-width:1.0;"/><text fill="#000000" font-family="sans-serif" font-size="14" lengthAdjust="spacing" textLength="196" x="1208" y="2258.9351">Set&lt;Object&gt; observe(UUID)</text><ellipse cx="1199" cy="2271.8853" fill="#84BE84" rx="3" ry="3" style="stroke:#038048;stroke-width:1.0;"/><text fill="#000000" font-family="sans-serif" font-size="14" lengthAdjust="spacing" textLength="183" x="1208" y="2275.232">void indicate(UUID, Object)</text></g><!--class S3SewersDriver--><g id="elem_S3SewersDriver"><rect codeLine="128" fill="#F1F1F1" height="80.5938" id="S3SewersDriver" rx="2.5" ry="2.5" style="stroke:#181818;stroke-width:0.5;" width="222" x="1466" y="2201.94"/><ellipse cx="1518.25" cy="2217.94" fill="#ADD1B2" rx="11" ry="11" style="stroke:#181818;stroke-width:1.0;"/><path d="M1521.2188,2223.5806 Q1520.6406,2223.8775 1520,2224.0181 Q1519.3594,2224.1744 1518.6563,2224.1744 Q1516.1563,2224.1744 1514.8281,2222.5338 Q1513.5156,2220.8775 1513.5156,2217.7525 Q1513.5156,2214.6275 1514.8281,2212.9713 Q1516.1563,2211.315 1518.6563,2211.315 Q1519.3594,2211.315 1520,2211.4713 Q1520.6563,2211.6275 1521.2188,2211.9244 L1521.2188,2214.6431 Q1520.5938,2214.065 1520,2213.7994 Q1519.4063,2213.5181 1518.7813,2213.5181 Q1517.4375,2213.5181 1516.75,2214.5963 Q1516.0625,2215.6588 1516.0625,2217.7525 Q1516.0625,2219.8463 1516.75,2220.9244 Q1517.4375,2221.9869 1518.7813,2221.9869 Q1519.4063,2221.9869 1520,2221.7213 Q1520.5938,2221.44 1521.2188,2220.8619 L1521.2188,2223.5806 Z " fill="#000000"/><text fill="#000000" font-family="sans-serif" font-size="14" lengthAdjust="spacing" textLength="109" x="1538.75" y="2222.7867">S3SewersDriver</text><line style="stroke:#181818;stroke-width:0.5;" x1="1467" x2="1687" y1="2233.94" y2="2233.94"/><line style="stroke:#181818;stroke-width:0.5;" x1="1467" x2="1687" y1="2241.94" y2="2241.94"/><ellipse cx="1477" cy="2255.5884" fill="#84BE84" rx="3" ry="3" style="stroke:#038048;stroke-width:1.0;"/><text fill="#000000" font-family="sans-serif" font-size="14" lengthAdjust="spacing" textLength="196" x="1486" y="2258.9351">Set&lt;Object&gt; observe(UUID)</text><ellipse cx="1477" cy="2271.8853" fill="#84BE84" rx="3" ry="3" style="stroke:#038048;stroke-width:1.0;"/><text fill="#000000" font-family="sans-serif" font-size="14" lengthAdjust="spacing" textLength="183" x="1486" y="2275.232">void indicate(UUID, Object)</text></g><!--class FileSewersDriver--><g id="elem_FileSewersDriver"><rect codeLine="132" fill="#F1F1F1" height="80.5938" id="FileSewersDriver" rx="2.5" ry="2.5" style="stroke:#181818;stroke-width:0.5;" width="222" x="1768" y="2201.94"/><ellipse cx="1817.75" cy="2217.94" fill="#ADD1B2" rx="11" ry="11" style="stroke:#181818;stroke-width:1.0;"/><path d="M1820.7188,2223.5806 Q1820.1406,2223.8775 1819.5,2224.0181 Q1818.8594,2224.1744 1818.1563,2224.1744 Q1815.6563,2224.1744 1814.3281,2222.5338 Q1813.0156,2220.8775 1813.0156,2217.7525 Q1813.0156,2214.6275 1814.3281,2212.9713 Q1815.6563,2211.315 1818.1563,2211.315 Q1818.8594,2211.315 1819.5,2211.4713 Q1820.1563,2211.6275 1820.7188,2211.9244 L1820.7188,2214.6431 Q1820.0938,2214.065 1819.5,2213.7994 Q1818.9063,2213.5181 1818.2813,2213.5181 Q1816.9375,2213.5181 1816.25,2214.5963 Q1815.5625,2215.6588 1815.5625,2217.7525 Q1815.5625,2219.8463 1816.25,2220.9244 Q1816.9375,2221.9869 1818.2813,2221.9869 Q1818.9063,2221.9869 1819.5,2221.7213 Q1820.0938,2221.44 1820.7188,2220.8619 L1820.7188,2223.5806 Z " fill="#000000"/><text fill="#000000" font-family="sans-serif" font-size="14" lengthAdjust="spacing" textLength="114" x="1838.25" y="2222.7867">FileSewersDriver</text><line style="stroke:#181818;stroke-width:0.5;" x1="1769" x2="1989" y1="2233.94" y2="2233.94"/><line style="stroke:#181818;stroke-width:0.5;" x1="1769" x2="1989" y1="2241.94" y2="2241.94"/><ellipse cx="1779" cy="2255.5884" fill="#84BE84" rx="3" ry="3" style="stroke:#038048;stroke-width:1.0;"/><text fill="#000000" font-family="sans-serif" font-size="14" lengthAdjust="spacing" textLength="196" x="1788" y="2258.9351">Set&lt;Object&gt; observe(UUID)</text><ellipse cx="1779" cy="2271.8853" fill="#84BE84" rx="3" ry="3" style="stroke:#038048;stroke-width:1.0;"/><text fill="#000000" font-family="sans-serif" font-size="14" lengthAdjust="spacing" textLength="183" x="1788" y="2275.232">void indicate(UUID, Object)</text></g><!--class SewersDriverOrchestrator--><g id="elem_SewersDriverOrchestrator"><rect codeLine="136" fill="#F1F1F1" height="80.5938" id="SewersDriverOrchestrator" rx="2.5" ry="2.5" style="stroke:#181818;stroke-width:0.5;" width="222" x="1768" y="2003.34"/><ellipse cx="1788.4" cy="2019.34" fill="#ADD1B2" rx="11" ry="11" style="stroke:#181818;stroke-width:1.0;"/><path d="M1791.3688,2024.9806 Q1790.7906,2025.2775 1790.15,2025.4181 Q1789.5094,2025.5744 1788.8063,2025.5744 Q1786.3063,2025.5744 1784.9781,2023.9338 Q1783.6656,2022.2775 1783.6656,2019.1525 Q1783.6656,2016.0275 1784.9781,2014.3713 Q1786.3063,2012.715 1788.8063,2012.715 Q1789.5094,2012.715 1790.15,2012.8713 Q1790.8063,2013.0275 1791.3688,2013.3244 L1791.3688,2016.0431 Q1790.7438,2015.465 1790.15,2015.1994 Q1789.5563,2014.9181 1788.9313,2014.9181 Q1787.5875,2014.9181 1786.9,2015.9963 Q1786.2125,2017.0588 1786.2125,2019.1525 Q1786.2125,2021.2463 1786.9,2022.3244 Q1787.5875,2023.3869 1788.9313,2023.3869 Q1789.5563,2023.3869 1790.15,2023.1213 Q1790.7438,2022.84 1791.3688,2022.2619 L1791.3688,2024.9806 Z " fill="#000000"/><text fill="#000000" font-family="sans-serif" font-size="14" lengthAdjust="spacing" textLength="178" x="1803.6" y="2024.1867">SewersDriverOrchestrator</text><line style="stroke:#181818;stroke-width:0.5;" x1="1769" x2="1989" y1="2035.34" y2="2035.34"/><line style="stroke:#181818;stroke-width:0.5;" x1="1769" x2="1989" y1="2043.34" y2="2043.34"/><ellipse cx="1779" cy="2056.9884" fill="#84BE84" rx="3" ry="3" style="stroke:#038048;stroke-width:1.0;"/><text fill="#000000" font-family="sans-serif" font-size="14" lengthAdjust="spacing" textLength="196" x="1788" y="2060.3351">Set&lt;Object&gt; observe(UUID)</text><ellipse cx="1779" cy="2073.2853" fill="#84BE84" rx="3" ry="3" style="stroke:#038048;stroke-width:1.0;"/><text fill="#000000" font-family="sans-serif" font-size="14" lengthAdjust="spacing" textLength="183" x="1788" y="2076.632">void indicate(UUID, Object)</text></g><!--class PanacheSewersDriver--><g id="elem_PanacheSewersDriver"><rect codeLine="140" fill="#F1F1F1" height="80.5938" id="PanacheSewersDriver" rx="2.5" ry="2.5" style="stroke:#181818;stroke-width:0.5;" width="222" x="2046" y="2201.94"/><ellipse cx="2078.55" cy="2217.94" fill="#ADD1B2" rx="11" ry="11" style="stroke:#181818;stroke-width:1.0;"/><path d="M2081.5188,2223.5806 Q2080.9406,2223.8775 2080.3,2224.0181 Q2079.6594,2224.1744 2078.9563,2224.1744 Q2076.4563,2224.1744 2075.1281,2222.5338 Q2073.8156,2220.8775 2073.8156,2217.7525 Q2073.8156,2214.6275 2075.1281,2212.9713 Q2076.4563,2211.315 2078.9563,2211.315 Q2079.6594,2211.315 2080.3,2211.4713 Q2080.9563,2211.6275 2081.5188,2211.9244 L2081.5188,2214.6431 Q2080.8938,2214.065 2080.3,2213.7994 Q2079.7063,2213.5181 2079.0813,2213.5181 Q2077.7375,2213.5181 2077.05,2214.5963 Q2076.3625,2215.6588 2076.3625,2217.7525 Q2076.3625,2219.8463 2077.05,2220.9244 Q2077.7375,2221.9869 2079.0813,2221.9869 Q2079.7063,2221.9869 2080.3,2221.7213 Q2080.8938,2221.44 2081.5188,2220.8619 L2081.5188,2223.5806 Z " fill="#000000"/><text fill="#000000" font-family="sans-serif" font-size="14" lengthAdjust="spacing" textLength="151" x="2096.45" y="2222.7867">PanacheSewersDriver</text><line style="stroke:#181818;stroke-width:0.5;" x1="2047" x2="2267" y1="2233.94" y2="2233.94"/><line style="stroke:#181818;stroke-width:0.5;" x1="2047" x2="2267" y1="2241.94" y2="2241.94"/><ellipse cx="2057" cy="2255.5884" fill="#84BE84" rx="3" ry="3" style="stroke:#038048;stroke-width:1.0;"/><text fill="#000000" font-family="sans-serif" font-size="14" lengthAdjust="spacing" textLength="196" x="2066" y="2258.9351">Set&lt;Object&gt; observe(UUID)</text><ellipse cx="2057" cy="2271.8853" fill="#84BE84" rx="3" ry="3" style="stroke:#038048;stroke-width:1.0;"/><text fill="#000000" font-family="sans-serif" font-size="14" lengthAdjust="spacing" textLength="183" x="2066" y="2275.232">void indicate(UUID, Object)</text></g><!--class PanacheSewerEntity--><g id="elem_PanacheSewerEntity"><rect codeLine="144" fill="#F1F1F1" height="48" id="PanacheSewerEntity" rx="2.5" ry="2.5" style="stroke:#181818;stroke-width:0.5;" width="173" x="2070.5" y="2430.42"/><ellipse cx="2085.5" cy="2446.42" fill="#ADD1B2" rx="11" ry="11" style="stroke:#181818;stroke-width:1.0;"/><path d="M2088.4688,2452.0606 Q2087.8906,2452.3575 2087.25,2452.4981 Q2086.6094,2452.6544 2085.9063,2452.6544 Q2083.4063,2452.6544 2082.0781,2451.0138 Q2080.7656,2449.3575 2080.7656,2446.2325 Q2080.7656,2443.1075 2082.0781,2441.4513 Q2083.4063,2439.795 2085.9063,2439.795 Q2086.6094,2439.795 2087.25,2439.9513 Q2087.9063,2440.1075 2088.4688,2440.4044 L2088.4688,2443.1231 Q2087.8438,2442.545 2087.25,2442.2794 Q2086.6563,2441.9981 2086.0313,2441.9981 Q2084.6875,2441.9981 2084,2443.0763 Q2083.3125,2444.1388 2083.3125,2446.2325 Q2083.3125,2448.3263 2084,2449.4044 Q2084.6875,2450.4669 2086.0313,2450.4669 Q2086.6563,2450.4669 2087.25,2450.2013 Q2087.8438,2449.92 2088.4688,2449.3419 L2088.4688,2452.0606 Z " fill="#000000"/><text fill="#000000" font-family="sans-serif" font-size="14" lengthAdjust="spacing" textLength="141" x="2099.5" y="2451.2667">PanacheSewerEntity</text><line style="stroke:#181818;stroke-width:0.5;" x1="2071.5" x2="2242.5" y1="2462.42" y2="2462.42"/><line style="stroke:#181818;stroke-width:0.5;" x1="2071.5" x2="2242.5" y1="2470.42" y2="2470.42"/></g><!--class FlowIndicationResourceDriver--><g id="elem_FlowIndicationResourceDriver"><rect codeLine="146" fill="#F1F1F1" height="64.2969" id="FlowIndicationResourceDriver" rx="2.5" ry="2.5" style="stroke:#181818;stroke-width:0.5;" width="236" x="1255" y="127"/><ellipse cx="1270" cy="143" fill="#ADD1B2" rx="11" ry="11" style="stroke:#181818;stroke-width:1.0;"/><path d="M1272.9688,148.6406 Q1272.3906,148.9375 1271.75,149.0781 Q1271.1094,149.2344 1270.4063,149.2344 Q1267.9063,149.2344 1266.5781,147.5938 Q1265.2656,145.9375 1265.2656,142.8125 Q1265.2656,139.6875 1266.5781,138.0313 Q1267.9063,136.375 1270.4063,136.375 Q1271.1094,136.375 1271.75,136.5313 Q1272.4063,136.6875 1272.9688,136.9844 L1272.9688,139.7031 Q1272.3438,139.125 1271.75,138.8594 Q1271.1563,138.5781 1270.5313,138.5781 Q1269.1875,138.5781 1268.5,139.6563 Q1267.8125,140.7188 1267.8125,142.8125 Q1267.8125,144.9063 1268.5,145.9844 Q1269.1875,147.0469 1270.5313,147.0469 Q1271.1563,147.0469 1271.75,146.7813 Q1272.3438,146.5 1272.9688,145.9219 L1272.9688,148.6406 Z " fill="#000000"/><text fill="#000000" font-family="sans-serif" font-size="14" lengthAdjust="spacing" textLength="204" x="1284" y="147.8467">FlowIndicationResourceDriver</text><line style="stroke:#181818;stroke-width:0.5;" x1="1256" x2="1490" y1="159" y2="159"/><line style="stroke:#181818;stroke-width:0.5;" x1="1256" x2="1490" y1="167" y2="167"/><ellipse cx="1266" cy="180.6484" fill="#84BE84" rx="3" ry="3" style="stroke:#038048;stroke-width:1.0;"/><text fill="#000000" font-family="sans-serif" font-size="14" lengthAdjust="spacing" textLength="120" x="1275" y="183.9951">void serve(String)</text></g><!--class PumpPowerConsumptionIndicationResourceDriver--><g id="elem_PumpPowerConsumptionIndicationResourceDriver"><rect codeLine="149" fill="#F1F1F1" height="64.2969" id="PumpPowerConsumptionIndicationResourceDriver" rx="2.5" ry="2.5" style="stroke:#181818;stroke-width:0.5;" width="381" x="1526.5" y="127"/><ellipse cx="1541.5" cy="143" fill="#ADD1B2" rx="11" ry="11" style="stroke:#181818;stroke-width:1.0;"/><path d="M1544.4688,148.6406 Q1543.8906,148.9375 1543.25,149.0781 Q1542.6094,149.2344 1541.9063,149.2344 Q1539.4063,149.2344 1538.0781,147.5938 Q1536.7656,145.9375 1536.7656,142.8125 Q1536.7656,139.6875 1538.0781,138.0313 Q1539.4063,136.375 1541.9063,136.375 Q1542.6094,136.375 1543.25,136.5313 Q1543.9063,136.6875 1544.4688,136.9844 L1544.4688,139.7031 Q1543.8438,139.125 1543.25,138.8594 Q1542.6563,138.5781 1542.0313,138.5781 Q1540.6875,138.5781 1540,139.6563 Q1539.3125,140.7188 1539.3125,142.8125 Q1539.3125,144.9063 1540,145.9844 Q1540.6875,147.0469 1542.0313,147.0469 Q1542.6563,147.0469 1543.25,146.7813 Q1543.8438,146.5 1544.4688,145.9219 L1544.4688,148.6406 Z " fill="#000000"/><text fill="#000000" font-family="sans-serif" font-size="14" lengthAdjust="spacing" textLength="349" x="1555.5" y="147.8467">PumpPowerConsumptionIndicationResourceDriver</text><line style="stroke:#181818;stroke-width:0.5;" x1="1527.5" x2="1906.5" y1="159" y2="159"/><line style="stroke:#181818;stroke-width:0.5;" x1="1527.5" x2="1906.5" y1="167" y2="167"/><ellipse cx="1537.5" cy="180.6484" fill="#84BE84" rx="3" ry="3" style="stroke:#038048;stroke-width:1.0;"/><text fill="#000000" font-family="sans-serif" font-size="14" lengthAdjust="spacing" textLength="120" x="1546.5" y="183.9951">void serve(String)</text></g><!--class RainfallIndicationResourceDriver--><g id="elem_RainfallIndicationResourceDriver"><rect codeLine="152" fill="#F1F1F1" height="64.2969" id="RainfallIndicationResourceDriver" rx="2.5" ry="2.5" style="stroke:#181818;stroke-width:0.5;" width="253" x="966.5" y="127"/><ellipse cx="981.5" cy="143" fill="#ADD1B2" rx="11" ry="11" style="stroke:#181818;stroke-width:1.0;"/><path d="M984.4688,148.6406 Q983.8906,148.9375 983.25,149.0781 Q982.6094,149.2344 981.9063,149.2344 Q979.4063,149.2344 978.0781,147.5938 Q976.7656,145.9375 976.7656,142.8125 Q976.7656,139.6875 978.0781,138.0313 Q979.4063,136.375 981.9063,136.375 Q982.6094,136.375 983.25,136.5313 Q983.9063,136.6875 984.4688,136.9844 L984.4688,139.7031 Q983.8438,139.125 983.25,138.8594 Q982.6563,138.5781 982.0313,138.5781 Q980.6875,138.5781 980,139.6563 Q979.3125,140.7188 979.3125,142.8125 Q979.3125,144.9063 980,145.9844 Q980.6875,147.0469 982.0313,147.0469 Q982.6563,147.0469 983.25,146.7813 Q983.8438,146.5 984.4688,145.9219 L984.4688,148.6406 Z " fill="#000000"/><text fill="#000000" font-family="sans-serif" font-size="14" lengthAdjust="spacing" textLength="221" x="995.5" y="147.8467">RainfallIndicationResourceDriver</text><line style="stroke:#181818;stroke-width:0.5;" x1="967.5" x2="1218.5" y1="159" y2="159"/><line style="stroke:#181818;stroke-width:0.5;" x1="967.5" x2="1218.5" y1="167" y2="167"/><ellipse cx="977.5" cy="180.6484" fill="#84BE84" rx="3" ry="3" style="stroke:#038048;stroke-width:1.0;"/><text fill="#000000" font-family="sans-serif" font-size="14" lengthAdjust="spacing" textLength="120" x="986.5" y="183.9951">void serve(String)</text></g><!--class ObservationResourceDriver--><g id="elem_ObservationResourceDriver"><rect codeLine="155" fill="#F1F1F1" height="64.2969" id="ObservationResourceDriver" rx="2.5" ry="2.5" style="stroke:#181818;stroke-width:0.5;" width="222" x="1964" y="127"/><ellipse cx="1979" cy="143" fill="#ADD1B2" rx="11" ry="11" style="stroke:#181818;stroke-width:1.0;"/><path d="M1981.9688,148.6406 Q1981.3906,148.9375 1980.75,149.0781 Q1980.1094,149.2344 1979.4063,149.2344 Q1976.9063,149.2344 1975.5781,147.5938 Q1974.2656,145.9375 1974.2656,142.8125 Q1974.2656,139.6875 1975.5781,138.0313 Q1976.9063,136.375 1979.4063,136.375 Q1980.1094,136.375 1980.75,136.5313 Q1981.4063,136.6875 1981.9688,136.9844 L1981.9688,139.7031 Q1981.3438,139.125 1980.75,138.8594 Q1980.1563,138.5781 1979.5313,138.5781 Q1978.1875,138.5781 1977.5,139.6563 Q1976.8125,140.7188 1976.8125,142.8125 Q1976.8125,144.9063 1977.5,145.9844 Q1978.1875,147.0469 1979.5313,147.0469 Q1980.1563,147.0469 1980.75,146.7813 Q1981.3438,146.5 1981.9688,145.9219 L1981.9688,148.6406 Z " fill="#000000"/><text fill="#000000" font-family="sans-serif" font-size="14" lengthAdjust="spacing" textLength="190" x="1993" y="147.8467">ObservationResourceDriver</text><line style="stroke:#181818;stroke-width:0.5;" x1="1965" x2="2185" y1="159" y2="159"/><line style="stroke:#181818;stroke-width:0.5;" x1="1965" x2="2185" y1="167" y2="167"/><ellipse cx="1975" cy="180.6484" fill="#84BE84" rx="3" ry="3" style="stroke:#038048;stroke-width:1.0;"/><text fill="#000000" font-family="sans-serif" font-size="14" lengthAdjust="spacing" textLength="132" x="1984" y="183.9951">String serve(String)</text></g><!--class PanacheEntity--><g id="elem_PanacheEntity"><rect codeLine="158" fill="#F1F1F1" height="145.7813" id="PanacheEntity" rx="2.5" ry="2.5" style="stroke:#181818;stroke-width:0.5;" width="179" x="2371.5" y="2381.53"/><ellipse cx="2408.55" cy="2397.53" fill="#ADD1B2" rx="11" ry="11" style="stroke:#181818;stroke-width:1.0;"/><path d="M2411.5188,2403.1706 Q2410.9406,2403.4675 2410.3,2403.6081 Q2409.6594,2403.7644 2408.9563,2403.7644 Q2406.4563,2403.7644 2405.1281,2402.1238 Q2403.8156,2400.4675 2403.8156,2397.3425 Q2403.8156,2394.2175 2405.1281,2392.5613 Q2406.4563,2390.905 2408.9563,2390.905 Q2409.6594,2390.905 2410.3,2391.0613 Q2410.9563,2391.2175 2411.5188,2391.5144 L2411.5188,2394.2331 Q2410.8938,2393.655 2410.3,2393.3894 Q2409.7063,2393.1081 2409.0813,2393.1081 Q2407.7375,2393.1081 2407.05,2394.1863 Q2406.3625,2395.2488 2406.3625,2397.3425 Q2406.3625,2399.4363 2407.05,2400.5144 Q2407.7375,2401.5769 2409.0813,2401.5769 Q2409.7063,2401.5769 2410.3,2401.3113 Q2410.8938,2401.03 2411.5188,2400.4519 L2411.5188,2403.1706 Z " fill="#000000"/><text fill="#000000" font-family="sans-serif" font-size="14" lengthAdjust="spacing" textLength="98" x="2427.45" y="2402.3767">PanacheEntity</text><line style="stroke:#181818;stroke-width:0.5;" x1="2372.5" x2="2549.5" y1="2413.53" y2="2413.53"/><line style="stroke:#181818;stroke-width:0.5;" x1="2372.5" x2="2549.5" y1="2421.53" y2="2421.53"/><ellipse cx="2382.5" cy="2435.1784" fill="#84BE84" rx="3" ry="3" style="stroke:#038048;stroke-width:1.0;"/><text fill="#000000" font-family="sans-serif" font-size="14" lengthAdjust="spacing" textLength="83" x="2391.5" y="2438.5251">Long getId()</text><ellipse cx="2382.5" cy="2451.4753" fill="#84BE84" rx="3" ry="3" style="stroke:#038048;stroke-width:1.0;"/><text fill="#000000" font-family="sans-serif" font-size="14" lengthAdjust="spacing" textLength="110" x="2391.5" y="2454.822">void setId(Long)</text><ellipse cx="2382.5" cy="2467.7722" fill="#84BE84" rx="3" ry="3" style="stroke:#038048;stroke-width:1.0;"/><text fill="#000000" font-family="sans-serif" font-size="14" lengthAdjust="spacing" textLength="151" x="2391.5" y="2471.1189">boolean isPersistent()</text><ellipse cx="2382.5" cy="2484.0691" fill="#84BE84" rx="3" ry="3" style="stroke:#038048;stroke-width:1.0;"/><text fill="#000000" font-family="sans-serif" font-size="14" lengthAdjust="spacing" textLength="89" x="2391.5" y="2487.4157">void persist()</text><ellipse cx="2382.5" cy="2500.3659" fill="#84BE84" rx="3" ry="3" style="stroke:#038048;stroke-width:1.0;"/><text fill="#000000" font-family="sans-serif" font-size="14" lengthAdjust="spacing" textLength="153" x="2391.5" y="2503.7126">void persistAndFlush()</text><ellipse cx="2382.5" cy="2516.6628" fill="#84BE84" rx="3" ry="3" style="stroke:#038048;stroke-width:1.0;"/><text fill="#000000" font-family="sans-serif" font-size="14" lengthAdjust="spacing" textLength="86" x="2391.5" y="2520.0095">void delete()</text></g><!--class PanacheRepository--><g id="elem_PanacheRepository"><rect codeLine="166" fill="#F1F1F1" height="48" id="PanacheRepository" rx="2.5" ry="2.5" style="stroke:#181818;stroke-width:0.5;" width="205" x="2585.5" y="2430.42"/><ellipse cx="2600.5" cy="2446.42" fill="#B4A7E5" rx="11" ry="11" style="stroke:#181818;stroke-width:1.0;"/><path d="M2596.4219,2442.1856 L2596.4219,2440.0294 L2603.8125,2440.0294 L2603.8125,2442.1856 L2601.3438,2442.1856 L2601.3438,2450.2638 L2603.8125,2450.2638 L2603.8125,2452.42 L2596.4219,2452.42 L2596.4219,2450.2638 L2598.8906,2450.2638 L2598.8906,2442.1856 L2596.4219,2442.1856 Z " fill="#000000"/><text fill="#000000" font-family="sans-serif" font-size="14" font-style="italic" lengthAdjust="spacing" textLength="134" x="2614.5" y="2451.2667">PanacheRepository</text><rect fill="#FFFFFF" height="15.9688" style="stroke:#181818;stroke-width:1.0;stroke-dasharray:2.0,2.0;" width="37" x="2756.5" y="2427.42"/><text fill="#000000" font-family="sans-serif" font-size="12" font-style="italic" lengthAdjust="spacing" textLength="35" x="2757.5" y="2439.5587">Entity</text><line style="stroke:#181818;stroke-width:0.5;" x1="2586.5" x2="2789.5" y1="2462.42" y2="2462.42"/><line style="stroke:#181818;stroke-width:0.5;" x1="2586.5" x2="2789.5" y1="2470.42" y2="2470.42"/></g><!--link SewerIndicationAdapter to SewerIndicationUseCase--><g id="link_SewerIndicationAdapter_SewerIndicationUseCase"><path codeLine="168" d="M891,398.03 C891,431.11 891,476.04 891,509.12 " fill="none" id="SewerIndicationAdapter-to-SewerIndicationUseCase" style="stroke:#181818;stroke-width:1.0;"/><polygon fill="#181818" points="891,515.12,895,506.12,891,510.12,887,506.12,891,515.12" style="stroke:#181818;stroke-width:1.0;"/></g><!--link SewerObservationAdapter to SewerObservationUseCase--><g id="link_SewerObservationAdapter_SewerObservationUseCase"><path codeLine="169" d="M1987.5,398.03 C1987.5,431.11 1987.5,476.04 1987.5,509.12 " fill="none" id="SewerObservationAdapter-to-SewerObservationUseCase" style="stroke:#181818;stroke-width:1.0;"/><polygon fill="#181818" points="1987.5,515.12,1991.5,506.12,1987.5,510.12,1983.5,506.12,1987.5,515.12" style="stroke:#181818;stroke-width:1.0;"/></g><!--reverse link SewersUseCase to SewersAdapterBridge--><g id="link_SewersUseCase_SewersAdapterBridge"><path codeLine="170" d="M2034,1559.38 C2034,1612.62 2034,1681.42 2034,1681.42 C2034,1681.42 1974.72,1681.42 1916.48,1681.42 " fill="none" id="SewersUseCase-backto-SewersAdapterBridge" style="stroke:#181818;stroke-width:1.0;stroke-dasharray:7.0,7.0;"/><polygon fill="none" points="2034,1541.38,2028,1559.38,2040,1559.38,2034,1541.38" style="stroke:#181818;stroke-width:1.0;"/></g><!--link SewersAdapterBridge to SewersAdapter--><g id="link_SewersAdapterBridge_SewersAdapter"><path codeLine="171" d="M1805,1721.12 C1805,1739.77 1805,1755.83 1805,1774.47 " fill="none" id="SewersAdapterBridge-to-SewersAdapter" style="stroke:#181818;stroke-width:1.0;"/><polygon fill="#181818" points="1805,1780.47,1809,1771.47,1805,1775.47,1801,1771.47,1805,1780.47" style="stroke:#181818;stroke-width:1.0;"/></g><!--link SewerOverflowIndicationService to SewerOverflowIndicationComponent--><g id="link_SewerOverflowIndicationService_SewerOverflowIndicationComponent"><path codeLine="172" d="M891,762.37 C891,780.64 891,797.42 891,815.73 " fill="none" id="SewerOverflowIndicationService-to-SewerOverflowIndicationComponent" style="stroke:#181818;stroke-width:1.0;"/><polygon fill="#181818" points="891,821.73,895,812.73,891,816.73,887,812.73,891,821.73" style="stroke:#181818;stroke-width:1.0;"/></g><!--link SewerOverflowIndicationComponent to Sewers--><g id="link_SewerOverflowIndicationComponent_Sewers"><path codeLine="173" d="M1061.96,854.42 C1289.5,854.42 1663.5,854.42 1663.5,854.42 C1663.5,854.42 1663.5,1128.42 1663.5,1128.42 C1663.5,1128.42 1667.27,1128.42 1681.55,1128.42 " fill="none" id="SewerOverflowIndicationComponent-to-Sewers" style="stroke:#181818;stroke-width:1.0;"/><polygon fill="#181818" points="1687.55,1128.42,1678.55,1124.42,1682.55,1128.42,1678.55,1132.42,1687.55,1128.42" style="stroke:#181818;stroke-width:1.0;"/></g><!--link SewerOverflowIndicationComponent to RainIndicationComponent--><g id="link_SewerOverflowIndicationComponent_RainIndicationComponent"><path codeLine="174" d="M789.5,886.81 C789.5,939.49 789.5,1036.98 789.5,1089.64 " fill="none" id="SewerOverflowIndicationComponent-to-RainIndicationComponent" style="stroke:#181818;stroke-width:1.0;"/><polygon fill="#181818" points="789.5,1095.64,793.5,1086.64,789.5,1090.64,785.5,1086.64,789.5,1095.64" style="stroke:#181818;stroke-width:1.0;"/></g><!--link SewerOverflowIndicationComponent to PumpIndicationComponent--><g id="link_SewerOverflowIndicationComponent_PumpIndicationComponent"><path codeLine="175" d="M720.35,854.42 C574.81,854.42 389,854.42 389,854.42 C389,854.42 389,1017.12 389,1089.61 " fill="none" id="SewerOverflowIndicationComponent-to-PumpIndicationComponent" style="stroke:#181818;stroke-width:1.0;"/><polygon fill="#181818" points="389,1095.61,393,1086.61,389,1090.61,385,1086.61,389,1095.61" style="stroke:#181818;stroke-width:1.0;"/></g><!--link SewerOverflowIndicationComponent to FlowIndicationComponent--><g id="link_SewerOverflowIndicationComponent_FlowIndicationComponent"><path codeLine="176" d="M977.5,886.81 C977.5,939.49 977.5,1036.98 977.5,1089.64 " fill="none" id="SewerOverflowIndicationComponent-to-FlowIndicationComponent" style="stroke:#181818;stroke-width:1.0;"/><polygon fill="#181818" points="977.5,1095.64,981.5,1086.64,977.5,1090.64,973.5,1086.64,977.5,1095.64" style="stroke:#181818;stroke-width:1.0;"/></g><!--link SewerObservationService to SewerObservationComponent--><g id="link_SewerObservationService_SewerObservationComponent"><path codeLine="177" d="M1816,762.37 C1816,780.64 1816,797.42 1816,815.73 " fill="none" id="SewerObservationService-to-SewerObservationComponent" style="stroke:#181818;stroke-width:1.0;"/><polygon fill="#181818" points="1816,821.73,1820,812.73,1816,816.73,1812,812.73,1816,821.73" style="stroke:#181818;stroke-width:1.0;"/></g><!--link SewerObservationComponent to Sewers--><g id="link_SewerObservationComponent_Sewers"><path codeLine="178" d="M1798,886.81 C1798,936.95 1798,1027.09 1798,1081.65 " fill="none" id="SewerObservationComponent-to-Sewers" style="stroke:#181818;stroke-width:1.0;"/><polygon fill="#181818" points="1798,1087.65,1802,1078.65,1798,1082.65,1794,1078.65,1798,1087.65" style="stroke:#181818;stroke-width:1.0;"/></g><!--link Sewer to Problem--><g id="link_Sewer_Problem"><path codeLine="179" d="M1652.91,1177.42 C1670.69,1177.42 1683,1177.42 1683,1177.42 C1683,1177.42 1683,1239.64 1683,1285.47 " fill="none" id="Sewer-to-Problem" style="stroke:#181818;stroke-width:1.0;"/><polygon fill="#181818" points="1683,1291.47,1687,1282.47,1683,1286.47,1679,1282.47,1683,1291.47" style="stroke:#181818;stroke-width:1.0;"/></g><!--link Sewer to KeyPerformanceIndicator--><g id="link_Sewer_KeyPerformanceIndicator"><path codeLine="180" d="M1505.5,1184.91 C1505.5,1215.81 1505.5,1247.63 1505.5,1277.2 " fill="none" id="Sewer-to-KeyPerformanceIndicator" style="stroke:#181818;stroke-width:1.0;"/><polygon fill="#181818" points="1505.5,1283.2,1509.5,1274.2,1505.5,1278.2,1501.5,1274.2,1505.5,1283.2" style="stroke:#181818;stroke-width:1.0;"/></g><!--link SewerIndicationUseCase to SewerOverflowIndicationService--><g id="link_SewerIndicationUseCase_SewerOverflowIndicationService"><path codeLine="181" d="M891,580.33 C891,613.41 891,658.33 891,691.42 " fill="none" id="SewerIndicationUseCase-to-SewerOverflowIndicationService" style="stroke:#181818;stroke-width:1.0;"/><polygon fill="#181818" points="891,697.42,895,688.42,891,692.42,887,688.42,891,697.42" style="stroke:#181818;stroke-width:1.0;"/></g><!--link SewerObservationUseCase to SewerObservationService--><g id="link_SewerObservationUseCase_SewerObservationService"><path codeLine="182" d="M1884,580.33 C1884,613.41 1884,658.33 1884,691.42 " fill="none" id="SewerObservationUseCase-to-SewerObservationService" style="stroke:#181818;stroke-width:1.0;"/><polygon fill="#181818" points="1884,697.42,1888,688.42,1884,692.42,1880,688.42,1884,697.42" style="stroke:#181818;stroke-width:1.0;"/></g><!--reverse link Sewers to SewersUseCaseBridge--><g id="link_Sewers_SewersUseCaseBridge"><path codeLine="183" d="M1926.41,1128.42 C1991.8,1128.42 2044,1128.42 2044,1128.42 C2044,1128.42 2044,1231.94 2044,1291.38 " fill="none" id="Sewers-backto-SewersUseCaseBridge" style="stroke:#181818;stroke-width:1.0;stroke-dasharray:7.0,7.0;"/><polygon fill="none" points="1908.41,1128.42,1926.41,1134.42,1926.41,1122.42,1908.41,1128.42" style="stroke:#181818;stroke-width:1.0;"/></g><!--link SewersUseCaseBridge to SewersUseCase--><g id="link_SewersUseCaseBridge_SewersUseCase"><path codeLine="184" d="M2132,1372.53 C2132,1399.05 2132,1427.61 2132,1454.18 " fill="none" id="SewersUseCaseBridge-to-SewersUseCase" style="stroke:#181818;stroke-width:1.0;"/><polygon fill="#181818" points="2132,1460.18,2136,1451.18,2132,1455.18,2128,1451.18,2132,1460.18" style="stroke:#181818;stroke-width:1.0;"/></g><!--link JSONRainfallIndicationDriver to SewerIndicationAdapter--><g id="link_JSONRainfallIndicationDriver_SewerIndicationAdapter"><path codeLine="185" d="M498.5,191.56 C498.5,247.3 498.5,355.42 498.5,355.42 C498.5,355.42 670.97,355.42 787.22,355.42 " fill="none" id="JSONRainfallIndicationDriver-to-SewerIndicationAdapter" style="stroke:#181818;stroke-width:1.0;"/><polygon fill="#181818" points="793.22,355.42,784.22,351.42,788.22,355.42,784.22,359.42,793.22,355.42" style="stroke:#181818;stroke-width:1.0;"/></g><!--link PdfPumpPowerConsumptionIndicationDriver to SewerIndicationAdapter--><g id="link_PdfPumpPowerConsumptionIndicationDriver_SewerIndicationAdapter"><path codeLine="186" d="M839.75,191.38 C839.75,230.02 839.75,288.4 839.75,327.1 " fill="none" id="PdfPumpPowerConsumptionIndicationDriver-to-SewerIndicationAdapter" style="stroke:#181818;stroke-width:1.0;"/><polygon fill="#181818" points="839.75,333.1,843.75,324.1,839.75,328.1,835.75,324.1,839.75,333.1" style="stroke:#181818;stroke-width:1.0;"/></g><!--link XMLRainfallIndicationDriver to SewerIndicationAdapter--><g id="link_XMLRainfallIndicationDriver_SewerIndicationAdapter"><path codeLine="187" d="M200.75,191.67 C200.75,252.29 200.75,376.42 200.75,376.42 C200.75,376.42 596.79,376.42 787.2,376.42 " fill="none" id="XMLRainfallIndicationDriver-to-SewerIndicationAdapter" style="stroke:#181818;stroke-width:1.0;"/><polygon fill="#181818" points="793.2,376.42,784.2,372.42,788.2,376.42,784.2,380.42,793.2,376.42" style="stroke:#181818;stroke-width:1.0;"/></g><!--reverse link SewersAdapter to DynamoSewersDriver--><g id="link_SewersAdapter_DynamoSewersDriver"><path codeLine="188" d="M1675.58,1808.42 C1544.45,1808.42 1362.33,1808.42 1362.33,1808.42 C1362.33,1808.42 1362.33,2094.12 1362.33,2201.81 " fill="none" id="SewersAdapter-backto-DynamoSewersDriver" style="stroke:#181818;stroke-width:1.0;stroke-dasharray:7.0,7.0;"/><polygon fill="none" points="1693.58,1808.42,1675.58,1802.42,1675.58,1814.42,1693.58,1808.42" style="stroke:#181818;stroke-width:1.0;"/></g><!--reverse link SewersAdapter to S3SewersDriver--><g id="link_SewersAdapter_S3SewersDriver"><path codeLine="189" d="M1675.95,1835.42 C1675.95,1835.42 1679,2098.84 1679,2201.74 " fill="none" id="SewersAdapter-backto-S3SewersDriver" style="stroke:#181818;stroke-width:1.0;stroke-dasharray:7.0,7.0;"/><polygon fill="none" points="1693.95,1835.42,1675.95,1829.42,1675.95,1841.42,1693.95,1835.42" style="stroke:#181818;stroke-width:1.0;"/></g><!--reverse link SewersAdapter to FileSewersDriver--><g id="link_SewersAdapter_FileSewersDriver"><path codeLine="190" d="M1731,1879.83 C1731,1985.58 1731,2242.42 1731,2242.42 C1731,2242.42 1746.56,2242.42 1767.58,2242.42 " fill="none" id="SewersAdapter-backto-FileSewersDriver" style="stroke:#181818;stroke-width:1.0;stroke-dasharray:7.0,7.0;"/><polygon fill="none" points="1731,1861.83,1725,1879.83,1737,1879.83,1731,1861.83" style="stroke:#181818;stroke-width:1.0;"/></g><!--reverse link SewersAdapter to SewersDriverOrchestrator--><g id="link_SewersAdapter_SewersDriverOrchestrator"><path codeLine="191" d="M1842,1879.61 C1842,1919.74 1842,1962.81 1842,2002.97 " fill="none" id="SewersAdapter-backto-SewersDriverOrchestrator" style="stroke:#181818;stroke-width:1.0;stroke-dasharray:7.0,7.0;"/><polygon fill="none" points="1842,1861.61,1836,1879.61,1848,1879.61,1842,1861.61" style="stroke:#181818;stroke-width:1.0;"/></g><!--link SewersDriverOrchestrator to DynamoSewersDriver--><g id="link_SewersDriverOrchestrator_DynamoSewersDriver"><path codeLine="192" d="M1767.78,2030.42 C1622.43,2030.42 1386.17,2030.42 1386.17,2030.42 C1386.17,2030.42 1386.17,2134.44 1386.17,2195.89 " fill="none" id="SewersDriverOrchestrator-to-DynamoSewersDriver" style="stroke:#181818;stroke-width:1.0;"/><polygon fill="#181818" points="1386.17,2201.89,1390.17,2192.89,1386.17,2196.89,1382.17,2192.89,1386.17,2201.89" style="stroke:#181818;stroke-width:1.0;"/></g><!--link SewersDriverOrchestrator to PanacheSewersDriver--><g id="link_SewersDriverOrchestrator_PanacheSewersDriver"><path codeLine="193" d="M1990.38,2044.42 C2050.29,2044.42 2112,2044.42 2112,2044.42 C2112,2044.42 2112,2137.85 2112,2195.72 " fill="none" id="SewersDriverOrchestrator-to-PanacheSewersDriver" style="stroke:#181818;stroke-width:1.0;"/><polygon fill="#181818" points="2112,2201.72,2116,2192.72,2112,2196.72,2108,2192.72,2112,2201.72" style="stroke:#181818;stroke-width:1.0;"/></g><!--link SewersDriverOrchestrator to FileSewersDriver--><g id="link_SewersDriverOrchestrator_FileSewersDriver"><path codeLine="194" d="M1879,2084.31 C1879,2118.58 1879,2161.36 1879,2195.62 " fill="none" id="SewersDriverOrchestrator-to-FileSewersDriver" style="stroke:#181818;stroke-width:1.0;"/><polygon fill="#181818" points="1879,2201.62,1883,2192.62,1879,2196.62,1875,2192.62,1879,2201.62" style="stroke:#181818;stroke-width:1.0;"/></g><!--link SewersDriverOrchestrator to S3SewersDriver--><g id="link_SewersDriverOrchestrator_S3SewersDriver"><path codeLine="195" d="M1767.54,2057.42 C1723.64,2057.42 1683.5,2057.42 1683.5,2057.42 C1683.5,2057.42 1683.5,2141.27 1683.5,2195.67 " fill="none" id="SewersDriverOrchestrator-to-S3SewersDriver" style="stroke:#181818;stroke-width:1.0;"/><polygon fill="#181818" points="1683.5,2201.67,1687.5,2192.67,1683.5,2196.67,1679.5,2192.67,1683.5,2201.67" style="stroke:#181818;stroke-width:1.0;"/></g><!--reverse link SewersAdapter to PanacheSewersDriver--><g id="link_SewersAdapter_PanacheSewersDriver"><path codeLine="196" d="M1934.41,1821.42 C2044.32,1821.42 2178,1821.42 2178,1821.42 C2178,1821.42 2178,2095.89 2178,2201.5 " fill="none" id="SewersAdapter-backto-PanacheSewersDriver" style="stroke:#181818;stroke-width:1.0;stroke-dasharray:7.0,7.0;"/><polygon fill="none" points="1916.41,1821.42,1934.41,1827.42,1934.41,1815.42,1916.41,1821.42" style="stroke:#181818;stroke-width:1.0;"/></g><!--link PanacheSewersDriver to PanacheSewerEntity--><g id="link_PanacheSewersDriver_PanacheSewerEntity"><path codeLine="197" d="M2157,2282.64 C2157,2326.17 2157,2388.02 2157,2424.04 " fill="none" id="PanacheSewersDriver-to-PanacheSewerEntity" style="stroke:#181818;stroke-width:1.0;"/><polygon fill="#181818" points="2157,2430.04,2161,2421.04,2157,2425.04,2153,2421.04,2157,2430.04" style="stroke:#181818;stroke-width:1.0;"/></g><!--link PanacheSewersDriver to PanacheRepository--><g id="link_PanacheSewersDriver_PanacheRepository"><path codeLine="198" d="M2268.32,2242.42 C2424.02,2242.42 2688,2242.42 2688,2242.42 C2688,2242.42 2688,2368.42 2688,2424.1 " fill="none" id="PanacheSewersDriver-to-PanacheRepository" style="stroke:#181818;stroke-width:1.0;"/><polygon fill="#181818" points="2688,2430.1,2692,2421.1,2688,2425.1,2684,2421.1,2688,2430.1" style="stroke:#181818;stroke-width:1.0;"/></g><!--reverse link PanacheEntity to PanacheSewerEntity--><g id="link_PanacheEntity_PanacheSewerEntity"><path codeLine="199" d="M2353.02,2454.42 C2312.84,2454.42 2283.68,2454.42 2243.87,2454.42 " fill="none" id="PanacheEntity-backto-PanacheSewerEntity" style="stroke:#181818;stroke-width:1.0;"/><polygon fill="none" points="2371.02,2454.42,2353.02,2448.42,2353.02,2460.42,2371.02,2454.42" style="stroke:#181818;stroke-width:1.0;"/></g><!--link FlowIndicationResourceDriver to SewerIndicationAdapter--><g id="link_FlowIndicationResourceDriver_SewerIndicationAdapter"><path codeLine="200" d="M1296.75,191.56 C1296.75,247.3 1296.75,355.42 1296.75,355.42 C1296.75,355.42 1115.03,355.42 994.96,355.42 " fill="none" id="FlowIndicationResourceDriver-to-SewerIndicationAdapter" style="stroke:#181818;stroke-width:1.0;"/><polygon fill="#181818" points="988.96,355.42,997.96,359.42,993.96,355.42,997.96,351.42,988.96,355.42" style="stroke:#181818;stroke-width:1.0;"/></g><!--link PumpPowerConsumptionIndicationResourceDriver to SewerIndicationAdapter--><g id="link_PumpPowerConsumptionIndicationResourceDriver_SewerIndicationAdapter"><path codeLine="201" d="M1589.5,191.67 C1589.5,252.29 1589.5,376.42 1589.5,376.42 C1589.5,376.42 1187.1,376.42 994.86,376.42 " fill="none" id="PumpPowerConsumptionIndicationResourceDriver-to-SewerIndicationAdapter" style="stroke:#181818;stroke-width:1.0;"/><polygon fill="#181818" points="988.86,376.42,997.86,380.42,993.86,376.42,997.86,372.42,988.86,376.42" style="stroke:#181818;stroke-width:1.0;"/></g><!--link RainfallIndicationResourceDriver to SewerIndicationAdapter--><g id="link_RainfallIndicationResourceDriver_SewerIndicationAdapter"><path codeLine="202" d="M977.5,191.38 C977.5,230.02 977.5,288.4 977.5,327.1 " fill="none" id="RainfallIndicationResourceDriver-to-SewerIndicationAdapter" style="stroke:#181818;stroke-width:1.0;"/><polygon fill="#181818" points="977.5,333.1,981.5,324.1,977.5,328.1,973.5,324.1,977.5,333.1" style="stroke:#181818;stroke-width:1.0;"/></g><!--link ObservationResourceDriver to SewerObservationAdapter--><g id="link_ObservationResourceDriver_SewerObservationAdapter"><path codeLine="203" d="M2042.5,191.38 C2042.5,230.02 2042.5,288.4 2042.5,327.1 " fill="none" id="ObservationResourceDriver-to-SewerObservationAdapter" style="stroke:#181818;stroke-width:1.0;"/><polygon fill="#181818" points="2042.5,333.1,2046.5,324.1,2042.5,328.1,2038.5,324.1,2042.5,333.1" style="stroke:#181818;stroke-width:1.0;"/></g><!--SRC=[tLbTRzis57tNhz3i5mThYABfXWO8FAH90sJzY94WmDu6Mg9YphAeaL8o8yr_7oLAiRv5IQJizYaEHPvxxYLvUNduYq_XmmQQ8KFNNe3e1jaO1cW1hJLyGCnqeCkGmTROyo656zF57WgsFZ893LR4O2loP38-3f6erV35EDEc-15HPa9csWXOPED3RmjyIeAu7s3e2L6GzfgozNRfXiXyVdb5W3Rq0sa8yDfz-k6TuopVPw6M9FHiIBSTeG3sR6pnO81NWAcBDqW5D5aoH1zr8CVDh06Op_JV5cIeQsJ1Rk3KSKxXwMaM5Na13l00KF2AC7Kinrw-LH6CChhCf5h42oXnTHW3AVQKKEWz84rEjYylTJuMROtaekWvXeDvIqtknKEssao215_l1X4zrpuUCRXPQoC6kChic47c8vSksemOwAB54ODTPrfhm3KUuJiZ-WxpdOtMOxsZ2GUxI2OwFk-CUO7dMKWIEJjY-hJ2GRwiUsBTSK0qQdhrzlpToOS1FXSGWRtru8Oe3stH33lHQYAUIPq62BLMY0KK1eIs6-AmaFVlOISTENt_- -bldpugOf-WjXFlbcebJ2ZBhHriDIHJokTGqc3SjRntEyv2XA8X0SUmxIdttn3ITHWd6qn0-b_5sbhX9Q8UfvZl2dRj5OC8tTHr1z6tYY6PZL4th6aBh4d0xzuoeq7IDGDYM2vap9pSHP6y5bE2YNSkpfd9u8ing0OsdmtJ_FMHODkCfsjs5r3iFHmPBpb2D_5a3c9KkeJK00j6ToWukrd-WwnWNYA68nN4WVpm4kHONqh57Pf34ppCPxYC4giLl6Gf9SxCxk-lBuyA_U9Wfl6FUxmnnRXYL5DJ7ocs7v1Q-WAp7CmIStcwDzoyuvAdtIAwur3OwivSwXxURBEqSBz2_qoiaJUc-3lFE72LmxZWH8d7RKzqAWYWncY6EleFMM6G9_y7R-KdYSsIQSYwiGWt_kXkr1WTuCOjnDxeRjGO7U16pGeToPyswuCTswLcXVkyzHZ8xUyeSyKTvhB7azBWrmbdeDPgYNOQ-eRZQw9UZXB0bKTOmal-18i752C-qIsX2HU41n57ym45r_OiflePRHSyXBoWWhpWJfO-eL6NppuMVI9N5qBFc4SVajziTfGvDtQjsUuPNsiiJSRGjq2TcsA9nUifzeodvmNXO1V4O_ntj1wJ6BpsYKuYqVOjtF22D6gByg43NNUMFLz422PZIKeWCLZqwHP1bdgnOrnEThFYkjnzkcVeWZEQA5IcGBM9xZNqS6wjQJJ7hI6DbhBHS6xLTMcEaDwoEZ7LiwoMTAHOODVbrUPa-kVTpRTq8-uMrcNCQJ98A0HDqErBTc4xLOb5CKT9A-rq__hwHLCO6v3RQLt6-gLODztOo2cXe6n0sPNlH0Njih8Ayi2gw5xnsHjAk4gd1KLWfLVg1FCcezzE5Ek_eCwGAaSMGjCQ6lmwsRG2NWVpJt4zCj6czuAoCUv6ZJvnYnW9gOMwHRDQpGLDq1BdG6DwLagqYwbsukMahPHi6tmxmKonDe1PgH2iXStLs7MpBHPfPZD8IjaWDrAO-a94CPzUsz9B5_y_-XItBGbn4VHCp1RfbWeolPDzLcuvz-mhDsIhp1SRkOZlzK9Hc_2wHJvXc6UzNbxjHfy91-VntjKYo1yVppNVLmmjidr_th9t6KErE0v2y7skuswWd6dNu3PY6cDBzVsNXW8PrDYV0Al0xqfTxyTsgRD2_xEwM_EkyhEwUwLdVqe_A2XmhljxW37-2yIXPXqPkLyPTqdT-OVogSTRWQ5P-TQIC9gh2KEpOAuZJTIa94EVB3sajDMI1cH8zm_zu6gyZuRUbQxi5T3GhwSV8FKcdNsVTFiByTttuE1hMtVvVSyavIJtFPFi9w__aAGbTrhlJN6mNdHuVZXO7wGsqq6lezPyPMXyLThpXkr2LU42Rtscqkr7RotU6EsXxZWy_ZxlznHYQ7gussT9fEBzxW3vjpxfxPrpXyU-hbnbttd-1m00]--></g></svg>