<svg xmlns="http://www.w3.org/2000/svg" xmlns:xlink="http://www.w3.org/1999/xlink" contentStyleType="text/css" height="1156px" preserveAspectRatio="none" style="width:2243px;height:1156px;background:#FFFFFF;" version="1.1" viewBox="0 0 2243 1156" width="2243px" zoomAndPan="magnify"><defs/><g><!--cluster use_cases--><g id="cluster_use_cases"><path d="M8.5,6 L466.5,6 A3.75,3.75 0 0 1 469,8.5 L476,28.2969 L2233.5,28.2969 A2.5,2.5 0 0 1 2236,30.7969 L2236,1147.06 A2.5,2.5 0 0 1 2233.5,1149.56 L8.5,1149.56 A2.5,2.5 0 0 1 6,1147.06 L6,8.5 A2.5,2.5 0 0 1 8.5,6 " fill="#FF9A99" style="stroke:#000000;stroke-width:1.5;"/><line style="stroke:#000000;stroke-width:1.5;" x1="6" x2="476" y1="28.2969" y2="28.2969"/><text fill="#000000" font-family="sans-serif" font-size="14" font-weight="bold" lengthAdjust="spacing" textLength="457" x="10" y="20.9951">de.company.prototype.sewer.drivers.adapters.use_cases</text></g><!--cluster entities--><g id="cluster_entities"><path d="M32.5,188.29 L92.5,188.29 A3.75,3.75 0 0 1 95,190.79 L102,210.5869 L1931.5,210.5869 A2.5,2.5 0 0 1 1934,213.0869 L1934,1010.47 A2.5,2.5 0 0 1 1931.5,1012.97 L32.5,1012.97 A2.5,2.5 0 0 1 30,1010.47 L30,190.79 A2.5,2.5 0 0 1 32.5,188.29 " fill="#FCFDB0" style="stroke:#000000;stroke-width:1.5;"/><line style="stroke:#000000;stroke-width:1.5;" x1="30" x2="102" y1="210.5869" y2="210.5869"/><text fill="#000000" font-family="sans-serif" font-size="14" font-weight="bold" lengthAdjust="spacing" textLength="59" x="34" y="203.2851">entities</text></g><!--cluster boundary--><g id="cluster_boundary"><path d="M56.5,231.29 L199.5,231.29 A3.75,3.75 0 0 1 202,233.79 L209,253.5869 L1223.5,253.5869 A2.5,2.5 0 0 1 1226,256.0869 L1226,766.13 A2.5,2.5 0 0 1 1223.5,768.63 L56.5,768.63 A2.5,2.5 0 0 1 54,766.13 L54,233.79 A2.5,2.5 0 0 1 56.5,231.29 " fill="#00FF00" style="stroke:#000000;stroke-width:1.5;"/><line style="stroke:#000000;stroke-width:1.5;" x1="54" x2="209" y1="253.5869" y2="253.5869"/><text fill="#000000" font-family="sans-serif" font-size="14" font-weight="bold" lengthAdjust="spacing" textLength="142" x="58" y="246.2851">indicate.boundary</text></g><!--cluster control--><g id="cluster_control"><path d="M80.5,355.59 L137.5,355.59 A3.75,3.75 0 0 1 140,358.09 L147,377.8869 L1199.5,377.8869 A2.5,2.5 0 0 1 1202,380.3869 L1202,742.13 A2.5,2.5 0 0 1 1199.5,744.63 L80.5,744.63 A2.5,2.5 0 0 1 78,742.13 L78,358.09 A2.5,2.5 0 0 1 80.5,355.59 " fill="#FFA500" style="stroke:#000000;stroke-width:1.5;"/><line style="stroke:#000000;stroke-width:1.5;" x1="78" x2="147" y1="377.8869" y2="377.8869"/><text fill="#000000" font-family="sans-serif" font-size="14" font-weight="bold" lengthAdjust="spacing" textLength="56" x="82" y="370.5851">control</text></g><!--cluster boundary--><g id="cluster_boundary"><path d="M1576.5,231.29 L1722.5,231.29 A3.75,3.75 0 0 1 1725,233.79 L1732,253.5869 L1891.5,253.5869 A2.5,2.5 0 0 1 1894,256.0869 L1894,492.39 A2.5,2.5 0 0 1 1891.5,494.89 L1576.5,494.89 A2.5,2.5 0 0 1 1574,492.39 L1574,233.79 A2.5,2.5 0 0 1 1576.5,231.29 " fill="#00FF00" style="stroke:#000000;stroke-width:1.5;"/><line style="stroke:#000000;stroke-width:1.5;" x1="1574" x2="1732" y1="253.5869" y2="253.5869"/><text fill="#000000" font-family="sans-serif" font-size="14" font-weight="bold" lengthAdjust="spacing" textLength="145" x="1578" y="246.2851">observe.boundary</text></g><!--cluster control--><g id="cluster_control"><path d="M1600.5,355.59 L1657.5,355.59 A3.75,3.75 0 0 1 1660,358.09 L1667,377.8869 L1867.5,377.8869 A2.5,2.5 0 0 1 1870,380.3869 L1870,468.39 A2.5,2.5 0 0 1 1867.5,470.89 L1600.5,470.89 A2.5,2.5 0 0 1 1598,468.39 L1598,358.09 A2.5,2.5 0 0 1 1600.5,355.59 " fill="#FFA500" style="stroke:#000000;stroke-width:1.5;"/><line style="stroke:#000000;stroke-width:1.5;" x1="1598" x2="1667" y1="377.8869" y2="377.8869"/><text fill="#000000" font-family="sans-serif" font-size="14" font-weight="bold" lengthAdjust="spacing" textLength="56" x="1602" y="370.5851">control</text></g><!--cluster sewer--><g id="cluster_sewer"><path d="M1252.5,518.89 L1303.5,518.89 A3.75,3.75 0 0 1 1306,521.39 L1313,541.1869 L1907.5,541.1869 A2.5,2.5 0 0 1 1910,543.6869 L1910,986.47 A2.5,2.5 0 0 1 1907.5,988.97 L1252.5,988.97 A2.5,2.5 0 0 1 1250,986.47 L1250,521.39 A2.5,2.5 0 0 1 1252.5,518.89 " fill="none" style="stroke:#000000;stroke-width:1.5;"/><line style="stroke:#000000;stroke-width:1.5;" x1="1250" x2="1313" y1="541.1869" y2="541.1869"/><text fill="#000000" font-family="sans-serif" font-size="14" font-weight="bold" lengthAdjust="spacing" textLength="50" x="1254" y="533.8851">sewer</text></g><!--cluster boundary--><g id="cluster_boundary"><path d="M1292.5,561.89 L1368.5,561.89 A3.75,3.75 0 0 1 1371,564.39 L1378,584.1869 L1857.5,584.1869 A2.5,2.5 0 0 1 1860,586.6869 L1860,790.58 A2.5,2.5 0 0 1 1857.5,793.08 L1292.5,793.08 A2.5,2.5 0 0 1 1290,790.58 L1290,564.39 A2.5,2.5 0 0 1 1292.5,561.89 " fill="#00FF00" style="stroke:#000000;stroke-width:1.5;"/><line style="stroke:#000000;stroke-width:1.5;" x1="1290" x2="1378" y1="584.1869" y2="584.1869"/><text fill="#000000" font-family="sans-serif" font-size="14" font-weight="bold" lengthAdjust="spacing" textLength="75" x="1294" y="576.8851">boundary</text></g><!--cluster entity--><g id="cluster_entity"><path d="M1316.5,604.89 L1423.5,604.89 A3.75,3.75 0 0 1 1426,607.39 L1433,627.1869 L1601.5,627.1869 A2.5,2.5 0 0 1 1604,629.6869 L1604,766.58 A2.5,2.5 0 0 1 1601.5,769.08 L1316.5,769.08 A2.5,2.5 0 0 1 1314,766.58 L1314,607.39 A2.5,2.5 0 0 1 1316.5,604.89 " fill="#FCFDB0" style="stroke:#000000;stroke-width:1.5;"/><line style="stroke:#000000;stroke-width:1.5;" x1="1314" x2="1433" y1="627.1869" y2="627.1869"/><text fill="#000000" font-family="sans-serif" font-size="14" font-weight="bold" lengthAdjust="spacing" textLength="106" x="1318" y="619.8851">control.entity</text></g><!--cluster entity--><g id="cluster_entity"><path d="M1276.5,817.08 L1491.5,817.08 A3.75,3.75 0 0 1 1494,819.58 L1501,839.3769 L1583.5,839.3769 A2.5,2.5 0 0 1 1586,841.8769 L1586,962.47 A2.5,2.5 0 0 1 1583.5,964.97 L1276.5,964.97 A2.5,2.5 0 0 1 1274,962.47 L1274,819.58 A2.5,2.5 0 0 1 1276.5,817.08 " fill="#FCFDB0" style="stroke:#000000;stroke-width:1.5;"/><line style="stroke:#000000;stroke-width:1.5;" x1="1274" x2="1501" y1="839.3769" y2="839.3769"/><text fill="#000000" font-family="sans-serif" font-size="14" font-weight="bold" lengthAdjust="spacing" textLength="214" x="1278" y="832.0751">kpi.boundary.control.entity</text></g><!--cluster entity--><g id="cluster_entity"><path d="M1612.5,825.22 L1869.5,825.22 A3.75,3.75 0 0 1 1872,827.72 L1879,847.5169 L1883.5,847.5169 A2.5,2.5 0 0 1 1886,850.0169 L1886,954.32 A2.5,2.5 0 0 1 1883.5,956.82 L1612.5,956.82 A2.5,2.5 0 0 1 1610,954.32 L1610,827.72 A2.5,2.5 0 0 1 1612.5,825.22 " fill="#FCFDB0" style="stroke:#000000;stroke-width:1.5;"/><line style="stroke:#000000;stroke-width:1.5;" x1="1610" x2="1879" y1="847.5169" y2="847.5169"/><text fill="#000000" font-family="sans-serif" font-size="14" font-weight="bold" lengthAdjust="spacing" textLength="256" x="1614" y="840.2151">problem.boundary.control.entity</text></g><!--cluster boundary--><g id="cluster_boundary"><path d="M713.5,49 L856.5,49 A3.75,3.75 0 0 1 859,51.5 L866,71.2969 L942.5,71.2969 A2.5,2.5 0 0 1 945,73.7969 L945,161.79 A2.5,2.5 0 0 1 942.5,164.29 L713.5,164.29 A2.5,2.5 0 0 1 711,161.79 L711,51.5 A2.5,2.5 0 0 1 713.5,49 " fill="#00FF00" style="stroke:#000000;stroke-width:1.5;"/><line style="stroke:#000000;stroke-width:1.5;" x1="711" x2="866" y1="71.2969" y2="71.2969"/><text fill="#000000" font-family="sans-serif" font-size="14" font-weight="bold" lengthAdjust="spacing" textLength="142" x="715" y="63.9951">indicate.boundary</text></g><!--cluster boundary--><g id="cluster_boundary"><path d="M1610.5,49 L1756.5,49 A3.75,3.75 0 0 1 1759,51.5 L1766,71.2969 L1857.5,71.2969 A2.5,2.5 0 0 1 1860,73.7969 L1860,161.79 A2.5,2.5 0 0 1 1857.5,164.29 L1610.5,164.29 A2.5,2.5 0 0 1 1608,161.79 L1608,51.5 A2.5,2.5 0 0 1 1610.5,49 " fill="#00FF00" style="stroke:#000000;stroke-width:1.5;"/><line style="stroke:#000000;stroke-width:1.5;" x1="1608" x2="1766" y1="71.2969" y2="71.2969"/><text fill="#000000" font-family="sans-serif" font-size="14" font-weight="bold" lengthAdjust="spacing" textLength="145" x="1612" y="63.9951">observe.boundary</text></g><!--cluster boundary--><g id="cluster_boundary"><path d="M1960.5,825.22 L2100.5,825.22 A3.75,3.75 0 0 1 2103,827.72 L2110,847.5169 L2209.5,847.5169 A2.5,2.5 0 0 1 2212,850.0169 L2212,1123.06 A2.5,2.5 0 0 1 2209.5,1125.56 L1960.5,1125.56 A2.5,2.5 0 0 1 1958,1123.06 L1958,827.72 A2.5,2.5 0 0 1 1960.5,825.22 " fill="#00FF00" style="stroke:#000000;stroke-width:1.5;"/><line style="stroke:#000000;stroke-width:1.5;" x1="1958" x2="2110" y1="847.5169" y2="847.5169"/><text fill="#000000" font-family="sans-serif" font-size="14" font-weight="bold" lengthAdjust="spacing" textLength="139" x="1962" y="840.2151">sewers.boundary</text></g><!--class SewerOverflowIndicationService--><g id="elem_SewerOverflowIndicationService"><rect codeLine="25" fill="#F1F1F1" height="64.2969" id="SewerOverflowIndicationService" rx="2.5" ry="2.5" style="stroke:#181818;stroke-width:0.5;" width="250" x="703" y="266.29"/><ellipse cx="718" cy="282.29" fill="#ADD1B2" rx="11" ry="11" style="stroke:#181818;stroke-width:1.0;"/><path d="M720.9688,287.9306 Q720.3906,288.2275 719.75,288.3681 Q719.1094,288.5244 718.4063,288.5244 Q715.9063,288.5244 714.5781,286.8837 Q713.2656,285.2275 713.2656,282.1025 Q713.2656,278.9775 714.5781,277.3212 Q715.9063,275.665 718.4063,275.665 Q719.1094,275.665 719.75,275.8212 Q720.4063,275.9775 720.9688,276.2744 L720.9688,278.9931 Q720.3438,278.415 719.75,278.1494 Q719.1563,277.8681 718.5313,277.8681 Q717.1875,277.8681 716.5,278.9462 Q715.8125,280.0087 715.8125,282.1025 Q715.8125,284.1962 716.5,285.2744 Q717.1875,286.3369 718.5313,286.3369 Q719.1563,286.3369 719.75,286.0712 Q720.3438,285.79 720.9688,285.2119 L720.9688,287.9306 Z " fill="#000000"/><text fill="#000000" font-family="sans-serif" font-size="14" lengthAdjust="spacing" textLength="218" x="732" y="287.1367">SewerOverflowIndicationService</text><line style="stroke:#181818;stroke-width:0.5;" x1="704" x2="952" y1="298.29" y2="298.29"/><line style="stroke:#181818;stroke-width:0.5;" x1="704" x2="952" y1="306.29" y2="306.29"/><ellipse cx="714" cy="319.9384" fill="#84BE84" rx="3" ry="3" style="stroke:#038048;stroke-width:1.0;"/><text fill="#000000" font-family="sans-serif" font-size="14" lengthAdjust="spacing" textLength="221" x="723" y="323.2851">void serve(Map&lt;String, String&gt;)</text></g><!--class FlowIndicationComponent--><g id="elem_FlowIndicationComponent"><rect codeLine="28" fill="#F1F1F1" height="64.2969" id="FlowIndicationComponent" rx="2.5" ry="2.5" style="stroke:#181818;stroke-width:0.5;" width="341" x="93.5" y="664.33"/><ellipse cx="170.25" cy="680.33" fill="#ADD1B2" rx="11" ry="11" style="stroke:#181818;stroke-width:1.0;"/><path d="M173.2188,685.9706 Q172.6406,686.2675 172,686.4081 Q171.3594,686.5644 170.6563,686.5644 Q168.1563,686.5644 166.8281,684.9237 Q165.5156,683.2675 165.5156,680.1425 Q165.5156,677.0175 166.8281,675.3612 Q168.1563,673.705 170.6563,673.705 Q171.3594,673.705 172,673.8612 Q172.6563,674.0175 173.2188,674.3144 L173.2188,677.0331 Q172.5938,676.455 172,676.1894 Q171.4063,675.9081 170.7813,675.9081 Q169.4375,675.9081 168.75,676.9862 Q168.0625,678.0487 168.0625,680.1425 Q168.0625,682.2362 168.75,683.3144 Q169.4375,684.3769 170.7813,684.3769 Q171.4063,684.3769 172,684.1112 Q172.5938,683.83 173.2188,683.2519 L173.2188,685.9706 Z " fill="#000000"/><text fill="#000000" font-family="sans-serif" font-size="14" lengthAdjust="spacing" textLength="179" x="190.75" y="685.1767">FlowIndicationComponent</text><line style="stroke:#181818;stroke-width:0.5;" x1="94.5" x2="433.5" y1="696.33" y2="696.33"/><line style="stroke:#181818;stroke-width:0.5;" x1="94.5" x2="433.5" y1="704.33" y2="704.33"/><ellipse cx="104.5" cy="717.9784" fill="#84BE84" rx="3" ry="3" style="stroke:#038048;stroke-width:1.0;"/><text fill="#000000" font-family="sans-serif" font-size="14" lengthAdjust="spacing" textLength="315" x="113.5" y="721.3251">void execute(Map&lt;String, ? extends Object&gt;)</text></g><!--class PumpIndicationComponent--><g id="elem_PumpIndicationComponent"><rect codeLine="31" fill="#F1F1F1" height="64.2969" id="PumpIndicationComponent" rx="2.5" ry="2.5" style="stroke:#181818;stroke-width:0.5;" width="341" x="469.5" y="664.33"/><ellipse cx="541.75" cy="680.33" fill="#ADD1B2" rx="11" ry="11" style="stroke:#181818;stroke-width:1.0;"/><path d="M544.7188,685.9706 Q544.1406,686.2675 543.5,686.4081 Q542.8594,686.5644 542.1563,686.5644 Q539.6563,686.5644 538.3281,684.9237 Q537.0156,683.2675 537.0156,680.1425 Q537.0156,677.0175 538.3281,675.3612 Q539.6563,673.705 542.1563,673.705 Q542.8594,673.705 543.5,673.8612 Q544.1563,674.0175 544.7188,674.3144 L544.7188,677.0331 Q544.0938,676.455 543.5,676.1894 Q542.9063,675.9081 542.2813,675.9081 Q540.9375,675.9081 540.25,676.9862 Q539.5625,678.0487 539.5625,680.1425 Q539.5625,682.2362 540.25,683.3144 Q540.9375,684.3769 542.2813,684.3769 Q542.9063,684.3769 543.5,684.1112 Q544.0938,683.83 544.7188,683.2519 L544.7188,685.9706 Z " fill="#000000"/><text fill="#000000" font-family="sans-serif" font-size="14" lengthAdjust="spacing" textLength="188" x="562.25" y="685.1767">PumpIndicationComponent</text><line style="stroke:#181818;stroke-width:0.5;" x1="470.5" x2="809.5" y1="696.33" y2="696.33"/><line style="stroke:#181818;stroke-width:0.5;" x1="470.5" x2="809.5" y1="704.33" y2="704.33"/><ellipse cx="480.5" cy="717.9784" fill="#84BE84" rx="3" ry="3" style="stroke:#038048;stroke-width:1.0;"/><text fill="#000000" font-family="sans-serif" font-size="14" lengthAdjust="spacing" textLength="315" x="489.5" y="721.3251">void execute(Map&lt;String, ? extends Object&gt;)</text></g><!--class RainIndicationComponent--><g id="elem_RainIndicationComponent"><rect codeLine="34" fill="#F1F1F1" height="64.2969" id="RainIndicationComponent" rx="2.5" ry="2.5" style="stroke:#181818;stroke-width:0.5;" width="341" x="845.5" y="664.33"/><ellipse cx="922.75" cy="680.33" fill="#ADD1B2" rx="11" ry="11" style="stroke:#181818;stroke-width:1.0;"/><path d="M925.7188,685.9706 Q925.1406,686.2675 924.5,686.4081 Q923.8594,686.5644 923.1563,686.5644 Q920.6563,686.5644 919.3281,684.9237 Q918.0156,683.2675 918.0156,680.1425 Q918.0156,677.0175 919.3281,675.3612 Q920.6563,673.705 923.1563,673.705 Q923.8594,673.705 924.5,673.8612 Q925.1563,674.0175 925.7188,674.3144 L925.7188,677.0331 Q925.0938,676.455 924.5,676.1894 Q923.9063,675.9081 923.2813,675.9081 Q921.9375,675.9081 921.25,676.9862 Q920.5625,678.0487 920.5625,680.1425 Q920.5625,682.2362 921.25,683.3144 Q921.9375,684.3769 923.2813,684.3769 Q923.9063,684.3769 924.5,684.1112 Q925.0938,683.83 925.7188,683.2519 L925.7188,685.9706 Z " fill="#000000"/><text fill="#000000" font-family="sans-serif" font-size="14" lengthAdjust="spacing" textLength="178" x="943.25" y="685.1767">RainIndicationComponent</text><line style="stroke:#181818;stroke-width:0.5;" x1="846.5" x2="1185.5" y1="696.33" y2="696.33"/><line style="stroke:#181818;stroke-width:0.5;" x1="846.5" x2="1185.5" y1="704.33" y2="704.33"/><ellipse cx="856.5" cy="717.9784" fill="#84BE84" rx="3" ry="3" style="stroke:#038048;stroke-width:1.0;"/><text fill="#000000" font-family="sans-serif" font-size="14" lengthAdjust="spacing" textLength="315" x="865.5" y="721.3251">void execute(Map&lt;String, ? extends Object&gt;)</text></g><!--class SewerOverflowIndicationComponent--><g id="elem_SewerOverflowIndicationComponent"><rect codeLine="37" fill="#F1F1F1" height="64.2969" id="SewerOverflowIndicationComponent" rx="2.5" ry="2.5" style="stroke:#181818;stroke-width:0.5;" width="341" x="657.5" y="390.59"/><ellipse cx="699.05" cy="406.59" fill="#ADD1B2" rx="11" ry="11" style="stroke:#181818;stroke-width:1.0;"/><path d="M702.0188,412.2306 Q701.4406,412.5275 700.8,412.6681 Q700.1594,412.8244 699.4563,412.8244 Q696.9563,412.8244 695.6281,411.1837 Q694.3156,409.5275 694.3156,406.4025 Q694.3156,403.2775 695.6281,401.6212 Q696.9563,399.965 699.4563,399.965 Q700.1594,399.965 700.8,400.1212 Q701.4563,400.2775 702.0188,400.5744 L702.0188,403.2931 Q701.3938,402.715 700.8,402.4494 Q700.2063,402.1681 699.5813,402.1681 Q698.2375,402.1681 697.55,403.2462 Q696.8625,404.3087 696.8625,406.4025 Q696.8625,408.4962 697.55,409.5744 Q698.2375,410.6369 699.5813,410.6369 Q700.2063,410.6369 700.8,410.3712 Q701.3938,410.09 702.0188,409.5119 L702.0188,412.2306 Z " fill="#000000"/><text fill="#000000" font-family="sans-serif" font-size="14" lengthAdjust="spacing" textLength="250" x="718.95" y="411.4367">SewerOverflowIndicationComponent</text><line style="stroke:#181818;stroke-width:0.5;" x1="658.5" x2="997.5" y1="422.59" y2="422.59"/><line style="stroke:#181818;stroke-width:0.5;" x1="658.5" x2="997.5" y1="430.59" y2="430.59"/><ellipse cx="668.5" cy="444.2384" fill="#84BE84" rx="3" ry="3" style="stroke:#038048;stroke-width:1.0;"/><text fill="#000000" font-family="sans-serif" font-size="14" lengthAdjust="spacing" textLength="315" x="677.5" y="447.5851">void execute(Map&lt;String, ? extends Object&gt;)</text></g><!--class SewerObservationService--><g id="elem_SewerObservationService"><rect codeLine="40" fill="#F1F1F1" height="64.2969" id="SewerObservationService" rx="2.5" ry="2.5" style="stroke:#181818;stroke-width:0.5;" width="208" x="1630" y="266.29"/><ellipse cx="1645" cy="282.29" fill="#ADD1B2" rx="11" ry="11" style="stroke:#181818;stroke-width:1.0;"/><path d="M1647.9688,287.9306 Q1647.3906,288.2275 1646.75,288.3681 Q1646.1094,288.5244 1645.4063,288.5244 Q1642.9063,288.5244 1641.5781,286.8837 Q1640.2656,285.2275 1640.2656,282.1025 Q1640.2656,278.9775 1641.5781,277.3212 Q1642.9063,275.665 1645.4063,275.665 Q1646.1094,275.665 1646.75,275.8212 Q1647.4063,275.9775 1647.9688,276.2744 L1647.9688,278.9931 Q1647.3438,278.415 1646.75,278.1494 Q1646.1563,277.8681 1645.5313,277.8681 Q1644.1875,277.8681 1643.5,278.9462 Q1642.8125,280.0087 1642.8125,282.1025 Q1642.8125,284.1962 1643.5,285.2744 Q1644.1875,286.3369 1645.5313,286.3369 Q1646.1563,286.3369 1646.75,286.0712 Q1647.3438,285.79 1647.9688,285.2119 L1647.9688,287.9306 Z " fill="#000000"/><text fill="#000000" font-family="sans-serif" font-size="14" lengthAdjust="spacing" textLength="176" x="1659" y="287.1367">SewerObservationService</text><line style="stroke:#181818;stroke-width:0.5;" x1="1631" x2="1837" y1="298.29" y2="298.29"/><line style="stroke:#181818;stroke-width:0.5;" x1="1631" x2="1837" y1="306.29" y2="306.29"/><ellipse cx="1641" cy="319.9384" fill="#84BE84" rx="3" ry="3" style="stroke:#038048;stroke-width:1.0;"/><text fill="#000000" font-family="sans-serif" font-size="14" lengthAdjust="spacing" textLength="182" x="1650" y="323.2851">Set&lt;Sewer&gt; serve(String)</text></g><!--class SewerObservationComponent--><g id="elem_SewerObservationComponent"><rect codeLine="43" fill="#F1F1F1" height="64.2969" id="SewerObservationComponent" rx="2.5" ry="2.5" style="stroke:#181818;stroke-width:0.5;" width="240" x="1614" y="390.59"/><ellipse cx="1629" cy="406.59" fill="#ADD1B2" rx="11" ry="11" style="stroke:#181818;stroke-width:1.0;"/><path d="M1631.9688,412.2306 Q1631.3906,412.5275 1630.75,412.6681 Q1630.1094,412.8244 1629.4063,412.8244 Q1626.9063,412.8244 1625.5781,411.1837 Q1624.2656,409.5275 1624.2656,406.4025 Q1624.2656,403.2775 1625.5781,401.6212 Q1626.9063,399.965 1629.4063,399.965 Q1630.1094,399.965 1630.75,400.1212 Q1631.4063,400.2775 1631.9688,400.5744 L1631.9688,403.2931 Q1631.3438,402.715 1630.75,402.4494 Q1630.1563,402.1681 1629.5313,402.1681 Q1628.1875,402.1681 1627.5,403.2462 Q1626.8125,404.3087 1626.8125,406.4025 Q1626.8125,408.4962 1627.5,409.5744 Q1628.1875,410.6369 1629.5313,410.6369 Q1630.1563,410.6369 1630.75,410.3712 Q1631.3438,410.09 1631.9688,409.5119 L1631.9688,412.2306 Z " fill="#000000"/><text fill="#000000" font-family="sans-serif" font-size="14" lengthAdjust="spacing" textLength="208" x="1643" y="411.4367">SewerObservationComponent</text><line style="stroke:#181818;stroke-width:0.5;" x1="1615" x2="1853" y1="422.59" y2="422.59"/><line style="stroke:#181818;stroke-width:0.5;" x1="1615" x2="1853" y1="430.59" y2="430.59"/><ellipse cx="1625" cy="444.2384" fill="#84BE84" rx="3" ry="3" style="stroke:#038048;stroke-width:1.0;"/><text fill="#000000" font-family="sans-serif" font-size="14" lengthAdjust="spacing" textLength="200" x="1634" y="447.5851">Set&lt;Sewer&gt; execute(String)</text></g><!--class Sewers--><g id="elem_Sewers"><rect codeLine="46" fill="#F1F1F1" height="80.5938" id="Sewers" rx="2.5" ry="2.5" style="stroke:#181818;stroke-width:0.5;" width="220" x="1624" y="656.18"/><ellipse cx="1704.25" cy="672.18" fill="#B4A7E5" rx="11" ry="11" style="stroke:#181818;stroke-width:1.0;"/><path d="M1700.1719,667.9456 L1700.1719,665.7894 L1707.5625,665.7894 L1707.5625,667.9456 L1705.0938,667.9456 L1705.0938,676.0238 L1707.5625,676.0238 L1707.5625,678.18 L1700.1719,678.18 L1700.1719,676.0238 L1702.6406,676.0238 L1702.6406,667.9456 L1700.1719,667.9456 Z " fill="#000000"/><text fill="#000000" font-family="sans-serif" font-size="14" font-style="italic" lengthAdjust="spacing" textLength="51" x="1724.75" y="677.0267">Sewers</text><line style="stroke:#181818;stroke-width:0.5;" x1="1625" x2="1843" y1="688.18" y2="688.18"/><line style="stroke:#181818;stroke-width:0.5;" x1="1625" x2="1843" y1="696.18" y2="696.18"/><ellipse cx="1635" cy="709.8284" fill="#84BE84" rx="3" ry="3" style="stroke:#038048;stroke-width:1.0;"/><text fill="#000000" font-family="sans-serif" font-size="14" font-style="italic" lengthAdjust="spacing" textLength="194" x="1644" y="713.1751">Set&lt;Sewer&gt; observe(UUID)</text><ellipse cx="1635" cy="726.1253" fill="#84BE84" rx="3" ry="3" style="stroke:#038048;stroke-width:1.0;"/><text fill="#000000" font-family="sans-serif" font-size="14" font-style="italic" lengthAdjust="spacing" textLength="139" x="1644" y="729.472">void indicate(Sewer)</text></g><!--class Sewer--><g id="elem_Sewer"><rect codeLine="50" fill="#F1F1F1" height="113.1875" id="Sewer" rx="2.5" ry="2.5" style="stroke:#181818;stroke-width:0.5;" width="259" x="1329.5" y="639.89"/><ellipse cx="1433.25" cy="655.89" fill="#ADD1B2" rx="11" ry="11" style="stroke:#181818;stroke-width:1.0;"/><path d="M1436.2188,661.5306 Q1435.6406,661.8275 1435,661.9681 Q1434.3594,662.1244 1433.6563,662.1244 Q1431.1563,662.1244 1429.8281,660.4838 Q1428.5156,658.8275 1428.5156,655.7025 Q1428.5156,652.5775 1429.8281,650.9213 Q1431.1563,649.265 1433.6563,649.265 Q1434.3594,649.265 1435,649.4213 Q1435.6563,649.5775 1436.2188,649.8744 L1436.2188,652.5931 Q1435.5938,652.015 1435,651.7494 Q1434.4063,651.4681 1433.7813,651.4681 Q1432.4375,651.4681 1431.75,652.5463 Q1431.0625,653.6088 1431.0625,655.7025 Q1431.0625,657.7963 1431.75,658.8744 Q1432.4375,659.9369 1433.7813,659.9369 Q1434.4063,659.9369 1435,659.6713 Q1435.5938,659.39 1436.2188,658.8119 L1436.2188,661.5306 Z " fill="#000000"/><text fill="#000000" font-family="sans-serif" font-size="14" lengthAdjust="spacing" textLength="43" x="1453.75" y="660.7367">Sewer</text><line style="stroke:#181818;stroke-width:0.5;" x1="1330.5" x2="1587.5" y1="671.89" y2="671.89"/><line style="stroke:#181818;stroke-width:0.5;" x1="1330.5" x2="1587.5" y1="679.89" y2="679.89"/><ellipse cx="1340.5" cy="693.5384" fill="#84BE84" rx="3" ry="3" style="stroke:#038048;stroke-width:1.0;"/><text fill="#000000" font-family="sans-serif" font-size="14" lengthAdjust="spacing" textLength="83" x="1349.5" y="696.8851">UUID getId()</text><ellipse cx="1340.5" cy="709.8353" fill="#84BE84" rx="3" ry="3" style="stroke:#038048;stroke-width:1.0;"/><text fill="#000000" font-family="sans-serif" font-size="14" lengthAdjust="spacing" textLength="230" x="1349.5" y="713.182">KeyPerformanceIndicator getKpi()</text><ellipse cx="1340.5" cy="726.1322" fill="#84BE84" rx="3" ry="3" style="stroke:#038048;stroke-width:1.0;"/><text fill="#000000" font-family="sans-serif" font-size="14" lengthAdjust="spacing" textLength="206" x="1349.5" y="729.4789">Set&lt;Problem&gt; getProblems()</text><ellipse cx="1340.5" cy="742.4291" fill="#84BE84" rx="3" ry="3" style="stroke:#038048;stroke-width:1.0;"/><text fill="#000000" font-family="sans-serif" font-size="14" lengthAdjust="spacing" textLength="233" x="1349.5" y="745.7757">void setProblems(Set&lt;Problem&gt;)</text></g><!--class KeyPerformanceIndicator--><g id="elem_KeyPerformanceIndicator"><rect codeLine="56" fill="#F1F1F1" height="96.8906" id="KeyPerformanceIndicator" rx="2.5" ry="2.5" style="stroke:#181818;stroke-width:0.5;" width="279" x="1290.5" y="852.08"/><ellipse cx="1339.75" cy="868.08" fill="#ADD1B2" rx="11" ry="11" style="stroke:#181818;stroke-width:1.0;"/><path d="M1342.7188,873.7206 Q1342.1406,874.0175 1341.5,874.1581 Q1340.8594,874.3144 1340.1563,874.3144 Q1337.6563,874.3144 1336.3281,872.6737 Q1335.0156,871.0175 1335.0156,867.8925 Q1335.0156,864.7675 1336.3281,863.1112 Q1337.6563,861.455 1340.1563,861.455 Q1340.8594,861.455 1341.5,861.6112 Q1342.1563,861.7675 1342.7188,862.0644 L1342.7188,864.7831 Q1342.0938,864.205 1341.5,863.9394 Q1340.9063,863.6581 1340.2813,863.6581 Q1338.9375,863.6581 1338.25,864.7362 Q1337.5625,865.7987 1337.5625,867.8925 Q1337.5625,869.9862 1338.25,871.0644 Q1338.9375,872.1269 1340.2813,872.1269 Q1340.9063,872.1269 1341.5,871.8612 Q1342.0938,871.58 1342.7188,871.0019 L1342.7188,873.7206 Z " fill="#000000"/><text fill="#000000" font-family="sans-serif" font-size="14" lengthAdjust="spacing" textLength="172" x="1360.25" y="872.9267">KeyPerformanceIndicator</text><line style="stroke:#181818;stroke-width:0.5;" x1="1291.5" x2="1568.5" y1="884.08" y2="884.08"/><line style="stroke:#181818;stroke-width:0.5;" x1="1291.5" x2="1568.5" y1="892.08" y2="892.08"/><ellipse cx="1301.5" cy="905.7284" fill="#84BE84" rx="3" ry="3" style="stroke:#038048;stroke-width:1.0;"/><text fill="#000000" font-family="sans-serif" font-size="14" lengthAdjust="spacing" textLength="253" x="1310.5" y="909.0751">String getPumpPowerConsumption()</text><ellipse cx="1301.5" cy="922.0253" fill="#84BE84" rx="3" ry="3" style="stroke:#038048;stroke-width:1.0;"/><text fill="#000000" font-family="sans-serif" font-size="14" lengthAdjust="spacing" textLength="108" x="1310.5" y="925.372">String getFlow()</text><ellipse cx="1301.5" cy="938.3222" fill="#84BE84" rx="3" ry="3" style="stroke:#038048;stroke-width:1.0;"/><text fill="#000000" font-family="sans-serif" font-size="14" lengthAdjust="spacing" textLength="140" x="1310.5" y="941.6689">Number getRainfall()</text></g><!--class Problem--><g id="elem_Problem"><rect codeLine="61" fill="#F1F1F1" height="80.5938" id="Problem" rx="2.5" ry="2.5" style="stroke:#181818;stroke-width:0.5;" width="243" x="1626.5" y="860.22"/><ellipse cx="1715.25" cy="876.22" fill="#ADD1B2" rx="11" ry="11" style="stroke:#181818;stroke-width:1.0;"/><path d="M1718.2188,881.8606 Q1717.6406,882.1575 1717,882.2981 Q1716.3594,882.4544 1715.6563,882.4544 Q1713.1563,882.4544 1711.8281,880.8138 Q1710.5156,879.1575 1710.5156,876.0325 Q1710.5156,872.9075 1711.8281,871.2513 Q1713.1563,869.595 1715.6563,869.595 Q1716.3594,869.595 1717,869.7513 Q1717.6563,869.9075 1718.2188,870.2044 L1718.2188,872.9231 Q1717.5938,872.345 1717,872.0794 Q1716.4063,871.7981 1715.7813,871.7981 Q1714.4375,871.7981 1713.75,872.8763 Q1713.0625,873.9388 1713.0625,876.0325 Q1713.0625,878.1263 1713.75,879.2044 Q1714.4375,880.2669 1715.7813,880.2669 Q1716.4063,880.2669 1717,880.0013 Q1717.5938,879.72 1718.2188,879.1419 L1718.2188,881.8606 Z " fill="#000000"/><text fill="#000000" font-family="sans-serif" font-size="14" lengthAdjust="spacing" textLength="57" x="1735.75" y="881.0667">Problem</text><line style="stroke:#181818;stroke-width:0.5;" x1="1627.5" x2="1868.5" y1="892.22" y2="892.22"/><line style="stroke:#181818;stroke-width:0.5;" x1="1627.5" x2="1868.5" y1="900.22" y2="900.22"/><ellipse cx="1637.5" cy="913.8684" fill="#84BE84" rx="3" ry="3" style="stroke:#038048;stroke-width:1.0;"/><text fill="#000000" font-family="sans-serif" font-size="14" lengthAdjust="spacing" textLength="130" x="1646.5" y="917.2151">String getReason()</text><ellipse cx="1637.5" cy="930.1653" fill="#84BE84" rx="3" ry="3" style="stroke:#038048;stroke-width:1.0;"/><text fill="#000000" font-family="sans-serif" font-size="14" lengthAdjust="spacing" textLength="217" x="1646.5" y="933.512">Number getOverflowIndication()</text></g><!--class SewerIndicationUseCase--><g id="elem_SewerIndicationUseCase"><rect codeLine="65" fill="#F1F1F1" height="64.2969" id="SewerIndicationUseCase" rx="2.5" ry="2.5" style="stroke:#181818;stroke-width:0.5;" width="203" x="726.5" y="84"/><ellipse cx="741.5" cy="100" fill="#ADD1B2" rx="11" ry="11" style="stroke:#181818;stroke-width:1.0;"/><path d="M744.4688,105.6406 Q743.8906,105.9375 743.25,106.0781 Q742.6094,106.2344 741.9063,106.2344 Q739.4063,106.2344 738.0781,104.5938 Q736.7656,102.9375 736.7656,99.8125 Q736.7656,96.6875 738.0781,95.0313 Q739.4063,93.375 741.9063,93.375 Q742.6094,93.375 743.25,93.5313 Q743.9063,93.6875 744.4688,93.9844 L744.4688,96.7031 Q743.8438,96.125 743.25,95.8594 Q742.6563,95.5781 742.0313,95.5781 Q740.6875,95.5781 740,96.6563 Q739.3125,97.7188 739.3125,99.8125 Q739.3125,101.9063 740,102.9844 Q740.6875,104.0469 742.0313,104.0469 Q742.6563,104.0469 743.25,103.7813 Q743.8438,103.5 744.4688,102.9219 L744.4688,105.6406 Z " fill="#000000"/><text fill="#000000" font-family="sans-serif" font-size="14" lengthAdjust="spacing" textLength="171" x="755.5" y="104.8467">SewerIndicationUseCase</text><line style="stroke:#181818;stroke-width:0.5;" x1="727.5" x2="928.5" y1="116" y2="116"/><line style="stroke:#181818;stroke-width:0.5;" x1="727.5" x2="928.5" y1="124" y2="124"/><ellipse cx="737.5" cy="137.6484" fill="#84BE84" rx="3" ry="3" style="stroke:#038048;stroke-width:1.0;"/><text fill="#000000" font-family="sans-serif" font-size="14" lengthAdjust="spacing" textLength="120" x="746.5" y="140.9951">void serve(String)</text></g><!--class SewerObservationUseCase--><g id="elem_SewerObservationUseCase"><rect codeLine="68" fill="#F1F1F1" height="64.2969" id="SewerObservationUseCase" rx="2.5" ry="2.5" style="stroke:#181818;stroke-width:0.5;" width="220" x="1624" y="84"/><ellipse cx="1639" cy="100" fill="#ADD1B2" rx="11" ry="11" style="stroke:#181818;stroke-width:1.0;"/><path d="M1641.9688,105.6406 Q1641.3906,105.9375 1640.75,106.0781 Q1640.1094,106.2344 1639.4063,106.2344 Q1636.9063,106.2344 1635.5781,104.5938 Q1634.2656,102.9375 1634.2656,99.8125 Q1634.2656,96.6875 1635.5781,95.0313 Q1636.9063,93.375 1639.4063,93.375 Q1640.1094,93.375 1640.75,93.5313 Q1641.4063,93.6875 1641.9688,93.9844 L1641.9688,96.7031 Q1641.3438,96.125 1640.75,95.8594 Q1640.1563,95.5781 1639.5313,95.5781 Q1638.1875,95.5781 1637.5,96.6563 Q1636.8125,97.7188 1636.8125,99.8125 Q1636.8125,101.9063 1637.5,102.9844 Q1638.1875,104.0469 1639.5313,104.0469 Q1640.1563,104.0469 1640.75,103.7813 Q1641.3438,103.5 1641.9688,102.9219 L1641.9688,105.6406 Z " fill="#000000"/><text fill="#000000" font-family="sans-serif" font-size="14" lengthAdjust="spacing" textLength="188" x="1653" y="104.8467">SewerObservationUseCase</text><line style="stroke:#181818;stroke-width:0.5;" x1="1625" x2="1843" y1="116" y2="116"/><line style="stroke:#181818;stroke-width:0.5;" x1="1625" x2="1843" y1="124" y2="124"/><ellipse cx="1635" cy="137.6484" fill="#84BE84" rx="3" ry="3" style="stroke:#038048;stroke-width:1.0;"/><text fill="#000000" font-family="sans-serif" font-size="14" lengthAdjust="spacing" textLength="182" x="1644" y="140.9951">Set&lt;Sewer&gt; serve(String)</text></g><!--class SewersUseCase--><g id="elem_SewersUseCase"><rect codeLine="71" fill="#F1F1F1" height="80.5938" id="SewersUseCase" rx="2.5" ry="2.5" style="stroke:#181818;stroke-width:0.5;" width="222" x="1974" y="1028.97"/><ellipse cx="2024.25" cy="1044.97" fill="#B4A7E5" rx="11" ry="11" style="stroke:#181818;stroke-width:1.0;"/><path d="M2020.1719,1040.7356 L2020.1719,1038.5794 L2027.5625,1038.5794 L2027.5625,1040.7356 L2025.0938,1040.7356 L2025.0938,1048.8138 L2027.5625,1048.8138 L2027.5625,1050.97 L2020.1719,1050.97 L2020.1719,1048.8138 L2022.6406,1048.8138 L2022.6406,1040.7356 L2020.1719,1040.7356 Z " fill="#000000"/><text fill="#000000" font-family="sans-serif" font-size="14" font-style="italic" lengthAdjust="spacing" textLength="113" x="2044.75" y="1049.8167">SewersUseCase</text><line style="stroke:#181818;stroke-width:0.5;" x1="1975" x2="2195" y1="1060.97" y2="1060.97"/><line style="stroke:#181818;stroke-width:0.5;" x1="1975" x2="2195" y1="1068.97" y2="1068.97"/><ellipse cx="1985" cy="1082.6184" fill="#84BE84" rx="3" ry="3" style="stroke:#038048;stroke-width:1.0;"/><text fill="#000000" font-family="sans-serif" font-size="14" font-style="italic" lengthAdjust="spacing" textLength="196" x="1994" y="1085.9651">Set&lt;Object&gt; observe(UUID)</text><ellipse cx="1985" cy="1098.9153" fill="#84BE84" rx="3" ry="3" style="stroke:#038048;stroke-width:1.0;"/><text fill="#000000" font-family="sans-serif" font-size="14" font-style="italic" lengthAdjust="spacing" textLength="183" x="1994" y="1102.262">void indicate(UUID, Object)</text></g><!--class SewersUseCaseBridge--><g id="elem_SewersUseCaseBridge"><rect codeLine="75" fill="#F1F1F1" height="80.5938" id="SewersUseCaseBridge" rx="2.5" ry="2.5" style="stroke:#181818;stroke-width:0.5;" width="220" x="1974" y="860.22"/><ellipse cx="2002.5" cy="876.22" fill="#ADD1B2" rx="11" ry="11" style="stroke:#181818;stroke-width:1.0;"/><path d="M2005.4688,881.8606 Q2004.8906,882.1575 2004.25,882.2981 Q2003.6094,882.4544 2002.9063,882.4544 Q2000.4063,882.4544 1999.0781,880.8138 Q1997.7656,879.1575 1997.7656,876.0325 Q1997.7656,872.9075 1999.0781,871.2513 Q2000.4063,869.595 2002.9063,869.595 Q2003.6094,869.595 2004.25,869.7513 Q2004.9063,869.9075 2005.4688,870.2044 L2005.4688,872.9231 Q2004.8438,872.345 2004.25,872.0794 Q2003.6563,871.7981 2003.0313,871.7981 Q2001.6875,871.7981 2001,872.8763 Q2000.3125,873.9388 2000.3125,876.0325 Q2000.3125,878.1263 2001,879.2044 Q2001.6875,880.2669 2003.0313,880.2669 Q2003.6563,880.2669 2004.25,880.0013 Q2004.8438,879.72 2005.4688,879.1419 L2005.4688,881.8606 Z " fill="#000000"/><text fill="#000000" font-family="sans-serif" font-size="14" lengthAdjust="spacing" textLength="158" x="2019.5" y="881.0667">SewersUseCaseBridge</text><line style="stroke:#181818;stroke-width:0.5;" x1="1975" x2="2193" y1="892.22" y2="892.22"/><line style="stroke:#181818;stroke-width:0.5;" x1="1975" x2="2193" y1="900.22" y2="900.22"/><ellipse cx="1985" cy="913.8684" fill="#84BE84" rx="3" ry="3" style="stroke:#038048;stroke-width:1.0;"/><text fill="#000000" font-family="sans-serif" font-size="14" lengthAdjust="spacing" textLength="194" x="1994" y="917.2151">Set&lt;Sewer&gt; observe(UUID)</text><ellipse cx="1985" cy="930.1653" fill="#84BE84" rx="3" ry="3" style="stroke:#038048;stroke-width:1.0;"/><text fill="#000000" font-family="sans-serif" font-size="14" lengthAdjust="spacing" textLength="139" x="1994" y="933.512">void indicate(Sewer)</text></g><!--link SewerOverflowIndicationService to SewerOverflowIndicationComponent--><g id="link_SewerOverflowIndicationService_SewerOverflowIndicationComponent"><path codeLine="79" d="M828,330.78 C828,349.05 828,365.82 828,384.14 " fill="none" id="SewerOverflowIndicationService-to-SewerOverflowIndicationComponent" style="stroke:#181818;stroke-width:1.0;"/><polygon fill="#181818" points="828,390.14,832,381.14,828,385.14,824,381.14,828,390.14" style="stroke:#181818;stroke-width:1.0;"/></g><!--link SewerOverflowIndicationComponent to Sewers--><g id="link_SewerOverflowIndicationComponent_Sewers"><path codeLine="80" d="M998.65,423.56 C1226.36,423.56 1601.25,423.56 1601.25,423.56 C1601.25,423.56 1601.25,696.56 1601.25,696.56 C1601.25,696.56 1604.34,696.56 1617.77,696.56 " fill="none" id="SewerOverflowIndicationComponent-to-Sewers" style="stroke:#181818;stroke-width:1.0;"/><polygon fill="#181818" points="1623.77,696.56,1614.77,692.56,1618.77,696.56,1614.77,700.56,1623.77,696.56" style="stroke:#181818;stroke-width:1.0;"/></g><!--link SewerOverflowIndicationComponent to RainIndicationComponent--><g id="link_SewerOverflowIndicationComponent_RainIndicationComponent"><path codeLine="81" d="M922,455.22 C922,507.9 922,605.39 922,658.05 " fill="none" id="SewerOverflowIndicationComponent-to-RainIndicationComponent" style="stroke:#181818;stroke-width:1.0;"/><polygon fill="#181818" points="922,664.05,926,655.05,922,659.05,918,655.05,922,664.05" style="stroke:#181818;stroke-width:1.0;"/></g><!--link SewerOverflowIndicationComponent to PumpIndicationComponent--><g id="link_SewerOverflowIndicationComponent_PumpIndicationComponent"><path codeLine="82" d="M734,455.22 C734,507.9 734,605.39 734,658.05 " fill="none" id="SewerOverflowIndicationComponent-to-PumpIndicationComponent" style="stroke:#181818;stroke-width:1.0;"/><polygon fill="#181818" points="734,664.05,738,655.05,734,659.05,730,655.05,734,664.05" style="stroke:#181818;stroke-width:1.0;"/></g><!--link SewerOverflowIndicationComponent to FlowIndicationComponent--><g id="link_SewerOverflowIndicationComponent_FlowIndicationComponent"><path codeLine="83" d="M657.25,423.56 C491.25,423.56 264,423.56 264,423.56 C264,423.56 264,585.81 264,658.1 " fill="none" id="SewerOverflowIndicationComponent-to-FlowIndicationComponent" style="stroke:#181818;stroke-width:1.0;"/><polygon fill="#181818" points="264,664.1,268,655.1,264,659.1,260,655.1,264,664.1" style="stroke:#181818;stroke-width:1.0;"/></g><!--link SewerObservationService to SewerObservationComponent--><g id="link_SewerObservationService_SewerObservationComponent"><path codeLine="84" d="M1734,330.78 C1734,349.05 1734,365.82 1734,384.14 " fill="none" id="SewerObservationService-to-SewerObservationComponent" style="stroke:#181818;stroke-width:1.0;"/><polygon fill="#181818" points="1734,390.14,1738,381.14,1734,385.14,1730,381.14,1734,390.14" style="stroke:#181818;stroke-width:1.0;"/></g><!--link SewerObservationComponent to Sewers--><g id="link_SewerObservationComponent_Sewers"><path codeLine="85" d="M1734,455.22 C1734,505.35 1734,595.49 1734,650.06 " fill="none" id="SewerObservationComponent-to-Sewers" style="stroke:#181818;stroke-width:1.0;"/><polygon fill="#181818" points="1734,656.06,1738,647.06,1734,651.06,1730,647.06,1734,656.06" style="stroke:#181818;stroke-width:1.0;"/></g><!--link Sewer to Problem--><g id="link_Sewer_Problem"><path codeLine="86" d="M1579,753.33 C1579,813.71 1579,900.56 1579,900.56 C1579,900.56 1593.43,900.56 1620.08,900.56 " fill="none" id="Sewer-to-Problem" style="stroke:#181818;stroke-width:1.0;"/><polygon fill="#181818" points="1626.08,900.56,1617.08,896.56,1621.08,900.56,1617.08,904.56,1626.08,900.56" style="stroke:#181818;stroke-width:1.0;"/></g><!--link Sewer to KeyPerformanceIndicator--><g id="link_Sewer_KeyPerformanceIndicator"><path codeLine="87" d="M1449.5,753.32 C1449.5,784.21 1449.5,816.03 1449.5,845.6 " fill="none" id="Sewer-to-KeyPerformanceIndicator" style="stroke:#181818;stroke-width:1.0;"/><polygon fill="#181818" points="1449.5,851.6,1453.5,842.6,1449.5,846.6,1445.5,842.6,1449.5,851.6" style="stroke:#181818;stroke-width:1.0;"/></g><!--link SewerIndicationUseCase to SewerOverflowIndicationService--><g id="link_SewerIndicationUseCase_SewerOverflowIndicationService"><path codeLine="88" d="M828,148.74 C828,181.82 828,226.74 828,259.83 " fill="none" id="SewerIndicationUseCase-to-SewerOverflowIndicationService" style="stroke:#181818;stroke-width:1.0;"/><polygon fill="#181818" points="828,265.83,832,256.83,828,260.83,824,256.83,828,265.83" style="stroke:#181818;stroke-width:1.0;"/></g><!--link SewerObservationUseCase to SewerObservationService--><g id="link_SewerObservationUseCase_SewerObservationService"><path codeLine="89" d="M1734,148.74 C1734,181.82 1734,226.74 1734,259.83 " fill="none" id="SewerObservationUseCase-to-SewerObservationService" style="stroke:#181818;stroke-width:1.0;"/><polygon fill="#181818" points="1734,265.83,1738,256.83,1734,260.83,1730,256.83,1734,265.83" style="stroke:#181818;stroke-width:1.0;"/></g><!--reverse link Sewers to SewersUseCaseBridge--><g id="link_Sewers_SewersUseCaseBridge"><path codeLine="90" d="M1862.26,696.56 C1964.85,696.56 2084,696.56 2084,696.56 C2084,696.56 2084,800.22 2084,859.74 " fill="none" id="Sewers-backto-SewersUseCaseBridge" style="stroke:#181818;stroke-width:1.0;stroke-dasharray:7.0,7.0;"/><polygon fill="none" points="1844.26,696.56,1862.26,702.56,1862.26,690.56,1844.26,696.56" style="stroke:#181818;stroke-width:1.0;"/></g><!--link SewersUseCaseBridge to SewersUseCase--><g id="link_SewersUseCaseBridge_SewersUseCase"><path codeLine="91" d="M2084,940.94 C2084,967.46 2084,996.02 2084,1022.59 " fill="none" id="SewersUseCaseBridge-to-SewersUseCase" style="stroke:#181818;stroke-width:1.0;"/><polygon fill="#181818" points="2084,1028.59,2088,1019.59,2084,1023.59,2080,1019.59,2084,1028.59" style="stroke:#181818;stroke-width:1.0;"/></g><!--SRC=[tLTRRvim57xdLtZa9TLQQvhsi4fL9grJfQZQ6ZNAysJWa7e16zbEkwZhVv_1924av59Yz_8K1CVdkyGSVtp811cd14qbz9a2aK94YO812ITa31B5997WoGbb6H4aHGbbe6OP82xK7VVa7Nz0Kgy3dj_rChCEHOBUWv28I1G13dcQ4JR3cU2ggCCI7a3WULL7JcP1CWNq-BJeG2AIgRrRu4Lvv-ldE0w-L5jfRRz38k7GNdYvi1F7v-JylDeLcAAAjcYA5nqwSHX7mQTgzu1FMKJ4h7rtJ5b4G_sVuaNFJaBJ5RD3pfJWYGqmFE_TuOAmCLWIoGC9ujwDnZgM8uccqeN0LQHjyeebCskGkEnlzmKnbPECEZItYkRGu4smBatMAuC4KeT6rn4Tcjq4RTNmFQPzUv3TqxOzHb4WDq1uOKAaHFumBxZHo-E4F_IDRChPK3EZ8VXM3hFjcEZHG-ZZFQSHAlpf_YJPnL09oiQdoFpsJhodkO2hbHwNcYXd6jktUGpZ1j0ATVWBuLIjal-cxofWaKGtmHy8LLN6O9fcpcKqWBQGSKieSowZ0RI5Z8OTwaZFBlJMmeh1S-ptV2tGDM0PzaDG5qL1htpB3VijL8zgVbFwn8seQxJdrY-9q_pRBoPQeY4l_UDdEjFOa46F991Aa50zLNYLqhgZKV_7IQsis3FpZTSj5jGTzstdK2F1ACWveZ6eVjGjg5x3RA0jv28bB8HowtEHbrndrDJaKWSc5FJo1-MrD4_BSsDvjrfUqTg0vBi8YRX9fjbYnNugbEdnFE2wsILdKb_d-x7qO56JdqJctgzf6a1XLJuFOv8atUhvOYpmNUKoN0BMDTq2aNCLIyRhmwvRtvVBHoC9bvgHVyHuXpT3h4MHdKEgFRUTOtI5svOnkZQDsdEhfKcyqdVZJ2fFe0E6KbvnMfvSTQFdKDy5ZSRMX9ZkQ_wkIMWOfgxZyjbPx-MYYFTo8UW8kZUUhMzRqi4f-RtARVYsUQzoh-oydtk7-YE8EpoJU-w_0bxhrDadSX-D-vxPxqrfUaPUzoodJoi3OtkQy2o7LXjZec4aUVQY8PxYVwzg3En3-ldMR-t-7m00]--></g></svg>