<svg xmlns="http://www.w3.org/2000/svg" xmlns:xlink="http://www.w3.org/1999/xlink" contentStyleType="text/css" height="1402px" preserveAspectRatio="none" style="width:4819px;height:1402px;background:#FFFFFF;" version="1.1" viewBox="0 0 4819 1402" width="4819px" zoomAndPan="magnify"><defs/><g><!--cluster drivers--><g id="cluster_drivers"><path d="M504,6 L800,6 A3.75,3.75 0 0 1 802.5,8.5 L809.5,28.2969 L2969,28.2969 A2.5,2.5 0 0 1 2971.5,30.7969 L2971.5,1393.06 A2.5,2.5 0 0 1 2969,1395.56 L504,1395.56 A2.5,2.5 0 0 1 501.5,1393.06 L501.5,8.5 A2.5,2.5 0 0 1 504,6 " fill="#87CEEB" style="stroke:#000000;stroke-width:1.5;"/><line style="stroke:#000000;stroke-width:1.5;" x1="501.5" x2="809.5" y1="28.2969" y2="28.2969"/><text fill="#000000" font-family="sans-serif" font-size="14" font-weight="bold" lengthAdjust="spacing" textLength="295" x="505.5" y="20.9951">de.company.prototype.sewer.drivers</text></g><!--cluster adapters--><g id="cluster_adapters"><path d="M544,65 L615,65 A3.75,3.75 0 0 1 617.5,67.5 L624.5,87.2969 L2921,87.2969 A2.5,2.5 0 0 1 2923.5,89.7969 L2923.5,1353.06 A2.5,2.5 0 0 1 2921,1355.56 L544,1355.56 A2.5,2.5 0 0 1 541.5,1353.06 L541.5,67.5 A2.5,2.5 0 0 1 544,65 " fill="#82FFB4" style="stroke:#000000;stroke-width:1.5;"/><line style="stroke:#000000;stroke-width:1.5;" x1="541.5" x2="624.5" y1="87.2969" y2="87.2969"/><text fill="#000000" font-family="sans-serif" font-size="14" font-weight="bold" lengthAdjust="spacing" textLength="70" x="545.5" y="79.9951">adapters</text></g><!--cluster use_cases--><g id="cluster_use_cases"><path d="M584,124 L667,124 A3.75,3.75 0 0 1 669.5,126.5 L676.5,146.2969 L2873,146.2969 A2.5,2.5 0 0 1 2875.5,148.7969 L2875.5,1313.06 A2.5,2.5 0 0 1 2873,1315.56 L584,1315.56 A2.5,2.5 0 0 1 581.5,1313.06 L581.5,126.5 A2.5,2.5 0 0 1 584,124 " fill="#FF9A99" style="stroke:#000000;stroke-width:1.5;"/><line style="stroke:#000000;stroke-width:1.5;" x1="581.5" x2="676.5" y1="146.2969" y2="146.2969"/><text fill="#000000" font-family="sans-serif" font-size="14" font-weight="bold" lengthAdjust="spacing" textLength="82" x="585.5" y="138.9951">use_cases</text></g><!--cluster entities--><g id="cluster_entities"><path d="M624,322.29 L684,322.29 A3.75,3.75 0 0 1 686.5,324.79 L693.5,344.5869 L2547,344.5869 A2.5,2.5 0 0 1 2549.5,347.0869 L2549.5,1160.47 A2.5,2.5 0 0 1 2547,1162.97 L624,1162.97 A2.5,2.5 0 0 1 621.5,1160.47 L621.5,324.79 A2.5,2.5 0 0 1 624,322.29 " fill="#FCFDB0" style="stroke:#000000;stroke-width:1.5;"/><line style="stroke:#000000;stroke-width:1.5;" x1="621.5" x2="693.5" y1="344.5869" y2="344.5869"/><text fill="#000000" font-family="sans-serif" font-size="14" font-weight="bold" lengthAdjust="spacing" textLength="59" x="625.5" y="337.2851">entities</text></g><!--cluster boundary--><g id="cluster_boundary"><path d="M656,373.29 L799,373.29 A3.75,3.75 0 0 1 801.5,375.79 L808.5,395.5869 L1823,395.5869 A2.5,2.5 0 0 1 1825.5,398.0869 L1825.5,908.13 A2.5,2.5 0 0 1 1823,910.63 L656,910.63 A2.5,2.5 0 0 1 653.5,908.13 L653.5,375.79 A2.5,2.5 0 0 1 656,373.29 " fill="#00FF00" style="stroke:#000000;stroke-width:1.5;"/><line style="stroke:#000000;stroke-width:1.5;" x1="653.5" x2="808.5" y1="395.5869" y2="395.5869"/><text fill="#000000" font-family="sans-serif" font-size="14" font-weight="bold" lengthAdjust="spacing" textLength="142" x="657.5" y="388.2851">indicate.boundary</text></g><!--cluster control--><g id="cluster_control"><path d="M680,497.59 L737,497.59 A3.75,3.75 0 0 1 739.5,500.09 L746.5,519.8869 L1799,519.8869 A2.5,2.5 0 0 1 1801.5,522.3869 L1801.5,884.13 A2.5,2.5 0 0 1 1799,886.63 L680,886.63 A2.5,2.5 0 0 1 677.5,884.13 L677.5,500.09 A2.5,2.5 0 0 1 680,497.59 " fill="#FFA500" style="stroke:#000000;stroke-width:1.5;"/><line style="stroke:#000000;stroke-width:1.5;" x1="677.5" x2="746.5" y1="519.8869" y2="519.8869"/><text fill="#000000" font-family="sans-serif" font-size="14" font-weight="bold" lengthAdjust="spacing" textLength="56" x="681.5" y="512.5851">control</text></g><!--cluster boundary--><g id="cluster_boundary"><path d="M2176,373.29 L2322,373.29 A3.75,3.75 0 0 1 2324.5,375.79 L2331.5,395.5869 L2491,395.5869 A2.5,2.5 0 0 1 2493.5,398.0869 L2493.5,634.39 A2.5,2.5 0 0 1 2491,636.89 L2176,636.89 A2.5,2.5 0 0 1 2173.5,634.39 L2173.5,375.79 A2.5,2.5 0 0 1 2176,373.29 " fill="#00FF00" style="stroke:#000000;stroke-width:1.5;"/><line style="stroke:#000000;stroke-width:1.5;" x1="2173.5" x2="2331.5" y1="395.5869" y2="395.5869"/><text fill="#000000" font-family="sans-serif" font-size="14" font-weight="bold" lengthAdjust="spacing" textLength="145" x="2177.5" y="388.2851">observe.boundary</text></g><!--cluster control--><g id="cluster_control"><path d="M2200,497.59 L2257,497.59 A3.75,3.75 0 0 1 2259.5,500.09 L2266.5,519.8869 L2467,519.8869 A2.5,2.5 0 0 1 2469.5,522.3869 L2469.5,610.39 A2.5,2.5 0 0 1 2467,612.89 L2200,612.89 A2.5,2.5 0 0 1 2197.5,610.39 L2197.5,500.09 A2.5,2.5 0 0 1 2200,497.59 " fill="#FFA500" style="stroke:#000000;stroke-width:1.5;"/><line style="stroke:#000000;stroke-width:1.5;" x1="2197.5" x2="2266.5" y1="519.8869" y2="519.8869"/><text fill="#000000" font-family="sans-serif" font-size="14" font-weight="bold" lengthAdjust="spacing" textLength="56" x="2201.5" y="512.5851">control</text></g><!--cluster sewer--><g id="cluster_sewer"><path d="M1852,660.89 L1903,660.89 A3.75,3.75 0 0 1 1905.5,663.39 L1912.5,683.1869 L2507,683.1869 A2.5,2.5 0 0 1 2509.5,685.6869 L2509.5,1128.47 A2.5,2.5 0 0 1 2507,1130.97 L1852,1130.97 A2.5,2.5 0 0 1 1849.5,1128.47 L1849.5,663.39 A2.5,2.5 0 0 1 1852,660.89 " fill="none" style="stroke:#000000;stroke-width:1.5;"/><line style="stroke:#000000;stroke-width:1.5;" x1="1849.5" x2="1912.5" y1="683.1869" y2="683.1869"/><text fill="#000000" font-family="sans-serif" font-size="14" font-weight="bold" lengthAdjust="spacing" textLength="50" x="1853.5" y="675.8851">sewer</text></g><!--cluster boundary--><g id="cluster_boundary"><path d="M1892,703.89 L1968,703.89 A3.75,3.75 0 0 1 1970.5,706.39 L1977.5,726.1869 L2457,726.1869 A2.5,2.5 0 0 1 2459.5,728.6869 L2459.5,932.58 A2.5,2.5 0 0 1 2457,935.08 L1892,935.08 A2.5,2.5 0 0 1 1889.5,932.58 L1889.5,706.39 A2.5,2.5 0 0 1 1892,703.89 " fill="#00FF00" style="stroke:#000000;stroke-width:1.5;"/><line style="stroke:#000000;stroke-width:1.5;" x1="1889.5" x2="1977.5" y1="726.1869" y2="726.1869"/><text fill="#000000" font-family="sans-serif" font-size="14" font-weight="bold" lengthAdjust="spacing" textLength="75" x="1893.5" y="718.8851">boundary</text></g><!--cluster entity--><g id="cluster_entity"><path d="M1916,746.89 L2023,746.89 A3.75,3.75 0 0 1 2025.5,749.39 L2032.5,769.1869 L2201,769.1869 A2.5,2.5 0 0 1 2203.5,771.6869 L2203.5,908.58 A2.5,2.5 0 0 1 2201,911.08 L1916,911.08 A2.5,2.5 0 0 1 1913.5,908.58 L1913.5,749.39 A2.5,2.5 0 0 1 1916,746.89 " fill="#FCFDB0" style="stroke:#000000;stroke-width:1.5;"/><line style="stroke:#000000;stroke-width:1.5;" x1="1913.5" x2="2032.5" y1="769.1869" y2="769.1869"/><text fill="#000000" font-family="sans-serif" font-size="14" font-weight="bold" lengthAdjust="spacing" textLength="106" x="1917.5" y="761.8851">control.entity</text></g><!--cluster entity--><g id="cluster_entity"><path d="M1876,959.08 L2091,959.08 A3.75,3.75 0 0 1 2093.5,961.58 L2100.5,981.3769 L2183,981.3769 A2.5,2.5 0 0 1 2185.5,983.8769 L2185.5,1104.47 A2.5,2.5 0 0 1 2183,1106.97 L1876,1106.97 A2.5,2.5 0 0 1 1873.5,1104.47 L1873.5,961.58 A2.5,2.5 0 0 1 1876,959.08 " fill="#FCFDB0" style="stroke:#000000;stroke-width:1.5;"/><line style="stroke:#000000;stroke-width:1.5;" x1="1873.5" x2="2100.5" y1="981.3769" y2="981.3769"/><text fill="#000000" font-family="sans-serif" font-size="14" font-weight="bold" lengthAdjust="spacing" textLength="214" x="1877.5" y="974.0751">kpi.boundary.control.entity</text></g><!--cluster entity--><g id="cluster_entity"><path d="M2212,967.22 L2469,967.22 A3.75,3.75 0 0 1 2471.5,969.72 L2478.5,989.5169 L2483,989.5169 A2.5,2.5 0 0 1 2485.5,992.0169 L2485.5,1096.32 A2.5,2.5 0 0 1 2483,1098.82 L2212,1098.82 A2.5,2.5 0 0 1 2209.5,1096.32 L2209.5,969.72 A2.5,2.5 0 0 1 2212,967.22 " fill="#FCFDB0" style="stroke:#000000;stroke-width:1.5;"/><line style="stroke:#000000;stroke-width:1.5;" x1="2209.5" x2="2478.5" y1="989.5169" y2="989.5169"/><text fill="#000000" font-family="sans-serif" font-size="14" font-weight="bold" lengthAdjust="spacing" textLength="256" x="2213.5" y="982.2151">problem.boundary.control.entity</text></g><!--cluster boundary--><g id="cluster_boundary"><path d="M1290,175 L1433,175 A3.75,3.75 0 0 1 1435.5,177.5 L1442.5,197.2969 L1565,197.2969 A2.5,2.5 0 0 1 1567.5,199.7969 L1567.5,287.79 A2.5,2.5 0 0 1 1565,290.29 L1290,290.29 A2.5,2.5 0 0 1 1287.5,287.79 L1287.5,177.5 A2.5,2.5 0 0 1 1290,175 " fill="#00FF00" style="stroke:#000000;stroke-width:1.5;"/><line style="stroke:#000000;stroke-width:1.5;" x1="1287.5" x2="1442.5" y1="197.2969" y2="197.2969"/><text fill="#000000" font-family="sans-serif" font-size="14" font-weight="bold" lengthAdjust="spacing" textLength="142" x="1291.5" y="189.9951">indicate.boundary</text></g><!--cluster boundary--><g id="cluster_boundary"><path d="M2210,175 L2356,175 A3.75,3.75 0 0 1 2358.5,177.5 L2365.5,197.2969 L2457,197.2969 A2.5,2.5 0 0 1 2459.5,199.7969 L2459.5,287.79 A2.5,2.5 0 0 1 2457,290.29 L2210,290.29 A2.5,2.5 0 0 1 2207.5,287.79 L2207.5,177.5 A2.5,2.5 0 0 1 2210,175 " fill="#00FF00" style="stroke:#000000;stroke-width:1.5;"/><line style="stroke:#000000;stroke-width:1.5;" x1="2207.5" x2="2365.5" y1="197.2969" y2="197.2969"/><text fill="#000000" font-family="sans-serif" font-size="14" font-weight="bold" lengthAdjust="spacing" textLength="145" x="2211.5" y="189.9951">observe.boundary</text></g><!--cluster boundary--><g id="cluster_boundary"><path d="M2584,967.22 L2724,967.22 A3.75,3.75 0 0 1 2726.5,969.72 L2733.5,989.5169 L2833,989.5169 A2.5,2.5 0 0 1 2835.5,992.0169 L2835.5,1281.06 A2.5,2.5 0 0 1 2833,1283.56 L2584,1283.56 A2.5,2.5 0 0 1 2581.5,1281.06 L2581.5,969.72 A2.5,2.5 0 0 1 2584,967.22 " fill="#00FF00" style="stroke:#000000;stroke-width:1.5;"/><line style="stroke:#000000;stroke-width:1.5;" x1="2581.5" x2="2733.5" y1="989.5169" y2="989.5169"/><text fill="#000000" font-family="sans-serif" font-size="14" font-weight="bold" lengthAdjust="spacing" textLength="139" x="2585.5" y="982.2151">sewers.boundary</text></g><!--class SewerOverflowIndicationService--><g id="elem_SewerOverflowIndicationService"><rect codeLine="25" fill="#F1F1F1" height="64.2969" id="SewerOverflowIndicationService" rx="2.5" ry="2.5" style="stroke:#181818;stroke-width:0.5;" width="250" x="1302.5" y="408.29"/><ellipse cx="1317.5" cy="424.29" fill="#ADD1B2" rx="11" ry="11" style="stroke:#181818;stroke-width:1.0;"/><path d="M1320.4688,429.9306 Q1319.8906,430.2275 1319.25,430.3681 Q1318.6094,430.5244 1317.9063,430.5244 Q1315.4063,430.5244 1314.0781,428.8837 Q1312.7656,427.2275 1312.7656,424.1025 Q1312.7656,420.9775 1314.0781,419.3212 Q1315.4063,417.665 1317.9063,417.665 Q1318.6094,417.665 1319.25,417.8212 Q1319.9063,417.9775 1320.4688,418.2744 L1320.4688,420.9931 Q1319.8438,420.415 1319.25,420.1494 Q1318.6563,419.8681 1318.0313,419.8681 Q1316.6875,419.8681 1316,420.9462 Q1315.3125,422.0087 1315.3125,424.1025 Q1315.3125,426.1962 1316,427.2744 Q1316.6875,428.3369 1318.0313,428.3369 Q1318.6563,428.3369 1319.25,428.0712 Q1319.8438,427.79 1320.4688,427.2119 L1320.4688,429.9306 Z " fill="#000000"/><text fill="#000000" font-family="sans-serif" font-size="14" lengthAdjust="spacing" textLength="218" x="1331.5" y="429.1367">SewerOverflowIndicationService</text><line style="stroke:#181818;stroke-width:0.5;" x1="1303.5" x2="1551.5" y1="440.29" y2="440.29"/><line style="stroke:#181818;stroke-width:0.5;" x1="1303.5" x2="1551.5" y1="448.29" y2="448.29"/><ellipse cx="1313.5" cy="461.9384" fill="#84BE84" rx="3" ry="3" style="stroke:#038048;stroke-width:1.0;"/><text fill="#000000" font-family="sans-serif" font-size="14" lengthAdjust="spacing" textLength="221" x="1322.5" y="465.2851">void serve(Map&lt;String, String&gt;)</text></g><!--class FlowIndicationComponent--><g id="elem_FlowIndicationComponent"><rect codeLine="28" fill="#F1F1F1" height="64.2969" id="FlowIndicationComponent" rx="2.5" ry="2.5" style="stroke:#181818;stroke-width:0.5;" width="341" x="693" y="806.33"/><ellipse cx="769.75" cy="822.33" fill="#ADD1B2" rx="11" ry="11" style="stroke:#181818;stroke-width:1.0;"/><path d="M772.7188,827.9706 Q772.1406,828.2675 771.5,828.4081 Q770.8594,828.5644 770.1563,828.5644 Q767.6563,828.5644 766.3281,826.9237 Q765.0156,825.2675 765.0156,822.1425 Q765.0156,819.0175 766.3281,817.3612 Q767.6563,815.705 770.1563,815.705 Q770.8594,815.705 771.5,815.8612 Q772.1563,816.0175 772.7188,816.3144 L772.7188,819.0331 Q772.0938,818.455 771.5,818.1894 Q770.9063,817.9081 770.2813,817.9081 Q768.9375,817.9081 768.25,818.9862 Q767.5625,820.0487 767.5625,822.1425 Q767.5625,824.2362 768.25,825.3144 Q768.9375,826.3769 770.2813,826.3769 Q770.9063,826.3769 771.5,826.1112 Q772.0938,825.83 772.7188,825.2519 L772.7188,827.9706 Z " fill="#000000"/><text fill="#000000" font-family="sans-serif" font-size="14" lengthAdjust="spacing" textLength="179" x="790.25" y="827.1767">FlowIndicationComponent</text><line style="stroke:#181818;stroke-width:0.5;" x1="694" x2="1033" y1="838.33" y2="838.33"/><line style="stroke:#181818;stroke-width:0.5;" x1="694" x2="1033" y1="846.33" y2="846.33"/><ellipse cx="704" cy="859.9784" fill="#84BE84" rx="3" ry="3" style="stroke:#038048;stroke-width:1.0;"/><text fill="#000000" font-family="sans-serif" font-size="14" lengthAdjust="spacing" textLength="315" x="713" y="863.3251">void execute(Map&lt;String, ? extends Object&gt;)</text></g><!--class PumpIndicationComponent--><g id="elem_PumpIndicationComponent"><rect codeLine="31" fill="#F1F1F1" height="64.2969" id="PumpIndicationComponent" rx="2.5" ry="2.5" style="stroke:#181818;stroke-width:0.5;" width="341" x="1069" y="806.33"/><ellipse cx="1141.25" cy="822.33" fill="#ADD1B2" rx="11" ry="11" style="stroke:#181818;stroke-width:1.0;"/><path d="M1144.2188,827.9706 Q1143.6406,828.2675 1143,828.4081 Q1142.3594,828.5644 1141.6563,828.5644 Q1139.1563,828.5644 1137.8281,826.9237 Q1136.5156,825.2675 1136.5156,822.1425 Q1136.5156,819.0175 1137.8281,817.3612 Q1139.1563,815.705 1141.6563,815.705 Q1142.3594,815.705 1143,815.8612 Q1143.6563,816.0175 1144.2188,816.3144 L1144.2188,819.0331 Q1143.5938,818.455 1143,818.1894 Q1142.4063,817.9081 1141.7813,817.9081 Q1140.4375,817.9081 1139.75,818.9862 Q1139.0625,820.0487 1139.0625,822.1425 Q1139.0625,824.2362 1139.75,825.3144 Q1140.4375,826.3769 1141.7813,826.3769 Q1142.4063,826.3769 1143,826.1112 Q1143.5938,825.83 1144.2188,825.2519 L1144.2188,827.9706 Z " fill="#000000"/><text fill="#000000" font-family="sans-serif" font-size="14" lengthAdjust="spacing" textLength="188" x="1161.75" y="827.1767">PumpIndicationComponent</text><line style="stroke:#181818;stroke-width:0.5;" x1="1070" x2="1409" y1="838.33" y2="838.33"/><line style="stroke:#181818;stroke-width:0.5;" x1="1070" x2="1409" y1="846.33" y2="846.33"/><ellipse cx="1080" cy="859.9784" fill="#84BE84" rx="3" ry="3" style="stroke:#038048;stroke-width:1.0;"/><text fill="#000000" font-family="sans-serif" font-size="14" lengthAdjust="spacing" textLength="315" x="1089" y="863.3251">void execute(Map&lt;String, ? extends Object&gt;)</text></g><!--class RainIndicationComponent--><g id="elem_RainIndicationComponent"><rect codeLine="34" fill="#F1F1F1" height="64.2969" id="RainIndicationComponent" rx="2.5" ry="2.5" style="stroke:#181818;stroke-width:0.5;" width="341" x="1445" y="806.33"/><ellipse cx="1522.25" cy="822.33" fill="#ADD1B2" rx="11" ry="11" style="stroke:#181818;stroke-width:1.0;"/><path d="M1525.2188,827.9706 Q1524.6406,828.2675 1524,828.4081 Q1523.3594,828.5644 1522.6563,828.5644 Q1520.1563,828.5644 1518.8281,826.9237 Q1517.5156,825.2675 1517.5156,822.1425 Q1517.5156,819.0175 1518.8281,817.3612 Q1520.1563,815.705 1522.6563,815.705 Q1523.3594,815.705 1524,815.8612 Q1524.6563,816.0175 1525.2188,816.3144 L1525.2188,819.0331 Q1524.5938,818.455 1524,818.1894 Q1523.4063,817.9081 1522.7813,817.9081 Q1521.4375,817.9081 1520.75,818.9862 Q1520.0625,820.0487 1520.0625,822.1425 Q1520.0625,824.2362 1520.75,825.3144 Q1521.4375,826.3769 1522.7813,826.3769 Q1523.4063,826.3769 1524,826.1112 Q1524.5938,825.83 1525.2188,825.2519 L1525.2188,827.9706 Z " fill="#000000"/><text fill="#000000" font-family="sans-serif" font-size="14" lengthAdjust="spacing" textLength="178" x="1542.75" y="827.1767">RainIndicationComponent</text><line style="stroke:#181818;stroke-width:0.5;" x1="1446" x2="1785" y1="838.33" y2="838.33"/><line style="stroke:#181818;stroke-width:0.5;" x1="1446" x2="1785" y1="846.33" y2="846.33"/><ellipse cx="1456" cy="859.9784" fill="#84BE84" rx="3" ry="3" style="stroke:#038048;stroke-width:1.0;"/><text fill="#000000" font-family="sans-serif" font-size="14" lengthAdjust="spacing" textLength="315" x="1465" y="863.3251">void execute(Map&lt;String, ? extends Object&gt;)</text></g><!--class SewerOverflowIndicationComponent--><g id="elem_SewerOverflowIndicationComponent"><rect codeLine="37" fill="#F1F1F1" height="64.2969" id="SewerOverflowIndicationComponent" rx="2.5" ry="2.5" style="stroke:#181818;stroke-width:0.5;" width="341" x="1257" y="532.59"/><ellipse cx="1298.55" cy="548.59" fill="#ADD1B2" rx="11" ry="11" style="stroke:#181818;stroke-width:1.0;"/><path d="M1301.5188,554.2306 Q1300.9406,554.5275 1300.3,554.6681 Q1299.6594,554.8244 1298.9563,554.8244 Q1296.4563,554.8244 1295.1281,553.1837 Q1293.8156,551.5275 1293.8156,548.4025 Q1293.8156,545.2775 1295.1281,543.6212 Q1296.4563,541.965 1298.9563,541.965 Q1299.6594,541.965 1300.3,542.1212 Q1300.9563,542.2775 1301.5188,542.5744 L1301.5188,545.2931 Q1300.8938,544.715 1300.3,544.4494 Q1299.7063,544.1681 1299.0813,544.1681 Q1297.7375,544.1681 1297.05,545.2462 Q1296.3625,546.3087 1296.3625,548.4025 Q1296.3625,550.4962 1297.05,551.5744 Q1297.7375,552.6369 1299.0813,552.6369 Q1299.7063,552.6369 1300.3,552.3712 Q1300.8938,552.09 1301.5188,551.5119 L1301.5188,554.2306 Z " fill="#000000"/><text fill="#000000" font-family="sans-serif" font-size="14" lengthAdjust="spacing" textLength="250" x="1318.45" y="553.4367">SewerOverflowIndicationComponent</text><line style="stroke:#181818;stroke-width:0.5;" x1="1258" x2="1597" y1="564.59" y2="564.59"/><line style="stroke:#181818;stroke-width:0.5;" x1="1258" x2="1597" y1="572.59" y2="572.59"/><ellipse cx="1268" cy="586.2384" fill="#84BE84" rx="3" ry="3" style="stroke:#038048;stroke-width:1.0;"/><text fill="#000000" font-family="sans-serif" font-size="14" lengthAdjust="spacing" textLength="315" x="1277" y="589.5851">void execute(Map&lt;String, ? extends Object&gt;)</text></g><!--class SewerObservationService--><g id="elem_SewerObservationService"><rect codeLine="40" fill="#F1F1F1" height="64.2969" id="SewerObservationService" rx="2.5" ry="2.5" style="stroke:#181818;stroke-width:0.5;" width="208" x="2229.5" y="408.29"/><ellipse cx="2244.5" cy="424.29" fill="#ADD1B2" rx="11" ry="11" style="stroke:#181818;stroke-width:1.0;"/><path d="M2247.4688,429.9306 Q2246.8906,430.2275 2246.25,430.3681 Q2245.6094,430.5244 2244.9063,430.5244 Q2242.4063,430.5244 2241.0781,428.8837 Q2239.7656,427.2275 2239.7656,424.1025 Q2239.7656,420.9775 2241.0781,419.3212 Q2242.4063,417.665 2244.9063,417.665 Q2245.6094,417.665 2246.25,417.8212 Q2246.9063,417.9775 2247.4688,418.2744 L2247.4688,420.9931 Q2246.8438,420.415 2246.25,420.1494 Q2245.6563,419.8681 2245.0313,419.8681 Q2243.6875,419.8681 2243,420.9462 Q2242.3125,422.0087 2242.3125,424.1025 Q2242.3125,426.1962 2243,427.2744 Q2243.6875,428.3369 2245.0313,428.3369 Q2245.6563,428.3369 2246.25,428.0712 Q2246.8438,427.79 2247.4688,427.2119 L2247.4688,429.9306 Z " fill="#000000"/><text fill="#000000" font-family="sans-serif" font-size="14" lengthAdjust="spacing" textLength="176" x="2258.5" y="429.1367">SewerObservationService</text><line style="stroke:#181818;stroke-width:0.5;" x1="2230.5" x2="2436.5" y1="440.29" y2="440.29"/><line style="stroke:#181818;stroke-width:0.5;" x1="2230.5" x2="2436.5" y1="448.29" y2="448.29"/><ellipse cx="2240.5" cy="461.9384" fill="#84BE84" rx="3" ry="3" style="stroke:#038048;stroke-width:1.0;"/><text fill="#000000" font-family="sans-serif" font-size="14" lengthAdjust="spacing" textLength="182" x="2249.5" y="465.2851">Set&lt;Sewer&gt; serve(String)</text></g><!--class SewerObservationComponent--><g id="elem_SewerObservationComponent"><rect codeLine="43" fill="#F1F1F1" height="64.2969" id="SewerObservationComponent" rx="2.5" ry="2.5" style="stroke:#181818;stroke-width:0.5;" width="240" x="2213.5" y="532.59"/><ellipse cx="2228.5" cy="548.59" fill="#ADD1B2" rx="11" ry="11" style="stroke:#181818;stroke-width:1.0;"/><path d="M2231.4688,554.2306 Q2230.8906,554.5275 2230.25,554.6681 Q2229.6094,554.8244 2228.9063,554.8244 Q2226.4063,554.8244 2225.0781,553.1837 Q2223.7656,551.5275 2223.7656,548.4025 Q2223.7656,545.2775 2225.0781,543.6212 Q2226.4063,541.965 2228.9063,541.965 Q2229.6094,541.965 2230.25,542.1212 Q2230.9063,542.2775 2231.4688,542.5744 L2231.4688,545.2931 Q2230.8438,544.715 2230.25,544.4494 Q2229.6563,544.1681 2229.0313,544.1681 Q2227.6875,544.1681 2227,545.2462 Q2226.3125,546.3087 2226.3125,548.4025 Q2226.3125,550.4962 2227,551.5744 Q2227.6875,552.6369 2229.0313,552.6369 Q2229.6563,552.6369 2230.25,552.3712 Q2230.8438,552.09 2231.4688,551.5119 L2231.4688,554.2306 Z " fill="#000000"/><text fill="#000000" font-family="sans-serif" font-size="14" lengthAdjust="spacing" textLength="208" x="2242.5" y="553.4367">SewerObservationComponent</text><line style="stroke:#181818;stroke-width:0.5;" x1="2214.5" x2="2452.5" y1="564.59" y2="564.59"/><line style="stroke:#181818;stroke-width:0.5;" x1="2214.5" x2="2452.5" y1="572.59" y2="572.59"/><ellipse cx="2224.5" cy="586.2384" fill="#84BE84" rx="3" ry="3" style="stroke:#038048;stroke-width:1.0;"/><text fill="#000000" font-family="sans-serif" font-size="14" lengthAdjust="spacing" textLength="200" x="2233.5" y="589.5851">Set&lt;Sewer&gt; execute(String)</text></g><!--class Sewers--><g id="elem_Sewers"><rect codeLine="46" fill="#F1F1F1" height="80.5938" id="Sewers" rx="2.5" ry="2.5" style="stroke:#181818;stroke-width:0.5;" width="220" x="2223.5" y="798.18"/><ellipse cx="2303.75" cy="814.18" fill="#B4A7E5" rx="11" ry="11" style="stroke:#181818;stroke-width:1.0;"/><path d="M2299.6719,809.9456 L2299.6719,807.7894 L2307.0625,807.7894 L2307.0625,809.9456 L2304.5938,809.9456 L2304.5938,818.0238 L2307.0625,818.0238 L2307.0625,820.18 L2299.6719,820.18 L2299.6719,818.0238 L2302.1406,818.0238 L2302.1406,809.9456 L2299.6719,809.9456 Z " fill="#000000"/><text fill="#000000" font-family="sans-serif" font-size="14" font-style="italic" lengthAdjust="spacing" textLength="51" x="2324.25" y="819.0267">Sewers</text><line style="stroke:#181818;stroke-width:0.5;" x1="2224.5" x2="2442.5" y1="830.18" y2="830.18"/><line style="stroke:#181818;stroke-width:0.5;" x1="2224.5" x2="2442.5" y1="838.18" y2="838.18"/><ellipse cx="2234.5" cy="851.8284" fill="#84BE84" rx="3" ry="3" style="stroke:#038048;stroke-width:1.0;"/><text fill="#000000" font-family="sans-serif" font-size="14" font-style="italic" lengthAdjust="spacing" textLength="194" x="2243.5" y="855.1751">Set&lt;Sewer&gt; observe(UUID)</text><ellipse cx="2234.5" cy="868.1253" fill="#84BE84" rx="3" ry="3" style="stroke:#038048;stroke-width:1.0;"/><text fill="#000000" font-family="sans-serif" font-size="14" font-style="italic" lengthAdjust="spacing" textLength="139" x="2243.5" y="871.472">void indicate(Sewer)</text></g><!--class Sewer--><g id="elem_Sewer"><rect codeLine="50" fill="#F1F1F1" height="113.1875" id="Sewer" rx="2.5" ry="2.5" style="stroke:#181818;stroke-width:0.5;" width="259" x="1929" y="781.89"/><ellipse cx="2032.75" cy="797.89" fill="#ADD1B2" rx="11" ry="11" style="stroke:#181818;stroke-width:1.0;"/><path d="M2035.7188,803.5306 Q2035.1406,803.8275 2034.5,803.9681 Q2033.8594,804.1244 2033.1563,804.1244 Q2030.6563,804.1244 2029.3281,802.4838 Q2028.0156,800.8275 2028.0156,797.7025 Q2028.0156,794.5775 2029.3281,792.9213 Q2030.6563,791.265 2033.1563,791.265 Q2033.8594,791.265 2034.5,791.4213 Q2035.1563,791.5775 2035.7188,791.8744 L2035.7188,794.5931 Q2035.0938,794.015 2034.5,793.7494 Q2033.9063,793.4681 2033.2813,793.4681 Q2031.9375,793.4681 2031.25,794.5463 Q2030.5625,795.6088 2030.5625,797.7025 Q2030.5625,799.7963 2031.25,800.8744 Q2031.9375,801.9369 2033.2813,801.9369 Q2033.9063,801.9369 2034.5,801.6713 Q2035.0938,801.39 2035.7188,800.8119 L2035.7188,803.5306 Z " fill="#000000"/><text fill="#000000" font-family="sans-serif" font-size="14" lengthAdjust="spacing" textLength="43" x="2053.25" y="802.7367">Sewer</text><line style="stroke:#181818;stroke-width:0.5;" x1="1930" x2="2187" y1="813.89" y2="813.89"/><line style="stroke:#181818;stroke-width:0.5;" x1="1930" x2="2187" y1="821.89" y2="821.89"/><ellipse cx="1940" cy="835.5384" fill="#84BE84" rx="3" ry="3" style="stroke:#038048;stroke-width:1.0;"/><text fill="#000000" font-family="sans-serif" font-size="14" lengthAdjust="spacing" textLength="83" x="1949" y="838.8851">UUID getId()</text><ellipse cx="1940" cy="851.8353" fill="#84BE84" rx="3" ry="3" style="stroke:#038048;stroke-width:1.0;"/><text fill="#000000" font-family="sans-serif" font-size="14" lengthAdjust="spacing" textLength="230" x="1949" y="855.182">KeyPerformanceIndicator getKpi()</text><ellipse cx="1940" cy="868.1322" fill="#84BE84" rx="3" ry="3" style="stroke:#038048;stroke-width:1.0;"/><text fill="#000000" font-family="sans-serif" font-size="14" lengthAdjust="spacing" textLength="206" x="1949" y="871.4789">Set&lt;Problem&gt; getProblems()</text><ellipse cx="1940" cy="884.4291" fill="#84BE84" rx="3" ry="3" style="stroke:#038048;stroke-width:1.0;"/><text fill="#000000" font-family="sans-serif" font-size="14" lengthAdjust="spacing" textLength="233" x="1949" y="887.7757">void setProblems(Set&lt;Problem&gt;)</text></g><!--class KeyPerformanceIndicator--><g id="elem_KeyPerformanceIndicator"><rect codeLine="56" fill="#F1F1F1" height="96.8906" id="KeyPerformanceIndicator" rx="2.5" ry="2.5" style="stroke:#181818;stroke-width:0.5;" width="279" x="1890" y="994.08"/><ellipse cx="1939.25" cy="1010.08" fill="#ADD1B2" rx="11" ry="11" style="stroke:#181818;stroke-width:1.0;"/><path d="M1942.2188,1015.7206 Q1941.6406,1016.0175 1941,1016.1581 Q1940.3594,1016.3144 1939.6563,1016.3144 Q1937.1563,1016.3144 1935.8281,1014.6737 Q1934.5156,1013.0175 1934.5156,1009.8925 Q1934.5156,1006.7675 1935.8281,1005.1112 Q1937.1563,1003.455 1939.6563,1003.455 Q1940.3594,1003.455 1941,1003.6112 Q1941.6563,1003.7675 1942.2188,1004.0644 L1942.2188,1006.7831 Q1941.5938,1006.205 1941,1005.9394 Q1940.4063,1005.6581 1939.7813,1005.6581 Q1938.4375,1005.6581 1937.75,1006.7362 Q1937.0625,1007.7987 1937.0625,1009.8925 Q1937.0625,1011.9862 1937.75,1013.0644 Q1938.4375,1014.1269 1939.7813,1014.1269 Q1940.4063,1014.1269 1941,1013.8612 Q1941.5938,1013.58 1942.2188,1013.0019 L1942.2188,1015.7206 Z " fill="#000000"/><text fill="#000000" font-family="sans-serif" font-size="14" lengthAdjust="spacing" textLength="172" x="1959.75" y="1014.9267">KeyPerformanceIndicator</text><line style="stroke:#181818;stroke-width:0.5;" x1="1891" x2="2168" y1="1026.08" y2="1026.08"/><line style="stroke:#181818;stroke-width:0.5;" x1="1891" x2="2168" y1="1034.08" y2="1034.08"/><ellipse cx="1901" cy="1047.7284" fill="#84BE84" rx="3" ry="3" style="stroke:#038048;stroke-width:1.0;"/><text fill="#000000" font-family="sans-serif" font-size="14" lengthAdjust="spacing" textLength="253" x="1910" y="1051.0751">String getPumpPowerConsumption()</text><ellipse cx="1901" cy="1064.0253" fill="#84BE84" rx="3" ry="3" style="stroke:#038048;stroke-width:1.0;"/><text fill="#000000" font-family="sans-serif" font-size="14" lengthAdjust="spacing" textLength="108" x="1910" y="1067.372">String getFlow()</text><ellipse cx="1901" cy="1080.3222" fill="#84BE84" rx="3" ry="3" style="stroke:#038048;stroke-width:1.0;"/><text fill="#000000" font-family="sans-serif" font-size="14" lengthAdjust="spacing" textLength="140" x="1910" y="1083.6689">Number getRainfall()</text></g><!--class Problem--><g id="elem_Problem"><rect codeLine="61" fill="#F1F1F1" height="80.5938" id="Problem" rx="2.5" ry="2.5" style="stroke:#181818;stroke-width:0.5;" width="243" x="2226" y="1002.22"/><ellipse cx="2314.75" cy="1018.22" fill="#ADD1B2" rx="11" ry="11" style="stroke:#181818;stroke-width:1.0;"/><path d="M2317.7188,1023.8606 Q2317.1406,1024.1575 2316.5,1024.2981 Q2315.8594,1024.4544 2315.1563,1024.4544 Q2312.6563,1024.4544 2311.3281,1022.8138 Q2310.0156,1021.1575 2310.0156,1018.0325 Q2310.0156,1014.9075 2311.3281,1013.2513 Q2312.6563,1011.595 2315.1563,1011.595 Q2315.8594,1011.595 2316.5,1011.7513 Q2317.1563,1011.9075 2317.7188,1012.2044 L2317.7188,1014.9231 Q2317.0938,1014.345 2316.5,1014.0794 Q2315.9063,1013.7981 2315.2813,1013.7981 Q2313.9375,1013.7981 2313.25,1014.8763 Q2312.5625,1015.9388 2312.5625,1018.0325 Q2312.5625,1020.1263 2313.25,1021.2044 Q2313.9375,1022.2669 2315.2813,1022.2669 Q2315.9063,1022.2669 2316.5,1022.0013 Q2317.0938,1021.72 2317.7188,1021.1419 L2317.7188,1023.8606 Z " fill="#000000"/><text fill="#000000" font-family="sans-serif" font-size="14" lengthAdjust="spacing" textLength="57" x="2335.25" y="1023.0667">Problem</text><line style="stroke:#181818;stroke-width:0.5;" x1="2227" x2="2468" y1="1034.22" y2="1034.22"/><line style="stroke:#181818;stroke-width:0.5;" x1="2227" x2="2468" y1="1042.22" y2="1042.22"/><ellipse cx="2237" cy="1055.8684" fill="#84BE84" rx="3" ry="3" style="stroke:#038048;stroke-width:1.0;"/><text fill="#000000" font-family="sans-serif" font-size="14" lengthAdjust="spacing" textLength="130" x="2246" y="1059.2151">String getReason()</text><ellipse cx="2237" cy="1072.1653" fill="#84BE84" rx="3" ry="3" style="stroke:#038048;stroke-width:1.0;"/><text fill="#000000" font-family="sans-serif" font-size="14" lengthAdjust="spacing" textLength="217" x="2246" y="1075.512">Number getOverflowIndication()</text></g><!--class SewerIndicationUseCase--><g id="elem_SewerIndicationUseCase"><rect codeLine="65" fill="#F1F1F1" height="64.2969" id="SewerIndicationUseCase" rx="2.5" ry="2.5" style="stroke:#181818;stroke-width:0.5;" width="247" x="1304" y="210"/><ellipse cx="1338.8" cy="226" fill="#ADD1B2" rx="11" ry="11" style="stroke:#181818;stroke-width:1.0;"/><path d="M1341.7688,231.6406 Q1341.1906,231.9375 1340.55,232.0781 Q1339.9094,232.2344 1339.2063,232.2344 Q1336.7063,232.2344 1335.3781,230.5938 Q1334.0656,228.9375 1334.0656,225.8125 Q1334.0656,222.6875 1335.3781,221.0313 Q1336.7063,219.375 1339.2063,219.375 Q1339.9094,219.375 1340.55,219.5313 Q1341.2063,219.6875 1341.7688,219.9844 L1341.7688,222.7031 Q1341.1438,222.125 1340.55,221.8594 Q1339.9563,221.5781 1339.3313,221.5781 Q1337.9875,221.5781 1337.3,222.6563 Q1336.6125,223.7188 1336.6125,225.8125 Q1336.6125,227.9063 1337.3,228.9844 Q1337.9875,230.0469 1339.3313,230.0469 Q1339.9563,230.0469 1340.55,229.7813 Q1341.1438,229.5 1341.7688,228.9219 L1341.7688,231.6406 Z " fill="#000000"/><text fill="#000000" font-family="sans-serif" font-size="14" lengthAdjust="spacing" textLength="171" x="1357.2" y="230.8467">SewerIndicationUseCase</text><line style="stroke:#181818;stroke-width:0.5;" x1="1305" x2="1550" y1="242" y2="242"/><line style="stroke:#181818;stroke-width:0.5;" x1="1305" x2="1550" y1="250" y2="250"/><ellipse cx="1315" cy="263.6484" fill="#84BE84" rx="3" ry="3" style="stroke:#038048;stroke-width:1.0;"/><text fill="#000000" font-family="sans-serif" font-size="14" lengthAdjust="spacing" textLength="221" x="1324" y="266.9951">void serve(Map&lt;String, String&gt;)</text></g><!--class SewerObservationUseCase--><g id="elem_SewerObservationUseCase"><rect codeLine="68" fill="#F1F1F1" height="64.2969" id="SewerObservationUseCase" rx="2.5" ry="2.5" style="stroke:#181818;stroke-width:0.5;" width="220" x="2223.5" y="210"/><ellipse cx="2238.5" cy="226" fill="#ADD1B2" rx="11" ry="11" style="stroke:#181818;stroke-width:1.0;"/><path d="M2241.4688,231.6406 Q2240.8906,231.9375 2240.25,232.0781 Q2239.6094,232.2344 2238.9063,232.2344 Q2236.4063,232.2344 2235.0781,230.5938 Q2233.7656,228.9375 2233.7656,225.8125 Q2233.7656,222.6875 2235.0781,221.0313 Q2236.4063,219.375 2238.9063,219.375 Q2239.6094,219.375 2240.25,219.5313 Q2240.9063,219.6875 2241.4688,219.9844 L2241.4688,222.7031 Q2240.8438,222.125 2240.25,221.8594 Q2239.6563,221.5781 2239.0313,221.5781 Q2237.6875,221.5781 2237,222.6563 Q2236.3125,223.7188 2236.3125,225.8125 Q2236.3125,227.9063 2237,228.9844 Q2237.6875,230.0469 2239.0313,230.0469 Q2239.6563,230.0469 2240.25,229.7813 Q2240.8438,229.5 2241.4688,228.9219 L2241.4688,231.6406 Z " fill="#000000"/><text fill="#000000" font-family="sans-serif" font-size="14" lengthAdjust="spacing" textLength="188" x="2252.5" y="230.8467">SewerObservationUseCase</text><line style="stroke:#181818;stroke-width:0.5;" x1="2224.5" x2="2442.5" y1="242" y2="242"/><line style="stroke:#181818;stroke-width:0.5;" x1="2224.5" x2="2442.5" y1="250" y2="250"/><ellipse cx="2234.5" cy="263.6484" fill="#84BE84" rx="3" ry="3" style="stroke:#038048;stroke-width:1.0;"/><text fill="#000000" font-family="sans-serif" font-size="14" lengthAdjust="spacing" textLength="182" x="2243.5" y="266.9951">Set&lt;Sewer&gt; serve(String)</text></g><!--class SewersUseCase--><g id="elem_SewersUseCase"><rect codeLine="71" fill="#F1F1F1" height="80.5938" id="SewersUseCase" rx="2.5" ry="2.5" style="stroke:#181818;stroke-width:0.5;" width="222" x="2597.5" y="1186.97"/><ellipse cx="2647.75" cy="1202.97" fill="#B4A7E5" rx="11" ry="11" style="stroke:#181818;stroke-width:1.0;"/><path d="M2643.6719,1198.7356 L2643.6719,1196.5794 L2651.0625,1196.5794 L2651.0625,1198.7356 L2648.5938,1198.7356 L2648.5938,1206.8138 L2651.0625,1206.8138 L2651.0625,1208.97 L2643.6719,1208.97 L2643.6719,1206.8138 L2646.1406,1206.8138 L2646.1406,1198.7356 L2643.6719,1198.7356 Z " fill="#000000"/><text fill="#000000" font-family="sans-serif" font-size="14" font-style="italic" lengthAdjust="spacing" textLength="113" x="2668.25" y="1207.8167">SewersUseCase</text><line style="stroke:#181818;stroke-width:0.5;" x1="2598.5" x2="2818.5" y1="1218.97" y2="1218.97"/><line style="stroke:#181818;stroke-width:0.5;" x1="2598.5" x2="2818.5" y1="1226.97" y2="1226.97"/><ellipse cx="2608.5" cy="1240.6184" fill="#84BE84" rx="3" ry="3" style="stroke:#038048;stroke-width:1.0;"/><text fill="#000000" font-family="sans-serif" font-size="14" font-style="italic" lengthAdjust="spacing" textLength="196" x="2617.5" y="1243.9651">Set&lt;Object&gt; observe(UUID)</text><ellipse cx="2608.5" cy="1256.9153" fill="#84BE84" rx="3" ry="3" style="stroke:#038048;stroke-width:1.0;"/><text fill="#000000" font-family="sans-serif" font-size="14" font-style="italic" lengthAdjust="spacing" textLength="183" x="2617.5" y="1260.262">void indicate(UUID, Object)</text></g><!--class SewersUseCaseBridge--><g id="elem_SewersUseCaseBridge"><rect codeLine="75" fill="#F1F1F1" height="80.5938" id="SewersUseCaseBridge" rx="2.5" ry="2.5" style="stroke:#181818;stroke-width:0.5;" width="220" x="2597.5" y="1002.22"/><ellipse cx="2626" cy="1018.22" fill="#ADD1B2" rx="11" ry="11" style="stroke:#181818;stroke-width:1.0;"/><path d="M2628.9688,1023.8606 Q2628.3906,1024.1575 2627.75,1024.2981 Q2627.1094,1024.4544 2626.4063,1024.4544 Q2623.9063,1024.4544 2622.5781,1022.8138 Q2621.2656,1021.1575 2621.2656,1018.0325 Q2621.2656,1014.9075 2622.5781,1013.2513 Q2623.9063,1011.595 2626.4063,1011.595 Q2627.1094,1011.595 2627.75,1011.7513 Q2628.4063,1011.9075 2628.9688,1012.2044 L2628.9688,1014.9231 Q2628.3438,1014.345 2627.75,1014.0794 Q2627.1563,1013.7981 2626.5313,1013.7981 Q2625.1875,1013.7981 2624.5,1014.8763 Q2623.8125,1015.9388 2623.8125,1018.0325 Q2623.8125,1020.1263 2624.5,1021.2044 Q2625.1875,1022.2669 2626.5313,1022.2669 Q2627.1563,1022.2669 2627.75,1022.0013 Q2628.3438,1021.72 2628.9688,1021.1419 L2628.9688,1023.8606 Z " fill="#000000"/><text fill="#000000" font-family="sans-serif" font-size="14" lengthAdjust="spacing" textLength="158" x="2643" y="1023.0667">SewersUseCaseBridge</text><line style="stroke:#181818;stroke-width:0.5;" x1="2598.5" x2="2816.5" y1="1034.22" y2="1034.22"/><line style="stroke:#181818;stroke-width:0.5;" x1="2598.5" x2="2816.5" y1="1042.22" y2="1042.22"/><ellipse cx="2608.5" cy="1055.8684" fill="#84BE84" rx="3" ry="3" style="stroke:#038048;stroke-width:1.0;"/><text fill="#000000" font-family="sans-serif" font-size="14" lengthAdjust="spacing" textLength="194" x="2617.5" y="1059.2151">Set&lt;Sewer&gt; observe(UUID)</text><ellipse cx="2608.5" cy="1072.1653" fill="#84BE84" rx="3" ry="3" style="stroke:#038048;stroke-width:1.0;"/><text fill="#000000" font-family="sans-serif" font-size="14" lengthAdjust="spacing" textLength="139" x="2617.5" y="1075.512">void indicate(Sewer)</text></g><g id="elem_GMN49"><path d="M6,229.58 L6,254.7128 L477,254.7128 L477,239.58 L467,229.58 L6,229.58 " fill="#FEFFDD" style="stroke:#181818;stroke-width:0.5;"/><path d="M467,229.58 L467,239.58 L477,239.58 L467,229.58 " fill="#FEFFDD" style="stroke:#181818;stroke-width:1.0;"/><text fill="#000000" font-family="sans-serif" font-size="13" lengthAdjust="spacing" textLength="450" x="12" y="246.6469">Frameworks and tools such as the Database, the Web Framework, etc.</text></g><g id="elem_GMN52"><path d="M2998.5,229.58 L2998.5,254.7128 L4104.5,254.7128 L4104.5,239.58 L4094.5,229.58 L2998.5,229.58 " fill="#FEFFDD" style="stroke:#181818;stroke-width:0.5;"/><path d="M4094.5,229.58 L4094.5,239.58 L4104.5,239.58 L4094.5,229.58 " fill="#FEFFDD" style="stroke:#181818;stroke-width:1.0;"/><text fill="#000000" font-family="sans-serif" font-size="13" lengthAdjust="spacing" textLength="1085" x="3004.5" y="246.6469">Convert data from the format most convenient for the use cases and entities, to the format most convenient for some external agency such as the Database or the Web.</text></g><g id="elem_GMN55"><path d="M4139,229.58 L4139,254.7128 L4812,254.7128 L4812,239.58 L4802,229.58 L4139,229.58 " fill="#FEFFDD" style="stroke:#181818;stroke-width:0.5;"/><path d="M4802,229.58 L4802,239.58 L4812,239.58 L4802,229.58 " fill="#FEFFDD" style="stroke:#181818;stroke-width:1.0;"/><text fill="#000000" font-family="sans-serif" font-size="13" lengthAdjust="spacing" textLength="652" x="4145" y="246.6469">Application specific business rules. It encapsulates and implements all of the use cases of the system.</text></g><g id="elem_GMN58"><path d="M2996,427.88 L2996,453.0128 L3935,453.0128 L3935,437.88 L3925,427.88 L2996,427.88 " fill="#FEFFDD" style="stroke:#181818;stroke-width:0.5;"/><path d="M3925,427.88 L3925,437.88 L3935,437.88 L3925,427.88 " fill="#FEFFDD" style="stroke:#181818;stroke-width:1.0;"/><text fill="#000000" font-family="sans-serif" font-size="13" lengthAdjust="spacing" textLength="918" x="3002" y="444.9469">Entities encapsulate Enterprise wide business rules. An entity can be an object with methods, or it can be a set of data structures and functions.</text></g><!--link GMN49 to drivers--><g id="link_GMN49_drivers"><path d="M241.5,229.12 C241.5,214.43 241.5,192.56 241.5,192.56 C241.5,192.56 284.0313,192.56 358.4609,192.56 C395.6758,192.56 440.8652,192.56 492.7002,192.56 " fill="none" id="GMN49-drivers" style="stroke:#181818;stroke-width:1.0;stroke-dasharray:7.0,7.0;"/></g><!--link GMN52 to adapters--><g id="link_GMN52_adapters"><path d="M2998.32,235.56 C2973.165,235.56 2952.46,235.56 2938.0438,235.56 C2934.4397,235.56 2931.2287,235.56 2928.4394,235.56 C2927.0448,235.56 2925.7556,235.56 2924.5755,235.56 C2924.2805,235.56 2923.9922,235.56 2923.7109,235.56 C2923.6406,235.56 2923.5707,235.56 2923.5012,235.56 " fill="none" id="GMN52-adapters" style="stroke:#181818;stroke-width:1.0;stroke-dasharray:7.0,7.0;"/></g><!--link GMN55 to use_cases--><g id="link_GMN55_use_cases"><path d="M4475.5,229.34 C4475.5,224.69 4475.5,220.56 4475.5,220.56 C4475.5,220.56 4073.5,220.56 3671.5,220.56 C3470.5,220.56 3269.5,220.56 3118.75,220.56 C3043.375,220.56 2980.5625,220.56 2936.5938,220.56 C2914.6094,220.56 2897.3359,220.56 2885.5586,220.56 C2882.6143,220.56 2880.0134,220.56 2877.7684,220.56 C2877.2071,220.56 2876.6681,220.56 2876.1515,220.56 " fill="none" id="GMN55-use_cases" style="stroke:#181818;stroke-width:1.0;stroke-dasharray:7.0,7.0;"/></g><!--link GMN58 to entities--><g id="link_GMN58_entities"><path d="M2995.72,440.56 C2885.1,440.56 2775.075,440.56 2691.0213,440.56 C2648.9944,440.56 2613.4603,440.56 2587.5911,440.56 C2574.6565,440.56 2564.1381,440.56 2556.4324,440.56 C2554.506,440.56 2552.7554,440.56 2551.1867,440.56 C2550.7946,440.56 2550.4138,440.56 2550.0445,440.56 " fill="none" id="GMN58-entities" style="stroke:#181818;stroke-width:1.0;stroke-dasharray:7.0,7.0;"/></g><!--link SewerOverflowIndicationService to SewerOverflowIndicationComponent--><g id="link_SewerOverflowIndicationService_SewerOverflowIndicationComponent"><path codeLine="91" d="M1427.5,472.78 C1427.5,491.05 1427.5,507.82 1427.5,526.14 " fill="none" id="SewerOverflowIndicationService-to-SewerOverflowIndicationComponent" style="stroke:#181818;stroke-width:1.0;"/><polygon fill="#181818" points="1427.5,532.14,1431.5,523.14,1427.5,527.14,1423.5,523.14,1427.5,532.14" style="stroke:#181818;stroke-width:1.0;"/></g><!--link SewerOverflowIndicationComponent to Sewers--><g id="link_SewerOverflowIndicationComponent_Sewers"><path codeLine="92" d="M1598.15,565.56 C1825.86,565.56 2200.75,565.56 2200.75,565.56 C2200.75,565.56 2200.75,838.56 2200.75,838.56 C2200.75,838.56 2203.84,838.56 2217.27,838.56 " fill="none" id="SewerOverflowIndicationComponent-to-Sewers" style="stroke:#181818;stroke-width:1.0;"/><polygon fill="#181818" points="2223.27,838.56,2214.27,834.56,2218.27,838.56,2214.27,842.56,2223.27,838.56" style="stroke:#181818;stroke-width:1.0;"/></g><!--link SewerOverflowIndicationComponent to RainIndicationComponent--><g id="link_SewerOverflowIndicationComponent_RainIndicationComponent"><path codeLine="93" d="M1521.5,597.22 C1521.5,649.9 1521.5,747.39 1521.5,800.05 " fill="none" id="SewerOverflowIndicationComponent-to-RainIndicationComponent" style="stroke:#181818;stroke-width:1.0;"/><polygon fill="#181818" points="1521.5,806.05,1525.5,797.05,1521.5,801.05,1517.5,797.05,1521.5,806.05" style="stroke:#181818;stroke-width:1.0;"/></g><!--link SewerOverflowIndicationComponent to PumpIndicationComponent--><g id="link_SewerOverflowIndicationComponent_PumpIndicationComponent"><path codeLine="94" d="M1333.5,597.22 C1333.5,649.9 1333.5,747.39 1333.5,800.05 " fill="none" id="SewerOverflowIndicationComponent-to-PumpIndicationComponent" style="stroke:#181818;stroke-width:1.0;"/><polygon fill="#181818" points="1333.5,806.05,1337.5,797.05,1333.5,801.05,1329.5,797.05,1333.5,806.05" style="stroke:#181818;stroke-width:1.0;"/></g><!--link SewerOverflowIndicationComponent to FlowIndicationComponent--><g id="link_SewerOverflowIndicationComponent_FlowIndicationComponent"><path codeLine="95" d="M1256.75,565.56 C1090.75,565.56 863.5,565.56 863.5,565.56 C863.5,565.56 863.5,727.81 863.5,800.1 " fill="none" id="SewerOverflowIndicationComponent-to-FlowIndicationComponent" style="stroke:#181818;stroke-width:1.0;"/><polygon fill="#181818" points="863.5,806.1,867.5,797.1,863.5,801.1,859.5,797.1,863.5,806.1" style="stroke:#181818;stroke-width:1.0;"/></g><!--link SewerObservationService to SewerObservationComponent--><g id="link_SewerObservationService_SewerObservationComponent"><path codeLine="96" d="M2333.5,472.78 C2333.5,491.05 2333.5,507.82 2333.5,526.14 " fill="none" id="SewerObservationService-to-SewerObservationComponent" style="stroke:#181818;stroke-width:1.0;"/><polygon fill="#181818" points="2333.5,532.14,2337.5,523.14,2333.5,527.14,2329.5,523.14,2333.5,532.14" style="stroke:#181818;stroke-width:1.0;"/></g><!--link SewerObservationComponent to Sewers--><g id="link_SewerObservationComponent_Sewers"><path codeLine="97" d="M2333.5,597.22 C2333.5,647.35 2333.5,737.49 2333.5,792.06 " fill="none" id="SewerObservationComponent-to-Sewers" style="stroke:#181818;stroke-width:1.0;"/><polygon fill="#181818" points="2333.5,798.06,2337.5,789.06,2333.5,793.06,2329.5,789.06,2333.5,798.06" style="stroke:#181818;stroke-width:1.0;"/></g><!--link Sewer to Problem--><g id="link_Sewer_Problem"><path codeLine="98" d="M2178.5,895.33 C2178.5,955.71 2178.5,1042.56 2178.5,1042.56 C2178.5,1042.56 2192.93,1042.56 2219.58,1042.56 " fill="none" id="Sewer-to-Problem" style="stroke:#181818;stroke-width:1.0;"/><polygon fill="#181818" points="2225.58,1042.56,2216.58,1038.56,2220.58,1042.56,2216.58,1046.56,2225.58,1042.56" style="stroke:#181818;stroke-width:1.0;"/></g><!--link Sewer to KeyPerformanceIndicator--><g id="link_Sewer_KeyPerformanceIndicator"><path codeLine="99" d="M2049,895.32 C2049,926.21 2049,958.03 2049,987.6 " fill="none" id="Sewer-to-KeyPerformanceIndicator" style="stroke:#181818;stroke-width:1.0;"/><polygon fill="#181818" points="2049,993.6,2053,984.6,2049,988.6,2045,984.6,2049,993.6" style="stroke:#181818;stroke-width:1.0;"/></g><!--link SewerIndicationUseCase to SewerOverflowIndicationService--><g id="link_SewerIndicationUseCase_SewerOverflowIndicationService"><path codeLine="100" d="M1427.5,274.45 C1427.5,311.21 1427.5,364.93 1427.5,401.83 " fill="none" id="SewerIndicationUseCase-to-SewerOverflowIndicationService" style="stroke:#181818;stroke-width:1.0;"/><polygon fill="#181818" points="1427.5,407.83,1431.5,398.83,1427.5,402.83,1423.5,398.83,1427.5,407.83" style="stroke:#181818;stroke-width:1.0;"/></g><!--link SewerObservationUseCase to SewerObservationService--><g id="link_SewerObservationUseCase_SewerObservationService"><path codeLine="101" d="M2333.5,274.45 C2333.5,311.21 2333.5,364.93 2333.5,401.83 " fill="none" id="SewerObservationUseCase-to-SewerObservationService" style="stroke:#181818;stroke-width:1.0;"/><polygon fill="#181818" points="2333.5,407.83,2337.5,398.83,2333.5,402.83,2329.5,398.83,2333.5,407.83" style="stroke:#181818;stroke-width:1.0;"/></g><!--reverse link Sewers to SewersUseCaseBridge--><g id="link_Sewers_SewersUseCaseBridge"><path codeLine="102" d="M2461.94,838.56 C2572.24,838.56 2707.5,838.56 2707.5,838.56 C2707.5,838.56 2707.5,942.22 2707.5,1001.74 " fill="none" id="Sewers-backto-SewersUseCaseBridge" style="stroke:#181818;stroke-width:1.0;stroke-dasharray:7.0,7.0;"/><polygon fill="none" points="2443.94,838.56,2461.94,844.56,2461.94,832.56,2443.94,838.56" style="stroke:#181818;stroke-width:1.0;"/></g><!--link SewersUseCaseBridge to SewersUseCase--><g id="link_SewersUseCaseBridge_SewersUseCase"><path codeLine="103" d="M2707.5,1083.06 C2707.5,1113.76 2707.5,1149.75 2707.5,1180.5 " fill="none" id="SewersUseCaseBridge-to-SewersUseCase" style="stroke:#181818;stroke-width:1.0;"/><polygon fill="#181818" points="2707.5,1186.5,2711.5,1177.5,2707.5,1181.5,2703.5,1177.5,2707.5,1186.5" style="stroke:#181818;stroke-width:1.0;"/></g><!--SRC=[tLZVZ-8s47xFN-722wVkMLNLXwvqskgwTokXKtleLgi-Leup0PV4ZcndAThk_zvnd408X8KBoVru0fpnVDyt6Ozd-27JR9uoaXkOIWiwXKWm2pF6bsmEXiGiCH2OfP0PqombYP1WrnaGfUr21MQXLiJWFb1kDSZyFX9fyGZQ46P819IhD6DoJJEjR6573Qn0qyfgR9RhCCc1F3rlFB28PVPa5tHZFlxrvpWEVwcxGcr_SsRWN5zqkt4SnzVi-hhk5QGLLdHmIZSUnZ6Fe_2dklTGvJ9YUjtTEnKo4XpVATtu72SYtGasLz9gbVG1HYlVOwMPd4DF8bLeG3yEex69DP14Rpc4m5saO_AABUlU86dflzy3uYsNcHWmk7Mq0GDy27R88EFEC85qm40t4GSCTXjqhm4_eTft1tcvsdR7A0pC0OY09ymOChft1XznUvoerTJB5ahU8pF1OTJBPNOSapm5XFpug4H4YlXC_c3PctkhXPnV4VzvyofuhWJSxVYuHQ9A8lQepskOje3MgCE_m7ExI_utNBKW8qC-Xly0jtKPippD1fVH0jf1nYScvE0oMa0xo6Z9q87ql8JUMLXHU2vzplSQkXOip_uUx9l2uAOyvPxz4QeN3NvRzqbRKVTeLw7V4XTkzeiPIlJapUZoFPrtxCcG9nOQgnctppLUfRJ9myFqtQk6MP4pLU9DYWtDY8_wxaEz1A_0SIHpiDDeKb3z0EiPXb3fb4aEPUehxKm-PCBREAaptnJSk0VbT-EVblV6ThLkNjFQWZGQeacaRJ9zYXNvL2Z3yZnJwEnMIOFVNJwMCTZOk9l8h_sPfo4KeNBrC6P9CgdVBpu4ew7wCbe2DZLz0cOg5Ll6-yLkqipBxQC70xV8Q7J1zeuUXZYp5MdMZkv4NwofEqIFrDIzqjITMwErf3j-3nQeyZeweq8vYwlo6ci6keBwNOjetfiGxtqlldiIMYghL1P80h4bAZw1Nd2dMGehfPU6C1aHgrHYYCdvmicp2o3lc6KXyhegVlq58TbikI9WEGtmvYSEzbpiJMW2B3UuO4c4M2JMAYsmYd9bIQgCTVFb8qZXhaLSBXvZF4dv_o0Ig8e5qbGlxJOAHnBNicZ9S6ITW-JhWvf92OMgBo1pcm71sonBofDFJ0PSn8AJC3T20gQRpXFC4ZArg8gppEG9lc8lKwGPrZWKWZ-Jn17O3KMvODR6Ogcy9ETDEGxULt-0rjYHz-wyPreWavM8O4_CMrdDwPn94WAgmPnsnmpjxOAaO1SgmjU78HTsO-HkreAoommyiJctkIvZ4UUIkmYQciwXHyVNhs- -N5iUVBc1u0Aw3_QPtxQaioV6xrLkovp_lSgzw-TydZpWNa3S-VDfCFn4_BLMdLF6pujnFt4E-gOqVSRi6lGyYVLIC8vt4q7FCriVPQAb90NzJKOqf_zzLMNW5DAV7_gZtly7]--></g></svg>