<svg xmlns="http://www.w3.org/2000/svg" xmlns:xlink="http://www.w3.org/1999/xlink" contentStyleType="text/css" height="1246px" preserveAspectRatio="none" style="width:2205px;height:1246px;background:#FFFFFF;" version="1.1" viewBox="0 0 2205 1246" width="2205px" zoomAndPan="magnify"><defs/><g><!--cluster use_cases--><g id="cluster_use_cases"><path d="M8.5,6 L466.5,6 A3.75,3.75 0 0 1 469,8.5 L476,28.2969 L2195.5,28.2969 A2.5,2.5 0 0 1 2198,30.7969 L2198,1236.7 A2.5,2.5 0 0 1 2195.5,1239.2 L8.5,1239.2 A2.5,2.5 0 0 1 6,1236.7 L6,8.5 A2.5,2.5 0 0 1 8.5,6 " fill="#FF9A99" style="stroke:#000000;stroke-width:1.5;"/><line style="stroke:#000000;stroke-width:1.5;" x1="6" x2="476" y1="28.2969" y2="28.2969"/><text fill="#000000" font-family="sans-serif" font-size="14" font-weight="bold" lengthAdjust="spacing" textLength="457" x="10" y="20.9951">de.company.prototype.sewer.drivers.adapters.use_cases</text></g><!--cluster entities--><g id="cluster_entities"><path d="M32.5,220.9 L92.5,220.9 A3.75,3.75 0 0 1 95,223.4 L102,243.1969 L1893.5,243.1969 A2.5,2.5 0 0 1 1896,245.6969 L1896,1100.11 A2.5,2.5 0 0 1 1893.5,1102.61 L32.5,1102.61 A2.5,2.5 0 0 1 30,1100.11 L30,223.4 A2.5,2.5 0 0 1 32.5,220.9 " fill="#FCFDB0" style="stroke:#000000;stroke-width:1.5;"/><line style="stroke:#000000;stroke-width:1.5;" x1="30" x2="102" y1="243.1969" y2="243.1969"/><text fill="#000000" font-family="sans-serif" font-size="14" font-weight="bold" lengthAdjust="spacing" textLength="59" x="34" y="235.8951">entities</text></g><!--cluster boundary--><g id="cluster_boundary"><path d="M56.5,263.9 L199.5,263.9 A3.75,3.75 0 0 1 202,266.4 L209,286.1969 L1223.5,286.1969 A2.5,2.5 0 0 1 1226,288.6969 L1226,855.77 A2.5,2.5 0 0 1 1223.5,858.27 L56.5,858.27 A2.5,2.5 0 0 1 54,855.77 L54,266.4 A2.5,2.5 0 0 1 56.5,263.9 " fill="#00FF00" style="stroke:#000000;stroke-width:1.5;"/><line style="stroke:#000000;stroke-width:1.5;" x1="54" x2="209" y1="286.1969" y2="286.1969"/><text fill="#000000" font-family="sans-serif" font-size="14" font-weight="bold" lengthAdjust="spacing" textLength="142" x="58" y="278.8951">indicate.boundary</text></g><!--cluster control--><g id="cluster_control"><path d="M80.5,404.49 L137.5,404.49 A3.75,3.75 0 0 1 140,406.99 L147,426.7869 L1199.5,426.7869 A2.5,2.5 0 0 1 1202,429.2869 L1202,831.77 A2.5,2.5 0 0 1 1199.5,834.27 L80.5,834.27 A2.5,2.5 0 0 1 78,831.77 L78,406.99 A2.5,2.5 0 0 1 80.5,404.49 " fill="#FFA500" style="stroke:#000000;stroke-width:1.5;"/><line style="stroke:#000000;stroke-width:1.5;" x1="78" x2="147" y1="426.7869" y2="426.7869"/><text fill="#000000" font-family="sans-serif" font-size="14" font-weight="bold" lengthAdjust="spacing" textLength="56" x="82" y="419.4851">control</text></g><!--cluster boundary--><g id="cluster_boundary"><path d="M1478.5,263.9 L1624.5,263.9 A3.75,3.75 0 0 1 1627,266.4 L1634,286.1969 L1869.5,286.1969 A2.5,2.5 0 0 1 1872,288.6969 L1872,582.03 A2.5,2.5 0 0 1 1869.5,584.53 L1478.5,584.53 A2.5,2.5 0 0 1 1476,582.03 L1476,266.4 A2.5,2.5 0 0 1 1478.5,263.9 " fill="#00FF00" style="stroke:#000000;stroke-width:1.5;"/><line style="stroke:#000000;stroke-width:1.5;" x1="1476" x2="1634" y1="286.1969" y2="286.1969"/><text fill="#000000" font-family="sans-serif" font-size="14" font-weight="bold" lengthAdjust="spacing" textLength="145" x="1480" y="278.8951">observe.boundary</text></g><!--cluster control--><g id="cluster_control"><path d="M1559.5,428.93 L1616.5,428.93 A3.75,3.75 0 0 1 1619,431.43 L1626,451.2269 L1826.5,451.2269 A2.5,2.5 0 0 1 1829,453.7269 L1829,558.03 A2.5,2.5 0 0 1 1826.5,560.53 L1559.5,560.53 A2.5,2.5 0 0 1 1557,558.03 L1557,431.43 A2.5,2.5 0 0 1 1559.5,428.93 " fill="#FFA500" style="stroke:#000000;stroke-width:1.5;"/><line style="stroke:#000000;stroke-width:1.5;" x1="1557" x2="1626" y1="451.2269" y2="451.2269"/><text fill="#000000" font-family="sans-serif" font-size="14" font-weight="bold" lengthAdjust="spacing" textLength="56" x="1561" y="443.9251">control</text></g><!--cluster sewer--><g id="cluster_sewer"><path d="M1252.5,608.53 L1303.5,608.53 A3.75,3.75 0 0 1 1306,611.03 L1313,630.8269 L1869.5,630.8269 A2.5,2.5 0 0 1 1872,633.3269 L1872,1076.11 A2.5,2.5 0 0 1 1869.5,1078.61 L1252.5,1078.61 A2.5,2.5 0 0 1 1250,1076.11 L1250,611.03 A2.5,2.5 0 0 1 1252.5,608.53 " fill="none" style="stroke:#000000;stroke-width:1.5;"/><line style="stroke:#000000;stroke-width:1.5;" x1="1250" x2="1313" y1="630.8269" y2="630.8269"/><text fill="#000000" font-family="sans-serif" font-size="14" font-weight="bold" lengthAdjust="spacing" textLength="50" x="1254" y="623.5251">sewer</text></g><!--cluster boundary--><g id="cluster_boundary"><path d="M1276.5,651.53 L1352.5,651.53 A3.75,3.75 0 0 1 1355,654.03 L1362,673.8269 L1841.5,673.8269 A2.5,2.5 0 0 1 1844,676.3269 L1844,880.22 A2.5,2.5 0 0 1 1841.5,882.72 L1276.5,882.72 A2.5,2.5 0 0 1 1274,880.22 L1274,654.03 A2.5,2.5 0 0 1 1276.5,651.53 " fill="#00FF00" style="stroke:#000000;stroke-width:1.5;"/><line style="stroke:#000000;stroke-width:1.5;" x1="1274" x2="1362" y1="673.8269" y2="673.8269"/><text fill="#000000" font-family="sans-serif" font-size="14" font-weight="bold" lengthAdjust="spacing" textLength="75" x="1278" y="666.5251">boundary</text></g><!--cluster entity--><g id="cluster_entity"><path d="M1300.5,694.53 L1407.5,694.53 A3.75,3.75 0 0 1 1410,697.03 L1417,716.8269 L1585.5,716.8269 A2.5,2.5 0 0 1 1588,719.3269 L1588,856.22 A2.5,2.5 0 0 1 1585.5,858.72 L1300.5,858.72 A2.5,2.5 0 0 1 1298,856.22 L1298,697.03 A2.5,2.5 0 0 1 1300.5,694.53 " fill="#FCFDB0" style="stroke:#000000;stroke-width:1.5;"/><line style="stroke:#000000;stroke-width:1.5;" x1="1298" x2="1417" y1="716.8269" y2="716.8269"/><text fill="#000000" font-family="sans-serif" font-size="14" font-weight="bold" lengthAdjust="spacing" textLength="106" x="1302" y="709.5251">control.entity</text></g><!--cluster entity--><g id="cluster_entity"><path d="M1276.5,906.72 L1491.5,906.72 A3.75,3.75 0 0 1 1494,909.22 L1501,929.0169 L1549.5,929.0169 A2.5,2.5 0 0 1 1552,931.5169 L1552,1052.11 A2.5,2.5 0 0 1 1549.5,1054.61 L1276.5,1054.61 A2.5,2.5 0 0 1 1274,1052.11 L1274,909.22 A2.5,2.5 0 0 1 1276.5,906.72 " fill="#FCFDB0" style="stroke:#000000;stroke-width:1.5;"/><line style="stroke:#000000;stroke-width:1.5;" x1="1274" x2="1501" y1="929.0169" y2="929.0169"/><text fill="#000000" font-family="sans-serif" font-size="14" font-weight="bold" lengthAdjust="spacing" textLength="214" x="1278" y="921.7151">kpi.boundary.control.entity</text></g><!--cluster entity--><g id="cluster_entity"><path d="M1578.5,914.86 L1835.5,914.86 A3.75,3.75 0 0 1 1838,917.36 L1845,937.1569 L1845.5,937.1569 A2.5,2.5 0 0 1 1848,939.6569 L1848,1043.96 A2.5,2.5 0 0 1 1845.5,1046.46 L1578.5,1046.46 A2.5,2.5 0 0 1 1576,1043.96 L1576,917.36 A2.5,2.5 0 0 1 1578.5,914.86 " fill="#FCFDB0" style="stroke:#000000;stroke-width:1.5;"/><line style="stroke:#000000;stroke-width:1.5;" x1="1576" x2="1845" y1="937.1569" y2="937.1569"/><text fill="#000000" font-family="sans-serif" font-size="14" font-weight="bold" lengthAdjust="spacing" textLength="256" x="1580" y="929.8551">problem.boundary.control.entity</text></g><!--cluster boundary--><g id="cluster_boundary"><path d="M591.5,49 L734.5,49 A3.75,3.75 0 0 1 737,51.5 L744,71.2969 L1034.5,71.2969 A2.5,2.5 0 0 1 1037,73.7969 L1037,194.4 A2.5,2.5 0 0 1 1034.5,196.9 L591.5,196.9 A2.5,2.5 0 0 1 589,194.4 L589,51.5 A2.5,2.5 0 0 1 591.5,49 " fill="#00FF00" style="stroke:#000000;stroke-width:1.5;"/><line style="stroke:#000000;stroke-width:1.5;" x1="589" x2="744" y1="71.2969" y2="71.2969"/><text fill="#000000" font-family="sans-serif" font-size="14" font-weight="bold" lengthAdjust="spacing" textLength="142" x="593" y="63.9951">indicate.boundary</text></g><!--cluster boundary--><g id="cluster_boundary"><path d="M1495.5,57.15 L1641.5,57.15 A3.75,3.75 0 0 1 1644,59.65 L1651,79.4469 L1852.5,79.4469 A2.5,2.5 0 0 1 1855,81.9469 L1855,186.25 A2.5,2.5 0 0 1 1852.5,188.75 L1495.5,188.75 A2.5,2.5 0 0 1 1493,186.25 L1493,59.65 A2.5,2.5 0 0 1 1495.5,57.15 " fill="#00FF00" style="stroke:#000000;stroke-width:1.5;"/><line style="stroke:#000000;stroke-width:1.5;" x1="1493" x2="1651" y1="79.4469" y2="79.4469"/><text fill="#000000" font-family="sans-serif" font-size="14" font-weight="bold" lengthAdjust="spacing" textLength="145" x="1497" y="72.1451">observe.boundary</text></g><!--cluster boundary--><g id="cluster_boundary"><path d="M1922.5,906.72 L2062.5,906.72 A3.75,3.75 0 0 1 2065,909.22 L2072,929.0169 L2171.5,929.0169 A2.5,2.5 0 0 1 2174,931.5169 L2174,1212.7 A2.5,2.5 0 0 1 2171.5,1215.2 L1922.5,1215.2 A2.5,2.5 0 0 1 1920,1212.7 L1920,909.22 A2.5,2.5 0 0 1 1922.5,906.72 " fill="#00FF00" style="stroke:#000000;stroke-width:1.5;"/><line style="stroke:#000000;stroke-width:1.5;" x1="1920" x2="2072" y1="929.0169" y2="929.0169"/><text fill="#000000" font-family="sans-serif" font-size="14" font-weight="bold" lengthAdjust="spacing" textLength="139" x="1924" y="921.7151">sewers.boundary</text></g><!--class SewerOverflowIndicationService--><g id="elem_SewerOverflowIndicationService"><rect codeLine="25" fill="#F1F1F1" height="80.5938" id="SewerOverflowIndicationService" rx="2.5" ry="2.5" style="stroke:#181818;stroke-width:0.5;" width="447" x="589.5" y="298.9"/><ellipse cx="699.75" cy="314.9" fill="#ADD1B2" rx="11" ry="11" style="stroke:#181818;stroke-width:1.0;"/><path d="M702.7188,320.5406 Q702.1406,320.8375 701.5,320.9781 Q700.8594,321.1344 700.1563,321.1344 Q697.6563,321.1344 696.3281,319.4938 Q695.0156,317.8375 695.0156,314.7125 Q695.0156,311.5875 696.3281,309.9313 Q697.6563,308.275 700.1563,308.275 Q700.8594,308.275 701.5,308.4313 Q702.1563,308.5875 702.7188,308.8844 L702.7188,311.6031 Q702.0938,311.025 701.5,310.7594 Q700.9063,310.4781 700.2813,310.4781 Q698.9375,310.4781 698.25,311.5563 Q697.5625,312.6188 697.5625,314.7125 Q697.5625,316.8063 698.25,317.8844 Q698.9375,318.9469 700.2813,318.9469 Q700.9063,318.9469 701.5,318.6813 Q702.0938,318.4 702.7188,317.8219 L702.7188,320.5406 Z " fill="#000000"/><text fill="#000000" font-family="sans-serif" font-size="14" lengthAdjust="spacing" textLength="218" x="720.25" y="319.7467">SewerOverflowIndicationService</text><line style="stroke:#181818;stroke-width:0.5;" x1="590.5" x2="1035.5" y1="330.9" y2="330.9"/><rect fill="none" height="6" style="stroke:#C82930;stroke-width:1.0;" width="6" x="597.5" y="341.5484"/><text fill="#000000" font-family="sans-serif" font-size="14" lengthAdjust="spacing" textLength="421" x="609.5" y="347.8951">SewerOverflowIndicationComponent sewerOverflowIndication</text><line style="stroke:#181818;stroke-width:0.5;" x1="590.5" x2="1035.5" y1="355.1969" y2="355.1969"/><ellipse cx="600.5" cy="368.8453" fill="#84BE84" rx="3" ry="3" style="stroke:#038048;stroke-width:1.0;"/><text fill="#000000" font-family="sans-serif" font-size="14" lengthAdjust="spacing" textLength="221" x="609.5" y="372.192">void serve(Map&lt;String, String&gt;)</text></g><!--class FlowIndicationComponent--><g id="elem_FlowIndicationComponent"><rect codeLine="30" fill="#F1F1F1" height="64.2969" id="FlowIndicationComponent" rx="2.5" ry="2.5" style="stroke:#181818;stroke-width:0.5;" width="341" x="93.5" y="753.97"/><ellipse cx="170.25" cy="769.97" fill="#ADD1B2" rx="11" ry="11" style="stroke:#181818;stroke-width:1.0;"/><path d="M173.2188,775.6106 Q172.6406,775.9075 172,776.0481 Q171.3594,776.2044 170.6563,776.2044 Q168.1563,776.2044 166.8281,774.5638 Q165.5156,772.9075 165.5156,769.7825 Q165.5156,766.6575 166.8281,765.0013 Q168.1563,763.345 170.6563,763.345 Q171.3594,763.345 172,763.5013 Q172.6563,763.6575 173.2188,763.9544 L173.2188,766.6731 Q172.5938,766.095 172,765.8294 Q171.4063,765.5481 170.7813,765.5481 Q169.4375,765.5481 168.75,766.6263 Q168.0625,767.6888 168.0625,769.7825 Q168.0625,771.8763 168.75,772.9544 Q169.4375,774.0169 170.7813,774.0169 Q171.4063,774.0169 172,773.7513 Q172.5938,773.47 173.2188,772.8919 L173.2188,775.6106 Z " fill="#000000"/><text fill="#000000" font-family="sans-serif" font-size="14" lengthAdjust="spacing" textLength="179" x="190.75" y="774.8167">FlowIndicationComponent</text><line style="stroke:#181818;stroke-width:0.5;" x1="94.5" x2="433.5" y1="785.97" y2="785.97"/><line style="stroke:#181818;stroke-width:0.5;" x1="94.5" x2="433.5" y1="793.97" y2="793.97"/><ellipse cx="104.5" cy="807.6184" fill="#84BE84" rx="3" ry="3" style="stroke:#038048;stroke-width:1.0;"/><text fill="#000000" font-family="sans-serif" font-size="14" lengthAdjust="spacing" textLength="315" x="113.5" y="810.9651">void execute(Map&lt;String, ? extends Object&gt;)</text></g><!--class PumpIndicationComponent--><g id="elem_PumpIndicationComponent"><rect codeLine="33" fill="#F1F1F1" height="64.2969" id="PumpIndicationComponent" rx="2.5" ry="2.5" style="stroke:#181818;stroke-width:0.5;" width="341" x="469.5" y="753.97"/><ellipse cx="541.75" cy="769.97" fill="#ADD1B2" rx="11" ry="11" style="stroke:#181818;stroke-width:1.0;"/><path d="M544.7188,775.6106 Q544.1406,775.9075 543.5,776.0481 Q542.8594,776.2044 542.1563,776.2044 Q539.6563,776.2044 538.3281,774.5638 Q537.0156,772.9075 537.0156,769.7825 Q537.0156,766.6575 538.3281,765.0013 Q539.6563,763.345 542.1563,763.345 Q542.8594,763.345 543.5,763.5013 Q544.1563,763.6575 544.7188,763.9544 L544.7188,766.6731 Q544.0938,766.095 543.5,765.8294 Q542.9063,765.5481 542.2813,765.5481 Q540.9375,765.5481 540.25,766.6263 Q539.5625,767.6888 539.5625,769.7825 Q539.5625,771.8763 540.25,772.9544 Q540.9375,774.0169 542.2813,774.0169 Q542.9063,774.0169 543.5,773.7513 Q544.0938,773.47 544.7188,772.8919 L544.7188,775.6106 Z " fill="#000000"/><text fill="#000000" font-family="sans-serif" font-size="14" lengthAdjust="spacing" textLength="188" x="562.25" y="774.8167">PumpIndicationComponent</text><line style="stroke:#181818;stroke-width:0.5;" x1="470.5" x2="809.5" y1="785.97" y2="785.97"/><line style="stroke:#181818;stroke-width:0.5;" x1="470.5" x2="809.5" y1="793.97" y2="793.97"/><ellipse cx="480.5" cy="807.6184" fill="#84BE84" rx="3" ry="3" style="stroke:#038048;stroke-width:1.0;"/><text fill="#000000" font-family="sans-serif" font-size="14" lengthAdjust="spacing" textLength="315" x="489.5" y="810.9651">void execute(Map&lt;String, ? extends Object&gt;)</text></g><!--class RainIndicationComponent--><g id="elem_RainIndicationComponent"><rect codeLine="36" fill="#F1F1F1" height="64.2969" id="RainIndicationComponent" rx="2.5" ry="2.5" style="stroke:#181818;stroke-width:0.5;" width="341" x="845.5" y="753.97"/><ellipse cx="922.75" cy="769.97" fill="#ADD1B2" rx="11" ry="11" style="stroke:#181818;stroke-width:1.0;"/><path d="M925.7188,775.6106 Q925.1406,775.9075 924.5,776.0481 Q923.8594,776.2044 923.1563,776.2044 Q920.6563,776.2044 919.3281,774.5638 Q918.0156,772.9075 918.0156,769.7825 Q918.0156,766.6575 919.3281,765.0013 Q920.6563,763.345 923.1563,763.345 Q923.8594,763.345 924.5,763.5013 Q925.1563,763.6575 925.7188,763.9544 L925.7188,766.6731 Q925.0938,766.095 924.5,765.8294 Q923.9063,765.5481 923.2813,765.5481 Q921.9375,765.5481 921.25,766.6263 Q920.5625,767.6888 920.5625,769.7825 Q920.5625,771.8763 921.25,772.9544 Q921.9375,774.0169 923.2813,774.0169 Q923.9063,774.0169 924.5,773.7513 Q925.0938,773.47 925.7188,772.8919 L925.7188,775.6106 Z " fill="#000000"/><text fill="#000000" font-family="sans-serif" font-size="14" lengthAdjust="spacing" textLength="178" x="943.25" y="774.8167">RainIndicationComponent</text><line style="stroke:#181818;stroke-width:0.5;" x1="846.5" x2="1185.5" y1="785.97" y2="785.97"/><line style="stroke:#181818;stroke-width:0.5;" x1="846.5" x2="1185.5" y1="793.97" y2="793.97"/><ellipse cx="856.5" cy="807.6184" fill="#84BE84" rx="3" ry="3" style="stroke:#038048;stroke-width:1.0;"/><text fill="#000000" font-family="sans-serif" font-size="14" lengthAdjust="spacing" textLength="315" x="865.5" y="810.9651">void execute(Map&lt;String, ? extends Object&gt;)</text></g><!--class SewerOverflowIndicationComponent--><g id="elem_SewerOverflowIndicationComponent"><rect codeLine="39" fill="#F1F1F1" height="129.4844" id="SewerOverflowIndicationComponent" rx="2.5" ry="2.5" style="stroke:#181818;stroke-width:0.5;" width="341" x="642.5" y="439.49"/><ellipse cx="684.05" cy="455.49" fill="#ADD1B2" rx="11" ry="11" style="stroke:#181818;stroke-width:1.0;"/><path d="M687.0188,461.1306 Q686.4406,461.4275 685.8,461.5681 Q685.1594,461.7244 684.4563,461.7244 Q681.9563,461.7244 680.6281,460.0838 Q679.3156,458.4275 679.3156,455.3025 Q679.3156,452.1775 680.6281,450.5213 Q681.9563,448.865 684.4563,448.865 Q685.1594,448.865 685.8,449.0213 Q686.4563,449.1775 687.0188,449.4744 L687.0188,452.1931 Q686.3938,451.615 685.8,451.3494 Q685.2063,451.0681 684.5813,451.0681 Q683.2375,451.0681 682.55,452.1463 Q681.8625,453.2088 681.8625,455.3025 Q681.8625,457.3963 682.55,458.4744 Q683.2375,459.5369 684.5813,459.5369 Q685.2063,459.5369 685.8,459.2713 Q686.3938,458.99 687.0188,458.4119 L687.0188,461.1306 Z " fill="#000000"/><text fill="#000000" font-family="sans-serif" font-size="14" lengthAdjust="spacing" textLength="250" x="703.95" y="460.3367">SewerOverflowIndicationComponent</text><line style="stroke:#181818;stroke-width:0.5;" x1="643.5" x2="982.5" y1="471.49" y2="471.49"/><rect fill="none" height="6" style="stroke:#C82930;stroke-width:1.0;" width="6" x="650.5" y="482.1384"/><text fill="#000000" font-family="sans-serif" font-size="14" lengthAdjust="spacing" textLength="105" x="662.5" y="488.4851">Sewers sewers</text><rect fill="none" height="6" style="stroke:#C82930;stroke-width:1.0;" width="6" x="650.5" y="498.4353"/><text fill="#000000" font-family="sans-serif" font-size="14" lengthAdjust="spacing" textLength="273" x="662.5" y="504.782">RainIndicationComponent rainIndication</text><rect fill="none" height="6" style="stroke:#C82930;stroke-width:1.0;" width="6" x="650.5" y="514.7322"/><text fill="#000000" font-family="sans-serif" font-size="14" lengthAdjust="spacing" textLength="276" x="662.5" y="521.0789">FlowIndicationComponent flowIndication</text><rect fill="none" height="6" style="stroke:#C82930;stroke-width:1.0;" width="6" x="650.5" y="531.0291"/><text fill="#000000" font-family="sans-serif" font-size="14" lengthAdjust="spacing" textLength="298" x="662.5" y="537.3757">PumpIndicationComponent pumpIndication</text><line style="stroke:#181818;stroke-width:0.5;" x1="643.5" x2="982.5" y1="544.6775" y2="544.6775"/><ellipse cx="653.5" cy="558.3259" fill="#84BE84" rx="3" ry="3" style="stroke:#038048;stroke-width:1.0;"/><text fill="#000000" font-family="sans-serif" font-size="14" lengthAdjust="spacing" textLength="315" x="662.5" y="561.6726">void execute(Map&lt;String, ? extends Object&gt;)</text></g><!--class SewerObservationService--><g id="elem_SewerObservationService"><rect codeLine="47" fill="#F1F1F1" height="80.5938" id="SewerObservationService" rx="2.5" ry="2.5" style="stroke:#181818;stroke-width:0.5;" width="363" x="1492.5" y="298.9"/><ellipse cx="1581.75" cy="314.9" fill="#ADD1B2" rx="11" ry="11" style="stroke:#181818;stroke-width:1.0;"/><path d="M1584.7188,320.5406 Q1584.1406,320.8375 1583.5,320.9781 Q1582.8594,321.1344 1582.1563,321.1344 Q1579.6563,321.1344 1578.3281,319.4938 Q1577.0156,317.8375 1577.0156,314.7125 Q1577.0156,311.5875 1578.3281,309.9313 Q1579.6563,308.275 1582.1563,308.275 Q1582.8594,308.275 1583.5,308.4313 Q1584.1563,308.5875 1584.7188,308.8844 L1584.7188,311.6031 Q1584.0938,311.025 1583.5,310.7594 Q1582.9063,310.4781 1582.2813,310.4781 Q1580.9375,310.4781 1580.25,311.5563 Q1579.5625,312.6188 1579.5625,314.7125 Q1579.5625,316.8063 1580.25,317.8844 Q1580.9375,318.9469 1582.2813,318.9469 Q1582.9063,318.9469 1583.5,318.6813 Q1584.0938,318.4 1584.7188,317.8219 L1584.7188,320.5406 Z " fill="#000000"/><text fill="#000000" font-family="sans-serif" font-size="14" lengthAdjust="spacing" textLength="176" x="1602.25" y="319.7467">SewerObservationService</text><line style="stroke:#181818;stroke-width:0.5;" x1="1493.5" x2="1854.5" y1="330.9" y2="330.9"/><rect fill="none" height="6" style="stroke:#C82930;stroke-width:1.0;" width="6" x="1500.5" y="341.5484"/><text fill="#000000" font-family="sans-serif" font-size="14" lengthAdjust="spacing" textLength="337" x="1512.5" y="347.8951">SewerObservationComponent sewerObservation</text><line style="stroke:#181818;stroke-width:0.5;" x1="1493.5" x2="1854.5" y1="355.1969" y2="355.1969"/><ellipse cx="1503.5" cy="368.8453" fill="#84BE84" rx="3" ry="3" style="stroke:#038048;stroke-width:1.0;"/><text fill="#000000" font-family="sans-serif" font-size="14" lengthAdjust="spacing" textLength="182" x="1512.5" y="372.192">Set&lt;Sewer&gt; serve(String)</text></g><!--class SewerObservationComponent--><g id="elem_SewerObservationComponent"><rect codeLine="52" fill="#F1F1F1" height="80.5938" id="SewerObservationComponent" rx="2.5" ry="2.5" style="stroke:#181818;stroke-width:0.5;" width="240" x="1573" y="463.93"/><ellipse cx="1588" cy="479.93" fill="#ADD1B2" rx="11" ry="11" style="stroke:#181818;stroke-width:1.0;"/><path d="M1590.9688,485.5706 Q1590.3906,485.8675 1589.75,486.0081 Q1589.1094,486.1644 1588.4063,486.1644 Q1585.9063,486.1644 1584.5781,484.5238 Q1583.2656,482.8675 1583.2656,479.7425 Q1583.2656,476.6175 1584.5781,474.9613 Q1585.9063,473.305 1588.4063,473.305 Q1589.1094,473.305 1589.75,473.4613 Q1590.4063,473.6175 1590.9688,473.9144 L1590.9688,476.6331 Q1590.3438,476.055 1589.75,475.7894 Q1589.1563,475.5081 1588.5313,475.5081 Q1587.1875,475.5081 1586.5,476.5863 Q1585.8125,477.6488 1585.8125,479.7425 Q1585.8125,481.8363 1586.5,482.9144 Q1587.1875,483.9769 1588.5313,483.9769 Q1589.1563,483.9769 1589.75,483.7113 Q1590.3438,483.43 1590.9688,482.8519 L1590.9688,485.5706 Z " fill="#000000"/><text fill="#000000" font-family="sans-serif" font-size="14" lengthAdjust="spacing" textLength="208" x="1602" y="484.7767">SewerObservationComponent</text><line style="stroke:#181818;stroke-width:0.5;" x1="1574" x2="1812" y1="495.93" y2="495.93"/><rect fill="none" height="6" style="stroke:#C82930;stroke-width:1.0;" width="6" x="1581" y="506.5784"/><text fill="#000000" font-family="sans-serif" font-size="14" lengthAdjust="spacing" textLength="105" x="1593" y="512.9251">Sewers sewers</text><line style="stroke:#181818;stroke-width:0.5;" x1="1574" x2="1812" y1="520.2269" y2="520.2269"/><ellipse cx="1584" cy="533.8753" fill="#84BE84" rx="3" ry="3" style="stroke:#038048;stroke-width:1.0;"/><text fill="#000000" font-family="sans-serif" font-size="14" lengthAdjust="spacing" textLength="200" x="1593" y="537.222">Set&lt;Sewer&gt; execute(String)</text></g><!--class Sewers--><g id="elem_Sewers"><rect codeLine="57" fill="#F1F1F1" height="80.5938" id="Sewers" rx="2.5" ry="2.5" style="stroke:#181818;stroke-width:0.5;" width="220" x="1608" y="745.82"/><ellipse cx="1688.25" cy="761.82" fill="#B4A7E5" rx="11" ry="11" style="stroke:#181818;stroke-width:1.0;"/><path d="M1684.1719,757.5856 L1684.1719,755.4294 L1691.5625,755.4294 L1691.5625,757.5856 L1689.0938,757.5856 L1689.0938,765.6638 L1691.5625,765.6638 L1691.5625,767.82 L1684.1719,767.82 L1684.1719,765.6638 L1686.6406,765.6638 L1686.6406,757.5856 L1684.1719,757.5856 Z " fill="#000000"/><text fill="#000000" font-family="sans-serif" font-size="14" font-style="italic" lengthAdjust="spacing" textLength="51" x="1708.75" y="766.6667">Sewers</text><line style="stroke:#181818;stroke-width:0.5;" x1="1609" x2="1827" y1="777.82" y2="777.82"/><line style="stroke:#181818;stroke-width:0.5;" x1="1609" x2="1827" y1="785.82" y2="785.82"/><ellipse cx="1619" cy="799.4684" fill="#84BE84" rx="3" ry="3" style="stroke:#038048;stroke-width:1.0;"/><text fill="#000000" font-family="sans-serif" font-size="14" font-style="italic" lengthAdjust="spacing" textLength="194" x="1628" y="802.8151">Set&lt;Sewer&gt; observe(UUID)</text><ellipse cx="1619" cy="815.7653" fill="#84BE84" rx="3" ry="3" style="stroke:#038048;stroke-width:1.0;"/><text fill="#000000" font-family="sans-serif" font-size="14" font-style="italic" lengthAdjust="spacing" textLength="139" x="1628" y="819.112">void indicate(Sewer)</text></g><!--class Sewer--><g id="elem_Sewer"><rect codeLine="61" fill="#F1F1F1" height="113.1875" id="Sewer" rx="2.5" ry="2.5" style="stroke:#181818;stroke-width:0.5;" width="259" x="1313.5" y="729.53"/><ellipse cx="1417.25" cy="745.53" fill="#ADD1B2" rx="11" ry="11" style="stroke:#181818;stroke-width:1.0;"/><path d="M1420.2188,751.1706 Q1419.6406,751.4675 1419,751.6081 Q1418.3594,751.7644 1417.6563,751.7644 Q1415.1563,751.7644 1413.8281,750.1238 Q1412.5156,748.4675 1412.5156,745.3425 Q1412.5156,742.2175 1413.8281,740.5613 Q1415.1563,738.905 1417.6563,738.905 Q1418.3594,738.905 1419,739.0613 Q1419.6563,739.2175 1420.2188,739.5144 L1420.2188,742.2331 Q1419.5938,741.655 1419,741.3894 Q1418.4063,741.1081 1417.7813,741.1081 Q1416.4375,741.1081 1415.75,742.1863 Q1415.0625,743.2488 1415.0625,745.3425 Q1415.0625,747.4363 1415.75,748.5144 Q1416.4375,749.5769 1417.7813,749.5769 Q1418.4063,749.5769 1419,749.3113 Q1419.5938,749.03 1420.2188,748.4519 L1420.2188,751.1706 Z " fill="#000000"/><text fill="#000000" font-family="sans-serif" font-size="14" lengthAdjust="spacing" textLength="43" x="1437.75" y="750.3767">Sewer</text><line style="stroke:#181818;stroke-width:0.5;" x1="1314.5" x2="1571.5" y1="761.53" y2="761.53"/><rect fill="none" height="6" style="stroke:#C82930;stroke-width:1.0;" width="6" x="1321.5" y="772.1784"/><text fill="#000000" font-family="sans-serif" font-size="14" lengthAdjust="spacing" textLength="50" x="1333.5" y="778.5251">UUID id</text><rect fill="none" height="6" style="stroke:#C82930;stroke-width:1.0;" width="6" x="1321.5" y="788.4753"/><text fill="#000000" font-family="sans-serif" font-size="14" lengthAdjust="spacing" textLength="196" x="1333.5" y="794.822">KeyPerformanceIndicator kpi</text><rect fill="none" height="6" style="stroke:#C82930;stroke-width:1.0;" width="6" x="1321.5" y="804.7722"/><text fill="#000000" font-family="sans-serif" font-size="14" lengthAdjust="spacing" textLength="173" x="1333.5" y="811.1189">Set&lt;Problem&gt; problems</text><line style="stroke:#181818;stroke-width:0.5;" x1="1314.5" x2="1571.5" y1="818.4206" y2="818.4206"/><ellipse cx="1324.5" cy="832.0691" fill="#84BE84" rx="3" ry="3" style="stroke:#038048;stroke-width:1.0;"/><text fill="#000000" font-family="sans-serif" font-size="14" lengthAdjust="spacing" textLength="233" x="1333.5" y="835.4157">void setProblems(Set&lt;Problem&gt;)</text></g><!--class KeyPerformanceIndicator--><g id="elem_KeyPerformanceIndicator"><rect codeLine="68" fill="#F1F1F1" height="96.8906" id="KeyPerformanceIndicator" rx="2.5" ry="2.5" style="stroke:#181818;stroke-width:0.5;" width="246" x="1290" y="941.72"/><ellipse cx="1323.9" cy="957.72" fill="#ADD1B2" rx="11" ry="11" style="stroke:#181818;stroke-width:1.0;"/><path d="M1326.8688,963.3606 Q1326.2906,963.6575 1325.65,963.7981 Q1325.0094,963.9544 1324.3063,963.9544 Q1321.8063,963.9544 1320.4781,962.3138 Q1319.1656,960.6575 1319.1656,957.5325 Q1319.1656,954.4075 1320.4781,952.7513 Q1321.8063,951.095 1324.3063,951.095 Q1325.0094,951.095 1325.65,951.2513 Q1326.3063,951.4075 1326.8688,951.7044 L1326.8688,954.4231 Q1326.2438,953.845 1325.65,953.5794 Q1325.0563,953.2981 1324.4313,953.2981 Q1323.0875,953.2981 1322.4,954.3763 Q1321.7125,955.4388 1321.7125,957.5325 Q1321.7125,959.6263 1322.4,960.7044 Q1323.0875,961.7669 1324.4313,961.7669 Q1325.0563,961.7669 1325.65,961.5013 Q1326.2438,961.22 1326.8688,960.6419 L1326.8688,963.3606 Z " fill="#000000"/><text fill="#000000" font-family="sans-serif" font-size="14" lengthAdjust="spacing" textLength="172" x="1342.1" y="962.5667">KeyPerformanceIndicator</text><line style="stroke:#181818;stroke-width:0.5;" x1="1291" x2="1535" y1="973.72" y2="973.72"/><rect fill="none" height="6" style="stroke:#C82930;stroke-width:1.0;" width="6" x="1298" y="984.3684"/><text fill="#000000" font-family="sans-serif" font-size="14" lengthAdjust="spacing" textLength="220" x="1310" y="990.7151">String pumpPowerConsumption</text><rect fill="none" height="6" style="stroke:#C82930;stroke-width:1.0;" width="6" x="1298" y="1000.6653"/><text fill="#000000" font-family="sans-serif" font-size="14" lengthAdjust="spacing" textLength="71" x="1310" y="1007.012">String flow</text><rect fill="none" height="6" style="stroke:#C82930;stroke-width:1.0;" width="6" x="1298" y="1016.9622"/><text fill="#000000" font-family="sans-serif" font-size="14" lengthAdjust="spacing" textLength="102" x="1310" y="1023.3089">Number rainfall</text><line style="stroke:#181818;stroke-width:0.5;" x1="1291" x2="1535" y1="1030.6106" y2="1030.6106"/></g><!--class Problem--><g id="elem_Problem"><rect codeLine="73" fill="#F1F1F1" height="80.5938" id="Problem" rx="2.5" ry="2.5" style="stroke:#181818;stroke-width:0.5;" width="208" x="1592" y="949.86"/><ellipse cx="1663.25" cy="965.86" fill="#ADD1B2" rx="11" ry="11" style="stroke:#181818;stroke-width:1.0;"/><path d="M1666.2188,971.5006 Q1665.6406,971.7975 1665,971.9381 Q1664.3594,972.0944 1663.6563,972.0944 Q1661.1563,972.0944 1659.8281,970.4538 Q1658.5156,968.7975 1658.5156,965.6725 Q1658.5156,962.5475 1659.8281,960.8913 Q1661.1563,959.235 1663.6563,959.235 Q1664.3594,959.235 1665,959.3913 Q1665.6563,959.5475 1666.2188,959.8444 L1666.2188,962.5631 Q1665.5938,961.985 1665,961.7194 Q1664.4063,961.4381 1663.7813,961.4381 Q1662.4375,961.4381 1661.75,962.5163 Q1661.0625,963.5788 1661.0625,965.6725 Q1661.0625,967.7663 1661.75,968.8444 Q1662.4375,969.9069 1663.7813,969.9069 Q1664.4063,969.9069 1665,969.6413 Q1665.5938,969.36 1666.2188,968.7819 L1666.2188,971.5006 Z " fill="#000000"/><text fill="#000000" font-family="sans-serif" font-size="14" lengthAdjust="spacing" textLength="57" x="1683.75" y="970.7067">Problem</text><line style="stroke:#181818;stroke-width:0.5;" x1="1593" x2="1799" y1="981.86" y2="981.86"/><rect fill="none" height="6" style="stroke:#C82930;stroke-width:1.0;" width="6" x="1600" y="992.5084"/><text fill="#000000" font-family="sans-serif" font-size="14" lengthAdjust="spacing" textLength="92" x="1612" y="998.8551">String reason</text><rect fill="none" height="6" style="stroke:#C82930;stroke-width:1.0;" width="6" x="1600" y="1008.8053"/><text fill="#000000" font-family="sans-serif" font-size="14" lengthAdjust="spacing" textLength="182" x="1612" y="1015.152">Number overflowIndication</text><line style="stroke:#181818;stroke-width:0.5;" x1="1593" x2="1799" y1="1022.4538" y2="1022.4538"/></g><!--class SewerIndicationUseCase--><g id="elem_SewerIndicationUseCase"><rect codeLine="77" fill="#F1F1F1" height="96.8906" id="SewerIndicationUseCase" rx="2.5" ry="2.5" style="stroke:#181818;stroke-width:0.5;" width="415" x="605.5" y="84"/><ellipse cx="723.25" cy="100" fill="#ADD1B2" rx="11" ry="11" style="stroke:#181818;stroke-width:1.0;"/><path d="M726.2188,105.6406 Q725.6406,105.9375 725,106.0781 Q724.3594,106.2344 723.6563,106.2344 Q721.1563,106.2344 719.8281,104.5938 Q718.5156,102.9375 718.5156,99.8125 Q718.5156,96.6875 719.8281,95.0313 Q721.1563,93.375 723.6563,93.375 Q724.3594,93.375 725,93.5313 Q725.6563,93.6875 726.2188,93.9844 L726.2188,96.7031 Q725.5938,96.125 725,95.8594 Q724.4063,95.5781 723.7813,95.5781 Q722.4375,95.5781 721.75,96.6563 Q721.0625,97.7188 721.0625,99.8125 Q721.0625,101.9063 721.75,102.9844 Q722.4375,104.0469 723.7813,104.0469 Q724.4063,104.0469 725,103.7813 Q725.5938,103.5 726.2188,102.9219 L726.2188,105.6406 Z " fill="#000000"/><text fill="#000000" font-family="sans-serif" font-size="14" lengthAdjust="spacing" textLength="171" x="743.75" y="104.8467">SewerIndicationUseCase</text><line style="stroke:#181818;stroke-width:0.5;" x1="606.5" x2="1019.5" y1="116" y2="116"/><rect fill="none" height="6" style="stroke:#C82930;stroke-width:1.0;" width="6" x="613.5" y="126.6484"/><text fill="#000000" font-family="sans-serif" font-size="14" lengthAdjust="spacing" textLength="389" x="625.5" y="132.9951">SewerOverflowIndicationService sewerOverflowIndication</text><rect fill="none" height="6" style="stroke:#C82930;stroke-width:1.0;" width="6" x="613.5" y="142.9453"/><text fill="#000000" font-family="sans-serif" font-size="14" lengthAdjust="spacing" textLength="196" x="625.5" y="149.292">ObjectMapper objectMapper</text><line style="stroke:#181818;stroke-width:0.5;" x1="606.5" x2="1019.5" y1="156.5938" y2="156.5938"/><ellipse cx="616.5" cy="170.2422" fill="#84BE84" rx="3" ry="3" style="stroke:#038048;stroke-width:1.0;"/><text fill="#000000" font-family="sans-serif" font-size="14" lengthAdjust="spacing" textLength="120" x="625.5" y="173.5889">void serve(String)</text></g><!--class SewerObservationUseCase--><g id="elem_SewerObservationUseCase"><rect codeLine="83" fill="#F1F1F1" height="80.5938" id="SewerObservationUseCase" rx="2.5" ry="2.5" style="stroke:#181818;stroke-width:0.5;" width="331" x="1508.5" y="92.15"/><ellipse cx="1575.75" cy="108.15" fill="#ADD1B2" rx="11" ry="11" style="stroke:#181818;stroke-width:1.0;"/><path d="M1578.7188,113.7906 Q1578.1406,114.0875 1577.5,114.2281 Q1576.8594,114.3844 1576.1563,114.3844 Q1573.6563,114.3844 1572.3281,112.7438 Q1571.0156,111.0875 1571.0156,107.9625 Q1571.0156,104.8375 1572.3281,103.1813 Q1573.6563,101.525 1576.1563,101.525 Q1576.8594,101.525 1577.5,101.6813 Q1578.1563,101.8375 1578.7188,102.1344 L1578.7188,104.8531 Q1578.0938,104.275 1577.5,104.0094 Q1576.9063,103.7281 1576.2813,103.7281 Q1574.9375,103.7281 1574.25,104.8063 Q1573.5625,105.8688 1573.5625,107.9625 Q1573.5625,110.0563 1574.25,111.1344 Q1574.9375,112.1969 1576.2813,112.1969 Q1576.9063,112.1969 1577.5,111.9313 Q1578.0938,111.65 1578.7188,111.0719 L1578.7188,113.7906 Z " fill="#000000"/><text fill="#000000" font-family="sans-serif" font-size="14" lengthAdjust="spacing" textLength="188" x="1596.25" y="112.9967">SewerObservationUseCase</text><line style="stroke:#181818;stroke-width:0.5;" x1="1509.5" x2="1838.5" y1="124.15" y2="124.15"/><rect fill="none" height="6" style="stroke:#C82930;stroke-width:1.0;" width="6" x="1516.5" y="134.7984"/><text fill="#000000" font-family="sans-serif" font-size="14" lengthAdjust="spacing" textLength="305" x="1528.5" y="141.1451">SewerObservationService sewerObservation</text><line style="stroke:#181818;stroke-width:0.5;" x1="1509.5" x2="1838.5" y1="148.4469" y2="148.4469"/><ellipse cx="1519.5" cy="162.0953" fill="#84BE84" rx="3" ry="3" style="stroke:#038048;stroke-width:1.0;"/><text fill="#000000" font-family="sans-serif" font-size="14" lengthAdjust="spacing" textLength="182" x="1528.5" y="165.442">Set&lt;Sewer&gt; serve(String)</text></g><!--class SewersUseCase--><g id="elem_SewersUseCase"><rect codeLine="88" fill="#F1F1F1" height="80.5938" id="SewersUseCase" rx="2.5" ry="2.5" style="stroke:#181818;stroke-width:0.5;" width="222" x="1936" y="1118.61"/><ellipse cx="1986.25" cy="1134.61" fill="#B4A7E5" rx="11" ry="11" style="stroke:#181818;stroke-width:1.0;"/><path d="M1982.1719,1130.3756 L1982.1719,1128.2194 L1989.5625,1128.2194 L1989.5625,1130.3756 L1987.0938,1130.3756 L1987.0938,1138.4538 L1989.5625,1138.4538 L1989.5625,1140.61 L1982.1719,1140.61 L1982.1719,1138.4538 L1984.6406,1138.4538 L1984.6406,1130.3756 L1982.1719,1130.3756 Z " fill="#000000"/><text fill="#000000" font-family="sans-serif" font-size="14" font-style="italic" lengthAdjust="spacing" textLength="113" x="2006.75" y="1139.4567">SewersUseCase</text><line style="stroke:#181818;stroke-width:0.5;" x1="1937" x2="2157" y1="1150.61" y2="1150.61"/><line style="stroke:#181818;stroke-width:0.5;" x1="1937" x2="2157" y1="1158.61" y2="1158.61"/><ellipse cx="1947" cy="1172.2584" fill="#84BE84" rx="3" ry="3" style="stroke:#038048;stroke-width:1.0;"/><text fill="#000000" font-family="sans-serif" font-size="14" font-style="italic" lengthAdjust="spacing" textLength="196" x="1956" y="1175.6051">Set&lt;Object&gt; observe(UUID)</text><ellipse cx="1947" cy="1188.5553" fill="#84BE84" rx="3" ry="3" style="stroke:#038048;stroke-width:1.0;"/><text fill="#000000" font-family="sans-serif" font-size="14" font-style="italic" lengthAdjust="spacing" textLength="183" x="1956" y="1191.902">void indicate(UUID, Object)</text></g><!--class SewersUseCaseBridge--><g id="elem_SewersUseCaseBridge"><rect codeLine="92" fill="#F1F1F1" height="96.8906" id="SewersUseCaseBridge" rx="2.5" ry="2.5" style="stroke:#181818;stroke-width:0.5;" width="220" x="1936" y="941.72"/><ellipse cx="1964.5" cy="957.72" fill="#ADD1B2" rx="11" ry="11" style="stroke:#181818;stroke-width:1.0;"/><path d="M1967.4688,963.3606 Q1966.8906,963.6575 1966.25,963.7981 Q1965.6094,963.9544 1964.9063,963.9544 Q1962.4063,963.9544 1961.0781,962.3138 Q1959.7656,960.6575 1959.7656,957.5325 Q1959.7656,954.4075 1961.0781,952.7513 Q1962.4063,951.095 1964.9063,951.095 Q1965.6094,951.095 1966.25,951.2513 Q1966.9063,951.4075 1967.4688,951.7044 L1967.4688,954.4231 Q1966.8438,953.845 1966.25,953.5794 Q1965.6563,953.2981 1965.0313,953.2981 Q1963.6875,953.2981 1963,954.3763 Q1962.3125,955.4388 1962.3125,957.5325 Q1962.3125,959.6263 1963,960.7044 Q1963.6875,961.7669 1965.0313,961.7669 Q1965.6563,961.7669 1966.25,961.5013 Q1966.8438,961.22 1967.4688,960.6419 L1967.4688,963.3606 Z " fill="#000000"/><text fill="#000000" font-family="sans-serif" font-size="14" lengthAdjust="spacing" textLength="158" x="1981.5" y="962.5667">SewersUseCaseBridge</text><line style="stroke:#181818;stroke-width:0.5;" x1="1937" x2="2155" y1="973.72" y2="973.72"/><rect fill="none" height="6" style="stroke:#C82930;stroke-width:1.0;" width="6" x="1944" y="984.3684"/><text fill="#000000" font-family="sans-serif" font-size="14" lengthAdjust="spacing" textLength="167" x="1956" y="990.7151">SewersUseCase sewers</text><line style="stroke:#181818;stroke-width:0.5;" x1="1937" x2="2155" y1="998.0169" y2="998.0169"/><ellipse cx="1947" cy="1011.6653" fill="#84BE84" rx="3" ry="3" style="stroke:#038048;stroke-width:1.0;"/><text fill="#000000" font-family="sans-serif" font-size="14" lengthAdjust="spacing" textLength="194" x="1956" y="1015.012">Set&lt;Sewer&gt; observe(UUID)</text><ellipse cx="1947" cy="1027.9622" fill="#84BE84" rx="3" ry="3" style="stroke:#038048;stroke-width:1.0;"/><text fill="#000000" font-family="sans-serif" font-size="14" lengthAdjust="spacing" textLength="139" x="1956" y="1031.3089">void indicate(Sewer)</text></g><!--link SewerOverflowIndicationService to SewerOverflowIndicationComponent--><g id="link_SewerOverflowIndicationService_SewerOverflowIndicationComponent"><path codeLine="98" d="M813,379.99 C813,397.84 813,413.22 813,433.18 " fill="none" id="SewerOverflowIndicationService-to-SewerOverflowIndicationComponent" style="stroke:#181818;stroke-width:1.0;"/><polygon fill="#181818" points="813,439.18,817,430.18,813,434.18,809,430.18,813,439.18" style="stroke:#181818;stroke-width:1.0;"/></g><!--link SewerOverflowIndicationComponent to Sewers--><g id="link_SewerOverflowIndicationComponent_Sewers"><path codeLine="99" d="M983.82,557.2 C1235.47,557.2 1676.33,557.2 1676.33,557.2 C1676.33,557.2 1676.33,673.68 1676.33,739.46 " fill="none" id="SewerOverflowIndicationComponent-to-Sewers" style="stroke:#181818;stroke-width:1.0;"/><polygon fill="#181818" points="1676.33,745.46,1680.33,736.46,1676.33,740.46,1672.33,736.46,1676.33,745.46" style="stroke:#181818;stroke-width:1.0;"/></g><!--link SewerOverflowIndicationComponent to RainIndicationComponent--><g id="link_SewerOverflowIndicationComponent_RainIndicationComponent"><path codeLine="100" d="M914.5,569.26 C914.5,626.98 914.5,702.91 914.5,747.74 " fill="none" id="SewerOverflowIndicationComponent-to-RainIndicationComponent" style="stroke:#181818;stroke-width:1.0;"/><polygon fill="#181818" points="914.5,753.74,918.5,744.74,914.5,748.74,910.5,744.74,914.5,753.74" style="stroke:#181818;stroke-width:1.0;"/></g><!--link SewerOverflowIndicationComponent to PumpIndicationComponent--><g id="link_SewerOverflowIndicationComponent_PumpIndicationComponent"><path codeLine="101" d="M726.5,569.26 C726.5,626.98 726.5,702.91 726.5,747.74 " fill="none" id="SewerOverflowIndicationComponent-to-PumpIndicationComponent" style="stroke:#181818;stroke-width:1.0;"/><polygon fill="#181818" points="726.5,753.74,730.5,744.74,726.5,748.74,722.5,744.74,726.5,753.74" style="stroke:#181818;stroke-width:1.0;"/></g><!--link SewerOverflowIndicationComponent to FlowIndicationComponent--><g id="link_SewerOverflowIndicationComponent_FlowIndicationComponent"><path codeLine="102" d="M642.3,505.2 C481.14,505.2 264,505.2 264,505.2 C264,505.2 264,673.67 264,747.62 " fill="none" id="SewerOverflowIndicationComponent-to-FlowIndicationComponent" style="stroke:#181818;stroke-width:1.0;"/><polygon fill="#181818" points="264,753.62,268,744.62,264,748.62,260,744.62,264,753.62" style="stroke:#181818;stroke-width:1.0;"/></g><!--link SewerObservationService to SewerObservationComponent--><g id="link_SewerObservationService_SewerObservationComponent"><path codeLine="103" d="M1693,379.99 C1693,405.47 1693,432.17 1693,457.62 " fill="none" id="SewerObservationService-to-SewerObservationComponent" style="stroke:#181818;stroke-width:1.0;"/><polygon fill="#181818" points="1693,463.62,1697,454.62,1693,458.62,1689,454.62,1693,463.62" style="stroke:#181818;stroke-width:1.0;"/></g><!--link SewerObservationComponent to Sewers--><g id="link_SewerObservationComponent_Sewers"><path codeLine="104" d="M1744.67,544.92 C1744.67,598.44 1744.67,685.94 1744.67,739.45 " fill="none" id="SewerObservationComponent-to-Sewers" style="stroke:#181818;stroke-width:1.0;"/><polygon fill="#181818" points="1744.67,745.45,1748.67,736.45,1744.67,740.45,1740.67,736.45,1744.67,745.45" style="stroke:#181818;stroke-width:1.0;"/></g><!--link Sewer to Problem--><g id="link_Sewer_Problem"><path codeLine="105" d="M1572.65,835.2 C1588.92,835.2 1600,835.2 1600,835.2 C1600,835.2 1600,897.53 1600,943.45 " fill="none" id="Sewer-to-Problem" style="stroke:#181818;stroke-width:1.0;"/><polygon fill="#181818" points="1600,949.45,1604,940.45,1600,944.45,1596,940.45,1600,949.45" style="stroke:#181818;stroke-width:1.0;"/></g><!--link Sewer to KeyPerformanceIndicator--><g id="link_Sewer_KeyPerformanceIndicator"><path codeLine="106" d="M1424.75,842.96 C1424.75,873.85 1424.75,905.67 1424.75,935.24 " fill="none" id="Sewer-to-KeyPerformanceIndicator" style="stroke:#181818;stroke-width:1.0;"/><polygon fill="#181818" points="1424.75,941.24,1428.75,932.24,1424.75,936.24,1420.75,932.24,1424.75,941.24" style="stroke:#181818;stroke-width:1.0;"/></g><!--link SewerIndicationUseCase to SewerOverflowIndicationService--><g id="link_SewerIndicationUseCase_SewerOverflowIndicationService"><path codeLine="107" d="M813,181.18 C813,216.88 813,258.77 813,292.44 " fill="none" id="SewerIndicationUseCase-to-SewerOverflowIndicationService" style="stroke:#181818;stroke-width:1.0;"/><polygon fill="#181818" points="813,298.44,817,289.44,813,293.44,809,289.44,813,298.44" style="stroke:#181818;stroke-width:1.0;"/></g><!--link SewerObservationUseCase to SewerObservationService--><g id="link_SewerObservationUseCase_SewerObservationService"><path codeLine="108" d="M1674,172.8 C1674,209.11 1674,256.2 1674,292.59 " fill="none" id="SewerObservationUseCase-to-SewerObservationService" style="stroke:#181818;stroke-width:1.0;"/><polygon fill="#181818" points="1674,298.59,1678,289.59,1674,293.59,1670,289.59,1674,298.59" style="stroke:#181818;stroke-width:1.0;"/></g><!--reverse link Sewers to SewersUseCaseBridge--><g id="link_Sewers_SewersUseCaseBridge"><path codeLine="109" d="M1814,844.52 C1814,891.94 1814,946.2 1814,946.2 C1814,946.2 1875.92,946.2 1935.78,946.2 " fill="none" id="Sewers-backto-SewersUseCaseBridge" style="stroke:#181818;stroke-width:1.0;stroke-dasharray:7.0,7.0;"/><polygon fill="none" points="1814,826.52,1808,844.52,1820,844.52,1814,826.52" style="stroke:#181818;stroke-width:1.0;"/></g><!--link SewersUseCaseBridge to SewersUseCase--><g id="link_SewersUseCaseBridge_SewersUseCase"><path codeLine="110" d="M2046,1038.97 C2046,1064.08 2046,1088.34 2046,1112.18 " fill="none" id="SewersUseCaseBridge-to-SewersUseCase" style="stroke:#181818;stroke-width:1.0;"/><polygon fill="#181818" points="2046,1118.18,2050,1109.18,2046,1113.18,2042,1109.18,2046,1118.18" style="stroke:#181818;stroke-width:1.0;"/></g><!--SRC=[tLTRRziW67tths3EIwesQ9hsi4fL9grJfMhQ6YtgSuLjdBBOO05f5tNzxyF6JdmZDmVtyf8B_lZETpx3uV0XuMWM8x0G-9fAp6CS42Jn1FbpDCC2X2WIs15pGXF4KGmYGh5S9XWmBk-P8-xP8n1g7cRfg9FeUI3Wv05p0P000OO-YnD4bp3XJ6PnKE17p64HDH3pfHSjC7XwNcL00KhapYdWAdpmvLCOUf_BgHItEny9l6ykk9uu2CDpT7vUpegf999qI0fN6GQX7mRUnt9sZoreWFYoUtP8Q41yzKxXAkSW8d6bsJwZahF81XWiSWyOHtI6BP5adi3yeH-ETQoUAEh8FWXMaJRHowOihK72FB_T3Q8ZvmdfiRbbj1uRt0RRPvFLJ2_2SO-DhYFss6mJjDM6xw3stK6sgsrtZ2n0j40uVeI40Euq3RXHqyE8FLvhseJHgQgC-DYrSfXjnWHF3W0ZGyobAeHHbHk8zW0rz-vEVPm-C1A0hC73doYvc4fEwEmCwE_nYVDSTE2g7S2rUOv30sZ6NPUE_s9_8Ql5VrMZ4jD0W1ll3_PbcSPa4IUzqp20Tg3n6n7QEmq3Q0SQsvQlNJvRDyzwYmczaKGwO6e3huodaQRbszYB8zCAIIhZrLrxMBCpDJssU3LSgW6hB5hhXtMrMZzP4PvYUP5D6-TYfGblO7VKDMHouT1CfNNjDCWKxt1DXwGtun2fNcbAmZs-uytBolOjU4AUa1pvyhbKLqvuU7jx_Vsa5fOjlc9N3RC9zVVWsdRfce9kSbeZ847wymTUJbJt68yHzN6-SHW7oehgro4l9jeeZK7kc4JzA9HvX1YMmqiC3I1k7yOPcXZgvPQjeamq9anbkcHKgD-5oEIFK_L9__vQn9xgOIfR8OgYqXcfERjzcLEO0rP8S8o4BZklapLDJ7NHhH_S2dofwd2Fw6nXEyH65rQ8djc3ZRHAAmLFKeQbFsq6RQlcTUUzLSXRU3TL_X0PR-XUTp8rLmyhULlLBpyqzv2_DE8iFsphRwQ0-iP9CBD6H6SldpS5G_Enq-1dqFI-xpIZqVZbx9xpSaRp2BnRZ_YtJMdlcyXxfMku7RnNkbTszkVEbvGZaDl_mk3qVqLvhQgpY_C_MkqxUjCtnUc02uHZsITR4OpDRiAnR85jo8H1aXnxlX4kuBzN9GEx57ruwpTc_my0]--></g></svg>