<svg xmlns="http://www.w3.org/2000/svg" xmlns:xlink="http://www.w3.org/1999/xlink" contentStyleType="text/css" height="1295px" preserveAspectRatio="none" style="width:1553px;height:1295px;background:#FFFFFF;" version="1.1" viewBox="0 0 1553 1295" width="1553px" zoomAndPan="magnify"><defs/><g><!--cluster use_cases--><g id="cluster_use_cases"><path d="M8.5,6 L466.5,6 A3.75,3.75 0 0 1 469,8.5 L476,28.2969 L1543.5,28.2969 A2.5,2.5 0 0 1 1546,30.7969 L1546,1286.36 A2.5,2.5 0 0 1 1543.5,1288.86 L8.5,1288.86 A2.5,2.5 0 0 1 6,1286.36 L6,8.5 A2.5,2.5 0 0 1 8.5,6 " fill="#FF9A99" style="stroke:#000000;stroke-width:1.5;"/><line style="stroke:#000000;stroke-width:1.5;" x1="6" x2="476" y1="28.2969" y2="28.2969"/><text fill="#000000" font-family="sans-serif" font-size="14" font-weight="bold" lengthAdjust="spacing" textLength="457" x="10" y="20.9951">de.company.prototype.sewer.drivers.adapters.use_cases</text></g><!--cluster entities--><g id="cluster_entities"><path d="M32.5,188.3 L92.5,188.3 A3.75,3.75 0 0 1 95,190.8 L102,210.5969 L1241.5,210.5969 A2.5,2.5 0 0 1 1244,213.0969 L1244,1149.77 A2.5,2.5 0 0 1 1241.5,1152.27 L32.5,1152.27 A2.5,2.5 0 0 1 30,1149.77 L30,190.8 A2.5,2.5 0 0 1 32.5,188.3 " fill="#FCFDB0" style="stroke:#000000;stroke-width:1.5;"/><line style="stroke:#000000;stroke-width:1.5;" x1="30" x2="102" y1="210.5969" y2="210.5969"/><text fill="#000000" font-family="sans-serif" font-size="14" font-weight="bold" lengthAdjust="spacing" textLength="59" x="34" y="203.2951">entities</text></g><!--cluster boundary--><g id="cluster_boundary"><path d="M56.5,231.3 L199.5,231.3 A3.75,3.75 0 0 1 202,233.8 L209,253.5969 L847.5,253.5969 A2.5,2.5 0 0 1 850,256.0969 L850,631.69 A2.5,2.5 0 0 1 847.5,634.19 L56.5,634.19 A2.5,2.5 0 0 1 54,631.69 L54,233.8 A2.5,2.5 0 0 1 56.5,231.3 " fill="#00FF00" style="stroke:#000000;stroke-width:1.5;"/><line style="stroke:#000000;stroke-width:1.5;" x1="54" x2="209" y1="253.5969" y2="253.5969"/><text fill="#000000" font-family="sans-serif" font-size="14" font-weight="bold" lengthAdjust="spacing" textLength="142" x="58" y="246.2951">indicate.boundary</text></g><!--cluster control--><g id="cluster_control"><path d="M80.5,370.59 L137.5,370.59 A3.75,3.75 0 0 1 140,373.09 L147,392.8869 L823.5,392.8869 A2.5,2.5 0 0 1 826,395.3869 L826,607.69 A2.5,2.5 0 0 1 823.5,610.19 L80.5,610.19 A2.5,2.5 0 0 1 78,607.69 L78,373.09 A2.5,2.5 0 0 1 80.5,370.59 " fill="#FFA500" style="stroke:#000000;stroke-width:1.5;"/><line style="stroke:#000000;stroke-width:1.5;" x1="78" x2="147" y1="392.8869" y2="392.8869"/><text fill="#000000" font-family="sans-serif" font-size="14" font-weight="bold" lengthAdjust="spacing" textLength="56" x="82" y="385.5851">control</text></g><!--cluster boundary--><g id="cluster_boundary"><path d="M902.5,370.59 L1048.5,370.59 A3.75,3.75 0 0 1 1051,373.09 L1058,392.8869 L1217.5,392.8869 A2.5,2.5 0 0 1 1220,395.3869 L1220,631.69 A2.5,2.5 0 0 1 1217.5,634.19 L902.5,634.19 A2.5,2.5 0 0 1 900,631.69 L900,373.09 A2.5,2.5 0 0 1 902.5,370.59 " fill="#00FF00" style="stroke:#000000;stroke-width:1.5;"/><line style="stroke:#000000;stroke-width:1.5;" x1="900" x2="1058" y1="392.8869" y2="392.8869"/><text fill="#000000" font-family="sans-serif" font-size="14" font-weight="bold" lengthAdjust="spacing" textLength="145" x="904" y="385.5851">observe.boundary</text></g><!--cluster control--><g id="cluster_control"><path d="M926.5,494.89 L983.5,494.89 A3.75,3.75 0 0 1 986,497.39 L993,517.1869 L1193.5,517.1869 A2.5,2.5 0 0 1 1196,519.6869 L1196,607.69 A2.5,2.5 0 0 1 1193.5,610.19 L926.5,610.19 A2.5,2.5 0 0 1 924,607.69 L924,497.39 A2.5,2.5 0 0 1 926.5,494.89 " fill="#FFA500" style="stroke:#000000;stroke-width:1.5;"/><line style="stroke:#000000;stroke-width:1.5;" x1="924" x2="993" y1="517.1869" y2="517.1869"/><text fill="#000000" font-family="sans-serif" font-size="14" font-weight="bold" lengthAdjust="spacing" textLength="56" x="928" y="509.8851">control</text></g><!--cluster sewer--><g id="cluster_sewer"><path d="M377.5,658.19 L428.5,658.19 A3.75,3.75 0 0 1 431,660.69 L438,680.4869 L1032.5,680.4869 A2.5,2.5 0 0 1 1035,682.9869 L1035,1125.77 A2.5,2.5 0 0 1 1032.5,1128.27 L377.5,1128.27 A2.5,2.5 0 0 1 375,1125.77 L375,660.69 A2.5,2.5 0 0 1 377.5,658.19 " fill="none" style="stroke:#000000;stroke-width:1.5;"/><line style="stroke:#000000;stroke-width:1.5;" x1="375" x2="438" y1="680.4869" y2="680.4869"/><text fill="#000000" font-family="sans-serif" font-size="14" font-weight="bold" lengthAdjust="spacing" textLength="50" x="379" y="673.1851">sewer</text></g><!--cluster boundary--><g id="cluster_boundary"><path d="M422.5,701.19 L498.5,701.19 A3.75,3.75 0 0 1 501,703.69 L508,723.4869 L987.5,723.4869 A2.5,2.5 0 0 1 990,725.9869 L990,929.88 A2.5,2.5 0 0 1 987.5,932.38 L422.5,932.38 A2.5,2.5 0 0 1 420,929.88 L420,703.69 A2.5,2.5 0 0 1 422.5,701.19 " fill="#00FF00" style="stroke:#000000;stroke-width:1.5;"/><line style="stroke:#000000;stroke-width:1.5;" x1="420" x2="508" y1="723.4869" y2="723.4869"/><text fill="#000000" font-family="sans-serif" font-size="14" font-weight="bold" lengthAdjust="spacing" textLength="75" x="424" y="716.1851">boundary</text></g><!--cluster entity--><g id="cluster_entity"><path d="M446.5,744.19 L553.5,744.19 A3.75,3.75 0 0 1 556,746.69 L563,766.4869 L731.5,766.4869 A2.5,2.5 0 0 1 734,768.9869 L734,905.88 A2.5,2.5 0 0 1 731.5,908.38 L446.5,908.38 A2.5,2.5 0 0 1 444,905.88 L444,746.69 A2.5,2.5 0 0 1 446.5,744.19 " fill="#FCFDB0" style="stroke:#000000;stroke-width:1.5;"/><line style="stroke:#000000;stroke-width:1.5;" x1="444" x2="563" y1="766.4869" y2="766.4869"/><text fill="#000000" font-family="sans-serif" font-size="14" font-weight="bold" lengthAdjust="spacing" textLength="106" x="448" y="759.1851">control.entity</text></g><!--cluster entity--><g id="cluster_entity"><path d="M401.5,956.38 L616.5,956.38 A3.75,3.75 0 0 1 619,958.88 L626,978.6769 L708.5,978.6769 A2.5,2.5 0 0 1 711,981.1769 L711,1101.77 A2.5,2.5 0 0 1 708.5,1104.27 L401.5,1104.27 A2.5,2.5 0 0 1 399,1101.77 L399,958.88 A2.5,2.5 0 0 1 401.5,956.38 " fill="#FCFDB0" style="stroke:#000000;stroke-width:1.5;"/><line style="stroke:#000000;stroke-width:1.5;" x1="399" x2="626" y1="978.6769" y2="978.6769"/><text fill="#000000" font-family="sans-serif" font-size="14" font-weight="bold" lengthAdjust="spacing" textLength="214" x="403" y="971.3751">kpi.boundary.control.entity</text></g><!--cluster entity--><g id="cluster_entity"><path d="M737.5,964.52 L994.5,964.52 A3.75,3.75 0 0 1 997,967.02 L1004,986.8169 L1008.5,986.8169 A2.5,2.5 0 0 1 1011,989.3169 L1011,1093.62 A2.5,2.5 0 0 1 1008.5,1096.12 L737.5,1096.12 A2.5,2.5 0 0 1 735,1093.62 L735,967.02 A2.5,2.5 0 0 1 737.5,964.52 " fill="#FCFDB0" style="stroke:#000000;stroke-width:1.5;"/><line style="stroke:#000000;stroke-width:1.5;" x1="735" x2="1004" y1="986.8169" y2="986.8169"/><text fill="#000000" font-family="sans-serif" font-size="14" font-weight="bold" lengthAdjust="spacing" textLength="256" x="739" y="979.5151">problem.boundary.control.entity</text></g><!--cluster boundary--><g id="cluster_boundary"><path d="M149.5,49 L292.5,49 A3.75,3.75 0 0 1 295,51.5 L302,71.2969 L378.5,71.2969 A2.5,2.5 0 0 1 381,73.7969 L381,161.8 A2.5,2.5 0 0 1 378.5,164.3 L149.5,164.3 A2.5,2.5 0 0 1 147,161.8 L147,51.5 A2.5,2.5 0 0 1 149.5,49 " fill="#00FF00" style="stroke:#000000;stroke-width:1.5;"/><line style="stroke:#000000;stroke-width:1.5;" x1="147" x2="302" y1="71.2969" y2="71.2969"/><text fill="#000000" font-family="sans-serif" font-size="14" font-weight="bold" lengthAdjust="spacing" textLength="142" x="151" y="63.9951">indicate.boundary</text></g><!--cluster boundary--><g id="cluster_boundary"><path d="M1270.5,231.3 L1416.5,231.3 A3.75,3.75 0 0 1 1419,233.8 L1426,253.5969 L1517.5,253.5969 A2.5,2.5 0 0 1 1520,256.0969 L1520,344.09 A2.5,2.5 0 0 1 1517.5,346.59 L1270.5,346.59 A2.5,2.5 0 0 1 1268,344.09 L1268,233.8 A2.5,2.5 0 0 1 1270.5,231.3 " fill="#00FF00" style="stroke:#000000;stroke-width:1.5;"/><line style="stroke:#000000;stroke-width:1.5;" x1="1268" x2="1426" y1="253.5969" y2="253.5969"/><text fill="#000000" font-family="sans-serif" font-size="14" font-weight="bold" lengthAdjust="spacing" textLength="145" x="1272" y="246.2951">observe.boundary</text></g><!--cluster boundary--><g id="cluster_boundary"><path d="M1270.5,964.52 L1410.5,964.52 A3.75,3.75 0 0 1 1413,967.02 L1420,986.8169 L1519.5,986.8169 A2.5,2.5 0 0 1 1522,989.3169 L1522,1262.36 A2.5,2.5 0 0 1 1519.5,1264.86 L1270.5,1264.86 A2.5,2.5 0 0 1 1268,1262.36 L1268,967.02 A2.5,2.5 0 0 1 1270.5,964.52 " fill="#00FF00" style="stroke:#000000;stroke-width:1.5;"/><line style="stroke:#000000;stroke-width:1.5;" x1="1268" x2="1420" y1="986.8169" y2="986.8169"/><text fill="#000000" font-family="sans-serif" font-size="14" font-weight="bold" lengthAdjust="spacing" textLength="139" x="1272" y="979.5151">sewers.boundary</text></g><!--class SewerOverflowIndicationService--><g id="elem_SewerOverflowIndicationService"><rect codeLine="25" fill="#F1F1F1" height="64.2969" id="SewerOverflowIndicationService" rx="2.5" ry="2.5" style="stroke:#181818;stroke-width:0.5;" width="250" x="139" y="266.3"/><ellipse cx="154" cy="282.3" fill="#ADD1B2" rx="11" ry="11" style="stroke:#181818;stroke-width:1.0;"/><path d="M156.9688,287.9406 Q156.3906,288.2375 155.75,288.3781 Q155.1094,288.5344 154.4063,288.5344 Q151.9063,288.5344 150.5781,286.8937 Q149.2656,285.2375 149.2656,282.1125 Q149.2656,278.9875 150.5781,277.3312 Q151.9063,275.675 154.4063,275.675 Q155.1094,275.675 155.75,275.8312 Q156.4063,275.9875 156.9688,276.2844 L156.9688,279.0031 Q156.3438,278.425 155.75,278.1594 Q155.1563,277.8781 154.5313,277.8781 Q153.1875,277.8781 152.5,278.9562 Q151.8125,280.0187 151.8125,282.1125 Q151.8125,284.2062 152.5,285.2844 Q153.1875,286.3469 154.5313,286.3469 Q155.1563,286.3469 155.75,286.0812 Q156.3438,285.8 156.9688,285.2219 L156.9688,287.9406 Z " fill="#000000"/><text fill="#000000" font-family="sans-serif" font-size="14" lengthAdjust="spacing" textLength="218" x="168" y="287.1467">SewerOverflowIndicationService</text><line style="stroke:#181818;stroke-width:0.5;" x1="140" x2="388" y1="298.3" y2="298.3"/><line style="stroke:#181818;stroke-width:0.5;" x1="140" x2="388" y1="306.3" y2="306.3"/><ellipse cx="150" cy="319.9484" fill="#84BE84" rx="3" ry="3" style="stroke:#038048;stroke-width:1.0;"/><text fill="#000000" font-family="sans-serif" font-size="14" lengthAdjust="spacing" textLength="221" x="159" y="323.2951">void serve(Map&lt;String, String&gt;)</text></g><!--class FlowIndicationComponent--><g id="elem_FlowIndicationComponent"><rect codeLine="28" fill="#F1F1F1" height="64.2969" id="FlowIndicationComponent" rx="2.5" ry="2.5" style="stroke:#181818;stroke-width:0.5;" width="341" x="469.5" y="405.59"/><ellipse cx="546.25" cy="421.59" fill="#ADD1B2" rx="11" ry="11" style="stroke:#181818;stroke-width:1.0;"/><path d="M549.2188,427.2306 Q548.6406,427.5275 548,427.6681 Q547.3594,427.8244 546.6563,427.8244 Q544.1563,427.8244 542.8281,426.1837 Q541.5156,424.5275 541.5156,421.4025 Q541.5156,418.2775 542.8281,416.6212 Q544.1563,414.965 546.6563,414.965 Q547.3594,414.965 548,415.1212 Q548.6563,415.2775 549.2188,415.5744 L549.2188,418.2931 Q548.5938,417.715 548,417.4494 Q547.4063,417.1681 546.7813,417.1681 Q545.4375,417.1681 544.75,418.2462 Q544.0625,419.3087 544.0625,421.4025 Q544.0625,423.4962 544.75,424.5744 Q545.4375,425.6369 546.7813,425.6369 Q547.4063,425.6369 548,425.3712 Q548.5938,425.09 549.2188,424.5119 L549.2188,427.2306 Z " fill="#000000"/><text fill="#000000" font-family="sans-serif" font-size="14" lengthAdjust="spacing" textLength="179" x="566.75" y="426.4367">FlowIndicationComponent</text><line style="stroke:#181818;stroke-width:0.5;" x1="470.5" x2="809.5" y1="437.59" y2="437.59"/><line style="stroke:#181818;stroke-width:0.5;" x1="470.5" x2="809.5" y1="445.59" y2="445.59"/><ellipse cx="480.5" cy="459.2384" fill="#84BE84" rx="3" ry="3" style="stroke:#038048;stroke-width:1.0;"/><text fill="#000000" font-family="sans-serif" font-size="14" lengthAdjust="spacing" textLength="315" x="489.5" y="462.5851">void execute(Map&lt;String, ? extends Object&gt;)</text></g><!--class PumpIndicationComponent--><g id="elem_PumpIndicationComponent"><rect codeLine="31" fill="#F1F1F1" height="64.2969" id="PumpIndicationComponent" rx="2.5" ry="2.5" style="stroke:#181818;stroke-width:0.5;" width="341" x="469.5" y="529.89"/><ellipse cx="541.75" cy="545.89" fill="#ADD1B2" rx="11" ry="11" style="stroke:#181818;stroke-width:1.0;"/><path d="M544.7188,551.5306 Q544.1406,551.8275 543.5,551.9681 Q542.8594,552.1244 542.1563,552.1244 Q539.6563,552.1244 538.3281,550.4837 Q537.0156,548.8275 537.0156,545.7025 Q537.0156,542.5775 538.3281,540.9212 Q539.6563,539.265 542.1563,539.265 Q542.8594,539.265 543.5,539.4212 Q544.1563,539.5775 544.7188,539.8744 L544.7188,542.5931 Q544.0938,542.015 543.5,541.7494 Q542.9063,541.4681 542.2813,541.4681 Q540.9375,541.4681 540.25,542.5462 Q539.5625,543.6087 539.5625,545.7025 Q539.5625,547.7962 540.25,548.8744 Q540.9375,549.9369 542.2813,549.9369 Q542.9063,549.9369 543.5,549.6712 Q544.0938,549.39 544.7188,548.8119 L544.7188,551.5306 Z " fill="#000000"/><text fill="#000000" font-family="sans-serif" font-size="14" lengthAdjust="spacing" textLength="188" x="562.25" y="550.7367">PumpIndicationComponent</text><line style="stroke:#181818;stroke-width:0.5;" x1="470.5" x2="809.5" y1="561.89" y2="561.89"/><line style="stroke:#181818;stroke-width:0.5;" x1="470.5" x2="809.5" y1="569.89" y2="569.89"/><ellipse cx="480.5" cy="583.5384" fill="#84BE84" rx="3" ry="3" style="stroke:#038048;stroke-width:1.0;"/><text fill="#000000" font-family="sans-serif" font-size="14" lengthAdjust="spacing" textLength="315" x="489.5" y="586.8851">void execute(Map&lt;String, ? extends Object&gt;)</text></g><!--class RainShortageIndicationComponent--><g id="elem_RainShortageIndicationComponent"><rect codeLine="34" fill="#F1F1F1" height="64.2969" id="RainShortageIndicationComponent" rx="2.5" ry="2.5" style="stroke:#181818;stroke-width:0.5;" width="341" x="93.5" y="529.89"/><ellipse cx="139.25" cy="545.89" fill="#ADD1B2" rx="11" ry="11" style="stroke:#181818;stroke-width:1.0;"/><path d="M142.2188,551.5306 Q141.6406,551.8275 141,551.9681 Q140.3594,552.1244 139.6563,552.1244 Q137.1563,552.1244 135.8281,550.4837 Q134.5156,548.8275 134.5156,545.7025 Q134.5156,542.5775 135.8281,540.9212 Q137.1563,539.265 139.6563,539.265 Q140.3594,539.265 141,539.4212 Q141.6563,539.5775 142.2188,539.8744 L142.2188,542.5931 Q141.5938,542.015 141,541.7494 Q140.4063,541.4681 139.7813,541.4681 Q138.4375,541.4681 137.75,542.5462 Q137.0625,543.6087 137.0625,545.7025 Q137.0625,547.7962 137.75,548.8744 Q138.4375,549.9369 139.7813,549.9369 Q140.4063,549.9369 141,549.6712 Q141.5938,549.39 142.2188,548.8119 L142.2188,551.5306 Z " fill="#000000"/><text fill="#000000" font-family="sans-serif" font-size="14" lengthAdjust="spacing" textLength="241" x="159.75" y="550.7367">RainShortageIndicationComponent</text><line style="stroke:#181818;stroke-width:0.5;" x1="94.5" x2="433.5" y1="561.89" y2="561.89"/><line style="stroke:#181818;stroke-width:0.5;" x1="94.5" x2="433.5" y1="569.89" y2="569.89"/><ellipse cx="104.5" cy="583.5384" fill="#84BE84" rx="3" ry="3" style="stroke:#038048;stroke-width:1.0;"/><text fill="#000000" font-family="sans-serif" font-size="14" lengthAdjust="spacing" textLength="315" x="113.5" y="586.8851">void execute(Map&lt;String, ? extends Object&gt;)</text></g><!--class SewerOverflowIndicationComponent--><g id="elem_SewerOverflowIndicationComponent"><rect codeLine="37" fill="#F1F1F1" height="64.2969" id="SewerOverflowIndicationComponent" rx="2.5" ry="2.5" style="stroke:#181818;stroke-width:0.5;" width="341" x="93.5" y="405.59"/><ellipse cx="135.05" cy="421.59" fill="#ADD1B2" rx="11" ry="11" style="stroke:#181818;stroke-width:1.0;"/><path d="M138.0188,427.2306 Q137.4406,427.5275 136.8,427.6681 Q136.1594,427.8244 135.4563,427.8244 Q132.9563,427.8244 131.6281,426.1837 Q130.3156,424.5275 130.3156,421.4025 Q130.3156,418.2775 131.6281,416.6212 Q132.9563,414.965 135.4563,414.965 Q136.1594,414.965 136.8,415.1212 Q137.4563,415.2775 138.0188,415.5744 L138.0188,418.2931 Q137.3938,417.715 136.8,417.4494 Q136.2063,417.1681 135.5813,417.1681 Q134.2375,417.1681 133.55,418.2462 Q132.8625,419.3087 132.8625,421.4025 Q132.8625,423.4962 133.55,424.5744 Q134.2375,425.6369 135.5813,425.6369 Q136.2063,425.6369 136.8,425.3712 Q137.3938,425.09 138.0188,424.5119 L138.0188,427.2306 Z " fill="#000000"/><text fill="#000000" font-family="sans-serif" font-size="14" lengthAdjust="spacing" textLength="250" x="154.95" y="426.4367">SewerOverflowIndicationComponent</text><line style="stroke:#181818;stroke-width:0.5;" x1="94.5" x2="433.5" y1="437.59" y2="437.59"/><line style="stroke:#181818;stroke-width:0.5;" x1="94.5" x2="433.5" y1="445.59" y2="445.59"/><ellipse cx="104.5" cy="459.2384" fill="#84BE84" rx="3" ry="3" style="stroke:#038048;stroke-width:1.0;"/><text fill="#000000" font-family="sans-serif" font-size="14" lengthAdjust="spacing" textLength="315" x="113.5" y="462.5851">void execute(Map&lt;String, ? extends Object&gt;)</text></g><!--class SewerObservationService--><g id="elem_SewerObservationService"><rect codeLine="40" fill="#F1F1F1" height="64.2969" id="SewerObservationService" rx="2.5" ry="2.5" style="stroke:#181818;stroke-width:0.5;" width="208" x="976" y="405.59"/><ellipse cx="991" cy="421.59" fill="#ADD1B2" rx="11" ry="11" style="stroke:#181818;stroke-width:1.0;"/><path d="M993.9688,427.2306 Q993.3906,427.5275 992.75,427.6681 Q992.1094,427.8244 991.4063,427.8244 Q988.9063,427.8244 987.5781,426.1837 Q986.2656,424.5275 986.2656,421.4025 Q986.2656,418.2775 987.5781,416.6212 Q988.9063,414.965 991.4063,414.965 Q992.1094,414.965 992.75,415.1212 Q993.4063,415.2775 993.9688,415.5744 L993.9688,418.2931 Q993.3438,417.715 992.75,417.4494 Q992.1563,417.1681 991.5313,417.1681 Q990.1875,417.1681 989.5,418.2462 Q988.8125,419.3087 988.8125,421.4025 Q988.8125,423.4962 989.5,424.5744 Q990.1875,425.6369 991.5313,425.6369 Q992.1563,425.6369 992.75,425.3712 Q993.3438,425.09 993.9688,424.5119 L993.9688,427.2306 Z " fill="#000000"/><text fill="#000000" font-family="sans-serif" font-size="14" lengthAdjust="spacing" textLength="176" x="1005" y="426.4367">SewerObservationService</text><line style="stroke:#181818;stroke-width:0.5;" x1="977" x2="1183" y1="437.59" y2="437.59"/><line style="stroke:#181818;stroke-width:0.5;" x1="977" x2="1183" y1="445.59" y2="445.59"/><ellipse cx="987" cy="459.2384" fill="#84BE84" rx="3" ry="3" style="stroke:#038048;stroke-width:1.0;"/><text fill="#000000" font-family="sans-serif" font-size="14" lengthAdjust="spacing" textLength="182" x="996" y="462.5851">Set&lt;Sewer&gt; serve(String)</text></g><!--class SewerObservationComponent--><g id="elem_SewerObservationComponent"><rect codeLine="43" fill="#F1F1F1" height="64.2969" id="SewerObservationComponent" rx="2.5" ry="2.5" style="stroke:#181818;stroke-width:0.5;" width="240" x="940" y="529.89"/><ellipse cx="955" cy="545.89" fill="#ADD1B2" rx="11" ry="11" style="stroke:#181818;stroke-width:1.0;"/><path d="M957.9688,551.5306 Q957.3906,551.8275 956.75,551.9681 Q956.1094,552.1244 955.4063,552.1244 Q952.9063,552.1244 951.5781,550.4837 Q950.2656,548.8275 950.2656,545.7025 Q950.2656,542.5775 951.5781,540.9212 Q952.9063,539.265 955.4063,539.265 Q956.1094,539.265 956.75,539.4212 Q957.4063,539.5775 957.9688,539.8744 L957.9688,542.5931 Q957.3438,542.015 956.75,541.7494 Q956.1563,541.4681 955.5313,541.4681 Q954.1875,541.4681 953.5,542.5462 Q952.8125,543.6087 952.8125,545.7025 Q952.8125,547.7962 953.5,548.8744 Q954.1875,549.9369 955.5313,549.9369 Q956.1563,549.9369 956.75,549.6712 Q957.3438,549.39 957.9688,548.8119 L957.9688,551.5306 Z " fill="#000000"/><text fill="#000000" font-family="sans-serif" font-size="14" lengthAdjust="spacing" textLength="208" x="969" y="550.7367">SewerObservationComponent</text><line style="stroke:#181818;stroke-width:0.5;" x1="941" x2="1179" y1="561.89" y2="561.89"/><line style="stroke:#181818;stroke-width:0.5;" x1="941" x2="1179" y1="569.89" y2="569.89"/><ellipse cx="951" cy="583.5384" fill="#84BE84" rx="3" ry="3" style="stroke:#038048;stroke-width:1.0;"/><text fill="#000000" font-family="sans-serif" font-size="14" lengthAdjust="spacing" textLength="200" x="960" y="586.8851">Set&lt;Sewer&gt; execute(String)</text></g><!--class Sewers--><g id="elem_Sewers"><rect codeLine="46" fill="#F1F1F1" height="80.5938" id="Sewers" rx="2.5" ry="2.5" style="stroke:#181818;stroke-width:0.5;" width="220" x="754" y="795.48"/><ellipse cx="834.25" cy="811.48" fill="#B4A7E5" rx="11" ry="11" style="stroke:#181818;stroke-width:1.0;"/><path d="M830.1719,807.2456 L830.1719,805.0894 L837.5625,805.0894 L837.5625,807.2456 L835.0938,807.2456 L835.0938,815.3237 L837.5625,815.3237 L837.5625,817.48 L830.1719,817.48 L830.1719,815.3237 L832.6406,815.3237 L832.6406,807.2456 L830.1719,807.2456 Z " fill="#000000"/><text fill="#000000" font-family="sans-serif" font-size="14" font-style="italic" lengthAdjust="spacing" textLength="51" x="854.75" y="816.3267">Sewers</text><line style="stroke:#181818;stroke-width:0.5;" x1="755" x2="973" y1="827.48" y2="827.48"/><line style="stroke:#181818;stroke-width:0.5;" x1="755" x2="973" y1="835.48" y2="835.48"/><ellipse cx="765" cy="849.1284" fill="#84BE84" rx="3" ry="3" style="stroke:#038048;stroke-width:1.0;"/><text fill="#000000" font-family="sans-serif" font-size="14" font-style="italic" lengthAdjust="spacing" textLength="194" x="774" y="852.4751">Set&lt;Sewer&gt; observe(UUID)</text><ellipse cx="765" cy="865.4253" fill="#84BE84" rx="3" ry="3" style="stroke:#038048;stroke-width:1.0;"/><text fill="#000000" font-family="sans-serif" font-size="14" font-style="italic" lengthAdjust="spacing" textLength="139" x="774" y="868.772">void indicate(Sewer)</text></g><!--class Sewer--><g id="elem_Sewer"><rect codeLine="50" fill="#F1F1F1" height="113.1875" id="Sewer" rx="2.5" ry="2.5" style="stroke:#181818;stroke-width:0.5;" width="259" x="459.5" y="779.19"/><ellipse cx="563.25" cy="795.19" fill="#ADD1B2" rx="11" ry="11" style="stroke:#181818;stroke-width:1.0;"/><path d="M566.2188,800.8306 Q565.6406,801.1275 565,801.2681 Q564.3594,801.4244 563.6563,801.4244 Q561.1563,801.4244 559.8281,799.7837 Q558.5156,798.1275 558.5156,795.0025 Q558.5156,791.8775 559.8281,790.2212 Q561.1563,788.565 563.6563,788.565 Q564.3594,788.565 565,788.7212 Q565.6563,788.8775 566.2188,789.1744 L566.2188,791.8931 Q565.5938,791.315 565,791.0494 Q564.4063,790.7681 563.7813,790.7681 Q562.4375,790.7681 561.75,791.8462 Q561.0625,792.9087 561.0625,795.0025 Q561.0625,797.0962 561.75,798.1744 Q562.4375,799.2369 563.7813,799.2369 Q564.4063,799.2369 565,798.9712 Q565.5938,798.69 566.2188,798.1119 L566.2188,800.8306 Z " fill="#000000"/><text fill="#000000" font-family="sans-serif" font-size="14" lengthAdjust="spacing" textLength="43" x="583.75" y="800.0367">Sewer</text><line style="stroke:#181818;stroke-width:0.5;" x1="460.5" x2="717.5" y1="811.19" y2="811.19"/><line style="stroke:#181818;stroke-width:0.5;" x1="460.5" x2="717.5" y1="819.19" y2="819.19"/><ellipse cx="470.5" cy="832.8384" fill="#84BE84" rx="3" ry="3" style="stroke:#038048;stroke-width:1.0;"/><text fill="#000000" font-family="sans-serif" font-size="14" lengthAdjust="spacing" textLength="83" x="479.5" y="836.1851">UUID getId()</text><ellipse cx="470.5" cy="849.1353" fill="#84BE84" rx="3" ry="3" style="stroke:#038048;stroke-width:1.0;"/><text fill="#000000" font-family="sans-serif" font-size="14" lengthAdjust="spacing" textLength="230" x="479.5" y="852.482">KeyPerformanceIndicator getKpi()</text><ellipse cx="470.5" cy="865.4322" fill="#84BE84" rx="3" ry="3" style="stroke:#038048;stroke-width:1.0;"/><text fill="#000000" font-family="sans-serif" font-size="14" lengthAdjust="spacing" textLength="206" x="479.5" y="868.7789">Set&lt;Problem&gt; getProblems()</text><ellipse cx="470.5" cy="881.7291" fill="#84BE84" rx="3" ry="3" style="stroke:#038048;stroke-width:1.0;"/><text fill="#000000" font-family="sans-serif" font-size="14" lengthAdjust="spacing" textLength="233" x="479.5" y="885.0757">void setProblems(Set&lt;Problem&gt;)</text></g><!--class KeyPerformanceIndicator--><g id="elem_KeyPerformanceIndicator"><rect codeLine="56" fill="#F1F1F1" height="96.8906" id="KeyPerformanceIndicator" rx="2.5" ry="2.5" style="stroke:#181818;stroke-width:0.5;" width="279" x="415.5" y="991.38"/><ellipse cx="464.75" cy="1007.38" fill="#ADD1B2" rx="11" ry="11" style="stroke:#181818;stroke-width:1.0;"/><path d="M467.7188,1013.0206 Q467.1406,1013.3175 466.5,1013.4581 Q465.8594,1013.6144 465.1563,1013.6144 Q462.6563,1013.6144 461.3281,1011.9737 Q460.0156,1010.3175 460.0156,1007.1925 Q460.0156,1004.0675 461.3281,1002.4112 Q462.6563,1000.755 465.1563,1000.755 Q465.8594,1000.755 466.5,1000.9112 Q467.1563,1001.0675 467.7188,1001.3644 L467.7188,1004.0831 Q467.0938,1003.505 466.5,1003.2394 Q465.9063,1002.9581 465.2813,1002.9581 Q463.9375,1002.9581 463.25,1004.0362 Q462.5625,1005.0987 462.5625,1007.1925 Q462.5625,1009.2862 463.25,1010.3644 Q463.9375,1011.4269 465.2813,1011.4269 Q465.9063,1011.4269 466.5,1011.1612 Q467.0938,1010.88 467.7188,1010.3019 L467.7188,1013.0206 Z " fill="#000000"/><text fill="#000000" font-family="sans-serif" font-size="14" lengthAdjust="spacing" textLength="172" x="485.25" y="1012.2267">KeyPerformanceIndicator</text><line style="stroke:#181818;stroke-width:0.5;" x1="416.5" x2="693.5" y1="1023.38" y2="1023.38"/><line style="stroke:#181818;stroke-width:0.5;" x1="416.5" x2="693.5" y1="1031.38" y2="1031.38"/><ellipse cx="426.5" cy="1045.0284" fill="#84BE84" rx="3" ry="3" style="stroke:#038048;stroke-width:1.0;"/><text fill="#000000" font-family="sans-serif" font-size="14" lengthAdjust="spacing" textLength="253" x="435.5" y="1048.3751">String getPumpPowerConsumption()</text><ellipse cx="426.5" cy="1061.3253" fill="#84BE84" rx="3" ry="3" style="stroke:#038048;stroke-width:1.0;"/><text fill="#000000" font-family="sans-serif" font-size="14" lengthAdjust="spacing" textLength="108" x="435.5" y="1064.672">String getFlow()</text><ellipse cx="426.5" cy="1077.6222" fill="#84BE84" rx="3" ry="3" style="stroke:#038048;stroke-width:1.0;"/><text fill="#000000" font-family="sans-serif" font-size="14" lengthAdjust="spacing" textLength="140" x="435.5" y="1080.9689">Number getRainfall()</text></g><!--class Problem--><g id="elem_Problem"><rect codeLine="61" fill="#F1F1F1" height="80.5938" id="Problem" rx="2.5" ry="2.5" style="stroke:#181818;stroke-width:0.5;" width="243" x="751.5" y="999.52"/><ellipse cx="840.25" cy="1015.52" fill="#ADD1B2" rx="11" ry="11" style="stroke:#181818;stroke-width:1.0;"/><path d="M843.2188,1021.1606 Q842.6406,1021.4575 842,1021.5981 Q841.3594,1021.7544 840.6563,1021.7544 Q838.1563,1021.7544 836.8281,1020.1138 Q835.5156,1018.4575 835.5156,1015.3325 Q835.5156,1012.2075 836.8281,1010.5513 Q838.1563,1008.895 840.6563,1008.895 Q841.3594,1008.895 842,1009.0513 Q842.6563,1009.2075 843.2188,1009.5044 L843.2188,1012.2231 Q842.5938,1011.645 842,1011.3794 Q841.4063,1011.0981 840.7813,1011.0981 Q839.4375,1011.0981 838.75,1012.1763 Q838.0625,1013.2388 838.0625,1015.3325 Q838.0625,1017.4263 838.75,1018.5044 Q839.4375,1019.5669 840.7813,1019.5669 Q841.4063,1019.5669 842,1019.3013 Q842.5938,1019.02 843.2188,1018.4419 L843.2188,1021.1606 Z " fill="#000000"/><text fill="#000000" font-family="sans-serif" font-size="14" lengthAdjust="spacing" textLength="57" x="860.75" y="1020.3667">Problem</text><line style="stroke:#181818;stroke-width:0.5;" x1="752.5" x2="993.5" y1="1031.52" y2="1031.52"/><line style="stroke:#181818;stroke-width:0.5;" x1="752.5" x2="993.5" y1="1039.52" y2="1039.52"/><ellipse cx="762.5" cy="1053.1684" fill="#84BE84" rx="3" ry="3" style="stroke:#038048;stroke-width:1.0;"/><text fill="#000000" font-family="sans-serif" font-size="14" lengthAdjust="spacing" textLength="130" x="771.5" y="1056.5151">String getReason()</text><ellipse cx="762.5" cy="1069.4653" fill="#84BE84" rx="3" ry="3" style="stroke:#038048;stroke-width:1.0;"/><text fill="#000000" font-family="sans-serif" font-size="14" lengthAdjust="spacing" textLength="217" x="771.5" y="1072.812">Number getOverflowIndication()</text></g><!--class SewerIndicationUseCase--><g id="elem_SewerIndicationUseCase"><rect codeLine="65" fill="#F1F1F1" height="64.2969" id="SewerIndicationUseCase" rx="2.5" ry="2.5" style="stroke:#181818;stroke-width:0.5;" width="203" x="162.5" y="84"/><ellipse cx="177.5" cy="100" fill="#ADD1B2" rx="11" ry="11" style="stroke:#181818;stroke-width:1.0;"/><path d="M180.4688,105.6406 Q179.8906,105.9375 179.25,106.0781 Q178.6094,106.2344 177.9063,106.2344 Q175.4063,106.2344 174.0781,104.5938 Q172.7656,102.9375 172.7656,99.8125 Q172.7656,96.6875 174.0781,95.0313 Q175.4063,93.375 177.9063,93.375 Q178.6094,93.375 179.25,93.5313 Q179.9063,93.6875 180.4688,93.9844 L180.4688,96.7031 Q179.8438,96.125 179.25,95.8594 Q178.6563,95.5781 178.0313,95.5781 Q176.6875,95.5781 176,96.6563 Q175.3125,97.7188 175.3125,99.8125 Q175.3125,101.9063 176,102.9844 Q176.6875,104.0469 178.0313,104.0469 Q178.6563,104.0469 179.25,103.7813 Q179.8438,103.5 180.4688,102.9219 L180.4688,105.6406 Z " fill="#000000"/><text fill="#000000" font-family="sans-serif" font-size="14" lengthAdjust="spacing" textLength="171" x="191.5" y="104.8467">SewerIndicationUseCase</text><line style="stroke:#181818;stroke-width:0.5;" x1="163.5" x2="364.5" y1="116" y2="116"/><line style="stroke:#181818;stroke-width:0.5;" x1="163.5" x2="364.5" y1="124" y2="124"/><ellipse cx="173.5" cy="137.6484" fill="#84BE84" rx="3" ry="3" style="stroke:#038048;stroke-width:1.0;"/><text fill="#000000" font-family="sans-serif" font-size="14" lengthAdjust="spacing" textLength="120" x="182.5" y="140.9951">void serve(String)</text></g><!--class SewerObservationUseCase--><g id="elem_SewerObservationUseCase"><rect codeLine="68" fill="#F1F1F1" height="64.2969" id="SewerObservationUseCase" rx="2.5" ry="2.5" style="stroke:#181818;stroke-width:0.5;" width="220" x="1284" y="266.3"/><ellipse cx="1299" cy="282.3" fill="#ADD1B2" rx="11" ry="11" style="stroke:#181818;stroke-width:1.0;"/><path d="M1301.9688,287.9406 Q1301.3906,288.2375 1300.75,288.3781 Q1300.1094,288.5344 1299.4063,288.5344 Q1296.9063,288.5344 1295.5781,286.8937 Q1294.2656,285.2375 1294.2656,282.1125 Q1294.2656,278.9875 1295.5781,277.3312 Q1296.9063,275.675 1299.4063,275.675 Q1300.1094,275.675 1300.75,275.8312 Q1301.4063,275.9875 1301.9688,276.2844 L1301.9688,279.0031 Q1301.3438,278.425 1300.75,278.1594 Q1300.1563,277.8781 1299.5313,277.8781 Q1298.1875,277.8781 1297.5,278.9562 Q1296.8125,280.0187 1296.8125,282.1125 Q1296.8125,284.2062 1297.5,285.2844 Q1298.1875,286.3469 1299.5313,286.3469 Q1300.1563,286.3469 1300.75,286.0812 Q1301.3438,285.8 1301.9688,285.2219 L1301.9688,287.9406 Z " fill="#000000"/><text fill="#000000" font-family="sans-serif" font-size="14" lengthAdjust="spacing" textLength="188" x="1313" y="287.1467">SewerObservationUseCase</text><line style="stroke:#181818;stroke-width:0.5;" x1="1285" x2="1503" y1="298.3" y2="298.3"/><line style="stroke:#181818;stroke-width:0.5;" x1="1285" x2="1503" y1="306.3" y2="306.3"/><ellipse cx="1295" cy="319.9484" fill="#84BE84" rx="3" ry="3" style="stroke:#038048;stroke-width:1.0;"/><text fill="#000000" font-family="sans-serif" font-size="14" lengthAdjust="spacing" textLength="182" x="1304" y="323.2951">Set&lt;Sewer&gt; serve(String)</text></g><!--class SewersUseCase--><g id="elem_SewersUseCase"><rect codeLine="71" fill="#F1F1F1" height="80.5938" id="SewersUseCase" rx="2.5" ry="2.5" style="stroke:#181818;stroke-width:0.5;" width="222" x="1284" y="1168.27"/><ellipse cx="1334.25" cy="1184.27" fill="#B4A7E5" rx="11" ry="11" style="stroke:#181818;stroke-width:1.0;"/><path d="M1330.1719,1180.0356 L1330.1719,1177.8794 L1337.5625,1177.8794 L1337.5625,1180.0356 L1335.0938,1180.0356 L1335.0938,1188.1138 L1337.5625,1188.1138 L1337.5625,1190.27 L1330.1719,1190.27 L1330.1719,1188.1138 L1332.6406,1188.1138 L1332.6406,1180.0356 L1330.1719,1180.0356 Z " fill="#000000"/><text fill="#000000" font-family="sans-serif" font-size="14" font-style="italic" lengthAdjust="spacing" textLength="113" x="1354.75" y="1189.1167">SewersUseCase</text><line style="stroke:#181818;stroke-width:0.5;" x1="1285" x2="1505" y1="1200.27" y2="1200.27"/><line style="stroke:#181818;stroke-width:0.5;" x1="1285" x2="1505" y1="1208.27" y2="1208.27"/><ellipse cx="1295" cy="1221.9184" fill="#84BE84" rx="3" ry="3" style="stroke:#038048;stroke-width:1.0;"/><text fill="#000000" font-family="sans-serif" font-size="14" font-style="italic" lengthAdjust="spacing" textLength="196" x="1304" y="1225.2651">Set&lt;Object&gt; observe(UUID)</text><ellipse cx="1295" cy="1238.2153" fill="#84BE84" rx="3" ry="3" style="stroke:#038048;stroke-width:1.0;"/><text fill="#000000" font-family="sans-serif" font-size="14" font-style="italic" lengthAdjust="spacing" textLength="183" x="1304" y="1241.562">void indicate(UUID, Object)</text></g><!--class SewersUseCaseBridge--><g id="elem_SewersUseCaseBridge"><rect codeLine="75" fill="#F1F1F1" height="80.5938" id="SewersUseCaseBridge" rx="2.5" ry="2.5" style="stroke:#181818;stroke-width:0.5;" width="220" x="1284" y="999.52"/><ellipse cx="1312.5" cy="1015.52" fill="#ADD1B2" rx="11" ry="11" style="stroke:#181818;stroke-width:1.0;"/><path d="M1315.4688,1021.1606 Q1314.8906,1021.4575 1314.25,1021.5981 Q1313.6094,1021.7544 1312.9063,1021.7544 Q1310.4063,1021.7544 1309.0781,1020.1138 Q1307.7656,1018.4575 1307.7656,1015.3325 Q1307.7656,1012.2075 1309.0781,1010.5513 Q1310.4063,1008.895 1312.9063,1008.895 Q1313.6094,1008.895 1314.25,1009.0513 Q1314.9063,1009.2075 1315.4688,1009.5044 L1315.4688,1012.2231 Q1314.8438,1011.645 1314.25,1011.3794 Q1313.6563,1011.0981 1313.0313,1011.0981 Q1311.6875,1011.0981 1311,1012.1763 Q1310.3125,1013.2388 1310.3125,1015.3325 Q1310.3125,1017.4263 1311,1018.5044 Q1311.6875,1019.5669 1313.0313,1019.5669 Q1313.6563,1019.5669 1314.25,1019.3013 Q1314.8438,1019.02 1315.4688,1018.4419 L1315.4688,1021.1606 Z " fill="#000000"/><text fill="#000000" font-family="sans-serif" font-size="14" lengthAdjust="spacing" textLength="158" x="1329.5" y="1020.3667">SewersUseCaseBridge</text><line style="stroke:#181818;stroke-width:0.5;" x1="1285" x2="1503" y1="1031.52" y2="1031.52"/><line style="stroke:#181818;stroke-width:0.5;" x1="1285" x2="1503" y1="1039.52" y2="1039.52"/><ellipse cx="1295" cy="1053.1684" fill="#84BE84" rx="3" ry="3" style="stroke:#038048;stroke-width:1.0;"/><text fill="#000000" font-family="sans-serif" font-size="14" lengthAdjust="spacing" textLength="194" x="1304" y="1056.5151">Set&lt;Sewer&gt; observe(UUID)</text><ellipse cx="1295" cy="1069.4653" fill="#84BE84" rx="3" ry="3" style="stroke:#038048;stroke-width:1.0;"/><text fill="#000000" font-family="sans-serif" font-size="14" lengthAdjust="spacing" textLength="139" x="1304" y="1072.812">void indicate(Sewer)</text></g><!--link SewerOverflowIndicationService to SewerOverflowIndicationComponent--><g id="link_SewerOverflowIndicationService_SewerOverflowIndicationComponent"><path codeLine="79" d="M264,330.75 C264,353.1 264,376.72 264,399.13 " fill="none" id="SewerOverflowIndicationService-to-SewerOverflowIndicationComponent" style="stroke:#181818;stroke-width:1.0;"/><polygon fill="#181818" points="264,405.13,268,396.13,264,400.13,260,396.13,264,405.13" style="stroke:#181818;stroke-width:1.0;"/></g><!--link FlowIndicationComponent to Sewers--><g id="link_FlowIndicationComponent_Sewers"><path codeLine="80" d="M810.94,437.86 C836.05,437.86 853.67,437.86 853.67,437.86 C853.67,437.86 853.67,687.65 853.67,789.07 " fill="none" id="FlowIndicationComponent-to-Sewers" style="stroke:#181818;stroke-width:1.0;"/><polygon fill="#181818" points="853.67,795.07,857.67,786.07,853.67,790.07,849.67,786.07,853.67,795.07" style="stroke:#181818;stroke-width:1.0;"/></g><!--link PumpIndicationComponent to Sewers--><g id="link_PumpIndicationComponent_Sewers"><path codeLine="81" d="M791.67,594.52 C791.67,644.65 791.67,734.79 791.67,789.36 " fill="none" id="PumpIndicationComponent-to-Sewers" style="stroke:#181818;stroke-width:1.0;"/><polygon fill="#181818" points="791.67,795.36,795.67,786.36,791.67,790.36,787.67,786.36,791.67,795.36" style="stroke:#181818;stroke-width:1.0;"/></g><!--link RainShortageIndicationComponent to Sewers--><g id="link_RainShortageIndicationComponent_Sewers"><path codeLine="82" d="M425,594.51 C425,631.49 425,686.86 425,686.86 C425,686.86 772.83,686.86 772.83,686.86 C772.83,686.86 772.83,745 772.83,789.09 " fill="none" id="RainShortageIndicationComponent-to-Sewers" style="stroke:#181818;stroke-width:1.0;"/><polygon fill="#181818" points="772.83,795.09,776.83,786.09,772.83,790.09,768.83,786.09,772.83,795.09" style="stroke:#181818;stroke-width:1.0;"/></g><!--link SewerOverflowIndicationComponent to RainShortageIndicationComponent--><g id="link_SewerOverflowIndicationComponent_RainShortageIndicationComponent"><path codeLine="83" d="M264,470.08 C264,488.35 264,505.12 264,523.44 " fill="none" id="SewerOverflowIndicationComponent-to-RainShortageIndicationComponent" style="stroke:#181818;stroke-width:1.0;"/><polygon fill="#181818" points="264,529.44,268,520.44,264,524.44,260,520.44,264,529.44" style="stroke:#181818;stroke-width:1.0;"/></g><!--link SewerOverflowIndicationComponent to Sewers--><g id="link_SewerOverflowIndicationComponent_Sewers"><path codeLine="84" d="M411.75,405.32 C411.75,387.45 411.75,368.86 411.75,368.86 C411.75,368.86 896.83,368.86 896.83,368.86 C896.83,368.86 896.83,675.56 896.83,789.16 " fill="none" id="SewerOverflowIndicationComponent-to-Sewers" style="stroke:#181818;stroke-width:1.0;"/><polygon fill="#181818" points="896.83,795.16,900.83,786.16,896.83,790.16,892.83,786.16,896.83,795.16" style="stroke:#181818;stroke-width:1.0;"/></g><!--link SewerOverflowIndicationComponent to PumpIndicationComponent--><g id="link_SewerOverflowIndicationComponent_PumpIndicationComponent"><path codeLine="85" d="M434.99,437.86 C442.53,437.86 447,437.86 447,437.86 C447,437.86 447,562.86 447,562.86 C447,562.86 449.59,562.86 463.14,562.86 " fill="none" id="SewerOverflowIndicationComponent-to-PumpIndicationComponent" style="stroke:#181818;stroke-width:1.0;"/><polygon fill="#181818" points="469.14,562.86,460.14,558.86,464.14,562.86,460.14,566.86,469.14,562.86" style="stroke:#181818;stroke-width:1.0;"/></g><!--link SewerObservationService to SewerObservationComponent--><g id="link_SewerObservationService_SewerObservationComponent"><path codeLine="86" d="M1078,470.08 C1078,488.35 1078,505.12 1078,523.44 " fill="none" id="SewerObservationService-to-SewerObservationComponent" style="stroke:#181818;stroke-width:1.0;"/><polygon fill="#181818" points="1078,529.44,1082,520.44,1078,524.44,1074,520.44,1078,529.44" style="stroke:#181818;stroke-width:1.0;"/></g><!--link SewerObservationComponent to Sewers--><g id="link_SewerObservationComponent_Sewers"><path codeLine="87" d="M957,594.52 C957,644.65 957,734.79 957,789.36 " fill="none" id="SewerObservationComponent-to-Sewers" style="stroke:#181818;stroke-width:1.0;"/><polygon fill="#181818" points="957,795.36,961,786.36,957,790.36,953,786.36,957,795.36" style="stroke:#181818;stroke-width:1.0;"/></g><!--link Sewer to Problem--><g id="link_Sewer_Problem"><path codeLine="88" d="M706.5,892.63 C706.5,953.01 706.5,1039.86 706.5,1039.86 C706.5,1039.86 719.73,1039.86 745.12,1039.86 " fill="none" id="Sewer-to-Problem" style="stroke:#181818;stroke-width:1.0;"/><polygon fill="#181818" points="751.12,1039.86,742.12,1035.86,746.12,1039.86,742.12,1043.86,751.12,1039.86" style="stroke:#181818;stroke-width:1.0;"/></g><!--link Sewer to KeyPerformanceIndicator--><g id="link_Sewer_KeyPerformanceIndicator"><path codeLine="89" d="M577,892.62 C577,923.51 577,955.33 577,984.9 " fill="none" id="Sewer-to-KeyPerformanceIndicator" style="stroke:#181818;stroke-width:1.0;"/><polygon fill="#181818" points="577,990.9,581,981.9,577,985.9,573,981.9,577,990.9" style="stroke:#181818;stroke-width:1.0;"/></g><!--link SewerIndicationUseCase to SewerOverflowIndicationService--><g id="link_SewerIndicationUseCase_SewerOverflowIndicationService"><path codeLine="90" d="M264,148.74 C264,181.82 264,226.74 264,259.83 " fill="none" id="SewerIndicationUseCase-to-SewerOverflowIndicationService" style="stroke:#181818;stroke-width:1.0;"/><polygon fill="#181818" points="264,265.83,268,256.83,264,260.83,260,256.83,264,265.83" style="stroke:#181818;stroke-width:1.0;"/></g><!--link SewerObservationUseCase to SewerObservationService--><g id="link_SewerObservationUseCase_SewerObservationService"><path codeLine="91" d="M1283.74,298.86 C1193.26,298.86 1080,298.86 1080,298.86 C1080,298.86 1080,358.13 1080,399.18 " fill="none" id="SewerObservationUseCase-to-SewerObservationService" style="stroke:#181818;stroke-width:1.0;"/><polygon fill="#181818" points="1080,405.18,1084,396.18,1080,400.18,1076,396.18,1080,405.18" style="stroke:#181818;stroke-width:1.0;"/></g><!--reverse link Sewers to SewersUseCaseBridge--><g id="link_Sewers_SewersUseCaseBridge"><path codeLine="92" d="M992.46,835.86 C1147.79,835.86 1394,835.86 1394,835.86 C1394,835.86 1394,939.52 1394,999.04 " fill="none" id="Sewers-backto-SewersUseCaseBridge" style="stroke:#181818;stroke-width:1.0;stroke-dasharray:7.0,7.0;"/><polygon fill="none" points="974.46,835.86,992.46,841.86,992.46,829.86,974.46,835.86" style="stroke:#181818;stroke-width:1.0;"/></g><!--link SewersUseCaseBridge to SewersUseCase--><g id="link_SewersUseCaseBridge_SewersUseCase"><path codeLine="93" d="M1394,1080.24 C1394,1106.76 1394,1135.32 1394,1161.89 " fill="none" id="SewersUseCaseBridge-to-SewersUseCase" style="stroke:#181818;stroke-width:1.0;"/><polygon fill="#181818" points="1394,1167.89,1398,1158.89,1394,1162.89,1390,1158.89,1394,1167.89" style="stroke:#181818;stroke-width:1.0;"/></g><!--SRC=[vLVHRfim57tdAppoaccjDKrxMAKgazPfKbHjZHhrUJ9mIRs0ZModNTJrtsSm98I4a9ROQxMd8BY-vvoRw-lZDvaWivIWXOGnKo1IY2XHC27XdCn0efWa4ZmvfomZWgGeeGpKCWF4XRhbdhpbzqZgTS3pjrvcrg58q3iG4X698i0XJpF2bZWJN1LnMC8z25n53UHy6IGBG0-Fgmma8fawE0LUXGy-VOZZu6CzbTRsCoGIdfeBhnSEulYCd9tLim9JLD4UIV4gmo0EuoXuNyyUy0MBY5ZspuufYsYe_rEyoZb8QBfHx90p9NXY0mnNkGTS43O3Io9v847SkT7On78aqKIw4BY9j4zUiMHf3HAN-Urk41CvpwZ3ujRH71Pu5wpB8kkLGGAfmq8t4HqMkmtQQi4FcFRzGRgdRN-C8a3kWF32X4Y9_6aUSAMNnmc_7nlPbBEfPaP3yAqSPlinqOE7qBixJYDKr6VudMJdKoKecvqWypjwwprM0hvjvBZGH3dJsBxDOnYtWDQemsy85sgJ_6VzLW6B9BeAVa6ewZ8cYpHpBgC5j8UCQqBPz5RRMjs-pkLqWFUGrTAnZdHreVSMLWoYO-_xBOFNWcNOJq6T5m6ZSjSRzdke7hNuRMuKjw9kqQvAloPEyxjWJBH4Grxwn_Tu9h4XWnv889KWeNgiyIgb3Mzknb_VDiAAdgaQRrWiQ5RSj-rBZGIZ8EU8Pg36qR2WUWdBYIuX5obXORMdkSX3BZDgOdAf4sCIHlc7ybcQh-KvidvR3wzfRK7oNPX6t2RJj5ZHJuKoFQudN2Uxu4pgvxmVongiOlAJoRpxiKW3A4gLpyMO9CcmVjwO4lYkV1ek0PkQhe78IiMQyVQm6pRxSltfHiA5PkGVqUxXtH1RrgHpIFNdrZb6DxZj6QDRqwW_juQxn1jvTywayWHwmb3A8qxAawjPw0hgYw3Hp9eGatshlbiIMeQfQ_jyUZhwTrR4SswvZo1tvv7gENVThqz9b-5-VOewhRRLtTLHpzSj-x_w9rlskEVgJdK4SK-_4ddkBs4ljIyFkV4SZVk1rljLQNh6TScpRFwj38pzPiwpV6UmCIPQHf9dpvdZ1VxpeiR08QIVN_gzsVy2]--></g></svg>