<svg xmlns="http://www.w3.org/2000/svg" xmlns:xlink="http://www.w3.org/1999/xlink" contentStyleType="text/css" height="1075px" preserveAspectRatio="none" style="width:2201px;height:1075px;background:#FFFFFF;" version="1.1" viewBox="0 0 2201 1075" width="2201px" zoomAndPan="magnify"><defs/><g><!--cluster use_cases--><g id="cluster_use_cases"><path d="M8.5,6 L466.5,6 A3.75,3.75 0 0 1 469,8.5 L476,28.2969 L2191.5,28.2969 A2.5,2.5 0 0 1 2194,30.7969 L2194,1065.58 A2.5,2.5 0 0 1 2191.5,1068.08 L8.5,1068.08 A2.5,2.5 0 0 1 6,1065.58 L6,8.5 A2.5,2.5 0 0 1 8.5,6 " fill="#FF9A99" style="stroke:#000000;stroke-width:1.5;"/><line style="stroke:#000000;stroke-width:1.5;" x1="6" x2="476" y1="28.2969" y2="28.2969"/><text fill="#000000" font-family="sans-serif" font-size="14" font-weight="bold" lengthAdjust="spacing" textLength="457" x="10" y="20.9951">de.company.prototype.sewer.drivers.adapters.use_cases</text></g><!--cluster entities--><g id="cluster_entities"><path d="M32.5,188.3 L92.5,188.3 A3.75,3.75 0 0 1 95,190.8 L102,210.5969 L1889.5,210.5969 A2.5,2.5 0 0 1 1892,213.0969 L1892,928.99 A2.5,2.5 0 0 1 1889.5,931.49 L32.5,931.49 A2.5,2.5 0 0 1 30,928.99 L30,190.8 A2.5,2.5 0 0 1 32.5,188.3 " fill="#FCFDB0" style="stroke:#000000;stroke-width:1.5;"/><line style="stroke:#000000;stroke-width:1.5;" x1="30" x2="102" y1="210.5969" y2="210.5969"/><text fill="#000000" font-family="sans-serif" font-size="14" font-weight="bold" lengthAdjust="spacing" textLength="59" x="34" y="203.2951">entities</text></g><!--cluster boundary--><g id="cluster_boundary"><path d="M56.5,231.3 L199.5,231.3 A3.75,3.75 0 0 1 202,233.8 L209,253.5969 L1223.5,253.5969 A2.5,2.5 0 0 1 1226,256.0969 L1226,741.69 A2.5,2.5 0 0 1 1223.5,744.19 L56.5,744.19 A2.5,2.5 0 0 1 54,741.69 L54,233.8 A2.5,2.5 0 0 1 56.5,231.3 " fill="#00FF00" style="stroke:#000000;stroke-width:1.5;"/><line style="stroke:#000000;stroke-width:1.5;" x1="54" x2="209" y1="253.5969" y2="253.5969"/><text fill="#000000" font-family="sans-serif" font-size="14" font-weight="bold" lengthAdjust="spacing" textLength="142" x="58" y="246.2951">indicate.boundary</text></g><!--cluster control--><g id="cluster_control"><path d="M80.5,355.6 L137.5,355.6 A3.75,3.75 0 0 1 140,358.1 L147,377.8969 L1199.5,377.8969 A2.5,2.5 0 0 1 1202,380.3969 L1202,717.69 A2.5,2.5 0 0 1 1199.5,720.19 L80.5,720.19 A2.5,2.5 0 0 1 78,717.69 L78,358.1 A2.5,2.5 0 0 1 80.5,355.6 " fill="#FFA500" style="stroke:#000000;stroke-width:1.5;"/><line style="stroke:#000000;stroke-width:1.5;" x1="78" x2="147" y1="377.8969" y2="377.8969"/><text fill="#000000" font-family="sans-serif" font-size="14" font-weight="bold" lengthAdjust="spacing" textLength="56" x="82" y="370.5951">control</text></g><!--cluster boundary--><g id="cluster_boundary"><path d="M1550.5,231.3 L1696.5,231.3 A3.75,3.75 0 0 1 1699,233.8 L1706,253.5969 L1865.5,253.5969 A2.5,2.5 0 0 1 1868,256.0969 L1868,492.39 A2.5,2.5 0 0 1 1865.5,494.89 L1550.5,494.89 A2.5,2.5 0 0 1 1548,492.39 L1548,233.8 A2.5,2.5 0 0 1 1550.5,231.3 " fill="#00FF00" style="stroke:#000000;stroke-width:1.5;"/><line style="stroke:#000000;stroke-width:1.5;" x1="1548" x2="1706" y1="253.5969" y2="253.5969"/><text fill="#000000" font-family="sans-serif" font-size="14" font-weight="bold" lengthAdjust="spacing" textLength="145" x="1552" y="246.2951">observe.boundary</text></g><!--cluster control--><g id="cluster_control"><path d="M1574.5,355.6 L1631.5,355.6 A3.75,3.75 0 0 1 1634,358.1 L1641,377.8969 L1841.5,377.8969 A2.5,2.5 0 0 1 1844,380.3969 L1844,468.39 A2.5,2.5 0 0 1 1841.5,470.89 L1574.5,470.89 A2.5,2.5 0 0 1 1572,468.39 L1572,358.1 A2.5,2.5 0 0 1 1574.5,355.6 " fill="#FFA500" style="stroke:#000000;stroke-width:1.5;"/><line style="stroke:#000000;stroke-width:1.5;" x1="1572" x2="1641" y1="377.8969" y2="377.8969"/><text fill="#000000" font-family="sans-serif" font-size="14" font-weight="bold" lengthAdjust="spacing" textLength="56" x="1576" y="370.5951">control</text></g><!--cluster sewer--><g id="cluster_sewer"><path d="M1252.5,518.89 L1303.5,518.89 A3.75,3.75 0 0 1 1306,521.39 L1313,541.1869 L1865.5,541.1869 A2.5,2.5 0 0 1 1868,543.6869 L1868,904.99 A2.5,2.5 0 0 1 1865.5,907.49 L1252.5,907.49 A2.5,2.5 0 0 1 1250,904.99 L1250,521.39 A2.5,2.5 0 0 1 1252.5,518.89 " fill="none" style="stroke:#000000;stroke-width:1.5;"/><line style="stroke:#000000;stroke-width:1.5;" x1="1250" x2="1313" y1="541.1869" y2="541.1869"/><text fill="#000000" font-family="sans-serif" font-size="14" font-weight="bold" lengthAdjust="spacing" textLength="50" x="1254" y="533.8851">sewer</text></g><!--cluster boundary--><g id="cluster_boundary"><path d="M1276.5,561.89 L1352.5,561.89 A3.75,3.75 0 0 1 1355,564.39 L1362,584.1869 L1841.5,584.1869 A2.5,2.5 0 0 1 1844,586.6869 L1844,741.69 A2.5,2.5 0 0 1 1841.5,744.19 L1276.5,744.19 A2.5,2.5 0 0 1 1274,741.69 L1274,564.39 A2.5,2.5 0 0 1 1276.5,561.89 " fill="#00FF00" style="stroke:#000000;stroke-width:1.5;"/><line style="stroke:#000000;stroke-width:1.5;" x1="1274" x2="1362" y1="584.1869" y2="584.1869"/><text fill="#000000" font-family="sans-serif" font-size="14" font-weight="bold" lengthAdjust="spacing" textLength="75" x="1278" y="576.8851">boundary</text></g><!--cluster entity--><g id="cluster_entity"><path d="M1300.5,604.89 L1407.5,604.89 A3.75,3.75 0 0 1 1410,607.39 L1417,627.1869 L1585.5,627.1869 A2.5,2.5 0 0 1 1588,629.6869 L1588,717.69 A2.5,2.5 0 0 1 1585.5,720.19 L1300.5,720.19 A2.5,2.5 0 0 1 1298,717.69 L1298,607.39 A2.5,2.5 0 0 1 1300.5,604.89 " fill="#FCFDB0" style="stroke:#000000;stroke-width:1.5;"/><line style="stroke:#000000;stroke-width:1.5;" x1="1298" x2="1417" y1="627.1869" y2="627.1869"/><text fill="#000000" font-family="sans-serif" font-size="14" font-weight="bold" lengthAdjust="spacing" textLength="106" x="1302" y="619.8851">control.entity</text></g><!--cluster entity--><g id="cluster_entity"><path d="M1295.5,784.49 L1510.5,784.49 A3.75,3.75 0 0 1 1513,786.99 L1520,806.7869 L1526.5,806.7869 A2.5,2.5 0 0 1 1529,809.2869 L1529,880.99 A2.5,2.5 0 0 1 1526.5,883.49 L1295.5,883.49 A2.5,2.5 0 0 1 1293,880.99 L1293,786.99 A2.5,2.5 0 0 1 1295.5,784.49 " fill="#FCFDB0" style="stroke:#000000;stroke-width:1.5;"/><line style="stroke:#000000;stroke-width:1.5;" x1="1293" x2="1520" y1="806.7869" y2="806.7869"/><text fill="#000000" font-family="sans-serif" font-size="14" font-weight="bold" lengthAdjust="spacing" textLength="214" x="1297" y="799.4851">kpi.boundary.control.entity</text></g><!--cluster entity--><g id="cluster_entity"><path d="M1555.5,784.49 L1812.5,784.49 A3.75,3.75 0 0 1 1815,786.99 L1822,806.7869 L1822.5,806.7869 A2.5,2.5 0 0 1 1825,809.2869 L1825,880.99 A2.5,2.5 0 0 1 1822.5,883.49 L1555.5,883.49 A2.5,2.5 0 0 1 1553,880.99 L1553,786.99 A2.5,2.5 0 0 1 1555.5,784.49 " fill="#FCFDB0" style="stroke:#000000;stroke-width:1.5;"/><line style="stroke:#000000;stroke-width:1.5;" x1="1553" x2="1822" y1="806.7869" y2="806.7869"/><text fill="#000000" font-family="sans-serif" font-size="14" font-weight="bold" lengthAdjust="spacing" textLength="256" x="1557" y="799.4851">problem.boundary.control.entity</text></g><!--cluster boundary--><g id="cluster_boundary"><path d="M713.5,49 L856.5,49 A3.75,3.75 0 0 1 859,51.5 L866,71.2969 L942.5,71.2969 A2.5,2.5 0 0 1 945,73.7969 L945,161.8 A2.5,2.5 0 0 1 942.5,164.3 L713.5,164.3 A2.5,2.5 0 0 1 711,161.8 L711,51.5 A2.5,2.5 0 0 1 713.5,49 " fill="#00FF00" style="stroke:#000000;stroke-width:1.5;"/><line style="stroke:#000000;stroke-width:1.5;" x1="711" x2="866" y1="71.2969" y2="71.2969"/><text fill="#000000" font-family="sans-serif" font-size="14" font-weight="bold" lengthAdjust="spacing" textLength="142" x="715" y="63.9951">indicate.boundary</text></g><!--cluster boundary--><g id="cluster_boundary"><path d="M1584.5,49 L1730.5,49 A3.75,3.75 0 0 1 1733,51.5 L1740,71.2969 L1831.5,71.2969 A2.5,2.5 0 0 1 1834,73.7969 L1834,161.8 A2.5,2.5 0 0 1 1831.5,164.3 L1584.5,164.3 A2.5,2.5 0 0 1 1582,161.8 L1582,51.5 A2.5,2.5 0 0 1 1584.5,49 " fill="#00FF00" style="stroke:#000000;stroke-width:1.5;"/><line style="stroke:#000000;stroke-width:1.5;" x1="1582" x2="1740" y1="71.2969" y2="71.2969"/><text fill="#000000" font-family="sans-serif" font-size="14" font-weight="bold" lengthAdjust="spacing" textLength="145" x="1586" y="63.9951">observe.boundary</text></g><!--cluster boundary--><g id="cluster_boundary"><path d="M1918.5,768.19 L2058.5,768.19 A3.75,3.75 0 0 1 2061,770.69 L2068,790.4869 L2167.5,790.4869 A2.5,2.5 0 0 1 2170,792.9869 L2170,1041.58 A2.5,2.5 0 0 1 2167.5,1044.08 L1918.5,1044.08 A2.5,2.5 0 0 1 1916,1041.58 L1916,770.69 A2.5,2.5 0 0 1 1918.5,768.19 " fill="#00FF00" style="stroke:#000000;stroke-width:1.5;"/><line style="stroke:#000000;stroke-width:1.5;" x1="1916" x2="2068" y1="790.4869" y2="790.4869"/><text fill="#000000" font-family="sans-serif" font-size="14" font-weight="bold" lengthAdjust="spacing" textLength="139" x="1920" y="783.1851">sewers.boundary</text></g><!--class SewerOverflowIndicationService--><g id="elem_SewerOverflowIndicationService"><rect codeLine="25" fill="#F1F1F1" height="64.2969" id="SewerOverflowIndicationService" rx="2.5" ry="2.5" style="stroke:#181818;stroke-width:0.5;" width="250" x="703" y="266.3"/><ellipse cx="718" cy="282.3" fill="#ADD1B2" rx="11" ry="11" style="stroke:#181818;stroke-width:1.0;"/><path d="M720.9688,287.9406 Q720.3906,288.2375 719.75,288.3781 Q719.1094,288.5344 718.4063,288.5344 Q715.9063,288.5344 714.5781,286.8937 Q713.2656,285.2375 713.2656,282.1125 Q713.2656,278.9875 714.5781,277.3312 Q715.9063,275.675 718.4063,275.675 Q719.1094,275.675 719.75,275.8312 Q720.4063,275.9875 720.9688,276.2844 L720.9688,279.0031 Q720.3438,278.425 719.75,278.1594 Q719.1563,277.8781 718.5313,277.8781 Q717.1875,277.8781 716.5,278.9562 Q715.8125,280.0187 715.8125,282.1125 Q715.8125,284.2062 716.5,285.2844 Q717.1875,286.3469 718.5313,286.3469 Q719.1563,286.3469 719.75,286.0812 Q720.3438,285.8 720.9688,285.2219 L720.9688,287.9406 Z " fill="#000000"/><text fill="#000000" font-family="sans-serif" font-size="14" lengthAdjust="spacing" textLength="218" x="732" y="287.1467">SewerOverflowIndicationService</text><line style="stroke:#181818;stroke-width:0.5;" x1="704" x2="952" y1="298.3" y2="298.3"/><line style="stroke:#181818;stroke-width:0.5;" x1="704" x2="952" y1="306.3" y2="306.3"/><ellipse cx="714" cy="319.9484" fill="#84BE84" rx="3" ry="3" style="stroke:#038048;stroke-width:1.0;"/><text fill="#000000" font-family="sans-serif" font-size="14" lengthAdjust="spacing" textLength="221" x="723" y="323.2951">void serve(Map&lt;String, String&gt;)</text></g><!--class FlowIndicationComponent--><g id="elem_FlowIndicationComponent"><rect codeLine="28" fill="#F1F1F1" height="64.2969" id="FlowIndicationComponent" rx="2.5" ry="2.5" style="stroke:#181818;stroke-width:0.5;" width="341" x="93.5" y="639.89"/><ellipse cx="170.25" cy="655.89" fill="#ADD1B2" rx="11" ry="11" style="stroke:#181818;stroke-width:1.0;"/><path d="M173.2188,661.5306 Q172.6406,661.8275 172,661.9681 Q171.3594,662.1244 170.6563,662.1244 Q168.1563,662.1244 166.8281,660.4837 Q165.5156,658.8275 165.5156,655.7025 Q165.5156,652.5775 166.8281,650.9212 Q168.1563,649.265 170.6563,649.265 Q171.3594,649.265 172,649.4212 Q172.6563,649.5775 173.2188,649.8744 L173.2188,652.5931 Q172.5938,652.015 172,651.7494 Q171.4063,651.4681 170.7813,651.4681 Q169.4375,651.4681 168.75,652.5462 Q168.0625,653.6087 168.0625,655.7025 Q168.0625,657.7962 168.75,658.8744 Q169.4375,659.9369 170.7813,659.9369 Q171.4063,659.9369 172,659.6712 Q172.5938,659.39 173.2188,658.8119 L173.2188,661.5306 Z " fill="#000000"/><text fill="#000000" font-family="sans-serif" font-size="14" lengthAdjust="spacing" textLength="179" x="190.75" y="660.7367">FlowIndicationComponent</text><line style="stroke:#181818;stroke-width:0.5;" x1="94.5" x2="433.5" y1="671.89" y2="671.89"/><line style="stroke:#181818;stroke-width:0.5;" x1="94.5" x2="433.5" y1="679.89" y2="679.89"/><ellipse cx="104.5" cy="693.5384" fill="#84BE84" rx="3" ry="3" style="stroke:#038048;stroke-width:1.0;"/><text fill="#000000" font-family="sans-serif" font-size="14" lengthAdjust="spacing" textLength="315" x="113.5" y="696.8851">void execute(Map&lt;String, ? extends Object&gt;)</text></g><!--class PumpIndicationComponent--><g id="elem_PumpIndicationComponent"><rect codeLine="31" fill="#F1F1F1" height="64.2969" id="PumpIndicationComponent" rx="2.5" ry="2.5" style="stroke:#181818;stroke-width:0.5;" width="341" x="469.5" y="639.89"/><ellipse cx="541.75" cy="655.89" fill="#ADD1B2" rx="11" ry="11" style="stroke:#181818;stroke-width:1.0;"/><path d="M544.7188,661.5306 Q544.1406,661.8275 543.5,661.9681 Q542.8594,662.1244 542.1563,662.1244 Q539.6563,662.1244 538.3281,660.4837 Q537.0156,658.8275 537.0156,655.7025 Q537.0156,652.5775 538.3281,650.9212 Q539.6563,649.265 542.1563,649.265 Q542.8594,649.265 543.5,649.4212 Q544.1563,649.5775 544.7188,649.8744 L544.7188,652.5931 Q544.0938,652.015 543.5,651.7494 Q542.9063,651.4681 542.2813,651.4681 Q540.9375,651.4681 540.25,652.5462 Q539.5625,653.6087 539.5625,655.7025 Q539.5625,657.7962 540.25,658.8744 Q540.9375,659.9369 542.2813,659.9369 Q542.9063,659.9369 543.5,659.6712 Q544.0938,659.39 544.7188,658.8119 L544.7188,661.5306 Z " fill="#000000"/><text fill="#000000" font-family="sans-serif" font-size="14" lengthAdjust="spacing" textLength="188" x="562.25" y="660.7367">PumpIndicationComponent</text><line style="stroke:#181818;stroke-width:0.5;" x1="470.5" x2="809.5" y1="671.89" y2="671.89"/><line style="stroke:#181818;stroke-width:0.5;" x1="470.5" x2="809.5" y1="679.89" y2="679.89"/><ellipse cx="480.5" cy="693.5384" fill="#84BE84" rx="3" ry="3" style="stroke:#038048;stroke-width:1.0;"/><text fill="#000000" font-family="sans-serif" font-size="14" lengthAdjust="spacing" textLength="315" x="489.5" y="696.8851">void execute(Map&lt;String, ? extends Object&gt;)</text></g><!--class RainIndicationComponent--><g id="elem_RainIndicationComponent"><rect codeLine="34" fill="#F1F1F1" height="64.2969" id="RainIndicationComponent" rx="2.5" ry="2.5" style="stroke:#181818;stroke-width:0.5;" width="341" x="845.5" y="639.89"/><ellipse cx="922.75" cy="655.89" fill="#ADD1B2" rx="11" ry="11" style="stroke:#181818;stroke-width:1.0;"/><path d="M925.7188,661.5306 Q925.1406,661.8275 924.5,661.9681 Q923.8594,662.1244 923.1563,662.1244 Q920.6563,662.1244 919.3281,660.4837 Q918.0156,658.8275 918.0156,655.7025 Q918.0156,652.5775 919.3281,650.9212 Q920.6563,649.265 923.1563,649.265 Q923.8594,649.265 924.5,649.4212 Q925.1563,649.5775 925.7188,649.8744 L925.7188,652.5931 Q925.0938,652.015 924.5,651.7494 Q923.9063,651.4681 923.2813,651.4681 Q921.9375,651.4681 921.25,652.5462 Q920.5625,653.6087 920.5625,655.7025 Q920.5625,657.7962 921.25,658.8744 Q921.9375,659.9369 923.2813,659.9369 Q923.9063,659.9369 924.5,659.6712 Q925.0938,659.39 925.7188,658.8119 L925.7188,661.5306 Z " fill="#000000"/><text fill="#000000" font-family="sans-serif" font-size="14" lengthAdjust="spacing" textLength="178" x="943.25" y="660.7367">RainIndicationComponent</text><line style="stroke:#181818;stroke-width:0.5;" x1="846.5" x2="1185.5" y1="671.89" y2="671.89"/><line style="stroke:#181818;stroke-width:0.5;" x1="846.5" x2="1185.5" y1="679.89" y2="679.89"/><ellipse cx="856.5" cy="693.5384" fill="#84BE84" rx="3" ry="3" style="stroke:#038048;stroke-width:1.0;"/><text fill="#000000" font-family="sans-serif" font-size="14" lengthAdjust="spacing" textLength="315" x="865.5" y="696.8851">void execute(Map&lt;String, ? extends Object&gt;)</text></g><!--class SewerOverflowIndicationComponent--><g id="elem_SewerOverflowIndicationComponent"><rect codeLine="37" fill="#F1F1F1" height="64.2969" id="SewerOverflowIndicationComponent" rx="2.5" ry="2.5" style="stroke:#181818;stroke-width:0.5;" width="341" x="657.5" y="390.6"/><ellipse cx="699.05" cy="406.6" fill="#ADD1B2" rx="11" ry="11" style="stroke:#181818;stroke-width:1.0;"/><path d="M702.0188,412.2406 Q701.4406,412.5375 700.8,412.6781 Q700.1594,412.8344 699.4563,412.8344 Q696.9563,412.8344 695.6281,411.1937 Q694.3156,409.5375 694.3156,406.4125 Q694.3156,403.2875 695.6281,401.6312 Q696.9563,399.975 699.4563,399.975 Q700.1594,399.975 700.8,400.1312 Q701.4563,400.2875 702.0188,400.5844 L702.0188,403.3031 Q701.3938,402.725 700.8,402.4594 Q700.2063,402.1781 699.5813,402.1781 Q698.2375,402.1781 697.55,403.2562 Q696.8625,404.3187 696.8625,406.4125 Q696.8625,408.5062 697.55,409.5844 Q698.2375,410.6469 699.5813,410.6469 Q700.2063,410.6469 700.8,410.3812 Q701.3938,410.1 702.0188,409.5219 L702.0188,412.2406 Z " fill="#000000"/><text fill="#000000" font-family="sans-serif" font-size="14" lengthAdjust="spacing" textLength="250" x="718.95" y="411.4467">SewerOverflowIndicationComponent</text><line style="stroke:#181818;stroke-width:0.5;" x1="658.5" x2="997.5" y1="422.6" y2="422.6"/><line style="stroke:#181818;stroke-width:0.5;" x1="658.5" x2="997.5" y1="430.6" y2="430.6"/><ellipse cx="668.5" cy="444.2484" fill="#84BE84" rx="3" ry="3" style="stroke:#038048;stroke-width:1.0;"/><text fill="#000000" font-family="sans-serif" font-size="14" lengthAdjust="spacing" textLength="315" x="677.5" y="447.5951">void execute(Map&lt;String, ? extends Object&gt;)</text></g><!--class SewerObservationService--><g id="elem_SewerObservationService"><rect codeLine="40" fill="#F1F1F1" height="64.2969" id="SewerObservationService" rx="2.5" ry="2.5" style="stroke:#181818;stroke-width:0.5;" width="208" x="1604" y="266.3"/><ellipse cx="1619" cy="282.3" fill="#ADD1B2" rx="11" ry="11" style="stroke:#181818;stroke-width:1.0;"/><path d="M1621.9688,287.9406 Q1621.3906,288.2375 1620.75,288.3781 Q1620.1094,288.5344 1619.4063,288.5344 Q1616.9063,288.5344 1615.5781,286.8937 Q1614.2656,285.2375 1614.2656,282.1125 Q1614.2656,278.9875 1615.5781,277.3312 Q1616.9063,275.675 1619.4063,275.675 Q1620.1094,275.675 1620.75,275.8312 Q1621.4063,275.9875 1621.9688,276.2844 L1621.9688,279.0031 Q1621.3438,278.425 1620.75,278.1594 Q1620.1563,277.8781 1619.5313,277.8781 Q1618.1875,277.8781 1617.5,278.9562 Q1616.8125,280.0187 1616.8125,282.1125 Q1616.8125,284.2062 1617.5,285.2844 Q1618.1875,286.3469 1619.5313,286.3469 Q1620.1563,286.3469 1620.75,286.0812 Q1621.3438,285.8 1621.9688,285.2219 L1621.9688,287.9406 Z " fill="#000000"/><text fill="#000000" font-family="sans-serif" font-size="14" lengthAdjust="spacing" textLength="176" x="1633" y="287.1467">SewerObservationService</text><line style="stroke:#181818;stroke-width:0.5;" x1="1605" x2="1811" y1="298.3" y2="298.3"/><line style="stroke:#181818;stroke-width:0.5;" x1="1605" x2="1811" y1="306.3" y2="306.3"/><ellipse cx="1615" cy="319.9484" fill="#84BE84" rx="3" ry="3" style="stroke:#038048;stroke-width:1.0;"/><text fill="#000000" font-family="sans-serif" font-size="14" lengthAdjust="spacing" textLength="182" x="1624" y="323.2951">Set&lt;Sewer&gt; serve(String)</text></g><!--class SewerObservationComponent--><g id="elem_SewerObservationComponent"><rect codeLine="43" fill="#F1F1F1" height="64.2969" id="SewerObservationComponent" rx="2.5" ry="2.5" style="stroke:#181818;stroke-width:0.5;" width="240" x="1588" y="390.6"/><ellipse cx="1603" cy="406.6" fill="#ADD1B2" rx="11" ry="11" style="stroke:#181818;stroke-width:1.0;"/><path d="M1605.9688,412.2406 Q1605.3906,412.5375 1604.75,412.6781 Q1604.1094,412.8344 1603.4063,412.8344 Q1600.9063,412.8344 1599.5781,411.1937 Q1598.2656,409.5375 1598.2656,406.4125 Q1598.2656,403.2875 1599.5781,401.6312 Q1600.9063,399.975 1603.4063,399.975 Q1604.1094,399.975 1604.75,400.1312 Q1605.4063,400.2875 1605.9688,400.5844 L1605.9688,403.3031 Q1605.3438,402.725 1604.75,402.4594 Q1604.1563,402.1781 1603.5313,402.1781 Q1602.1875,402.1781 1601.5,403.2562 Q1600.8125,404.3187 1600.8125,406.4125 Q1600.8125,408.5062 1601.5,409.5844 Q1602.1875,410.6469 1603.5313,410.6469 Q1604.1563,410.6469 1604.75,410.3812 Q1605.3438,410.1 1605.9688,409.5219 L1605.9688,412.2406 Z " fill="#000000"/><text fill="#000000" font-family="sans-serif" font-size="14" lengthAdjust="spacing" textLength="208" x="1617" y="411.4467">SewerObservationComponent</text><line style="stroke:#181818;stroke-width:0.5;" x1="1589" x2="1827" y1="422.6" y2="422.6"/><line style="stroke:#181818;stroke-width:0.5;" x1="1589" x2="1827" y1="430.6" y2="430.6"/><ellipse cx="1599" cy="444.2484" fill="#84BE84" rx="3" ry="3" style="stroke:#038048;stroke-width:1.0;"/><text fill="#000000" font-family="sans-serif" font-size="14" lengthAdjust="spacing" textLength="200" x="1608" y="447.5951">Set&lt;Sewer&gt; execute(String)</text></g><!--class Sewers--><g id="elem_Sewers"><rect codeLine="46" fill="#F1F1F1" height="80.5938" id="Sewers" rx="2.5" ry="2.5" style="stroke:#181818;stroke-width:0.5;" width="220" x="1608" y="631.74"/><ellipse cx="1688.25" cy="647.74" fill="#B4A7E5" rx="11" ry="11" style="stroke:#181818;stroke-width:1.0;"/><path d="M1684.1719,643.5056 L1684.1719,641.3494 L1691.5625,641.3494 L1691.5625,643.5056 L1689.0938,643.5056 L1689.0938,651.5838 L1691.5625,651.5838 L1691.5625,653.74 L1684.1719,653.74 L1684.1719,651.5838 L1686.6406,651.5838 L1686.6406,643.5056 L1684.1719,643.5056 Z " fill="#000000"/><text fill="#000000" font-family="sans-serif" font-size="14" font-style="italic" lengthAdjust="spacing" textLength="51" x="1708.75" y="652.5867">Sewers</text><line style="stroke:#181818;stroke-width:0.5;" x1="1609" x2="1827" y1="663.74" y2="663.74"/><line style="stroke:#181818;stroke-width:0.5;" x1="1609" x2="1827" y1="671.74" y2="671.74"/><ellipse cx="1619" cy="685.3884" fill="#84BE84" rx="3" ry="3" style="stroke:#038048;stroke-width:1.0;"/><text fill="#000000" font-family="sans-serif" font-size="14" font-style="italic" lengthAdjust="spacing" textLength="194" x="1628" y="688.7351">Set&lt;Sewer&gt; observe(UUID)</text><ellipse cx="1619" cy="701.6853" fill="#84BE84" rx="3" ry="3" style="stroke:#038048;stroke-width:1.0;"/><text fill="#000000" font-family="sans-serif" font-size="14" font-style="italic" lengthAdjust="spacing" textLength="139" x="1628" y="705.032">void indicate(Sewer)</text></g><!--class Sewer--><g id="elem_Sewer"><rect codeLine="50" fill="#F1F1F1" height="64.2969" id="Sewer" rx="2.5" ry="2.5" style="stroke:#181818;stroke-width:0.5;" width="259" x="1313.5" y="639.89"/><ellipse cx="1417.25" cy="655.89" fill="#ADD1B2" rx="11" ry="11" style="stroke:#181818;stroke-width:1.0;"/><path d="M1420.2188,661.5306 Q1419.6406,661.8275 1419,661.9681 Q1418.3594,662.1244 1417.6563,662.1244 Q1415.1563,662.1244 1413.8281,660.4837 Q1412.5156,658.8275 1412.5156,655.7025 Q1412.5156,652.5775 1413.8281,650.9212 Q1415.1563,649.265 1417.6563,649.265 Q1418.3594,649.265 1419,649.4212 Q1419.6563,649.5775 1420.2188,649.8744 L1420.2188,652.5931 Q1419.5938,652.015 1419,651.7494 Q1418.4063,651.4681 1417.7813,651.4681 Q1416.4375,651.4681 1415.75,652.5462 Q1415.0625,653.6087 1415.0625,655.7025 Q1415.0625,657.7962 1415.75,658.8744 Q1416.4375,659.9369 1417.7813,659.9369 Q1418.4063,659.9369 1419,659.6712 Q1419.5938,659.39 1420.2188,658.8119 L1420.2188,661.5306 Z " fill="#000000"/><text fill="#000000" font-family="sans-serif" font-size="14" lengthAdjust="spacing" textLength="43" x="1437.75" y="660.7367">Sewer</text><line style="stroke:#181818;stroke-width:0.5;" x1="1314.5" x2="1571.5" y1="671.89" y2="671.89"/><line style="stroke:#181818;stroke-width:0.5;" x1="1314.5" x2="1571.5" y1="679.89" y2="679.89"/><ellipse cx="1324.5" cy="693.5384" fill="#84BE84" rx="3" ry="3" style="stroke:#038048;stroke-width:1.0;"/><text fill="#000000" font-family="sans-serif" font-size="14" lengthAdjust="spacing" textLength="233" x="1333.5" y="696.8851">void setProblems(Set&lt;Problem&gt;)</text></g><!--class KeyPerformanceIndicator--><g id="elem_KeyPerformanceIndicator"><rect codeLine="53" fill="#F1F1F1" height="48" id="KeyPerformanceIndicator" rx="2.5" ry="2.5" style="stroke:#181818;stroke-width:0.5;" width="204" x="1309" y="819.49"/><ellipse cx="1324" cy="835.49" fill="#ADD1B2" rx="11" ry="11" style="stroke:#181818;stroke-width:1.0;"/><path d="M1326.9688,841.1306 Q1326.3906,841.4275 1325.75,841.5681 Q1325.1094,841.7244 1324.4063,841.7244 Q1321.9063,841.7244 1320.5781,840.0838 Q1319.2656,838.4275 1319.2656,835.3025 Q1319.2656,832.1775 1320.5781,830.5213 Q1321.9063,828.865 1324.4063,828.865 Q1325.1094,828.865 1325.75,829.0213 Q1326.4063,829.1775 1326.9688,829.4744 L1326.9688,832.1931 Q1326.3438,831.615 1325.75,831.3494 Q1325.1563,831.0681 1324.5313,831.0681 Q1323.1875,831.0681 1322.5,832.1463 Q1321.8125,833.2088 1321.8125,835.3025 Q1321.8125,837.3963 1322.5,838.4744 Q1323.1875,839.5369 1324.5313,839.5369 Q1325.1563,839.5369 1325.75,839.2713 Q1326.3438,838.99 1326.9688,838.4119 L1326.9688,841.1306 Z " fill="#000000"/><text fill="#000000" font-family="sans-serif" font-size="14" lengthAdjust="spacing" textLength="172" x="1338" y="840.3367">KeyPerformanceIndicator</text><line style="stroke:#181818;stroke-width:0.5;" x1="1310" x2="1512" y1="851.49" y2="851.49"/><line style="stroke:#181818;stroke-width:0.5;" x1="1310" x2="1512" y1="859.49" y2="859.49"/></g><!--class Problem--><g id="elem_Problem"><rect codeLine="55" fill="#F1F1F1" height="48" id="Problem" rx="2.5" ry="2.5" style="stroke:#181818;stroke-width:0.5;" width="89" x="1568.5" y="819.49"/><ellipse cx="1583.5" cy="835.49" fill="#ADD1B2" rx="11" ry="11" style="stroke:#181818;stroke-width:1.0;"/><path d="M1586.4688,841.1306 Q1585.8906,841.4275 1585.25,841.5681 Q1584.6094,841.7244 1583.9063,841.7244 Q1581.4063,841.7244 1580.0781,840.0838 Q1578.7656,838.4275 1578.7656,835.3025 Q1578.7656,832.1775 1580.0781,830.5213 Q1581.4063,828.865 1583.9063,828.865 Q1584.6094,828.865 1585.25,829.0213 Q1585.9063,829.1775 1586.4688,829.4744 L1586.4688,832.1931 Q1585.8438,831.615 1585.25,831.3494 Q1584.6563,831.0681 1584.0313,831.0681 Q1582.6875,831.0681 1582,832.1463 Q1581.3125,833.2088 1581.3125,835.3025 Q1581.3125,837.3963 1582,838.4744 Q1582.6875,839.5369 1584.0313,839.5369 Q1584.6563,839.5369 1585.25,839.2713 Q1585.8438,838.99 1586.4688,838.4119 L1586.4688,841.1306 Z " fill="#000000"/><text fill="#000000" font-family="sans-serif" font-size="14" lengthAdjust="spacing" textLength="57" x="1597.5" y="840.3367">Problem</text><line style="stroke:#181818;stroke-width:0.5;" x1="1569.5" x2="1656.5" y1="851.49" y2="851.49"/><line style="stroke:#181818;stroke-width:0.5;" x1="1569.5" x2="1656.5" y1="859.49" y2="859.49"/></g><!--class SewerIndicationUseCase--><g id="elem_SewerIndicationUseCase"><rect codeLine="57" fill="#F1F1F1" height="64.2969" id="SewerIndicationUseCase" rx="2.5" ry="2.5" style="stroke:#181818;stroke-width:0.5;" width="203" x="726.5" y="84"/><ellipse cx="741.5" cy="100" fill="#ADD1B2" rx="11" ry="11" style="stroke:#181818;stroke-width:1.0;"/><path d="M744.4688,105.6406 Q743.8906,105.9375 743.25,106.0781 Q742.6094,106.2344 741.9063,106.2344 Q739.4063,106.2344 738.0781,104.5937 Q736.7656,102.9375 736.7656,99.8125 Q736.7656,96.6875 738.0781,95.0312 Q739.4063,93.375 741.9063,93.375 Q742.6094,93.375 743.25,93.5312 Q743.9063,93.6875 744.4688,93.9844 L744.4688,96.7031 Q743.8438,96.125 743.25,95.8594 Q742.6563,95.5781 742.0313,95.5781 Q740.6875,95.5781 740,96.6562 Q739.3125,97.7187 739.3125,99.8125 Q739.3125,101.9062 740,102.9844 Q740.6875,104.0469 742.0313,104.0469 Q742.6563,104.0469 743.25,103.7812 Q743.8438,103.5 744.4688,102.9219 L744.4688,105.6406 Z " fill="#000000"/><text fill="#000000" font-family="sans-serif" font-size="14" lengthAdjust="spacing" textLength="171" x="755.5" y="104.8467">SewerIndicationUseCase</text><line style="stroke:#181818;stroke-width:0.5;" x1="727.5" x2="928.5" y1="116" y2="116"/><line style="stroke:#181818;stroke-width:0.5;" x1="727.5" x2="928.5" y1="124" y2="124"/><ellipse cx="737.5" cy="137.6484" fill="#84BE84" rx="3" ry="3" style="stroke:#038048;stroke-width:1.0;"/><text fill="#000000" font-family="sans-serif" font-size="14" lengthAdjust="spacing" textLength="120" x="746.5" y="140.9951">void serve(String)</text></g><!--class SewerObservationUseCase--><g id="elem_SewerObservationUseCase"><rect codeLine="60" fill="#F1F1F1" height="64.2969" id="SewerObservationUseCase" rx="2.5" ry="2.5" style="stroke:#181818;stroke-width:0.5;" width="220" x="1598" y="84"/><ellipse cx="1613" cy="100" fill="#ADD1B2" rx="11" ry="11" style="stroke:#181818;stroke-width:1.0;"/><path d="M1615.9688,105.6406 Q1615.3906,105.9375 1614.75,106.0781 Q1614.1094,106.2344 1613.4063,106.2344 Q1610.9063,106.2344 1609.5781,104.5937 Q1608.2656,102.9375 1608.2656,99.8125 Q1608.2656,96.6875 1609.5781,95.0312 Q1610.9063,93.375 1613.4063,93.375 Q1614.1094,93.375 1614.75,93.5312 Q1615.4063,93.6875 1615.9688,93.9844 L1615.9688,96.7031 Q1615.3438,96.125 1614.75,95.8594 Q1614.1563,95.5781 1613.5313,95.5781 Q1612.1875,95.5781 1611.5,96.6562 Q1610.8125,97.7187 1610.8125,99.8125 Q1610.8125,101.9062 1611.5,102.9844 Q1612.1875,104.0469 1613.5313,104.0469 Q1614.1563,104.0469 1614.75,103.7812 Q1615.3438,103.5 1615.9688,102.9219 L1615.9688,105.6406 Z " fill="#000000"/><text fill="#000000" font-family="sans-serif" font-size="14" lengthAdjust="spacing" textLength="188" x="1627" y="104.8467">SewerObservationUseCase</text><line style="stroke:#181818;stroke-width:0.5;" x1="1599" x2="1817" y1="116" y2="116"/><line style="stroke:#181818;stroke-width:0.5;" x1="1599" x2="1817" y1="124" y2="124"/><ellipse cx="1609" cy="137.6484" fill="#84BE84" rx="3" ry="3" style="stroke:#038048;stroke-width:1.0;"/><text fill="#000000" font-family="sans-serif" font-size="14" lengthAdjust="spacing" textLength="182" x="1618" y="140.9951">Set&lt;Sewer&gt; serve(String)</text></g><!--class SewersUseCase--><g id="elem_SewersUseCase"><rect codeLine="63" fill="#F1F1F1" height="80.5938" id="SewersUseCase" rx="2.5" ry="2.5" style="stroke:#181818;stroke-width:0.5;" width="222" x="1932" y="947.49"/><ellipse cx="1982.25" cy="963.49" fill="#B4A7E5" rx="11" ry="11" style="stroke:#181818;stroke-width:1.0;"/><path d="M1978.1719,959.2556 L1978.1719,957.0994 L1985.5625,957.0994 L1985.5625,959.2556 L1983.0938,959.2556 L1983.0938,967.3337 L1985.5625,967.3337 L1985.5625,969.49 L1978.1719,969.49 L1978.1719,967.3337 L1980.6406,967.3337 L1980.6406,959.2556 L1978.1719,959.2556 Z " fill="#000000"/><text fill="#000000" font-family="sans-serif" font-size="14" font-style="italic" lengthAdjust="spacing" textLength="113" x="2002.75" y="968.3367">SewersUseCase</text><line style="stroke:#181818;stroke-width:0.5;" x1="1933" x2="2153" y1="979.49" y2="979.49"/><line style="stroke:#181818;stroke-width:0.5;" x1="1933" x2="2153" y1="987.49" y2="987.49"/><ellipse cx="1943" cy="1001.1384" fill="#84BE84" rx="3" ry="3" style="stroke:#038048;stroke-width:1.0;"/><text fill="#000000" font-family="sans-serif" font-size="14" font-style="italic" lengthAdjust="spacing" textLength="196" x="1952" y="1004.4851">Set&lt;Object&gt; observe(UUID)</text><ellipse cx="1943" cy="1017.4353" fill="#84BE84" rx="3" ry="3" style="stroke:#038048;stroke-width:1.0;"/><text fill="#000000" font-family="sans-serif" font-size="14" font-style="italic" lengthAdjust="spacing" textLength="183" x="1952" y="1020.782">void indicate(UUID, Object)</text></g><!--class SewersUseCaseBridge--><g id="elem_SewersUseCaseBridge"><rect codeLine="67" fill="#F1F1F1" height="80.5938" id="SewersUseCaseBridge" rx="2.5" ry="2.5" style="stroke:#181818;stroke-width:0.5;" width="220" x="1932" y="803.19"/><ellipse cx="1960.5" cy="819.19" fill="#ADD1B2" rx="11" ry="11" style="stroke:#181818;stroke-width:1.0;"/><path d="M1963.4688,824.8306 Q1962.8906,825.1275 1962.25,825.2681 Q1961.6094,825.4244 1960.9063,825.4244 Q1958.4063,825.4244 1957.0781,823.7837 Q1955.7656,822.1275 1955.7656,819.0025 Q1955.7656,815.8775 1957.0781,814.2212 Q1958.4063,812.565 1960.9063,812.565 Q1961.6094,812.565 1962.25,812.7212 Q1962.9063,812.8775 1963.4688,813.1744 L1963.4688,815.8931 Q1962.8438,815.315 1962.25,815.0494 Q1961.6563,814.7681 1961.0313,814.7681 Q1959.6875,814.7681 1959,815.8462 Q1958.3125,816.9087 1958.3125,819.0025 Q1958.3125,821.0962 1959,822.1744 Q1959.6875,823.2369 1961.0313,823.2369 Q1961.6563,823.2369 1962.25,822.9712 Q1962.8438,822.69 1963.4688,822.1119 L1963.4688,824.8306 Z " fill="#000000"/><text fill="#000000" font-family="sans-serif" font-size="14" lengthAdjust="spacing" textLength="158" x="1977.5" y="824.0367">SewersUseCaseBridge</text><line style="stroke:#181818;stroke-width:0.5;" x1="1933" x2="2151" y1="835.19" y2="835.19"/><line style="stroke:#181818;stroke-width:0.5;" x1="1933" x2="2151" y1="843.19" y2="843.19"/><ellipse cx="1943" cy="856.8384" fill="#84BE84" rx="3" ry="3" style="stroke:#038048;stroke-width:1.0;"/><text fill="#000000" font-family="sans-serif" font-size="14" lengthAdjust="spacing" textLength="194" x="1952" y="860.1851">Set&lt;Sewer&gt; observe(UUID)</text><ellipse cx="1943" cy="873.1353" fill="#84BE84" rx="3" ry="3" style="stroke:#038048;stroke-width:1.0;"/><text fill="#000000" font-family="sans-serif" font-size="14" lengthAdjust="spacing" textLength="139" x="1952" y="876.482">void indicate(Sewer)</text></g><!--link SewerOverflowIndicationService to SewerOverflowIndicationComponent--><g id="link_SewerOverflowIndicationService_SewerOverflowIndicationComponent"><path codeLine="71" d="M828,330.78 C828,349.05 828,365.83 828,384.14 " fill="none" id="SewerOverflowIndicationService-to-SewerOverflowIndicationComponent" style="stroke:#181818;stroke-width:1.0;"/><polygon fill="#181818" points="828,390.14,832,381.14,828,385.14,824,381.14,828,390.14" style="stroke:#181818;stroke-width:1.0;"/></g><!--link SewerOverflowIndicationComponent to Sewers--><g id="link_SewerOverflowIndicationComponent_Sewers"><path codeLine="72" d="M947.5,455.15 C947.5,514.83 947.5,636.08 947.5,636.08 C947.5,636.08 1388.56,636.08 1601.61,636.08 " fill="none" id="SewerOverflowIndicationComponent-to-Sewers" style="stroke:#181818;stroke-width:1.0;"/><polygon fill="#181818" points="1607.61,636.08,1598.61,632.08,1602.61,636.08,1598.61,640.08,1607.61,636.08" style="stroke:#181818;stroke-width:1.0;"/></g><!--link SewerOverflowIndicationComponent to RainIndicationComponent--><g id="link_SewerOverflowIndicationComponent_RainIndicationComponent"><path codeLine="73" d="M896.5,455.34 C896.5,503.11 896.5,585.66 896.5,633.44 " fill="none" id="SewerOverflowIndicationComponent-to-RainIndicationComponent" style="stroke:#181818;stroke-width:1.0;"/><polygon fill="#181818" points="896.5,639.44,900.5,630.44,896.5,634.44,892.5,630.44,896.5,639.44" style="stroke:#181818;stroke-width:1.0;"/></g><!--link SewerOverflowIndicationComponent to PumpIndicationComponent--><g id="link_SewerOverflowIndicationComponent_PumpIndicationComponent"><path codeLine="74" d="M734,455.34 C734,503.11 734,585.66 734,633.44 " fill="none" id="SewerOverflowIndicationComponent-to-PumpIndicationComponent" style="stroke:#181818;stroke-width:1.0;"/><polygon fill="#181818" points="734,639.44,738,630.44,734,634.44,730,630.44,734,639.44" style="stroke:#181818;stroke-width:1.0;"/></g><!--link SewerOverflowIndicationComponent to FlowIndicationComponent--><g id="link_SewerOverflowIndicationComponent_FlowIndicationComponent"><path codeLine="75" d="M657.25,423.08 C491.25,423.08 264,423.08 264,423.08 C264,423.08 264,566.01 264,633.49 " fill="none" id="SewerOverflowIndicationComponent-to-FlowIndicationComponent" style="stroke:#181818;stroke-width:1.0;"/><polygon fill="#181818" points="264,639.49,268,630.49,264,634.49,260,630.49,264,639.49" style="stroke:#181818;stroke-width:1.0;"/></g><!--link SewerObservationService to SewerObservationComponent--><g id="link_SewerObservationService_SewerObservationComponent"><path codeLine="76" d="M1708,330.78 C1708,349.05 1708,365.83 1708,384.14 " fill="none" id="SewerObservationService-to-SewerObservationComponent" style="stroke:#181818;stroke-width:1.0;"/><polygon fill="#181818" points="1708,390.14,1712,381.14,1708,385.14,1704,381.14,1708,390.14" style="stroke:#181818;stroke-width:1.0;"/></g><!--link SewerObservationComponent to Sewers--><g id="link_SewerObservationComponent_Sewers"><path codeLine="77" d="M1718,455.34 C1718,500.61 1718,576.48 1718,625.59 " fill="none" id="SewerObservationComponent-to-Sewers" style="stroke:#181818;stroke-width:1.0;"/><polygon fill="#181818" points="1718,631.59,1722,622.59,1718,626.59,1714,622.59,1718,631.59" style="stroke:#181818;stroke-width:1.0;"/></g><!--link Sewer to Problem--><g id="link_Sewer_Problem"><path codeLine="78" d="M1572.87,672.08 C1577.54,672.08 1580.25,672.08 1580.25,672.08 C1580.25,672.08 1580.25,766.04 1580.25,813.29 " fill="none" id="Sewer-to-Problem" style="stroke:#181818;stroke-width:1.0;"/><polygon fill="#181818" points="1580.25,819.29,1584.25,810.29,1580.25,814.29,1576.25,810.29,1580.25,819.29" style="stroke:#181818;stroke-width:1.0;"/></g><!--link Sewer to KeyPerformanceIndicator--><g id="link_Sewer_KeyPerformanceIndicator"><path codeLine="79" d="M1413.25,704.29 C1413.25,737.66 1413.25,783.02 1413.25,813.14 " fill="none" id="Sewer-to-KeyPerformanceIndicator" style="stroke:#181818;stroke-width:1.0;"/><polygon fill="#181818" points="1413.25,819.14,1417.25,810.14,1413.25,814.14,1409.25,810.14,1413.25,819.14" style="stroke:#181818;stroke-width:1.0;"/></g><!--link SewerIndicationUseCase to SewerOverflowIndicationService--><g id="link_SewerIndicationUseCase_SewerOverflowIndicationService"><path codeLine="80" d="M828,148.74 C828,181.82 828,226.74 828,259.83 " fill="none" id="SewerIndicationUseCase-to-SewerOverflowIndicationService" style="stroke:#181818;stroke-width:1.0;"/><polygon fill="#181818" points="828,265.83,832,256.83,828,260.83,824,256.83,828,265.83" style="stroke:#181818;stroke-width:1.0;"/></g><!--link SewerObservationUseCase to SewerObservationService--><g id="link_SewerObservationUseCase_SewerObservationService"><path codeLine="81" d="M1708,148.74 C1708,181.82 1708,226.74 1708,259.83 " fill="none" id="SewerObservationUseCase-to-SewerObservationService" style="stroke:#181818;stroke-width:1.0;"/><polygon fill="#181818" points="1708,265.83,1712,256.83,1708,260.83,1704,256.83,1708,265.83" style="stroke:#181818;stroke-width:1.0;"/></g><!--reverse link Sewers to SewersUseCaseBridge--><g id="link_Sewers_SewersUseCaseBridge"><path codeLine="82" d="M1742.75,730.55 C1742.75,771.9 1742.75,812.08 1742.75,812.08 C1742.75,812.08 1846.52,812.08 1931.85,812.08 " fill="none" id="Sewers-backto-SewersUseCaseBridge" style="stroke:#181818;stroke-width:1.0;stroke-dasharray:7.0,7.0;"/><polygon fill="none" points="1742.75,712.55,1736.75,730.55,1748.75,730.55,1742.75,712.55" style="stroke:#181818;stroke-width:1.0;"/></g><!--link SewersUseCaseBridge to SewersUseCase--><g id="link_SewersUseCaseBridge_SewersUseCase"><path codeLine="83" d="M2042,884.06 C2042,903.74 2042,921.31 2042,941.01 " fill="none" id="SewersUseCaseBridge-to-SewersUseCase" style="stroke:#181818;stroke-width:1.0;"/><polygon fill="#181818" points="2042,947.01,2046,938.01,2042,942.01,2038,938.01,2042,947.01" style="stroke:#181818;stroke-width:1.0;"/></g><!--SRC=[tLTRRzem57xFh_322zLQQvhsi4fL9wrJ9JHDHKDzhfpaX7eaTcGREjJrly_40H8W0PhOlJmXqF5tEUGSV_cG2J9E2PfA63058eM84WL34ax862IAIIB1anFACY98YXBAGCqpG5oeU-x9U_w0f3u7VF6hbvbpA19q1a8Y8b44EEHfHjWSPuAhl0vBU021brKzEPa7oHJGuzCAWKGaKmT3u5Lvx-ldE0w-bA6qjxkGI3WM2wyFzkBud9oVbr61AQfe2r2yGkZ5OHm5dyhe0P-oY8XvUtHCMKH3_P_Y5MOleMcbsI5dIl341XbUOlUu86mCbapoG8AOkV6uoUN8egbqOR3Ar6GlFpAtHeaBVBi3OYed6NNOt3ARmmRledNPP7qoI21rsEXDHeVDhgEssl03jdrxaltRjZr7NY1tK7XXGgH4_cXHSAEFnmb_61ZRbBEHLaP3yArSPisSwD53wEECqmZb_Ud_8jd5I0dAngV8V5wUU4zB0zSLZ2ijb3FDxTkyXd4DQKaw_8LmgghYl-bV5R18eflW3uIgR6CuJJFdDcf8MzZuJIXpRgE6j8MDcYVKaPzzxAsDvOkdwpdV2dGrN4Rz2DH5Nd1PJBbHto2rq-RNfKzSoxebUzdwjN2wUFUBYRPen4k_-qndW8qOz4W2gGG9rLD9Ls6jVtix-76oKPO_Cyi7hvyVsEouRpk76WkLBQ-6vfAN_OMFualviVq9yw5kBHSfOI4K8y4xrDeGwN0DkNQmtjv6ikygzU22iAmXR-jwMznAkDB8VeSX2E-csBgmzuvoUsrxbqr5MyEosPhPzjesCXUkuEwSt69F7p6wYuhJOhzlDdf9zLtGQ6pDY47Vwk-MXPgLupfKdfrTljo5xRrSLEZ0zyuRw6rREZfBlbUxDMy0xzNkjPtvF3ZwTc3k-EJgkS_AhtNh719CEzD-O8PxKvwUaPCzo-dJoi9eJXEUvT1gOqtKh2JFNZJ4K_plLQs1GqG_l_MDwFy1]--></g></svg>