<svg xmlns="http://www.w3.org/2000/svg" xmlns:xlink="http://www.w3.org/1999/xlink" contentStyleType="text/css" height="1402px" preserveAspectRatio="none" style="width:4604px;height:1402px;background:#FFFFFF;" version="1.1" viewBox="0 0 4604 1402" width="4604px" zoomAndPan="magnify"><defs/><g><!--cluster drivers--><g id="cluster_drivers"><path d="M8.5,6 L304.5,6 A3.75,3.75 0 0 1 307,8.5 L314,28.2969 L2247.5,28.2969 A2.5,2.5 0 0 1 2250,30.7969 L2250,1393.06 A2.5,2.5 0 0 1 2247.5,1395.56 L8.5,1395.56 A2.5,2.5 0 0 1 6,1393.06 L6,8.5 A2.5,2.5 0 0 1 8.5,6 " fill="#87CEEB" style="stroke:#000000;stroke-width:1.5;"/><line style="stroke:#000000;stroke-width:1.5;" x1="6" x2="314" y1="28.2969" y2="28.2969"/><text fill="#000000" font-family="sans-serif" font-size="14" font-weight="bold" lengthAdjust="spacing" textLength="295" x="10" y="20.9951">de.company.prototype.sewer.drivers</text></g><!--cluster adapters--><g id="cluster_adapters"><path d="M48.5,65 L119.5,65 A3.75,3.75 0 0 1 122,67.5 L129,87.2969 L2199.5,87.2969 A2.5,2.5 0 0 1 2202,89.7969 L2202,1353.06 A2.5,2.5 0 0 1 2199.5,1355.56 L48.5,1355.56 A2.5,2.5 0 0 1 46,1353.06 L46,67.5 A2.5,2.5 0 0 1 48.5,65 " fill="#82FFB4" style="stroke:#000000;stroke-width:1.5;"/><line style="stroke:#000000;stroke-width:1.5;" x1="46" x2="129" y1="87.2969" y2="87.2969"/><text fill="#000000" font-family="sans-serif" font-size="14" font-weight="bold" lengthAdjust="spacing" textLength="70" x="50" y="79.9951">adapters</text></g><!--cluster use_cases--><g id="cluster_use_cases"><path d="M88.5,124 L171.5,124 A3.75,3.75 0 0 1 174,126.5 L181,146.2969 L2151.5,146.2969 A2.5,2.5 0 0 1 2154,148.7969 L2154,1313.06 A2.5,2.5 0 0 1 2151.5,1315.56 L88.5,1315.56 A2.5,2.5 0 0 1 86,1313.06 L86,126.5 A2.5,2.5 0 0 1 88.5,124 " fill="#FF9A99" style="stroke:#000000;stroke-width:1.5;"/><line style="stroke:#000000;stroke-width:1.5;" x1="86" x2="181" y1="146.2969" y2="146.2969"/><text fill="#000000" font-family="sans-serif" font-size="14" font-weight="bold" lengthAdjust="spacing" textLength="82" x="90" y="138.9951">use_cases</text></g><!--cluster entities--><g id="cluster_entities"><path d="M128.5,322.29 L188.5,322.29 A3.75,3.75 0 0 1 191,324.79 L198,344.5869 L1825.5,344.5869 A2.5,2.5 0 0 1 1828,347.0869 L1828,1160.47 A2.5,2.5 0 0 1 1825.5,1162.97 L128.5,1162.97 A2.5,2.5 0 0 1 126,1160.47 L126,324.79 A2.5,2.5 0 0 1 128.5,322.29 " fill="#FCFDB0" style="stroke:#000000;stroke-width:1.5;"/><line style="stroke:#000000;stroke-width:1.5;" x1="126" x2="198" y1="344.5869" y2="344.5869"/><text fill="#000000" font-family="sans-serif" font-size="14" font-weight="bold" lengthAdjust="spacing" textLength="59" x="130" y="337.2851">entities</text></g><!--cluster boundary--><g id="cluster_boundary"><path d="M160.5,373.29 L303.5,373.29 A3.75,3.75 0 0 1 306,375.79 L313,395.5869 L1101.5,395.5869 A2.5,2.5 0 0 1 1104,398.0869 L1104,908.13 A2.5,2.5 0 0 1 1101.5,910.63 L160.5,910.63 A2.5,2.5 0 0 1 158,908.13 L158,375.79 A2.5,2.5 0 0 1 160.5,373.29 " fill="#00FF00" style="stroke:#000000;stroke-width:1.5;"/><line style="stroke:#000000;stroke-width:1.5;" x1="158" x2="313" y1="395.5869" y2="395.5869"/><text fill="#000000" font-family="sans-serif" font-size="14" font-weight="bold" lengthAdjust="spacing" textLength="142" x="162" y="388.2851">indicate.boundary</text></g><!--cluster control--><g id="cluster_control"><path d="M184.5,497.59 L241.5,497.59 A3.75,3.75 0 0 1 244,500.09 L251,519.8869 L1077.5,519.8869 A2.5,2.5 0 0 1 1080,522.3869 L1080,884.13 A2.5,2.5 0 0 1 1077.5,886.63 L184.5,886.63 A2.5,2.5 0 0 1 182,884.13 L182,500.09 A2.5,2.5 0 0 1 184.5,497.59 " fill="#FFA500" style="stroke:#000000;stroke-width:1.5;"/><line style="stroke:#000000;stroke-width:1.5;" x1="182" x2="251" y1="519.8869" y2="519.8869"/><text fill="#000000" font-family="sans-serif" font-size="14" font-weight="bold" lengthAdjust="spacing" textLength="56" x="186" y="512.5851">control</text></g><!--cluster boundary--><g id="cluster_boundary"><path d="M1470.5,373.29 L1616.5,373.29 A3.75,3.75 0 0 1 1619,375.79 L1626,395.5869 L1785.5,395.5869 A2.5,2.5 0 0 1 1788,398.0869 L1788,634.39 A2.5,2.5 0 0 1 1785.5,636.89 L1470.5,636.89 A2.5,2.5 0 0 1 1468,634.39 L1468,375.79 A2.5,2.5 0 0 1 1470.5,373.29 " fill="#00FF00" style="stroke:#000000;stroke-width:1.5;"/><line style="stroke:#000000;stroke-width:1.5;" x1="1468" x2="1626" y1="395.5869" y2="395.5869"/><text fill="#000000" font-family="sans-serif" font-size="14" font-weight="bold" lengthAdjust="spacing" textLength="145" x="1472" y="388.2851">observe.boundary</text></g><!--cluster control--><g id="cluster_control"><path d="M1494.5,497.59 L1551.5,497.59 A3.75,3.75 0 0 1 1554,500.09 L1561,519.8869 L1761.5,519.8869 A2.5,2.5 0 0 1 1764,522.3869 L1764,610.39 A2.5,2.5 0 0 1 1761.5,612.89 L1494.5,612.89 A2.5,2.5 0 0 1 1492,610.39 L1492,500.09 A2.5,2.5 0 0 1 1494.5,497.59 " fill="#FFA500" style="stroke:#000000;stroke-width:1.5;"/><line style="stroke:#000000;stroke-width:1.5;" x1="1492" x2="1561" y1="519.8869" y2="519.8869"/><text fill="#000000" font-family="sans-serif" font-size="14" font-weight="bold" lengthAdjust="spacing" textLength="56" x="1496" y="512.5851">control</text></g><!--cluster sewer--><g id="cluster_sewer"><path d="M1130.5,660.89 L1181.5,660.89 A3.75,3.75 0 0 1 1184,663.39 L1191,683.1869 L1785.5,683.1869 A2.5,2.5 0 0 1 1788,685.6869 L1788,1128.47 A2.5,2.5 0 0 1 1785.5,1130.97 L1130.5,1130.97 A2.5,2.5 0 0 1 1128,1128.47 L1128,663.39 A2.5,2.5 0 0 1 1130.5,660.89 " fill="none" style="stroke:#000000;stroke-width:1.5;"/><line style="stroke:#000000;stroke-width:1.5;" x1="1128" x2="1191" y1="683.1869" y2="683.1869"/><text fill="#000000" font-family="sans-serif" font-size="14" font-weight="bold" lengthAdjust="spacing" textLength="50" x="1132" y="675.8851">sewer</text></g><!--cluster boundary--><g id="cluster_boundary"><path d="M1191.5,703.89 L1267.5,703.89 A3.75,3.75 0 0 1 1270,706.39 L1277,726.1869 L1756.5,726.1869 A2.5,2.5 0 0 1 1759,728.6869 L1759,932.58 A2.5,2.5 0 0 1 1756.5,935.08 L1191.5,935.08 A2.5,2.5 0 0 1 1189,932.58 L1189,706.39 A2.5,2.5 0 0 1 1191.5,703.89 " fill="#00FF00" style="stroke:#000000;stroke-width:1.5;"/><line style="stroke:#000000;stroke-width:1.5;" x1="1189" x2="1277" y1="726.1869" y2="726.1869"/><text fill="#000000" font-family="sans-serif" font-size="14" font-weight="bold" lengthAdjust="spacing" textLength="75" x="1193" y="718.8851">boundary</text></g><!--cluster entity--><g id="cluster_entity"><path d="M1215.5,746.89 L1322.5,746.89 A3.75,3.75 0 0 1 1325,749.39 L1332,769.1869 L1500.5,769.1869 A2.5,2.5 0 0 1 1503,771.6869 L1503,908.58 A2.5,2.5 0 0 1 1500.5,911.08 L1215.5,911.08 A2.5,2.5 0 0 1 1213,908.58 L1213,749.39 A2.5,2.5 0 0 1 1215.5,746.89 " fill="#FCFDB0" style="stroke:#000000;stroke-width:1.5;"/><line style="stroke:#000000;stroke-width:1.5;" x1="1213" x2="1332" y1="769.1869" y2="769.1869"/><text fill="#000000" font-family="sans-serif" font-size="14" font-weight="bold" lengthAdjust="spacing" textLength="106" x="1217" y="761.8851">control.entity</text></g><!--cluster entity--><g id="cluster_entity"><path d="M1154.5,959.08 L1369.5,959.08 A3.75,3.75 0 0 1 1372,961.58 L1379,981.3769 L1461.5,981.3769 A2.5,2.5 0 0 1 1464,983.8769 L1464,1104.47 A2.5,2.5 0 0 1 1461.5,1106.97 L1154.5,1106.97 A2.5,2.5 0 0 1 1152,1104.47 L1152,961.58 A2.5,2.5 0 0 1 1154.5,959.08 " fill="#FCFDB0" style="stroke:#000000;stroke-width:1.5;"/><line style="stroke:#000000;stroke-width:1.5;" x1="1152" x2="1379" y1="981.3769" y2="981.3769"/><text fill="#000000" font-family="sans-serif" font-size="14" font-weight="bold" lengthAdjust="spacing" textLength="214" x="1156" y="974.0751">kpi.boundary.control.entity</text></g><!--cluster entity--><g id="cluster_entity"><path d="M1490.5,967.22 L1747.5,967.22 A3.75,3.75 0 0 1 1750,969.72 L1757,989.5169 L1761.5,989.5169 A2.5,2.5 0 0 1 1764,992.0169 L1764,1096.32 A2.5,2.5 0 0 1 1761.5,1098.82 L1490.5,1098.82 A2.5,2.5 0 0 1 1488,1096.32 L1488,969.72 A2.5,2.5 0 0 1 1490.5,967.22 " fill="#FCFDB0" style="stroke:#000000;stroke-width:1.5;"/><line style="stroke:#000000;stroke-width:1.5;" x1="1488" x2="1757" y1="989.5169" y2="989.5169"/><text fill="#000000" font-family="sans-serif" font-size="14" font-weight="bold" lengthAdjust="spacing" textLength="256" x="1492" y="982.2151">problem.boundary.control.entity</text></g><!--cluster boundary--><g id="cluster_boundary"><path d="M785.5,175 L928.5,175 A3.75,3.75 0 0 1 931,177.5 L938,197.2969 L1060.5,197.2969 A2.5,2.5 0 0 1 1063,199.7969 L1063,287.79 A2.5,2.5 0 0 1 1060.5,290.29 L785.5,290.29 A2.5,2.5 0 0 1 783,287.79 L783,177.5 A2.5,2.5 0 0 1 785.5,175 " fill="#00FF00" style="stroke:#000000;stroke-width:1.5;"/><line style="stroke:#000000;stroke-width:1.5;" x1="783" x2="938" y1="197.2969" y2="197.2969"/><text fill="#000000" font-family="sans-serif" font-size="14" font-weight="bold" lengthAdjust="spacing" textLength="142" x="787" y="189.9951">indicate.boundary</text></g><!--cluster boundary--><g id="cluster_boundary"><path d="M1504.5,175 L1650.5,175 A3.75,3.75 0 0 1 1653,177.5 L1660,197.2969 L1751.5,197.2969 A2.5,2.5 0 0 1 1754,199.7969 L1754,287.79 A2.5,2.5 0 0 1 1751.5,290.29 L1504.5,290.29 A2.5,2.5 0 0 1 1502,287.79 L1502,177.5 A2.5,2.5 0 0 1 1504.5,175 " fill="#00FF00" style="stroke:#000000;stroke-width:1.5;"/><line style="stroke:#000000;stroke-width:1.5;" x1="1502" x2="1660" y1="197.2969" y2="197.2969"/><text fill="#000000" font-family="sans-serif" font-size="14" font-weight="bold" lengthAdjust="spacing" textLength="145" x="1506" y="189.9951">observe.boundary</text></g><!--cluster boundary--><g id="cluster_boundary"><path d="M1862.5,967.22 L2002.5,967.22 A3.75,3.75 0 0 1 2005,969.72 L2012,989.5169 L2111.5,989.5169 A2.5,2.5 0 0 1 2114,992.0169 L2114,1281.06 A2.5,2.5 0 0 1 2111.5,1283.56 L1862.5,1283.56 A2.5,2.5 0 0 1 1860,1281.06 L1860,969.72 A2.5,2.5 0 0 1 1862.5,967.22 " fill="#00FF00" style="stroke:#000000;stroke-width:1.5;"/><line style="stroke:#000000;stroke-width:1.5;" x1="1860" x2="2012" y1="989.5169" y2="989.5169"/><text fill="#000000" font-family="sans-serif" font-size="14" font-weight="bold" lengthAdjust="spacing" textLength="139" x="1864" y="982.2151">sewers.boundary</text></g><!--class SewerOverflowIndicationService--><g id="elem_SewerOverflowIndicationService"><rect codeLine="25" fill="#F1F1F1" height="64.2969" id="SewerOverflowIndicationService" rx="2.5" ry="2.5" style="stroke:#181818;stroke-width:0.5;" width="250" x="798" y="408.29"/><ellipse cx="813" cy="424.29" fill="#ADD1B2" rx="11" ry="11" style="stroke:#181818;stroke-width:1.0;"/><path d="M815.9688,429.9306 Q815.3906,430.2275 814.75,430.3681 Q814.1094,430.5244 813.4063,430.5244 Q810.9063,430.5244 809.5781,428.8837 Q808.2656,427.2275 808.2656,424.1025 Q808.2656,420.9775 809.5781,419.3212 Q810.9063,417.665 813.4063,417.665 Q814.1094,417.665 814.75,417.8212 Q815.4063,417.9775 815.9688,418.2744 L815.9688,420.9931 Q815.3438,420.415 814.75,420.1494 Q814.1563,419.8681 813.5313,419.8681 Q812.1875,419.8681 811.5,420.9462 Q810.8125,422.0087 810.8125,424.1025 Q810.8125,426.1962 811.5,427.2744 Q812.1875,428.3369 813.5313,428.3369 Q814.1563,428.3369 814.75,428.0712 Q815.3438,427.79 815.9688,427.2119 L815.9688,429.9306 Z " fill="#000000"/><text fill="#000000" font-family="sans-serif" font-size="14" lengthAdjust="spacing" textLength="218" x="827" y="429.1367">SewerOverflowIndicationService</text><line style="stroke:#181818;stroke-width:0.5;" x1="799" x2="1047" y1="440.29" y2="440.29"/><line style="stroke:#181818;stroke-width:0.5;" x1="799" x2="1047" y1="448.29" y2="448.29"/><ellipse cx="809" cy="461.9384" fill="#84BE84" rx="3" ry="3" style="stroke:#038048;stroke-width:1.0;"/><text fill="#000000" font-family="sans-serif" font-size="14" lengthAdjust="spacing" textLength="221" x="818" y="465.2851">void serve(Map&lt;String, String&gt;)</text></g><!--class FlowIndicationComponent--><g id="elem_FlowIndicationComponent"><rect codeLine="28" fill="#F1F1F1" height="64.2969" id="FlowIndicationComponent" rx="2.5" ry="2.5" style="stroke:#181818;stroke-width:0.5;" width="265" x="198.5" y="806.33"/><ellipse cx="237.8" cy="822.33" fill="#ADD1B2" rx="11" ry="11" style="stroke:#181818;stroke-width:1.0;"/><path d="M240.7688,827.9706 Q240.1906,828.2675 239.55,828.4081 Q238.9094,828.5644 238.2063,828.5644 Q235.7063,828.5644 234.3781,826.9237 Q233.0656,825.2675 233.0656,822.1425 Q233.0656,819.0175 234.3781,817.3612 Q235.7063,815.705 238.2063,815.705 Q238.9094,815.705 239.55,815.8612 Q240.2063,816.0175 240.7688,816.3144 L240.7688,819.0331 Q240.1438,818.455 239.55,818.1894 Q238.9563,817.9081 238.3313,817.9081 Q236.9875,817.9081 236.3,818.9862 Q235.6125,820.0487 235.6125,822.1425 Q235.6125,824.2362 236.3,825.3144 Q236.9875,826.3769 238.3313,826.3769 Q238.9563,826.3769 239.55,826.1112 Q240.1438,825.83 240.7688,825.2519 L240.7688,827.9706 Z " fill="#000000"/><text fill="#000000" font-family="sans-serif" font-size="14" lengthAdjust="spacing" textLength="179" x="257.2" y="827.1767">FlowIndicationComponent</text><line style="stroke:#181818;stroke-width:0.5;" x1="199.5" x2="462.5" y1="838.33" y2="838.33"/><line style="stroke:#181818;stroke-width:0.5;" x1="199.5" x2="462.5" y1="846.33" y2="846.33"/><ellipse cx="209.5" cy="859.9784" fill="#84BE84" rx="3" ry="3" style="stroke:#038048;stroke-width:1.0;"/><text fill="#000000" font-family="sans-serif" font-size="14" lengthAdjust="spacing" textLength="239" x="218.5" y="863.3251">void execute(Map&lt;String, String&gt;)</text></g><!--class PumpIndicationComponent--><g id="elem_PumpIndicationComponent"><rect codeLine="31" fill="#F1F1F1" height="64.2969" id="PumpIndicationComponent" rx="2.5" ry="2.5" style="stroke:#181818;stroke-width:0.5;" width="265" x="498.5" y="806.33"/><ellipse cx="533.75" cy="822.33" fill="#ADD1B2" rx="11" ry="11" style="stroke:#181818;stroke-width:1.0;"/><path d="M536.7188,827.9706 Q536.1406,828.2675 535.5,828.4081 Q534.8594,828.5644 534.1563,828.5644 Q531.6563,828.5644 530.3281,826.9237 Q529.0156,825.2675 529.0156,822.1425 Q529.0156,819.0175 530.3281,817.3612 Q531.6563,815.705 534.1563,815.705 Q534.8594,815.705 535.5,815.8612 Q536.1563,816.0175 536.7188,816.3144 L536.7188,819.0331 Q536.0938,818.455 535.5,818.1894 Q534.9063,817.9081 534.2813,817.9081 Q532.9375,817.9081 532.25,818.9862 Q531.5625,820.0487 531.5625,822.1425 Q531.5625,824.2362 532.25,825.3144 Q532.9375,826.3769 534.2813,826.3769 Q534.9063,826.3769 535.5,826.1112 Q536.0938,825.83 536.7188,825.2519 L536.7188,827.9706 Z " fill="#000000"/><text fill="#000000" font-family="sans-serif" font-size="14" lengthAdjust="spacing" textLength="188" x="552.25" y="827.1767">PumpIndicationComponent</text><line style="stroke:#181818;stroke-width:0.5;" x1="499.5" x2="762.5" y1="838.33" y2="838.33"/><line style="stroke:#181818;stroke-width:0.5;" x1="499.5" x2="762.5" y1="846.33" y2="846.33"/><ellipse cx="509.5" cy="859.9784" fill="#84BE84" rx="3" ry="3" style="stroke:#038048;stroke-width:1.0;"/><text fill="#000000" font-family="sans-serif" font-size="14" lengthAdjust="spacing" textLength="239" x="518.5" y="863.3251">void execute(Map&lt;String, String&gt;)</text></g><!--class RainIndicationComponent--><g id="elem_RainIndicationComponent"><rect codeLine="34" fill="#F1F1F1" height="64.2969" id="RainIndicationComponent" rx="2.5" ry="2.5" style="stroke:#181818;stroke-width:0.5;" width="265" x="798.5" y="806.33"/><ellipse cx="838.25" cy="822.33" fill="#ADD1B2" rx="11" ry="11" style="stroke:#181818;stroke-width:1.0;"/><path d="M841.2188,827.9706 Q840.6406,828.2675 840,828.4081 Q839.3594,828.5644 838.6563,828.5644 Q836.1563,828.5644 834.8281,826.9237 Q833.5156,825.2675 833.5156,822.1425 Q833.5156,819.0175 834.8281,817.3612 Q836.1563,815.705 838.6563,815.705 Q839.3594,815.705 840,815.8612 Q840.6563,816.0175 841.2188,816.3144 L841.2188,819.0331 Q840.5938,818.455 840,818.1894 Q839.4063,817.9081 838.7813,817.9081 Q837.4375,817.9081 836.75,818.9862 Q836.0625,820.0487 836.0625,822.1425 Q836.0625,824.2362 836.75,825.3144 Q837.4375,826.3769 838.7813,826.3769 Q839.4063,826.3769 840,826.1112 Q840.5938,825.83 841.2188,825.2519 L841.2188,827.9706 Z " fill="#000000"/><text fill="#000000" font-family="sans-serif" font-size="14" lengthAdjust="spacing" textLength="178" x="857.75" y="827.1767">RainIndicationComponent</text><line style="stroke:#181818;stroke-width:0.5;" x1="799.5" x2="1062.5" y1="838.33" y2="838.33"/><line style="stroke:#181818;stroke-width:0.5;" x1="799.5" x2="1062.5" y1="846.33" y2="846.33"/><ellipse cx="809.5" cy="859.9784" fill="#84BE84" rx="3" ry="3" style="stroke:#038048;stroke-width:1.0;"/><text fill="#000000" font-family="sans-serif" font-size="14" lengthAdjust="spacing" textLength="239" x="818.5" y="863.3251">void execute(Map&lt;String, String&gt;)</text></g><!--class SewerOverflowIndicationComponent--><g id="elem_SewerOverflowIndicationComponent"><rect codeLine="37" fill="#F1F1F1" height="64.2969" id="SewerOverflowIndicationComponent" rx="2.5" ry="2.5" style="stroke:#181818;stroke-width:0.5;" width="282" x="782" y="532.59"/><ellipse cx="797" cy="548.59" fill="#ADD1B2" rx="11" ry="11" style="stroke:#181818;stroke-width:1.0;"/><path d="M799.9688,554.2306 Q799.3906,554.5275 798.75,554.6681 Q798.1094,554.8244 797.4063,554.8244 Q794.9063,554.8244 793.5781,553.1837 Q792.2656,551.5275 792.2656,548.4025 Q792.2656,545.2775 793.5781,543.6212 Q794.9063,541.965 797.4063,541.965 Q798.1094,541.965 798.75,542.1212 Q799.4063,542.2775 799.9688,542.5744 L799.9688,545.2931 Q799.3438,544.715 798.75,544.4494 Q798.1563,544.1681 797.5313,544.1681 Q796.1875,544.1681 795.5,545.2462 Q794.8125,546.3087 794.8125,548.4025 Q794.8125,550.4962 795.5,551.5744 Q796.1875,552.6369 797.5313,552.6369 Q798.1563,552.6369 798.75,552.3712 Q799.3438,552.09 799.9688,551.5119 L799.9688,554.2306 Z " fill="#000000"/><text fill="#000000" font-family="sans-serif" font-size="14" lengthAdjust="spacing" textLength="250" x="811" y="553.4367">SewerOverflowIndicationComponent</text><line style="stroke:#181818;stroke-width:0.5;" x1="783" x2="1063" y1="564.59" y2="564.59"/><line style="stroke:#181818;stroke-width:0.5;" x1="783" x2="1063" y1="572.59" y2="572.59"/><ellipse cx="793" cy="586.2384" fill="#84BE84" rx="3" ry="3" style="stroke:#038048;stroke-width:1.0;"/><text fill="#000000" font-family="sans-serif" font-size="14" lengthAdjust="spacing" textLength="239" x="802" y="589.5851">void execute(Map&lt;String, String&gt;)</text></g><!--class SewerObservationService--><g id="elem_SewerObservationService"><rect codeLine="43" fill="#F1F1F1" height="64.2969" id="SewerObservationService" rx="2.5" ry="2.5" style="stroke:#181818;stroke-width:0.5;" width="208" x="1524" y="408.29"/><ellipse cx="1539" cy="424.29" fill="#ADD1B2" rx="11" ry="11" style="stroke:#181818;stroke-width:1.0;"/><path d="M1541.9688,429.9306 Q1541.3906,430.2275 1540.75,430.3681 Q1540.1094,430.5244 1539.4063,430.5244 Q1536.9063,430.5244 1535.5781,428.8837 Q1534.2656,427.2275 1534.2656,424.1025 Q1534.2656,420.9775 1535.5781,419.3212 Q1536.9063,417.665 1539.4063,417.665 Q1540.1094,417.665 1540.75,417.8212 Q1541.4063,417.9775 1541.9688,418.2744 L1541.9688,420.9931 Q1541.3438,420.415 1540.75,420.1494 Q1540.1563,419.8681 1539.5313,419.8681 Q1538.1875,419.8681 1537.5,420.9462 Q1536.8125,422.0087 1536.8125,424.1025 Q1536.8125,426.1962 1537.5,427.2744 Q1538.1875,428.3369 1539.5313,428.3369 Q1540.1563,428.3369 1540.75,428.0712 Q1541.3438,427.79 1541.9688,427.2119 L1541.9688,429.9306 Z " fill="#000000"/><text fill="#000000" font-family="sans-serif" font-size="14" lengthAdjust="spacing" textLength="176" x="1553" y="429.1367">SewerObservationService</text><line style="stroke:#181818;stroke-width:0.5;" x1="1525" x2="1731" y1="440.29" y2="440.29"/><line style="stroke:#181818;stroke-width:0.5;" x1="1525" x2="1731" y1="448.29" y2="448.29"/><ellipse cx="1535" cy="461.9384" fill="#84BE84" rx="3" ry="3" style="stroke:#038048;stroke-width:1.0;"/><text fill="#000000" font-family="sans-serif" font-size="14" lengthAdjust="spacing" textLength="182" x="1544" y="465.2851">Set&lt;Sewer&gt; serve(String)</text></g><!--class SewerObservationComponent--><g id="elem_SewerObservationComponent"><rect codeLine="46" fill="#F1F1F1" height="64.2969" id="SewerObservationComponent" rx="2.5" ry="2.5" style="stroke:#181818;stroke-width:0.5;" width="240" x="1508" y="532.59"/><ellipse cx="1523" cy="548.59" fill="#ADD1B2" rx="11" ry="11" style="stroke:#181818;stroke-width:1.0;"/><path d="M1525.9688,554.2306 Q1525.3906,554.5275 1524.75,554.6681 Q1524.1094,554.8244 1523.4063,554.8244 Q1520.9063,554.8244 1519.5781,553.1837 Q1518.2656,551.5275 1518.2656,548.4025 Q1518.2656,545.2775 1519.5781,543.6212 Q1520.9063,541.965 1523.4063,541.965 Q1524.1094,541.965 1524.75,542.1212 Q1525.4063,542.2775 1525.9688,542.5744 L1525.9688,545.2931 Q1525.3438,544.715 1524.75,544.4494 Q1524.1563,544.1681 1523.5313,544.1681 Q1522.1875,544.1681 1521.5,545.2462 Q1520.8125,546.3087 1520.8125,548.4025 Q1520.8125,550.4962 1521.5,551.5744 Q1522.1875,552.6369 1523.5313,552.6369 Q1524.1563,552.6369 1524.75,552.3712 Q1525.3438,552.09 1525.9688,551.5119 L1525.9688,554.2306 Z " fill="#000000"/><text fill="#000000" font-family="sans-serif" font-size="14" lengthAdjust="spacing" textLength="208" x="1537" y="553.4367">SewerObservationComponent</text><line style="stroke:#181818;stroke-width:0.5;" x1="1509" x2="1747" y1="564.59" y2="564.59"/><line style="stroke:#181818;stroke-width:0.5;" x1="1509" x2="1747" y1="572.59" y2="572.59"/><ellipse cx="1519" cy="586.2384" fill="#84BE84" rx="3" ry="3" style="stroke:#038048;stroke-width:1.0;"/><text fill="#000000" font-family="sans-serif" font-size="14" lengthAdjust="spacing" textLength="200" x="1528" y="589.5851">Set&lt;Sewer&gt; execute(String)</text></g><!--class Sewers--><g id="elem_Sewers"><rect codeLine="49" fill="#F1F1F1" height="80.5938" id="Sewers" rx="2.5" ry="2.5" style="stroke:#181818;stroke-width:0.5;" width="220" x="1523" y="798.18"/><ellipse cx="1603.25" cy="814.18" fill="#B4A7E5" rx="11" ry="11" style="stroke:#181818;stroke-width:1.0;"/><path d="M1599.1719,809.9456 L1599.1719,807.7894 L1606.5625,807.7894 L1606.5625,809.9456 L1604.0938,809.9456 L1604.0938,818.0238 L1606.5625,818.0238 L1606.5625,820.18 L1599.1719,820.18 L1599.1719,818.0238 L1601.6406,818.0238 L1601.6406,809.9456 L1599.1719,809.9456 Z " fill="#000000"/><text fill="#000000" font-family="sans-serif" font-size="14" font-style="italic" lengthAdjust="spacing" textLength="51" x="1623.75" y="819.0267">Sewers</text><line style="stroke:#181818;stroke-width:0.5;" x1="1524" x2="1742" y1="830.18" y2="830.18"/><line style="stroke:#181818;stroke-width:0.5;" x1="1524" x2="1742" y1="838.18" y2="838.18"/><ellipse cx="1534" cy="851.8284" fill="#84BE84" rx="3" ry="3" style="stroke:#038048;stroke-width:1.0;"/><text fill="#000000" font-family="sans-serif" font-size="14" font-style="italic" lengthAdjust="spacing" textLength="194" x="1543" y="855.1751">Set&lt;Sewer&gt; observe(UUID)</text><ellipse cx="1534" cy="868.1253" fill="#84BE84" rx="3" ry="3" style="stroke:#038048;stroke-width:1.0;"/><text fill="#000000" font-family="sans-serif" font-size="14" font-style="italic" lengthAdjust="spacing" textLength="139" x="1543" y="871.472">void indicate(Sewer)</text></g><!--class Sewer--><g id="elem_Sewer"><rect codeLine="56" fill="#F1F1F1" height="113.1875" id="Sewer" rx="2.5" ry="2.5" style="stroke:#181818;stroke-width:0.5;" width="259" x="1228.5" y="781.89"/><ellipse cx="1332.25" cy="797.89" fill="#ADD1B2" rx="11" ry="11" style="stroke:#181818;stroke-width:1.0;"/><path d="M1335.2188,803.5306 Q1334.6406,803.8275 1334,803.9681 Q1333.3594,804.1244 1332.6563,804.1244 Q1330.1563,804.1244 1328.8281,802.4838 Q1327.5156,800.8275 1327.5156,797.7025 Q1327.5156,794.5775 1328.8281,792.9213 Q1330.1563,791.265 1332.6563,791.265 Q1333.3594,791.265 1334,791.4213 Q1334.6563,791.5775 1335.2188,791.8744 L1335.2188,794.5931 Q1334.5938,794.015 1334,793.7494 Q1333.4063,793.4681 1332.7813,793.4681 Q1331.4375,793.4681 1330.75,794.5463 Q1330.0625,795.6088 1330.0625,797.7025 Q1330.0625,799.7963 1330.75,800.8744 Q1331.4375,801.9369 1332.7813,801.9369 Q1333.4063,801.9369 1334,801.6713 Q1334.5938,801.39 1335.2188,800.8119 L1335.2188,803.5306 Z " fill="#000000"/><text fill="#000000" font-family="sans-serif" font-size="14" lengthAdjust="spacing" textLength="43" x="1352.75" y="802.7367">Sewer</text><line style="stroke:#181818;stroke-width:0.5;" x1="1229.5" x2="1486.5" y1="813.89" y2="813.89"/><line style="stroke:#181818;stroke-width:0.5;" x1="1229.5" x2="1486.5" y1="821.89" y2="821.89"/><ellipse cx="1239.5" cy="835.5384" fill="#84BE84" rx="3" ry="3" style="stroke:#038048;stroke-width:1.0;"/><text fill="#000000" font-family="sans-serif" font-size="14" lengthAdjust="spacing" textLength="83" x="1248.5" y="838.8851">UUID getId()</text><ellipse cx="1239.5" cy="851.8353" fill="#84BE84" rx="3" ry="3" style="stroke:#038048;stroke-width:1.0;"/><text fill="#000000" font-family="sans-serif" font-size="14" lengthAdjust="spacing" textLength="230" x="1248.5" y="855.182">KeyPerformanceIndicator getKpi()</text><ellipse cx="1239.5" cy="868.1322" fill="#84BE84" rx="3" ry="3" style="stroke:#038048;stroke-width:1.0;"/><text fill="#000000" font-family="sans-serif" font-size="14" lengthAdjust="spacing" textLength="206" x="1248.5" y="871.4789">Set&lt;Problem&gt; getProblems()</text><ellipse cx="1239.5" cy="884.4291" fill="#84BE84" rx="3" ry="3" style="stroke:#038048;stroke-width:1.0;"/><text fill="#000000" font-family="sans-serif" font-size="14" lengthAdjust="spacing" textLength="233" x="1248.5" y="887.7757">void setProblems(Set&lt;Problem&gt;)</text></g><!--class KeyPerformanceIndicator--><g id="elem_KeyPerformanceIndicator"><rect codeLine="62" fill="#F1F1F1" height="96.8906" id="KeyPerformanceIndicator" rx="2.5" ry="2.5" style="stroke:#181818;stroke-width:0.5;" width="279" x="1168.5" y="994.08"/><ellipse cx="1217.75" cy="1010.08" fill="#ADD1B2" rx="11" ry="11" style="stroke:#181818;stroke-width:1.0;"/><path d="M1220.7188,1015.7206 Q1220.1406,1016.0175 1219.5,1016.1581 Q1218.8594,1016.3144 1218.1563,1016.3144 Q1215.6563,1016.3144 1214.3281,1014.6737 Q1213.0156,1013.0175 1213.0156,1009.8925 Q1213.0156,1006.7675 1214.3281,1005.1112 Q1215.6563,1003.455 1218.1563,1003.455 Q1218.8594,1003.455 1219.5,1003.6112 Q1220.1563,1003.7675 1220.7188,1004.0644 L1220.7188,1006.7831 Q1220.0938,1006.205 1219.5,1005.9394 Q1218.9063,1005.6581 1218.2813,1005.6581 Q1216.9375,1005.6581 1216.25,1006.7362 Q1215.5625,1007.7987 1215.5625,1009.8925 Q1215.5625,1011.9862 1216.25,1013.0644 Q1216.9375,1014.1269 1218.2813,1014.1269 Q1218.9063,1014.1269 1219.5,1013.8612 Q1220.0938,1013.58 1220.7188,1013.0019 L1220.7188,1015.7206 Z " fill="#000000"/><text fill="#000000" font-family="sans-serif" font-size="14" lengthAdjust="spacing" textLength="172" x="1238.25" y="1014.9267">KeyPerformanceIndicator</text><line style="stroke:#181818;stroke-width:0.5;" x1="1169.5" x2="1446.5" y1="1026.08" y2="1026.08"/><line style="stroke:#181818;stroke-width:0.5;" x1="1169.5" x2="1446.5" y1="1034.08" y2="1034.08"/><ellipse cx="1179.5" cy="1047.7284" fill="#84BE84" rx="3" ry="3" style="stroke:#038048;stroke-width:1.0;"/><text fill="#000000" font-family="sans-serif" font-size="14" lengthAdjust="spacing" textLength="253" x="1188.5" y="1051.0751">String getPumpPowerConsumption()</text><ellipse cx="1179.5" cy="1064.0253" fill="#84BE84" rx="3" ry="3" style="stroke:#038048;stroke-width:1.0;"/><text fill="#000000" font-family="sans-serif" font-size="14" lengthAdjust="spacing" textLength="108" x="1188.5" y="1067.372">String getFlow()</text><ellipse cx="1179.5" cy="1080.3222" fill="#84BE84" rx="3" ry="3" style="stroke:#038048;stroke-width:1.0;"/><text fill="#000000" font-family="sans-serif" font-size="14" lengthAdjust="spacing" textLength="140" x="1188.5" y="1083.6689">Number getRainfall()</text></g><!--class Problem--><g id="elem_Problem"><rect codeLine="67" fill="#F1F1F1" height="80.5938" id="Problem" rx="2.5" ry="2.5" style="stroke:#181818;stroke-width:0.5;" width="243" x="1504.5" y="1002.22"/><ellipse cx="1593.25" cy="1018.22" fill="#ADD1B2" rx="11" ry="11" style="stroke:#181818;stroke-width:1.0;"/><path d="M1596.2188,1023.8606 Q1595.6406,1024.1575 1595,1024.2981 Q1594.3594,1024.4544 1593.6563,1024.4544 Q1591.1563,1024.4544 1589.8281,1022.8138 Q1588.5156,1021.1575 1588.5156,1018.0325 Q1588.5156,1014.9075 1589.8281,1013.2513 Q1591.1563,1011.595 1593.6563,1011.595 Q1594.3594,1011.595 1595,1011.7513 Q1595.6563,1011.9075 1596.2188,1012.2044 L1596.2188,1014.9231 Q1595.5938,1014.345 1595,1014.0794 Q1594.4063,1013.7981 1593.7813,1013.7981 Q1592.4375,1013.7981 1591.75,1014.8763 Q1591.0625,1015.9388 1591.0625,1018.0325 Q1591.0625,1020.1263 1591.75,1021.2044 Q1592.4375,1022.2669 1593.7813,1022.2669 Q1594.4063,1022.2669 1595,1022.0013 Q1595.5938,1021.72 1596.2188,1021.1419 L1596.2188,1023.8606 Z " fill="#000000"/><text fill="#000000" font-family="sans-serif" font-size="14" lengthAdjust="spacing" textLength="57" x="1613.75" y="1023.0667">Problem</text><line style="stroke:#181818;stroke-width:0.5;" x1="1505.5" x2="1746.5" y1="1034.22" y2="1034.22"/><line style="stroke:#181818;stroke-width:0.5;" x1="1505.5" x2="1746.5" y1="1042.22" y2="1042.22"/><ellipse cx="1515.5" cy="1055.8684" fill="#84BE84" rx="3" ry="3" style="stroke:#038048;stroke-width:1.0;"/><text fill="#000000" font-family="sans-serif" font-size="14" lengthAdjust="spacing" textLength="130" x="1524.5" y="1059.2151">String getReason()</text><ellipse cx="1515.5" cy="1072.1653" fill="#84BE84" rx="3" ry="3" style="stroke:#038048;stroke-width:1.0;"/><text fill="#000000" font-family="sans-serif" font-size="14" lengthAdjust="spacing" textLength="217" x="1524.5" y="1075.512">Number getOverflowIndication()</text></g><!--class SewerIndicationUseCase--><g id="elem_SewerIndicationUseCase"><rect codeLine="71" fill="#F1F1F1" height="64.2969" id="SewerIndicationUseCase" rx="2.5" ry="2.5" style="stroke:#181818;stroke-width:0.5;" width="247" x="799.5" y="210"/><ellipse cx="834.3" cy="226" fill="#ADD1B2" rx="11" ry="11" style="stroke:#181818;stroke-width:1.0;"/><path d="M837.2688,231.6406 Q836.6906,231.9375 836.05,232.0781 Q835.4094,232.2344 834.7063,232.2344 Q832.2063,232.2344 830.8781,230.5938 Q829.5656,228.9375 829.5656,225.8125 Q829.5656,222.6875 830.8781,221.0313 Q832.2063,219.375 834.7063,219.375 Q835.4094,219.375 836.05,219.5313 Q836.7063,219.6875 837.2688,219.9844 L837.2688,222.7031 Q836.6438,222.125 836.05,221.8594 Q835.4563,221.5781 834.8313,221.5781 Q833.4875,221.5781 832.8,222.6563 Q832.1125,223.7188 832.1125,225.8125 Q832.1125,227.9063 832.8,228.9844 Q833.4875,230.0469 834.8313,230.0469 Q835.4563,230.0469 836.05,229.7813 Q836.6438,229.5 837.2688,228.9219 L837.2688,231.6406 Z " fill="#000000"/><text fill="#000000" font-family="sans-serif" font-size="14" lengthAdjust="spacing" textLength="171" x="852.7" y="230.8467">SewerIndicationUseCase</text><line style="stroke:#181818;stroke-width:0.5;" x1="800.5" x2="1045.5" y1="242" y2="242"/><line style="stroke:#181818;stroke-width:0.5;" x1="800.5" x2="1045.5" y1="250" y2="250"/><ellipse cx="810.5" cy="263.6484" fill="#84BE84" rx="3" ry="3" style="stroke:#038048;stroke-width:1.0;"/><text fill="#000000" font-family="sans-serif" font-size="14" lengthAdjust="spacing" textLength="221" x="819.5" y="266.9951">void serve(Map&lt;String, String&gt;)</text></g><!--class SewerObservationUseCase--><g id="elem_SewerObservationUseCase"><rect codeLine="74" fill="#F1F1F1" height="64.2969" id="SewerObservationUseCase" rx="2.5" ry="2.5" style="stroke:#181818;stroke-width:0.5;" width="220" x="1518" y="210"/><ellipse cx="1533" cy="226" fill="#ADD1B2" rx="11" ry="11" style="stroke:#181818;stroke-width:1.0;"/><path d="M1535.9688,231.6406 Q1535.3906,231.9375 1534.75,232.0781 Q1534.1094,232.2344 1533.4063,232.2344 Q1530.9063,232.2344 1529.5781,230.5938 Q1528.2656,228.9375 1528.2656,225.8125 Q1528.2656,222.6875 1529.5781,221.0313 Q1530.9063,219.375 1533.4063,219.375 Q1534.1094,219.375 1534.75,219.5313 Q1535.4063,219.6875 1535.9688,219.9844 L1535.9688,222.7031 Q1535.3438,222.125 1534.75,221.8594 Q1534.1563,221.5781 1533.5313,221.5781 Q1532.1875,221.5781 1531.5,222.6563 Q1530.8125,223.7188 1530.8125,225.8125 Q1530.8125,227.9063 1531.5,228.9844 Q1532.1875,230.0469 1533.5313,230.0469 Q1534.1563,230.0469 1534.75,229.7813 Q1535.3438,229.5 1535.9688,228.9219 L1535.9688,231.6406 Z " fill="#000000"/><text fill="#000000" font-family="sans-serif" font-size="14" lengthAdjust="spacing" textLength="188" x="1547" y="230.8467">SewerObservationUseCase</text><line style="stroke:#181818;stroke-width:0.5;" x1="1519" x2="1737" y1="242" y2="242"/><line style="stroke:#181818;stroke-width:0.5;" x1="1519" x2="1737" y1="250" y2="250"/><ellipse cx="1529" cy="263.6484" fill="#84BE84" rx="3" ry="3" style="stroke:#038048;stroke-width:1.0;"/><text fill="#000000" font-family="sans-serif" font-size="14" lengthAdjust="spacing" textLength="182" x="1538" y="266.9951">Set&lt;Sewer&gt; serve(String)</text></g><!--class SewersUseCase--><g id="elem_SewersUseCase"><rect codeLine="77" fill="#F1F1F1" height="80.5938" id="SewersUseCase" rx="2.5" ry="2.5" style="stroke:#181818;stroke-width:0.5;" width="222" x="1876" y="1186.97"/><ellipse cx="1926.25" cy="1202.97" fill="#B4A7E5" rx="11" ry="11" style="stroke:#181818;stroke-width:1.0;"/><path d="M1922.1719,1198.7356 L1922.1719,1196.5794 L1929.5625,1196.5794 L1929.5625,1198.7356 L1927.0938,1198.7356 L1927.0938,1206.8138 L1929.5625,1206.8138 L1929.5625,1208.97 L1922.1719,1208.97 L1922.1719,1206.8138 L1924.6406,1206.8138 L1924.6406,1198.7356 L1922.1719,1198.7356 Z " fill="#000000"/><text fill="#000000" font-family="sans-serif" font-size="14" font-style="italic" lengthAdjust="spacing" textLength="113" x="1946.75" y="1207.8167">SewersUseCase</text><line style="stroke:#181818;stroke-width:0.5;" x1="1877" x2="2097" y1="1218.97" y2="1218.97"/><line style="stroke:#181818;stroke-width:0.5;" x1="1877" x2="2097" y1="1226.97" y2="1226.97"/><ellipse cx="1887" cy="1240.6184" fill="#84BE84" rx="3" ry="3" style="stroke:#038048;stroke-width:1.0;"/><text fill="#000000" font-family="sans-serif" font-size="14" font-style="italic" lengthAdjust="spacing" textLength="196" x="1896" y="1243.9651">Set&lt;Object&gt; observe(UUID)</text><ellipse cx="1887" cy="1256.9153" fill="#84BE84" rx="3" ry="3" style="stroke:#038048;stroke-width:1.0;"/><text fill="#000000" font-family="sans-serif" font-size="14" font-style="italic" lengthAdjust="spacing" textLength="183" x="1896" y="1260.262">void indicate(UUID, Object)</text></g><!--class SewersUseCaseBridge--><g id="elem_SewersUseCaseBridge"><rect codeLine="81" fill="#F1F1F1" height="80.5938" id="SewersUseCaseBridge" rx="2.5" ry="2.5" style="stroke:#181818;stroke-width:0.5;" width="220" x="1876" y="1002.22"/><ellipse cx="1904.5" cy="1018.22" fill="#ADD1B2" rx="11" ry="11" style="stroke:#181818;stroke-width:1.0;"/><path d="M1907.4688,1023.8606 Q1906.8906,1024.1575 1906.25,1024.2981 Q1905.6094,1024.4544 1904.9063,1024.4544 Q1902.4063,1024.4544 1901.0781,1022.8138 Q1899.7656,1021.1575 1899.7656,1018.0325 Q1899.7656,1014.9075 1901.0781,1013.2513 Q1902.4063,1011.595 1904.9063,1011.595 Q1905.6094,1011.595 1906.25,1011.7513 Q1906.9063,1011.9075 1907.4688,1012.2044 L1907.4688,1014.9231 Q1906.8438,1014.345 1906.25,1014.0794 Q1905.6563,1013.7981 1905.0313,1013.7981 Q1903.6875,1013.7981 1903,1014.8763 Q1902.3125,1015.9388 1902.3125,1018.0325 Q1902.3125,1020.1263 1903,1021.2044 Q1903.6875,1022.2669 1905.0313,1022.2669 Q1905.6563,1022.2669 1906.25,1022.0013 Q1906.8438,1021.72 1907.4688,1021.1419 L1907.4688,1023.8606 Z " fill="#000000"/><text fill="#000000" font-family="sans-serif" font-size="14" lengthAdjust="spacing" textLength="158" x="1921.5" y="1023.0667">SewersUseCaseBridge</text><line style="stroke:#181818;stroke-width:0.5;" x1="1877" x2="2095" y1="1034.22" y2="1034.22"/><line style="stroke:#181818;stroke-width:0.5;" x1="1877" x2="2095" y1="1042.22" y2="1042.22"/><ellipse cx="1887" cy="1055.8684" fill="#84BE84" rx="3" ry="3" style="stroke:#038048;stroke-width:1.0;"/><text fill="#000000" font-family="sans-serif" font-size="14" lengthAdjust="spacing" textLength="194" x="1896" y="1059.2151">Set&lt;Sewer&gt; observe(UUID)</text><ellipse cx="1887" cy="1072.1653" fill="#84BE84" rx="3" ry="3" style="stroke:#038048;stroke-width:1.0;"/><text fill="#000000" font-family="sans-serif" font-size="14" lengthAdjust="spacing" textLength="139" x="1896" y="1075.512">void indicate(Sewer)</text></g><g id="elem_GMN39"><path d="M2274.5,552.17 L2274.5,577.3028 L2697.5,577.3028 L2697.5,562.17 L2687.5,552.17 L2274.5,552.17 " fill="#FEFFDD" style="stroke:#181818;stroke-width:0.5;"/><path d="M2687.5,552.17 L2687.5,562.17 L2697.5,562.17 L2687.5,552.17 " fill="#FEFFDD" style="stroke:#181818;stroke-width:1.0;"/><text fill="#000000" font-family="sans-serif" font-size="13" lengthAdjust="spacing" textLength="402" x="2280.5" y="569.2369">Invokes other components to build final indication composition.</text></g><g id="elem_GMN45"><path d="M2274,825.92 L2274,834.56 L1743.34,838.56 L2274,842.56 L2274,851.0528 A0,0 0 0 0 2274,851.0528 L2852,851.0528 A0,0 0 0 0 2852,851.0528 L2852,835.92 L2842,825.92 L2274,825.92 A0,0 0 0 0 2274,825.92 " fill="#FEFFDD" style="stroke:#181818;stroke-width:0.5;"/><path d="M2842,825.92 L2842,835.92 L2852,835.92 L2842,825.92 " fill="#FEFFDD" style="stroke:#181818;stroke-width:0.5;"/><text fill="#000000" font-family="sans-serif" font-size="13" lengthAdjust="spacing" textLength="557" x="2280" y="842.9869">Representing the abstract functionality only, implementation (detail) is somewhere else</text></g><g id="elem_GMN55"><path d="M2277.5,229.58 L2277.5,254.7128 L2748.5,254.7128 L2748.5,239.58 L2738.5,229.58 L2277.5,229.58 " fill="#FEFFDD" style="stroke:#181818;stroke-width:0.5;"/><path d="M2738.5,229.58 L2738.5,239.58 L2748.5,239.58 L2738.5,229.58 " fill="#FEFFDD" style="stroke:#181818;stroke-width:1.0;"/><text fill="#000000" font-family="sans-serif" font-size="13" lengthAdjust="spacing" textLength="450" x="2283.5" y="246.6469">Frameworks and tools such as the Database, the Web Framework, etc.</text></g><g id="elem_GMN58"><path d="M2784,229.58 L2784,254.7128 L3890,254.7128 L3890,239.58 L3880,229.58 L2784,229.58 " fill="#FEFFDD" style="stroke:#181818;stroke-width:0.5;"/><path d="M3880,229.58 L3880,239.58 L3890,239.58 L3880,229.58 " fill="#FEFFDD" style="stroke:#181818;stroke-width:1.0;"/><text fill="#000000" font-family="sans-serif" font-size="13" lengthAdjust="spacing" textLength="1085" x="2790" y="246.6469">Convert data from the format most convenient for the use cases and entities, to the format most convenient for some external agency such as the Database or the Web.</text></g><g id="elem_GMN61"><path d="M3924.5,229.58 L3924.5,254.7128 L4597.5,254.7128 L4597.5,239.58 L4587.5,229.58 L3924.5,229.58 " fill="#FEFFDD" style="stroke:#181818;stroke-width:0.5;"/><path d="M4587.5,229.58 L4587.5,239.58 L4597.5,239.58 L4587.5,229.58 " fill="#FEFFDD" style="stroke:#181818;stroke-width:1.0;"/><text fill="#000000" font-family="sans-serif" font-size="13" lengthAdjust="spacing" textLength="652" x="3930.5" y="246.6469">Application specific business rules. It encapsulates and implements all of the use cases of the system.</text></g><g id="elem_GMN64"><path d="M2274.5,427.88 L2274.5,453.0128 L3213.5,453.0128 L3213.5,437.88 L3203.5,427.88 L2274.5,427.88 " fill="#FEFFDD" style="stroke:#181818;stroke-width:0.5;"/><path d="M3203.5,427.88 L3203.5,437.88 L3213.5,437.88 L3203.5,427.88 " fill="#FEFFDD" style="stroke:#181818;stroke-width:1.0;"/><text fill="#000000" font-family="sans-serif" font-size="13" lengthAdjust="spacing" textLength="918" x="2280.5" y="444.9469">Entities encapsulate Enterprise wide business rules. An entity can be an object with methods, or it can be a set of data structures and functions.</text></g><!--link SewerOverflowIndicationComponent to GMN39--><g id="link_SewerOverflowIndicationComponent_GMN39"><path d="M1056,532.36 C1056,517.68 1056,503.56 1056,503.56 C1056,503.56 2486,503.56 2486,503.56 C2486,503.56 2486,533.81 2486,551.77 " fill="none" id="SewerOverflowIndicationComponent-GMN39" style="stroke:#181818;stroke-width:1.0;stroke-dasharray:7.0,7.0;"/></g><!--link drivers to GMN55--><g id="link_drivers_GMN55"><path d="M2250.0634,242.56 C2250.103,242.56 2250.1428,242.56 2250.1826,242.56 C2250.2624,242.56 2250.3427,242.56 2250.4235,242.56 C2250.7468,242.56 2251.0787,242.56 2251.4189,242.56 C2252.0994,242.56 2252.8134,242.56 2253.56,242.56 C2259.5325,242.56 2267.585,242.56 2277.16,242.56 " fill="none" id="drivers-GMN55" style="stroke:#181818;stroke-width:1.0;stroke-dasharray:7.0,7.0;"/></g><!--link adapters to GMN58--><g id="link_adapters_GMN58"><path d="M2203.0377,264.56 C2208.9319,264.56 2217.5767,264.56 2228.5791,264.56 C2250.584,264.56 2282.0195,264.56 2319.7422,264.56 C2395.1875,264.56 2495.7813,264.56 2596.375,264.56 C2797.5625,264.56 2998.75,264.56 2998.75,264.56 C2998.75,264.56 2998.75,260.12 2998.75,255.18 " fill="none" id="adapters-GMN58" style="stroke:#181818;stroke-width:1.0;stroke-dasharray:7.0,7.0;"/></g><!--link use_cases to GMN61--><g id="link_use_cases_GMN61"><path d="M2155.4296,220.56 C2156.67,220.56 2158.0295,220.56 2159.506,220.56 C2162.4589,220.56 2165.8798,220.56 2169.7524,220.56 C2185.2432,220.56 2207.9629,220.56 2236.8789,220.56 C2294.7109,220.56 2377.3281,220.56 2476.4688,220.56 C2674.75,220.56 2939.125,220.56 3203.5,220.56 C3732.25,220.56 4261,220.56 4261,220.56 C4261,220.56 4261,224.69 4261,229.34 " fill="none" id="use_cases-GMN61" style="stroke:#181818;stroke-width:1.0;stroke-dasharray:7.0,7.0;"/></g><!--link entities to GMN64--><g id="link_entities_GMN64"><path d="M1828.0487,440.56 C1828.228,440.56 1828.4101,440.56 1828.5952,440.56 C1828.9653,440.56 1829.3468,440.56 1829.7397,440.56 C1831.3113,440.56 1833.0647,440.56 1834.9937,440.56 C1842.7096,440.56 1853.2348,440.56 1866.1734,440.56 C1892.0506,440.56 1927.5813,440.56 1969.5975,440.56 C2053.63,440.56 2163.605,440.56 2274.18,440.56 " fill="none" id="entities-GMN64" style="stroke:#181818;stroke-width:1.0;stroke-dasharray:7.0,7.0;"/></g><!--link SewerOverflowIndicationService to SewerOverflowIndicationComponent--><g id="link_SewerOverflowIndicationService_SewerOverflowIndicationComponent"><path codeLine="97" d="M923,472.78 C923,491.05 923,507.82 923,526.14 " fill="none" id="SewerOverflowIndicationService-to-SewerOverflowIndicationComponent" style="stroke:#181818;stroke-width:1.0;"/><polygon fill="#181818" points="923,532.14,927,523.14,923,527.14,919,523.14,923,532.14" style="stroke:#181818;stroke-width:1.0;"/></g><!--link SewerOverflowIndicationComponent to Sewers--><g id="link_SewerOverflowIndicationComponent_Sewers"><path codeLine="98" d="M1064.27,565.56 C1233.94,565.56 1496,565.56 1496,565.56 C1496,565.56 1496,838.56 1496,838.56 C1496,838.56 1500.99,838.56 1516.74,838.56 " fill="none" id="SewerOverflowIndicationComponent-to-Sewers" style="stroke:#181818;stroke-width:1.0;"/><polygon fill="#181818" points="1522.74,838.56,1513.74,834.56,1517.74,838.56,1513.74,842.56,1522.74,838.56" style="stroke:#181818;stroke-width:1.0;"/></g><!--link SewerOverflowIndicationComponent to RainIndicationComponent--><g id="link_SewerOverflowIndicationComponent_RainIndicationComponent"><path codeLine="99" d="M931,597.22 C931,649.9 931,747.39 931,800.05 " fill="none" id="SewerOverflowIndicationComponent-to-RainIndicationComponent" style="stroke:#181818;stroke-width:1.0;"/><polygon fill="#181818" points="931,806.05,935,797.05,931,801.05,927,797.05,931,806.05" style="stroke:#181818;stroke-width:1.0;"/></g><!--link SewerOverflowIndicationComponent to PumpIndicationComponent--><g id="link_SewerOverflowIndicationComponent_PumpIndicationComponent"><path codeLine="100" d="M790.25,597.23 C790.25,669.76 790.25,838.56 790.25,838.56 C790.25,838.56 785.67,838.56 769.95,838.56 " fill="none" id="SewerOverflowIndicationComponent-to-PumpIndicationComponent" style="stroke:#181818;stroke-width:1.0;"/><polygon fill="#181818" points="763.95,838.56,772.95,842.56,768.95,838.56,772.95,834.56,763.95,838.56" style="stroke:#181818;stroke-width:1.0;"/></g><!--link SewerOverflowIndicationComponent to FlowIndicationComponent--><g id="link_SewerOverflowIndicationComponent_FlowIndicationComponent"><path codeLine="101" d="M781.58,565.56 C606.46,565.56 331,565.56 331,565.56 C331,565.56 331,727.81 331,800.1 " fill="none" id="SewerOverflowIndicationComponent-to-FlowIndicationComponent" style="stroke:#181818;stroke-width:1.0;"/><polygon fill="#181818" points="331,806.1,335,797.1,331,801.1,327,797.1,331,806.1" style="stroke:#181818;stroke-width:1.0;"/></g><!--link SewerObservationService to SewerObservationComponent--><g id="link_SewerObservationService_SewerObservationComponent"><path codeLine="102" d="M1628,472.78 C1628,491.05 1628,507.82 1628,526.14 " fill="none" id="SewerObservationService-to-SewerObservationComponent" style="stroke:#181818;stroke-width:1.0;"/><polygon fill="#181818" points="1628,532.14,1632,523.14,1628,527.14,1624,523.14,1628,532.14" style="stroke:#181818;stroke-width:1.0;"/></g><!--link SewerObservationComponent to Sewers--><g id="link_SewerObservationComponent_Sewers"><path codeLine="103" d="M1633,597.22 C1633,647.35 1633,737.49 1633,792.06 " fill="none" id="SewerObservationComponent-to-Sewers" style="stroke:#181818;stroke-width:1.0;"/><polygon fill="#181818" points="1633,798.06,1637,789.06,1633,793.06,1629,789.06,1633,798.06" style="stroke:#181818;stroke-width:1.0;"/></g><!--link Sewer to Problem--><g id="link_Sewer_Problem"><path codeLine="104" d="M1487.7,887.56 C1504.22,887.56 1515.5,887.56 1515.5,887.56 C1515.5,887.56 1515.5,949.89 1515.5,995.81 " fill="none" id="Sewer-to-Problem" style="stroke:#181818;stroke-width:1.0;"/><polygon fill="#181818" points="1515.5,1001.81,1519.5,992.81,1515.5,996.81,1511.5,992.81,1515.5,1001.81" style="stroke:#181818;stroke-width:1.0;"/></g><!--link Sewer to KeyPerformanceIndicator--><g id="link_Sewer_KeyPerformanceIndicator"><path codeLine="105" d="M1338,895.32 C1338,926.21 1338,958.03 1338,987.6 " fill="none" id="Sewer-to-KeyPerformanceIndicator" style="stroke:#181818;stroke-width:1.0;"/><polygon fill="#181818" points="1338,993.6,1342,984.6,1338,988.6,1334,984.6,1338,993.6" style="stroke:#181818;stroke-width:1.0;"/></g><!--link SewerIndicationUseCase to SewerOverflowIndicationService--><g id="link_SewerIndicationUseCase_SewerOverflowIndicationService"><path codeLine="106" d="M923,274.45 C923,311.21 923,364.93 923,401.83 " fill="none" id="SewerIndicationUseCase-to-SewerOverflowIndicationService" style="stroke:#181818;stroke-width:1.0;"/><polygon fill="#181818" points="923,407.83,927,398.83,923,402.83,919,398.83,923,407.83" style="stroke:#181818;stroke-width:1.0;"/></g><!--link SewerObservationUseCase to SewerObservationService--><g id="link_SewerObservationUseCase_SewerObservationService"><path codeLine="107" d="M1628,274.45 C1628,311.21 1628,364.93 1628,401.83 " fill="none" id="SewerObservationUseCase-to-SewerObservationService" style="stroke:#181818;stroke-width:1.0;"/><polygon fill="#181818" points="1628,407.83,1632,398.83,1628,402.83,1624,398.83,1628,407.83" style="stroke:#181818;stroke-width:1.0;"/></g><!--reverse link Sewers to SewersUseCaseBridge--><g id="link_Sewers_SewersUseCaseBridge"><path codeLine="108" d="M1761.24,865.56 C1864.81,865.56 1986,865.56 1986,865.56 C1986,865.56 1986,949.68 1986,1001.92 " fill="none" id="Sewers-backto-SewersUseCaseBridge" style="stroke:#181818;stroke-width:1.0;stroke-dasharray:7.0,7.0;"/><polygon fill="none" points="1743.24,865.56,1761.24,871.56,1761.24,859.56,1743.24,865.56" style="stroke:#181818;stroke-width:1.0;"/></g><!--link SewersUseCaseBridge to SewersUseCase--><g id="link_SewersUseCaseBridge_SewersUseCase"><path codeLine="109" d="M1986,1083.06 C1986,1113.76 1986,1149.75 1986,1180.5 " fill="none" id="SewersUseCaseBridge-to-SewersUseCase" style="stroke:#181818;stroke-width:1.0;"/><polygon fill="#181818" points="1986,1186.5,1990,1177.5,1986,1181.5,1982,1177.5,1986,1186.5" style="stroke:#181818;stroke-width:1.0;"/></g><!--SRC=[tLXBR-Cs4BxhLqpjYuDwXQBeeG4M0RRP3M0isWqI17iiA6faivP8WQII6cd-UuUYPCiF9NPiARjxiamDPxvlE9o7ViercsOC2eCJQL5d60jcyPhnEPkYWOIb1WCp5p9dccMG2ebsaICeRMSgC3Fr08RseNAhGUxtGQp5FMe3p42C8LTPpkGYpBMofLney05rM4iDpNmHfGN2uzDI0ujPRlTM4Ix5Xx__cYJHRqrLnErlpWmUgYjSRHmcoJaxFszgHMc55KSe3PSQXWbFukYNflP85J9cUd6yzb38M70wqt2fSvYARCtPN4chLTg5iR3MFLIQoIbsH5951lLzFnmtRVL4qKlsGN3TqdFqoYsBpao6bVvkBuYNdEUYH-SshVNeu5rc-tGoxOnIp7fqzAR57ftTPhfJX- -HxOytydAsFTv6AM1sc0Xuoeo1mQqJ-4BRarGzJ3njeUGj8HCS1vqKi-TjmcC0yFEz4Z6K_XdzoVBtjrOBEHs3_xqu2vvg0bThEYu9g99aUz1b6GvRZ3QWux_82_iI-EiYoti7tsBqOF0tJCZUmRSOFHXyImpsnE8bw_lJaSeYQ36TML39sm4E9l9UpQaBLtQ66dYzRi0gY0gHnf08oL8GoxrUo0Zt70OeOt1Sri-dp92dJaXRdMUBBNy8jsZVbm8NLJhopjyAfTNsayPGMviSjbhTWbr7q0guS4DgmeYY1sy6fsy-lM8F1XvPPAnct3urS5NKHdTtauzd6s9bwDVXE2etd3pQTm8ERZ3NQ9oGd085CzIO82aaTvvcgUixb4mNOn1PJiq9IVkG7iLecKZFG1WmAiC7kWpK4RdfVsU03xfk-ZqhVmhEpp15Eub7fRi_u-AQma3fZ4cErQLMsebypeMNSSTrxJkm2_UYUZR-RLMaLwjDySODQR4qwACZ3zje-cjItecI6LN5QqNABfKqzEpEi_B1KiQLVR_sLv55MBhA5QI4fUceMTQz2mPzDS5XPN2JqmqoKxDO8TvEuwFDRBPwTMVmaX0DJjXBXxjD7DZtRUQ_uu6-M1VMW3vJ5xRIw_7ODlhuS4tlpYJx9Ve7kJqaopg9CVXzcuwkJVsXHJpjZ8ZNlkNVBGedgWx1bMQKevMU6s2KdgrIAUNjWiySFvVxFpBB8W8sBlzznGYMMyQ0bZVwbbUNfe0I3YrOYCaO95fbfR4oOLd8bB5kdBz7ALnnf-NoDNaKgi-nXA1E5sFNRhsmszKbwWd8jEl7QCoKVB6JD5IcYFOfUAw28FYGvsdT1PeSkKW4foxH28aKSRf8AL1WOeaMPxafKZfbptDPRkblcZe0wxwe5ip2MCgM9mMzJCd1f_gBSmCUV79tFjU2e3o86BVOV93rXn7E94JKLaYAQtVLIDxE84CxKp4T83bTsAMGgwubP1SRT6iBRWjTEQFkHqo3QD-p-hjt5syuTBpTV7O2thlRp- -Qqi5Z-uzAj-KJouzAzwgR-xdte7u2SeVFsK7_a_stcdNs6K5FXdtFMUYxulIA-JNeU1hh964ytqq47SzjNQI9bfGKT3STXKNutpUL1lO1_NhNFwlzVm00]--></g></svg>