<svg xmlns="http://www.w3.org/2000/svg" xmlns:xlink="http://www.w3.org/1999/xlink" contentStyleType="text/css" height="1445px" preserveAspectRatio="none" style="width:4644px;height:1445px;background:#FFFFFF;" version="1.1" viewBox="0 0 4644 1445" width="4644px" zoomAndPan="magnify"><defs/><g><!--cluster drivers--><g id="cluster_drivers"><path d="M8.5,6 L304.5,6 A3.75,3.75 0 0 1 307,8.5 L314,28.2969 L2291.5,28.2969 A2.5,2.5 0 0 1 2294,30.7969 L2294,1436.06 A2.5,2.5 0 0 1 2291.5,1438.56 L8.5,1438.56 A2.5,2.5 0 0 1 6,1436.06 L6,8.5 A2.5,2.5 0 0 1 8.5,6 " fill="#87CEEB" style="stroke:#000000;stroke-width:1.5;"/><line style="stroke:#000000;stroke-width:1.5;" x1="6" x2="314" y1="28.2969" y2="28.2969"/><text fill="#000000" font-family="sans-serif" font-size="14" font-weight="bold" lengthAdjust="spacing" textLength="295" x="10" y="20.9951">de.company.prototype.sewer.drivers</text></g><!--cluster adapters--><g id="cluster_adapters"><path d="M48.5,65 L119.5,65 A3.75,3.75 0 0 1 122,67.5 L129,87.2969 L2243.5,87.2969 A2.5,2.5 0 0 1 2246,89.7969 L2246,1396.06 A2.5,2.5 0 0 1 2243.5,1398.56 L48.5,1398.56 A2.5,2.5 0 0 1 46,1396.06 L46,67.5 A2.5,2.5 0 0 1 48.5,65 " fill="#82FFB4" style="stroke:#000000;stroke-width:1.5;"/><line style="stroke:#000000;stroke-width:1.5;" x1="46" x2="129" y1="87.2969" y2="87.2969"/><text fill="#000000" font-family="sans-serif" font-size="14" font-weight="bold" lengthAdjust="spacing" textLength="70" x="50" y="79.9951">adapters</text></g><!--cluster use_cases--><g id="cluster_use_cases"><path d="M88.5,124 L171.5,124 A3.75,3.75 0 0 1 174,126.5 L181,146.2969 L2195.5,146.2969 A2.5,2.5 0 0 1 2198,148.7969 L2198,1356.06 A2.5,2.5 0 0 1 2195.5,1358.56 L88.5,1358.56 A2.5,2.5 0 0 1 86,1356.06 L86,126.5 A2.5,2.5 0 0 1 88.5,124 " fill="#FF9A99" style="stroke:#000000;stroke-width:1.5;"/><line style="stroke:#000000;stroke-width:1.5;" x1="86" x2="181" y1="146.2969" y2="146.2969"/><text fill="#000000" font-family="sans-serif" font-size="14" font-weight="bold" lengthAdjust="spacing" textLength="82" x="90" y="138.9951">use_cases</text></g><!--cluster entities--><g id="cluster_entities"><path d="M128.5,322.29 L188.5,322.29 A3.75,3.75 0 0 1 191,324.79 L198,344.5869 L1869.5,344.5869 A2.5,2.5 0 0 1 1872,347.0869 L1872,1203.47 A2.5,2.5 0 0 1 1869.5,1205.97 L128.5,1205.97 A2.5,2.5 0 0 1 126,1203.47 L126,324.79 A2.5,2.5 0 0 1 128.5,322.29 " fill="#FCFDB0" style="stroke:#000000;stroke-width:1.5;"/><line style="stroke:#000000;stroke-width:1.5;" x1="126" x2="198" y1="344.5869" y2="344.5869"/><text fill="#000000" font-family="sans-serif" font-size="14" font-weight="bold" lengthAdjust="spacing" textLength="59" x="130" y="337.2851">entities</text></g><!--cluster indicate--><g id="cluster_indicate"><path d="M160.5,373.29 L223.5,373.29 A3.75,3.75 0 0 1 226,375.79 L233,395.5869 L1145.5,395.5869 A2.5,2.5 0 0 1 1148,398.0869 L1148,951.13 A2.5,2.5 0 0 1 1145.5,953.63 L160.5,953.63 A2.5,2.5 0 0 1 158,951.13 L158,375.79 A2.5,2.5 0 0 1 160.5,373.29 " fill="#FFFFFF" style="stroke:#000000;stroke-width:1.5;"/><line style="stroke:#000000;stroke-width:1.5;" x1="158" x2="233" y1="395.5869" y2="395.5869"/><text fill="#000000" font-family="sans-serif" font-size="14" font-weight="bold" lengthAdjust="spacing" textLength="62" x="162" y="388.2851">indicate</text></g><!--cluster boundary--><g id="cluster_boundary"><path d="M764.5,416.29 L840.5,416.29 A3.75,3.75 0 0 1 843,418.79 L850,438.5869 L1121.5,438.5869 A2.5,2.5 0 0 1 1124,441.0869 L1124,677.39 A2.5,2.5 0 0 1 1121.5,679.89 L764.5,679.89 A2.5,2.5 0 0 1 762,677.39 L762,418.79 A2.5,2.5 0 0 1 764.5,416.29 " fill="#00FF00" style="stroke:#000000;stroke-width:1.5;"/><line style="stroke:#000000;stroke-width:1.5;" x1="762" x2="850" y1="438.5869" y2="438.5869"/><text fill="#000000" font-family="sans-serif" font-size="14" font-weight="bold" lengthAdjust="spacing" textLength="75" x="766" y="431.2851">boundary</text></g><!--cluster control--><g id="cluster_control"><path d="M788.5,540.59 L845.5,540.59 A3.75,3.75 0 0 1 848,543.09 L855,562.8869 L1097.5,562.8869 A2.5,2.5 0 0 1 1100,565.3869 L1100,653.39 A2.5,2.5 0 0 1 1097.5,655.89 L788.5,655.89 A2.5,2.5 0 0 1 786,653.39 L786,543.09 A2.5,2.5 0 0 1 788.5,540.59 " fill="#FFA500" style="stroke:#000000;stroke-width:1.5;"/><line style="stroke:#000000;stroke-width:1.5;" x1="786" x2="855" y1="562.8869" y2="562.8869"/><text fill="#000000" font-family="sans-serif" font-size="14" font-weight="bold" lengthAdjust="spacing" textLength="56" x="790" y="555.5851">control</text></g><!--cluster control--><g id="cluster_control"><path d="M184.5,814.33 L360.5,814.33 A3.75,3.75 0 0 1 363,816.83 L370,836.6269 L477.5,836.6269 A2.5,2.5 0 0 1 480,839.1269 L480,927.13 A2.5,2.5 0 0 1 477.5,929.63 L184.5,929.63 A2.5,2.5 0 0 1 182,927.13 L182,816.83 A2.5,2.5 0 0 1 184.5,814.33 " fill="#FFA500" style="stroke:#000000;stroke-width:1.5;"/><line style="stroke:#000000;stroke-width:1.5;" x1="182" x2="370" y1="836.6269" y2="836.6269"/><text fill="#000000" font-family="sans-serif" font-size="14" font-weight="bold" lengthAdjust="spacing" textLength="175" x="186" y="829.3251">flow.boundary.control</text></g><!--cluster control--><g id="cluster_control"><path d="M506.5,814.33 L692.5,814.33 A3.75,3.75 0 0 1 695,816.83 L702,836.6269 L799.5,836.6269 A2.5,2.5 0 0 1 802,839.1269 L802,927.13 A2.5,2.5 0 0 1 799.5,929.63 L506.5,929.63 A2.5,2.5 0 0 1 504,927.13 L504,816.83 A2.5,2.5 0 0 1 506.5,814.33 " fill="#FFA500" style="stroke:#000000;stroke-width:1.5;"/><line style="stroke:#000000;stroke-width:1.5;" x1="504" x2="702" y1="836.6269" y2="836.6269"/><text fill="#000000" font-family="sans-serif" font-size="14" font-weight="bold" lengthAdjust="spacing" textLength="185" x="508" y="829.3251">pump.boundary.control</text></g><!--cluster control--><g id="cluster_control"><path d="M828.5,814.33 L1000.5,814.33 A3.75,3.75 0 0 1 1003,816.83 L1010,836.6269 L1121.5,836.6269 A2.5,2.5 0 0 1 1124,839.1269 L1124,927.13 A2.5,2.5 0 0 1 1121.5,929.63 L828.5,929.63 A2.5,2.5 0 0 1 826,927.13 L826,816.83 A2.5,2.5 0 0 1 828.5,814.33 " fill="#FFA500" style="stroke:#000000;stroke-width:1.5;"/><line style="stroke:#000000;stroke-width:1.5;" x1="826" x2="1010" y1="836.6269" y2="836.6269"/><text fill="#000000" font-family="sans-serif" font-size="14" font-weight="bold" lengthAdjust="spacing" textLength="171" x="830" y="829.3251">rain.boundary.control</text></g><!--cluster boundary--><g id="cluster_boundary"><path d="M1514.5,416.29 L1660.5,416.29 A3.75,3.75 0 0 1 1663,418.79 L1670,438.5869 L1829.5,438.5869 A2.5,2.5 0 0 1 1832,441.0869 L1832,677.39 A2.5,2.5 0 0 1 1829.5,679.89 L1514.5,679.89 A2.5,2.5 0 0 1 1512,677.39 L1512,418.79 A2.5,2.5 0 0 1 1514.5,416.29 " fill="#00FF00" style="stroke:#000000;stroke-width:1.5;"/><line style="stroke:#000000;stroke-width:1.5;" x1="1512" x2="1670" y1="438.5869" y2="438.5869"/><text fill="#000000" font-family="sans-serif" font-size="14" font-weight="bold" lengthAdjust="spacing" textLength="145" x="1516" y="431.2851">observe.boundary</text></g><!--cluster control--><g id="cluster_control"><path d="M1538.5,540.59 L1595.5,540.59 A3.75,3.75 0 0 1 1598,543.09 L1605,562.8869 L1805.5,562.8869 A2.5,2.5 0 0 1 1808,565.3869 L1808,653.39 A2.5,2.5 0 0 1 1805.5,655.89 L1538.5,655.89 A2.5,2.5 0 0 1 1536,653.39 L1536,543.09 A2.5,2.5 0 0 1 1538.5,540.59 " fill="#FFA500" style="stroke:#000000;stroke-width:1.5;"/><line style="stroke:#000000;stroke-width:1.5;" x1="1536" x2="1605" y1="562.8869" y2="562.8869"/><text fill="#000000" font-family="sans-serif" font-size="14" font-weight="bold" lengthAdjust="spacing" textLength="56" x="1540" y="555.5851">control</text></g><!--cluster sewer--><g id="cluster_sewer"><path d="M1174.5,703.89 L1225.5,703.89 A3.75,3.75 0 0 1 1228,706.39 L1235,726.1869 L1829.5,726.1869 A2.5,2.5 0 0 1 1832,728.6869 L1832,1171.47 A2.5,2.5 0 0 1 1829.5,1173.97 L1174.5,1173.97 A2.5,2.5 0 0 1 1172,1171.47 L1172,706.39 A2.5,2.5 0 0 1 1174.5,703.89 " fill="#FFFFFF" style="stroke:#000000;stroke-width:1.5;"/><line style="stroke:#000000;stroke-width:1.5;" x1="1172" x2="1235" y1="726.1869" y2="726.1869"/><text fill="#000000" font-family="sans-serif" font-size="14" font-weight="bold" lengthAdjust="spacing" textLength="50" x="1176" y="718.8851">sewer</text></g><!--cluster boundary--><g id="cluster_boundary"><path d="M1235.5,746.89 L1311.5,746.89 A3.75,3.75 0 0 1 1314,749.39 L1321,769.1869 L1800.5,769.1869 A2.5,2.5 0 0 1 1803,771.6869 L1803,975.58 A2.5,2.5 0 0 1 1800.5,978.08 L1235.5,978.08 A2.5,2.5 0 0 1 1233,975.58 L1233,749.39 A2.5,2.5 0 0 1 1235.5,746.89 " fill="#00FF00" style="stroke:#000000;stroke-width:1.5;"/><line style="stroke:#000000;stroke-width:1.5;" x1="1233" x2="1321" y1="769.1869" y2="769.1869"/><text fill="#000000" font-family="sans-serif" font-size="14" font-weight="bold" lengthAdjust="spacing" textLength="75" x="1237" y="761.8851">boundary</text></g><!--cluster entity--><g id="cluster_entity"><path d="M1259.5,789.89 L1366.5,789.89 A3.75,3.75 0 0 1 1369,792.39 L1376,812.1869 L1544.5,812.1869 A2.5,2.5 0 0 1 1547,814.6869 L1547,951.58 A2.5,2.5 0 0 1 1544.5,954.08 L1259.5,954.08 A2.5,2.5 0 0 1 1257,951.58 L1257,792.39 A2.5,2.5 0 0 1 1259.5,789.89 " fill="#FCFDB0" style="stroke:#000000;stroke-width:1.5;"/><line style="stroke:#000000;stroke-width:1.5;" x1="1257" x2="1376" y1="812.1869" y2="812.1869"/><text fill="#000000" font-family="sans-serif" font-size="14" font-weight="bold" lengthAdjust="spacing" textLength="106" x="1261" y="804.8851">control.entity</text></g><!--cluster entity--><g id="cluster_entity"><path d="M1198.5,1002.08 L1413.5,1002.08 A3.75,3.75 0 0 1 1416,1004.58 L1423,1024.3769 L1505.5,1024.3769 A2.5,2.5 0 0 1 1508,1026.8769 L1508,1147.47 A2.5,2.5 0 0 1 1505.5,1149.97 L1198.5,1149.97 A2.5,2.5 0 0 1 1196,1147.47 L1196,1004.58 A2.5,2.5 0 0 1 1198.5,1002.08 " fill="#FCFDB0" style="stroke:#000000;stroke-width:1.5;"/><line style="stroke:#000000;stroke-width:1.5;" x1="1196" x2="1423" y1="1024.3769" y2="1024.3769"/><text fill="#000000" font-family="sans-serif" font-size="14" font-weight="bold" lengthAdjust="spacing" textLength="214" x="1200" y="1017.0751">kpi.boundary.control.entity</text></g><!--cluster entity--><g id="cluster_entity"><path d="M1534.5,1010.22 L1791.5,1010.22 A3.75,3.75 0 0 1 1794,1012.72 L1801,1032.5169 L1805.5,1032.5169 A2.5,2.5 0 0 1 1808,1035.0169 L1808,1139.32 A2.5,2.5 0 0 1 1805.5,1141.82 L1534.5,1141.82 A2.5,2.5 0 0 1 1532,1139.32 L1532,1012.72 A2.5,2.5 0 0 1 1534.5,1010.22 " fill="#FCFDB0" style="stroke:#000000;stroke-width:1.5;"/><line style="stroke:#000000;stroke-width:1.5;" x1="1532" x2="1801" y1="1032.5169" y2="1032.5169"/><text fill="#000000" font-family="sans-serif" font-size="14" font-weight="bold" lengthAdjust="spacing" textLength="256" x="1536" y="1025.2151">problem.boundary.control.entity</text></g><!--cluster boundary--><g id="cluster_boundary"><path d="M805.5,175 L948.5,175 A3.75,3.75 0 0 1 951,177.5 L958,197.2969 L1080.5,197.2969 A2.5,2.5 0 0 1 1083,199.7969 L1083,287.79 A2.5,2.5 0 0 1 1080.5,290.29 L805.5,290.29 A2.5,2.5 0 0 1 803,287.79 L803,177.5 A2.5,2.5 0 0 1 805.5,175 " fill="#00FF00" style="stroke:#000000;stroke-width:1.5;"/><line style="stroke:#000000;stroke-width:1.5;" x1="803" x2="958" y1="197.2969" y2="197.2969"/><text fill="#000000" font-family="sans-serif" font-size="14" font-weight="bold" lengthAdjust="spacing" textLength="142" x="807" y="189.9951">indicate.boundary</text></g><!--cluster boundary--><g id="cluster_boundary"><path d="M1548.5,175 L1694.5,175 A3.75,3.75 0 0 1 1697,177.5 L1704,197.2969 L1795.5,197.2969 A2.5,2.5 0 0 1 1798,199.7969 L1798,287.79 A2.5,2.5 0 0 1 1795.5,290.29 L1548.5,290.29 A2.5,2.5 0 0 1 1546,287.79 L1546,177.5 A2.5,2.5 0 0 1 1548.5,175 " fill="#00FF00" style="stroke:#000000;stroke-width:1.5;"/><line style="stroke:#000000;stroke-width:1.5;" x1="1546" x2="1704" y1="197.2969" y2="197.2969"/><text fill="#000000" font-family="sans-serif" font-size="14" font-weight="bold" lengthAdjust="spacing" textLength="145" x="1550" y="189.9951">observe.boundary</text></g><!--cluster boundary--><g id="cluster_boundary"><path d="M1906.5,1010.22 L2046.5,1010.22 A3.75,3.75 0 0 1 2049,1012.72 L2056,1032.5169 L2155.5,1032.5169 A2.5,2.5 0 0 1 2158,1035.0169 L2158,1324.06 A2.5,2.5 0 0 1 2155.5,1326.56 L1906.5,1326.56 A2.5,2.5 0 0 1 1904,1324.06 L1904,1012.72 A2.5,2.5 0 0 1 1906.5,1010.22 " fill="#00FF00" style="stroke:#000000;stroke-width:1.5;"/><line style="stroke:#000000;stroke-width:1.5;" x1="1904" x2="2056" y1="1032.5169" y2="1032.5169"/><text fill="#000000" font-family="sans-serif" font-size="14" font-weight="bold" lengthAdjust="spacing" textLength="139" x="1908" y="1025.2151">sewers.boundary</text></g><!--class SewerOverflowIndicationService--><g id="elem_SewerOverflowIndicationService"><rect codeLine="37" fill="#F1F1F1" height="64.2969" id="SewerOverflowIndicationService" rx="2.5" ry="2.5" style="stroke:#181818;stroke-width:0.5;" width="250" x="818" y="451.29"/><ellipse cx="833" cy="467.29" fill="#ADD1B2" rx="11" ry="11" style="stroke:#181818;stroke-width:1.0;"/><path d="M835.9688,472.9306 Q835.3906,473.2275 834.75,473.3681 Q834.1094,473.5244 833.4063,473.5244 Q830.9063,473.5244 829.5781,471.8837 Q828.2656,470.2275 828.2656,467.1025 Q828.2656,463.9775 829.5781,462.3212 Q830.9063,460.665 833.4063,460.665 Q834.1094,460.665 834.75,460.8212 Q835.4063,460.9775 835.9688,461.2744 L835.9688,463.9931 Q835.3438,463.415 834.75,463.1494 Q834.1563,462.8681 833.5313,462.8681 Q832.1875,462.8681 831.5,463.9462 Q830.8125,465.0087 830.8125,467.1025 Q830.8125,469.1962 831.5,470.2744 Q832.1875,471.3369 833.5313,471.3369 Q834.1563,471.3369 834.75,471.0712 Q835.3438,470.79 835.9688,470.2119 L835.9688,472.9306 Z " fill="#000000"/><text fill="#000000" font-family="sans-serif" font-size="14" lengthAdjust="spacing" textLength="218" x="847" y="472.1367">SewerOverflowIndicationService</text><line style="stroke:#181818;stroke-width:0.5;" x1="819" x2="1067" y1="483.29" y2="483.29"/><line style="stroke:#181818;stroke-width:0.5;" x1="819" x2="1067" y1="491.29" y2="491.29"/><ellipse cx="829" cy="504.9384" fill="#84BE84" rx="3" ry="3" style="stroke:#038048;stroke-width:1.0;"/><text fill="#000000" font-family="sans-serif" font-size="14" lengthAdjust="spacing" textLength="221" x="838" y="508.2851">void serve(Map&lt;String, String&gt;)</text></g><!--class SewerOverflowIndicationComponent--><g id="elem_SewerOverflowIndicationComponent"><rect codeLine="40" fill="#F1F1F1" height="64.2969" id="SewerOverflowIndicationComponent" rx="2.5" ry="2.5" style="stroke:#181818;stroke-width:0.5;" width="282" x="802" y="575.59"/><ellipse cx="817" cy="591.59" fill="#ADD1B2" rx="11" ry="11" style="stroke:#181818;stroke-width:1.0;"/><path d="M819.9688,597.2306 Q819.3906,597.5275 818.75,597.6681 Q818.1094,597.8244 817.4063,597.8244 Q814.9063,597.8244 813.5781,596.1837 Q812.2656,594.5275 812.2656,591.4025 Q812.2656,588.2775 813.5781,586.6212 Q814.9063,584.965 817.4063,584.965 Q818.1094,584.965 818.75,585.1212 Q819.4063,585.2775 819.9688,585.5744 L819.9688,588.2931 Q819.3438,587.715 818.75,587.4494 Q818.1563,587.1681 817.5313,587.1681 Q816.1875,587.1681 815.5,588.2462 Q814.8125,589.3087 814.8125,591.4025 Q814.8125,593.4962 815.5,594.5744 Q816.1875,595.6369 817.5313,595.6369 Q818.1563,595.6369 818.75,595.3712 Q819.3438,595.09 819.9688,594.5119 L819.9688,597.2306 Z " fill="#000000"/><text fill="#000000" font-family="sans-serif" font-size="14" lengthAdjust="spacing" textLength="250" x="831" y="596.4367">SewerOverflowIndicationComponent</text><line style="stroke:#181818;stroke-width:0.5;" x1="803" x2="1083" y1="607.59" y2="607.59"/><line style="stroke:#181818;stroke-width:0.5;" x1="803" x2="1083" y1="615.59" y2="615.59"/><ellipse cx="813" cy="629.2384" fill="#84BE84" rx="3" ry="3" style="stroke:#038048;stroke-width:1.0;"/><text fill="#000000" font-family="sans-serif" font-size="14" lengthAdjust="spacing" textLength="239" x="822" y="632.5851">void execute(Map&lt;String, String&gt;)</text></g><!--class FlowIndicationComponent--><g id="elem_FlowIndicationComponent"><rect codeLine="46" fill="#F1F1F1" height="64.2969" id="FlowIndicationComponent" rx="2.5" ry="2.5" style="stroke:#181818;stroke-width:0.5;" width="265" x="198.5" y="849.33"/><ellipse cx="237.8" cy="865.33" fill="#ADD1B2" rx="11" ry="11" style="stroke:#181818;stroke-width:1.0;"/><path d="M240.7688,870.9706 Q240.1906,871.2675 239.55,871.4081 Q238.9094,871.5644 238.2063,871.5644 Q235.7063,871.5644 234.3781,869.9237 Q233.0656,868.2675 233.0656,865.1425 Q233.0656,862.0175 234.3781,860.3612 Q235.7063,858.705 238.2063,858.705 Q238.9094,858.705 239.55,858.8612 Q240.2063,859.0175 240.7688,859.3144 L240.7688,862.0331 Q240.1438,861.455 239.55,861.1894 Q238.9563,860.9081 238.3313,860.9081 Q236.9875,860.9081 236.3,861.9862 Q235.6125,863.0487 235.6125,865.1425 Q235.6125,867.2362 236.3,868.3144 Q236.9875,869.3769 238.3313,869.3769 Q238.9563,869.3769 239.55,869.1112 Q240.1438,868.83 240.7688,868.2519 L240.7688,870.9706 Z " fill="#000000"/><text fill="#000000" font-family="sans-serif" font-size="14" lengthAdjust="spacing" textLength="179" x="257.2" y="870.1767">FlowIndicationComponent</text><line style="stroke:#181818;stroke-width:0.5;" x1="199.5" x2="462.5" y1="881.33" y2="881.33"/><line style="stroke:#181818;stroke-width:0.5;" x1="199.5" x2="462.5" y1="889.33" y2="889.33"/><ellipse cx="209.5" cy="902.9784" fill="#84BE84" rx="3" ry="3" style="stroke:#038048;stroke-width:1.0;"/><text fill="#000000" font-family="sans-serif" font-size="14" lengthAdjust="spacing" textLength="239" x="218.5" y="906.3251">void execute(Map&lt;String, String&gt;)</text></g><!--class PumpIndicationComponent--><g id="elem_PumpIndicationComponent"><rect codeLine="49" fill="#F1F1F1" height="64.2969" id="PumpIndicationComponent" rx="2.5" ry="2.5" style="stroke:#181818;stroke-width:0.5;" width="265" x="520.5" y="849.33"/><ellipse cx="555.75" cy="865.33" fill="#ADD1B2" rx="11" ry="11" style="stroke:#181818;stroke-width:1.0;"/><path d="M558.7188,870.9706 Q558.1406,871.2675 557.5,871.4081 Q556.8594,871.5644 556.1563,871.5644 Q553.6563,871.5644 552.3281,869.9237 Q551.0156,868.2675 551.0156,865.1425 Q551.0156,862.0175 552.3281,860.3612 Q553.6563,858.705 556.1563,858.705 Q556.8594,858.705 557.5,858.8612 Q558.1563,859.0175 558.7188,859.3144 L558.7188,862.0331 Q558.0938,861.455 557.5,861.1894 Q556.9063,860.9081 556.2813,860.9081 Q554.9375,860.9081 554.25,861.9862 Q553.5625,863.0487 553.5625,865.1425 Q553.5625,867.2362 554.25,868.3144 Q554.9375,869.3769 556.2813,869.3769 Q556.9063,869.3769 557.5,869.1112 Q558.0938,868.83 558.7188,868.2519 L558.7188,870.9706 Z " fill="#000000"/><text fill="#000000" font-family="sans-serif" font-size="14" lengthAdjust="spacing" textLength="188" x="574.25" y="870.1767">PumpIndicationComponent</text><line style="stroke:#181818;stroke-width:0.5;" x1="521.5" x2="784.5" y1="881.33" y2="881.33"/><line style="stroke:#181818;stroke-width:0.5;" x1="521.5" x2="784.5" y1="889.33" y2="889.33"/><ellipse cx="531.5" cy="902.9784" fill="#84BE84" rx="3" ry="3" style="stroke:#038048;stroke-width:1.0;"/><text fill="#000000" font-family="sans-serif" font-size="14" lengthAdjust="spacing" textLength="239" x="540.5" y="906.3251">void execute(Map&lt;String, String&gt;)</text></g><!--class RainIndicationComponent--><g id="elem_RainIndicationComponent"><rect codeLine="52" fill="#F1F1F1" height="64.2969" id="RainIndicationComponent" rx="2.5" ry="2.5" style="stroke:#181818;stroke-width:0.5;" width="265" x="842.5" y="849.33"/><ellipse cx="882.25" cy="865.33" fill="#ADD1B2" rx="11" ry="11" style="stroke:#181818;stroke-width:1.0;"/><path d="M885.2188,870.9706 Q884.6406,871.2675 884,871.4081 Q883.3594,871.5644 882.6563,871.5644 Q880.1563,871.5644 878.8281,869.9237 Q877.5156,868.2675 877.5156,865.1425 Q877.5156,862.0175 878.8281,860.3612 Q880.1563,858.705 882.6563,858.705 Q883.3594,858.705 884,858.8612 Q884.6563,859.0175 885.2188,859.3144 L885.2188,862.0331 Q884.5938,861.455 884,861.1894 Q883.4063,860.9081 882.7813,860.9081 Q881.4375,860.9081 880.75,861.9862 Q880.0625,863.0487 880.0625,865.1425 Q880.0625,867.2362 880.75,868.3144 Q881.4375,869.3769 882.7813,869.3769 Q883.4063,869.3769 884,869.1112 Q884.5938,868.83 885.2188,868.2519 L885.2188,870.9706 Z " fill="#000000"/><text fill="#000000" font-family="sans-serif" font-size="14" lengthAdjust="spacing" textLength="178" x="901.75" y="870.1767">RainIndicationComponent</text><line style="stroke:#181818;stroke-width:0.5;" x1="843.5" x2="1106.5" y1="881.33" y2="881.33"/><line style="stroke:#181818;stroke-width:0.5;" x1="843.5" x2="1106.5" y1="889.33" y2="889.33"/><ellipse cx="853.5" cy="902.9784" fill="#84BE84" rx="3" ry="3" style="stroke:#038048;stroke-width:1.0;"/><text fill="#000000" font-family="sans-serif" font-size="14" lengthAdjust="spacing" textLength="239" x="862.5" y="906.3251">void execute(Map&lt;String, String&gt;)</text></g><!--class SewerObservationService--><g id="elem_SewerObservationService"><rect codeLine="55" fill="#F1F1F1" height="64.2969" id="SewerObservationService" rx="2.5" ry="2.5" style="stroke:#181818;stroke-width:0.5;" width="208" x="1568" y="451.29"/><ellipse cx="1583" cy="467.29" fill="#ADD1B2" rx="11" ry="11" style="stroke:#181818;stroke-width:1.0;"/><path d="M1585.9688,472.9306 Q1585.3906,473.2275 1584.75,473.3681 Q1584.1094,473.5244 1583.4063,473.5244 Q1580.9063,473.5244 1579.5781,471.8837 Q1578.2656,470.2275 1578.2656,467.1025 Q1578.2656,463.9775 1579.5781,462.3212 Q1580.9063,460.665 1583.4063,460.665 Q1584.1094,460.665 1584.75,460.8212 Q1585.4063,460.9775 1585.9688,461.2744 L1585.9688,463.9931 Q1585.3438,463.415 1584.75,463.1494 Q1584.1563,462.8681 1583.5313,462.8681 Q1582.1875,462.8681 1581.5,463.9462 Q1580.8125,465.0087 1580.8125,467.1025 Q1580.8125,469.1962 1581.5,470.2744 Q1582.1875,471.3369 1583.5313,471.3369 Q1584.1563,471.3369 1584.75,471.0712 Q1585.3438,470.79 1585.9688,470.2119 L1585.9688,472.9306 Z " fill="#000000"/><text fill="#000000" font-family="sans-serif" font-size="14" lengthAdjust="spacing" textLength="176" x="1597" y="472.1367">SewerObservationService</text><line style="stroke:#181818;stroke-width:0.5;" x1="1569" x2="1775" y1="483.29" y2="483.29"/><line style="stroke:#181818;stroke-width:0.5;" x1="1569" x2="1775" y1="491.29" y2="491.29"/><ellipse cx="1579" cy="504.9384" fill="#84BE84" rx="3" ry="3" style="stroke:#038048;stroke-width:1.0;"/><text fill="#000000" font-family="sans-serif" font-size="14" lengthAdjust="spacing" textLength="182" x="1588" y="508.2851">Set&lt;Sewer&gt; serve(String)</text></g><!--class SewerObservationComponent--><g id="elem_SewerObservationComponent"><rect codeLine="58" fill="#F1F1F1" height="64.2969" id="SewerObservationComponent" rx="2.5" ry="2.5" style="stroke:#181818;stroke-width:0.5;" width="240" x="1552" y="575.59"/><ellipse cx="1567" cy="591.59" fill="#ADD1B2" rx="11" ry="11" style="stroke:#181818;stroke-width:1.0;"/><path d="M1569.9688,597.2306 Q1569.3906,597.5275 1568.75,597.6681 Q1568.1094,597.8244 1567.4063,597.8244 Q1564.9063,597.8244 1563.5781,596.1837 Q1562.2656,594.5275 1562.2656,591.4025 Q1562.2656,588.2775 1563.5781,586.6212 Q1564.9063,584.965 1567.4063,584.965 Q1568.1094,584.965 1568.75,585.1212 Q1569.4063,585.2775 1569.9688,585.5744 L1569.9688,588.2931 Q1569.3438,587.715 1568.75,587.4494 Q1568.1563,587.1681 1567.5313,587.1681 Q1566.1875,587.1681 1565.5,588.2462 Q1564.8125,589.3087 1564.8125,591.4025 Q1564.8125,593.4962 1565.5,594.5744 Q1566.1875,595.6369 1567.5313,595.6369 Q1568.1563,595.6369 1568.75,595.3712 Q1569.3438,595.09 1569.9688,594.5119 L1569.9688,597.2306 Z " fill="#000000"/><text fill="#000000" font-family="sans-serif" font-size="14" lengthAdjust="spacing" textLength="208" x="1581" y="596.4367">SewerObservationComponent</text><line style="stroke:#181818;stroke-width:0.5;" x1="1553" x2="1791" y1="607.59" y2="607.59"/><line style="stroke:#181818;stroke-width:0.5;" x1="1553" x2="1791" y1="615.59" y2="615.59"/><ellipse cx="1563" cy="629.2384" fill="#84BE84" rx="3" ry="3" style="stroke:#038048;stroke-width:1.0;"/><text fill="#000000" font-family="sans-serif" font-size="14" lengthAdjust="spacing" textLength="200" x="1572" y="632.5851">Set&lt;Sewer&gt; execute(String)</text></g><!--class Sewers--><g id="elem_Sewers"><rect codeLine="61" fill="#F1F1F1" height="80.5938" id="Sewers" rx="2.5" ry="2.5" style="stroke:#181818;stroke-width:0.5;" width="220" x="1567" y="841.18"/><ellipse cx="1647.25" cy="857.18" fill="#B4A7E5" rx="11" ry="11" style="stroke:#181818;stroke-width:1.0;"/><path d="M1643.1719,852.9456 L1643.1719,850.7894 L1650.5625,850.7894 L1650.5625,852.9456 L1648.0938,852.9456 L1648.0938,861.0238 L1650.5625,861.0238 L1650.5625,863.18 L1643.1719,863.18 L1643.1719,861.0238 L1645.6406,861.0238 L1645.6406,852.9456 L1643.1719,852.9456 Z " fill="#000000"/><text fill="#000000" font-family="sans-serif" font-size="14" font-style="italic" lengthAdjust="spacing" textLength="51" x="1667.75" y="862.0267">Sewers</text><line style="stroke:#181818;stroke-width:0.5;" x1="1568" x2="1786" y1="873.18" y2="873.18"/><line style="stroke:#181818;stroke-width:0.5;" x1="1568" x2="1786" y1="881.18" y2="881.18"/><ellipse cx="1578" cy="894.8284" fill="#84BE84" rx="3" ry="3" style="stroke:#038048;stroke-width:1.0;"/><text fill="#000000" font-family="sans-serif" font-size="14" font-style="italic" lengthAdjust="spacing" textLength="194" x="1587" y="898.1751">Set&lt;Sewer&gt; observe(UUID)</text><ellipse cx="1578" cy="911.1253" fill="#84BE84" rx="3" ry="3" style="stroke:#038048;stroke-width:1.0;"/><text fill="#000000" font-family="sans-serif" font-size="14" font-style="italic" lengthAdjust="spacing" textLength="139" x="1587" y="914.472">void indicate(Sewer)</text></g><!--class Sewer--><g id="elem_Sewer"><rect codeLine="68" fill="#F1F1F1" height="113.1875" id="Sewer" rx="2.5" ry="2.5" style="stroke:#181818;stroke-width:0.5;" width="259" x="1272.5" y="824.89"/><ellipse cx="1376.25" cy="840.89" fill="#ADD1B2" rx="11" ry="11" style="stroke:#181818;stroke-width:1.0;"/><path d="M1379.2188,846.5306 Q1378.6406,846.8275 1378,846.9681 Q1377.3594,847.1244 1376.6563,847.1244 Q1374.1563,847.1244 1372.8281,845.4838 Q1371.5156,843.8275 1371.5156,840.7025 Q1371.5156,837.5775 1372.8281,835.9213 Q1374.1563,834.265 1376.6563,834.265 Q1377.3594,834.265 1378,834.4213 Q1378.6563,834.5775 1379.2188,834.8744 L1379.2188,837.5931 Q1378.5938,837.015 1378,836.7494 Q1377.4063,836.4681 1376.7813,836.4681 Q1375.4375,836.4681 1374.75,837.5463 Q1374.0625,838.6088 1374.0625,840.7025 Q1374.0625,842.7963 1374.75,843.8744 Q1375.4375,844.9369 1376.7813,844.9369 Q1377.4063,844.9369 1378,844.6713 Q1378.5938,844.39 1379.2188,843.8119 L1379.2188,846.5306 Z " fill="#000000"/><text fill="#000000" font-family="sans-serif" font-size="14" lengthAdjust="spacing" textLength="43" x="1396.75" y="845.7367">Sewer</text><line style="stroke:#181818;stroke-width:0.5;" x1="1273.5" x2="1530.5" y1="856.89" y2="856.89"/><line style="stroke:#181818;stroke-width:0.5;" x1="1273.5" x2="1530.5" y1="864.89" y2="864.89"/><ellipse cx="1283.5" cy="878.5384" fill="#84BE84" rx="3" ry="3" style="stroke:#038048;stroke-width:1.0;"/><text fill="#000000" font-family="sans-serif" font-size="14" lengthAdjust="spacing" textLength="83" x="1292.5" y="881.8851">UUID getId()</text><ellipse cx="1283.5" cy="894.8353" fill="#84BE84" rx="3" ry="3" style="stroke:#038048;stroke-width:1.0;"/><text fill="#000000" font-family="sans-serif" font-size="14" lengthAdjust="spacing" textLength="230" x="1292.5" y="898.182">KeyPerformanceIndicator getKpi()</text><ellipse cx="1283.5" cy="911.1322" fill="#84BE84" rx="3" ry="3" style="stroke:#038048;stroke-width:1.0;"/><text fill="#000000" font-family="sans-serif" font-size="14" lengthAdjust="spacing" textLength="206" x="1292.5" y="914.4789">Set&lt;Problem&gt; getProblems()</text><ellipse cx="1283.5" cy="927.4291" fill="#84BE84" rx="3" ry="3" style="stroke:#038048;stroke-width:1.0;"/><text fill="#000000" font-family="sans-serif" font-size="14" lengthAdjust="spacing" textLength="233" x="1292.5" y="930.7757">void setProblems(Set&lt;Problem&gt;)</text></g><!--class KeyPerformanceIndicator--><g id="elem_KeyPerformanceIndicator"><rect codeLine="74" fill="#F1F1F1" height="96.8906" id="KeyPerformanceIndicator" rx="2.5" ry="2.5" style="stroke:#181818;stroke-width:0.5;" width="279" x="1212.5" y="1037.08"/><ellipse cx="1261.75" cy="1053.08" fill="#ADD1B2" rx="11" ry="11" style="stroke:#181818;stroke-width:1.0;"/><path d="M1264.7188,1058.7206 Q1264.1406,1059.0175 1263.5,1059.1581 Q1262.8594,1059.3144 1262.1563,1059.3144 Q1259.6563,1059.3144 1258.3281,1057.6738 Q1257.0156,1056.0175 1257.0156,1052.8925 Q1257.0156,1049.7675 1258.3281,1048.1113 Q1259.6563,1046.455 1262.1563,1046.455 Q1262.8594,1046.455 1263.5,1046.6113 Q1264.1563,1046.7675 1264.7188,1047.0644 L1264.7188,1049.7831 Q1264.0938,1049.205 1263.5,1048.9394 Q1262.9063,1048.6581 1262.2813,1048.6581 Q1260.9375,1048.6581 1260.25,1049.7363 Q1259.5625,1050.7988 1259.5625,1052.8925 Q1259.5625,1054.9863 1260.25,1056.0644 Q1260.9375,1057.1269 1262.2813,1057.1269 Q1262.9063,1057.1269 1263.5,1056.8613 Q1264.0938,1056.58 1264.7188,1056.0019 L1264.7188,1058.7206 Z " fill="#000000"/><text fill="#000000" font-family="sans-serif" font-size="14" lengthAdjust="spacing" textLength="172" x="1282.25" y="1057.9267">KeyPerformanceIndicator</text><line style="stroke:#181818;stroke-width:0.5;" x1="1213.5" x2="1490.5" y1="1069.08" y2="1069.08"/><line style="stroke:#181818;stroke-width:0.5;" x1="1213.5" x2="1490.5" y1="1077.08" y2="1077.08"/><ellipse cx="1223.5" cy="1090.7284" fill="#84BE84" rx="3" ry="3" style="stroke:#038048;stroke-width:1.0;"/><text fill="#000000" font-family="sans-serif" font-size="14" lengthAdjust="spacing" textLength="253" x="1232.5" y="1094.0751">String getPumpPowerConsumption()</text><ellipse cx="1223.5" cy="1107.0253" fill="#84BE84" rx="3" ry="3" style="stroke:#038048;stroke-width:1.0;"/><text fill="#000000" font-family="sans-serif" font-size="14" lengthAdjust="spacing" textLength="108" x="1232.5" y="1110.372">String getFlow()</text><ellipse cx="1223.5" cy="1123.3222" fill="#84BE84" rx="3" ry="3" style="stroke:#038048;stroke-width:1.0;"/><text fill="#000000" font-family="sans-serif" font-size="14" lengthAdjust="spacing" textLength="140" x="1232.5" y="1126.6689">Number getRainfall()</text></g><!--class Problem--><g id="elem_Problem"><rect codeLine="79" fill="#F1F1F1" height="80.5938" id="Problem" rx="2.5" ry="2.5" style="stroke:#181818;stroke-width:0.5;" width="243" x="1548.5" y="1045.22"/><ellipse cx="1637.25" cy="1061.22" fill="#ADD1B2" rx="11" ry="11" style="stroke:#181818;stroke-width:1.0;"/><path d="M1640.2188,1066.8606 Q1639.6406,1067.1575 1639,1067.2981 Q1638.3594,1067.4544 1637.6563,1067.4544 Q1635.1563,1067.4544 1633.8281,1065.8138 Q1632.5156,1064.1575 1632.5156,1061.0325 Q1632.5156,1057.9075 1633.8281,1056.2513 Q1635.1563,1054.595 1637.6563,1054.595 Q1638.3594,1054.595 1639,1054.7513 Q1639.6563,1054.9075 1640.2188,1055.2044 L1640.2188,1057.9231 Q1639.5938,1057.345 1639,1057.0794 Q1638.4063,1056.7981 1637.7813,1056.7981 Q1636.4375,1056.7981 1635.75,1057.8763 Q1635.0625,1058.9388 1635.0625,1061.0325 Q1635.0625,1063.1263 1635.75,1064.2044 Q1636.4375,1065.2669 1637.7813,1065.2669 Q1638.4063,1065.2669 1639,1065.0013 Q1639.5938,1064.72 1640.2188,1064.1419 L1640.2188,1066.8606 Z " fill="#000000"/><text fill="#000000" font-family="sans-serif" font-size="14" lengthAdjust="spacing" textLength="57" x="1657.75" y="1066.0667">Problem</text><line style="stroke:#181818;stroke-width:0.5;" x1="1549.5" x2="1790.5" y1="1077.22" y2="1077.22"/><line style="stroke:#181818;stroke-width:0.5;" x1="1549.5" x2="1790.5" y1="1085.22" y2="1085.22"/><ellipse cx="1559.5" cy="1098.8684" fill="#84BE84" rx="3" ry="3" style="stroke:#038048;stroke-width:1.0;"/><text fill="#000000" font-family="sans-serif" font-size="14" lengthAdjust="spacing" textLength="130" x="1568.5" y="1102.2151">String getReason()</text><ellipse cx="1559.5" cy="1115.1653" fill="#84BE84" rx="3" ry="3" style="stroke:#038048;stroke-width:1.0;"/><text fill="#000000" font-family="sans-serif" font-size="14" lengthAdjust="spacing" textLength="217" x="1568.5" y="1118.512">Number getOverflowIndication()</text></g><!--class SewerIndicationUseCase--><g id="elem_SewerIndicationUseCase"><rect codeLine="83" fill="#F1F1F1" height="64.2969" id="SewerIndicationUseCase" rx="2.5" ry="2.5" style="stroke:#181818;stroke-width:0.5;" width="247" x="819.5" y="210"/><ellipse cx="854.3" cy="226" fill="#ADD1B2" rx="11" ry="11" style="stroke:#181818;stroke-width:1.0;"/><path d="M857.2688,231.6406 Q856.6906,231.9375 856.05,232.0781 Q855.4094,232.2344 854.7063,232.2344 Q852.2063,232.2344 850.8781,230.5938 Q849.5656,228.9375 849.5656,225.8125 Q849.5656,222.6875 850.8781,221.0313 Q852.2063,219.375 854.7063,219.375 Q855.4094,219.375 856.05,219.5313 Q856.7063,219.6875 857.2688,219.9844 L857.2688,222.7031 Q856.6438,222.125 856.05,221.8594 Q855.4563,221.5781 854.8313,221.5781 Q853.4875,221.5781 852.8,222.6563 Q852.1125,223.7188 852.1125,225.8125 Q852.1125,227.9063 852.8,228.9844 Q853.4875,230.0469 854.8313,230.0469 Q855.4563,230.0469 856.05,229.7813 Q856.6438,229.5 857.2688,228.9219 L857.2688,231.6406 Z " fill="#000000"/><text fill="#000000" font-family="sans-serif" font-size="14" lengthAdjust="spacing" textLength="171" x="872.7" y="230.8467">SewerIndicationUseCase</text><line style="stroke:#181818;stroke-width:0.5;" x1="820.5" x2="1065.5" y1="242" y2="242"/><line style="stroke:#181818;stroke-width:0.5;" x1="820.5" x2="1065.5" y1="250" y2="250"/><ellipse cx="830.5" cy="263.6484" fill="#84BE84" rx="3" ry="3" style="stroke:#038048;stroke-width:1.0;"/><text fill="#000000" font-family="sans-serif" font-size="14" lengthAdjust="spacing" textLength="221" x="839.5" y="266.9951">void serve(Map&lt;String, String&gt;)</text></g><!--class SewerObservationUseCase--><g id="elem_SewerObservationUseCase"><rect codeLine="86" fill="#F1F1F1" height="64.2969" id="SewerObservationUseCase" rx="2.5" ry="2.5" style="stroke:#181818;stroke-width:0.5;" width="220" x="1562" y="210"/><ellipse cx="1577" cy="226" fill="#ADD1B2" rx="11" ry="11" style="stroke:#181818;stroke-width:1.0;"/><path d="M1579.9688,231.6406 Q1579.3906,231.9375 1578.75,232.0781 Q1578.1094,232.2344 1577.4063,232.2344 Q1574.9063,232.2344 1573.5781,230.5938 Q1572.2656,228.9375 1572.2656,225.8125 Q1572.2656,222.6875 1573.5781,221.0313 Q1574.9063,219.375 1577.4063,219.375 Q1578.1094,219.375 1578.75,219.5313 Q1579.4063,219.6875 1579.9688,219.9844 L1579.9688,222.7031 Q1579.3438,222.125 1578.75,221.8594 Q1578.1563,221.5781 1577.5313,221.5781 Q1576.1875,221.5781 1575.5,222.6563 Q1574.8125,223.7188 1574.8125,225.8125 Q1574.8125,227.9063 1575.5,228.9844 Q1576.1875,230.0469 1577.5313,230.0469 Q1578.1563,230.0469 1578.75,229.7813 Q1579.3438,229.5 1579.9688,228.9219 L1579.9688,231.6406 Z " fill="#000000"/><text fill="#000000" font-family="sans-serif" font-size="14" lengthAdjust="spacing" textLength="188" x="1591" y="230.8467">SewerObservationUseCase</text><line style="stroke:#181818;stroke-width:0.5;" x1="1563" x2="1781" y1="242" y2="242"/><line style="stroke:#181818;stroke-width:0.5;" x1="1563" x2="1781" y1="250" y2="250"/><ellipse cx="1573" cy="263.6484" fill="#84BE84" rx="3" ry="3" style="stroke:#038048;stroke-width:1.0;"/><text fill="#000000" font-family="sans-serif" font-size="14" lengthAdjust="spacing" textLength="182" x="1582" y="266.9951">Set&lt;Sewer&gt; serve(String)</text></g><!--class SewersUseCase--><g id="elem_SewersUseCase"><rect codeLine="89" fill="#F1F1F1" height="80.5938" id="SewersUseCase" rx="2.5" ry="2.5" style="stroke:#181818;stroke-width:0.5;" width="222" x="1920" y="1229.97"/><ellipse cx="1970.25" cy="1245.97" fill="#B4A7E5" rx="11" ry="11" style="stroke:#181818;stroke-width:1.0;"/><path d="M1966.1719,1241.7356 L1966.1719,1239.5794 L1973.5625,1239.5794 L1973.5625,1241.7356 L1971.0938,1241.7356 L1971.0938,1249.8138 L1973.5625,1249.8138 L1973.5625,1251.97 L1966.1719,1251.97 L1966.1719,1249.8138 L1968.6406,1249.8138 L1968.6406,1241.7356 L1966.1719,1241.7356 Z " fill="#000000"/><text fill="#000000" font-family="sans-serif" font-size="14" font-style="italic" lengthAdjust="spacing" textLength="113" x="1990.75" y="1250.8167">SewersUseCase</text><line style="stroke:#181818;stroke-width:0.5;" x1="1921" x2="2141" y1="1261.97" y2="1261.97"/><line style="stroke:#181818;stroke-width:0.5;" x1="1921" x2="2141" y1="1269.97" y2="1269.97"/><ellipse cx="1931" cy="1283.6184" fill="#84BE84" rx="3" ry="3" style="stroke:#038048;stroke-width:1.0;"/><text fill="#000000" font-family="sans-serif" font-size="14" font-style="italic" lengthAdjust="spacing" textLength="196" x="1940" y="1286.9651">Set&lt;Object&gt; observe(UUID)</text><ellipse cx="1931" cy="1299.9153" fill="#84BE84" rx="3" ry="3" style="stroke:#038048;stroke-width:1.0;"/><text fill="#000000" font-family="sans-serif" font-size="14" font-style="italic" lengthAdjust="spacing" textLength="183" x="1940" y="1303.262">void indicate(UUID, Object)</text></g><!--class SewersUseCaseBridge--><g id="elem_SewersUseCaseBridge"><rect codeLine="93" fill="#F1F1F1" height="80.5938" id="SewersUseCaseBridge" rx="2.5" ry="2.5" style="stroke:#181818;stroke-width:0.5;" width="220" x="1920" y="1045.22"/><ellipse cx="1948.5" cy="1061.22" fill="#ADD1B2" rx="11" ry="11" style="stroke:#181818;stroke-width:1.0;"/><path d="M1951.4688,1066.8606 Q1950.8906,1067.1575 1950.25,1067.2981 Q1949.6094,1067.4544 1948.9063,1067.4544 Q1946.4063,1067.4544 1945.0781,1065.8138 Q1943.7656,1064.1575 1943.7656,1061.0325 Q1943.7656,1057.9075 1945.0781,1056.2513 Q1946.4063,1054.595 1948.9063,1054.595 Q1949.6094,1054.595 1950.25,1054.7513 Q1950.9063,1054.9075 1951.4688,1055.2044 L1951.4688,1057.9231 Q1950.8438,1057.345 1950.25,1057.0794 Q1949.6563,1056.7981 1949.0313,1056.7981 Q1947.6875,1056.7981 1947,1057.8763 Q1946.3125,1058.9388 1946.3125,1061.0325 Q1946.3125,1063.1263 1947,1064.2044 Q1947.6875,1065.2669 1949.0313,1065.2669 Q1949.6563,1065.2669 1950.25,1065.0013 Q1950.8438,1064.72 1951.4688,1064.1419 L1951.4688,1066.8606 Z " fill="#000000"/><text fill="#000000" font-family="sans-serif" font-size="14" lengthAdjust="spacing" textLength="158" x="1965.5" y="1066.0667">SewersUseCaseBridge</text><line style="stroke:#181818;stroke-width:0.5;" x1="1921" x2="2139" y1="1077.22" y2="1077.22"/><line style="stroke:#181818;stroke-width:0.5;" x1="1921" x2="2139" y1="1085.22" y2="1085.22"/><ellipse cx="1931" cy="1098.8684" fill="#84BE84" rx="3" ry="3" style="stroke:#038048;stroke-width:1.0;"/><text fill="#000000" font-family="sans-serif" font-size="14" lengthAdjust="spacing" textLength="194" x="1940" y="1102.2151">Set&lt;Sewer&gt; observe(UUID)</text><ellipse cx="1931" cy="1115.1653" fill="#84BE84" rx="3" ry="3" style="stroke:#038048;stroke-width:1.0;"/><text fill="#000000" font-family="sans-serif" font-size="14" lengthAdjust="spacing" textLength="139" x="1940" y="1118.512">void indicate(Sewer)</text></g><g id="elem_GMN45"><path d="M2318,868.92 L2318,894.0528 L2766,894.0528 L2766,878.92 L2756,868.92 L2318,868.92 " fill="#FEFFDD" style="stroke:#181818;stroke-width:0.5;"/><path d="M2756,868.92 L2756,878.92 L2766,878.92 L2756,868.92 " fill="#FEFFDD" style="stroke:#181818;stroke-width:1.0;"/><text fill="#000000" font-family="sans-serif" font-size="13" lengthAdjust="spacing" textLength="427" x="2324" y="885.9869">Invokes other components to build the final indication composition.</text></g><g id="elem_GMN54"><path d="M2318,1072.95 L2318,1098.0828 L2856,1098.0828 L2856,1082.95 L2846,1072.95 L2318,1072.95 " fill="#FEFFDD" style="stroke:#181818;stroke-width:0.5;"/><path d="M2846,1072.95 L2846,1082.95 L2856,1082.95 L2846,1072.95 " fill="#FEFFDD" style="stroke:#181818;stroke-width:1.0;"/><text fill="#000000" font-family="sans-serif" font-size="13" lengthAdjust="spacing" textLength="517" x="2324" y="1090.0169">Represents the abstract functionality only; implementation details are elsewhere.</text></g><g id="elem_GMN64"><path d="M4166.5,470.88 L4166.5,496.0128 L4637.5,496.0128 L4637.5,480.88 L4627.5,470.88 L4166.5,470.88 " fill="#FEFFDD" style="stroke:#181818;stroke-width:0.5;"/><path d="M4627.5,470.88 L4627.5,480.88 L4637.5,480.88 L4627.5,470.88 " fill="#FEFFDD" style="stroke:#181818;stroke-width:1.0;"/><text fill="#000000" font-family="sans-serif" font-size="13" lengthAdjust="spacing" textLength="450" x="4172.5" y="487.9469">Frameworks and tools such as the Database, the Web Framework, etc.</text></g><g id="elem_GMN67"><path d="M3025,470.88 L3025,496.0128 L4131,496.0128 L4131,480.88 L4121,470.88 L3025,470.88 " fill="#FEFFDD" style="stroke:#181818;stroke-width:0.5;"/><path d="M4121,470.88 L4121,480.88 L4131,480.88 L4121,470.88 " fill="#FEFFDD" style="stroke:#181818;stroke-width:1.0;"/><text fill="#000000" font-family="sans-serif" font-size="13" lengthAdjust="spacing" textLength="1085" x="3031" y="487.9469">Convert data from the format most convenient for the use cases and entities, to the format most convenient for some external agency such as the Database or the Web.</text></g><g id="elem_GMN70"><path d="M2317.5,470.88 L2317.5,496.0128 L2990.5,496.0128 L2990.5,480.88 L2980.5,470.88 L2317.5,470.88 " fill="#FEFFDD" style="stroke:#181818;stroke-width:0.5;"/><path d="M2980.5,470.88 L2980.5,480.88 L2990.5,480.88 L2980.5,470.88 " fill="#FEFFDD" style="stroke:#181818;stroke-width:1.0;"/><text fill="#000000" font-family="sans-serif" font-size="13" lengthAdjust="spacing" textLength="652" x="2323.5" y="487.9469">Application specific business rules. It encapsulates and implements all of the use cases of the system.</text></g><g id="elem_GMN73"><path d="M2318.5,595.17 L2318.5,620.3028 L3257.5,620.3028 L3257.5,605.17 L3247.5,595.17 L2318.5,595.17 " fill="#FEFFDD" style="stroke:#181818;stroke-width:0.5;"/><path d="M3247.5,595.17 L3247.5,605.17 L3257.5,605.17 L3247.5,595.17 " fill="#FEFFDD" style="stroke:#181818;stroke-width:1.0;"/><text fill="#000000" font-family="sans-serif" font-size="13" lengthAdjust="spacing" textLength="918" x="2324.5" y="612.2369">Entities encapsulate Enterprise wide business rules. An entity can be an object with methods, or it can be a set of data structures and functions.</text></g><!--link SewerOverflowIndicationComponent to GMN45--><g id="link_SewerOverflowIndicationComponent_GMN45"><path d="M923,640.21 C923,677.19 923,732.56 923,732.56 C923,732.56 2542.25,732.56 2542.25,732.56 C2542.25,732.56 2542.25,832.29 2542.25,868.53 " fill="none" id="SewerOverflowIndicationComponent-GMN45" style="stroke:#181818;stroke-width:1.0;stroke-dasharray:7.0,7.0;"/></g><!--link Sewers to GMN54--><g id="link_Sewers_GMN54"><path d="M1787.43,903.56 C2020.62,903.56 2542,903.56 2542,903.56 C2542,903.56 2542,1031.31 2542,1072.73 " fill="none" id="Sewers-GMN54" style="stroke:#181818;stroke-width:1.0;stroke-dasharray:7.0,7.0;"/></g><!--link drivers to GMN64--><g id="link_drivers_GMN64"><path d="M2295.3219,242.56 C2300.2176,242.56 2306.9896,242.56 2315.5117,242.56 C2332.5561,242.56 2356.6011,242.56 2386.6377,242.56 C2446.7108,242.56 2530.75,242.56 2630.6819,242.56 C2830.5456,242.56 3093.98,242.56 3356.3975,242.56 C3881.2325,242.56 4402,242.56 4402,242.56 C4402,242.56 4402,420.46 4402,470.49 " fill="none" id="drivers-GMN64" style="stroke:#181818;stroke-width:1.0;stroke-dasharray:7.0,7.0;"/></g><!--link adapters to GMN67--><g id="link_adapters_GMN67"><path d="M2246.9398,506.56 C2247.329,506.56 2247.7304,506.56 2248.1439,506.56 C2254.7595,506.56 2264.4624,506.56 2276.8115,506.56 C2301.5098,506.56 2336.793,506.56 2379.1328,506.56 C2463.8125,506.56 2576.7188,506.56 2689.625,506.56 C2915.4375,506.56 3141.25,506.56 3141.25,506.56 C3141.25,506.56 3141.25,501.65 3141.25,496.35 " fill="none" id="adapters-GMN67" style="stroke:#181818;stroke-width:1.0;stroke-dasharray:7.0,7.0;"/></g><!--link use_cases to GMN70--><g id="link_use_cases_GMN70"><path d="M2198.0264,477.56 C2198.2059,477.56 2198.3881,477.56 2198.5732,477.56 C2198.9435,477.56 2199.3249,477.56 2199.7175,477.56 C2205.9987,477.56 2215.125,477.56 2226.505,477.56 C2249.265,477.56 2281.04,477.56 2317.1,477.56 " fill="none" id="use_cases-GMN70" style="stroke:#181818;stroke-width:1.0;stroke-dasharray:7.0,7.0;"/></g><!--link entities to GMN73--><g id="link_entities_GMN73"><path d="M1872.3698,608.56 C1872.5584,608.56 1872.7502,608.56 1872.945,608.56 C1873.3345,608.56 1873.7363,608.56 1874.1501,608.56 C1880.7715,608.56 1890.4855,608.56 1902.8559,608.56 C1927.5969,608.56 1962.9638,608.56 2005.4675,608.56 C2090.475,608.56 2204.03,608.56 2318.22,608.56 " fill="none" id="entities-GMN73" style="stroke:#181818;stroke-width:1.0;stroke-dasharray:7.0,7.0;"/></g><!--link SewerOverflowIndicationService to SewerOverflowIndicationComponent--><g id="link_SewerOverflowIndicationService_SewerOverflowIndicationComponent"><path codeLine="109" d="M943,515.78 C943,534.05 943,550.82 943,569.14 " fill="none" id="SewerOverflowIndicationService-to-SewerOverflowIndicationComponent" style="stroke:#181818;stroke-width:1.0;"/><polygon fill="#181818" points="943,575.14,947,566.14,943,570.14,939,566.14,943,575.14" style="stroke:#181818;stroke-width:1.0;"/></g><!--link SewerOverflowIndicationComponent to FlowIndicationComponent--><g id="link_SewerOverflowIndicationComponent_FlowIndicationComponent"><path codeLine="110" d="M801.83,608.56 C621.09,608.56 331,608.56 331,608.56 C331,608.56 331,770.81 331,843.1 " fill="none" id="SewerOverflowIndicationComponent-to-FlowIndicationComponent" style="stroke:#181818;stroke-width:1.0;"/><polygon fill="#181818" points="331,849.1,335,840.1,331,844.1,327,840.1,331,849.1" style="stroke:#181818;stroke-width:1.0;"/></g><!--link SewerOverflowIndicationComponent to Sewers--><g id="link_SewerOverflowIndicationComponent_Sewers"><path codeLine="111" d="M1084.48,608.56 C1261.02,608.56 1540,608.56 1540,608.56 C1540,608.56 1540,881.56 1540,881.56 C1540,881.56 1544.99,881.56 1560.74,881.56 " fill="none" id="SewerOverflowIndicationComponent-to-Sewers" style="stroke:#181818;stroke-width:1.0;"/><polygon fill="#181818" points="1566.74,881.56,1557.74,877.56,1561.74,881.56,1557.74,885.56,1566.74,881.56" style="stroke:#181818;stroke-width:1.0;"/></g><!--link SewerOverflowIndicationComponent to PumpIndicationComponent--><g id="link_SewerOverflowIndicationComponent_PumpIndicationComponent"><path codeLine="112" d="M822.25,640.23 C822.25,712.76 822.25,881.56 822.25,881.56 C822.25,881.56 813.14,881.56 791.94,881.56 " fill="none" id="SewerOverflowIndicationComponent-to-PumpIndicationComponent" style="stroke:#181818;stroke-width:1.0;"/><polygon fill="#181818" points="785.94,881.56,794.94,885.56,790.94,881.56,794.94,877.56,785.94,881.56" style="stroke:#181818;stroke-width:1.0;"/></g><!--link SewerOverflowIndicationComponent to RainIndicationComponent--><g id="link_SewerOverflowIndicationComponent_RainIndicationComponent"><path codeLine="113" d="M1003.5,640.22 C1003.5,692.9 1003.5,790.39 1003.5,843.05 " fill="none" id="SewerOverflowIndicationComponent-to-RainIndicationComponent" style="stroke:#181818;stroke-width:1.0;"/><polygon fill="#181818" points="1003.5,849.05,1007.5,840.05,1003.5,844.05,999.5,840.05,1003.5,849.05" style="stroke:#181818;stroke-width:1.0;"/></g><!--link SewerObservationService to SewerObservationComponent--><g id="link_SewerObservationService_SewerObservationComponent"><path codeLine="114" d="M1672,515.78 C1672,534.05 1672,550.82 1672,569.14 " fill="none" id="SewerObservationService-to-SewerObservationComponent" style="stroke:#181818;stroke-width:1.0;"/><polygon fill="#181818" points="1672,575.14,1676,566.14,1672,570.14,1668,566.14,1672,575.14" style="stroke:#181818;stroke-width:1.0;"/></g><!--link SewerObservationComponent to Sewers--><g id="link_SewerObservationComponent_Sewers"><path codeLine="115" d="M1677,640.22 C1677,690.35 1677,780.49 1677,835.06 " fill="none" id="SewerObservationComponent-to-Sewers" style="stroke:#181818;stroke-width:1.0;"/><polygon fill="#181818" points="1677,841.06,1681,832.06,1677,836.06,1673,832.06,1677,841.06" style="stroke:#181818;stroke-width:1.0;"/></g><!--link Sewer to Problem--><g id="link_Sewer_Problem"><path codeLine="116" d="M1531.7,930.56 C1548.22,930.56 1559.5,930.56 1559.5,930.56 C1559.5,930.56 1559.5,992.89 1559.5,1038.81 " fill="none" id="Sewer-to-Problem" style="stroke:#181818;stroke-width:1.0;"/><polygon fill="#181818" points="1559.5,1044.81,1563.5,1035.81,1559.5,1039.81,1555.5,1035.81,1559.5,1044.81" style="stroke:#181818;stroke-width:1.0;"/></g><!--link Sewer to KeyPerformanceIndicator--><g id="link_Sewer_KeyPerformanceIndicator"><path codeLine="117" d="M1382,938.32 C1382,969.21 1382,1001.03 1382,1030.6 " fill="none" id="Sewer-to-KeyPerformanceIndicator" style="stroke:#181818;stroke-width:1.0;"/><polygon fill="#181818" points="1382,1036.6,1386,1027.6,1382,1031.6,1378,1027.6,1382,1036.6" style="stroke:#181818;stroke-width:1.0;"/></g><!--link SewerIndicationUseCase to SewerOverflowIndicationService--><g id="link_SewerIndicationUseCase_SewerOverflowIndicationService"><path codeLine="118" d="M943,274.69 C943,320.87 943,398.92 943,445.03 " fill="none" id="SewerIndicationUseCase-to-SewerOverflowIndicationService" style="stroke:#181818;stroke-width:1.0;"/><polygon fill="#181818" points="943,451.03,947,442.03,943,446.03,939,442.03,943,451.03" style="stroke:#181818;stroke-width:1.0;"/></g><!--link SewerObservationUseCase to SewerObservationService--><g id="link_SewerObservationUseCase_SewerObservationService"><path codeLine="119" d="M1672,274.69 C1672,320.87 1672,398.92 1672,445.03 " fill="none" id="SewerObservationUseCase-to-SewerObservationService" style="stroke:#181818;stroke-width:1.0;"/><polygon fill="#181818" points="1672,451.03,1676,442.03,1672,446.03,1668,442.03,1672,451.03" style="stroke:#181818;stroke-width:1.0;"/></g><!--reverse link Sewers to SewersUseCaseBridge--><g id="link_Sewers_SewersUseCaseBridge"><path codeLine="120" d="M1805.24,912.56 C1908.81,912.56 2030,912.56 2030,912.56 C2030,912.56 2030,993.85 2030,1044.97 " fill="none" id="Sewers-backto-SewersUseCaseBridge" style="stroke:#181818;stroke-width:1.0;stroke-dasharray:7.0,7.0;"/><polygon fill="none" points="1787.24,912.56,1805.24,918.56,1805.24,906.56,1787.24,912.56" style="stroke:#181818;stroke-width:1.0;"/></g><!--link SewersUseCaseBridge to SewersUseCase--><g id="link_SewersUseCaseBridge_SewersUseCase"><path codeLine="121" d="M2030,1126.06 C2030,1156.76 2030,1192.75 2030,1223.5 " fill="none" id="SewersUseCaseBridge-to-SewersUseCase" style="stroke:#181818;stroke-width:1.0;"/><polygon fill="#181818" points="2030,1229.5,2034,1220.5,2030,1224.5,2026,1220.5,2030,1229.5" style="stroke:#181818;stroke-width:1.0;"/></g><!--SRC=[tLbHRzis47xNh-3i5nTpYM7Omu8L0Rgq0OnYQv0WsED0KIURiqGA91NNoFBVUnGbMxPbnuubfUrJ7Ebuttr7yhix-wTCisdAI6vW8Yte52B1BDmmFcTJC2HcYO70p8NCc6OfIOG4kyo0A6rdAZ0pjI06ru5oJuFChoC65g09CoG2obMQCRcacLQsiAB-xN0n4nR8uzDgLQJ50sXpU1sjh8PclWoJVCC3YrXcZtP1L-R3tt-Du_2tkYlCoB-S6JZL5rql7CRn1Rkug7i5QOKLPpYbAm_3cCTH-4lTkv2HuBXzvtkdArUxsnIgN4PCBrj4eIkVmqIa6sXSIQjLqWKOhNmFbMPosZd9E56BVfbk8FPDDylJh5-w6uXzqzLCo7xfRY0Uegj20_gX3LceF7Mg2YL8BydSnZgKnYEgsb6O- -fVYodqbdqaS1FfKFgA9SlE86dflw4kjfxOUIPwJ6uThSS4Dy7scMHS6IQGzfZeRSGUaxqF-a32p-_sEctoZkZjpgvBNPQZvwlG-HY5WMc027Z2Z263EsVm6PUxJcxYCogKlCF818T19rtnOKpo613oyuCI4IdoC_gBPU_kh1PoEYR-x-MRuEaP0bSOiP8OnA3Bnfu-XruZ0r-0vtOl7Qcist1hLKfK_7eH1nFveEOu_YaxmoQ2LyyDiOg4kKWYWYz8B2HBAeN0zTxG2FUP1Y0ZuWXLctJTmzuqZYBq-jnzAHdSOEVVDOF6wOBkGJwPmIqsyrqpQ1mOw1xaanduerkePjiYjTEbxy7oCT-1VLSON9OIvMCz46ghwTutKj2zg3jXLmbV1oxSjtCnGue-U3Delv7sZdqmv965nch6xLCjhfBQwFv-yk7DbbbnKggZDYeMj2-SZH47jv1fC5u5KVoga4YSI-uIpHBNGYcPBFyW8ismpq9RhuiHM2OIGvZ6bYv1zwYgiAkG1T2Wwzd5y_4Ru59Cfc0dqQZ8z2TOtk09K3fbaaDvNvLs9fyouMtSJjtuHlBIlIW_6_-shDdhftNpskNOWpJeOx2W-sZw6r9SXu8PgkwDGcTNIXhyxFQopC7AnjKM_-plF0sXI9NJkfWboQXUEtmA1dtryhG4tEPq2ynKBDOHx_O2esqXMx-wDt254GrQxDffCyIBsi2rz9qVwBCbOIFG0oLXHrdFZsshhQSRVXlrzNFu7t1xYi0wYp7nwxOJNK7zgKKqxOo8zxwJtnqARHM6u5gp51PApr6kKP-jKYZS9kSpHz09_mTcMOYHZOl__e6Gh9QC2LXUq_MNbwK09GSVM18X6earEYWwRYTPbgJAMFUzn0D8uIexFYvUOqv9-NCIXb09njXrxS-iDWf7GlY2qAwbnxbJycKZQr928UzMYAxFGV0-ov9gaZ0PS14BZjE64HBmqEaymRD29XPvSPQPFC6DzaHNrHR_JH8Nm6OooWTcQImAPhjHhsGv-5ZzPbQBZtnqzpxJ0cDPY0XswBoNrNSyd4aIObiXyMoxwuRsTaPIi3CLuHPYseLT6RaAMuJiJWVUt9pRN9VPgFeHKsFQz_Z-zktbAqwlhpVfjydxf5ds- -RSt73_6Djuqa3_Wt0-wIk0eA-nlGM6fq_TGVzp_hTw8O-PIbkB_SZnwBlYz8AHDkXuGEkaq1zkBeAEHxakP6AF90NT3Kmqf_z_Kp9mJD0lJ_r1xry1]--></g></svg>