<svg xmlns="http://www.w3.org/2000/svg" xmlns:xlink="http://www.w3.org/1999/xlink" contentStyleType="text/css" height="1140px" preserveAspectRatio="none" style="width:1232px;height:1140px;background:#FFFFFF;" version="1.1" viewBox="0 0 1232 1140" width="1232px" zoomAndPan="magnify"><defs/><g><!--cluster use_cases--><g id="cluster_use_cases"><path d="M8.5,6 L466.5,6 A3.75,3.75 0 0 1 469,8.5 L476,28.2969 L1222.5,28.2969 A2.5,2.5 0 0 1 1225,30.7969 L1225,1130.77 A2.5,2.5 0 0 1 1222.5,1133.27 L8.5,1133.27 A2.5,2.5 0 0 1 6,1130.77 L6,8.5 A2.5,2.5 0 0 1 8.5,6 " fill="#FF9A99" style="stroke:#000000;stroke-width:1.5;"/><line style="stroke:#000000;stroke-width:1.5;" x1="6" x2="476" y1="28.2969" y2="28.2969"/><text fill="#000000" font-family="sans-serif" font-size="14" font-weight="bold" lengthAdjust="spacing" textLength="457" x="10" y="20.9951">de.company.prototype.sewer.drivers.adapters.use_cases</text></g><!--cluster entities--><g id="cluster_entities"><path d="M32.5,188.3 L92.5,188.3 A3.75,3.75 0 0 1 95,190.8 L102,210.5969 L806.5,210.5969 A2.5,2.5 0 0 1 809,213.0969 L809,994.18 A2.5,2.5 0 0 1 806.5,996.68 L32.5,996.68 A2.5,2.5 0 0 1 30,994.18 L30,190.8 A2.5,2.5 0 0 1 32.5,188.3 " fill="#FCFDB0" style="stroke:#000000;stroke-width:1.5;"/><line style="stroke:#000000;stroke-width:1.5;" x1="30" x2="102" y1="210.5969" y2="210.5969"/><text fill="#000000" font-family="sans-serif" font-size="14" font-weight="bold" lengthAdjust="spacing" textLength="59" x="34" y="203.2951">entities</text></g><!--cluster boundary--><g id="cluster_boundary"><path d="M68.5,231.3 L211.5,231.3 A3.75,3.75 0 0 1 214,233.8 L221,253.5969 L425.5,253.5969 A2.5,2.5 0 0 1 428,256.0969 L428,492.39 A2.5,2.5 0 0 1 425.5,494.89 L68.5,494.89 A2.5,2.5 0 0 1 66,492.39 L66,233.8 A2.5,2.5 0 0 1 68.5,231.3 " fill="#00FF00" style="stroke:#000000;stroke-width:1.5;"/><line style="stroke:#000000;stroke-width:1.5;" x1="66" x2="221" y1="253.5969" y2="253.5969"/><text fill="#000000" font-family="sans-serif" font-size="14" font-weight="bold" lengthAdjust="spacing" textLength="142" x="70" y="246.2951">indicate.boundary</text></g><!--cluster control--><g id="cluster_control"><path d="M92.5,355.6 L149.5,355.6 A3.75,3.75 0 0 1 152,358.1 L159,377.8969 L401.5,377.8969 A2.5,2.5 0 0 1 404,380.3969 L404,468.39 A2.5,2.5 0 0 1 401.5,470.89 L92.5,470.89 A2.5,2.5 0 0 1 90,468.39 L90,358.1 A2.5,2.5 0 0 1 92.5,355.6 " fill="#FFA500" style="stroke:#000000;stroke-width:1.5;"/><line style="stroke:#000000;stroke-width:1.5;" x1="90" x2="159" y1="377.8969" y2="377.8969"/><text fill="#000000" font-family="sans-serif" font-size="14" font-weight="bold" lengthAdjust="spacing" textLength="56" x="94" y="370.5951">control</text></g><!--cluster boundary--><g id="cluster_boundary"><path d="M454.5,231.3 L600.5,231.3 A3.75,3.75 0 0 1 603,233.8 L610,253.5969 L769.5,253.5969 A2.5,2.5 0 0 1 772,256.0969 L772,492.39 A2.5,2.5 0 0 1 769.5,494.89 L454.5,494.89 A2.5,2.5 0 0 1 452,492.39 L452,233.8 A2.5,2.5 0 0 1 454.5,231.3 " fill="#00FF00" style="stroke:#000000;stroke-width:1.5;"/><line style="stroke:#000000;stroke-width:1.5;" x1="452" x2="610" y1="253.5969" y2="253.5969"/><text fill="#000000" font-family="sans-serif" font-size="14" font-weight="bold" lengthAdjust="spacing" textLength="145" x="456" y="246.2951">observe.boundary</text></g><!--cluster control--><g id="cluster_control"><path d="M478.5,355.6 L535.5,355.6 A3.75,3.75 0 0 1 538,358.1 L545,377.8969 L745.5,377.8969 A2.5,2.5 0 0 1 748,380.3969 L748,468.39 A2.5,2.5 0 0 1 745.5,470.89 L478.5,470.89 A2.5,2.5 0 0 1 476,468.39 L476,358.1 A2.5,2.5 0 0 1 478.5,355.6 " fill="#FFA500" style="stroke:#000000;stroke-width:1.5;"/><line style="stroke:#000000;stroke-width:1.5;" x1="476" x2="545" y1="377.8969" y2="377.8969"/><text fill="#000000" font-family="sans-serif" font-size="14" font-weight="bold" lengthAdjust="spacing" textLength="56" x="480" y="370.5951">control</text></g><!--cluster sewer--><g id="cluster_sewer"><path d="M56.5,518.89 L107.5,518.89 A3.75,3.75 0 0 1 110,521.39 L117,541.1869 L782.5,541.1869 A2.5,2.5 0 0 1 785,543.6869 L785,970.18 A2.5,2.5 0 0 1 782.5,972.68 L56.5,972.68 A2.5,2.5 0 0 1 54,970.18 L54,521.39 A2.5,2.5 0 0 1 56.5,518.89 " fill="none" style="stroke:#000000;stroke-width:1.5;"/><line style="stroke:#000000;stroke-width:1.5;" x1="54" x2="117" y1="541.1869" y2="541.1869"/><text fill="#000000" font-family="sans-serif" font-size="14" font-weight="bold" lengthAdjust="spacing" textLength="50" x="58" y="533.8851">sewer</text></g><!--cluster boundary--><g id="cluster_boundary"><path d="M80.5,561.89 L156.5,561.89 A3.75,3.75 0 0 1 159,564.39 L166,584.1869 L758.5,584.1869 A2.5,2.5 0 0 1 761,586.6869 L761,774.29 A2.5,2.5 0 0 1 758.5,776.79 L80.5,776.79 A2.5,2.5 0 0 1 78,774.29 L78,564.39 A2.5,2.5 0 0 1 80.5,561.89 " fill="#00FF00" style="stroke:#000000;stroke-width:1.5;"/><line style="stroke:#000000;stroke-width:1.5;" x1="78" x2="166" y1="584.1869" y2="584.1869"/><text fill="#000000" font-family="sans-serif" font-size="14" font-weight="bold" lengthAdjust="spacing" textLength="75" x="82" y="576.8851">boundary</text></g><!--cluster entity--><g id="cluster_entity"><path d="M104.5,604.89 L211.5,604.89 A3.75,3.75 0 0 1 214,607.39 L221,627.1869 L387.5,627.1869 A2.5,2.5 0 0 1 390,629.6869 L390,750.29 A2.5,2.5 0 0 1 387.5,752.79 L104.5,752.79 A2.5,2.5 0 0 1 102,750.29 L102,607.39 A2.5,2.5 0 0 1 104.5,604.89 " fill="#FCFDB0" style="stroke:#000000;stroke-width:1.5;"/><line style="stroke:#000000;stroke-width:1.5;" x1="102" x2="221" y1="627.1869" y2="627.1869"/><text fill="#000000" font-family="sans-serif" font-size="14" font-weight="bold" lengthAdjust="spacing" textLength="106" x="106" y="619.8851">control.entity</text></g><!--cluster entity--><g id="cluster_entity"><path d="M86.5,800.79 L301.5,800.79 A3.75,3.75 0 0 1 304,803.29 L311,823.0869 L393.5,823.0869 A2.5,2.5 0 0 1 396,825.5869 L396,946.18 A2.5,2.5 0 0 1 393.5,948.68 L86.5,948.68 A2.5,2.5 0 0 1 84,946.18 L84,803.29 A2.5,2.5 0 0 1 86.5,800.79 " fill="#FCFDB0" style="stroke:#000000;stroke-width:1.5;"/><line style="stroke:#000000;stroke-width:1.5;" x1="84" x2="311" y1="823.0869" y2="823.0869"/><text fill="#000000" font-family="sans-serif" font-size="14" font-weight="bold" lengthAdjust="spacing" textLength="214" x="88" y="815.7851">kpi.boundary.control.entity</text></g><!--cluster entity--><g id="cluster_entity"><path d="M422.5,808.93 L679.5,808.93 A3.75,3.75 0 0 1 682,811.43 L689,831.2269 L693.5,831.2269 A2.5,2.5 0 0 1 696,833.7269 L696,938.03 A2.5,2.5 0 0 1 693.5,940.53 L422.5,940.53 A2.5,2.5 0 0 1 420,938.03 L420,811.43 A2.5,2.5 0 0 1 422.5,808.93 " fill="#FCFDB0" style="stroke:#000000;stroke-width:1.5;"/><line style="stroke:#000000;stroke-width:1.5;" x1="420" x2="689" y1="831.2269" y2="831.2269"/><text fill="#000000" font-family="sans-serif" font-size="14" font-weight="bold" lengthAdjust="spacing" textLength="256" x="424" y="823.9251">problem.boundary.control.entity</text></g><!--cluster boundary--><g id="cluster_boundary"><path d="M132.5,49 L275.5,49 A3.75,3.75 0 0 1 278,51.5 L285,71.2969 L361.5,71.2969 A2.5,2.5 0 0 1 364,73.7969 L364,161.8 A2.5,2.5 0 0 1 361.5,164.3 L132.5,164.3 A2.5,2.5 0 0 1 130,161.8 L130,51.5 A2.5,2.5 0 0 1 132.5,49 " fill="#00FF00" style="stroke:#000000;stroke-width:1.5;"/><line style="stroke:#000000;stroke-width:1.5;" x1="130" x2="285" y1="71.2969" y2="71.2969"/><text fill="#000000" font-family="sans-serif" font-size="14" font-weight="bold" lengthAdjust="spacing" textLength="142" x="134" y="63.9951">indicate.boundary</text></g><!--cluster boundary--><g id="cluster_boundary"><path d="M488.5,49 L634.5,49 A3.75,3.75 0 0 1 637,51.5 L644,71.2969 L735.5,71.2969 A2.5,2.5 0 0 1 738,73.7969 L738,161.8 A2.5,2.5 0 0 1 735.5,164.3 L488.5,164.3 A2.5,2.5 0 0 1 486,161.8 L486,51.5 A2.5,2.5 0 0 1 488.5,49 " fill="#00FF00" style="stroke:#000000;stroke-width:1.5;"/><line style="stroke:#000000;stroke-width:1.5;" x1="486" x2="644" y1="71.2969" y2="71.2969"/><text fill="#000000" font-family="sans-serif" font-size="14" font-weight="bold" lengthAdjust="spacing" textLength="145" x="490" y="63.9951">observe.boundary</text></g><!--cluster boundary--><g id="cluster_boundary"><path d="M835.5,808.93 L975.5,808.93 A3.75,3.75 0 0 1 978,811.43 L985,831.2269 L1198.5,831.2269 A2.5,2.5 0 0 1 1201,833.7269 L1201,1106.77 A2.5,2.5 0 0 1 1198.5,1109.27 L835.5,1109.27 A2.5,2.5 0 0 1 833,1106.77 L833,811.43 A2.5,2.5 0 0 1 835.5,808.93 " fill="#00FF00" style="stroke:#000000;stroke-width:1.5;"/><line style="stroke:#000000;stroke-width:1.5;" x1="833" x2="985" y1="831.2269" y2="831.2269"/><text fill="#000000" font-family="sans-serif" font-size="14" font-weight="bold" lengthAdjust="spacing" textLength="139" x="837" y="823.9251">sewers.boundary</text></g><!--class SewerOverflowIndicationService--><g id="elem_SewerOverflowIndicationService"><rect codeLine="25" fill="#F1F1F1" height="64.2969" id="SewerOverflowIndicationService" rx="2.5" ry="2.5" style="stroke:#181818;stroke-width:0.5;" width="250" x="122" y="266.3"/><ellipse cx="137" cy="282.3" fill="#ADD1B2" rx="11" ry="11" style="stroke:#181818;stroke-width:1.0;"/><path d="M139.9688,287.9406 Q139.3906,288.2375 138.75,288.3781 Q138.1094,288.5344 137.4063,288.5344 Q134.9063,288.5344 133.5781,286.8937 Q132.2656,285.2375 132.2656,282.1125 Q132.2656,278.9875 133.5781,277.3312 Q134.9063,275.675 137.4063,275.675 Q138.1094,275.675 138.75,275.8312 Q139.4063,275.9875 139.9688,276.2844 L139.9688,279.0031 Q139.3438,278.425 138.75,278.1594 Q138.1563,277.8781 137.5313,277.8781 Q136.1875,277.8781 135.5,278.9562 Q134.8125,280.0187 134.8125,282.1125 Q134.8125,284.2062 135.5,285.2844 Q136.1875,286.3469 137.5313,286.3469 Q138.1563,286.3469 138.75,286.0812 Q139.3438,285.8 139.9688,285.2219 L139.9688,287.9406 Z " fill="#000000"/><text fill="#000000" font-family="sans-serif" font-size="14" lengthAdjust="spacing" textLength="218" x="151" y="287.1467">SewerOverflowIndicationService</text><line style="stroke:#181818;stroke-width:0.5;" x1="123" x2="371" y1="298.3" y2="298.3"/><line style="stroke:#181818;stroke-width:0.5;" x1="123" x2="371" y1="306.3" y2="306.3"/><ellipse cx="133" cy="319.9484" fill="#84BE84" rx="3" ry="3" style="stroke:#038048;stroke-width:1.0;"/><text fill="#000000" font-family="sans-serif" font-size="14" lengthAdjust="spacing" textLength="123" x="142" y="323.2951">void serve(Sewer)</text></g><!--class SewerOverflowIndicationComponent--><g id="elem_SewerOverflowIndicationComponent"><rect codeLine="28" fill="#F1F1F1" height="64.2969" id="SewerOverflowIndicationComponent" rx="2.5" ry="2.5" style="stroke:#181818;stroke-width:0.5;" width="282" x="106" y="390.6"/><ellipse cx="121" cy="406.6" fill="#ADD1B2" rx="11" ry="11" style="stroke:#181818;stroke-width:1.0;"/><path d="M123.9688,412.2406 Q123.3906,412.5375 122.75,412.6781 Q122.1094,412.8344 121.4063,412.8344 Q118.9063,412.8344 117.5781,411.1938 Q116.2656,409.5375 116.2656,406.4125 Q116.2656,403.2875 117.5781,401.6313 Q118.9063,399.975 121.4063,399.975 Q122.1094,399.975 122.75,400.1313 Q123.4063,400.2875 123.9688,400.5844 L123.9688,403.3031 Q123.3438,402.725 122.75,402.4594 Q122.1563,402.1781 121.5313,402.1781 Q120.1875,402.1781 119.5,403.2563 Q118.8125,404.3188 118.8125,406.4125 Q118.8125,408.5063 119.5,409.5844 Q120.1875,410.6469 121.5313,410.6469 Q122.1563,410.6469 122.75,410.3813 Q123.3438,410.1 123.9688,409.5219 L123.9688,412.2406 Z " fill="#000000"/><text fill="#000000" font-family="sans-serif" font-size="14" lengthAdjust="spacing" textLength="250" x="135" y="411.4467">SewerOverflowIndicationComponent</text><line style="stroke:#181818;stroke-width:0.5;" x1="107" x2="387" y1="422.6" y2="422.6"/><line style="stroke:#181818;stroke-width:0.5;" x1="107" x2="387" y1="430.6" y2="430.6"/><ellipse cx="117" cy="444.2484" fill="#84BE84" rx="3" ry="3" style="stroke:#038048;stroke-width:1.0;"/><text fill="#000000" font-family="sans-serif" font-size="14" lengthAdjust="spacing" textLength="141" x="126" y="447.5951">void execute(Sewer)</text></g><!--class SewerObservationService--><g id="elem_SewerObservationService"><rect codeLine="31" fill="#F1F1F1" height="64.2969" id="SewerObservationService" rx="2.5" ry="2.5" style="stroke:#181818;stroke-width:0.5;" width="208" x="508" y="266.3"/><ellipse cx="523" cy="282.3" fill="#ADD1B2" rx="11" ry="11" style="stroke:#181818;stroke-width:1.0;"/><path d="M525.9688,287.9406 Q525.3906,288.2375 524.75,288.3781 Q524.1094,288.5344 523.4063,288.5344 Q520.9063,288.5344 519.5781,286.8937 Q518.2656,285.2375 518.2656,282.1125 Q518.2656,278.9875 519.5781,277.3312 Q520.9063,275.675 523.4063,275.675 Q524.1094,275.675 524.75,275.8312 Q525.4063,275.9875 525.9688,276.2844 L525.9688,279.0031 Q525.3438,278.425 524.75,278.1594 Q524.1563,277.8781 523.5313,277.8781 Q522.1875,277.8781 521.5,278.9562 Q520.8125,280.0187 520.8125,282.1125 Q520.8125,284.2062 521.5,285.2844 Q522.1875,286.3469 523.5313,286.3469 Q524.1563,286.3469 524.75,286.0812 Q525.3438,285.8 525.9688,285.2219 L525.9688,287.9406 Z " fill="#000000"/><text fill="#000000" font-family="sans-serif" font-size="14" lengthAdjust="spacing" textLength="176" x="537" y="287.1467">SewerObservationService</text><line style="stroke:#181818;stroke-width:0.5;" x1="509" x2="715" y1="298.3" y2="298.3"/><line style="stroke:#181818;stroke-width:0.5;" x1="509" x2="715" y1="306.3" y2="306.3"/><ellipse cx="519" cy="319.9484" fill="#84BE84" rx="3" ry="3" style="stroke:#038048;stroke-width:1.0;"/><text fill="#000000" font-family="sans-serif" font-size="14" lengthAdjust="spacing" textLength="182" x="528" y="323.2951">Set&lt;Sewer&gt; serve(String)</text></g><!--class SewerObservationComponent--><g id="elem_SewerObservationComponent"><rect codeLine="34" fill="#F1F1F1" height="64.2969" id="SewerObservationComponent" rx="2.5" ry="2.5" style="stroke:#181818;stroke-width:0.5;" width="240" x="492" y="390.6"/><ellipse cx="507" cy="406.6" fill="#ADD1B2" rx="11" ry="11" style="stroke:#181818;stroke-width:1.0;"/><path d="M509.9688,412.2406 Q509.3906,412.5375 508.75,412.6781 Q508.1094,412.8344 507.4063,412.8344 Q504.9063,412.8344 503.5781,411.1938 Q502.2656,409.5375 502.2656,406.4125 Q502.2656,403.2875 503.5781,401.6313 Q504.9063,399.975 507.4063,399.975 Q508.1094,399.975 508.75,400.1313 Q509.4063,400.2875 509.9688,400.5844 L509.9688,403.3031 Q509.3438,402.725 508.75,402.4594 Q508.1563,402.1781 507.5313,402.1781 Q506.1875,402.1781 505.5,403.2563 Q504.8125,404.3188 504.8125,406.4125 Q504.8125,408.5063 505.5,409.5844 Q506.1875,410.6469 507.5313,410.6469 Q508.1563,410.6469 508.75,410.3813 Q509.3438,410.1 509.9688,409.5219 L509.9688,412.2406 Z " fill="#000000"/><text fill="#000000" font-family="sans-serif" font-size="14" lengthAdjust="spacing" textLength="208" x="521" y="411.4467">SewerObservationComponent</text><line style="stroke:#181818;stroke-width:0.5;" x1="493" x2="731" y1="422.6" y2="422.6"/><line style="stroke:#181818;stroke-width:0.5;" x1="493" x2="731" y1="430.6" y2="430.6"/><ellipse cx="503" cy="444.2484" fill="#84BE84" rx="3" ry="3" style="stroke:#038048;stroke-width:1.0;"/><text fill="#000000" font-family="sans-serif" font-size="14" lengthAdjust="spacing" textLength="200" x="512" y="447.5951">Set&lt;Sewer&gt; execute(String)</text></g><!--class Sewers--><g id="elem_Sewers"><rect codeLine="37" fill="#F1F1F1" height="80.5938" id="Sewers" rx="2.5" ry="2.5" style="stroke:#181818;stroke-width:0.5;" width="336" x="409" y="648.04"/><ellipse cx="547.25" cy="664.04" fill="#B4A7E5" rx="11" ry="11" style="stroke:#181818;stroke-width:1.0;"/><path d="M543.1719,659.8056 L543.1719,657.6494 L550.5625,657.6494 L550.5625,659.8056 L548.0938,659.8056 L548.0938,667.8838 L550.5625,667.8838 L550.5625,670.04 L543.1719,670.04 L543.1719,667.8838 L545.6406,667.8838 L545.6406,659.8056 L543.1719,659.8056 Z " fill="#000000"/><text fill="#000000" font-family="sans-serif" font-size="14" font-style="italic" lengthAdjust="spacing" textLength="51" x="567.75" y="668.8867">Sewers</text><line style="stroke:#181818;stroke-width:0.5;" x1="410" x2="744" y1="680.04" y2="680.04"/><line style="stroke:#181818;stroke-width:0.5;" x1="410" x2="744" y1="688.04" y2="688.04"/><ellipse cx="420" cy="701.6884" fill="#84BE84" rx="3" ry="3" style="stroke:#038048;stroke-width:1.0;"/><text fill="#000000" font-family="sans-serif" font-size="14" font-style="italic" lengthAdjust="spacing" textLength="194" x="429" y="705.0351">Set&lt;Sewer&gt; observe(UUID)</text><ellipse cx="420" cy="717.9853" fill="#84BE84" rx="3" ry="3" style="stroke:#038048;stroke-width:1.0;"/><text fill="#000000" font-family="sans-serif" font-size="14" font-style="italic" lengthAdjust="spacing" textLength="310" x="429" y="721.332">void indicate(UUID, KeyPerformanceIndicator)</text></g><!--class Sewer--><g id="elem_Sewer"><rect codeLine="41" fill="#F1F1F1" height="96.8906" id="Sewer" rx="2.5" ry="2.5" style="stroke:#181818;stroke-width:0.5;" width="256" x="118" y="639.89"/><ellipse cx="220.25" cy="655.89" fill="#ADD1B2" rx="11" ry="11" style="stroke:#181818;stroke-width:1.0;"/><path d="M223.2188,661.5306 Q222.6406,661.8275 222,661.9681 Q221.3594,662.1244 220.6563,662.1244 Q218.1563,662.1244 216.8281,660.4838 Q215.5156,658.8275 215.5156,655.7025 Q215.5156,652.5775 216.8281,650.9213 Q218.1563,649.265 220.6563,649.265 Q221.3594,649.265 222,649.4213 Q222.6563,649.5775 223.2188,649.8744 L223.2188,652.5931 Q222.5938,652.015 222,651.7494 Q221.4063,651.4681 220.7813,651.4681 Q219.4375,651.4681 218.75,652.5463 Q218.0625,653.6088 218.0625,655.7025 Q218.0625,657.7963 218.75,658.8744 Q219.4375,659.9369 220.7813,659.9369 Q221.4063,659.9369 222,659.6713 Q222.5938,659.39 223.2188,658.8119 L223.2188,661.5306 Z " fill="#000000"/><text fill="#000000" font-family="sans-serif" font-size="14" lengthAdjust="spacing" textLength="43" x="240.75" y="660.7367">Sewer</text><line style="stroke:#181818;stroke-width:0.5;" x1="119" x2="373" y1="671.89" y2="671.89"/><line style="stroke:#181818;stroke-width:0.5;" x1="119" x2="373" y1="679.89" y2="679.89"/><ellipse cx="129" cy="693.5384" fill="#84BE84" rx="3" ry="3" style="stroke:#038048;stroke-width:1.0;"/><text fill="#000000" font-family="sans-serif" font-size="14" lengthAdjust="spacing" textLength="83" x="138" y="696.8851">UUID getId()</text><ellipse cx="129" cy="709.8353" fill="#84BE84" rx="3" ry="3" style="stroke:#038048;stroke-width:1.0;"/><text fill="#000000" font-family="sans-serif" font-size="14" lengthAdjust="spacing" textLength="230" x="138" y="713.182">KeyPerformanceIndicator getKpi()</text><ellipse cx="129" cy="726.1322" fill="#84BE84" rx="3" ry="3" style="stroke:#038048;stroke-width:1.0;"/><text fill="#000000" font-family="sans-serif" font-size="14" lengthAdjust="spacing" textLength="151" x="138" y="729.4789">Problem getProblem()</text></g><!--class KeyPerformanceIndicator--><g id="elem_KeyPerformanceIndicator"><rect codeLine="46" fill="#F1F1F1" height="96.8906" id="KeyPerformanceIndicator" rx="2.5" ry="2.5" style="stroke:#181818;stroke-width:0.5;" width="279" x="100.5" y="835.79"/><ellipse cx="149.75" cy="851.79" fill="#ADD1B2" rx="11" ry="11" style="stroke:#181818;stroke-width:1.0;"/><path d="M152.7188,857.4306 Q152.1406,857.7275 151.5,857.8681 Q150.8594,858.0244 150.1563,858.0244 Q147.6563,858.0244 146.3281,856.3838 Q145.0156,854.7275 145.0156,851.6025 Q145.0156,848.4775 146.3281,846.8213 Q147.6563,845.165 150.1563,845.165 Q150.8594,845.165 151.5,845.3213 Q152.1563,845.4775 152.7188,845.7744 L152.7188,848.4931 Q152.0938,847.915 151.5,847.6494 Q150.9063,847.3681 150.2813,847.3681 Q148.9375,847.3681 148.25,848.4463 Q147.5625,849.5088 147.5625,851.6025 Q147.5625,853.6963 148.25,854.7744 Q148.9375,855.8369 150.2813,855.8369 Q150.9063,855.8369 151.5,855.5713 Q152.0938,855.29 152.7188,854.7119 L152.7188,857.4306 Z " fill="#000000"/><text fill="#000000" font-family="sans-serif" font-size="14" lengthAdjust="spacing" textLength="172" x="170.25" y="856.6367">KeyPerformanceIndicator</text><line style="stroke:#181818;stroke-width:0.5;" x1="101.5" x2="378.5" y1="867.79" y2="867.79"/><line style="stroke:#181818;stroke-width:0.5;" x1="101.5" x2="378.5" y1="875.79" y2="875.79"/><ellipse cx="111.5" cy="889.4384" fill="#84BE84" rx="3" ry="3" style="stroke:#038048;stroke-width:1.0;"/><text fill="#000000" font-family="sans-serif" font-size="14" lengthAdjust="spacing" textLength="253" x="120.5" y="892.7851">String getPumpPowerConsumption()</text><ellipse cx="111.5" cy="905.7353" fill="#84BE84" rx="3" ry="3" style="stroke:#038048;stroke-width:1.0;"/><text fill="#000000" font-family="sans-serif" font-size="14" lengthAdjust="spacing" textLength="108" x="120.5" y="909.082">String getFlow()</text><ellipse cx="111.5" cy="922.0322" fill="#84BE84" rx="3" ry="3" style="stroke:#038048;stroke-width:1.0;"/><text fill="#000000" font-family="sans-serif" font-size="14" lengthAdjust="spacing" textLength="125" x="120.5" y="925.3789">String getRainfall()</text></g><!--class Problem--><g id="elem_Problem"><rect codeLine="51" fill="#F1F1F1" height="80.5938" id="Problem" rx="2.5" ry="2.5" style="stroke:#181818;stroke-width:0.5;" width="243" x="436.5" y="843.93"/><ellipse cx="525.25" cy="859.93" fill="#ADD1B2" rx="11" ry="11" style="stroke:#181818;stroke-width:1.0;"/><path d="M528.2188,865.5706 Q527.6406,865.8675 527,866.0081 Q526.3594,866.1644 525.6563,866.1644 Q523.1563,866.1644 521.8281,864.5238 Q520.5156,862.8675 520.5156,859.7425 Q520.5156,856.6175 521.8281,854.9613 Q523.1563,853.305 525.6563,853.305 Q526.3594,853.305 527,853.4613 Q527.6563,853.6175 528.2188,853.9144 L528.2188,856.6331 Q527.5938,856.055 527,855.7894 Q526.4063,855.5081 525.7813,855.5081 Q524.4375,855.5081 523.75,856.5863 Q523.0625,857.6488 523.0625,859.7425 Q523.0625,861.8363 523.75,862.9144 Q524.4375,863.9769 525.7813,863.9769 Q526.4063,863.9769 527,863.7113 Q527.5938,863.43 528.2188,862.8519 L528.2188,865.5706 Z " fill="#000000"/><text fill="#000000" font-family="sans-serif" font-size="14" lengthAdjust="spacing" textLength="57" x="545.75" y="864.7767">Problem</text><line style="stroke:#181818;stroke-width:0.5;" x1="437.5" x2="678.5" y1="875.93" y2="875.93"/><line style="stroke:#181818;stroke-width:0.5;" x1="437.5" x2="678.5" y1="883.93" y2="883.93"/><ellipse cx="447.5" cy="897.5784" fill="#84BE84" rx="3" ry="3" style="stroke:#038048;stroke-width:1.0;"/><text fill="#000000" font-family="sans-serif" font-size="14" lengthAdjust="spacing" textLength="130" x="456.5" y="900.9251">String getReason()</text><ellipse cx="447.5" cy="913.8753" fill="#84BE84" rx="3" ry="3" style="stroke:#038048;stroke-width:1.0;"/><text fill="#000000" font-family="sans-serif" font-size="14" lengthAdjust="spacing" textLength="217" x="456.5" y="917.222">Number getOverflowIndication()</text></g><!--class SewerIndicationUseCase--><g id="elem_SewerIndicationUseCase"><rect codeLine="55" fill="#F1F1F1" height="64.2969" id="SewerIndicationUseCase" rx="2.5" ry="2.5" style="stroke:#181818;stroke-width:0.5;" width="203" x="145.5" y="84"/><ellipse cx="160.5" cy="100" fill="#ADD1B2" rx="11" ry="11" style="stroke:#181818;stroke-width:1.0;"/><path d="M163.4688,105.6406 Q162.8906,105.9375 162.25,106.0781 Q161.6094,106.2344 160.9063,106.2344 Q158.4063,106.2344 157.0781,104.5938 Q155.7656,102.9375 155.7656,99.8125 Q155.7656,96.6875 157.0781,95.0313 Q158.4063,93.375 160.9063,93.375 Q161.6094,93.375 162.25,93.5313 Q162.9063,93.6875 163.4688,93.9844 L163.4688,96.7031 Q162.8438,96.125 162.25,95.8594 Q161.6563,95.5781 161.0313,95.5781 Q159.6875,95.5781 159,96.6563 Q158.3125,97.7188 158.3125,99.8125 Q158.3125,101.9063 159,102.9844 Q159.6875,104.0469 161.0313,104.0469 Q161.6563,104.0469 162.25,103.7813 Q162.8438,103.5 163.4688,102.9219 L163.4688,105.6406 Z " fill="#000000"/><text fill="#000000" font-family="sans-serif" font-size="14" lengthAdjust="spacing" textLength="171" x="174.5" y="104.8467">SewerIndicationUseCase</text><line style="stroke:#181818;stroke-width:0.5;" x1="146.5" x2="347.5" y1="116" y2="116"/><line style="stroke:#181818;stroke-width:0.5;" x1="146.5" x2="347.5" y1="124" y2="124"/><ellipse cx="156.5" cy="137.6484" fill="#84BE84" rx="3" ry="3" style="stroke:#038048;stroke-width:1.0;"/><text fill="#000000" font-family="sans-serif" font-size="14" lengthAdjust="spacing" textLength="120" x="165.5" y="140.9951">void serve(String)</text></g><!--class SewerObservationUseCase--><g id="elem_SewerObservationUseCase"><rect codeLine="58" fill="#F1F1F1" height="64.2969" id="SewerObservationUseCase" rx="2.5" ry="2.5" style="stroke:#181818;stroke-width:0.5;" width="220" x="502" y="84"/><ellipse cx="517" cy="100" fill="#ADD1B2" rx="11" ry="11" style="stroke:#181818;stroke-width:1.0;"/><path d="M519.9688,105.6406 Q519.3906,105.9375 518.75,106.0781 Q518.1094,106.2344 517.4063,106.2344 Q514.9063,106.2344 513.5781,104.5938 Q512.2656,102.9375 512.2656,99.8125 Q512.2656,96.6875 513.5781,95.0313 Q514.9063,93.375 517.4063,93.375 Q518.1094,93.375 518.75,93.5313 Q519.4063,93.6875 519.9688,93.9844 L519.9688,96.7031 Q519.3438,96.125 518.75,95.8594 Q518.1563,95.5781 517.5313,95.5781 Q516.1875,95.5781 515.5,96.6563 Q514.8125,97.7188 514.8125,99.8125 Q514.8125,101.9063 515.5,102.9844 Q516.1875,104.0469 517.5313,104.0469 Q518.1563,104.0469 518.75,103.7813 Q519.3438,103.5 519.9688,102.9219 L519.9688,105.6406 Z " fill="#000000"/><text fill="#000000" font-family="sans-serif" font-size="14" lengthAdjust="spacing" textLength="188" x="531" y="104.8467">SewerObservationUseCase</text><line style="stroke:#181818;stroke-width:0.5;" x1="503" x2="721" y1="116" y2="116"/><line style="stroke:#181818;stroke-width:0.5;" x1="503" x2="721" y1="124" y2="124"/><ellipse cx="513" cy="137.6484" fill="#84BE84" rx="3" ry="3" style="stroke:#038048;stroke-width:1.0;"/><text fill="#000000" font-family="sans-serif" font-size="14" lengthAdjust="spacing" textLength="182" x="522" y="140.9951">Set&lt;Sewer&gt; serve(String)</text></g><!--class SewersUseCase--><g id="elem_SewersUseCase"><rect codeLine="61" fill="#F1F1F1" height="80.5938" id="SewersUseCase" rx="2.5" ry="2.5" style="stroke:#181818;stroke-width:0.5;" width="222" x="906" y="1012.68"/><ellipse cx="956.25" cy="1028.68" fill="#B4A7E5" rx="11" ry="11" style="stroke:#181818;stroke-width:1.0;"/><path d="M952.1719,1024.4456 L952.1719,1022.2894 L959.5625,1022.2894 L959.5625,1024.4456 L957.0938,1024.4456 L957.0938,1032.5238 L959.5625,1032.5238 L959.5625,1034.68 L952.1719,1034.68 L952.1719,1032.5238 L954.6406,1032.5238 L954.6406,1024.4456 L952.1719,1024.4456 Z " fill="#000000"/><text fill="#000000" font-family="sans-serif" font-size="14" font-style="italic" lengthAdjust="spacing" textLength="113" x="976.75" y="1033.5267">SewersUseCase</text><line style="stroke:#181818;stroke-width:0.5;" x1="907" x2="1127" y1="1044.68" y2="1044.68"/><line style="stroke:#181818;stroke-width:0.5;" x1="907" x2="1127" y1="1052.68" y2="1052.68"/><ellipse cx="917" cy="1066.3284" fill="#84BE84" rx="3" ry="3" style="stroke:#038048;stroke-width:1.0;"/><text fill="#000000" font-family="sans-serif" font-size="14" font-style="italic" lengthAdjust="spacing" textLength="196" x="926" y="1069.6751">Set&lt;Object&gt; observe(UUID)</text><ellipse cx="917" cy="1082.6253" fill="#84BE84" rx="3" ry="3" style="stroke:#038048;stroke-width:1.0;"/><text fill="#000000" font-family="sans-serif" font-size="14" font-style="italic" lengthAdjust="spacing" textLength="183" x="926" y="1085.972">void indicate(UUID, Object)</text></g><!--class SewersUseCaseBridge--><g id="elem_SewersUseCaseBridge"><rect codeLine="65" fill="#F1F1F1" height="80.5938" id="SewersUseCaseBridge" rx="2.5" ry="2.5" style="stroke:#181818;stroke-width:0.5;" width="336" x="849" y="843.93"/><ellipse cx="933.75" cy="859.93" fill="#ADD1B2" rx="11" ry="11" style="stroke:#181818;stroke-width:1.0;"/><path d="M936.7188,865.5706 Q936.1406,865.8675 935.5,866.0081 Q934.8594,866.1644 934.1563,866.1644 Q931.6563,866.1644 930.3281,864.5238 Q929.0156,862.8675 929.0156,859.7425 Q929.0156,856.6175 930.3281,854.9613 Q931.6563,853.305 934.1563,853.305 Q934.8594,853.305 935.5,853.4613 Q936.1563,853.6175 936.7188,853.9144 L936.7188,856.6331 Q936.0938,856.055 935.5,855.7894 Q934.9063,855.5081 934.2813,855.5081 Q932.9375,855.5081 932.25,856.5863 Q931.5625,857.6488 931.5625,859.7425 Q931.5625,861.8363 932.25,862.9144 Q932.9375,863.9769 934.2813,863.9769 Q934.9063,863.9769 935.5,863.7113 Q936.0938,863.43 936.7188,862.8519 L936.7188,865.5706 Z " fill="#000000"/><text fill="#000000" font-family="sans-serif" font-size="14" lengthAdjust="spacing" textLength="158" x="954.25" y="864.7767">SewersUseCaseBridge</text><line style="stroke:#181818;stroke-width:0.5;" x1="850" x2="1184" y1="875.93" y2="875.93"/><line style="stroke:#181818;stroke-width:0.5;" x1="850" x2="1184" y1="883.93" y2="883.93"/><ellipse cx="860" cy="897.5784" fill="#84BE84" rx="3" ry="3" style="stroke:#038048;stroke-width:1.0;"/><text fill="#000000" font-family="sans-serif" font-size="14" lengthAdjust="spacing" textLength="194" x="869" y="900.9251">Set&lt;Sewer&gt; observe(UUID)</text><ellipse cx="860" cy="913.8753" fill="#84BE84" rx="3" ry="3" style="stroke:#038048;stroke-width:1.0;"/><text fill="#000000" font-family="sans-serif" font-size="14" lengthAdjust="spacing" textLength="310" x="869" y="917.222">void indicate(UUID, KeyPerformanceIndicator)</text></g><!--link SewerOverflowIndicationService to SewerOverflowIndicationComponent--><g id="link_SewerOverflowIndicationService_SewerOverflowIndicationComponent"><path codeLine="69" d="M247,330.78 C247,349.05 247,365.83 247,384.14 " fill="none" id="SewerOverflowIndicationService-to-SewerOverflowIndicationComponent" style="stroke:#181818;stroke-width:1.0;"/><polygon fill="#181818" points="247,390.14,251,381.14,247,385.14,243,381.14,247,390.14" style="stroke:#181818;stroke-width:1.0;"/></g><!--link SewerOverflowIndicationComponent to Sewers--><g id="link_SewerOverflowIndicationComponent_Sewers"><path codeLine="70" d="M383.75,455.16 C383.75,526.19 383.75,689.27 383.75,689.27 C383.75,689.27 387.5,689.27 402.62,689.27 " fill="none" id="SewerOverflowIndicationComponent-to-Sewers" style="stroke:#181818;stroke-width:1.0;"/><polygon fill="#181818" points="408.62,689.27,399.62,685.27,403.62,689.27,399.62,693.27,408.62,689.27" style="stroke:#181818;stroke-width:1.0;"/></g><!--link SewerObservationService to SewerObservationComponent--><g id="link_SewerObservationService_SewerObservationComponent"><path codeLine="71" d="M612,330.78 C612,349.05 612,365.83 612,384.14 " fill="none" id="SewerObservationService-to-SewerObservationComponent" style="stroke:#181818;stroke-width:1.0;"/><polygon fill="#181818" points="612,390.14,616,381.14,612,385.14,608,381.14,612,390.14" style="stroke:#181818;stroke-width:1.0;"/></g><!--link SewerObservationComponent to Sewers--><g id="link_SewerObservationComponent_Sewers"><path codeLine="72" d="M612,455.31 C612,503.79 612,588.89 612,641.68 " fill="none" id="SewerObservationComponent-to-Sewers" style="stroke:#181818;stroke-width:1.0;"/><polygon fill="#181818" points="612,647.68,616,638.68,612,642.68,608,638.68,612,647.68" style="stroke:#181818;stroke-width:1.0;"/></g><!--link Sewer to Problem--><g id="link_Sewer_Problem"><path codeLine="73" d="M374.25,733.27 C460.31,733.27 558,733.27 558,733.27 C558,733.27 558,793.06 558,837.78 " fill="none" id="Sewer-to-Problem" style="stroke:#181818;stroke-width:1.0;"/><polygon fill="#181818" points="558,843.78,562,834.78,558,838.78,554,834.78,558,843.78" style="stroke:#181818;stroke-width:1.0;"/></g><!--link Sewer to KeyPerformanceIndicator--><g id="link_Sewer_KeyPerformanceIndicator"><path codeLine="74" d="M246,737.27 C246,767.3 246,799.61 246,829.59 " fill="none" id="Sewer-to-KeyPerformanceIndicator" style="stroke:#181818;stroke-width:1.0;"/><polygon fill="#181818" points="246,835.59,250,826.59,246,830.59,242,826.59,246,835.59" style="stroke:#181818;stroke-width:1.0;"/></g><!--link SewerIndicationUseCase to SewerOverflowIndicationService--><g id="link_SewerIndicationUseCase_SewerOverflowIndicationService"><path codeLine="75" d="M247,148.74 C247,181.82 247,226.75 247,259.83 " fill="none" id="SewerIndicationUseCase-to-SewerOverflowIndicationService" style="stroke:#181818;stroke-width:1.0;"/><polygon fill="#181818" points="247,265.83,251,256.83,247,260.83,243,256.83,247,265.83" style="stroke:#181818;stroke-width:1.0;"/></g><!--link SewerObservationUseCase to SewerObservationService--><g id="link_SewerObservationUseCase_SewerObservationService"><path codeLine="76" d="M612,148.74 C612,181.82 612,226.75 612,259.83 " fill="none" id="SewerObservationUseCase-to-SewerObservationService" style="stroke:#181818;stroke-width:1.0;"/><polygon fill="#181818" points="612,265.83,616,256.83,612,260.83,608,256.83,612,265.83" style="stroke:#181818;stroke-width:1.0;"/></g><!--reverse link Sewers to SewersUseCaseBridge--><g id="link_Sewers_SewersUseCaseBridge"><path codeLine="77" d="M712.25,746.94 C712.25,804.33 712.25,884.27 712.25,884.27 C712.25,884.27 778.1,884.27 848.58,884.27 " fill="none" id="Sewers-backto-SewersUseCaseBridge" style="stroke:#181818;stroke-width:1.0;stroke-dasharray:7.0,7.0;"/><polygon fill="none" points="712.25,728.94,706.25,746.94,718.25,746.94,712.25,728.94" style="stroke:#181818;stroke-width:1.0;"/></g><!--link SewersUseCaseBridge to SewersUseCase--><g id="link_SewersUseCaseBridge_SewersUseCase"><path codeLine="78" d="M1017,924.65 C1017,951.17 1017,979.73 1017,1006.3 " fill="none" id="SewersUseCaseBridge-to-SewersUseCase" style="stroke:#181818;stroke-width:1.0;"/><polygon fill="#181818" points="1017,1012.3,1021,1003.3,1017,1007.3,1013,1003.3,1017,1012.3" style="stroke:#181818;stroke-width:1.0;"/></g><!--SRC=[rLVDJzim5B_dh_3IIz66DKqx36dYCAP95TAeG9md9tafNXCxiXrOnVZVvzXDIPEc7pGsx5Qbpx-lkE-zlYi4cUK4bH8cJ8788Q54mPJ4Sp83YLAIIGZadBA229AZZ39GYm8G5-gE1_AEFo2fpm6ldWQ5FOSIGUz1I4GaIW37F2y8M-12S6Ngi8G74BYk6idv8ifAG8zFAmIIa4Bj3O5NvQCldz8q-jo4qjv-nKJ2eLZu-U0eJS_8sLaJ5PYYYXu1YbS8epHEa-XZ4ptY9Kk8M1oFZYbBQApVALvXZZAQhuKTSwO4proGuHfxn0LXCt1aaaSInBqVZsqkJnPjfG-3wqpRx9aZ2sUKU8dlzWTYA-S5zHXkayrZm9jeVOQiJqOPv1w3RZDw3BkFscdWUtJxuqbsTzlZEKo1t40Hn1cH4eKtLS6LFfvc_65YRLFERhGo6aFeP9XjvqIF0KBlxpbDaCbdRCfFWgSTaY-qHiuqRUXo0kDTx0tvy0VYKlKPC6z_wB0xKxM7owgy0VNL59pNKIj1sMoBr453xbi1S2zhH_OgufLmMYtWAT4MhNWP3ZzOBR0LWnv999KWiNfgw5fQ6z_UJhwVjChCtQWlcAduW2vXCTMokSW9Ys5vhNZdqeIkbmHhpJghbA4Pg4aoDXPwD5ObbmMrDLFRhQjdou_ZXeSUXD37PCPzyksLClV7o2xpOiers0LdKd-kxf_rzbppG__qsy-k2MNwVrxMzBkC8FGr374TVylJDH1Pk_XPvX6ObzPjOkFsVNl-wbR2XLOK3ZXJyMQARl_VrPIErxQpRQvfsz8sEztdU6sj4OxNS3VseAleDyJgy2PapxM3hgc-2PhCd1cnw9ryEnOER9w-TvVJq_FNMps2rrjw1l2zSSO6llQX0GmSliu4_XUej_gYzjbA1jE-vnZzhpozOFK970zo9yrmUmCE7Cz_5ssYfoK5xgOiBl7VDzK6zX7zykYtely3]--></g></svg>