<?xml version="1.0" encoding="us-ascii" standalone="no"?><svg xmlns="http://www.w3.org/2000/svg" xmlns:xlink="http://www.w3.org/1999/xlink" contentStyleType="text/css" height="4664px" preserveAspectRatio="none" style="width:4532px;height:4664px;background:#FFFFFF;" version="1.1" viewBox="0 0 4532 4664" width="4532px" zoomAndPan="magnify"><defs/><g><!--cluster drivers--><g id="cluster_drivers"><path d="M17,12 L529,12 A7.5,7.5 0 0 1 534,17 L548,56.9766 L4513,56.9766 A5,5 0 0 1 4518,61.9766 L4518,4399.56 A5,5 0 0 1 4513,4404.56 L17,4404.56 A5,5 0 0 1 12,4399.56 L12,17 A5,5 0 0 1 17,12 " fill="#87CEEB" style="stroke:#000000;stroke-width:3.0;"/><line style="stroke:#000000;stroke-width:3.0;" x1="12" x2="548" y1="56.9766" y2="56.9766"/><text fill="#000000" font-family="sans-serif" font-size="28" font-weight="bold" lengthAdjust="spacing" textLength="510" x="20" y="43.0703">de.company.prototype.sewer.drivers</text></g><!--cluster adapters--><g id="cluster_adapters"><path d="M805,510.98 L931,510.98 A7.5,7.5 0 0 1 936,515.98 L950,555.9566 L3337,555.9566 A5,5 0 0 1 3342,560.9566 L3342,3771.6 A5,5 0 0 1 3337,3776.6 L805,3776.6 A5,5 0 0 1 800,3771.6 L800,515.98 A5,5 0 0 1 805,510.98 " fill="#82FFB4" style="stroke:#000000;stroke-width:3.0;"/><line style="stroke:#000000;stroke-width:3.0;" x1="800" x2="950" y1="555.9566" y2="555.9566"/><text fill="#000000" font-family="sans-serif" font-size="28" font-weight="bold" lengthAdjust="spacing" textLength="124" x="808" y="542.0503">adapters</text></g><!--cluster boundary--><g id="cluster_boundary"><path d="M2113,596.98 L2369,596.98 A7.5,7.5 0 0 1 2374,601.98 L2388,641.9566 L2559,641.9566 A5,5 0 0 1 2564,646.9566 L2564,822.96 A5,5 0 0 1 2559,827.96 L2113,827.96 A5,5 0 0 1 2108,822.96 L2108,601.98 A5,5 0 0 1 2113,596.98 " fill="#00FF00" style="stroke:#000000;stroke-width:3.0;"/><line style="stroke:#000000;stroke-width:3.0;" x1="2108" x2="2388" y1="641.9566" y2="641.9566"/><text fill="#000000" font-family="sans-serif" font-size="28" font-weight="bold" lengthAdjust="spacing" textLength="254" x="2116" y="628.0503">indicate.boundary</text></g><!--cluster boundary--><g id="cluster_boundary"><path d="M911,596.98 L1165,596.98 A7.5,7.5 0 0 1 1170,601.98 L1184,641.9566 L1389,641.9566 A5,5 0 0 1 1394,646.9566 L1394,822.96 A5,5 0 0 1 1389,827.96 L911,827.96 A5,5 0 0 1 906,822.96 L906,601.98 A5,5 0 0 1 911,596.98 " fill="#00FF00" style="stroke:#000000;stroke-width:3.0;"/><line style="stroke:#000000;stroke-width:3.0;" x1="906" x2="1184" y1="641.9566" y2="641.9566"/><text fill="#000000" font-family="sans-serif" font-size="28" font-weight="bold" lengthAdjust="spacing" textLength="252" x="914" y="628.0503">observe.boundary</text></g><!--cluster boundary--><g id="cluster_boundary"><path d="M2635,3182.7 L2877,3182.7 A7.5,7.5 0 0 1 2882,3187.7 L2896,3227.6766 L3117,3227.6766 A5,5 0 0 1 3122,3232.6766 L3122,3723.6 A5,5 0 0 1 3117,3728.6 L2635,3728.6 A5,5 0 0 1 2630,3723.6 L2630,3187.7 A5,5 0 0 1 2635,3182.7 " fill="#00FF00" style="stroke:#000000;stroke-width:3.0;"/><line style="stroke:#000000;stroke-width:3.0;" x1="2630" x2="2896" y1="3227.6766" y2="3227.6766"/><text fill="#000000" font-family="sans-serif" font-size="28" font-weight="bold" lengthAdjust="spacing" textLength="240" x="2638" y="3213.7703">sewers.boundary</text></g><!--cluster use_cases--><g id="cluster_use_cases"><path d="M853,875.96 L997,875.96 A7.5,7.5 0 0 1 1002,880.96 L1016,920.9366 L3289,920.9366 A5,5 0 0 1 3294,925.9366 L3294,3129.7 A5,5 0 0 1 3289,3134.7 L853,3134.7 A5,5 0 0 1 848,3129.7 L848,880.96 A5,5 0 0 1 853,875.96 " fill="#FF9A99" style="stroke:#000000;stroke-width:3.0;"/><line style="stroke:#000000;stroke-width:3.0;" x1="848" x2="1016" y1="920.9366" y2="920.9366"/><text fill="#000000" font-family="sans-serif" font-size="28" font-weight="bold" lengthAdjust="spacing" textLength="142" x="856" y="907.0303">use_cases</text></g><!--cluster entities--><g id="cluster_entities"><path d="M901,1240.94 L1013,1240.94 A7.5,7.5 0 0 1 1018,1245.94 L1032,1285.9166 L2453,1285.9166 A5,5 0 0 1 2458,1290.9166 L2458,2855.74 A5,5 0 0 1 2453,2860.74 L901,2860.74 A5,5 0 0 1 896,2855.74 L896,1245.94 A5,5 0 0 1 901,1240.94 " fill="#FCFDB0" style="stroke:#000000;stroke-width:3.0;"/><line style="stroke:#000000;stroke-width:3.0;" x1="896" x2="1032" y1="1285.9166" y2="1285.9166"/><text fill="#000000" font-family="sans-serif" font-size="28" font-weight="bold" lengthAdjust="spacing" textLength="110" x="904" y="1272.0103">entities</text></g><!--cluster boundary--><g id="cluster_boundary"><path d="M1659,1326.94 L1915,1326.94 A7.5,7.5 0 0 1 1920,1331.94 L1934,1371.9166 L2377,1371.9166 A5,5 0 0 1 2382,1376.9166 L2382,1849.88 A5,5 0 0 1 2377,1854.88 L1659,1854.88 A5,5 0 0 1 1654,1849.88 L1654,1331.94 A5,5 0 0 1 1659,1326.94 " fill="#00FF00" style="stroke:#000000;stroke-width:3.0;"/><line style="stroke:#000000;stroke-width:3.0;" x1="1654" x2="1934" y1="1371.9166" y2="1371.9166"/><text fill="#000000" font-family="sans-serif" font-size="28" font-weight="bold" lengthAdjust="spacing" textLength="254" x="1662" y="1358.0103">indicate.boundary</text></g><!--cluster control--><g id="cluster_control"><path d="M1707,1575.92 L1811,1575.92 A7.5,7.5 0 0 1 1816,1580.92 L1830,1620.8966 L2329,1620.8966 A5,5 0 0 1 2334,1625.8966 L2334,1801.88 A5,5 0 0 1 2329,1806.88 L1707,1806.88 A5,5 0 0 1 1702,1801.88 L1702,1580.92 A5,5 0 0 1 1707,1575.92 " fill="#FFA500" style="stroke:#000000;stroke-width:3.0;"/><line style="stroke:#000000;stroke-width:3.0;" x1="1702" x2="1830" y1="1620.8966" y2="1620.8966"/><text fill="#000000" font-family="sans-serif" font-size="28" font-weight="bold" lengthAdjust="spacing" textLength="102" x="1710" y="1606.9903">control</text></g><!--cluster boundary--><g id="cluster_boundary"><path d="M975,1326.94 L1229,1326.94 A7.5,7.5 0 0 1 1234,1331.94 L1248,1371.9166 L1601,1371.9166 A5,5 0 0 1 1606,1376.9166 L1606,1849.88 A5,5 0 0 1 1601,1854.88 L975,1854.88 A5,5 0 0 1 970,1849.88 L970,1331.94 A5,5 0 0 1 975,1326.94 " fill="#00FF00" style="stroke:#000000;stroke-width:3.0;"/><line style="stroke:#000000;stroke-width:3.0;" x1="970" x2="1248" y1="1371.9166" y2="1371.9166"/><text fill="#000000" font-family="sans-serif" font-size="28" font-weight="bold" lengthAdjust="spacing" textLength="252" x="978" y="1358.0103">observe.boundary</text></g><!--cluster control--><g id="cluster_control"><path d="M1023,1575.92 L1127,1575.92 A7.5,7.5 0 0 1 1132,1580.92 L1146,1620.8966 L1553,1620.8966 A5,5 0 0 1 1558,1625.8966 L1558,1801.88 A5,5 0 0 1 1553,1806.88 L1023,1806.88 A5,5 0 0 1 1018,1801.88 L1018,1580.92 A5,5 0 0 1 1023,1575.92 " fill="#FFA500" style="stroke:#000000;stroke-width:3.0;"/><line style="stroke:#000000;stroke-width:3.0;" x1="1018" x2="1146" y1="1620.8966" y2="1620.8966"/><text fill="#000000" font-family="sans-serif" font-size="28" font-weight="bold" lengthAdjust="spacing" textLength="102" x="1026" y="1606.9903">control</text></g><!--cluster sewer--><g id="cluster_sewer"><path d="M949,1902.88 L1035,1902.88 A7.5,7.5 0 0 1 1040,1907.88 L1054,1947.8566 L2405,1947.8566 A5,5 0 0 1 2410,1952.8566 L2410,2807.74 A5,5 0 0 1 2405,2812.74 L949,2812.74 A5,5 0 0 1 944,2807.74 L944,1907.88 A5,5 0 0 1 949,1902.88 " fill="none" style="stroke:#000000;stroke-width:3.0;"/><line style="stroke:#000000;stroke-width:3.0;" x1="944" x2="1054" y1="1947.8566" y2="1947.8566"/><text fill="#000000" font-family="sans-serif" font-size="28" font-weight="bold" lengthAdjust="spacing" textLength="84" x="952" y="1933.9503">sewer</text></g><!--cluster boundary--><g id="cluster_boundary"><path d="M997,1988.88 L1133,1988.88 A7.5,7.5 0 0 1 1138,1993.88 L1152,2033.8566 L2357,2033.8566 A5,5 0 0 1 2362,2038.8566 L2362,2414.82 A5,5 0 0 1 2357,2419.82 L997,2419.82 A5,5 0 0 1 992,2414.82 L992,1993.88 A5,5 0 0 1 997,1988.88 " fill="#00FF00" style="stroke:#000000;stroke-width:3.0;"/><line style="stroke:#000000;stroke-width:3.0;" x1="992" x2="1152" y1="2033.8566" y2="2033.8566"/><text fill="#000000" font-family="sans-serif" font-size="28" font-weight="bold" lengthAdjust="spacing" textLength="134" x="1000" y="2019.9503">boundary</text></g><!--cluster entity--><g id="cluster_entity"><path d="M1045,2074.88 L1239,2074.88 A7.5,7.5 0 0 1 1244,2079.88 L1258,2119.8566 L1611,2119.8566 A5,5 0 0 1 1616,2124.8566 L1616,2366.82 A5,5 0 0 1 1611,2371.82 L1045,2371.82 A5,5 0 0 1 1040,2366.82 L1040,2079.88 A5,5 0 0 1 1045,2074.88 " fill="#FCFDB0" style="stroke:#000000;stroke-width:3.0;"/><line style="stroke:#000000;stroke-width:3.0;" x1="1040" x2="1258" y1="2119.8566" y2="2119.8566"/><text fill="#000000" font-family="sans-serif" font-size="28" font-weight="bold" lengthAdjust="spacing" textLength="192" x="1048" y="2105.9503">control.entity</text></g><!--cluster entity--><g id="cluster_entity"><path d="M1011,2467.82 L1397,2467.82 A7.5,7.5 0 0 1 1402,2472.82 L1416,2512.7966 L1617,2512.7966 A5,5 0 0 1 1622,2517.7966 L1622,2759.74 A5,5 0 0 1 1617,2764.74 L1011,2764.74 A5,5 0 0 1 1006,2759.74 L1006,2472.82 A5,5 0 0 1 1011,2467.82 " fill="#FCFDB0" style="stroke:#000000;stroke-width:3.0;"/><line style="stroke:#000000;stroke-width:3.0;" x1="1006" x2="1416" y1="2512.7966" y2="2512.7966"/><text fill="#000000" font-family="sans-serif" font-size="28" font-weight="bold" lengthAdjust="spacing" textLength="384" x="1014" y="2498.8903">kpi.boundary.control.entity</text></g><!--cluster entity--><g id="cluster_entity"><path d="M1675,2484.3 L2135,2484.3 A7.5,7.5 0 0 1 2140,2489.3 L2154,2529.2766 L2221,2529.2766 A5,5 0 0 1 2226,2534.2766 L2226,2743.26 A5,5 0 0 1 2221,2748.26 L1675,2748.26 A5,5 0 0 1 1670,2743.26 L1670,2489.3 A5,5 0 0 1 1675,2484.3 " fill="#FCFDB0" style="stroke:#000000;stroke-width:3.0;"/><line style="stroke:#000000;stroke-width:3.0;" x1="1670" x2="2154" y1="2529.2766" y2="2529.2766"/><text fill="#000000" font-family="sans-serif" font-size="28" font-weight="bold" lengthAdjust="spacing" textLength="458" x="1678" y="2515.3703">problem.boundary.control.entity</text></g><!--cluster boundary--><g id="cluster_boundary"><path d="M1971,961.96 L2227,961.96 A7.5,7.5 0 0 1 2232,966.96 L2246,1006.9366 L2425,1006.9366 A5,5 0 0 1 2430,1011.9366 L2430,1187.94 A5,5 0 0 1 2425,1192.94 L1971,1192.94 A5,5 0 0 1 1966,1187.94 L1966,966.96 A5,5 0 0 1 1971,961.96 " fill="#00FF00" style="stroke:#000000;stroke-width:3.0;"/><line style="stroke:#000000;stroke-width:3.0;" x1="1966" x2="2246" y1="1006.9366" y2="1006.9366"/><text fill="#000000" font-family="sans-serif" font-size="28" font-weight="bold" lengthAdjust="spacing" textLength="254" x="1974" y="993.0303">indicate.boundary</text></g><!--cluster boundary--><g id="cluster_boundary"><path d="M967,961.96 L1221,961.96 A7.5,7.5 0 0 1 1226,966.96 L1240,1006.9366 L1449,1006.9366 A5,5 0 0 1 1454,1011.9366 L1454,1187.94 A5,5 0 0 1 1449,1192.94 L967,1192.94 A5,5 0 0 1 962,1187.94 L962,966.96 A5,5 0 0 1 967,961.96 " fill="#00FF00" style="stroke:#000000;stroke-width:3.0;"/><line style="stroke:#000000;stroke-width:3.0;" x1="962" x2="1240" y1="1006.9366" y2="1006.9366"/><text fill="#000000" font-family="sans-serif" font-size="28" font-weight="bold" lengthAdjust="spacing" textLength="252" x="970" y="993.0303">observe.boundary</text></g><!--cluster boundary--><g id="cluster_boundary"><path d="M2511,2484.3 L2753,2484.3 A7.5,7.5 0 0 1 2758,2489.3 L2772,2529.2766 L3241,2529.2766 A5,5 0 0 1 3246,2534.2766 L3246,3081.7 A5,5 0 0 1 3241,3086.7 L2511,3086.7 A5,5 0 0 1 2506,3081.7 L2506,2489.3 A5,5 0 0 1 2511,2484.3 " fill="#00FF00" style="stroke:#000000;stroke-width:3.0;"/><line style="stroke:#000000;stroke-width:3.0;" x1="2506" x2="2772" y1="2529.2766" y2="2529.2766"/><text fill="#000000" font-family="sans-serif" font-size="28" font-weight="bold" lengthAdjust="spacing" textLength="240" x="2514" y="2515.3703">sewers.boundary</text></g><!--cluster boundary--><g id="cluster_boundary"><path d="M2705,184 L3015,184 A7.5,7.5 0 0 1 3020,189 L3034,228.9766 L4465,228.9766 A5,5 0 0 1 4470,233.9766 L4470,409.98 A5,5 0 0 1 4465,414.98 L2705,414.98 A5,5 0 0 1 2700,409.98 L2700,189 A5,5 0 0 1 2705,184 " fill="#00FF00" style="stroke:#000000;stroke-width:3.0;"/><line style="stroke:#000000;stroke-width:3.0;" x1="2700" x2="3034" y1="228.9766" y2="228.9766"/><text fill="#000000" font-family="sans-serif" font-size="28" font-weight="bold" lengthAdjust="spacing" textLength="308" x="2708" y="215.0703">file.indicate.boundary</text></g><!--cluster persistence--><g id="cluster_persistence"><path d="M1771,3824.6 L1937,3824.6 A7.5,7.5 0 0 1 1942,3829.6 L1956,3869.5766 L4065,3869.5766 A5,5 0 0 1 4070,3874.5766 L4070,4351.56 A5,5 0 0 1 4065,4356.56 L1771,4356.56 A5,5 0 0 1 1766,4351.56 L1766,3829.6 A5,5 0 0 1 1771,3824.6 " fill="#FFFFFF" style="stroke:#000000;stroke-width:3.0;"/><line style="stroke:#000000;stroke-width:3.0;" x1="1766" x2="1956" y1="3869.5766" y2="3869.5766"/><text fill="#000000" font-family="sans-serif" font-size="28" font-weight="bold" lengthAdjust="spacing" textLength="164" x="1774" y="3855.6703">persistence</text></g><!--cluster aws--><g id="cluster_aws"><path d="M2899,3910.6 L2957,3910.6 A7.5,7.5 0 0 1 2962,3915.6 L2976,3955.5766 L4017,3955.5766 A5,5 0 0 1 4022,3960.5766 L4022,4303.56 A5,5 0 0 1 4017,4308.56 L2899,4308.56 A5,5 0 0 1 2894,4303.56 L2894,3915.6 A5,5 0 0 1 2899,3910.6 " fill="#F0A238" style="stroke:#000000;stroke-width:3.0;"/><line style="stroke:#000000;stroke-width:3.0;" x1="2894" x2="2976" y1="3955.5766" y2="3955.5766"/><text fill="#000000" font-family="sans-serif" font-size="28" font-weight="bold" lengthAdjust="spacing" textLength="56" x="2902" y="3941.6703">aws</text></g><!--cluster boundary--><g id="cluster_boundary"><path d="M3487,3996.6 L3849,3996.6 A7.5,7.5 0 0 1 3854,4001.6 L3868,4041.5766 L3969,4041.5766 A5,5 0 0 1 3974,4046.5766 L3974,4255.56 A5,5 0 0 1 3969,4260.56 L3487,4260.56 A5,5 0 0 1 3482,4255.56 L3482,4001.6 A5,5 0 0 1 3487,3996.6 " fill="#00FF00" style="stroke:#000000;stroke-width:3.0;"/><line style="stroke:#000000;stroke-width:3.0;" x1="3482" x2="3868" y1="4041.5766" y2="4041.5766"/><text fill="#000000" font-family="sans-serif" font-size="28" font-weight="bold" lengthAdjust="spacing" textLength="360" x="3490" y="4027.6703">dynamo.sewers.boundary</text></g><!--cluster boundary--><g id="cluster_boundary"><path d="M2947,3996.6 L3229,3996.6 A7.5,7.5 0 0 1 3234,4001.6 L3248,4041.5766 L3429,4041.5766 A5,5 0 0 1 3434,4046.5766 L3434,4255.56 A5,5 0 0 1 3429,4260.56 L2947,4260.56 A5,5 0 0 1 2942,4255.56 L2942,4001.6 A5,5 0 0 1 2947,3996.6 " fill="#00FF00" style="stroke:#000000;stroke-width:3.0;"/><line style="stroke:#000000;stroke-width:3.0;" x1="2942" x2="3248" y1="4041.5766" y2="4041.5766"/><text fill="#000000" font-family="sans-serif" font-size="28" font-weight="bold" lengthAdjust="spacing" textLength="280" x="2950" y="4027.6703">s3.sewers.boundary</text></g><!--cluster boundary--><g id="cluster_boundary"><path d="M2359,3996.6 L2655,3996.6 A7.5,7.5 0 0 1 2660,4001.6 L2674,4041.5766 L2841,4041.5766 A5,5 0 0 1 2846,4046.5766 L2846,4255.56 A5,5 0 0 1 2841,4260.56 L2359,4260.56 A5,5 0 0 1 2354,4255.56 L2354,4001.6 A5,5 0 0 1 2359,3996.6 " fill="#00FF00" style="stroke:#000000;stroke-width:3.0;"/><line style="stroke:#000000;stroke-width:3.0;" x1="2354" x2="2674" y1="4041.5766" y2="4041.5766"/><text fill="#000000" font-family="sans-serif" font-size="28" font-weight="bold" lengthAdjust="spacing" textLength="294" x="2362" y="4027.6703">file.sewers.boundary</text></g><!--cluster boundary--><g id="cluster_boundary"><path d="M1819,3996.6 L2183,3996.6 A7.5,7.5 0 0 1 2188,4001.6 L2202,4041.5766 L2301,4041.5766 A5,5 0 0 1 2306,4046.5766 L2306,4255.56 A5,5 0 0 1 2301,4260.56 L1819,4260.56 A5,5 0 0 1 1814,4255.56 L1814,4001.6 A5,5 0 0 1 1819,3996.6 " fill="#00FF00" style="stroke:#000000;stroke-width:3.0;"/><line style="stroke:#000000;stroke-width:3.0;" x1="1814" x2="2202" y1="4041.5766" y2="4041.5766"/><text fill="#000000" font-family="sans-serif" font-size="28" font-weight="bold" lengthAdjust="spacing" textLength="362" x="1822" y="4027.6703">panache.sewers.boundary</text></g><!--cluster rest--><g id="cluster_rest"><path d="M65,98 L123,98 A7.5,7.5 0 0 1 128,103 L142,142.9766 L2647,142.9766 A5,5 0 0 1 2652,147.9766 L2652,457.98 A5,5 0 0 1 2647,462.98 L65,462.98 A5,5 0 0 1 60,457.98 L60,103 A5,5 0 0 1 65,98 " fill="#FFFFFF" style="stroke:#000000;stroke-width:3.0;"/><line style="stroke:#000000;stroke-width:3.0;" x1="60" x2="142" y1="142.9766" y2="142.9766"/><text fill="#000000" font-family="sans-serif" font-size="28" font-weight="bold" lengthAdjust="spacing" textLength="56" x="68" y="129.0703">rest</text></g><!--cluster boundary--><g id="cluster_boundary"><path d="M665,184 L921,184 A7.5,7.5 0 0 1 926,189 L940,228.9766 L2599,228.9766 A5,5 0 0 1 2604,233.9766 L2604,409.98 A5,5 0 0 1 2599,414.98 L665,414.98 A5,5 0 0 1 660,409.98 L660,189 A5,5 0 0 1 665,184 " fill="#00FF00" style="stroke:#000000;stroke-width:3.0;"/><line style="stroke:#000000;stroke-width:3.0;" x1="660" x2="940" y1="228.9766" y2="228.9766"/><text fill="#000000" font-family="sans-serif" font-size="28" font-weight="bold" lengthAdjust="spacing" textLength="254" x="668" y="215.0703">indicate.boundary</text></g><!--cluster boundary--><g id="cluster_boundary"><path d="M113,184 L367,184 A7.5,7.5 0 0 1 372,189 L386,228.9766 L607,228.9766 A5,5 0 0 1 612,233.9766 L612,409.98 A5,5 0 0 1 607,414.98 L113,414.98 A5,5 0 0 1 108,409.98 L108,189 A5,5 0 0 1 113,184 " fill="#00FF00" style="stroke:#000000;stroke-width:3.0;"/><line style="stroke:#000000;stroke-width:3.0;" x1="108" x2="386" y1="228.9766" y2="228.9766"/><text fill="#000000" font-family="sans-serif" font-size="28" font-weight="bold" lengthAdjust="spacing" textLength="252" x="116" y="215.0703">observe.boundary</text></g><!--cluster panache--><g id="cluster_panache"><path d="M1811,4452.56 L2291,4452.56 A7.5,7.5 0 0 1 2296,4457.56 L2310,4497.5366 L2311,4497.5366 A5,5 0 0 1 2316,4502.5366 L2316,4645.56 A5,5 0 0 1 2311,4650.56 L1811,4650.56 A5,5 0 0 1 1806,4645.56 L1806,4457.56 A5,5 0 0 1 1811,4452.56 " fill="#4695EB" style="stroke:#000000;stroke-width:3.0;"/><line style="stroke:#000000;stroke-width:3.0;" x1="1806" x2="2310" y1="4497.5366" y2="4497.5366"/><text fill="#000000" font-family="sans-serif" font-size="28" font-weight="bold" lengthAdjust="spacing" textLength="478" x="1814" y="4483.6303">io.quarkus.hibernate.orm.panache</text></g><!--class SewerIndicationAdapter--><g id="elem_SewerIndicationAdapter"><rect codeLine="41" fill="#F1F1F1" height="128.9766" id="SewerIndicationAdapter" rx="5" ry="5" style="stroke:#181818;stroke-width:1.0;" width="392" x="2140" y="666.98"/><ellipse cx="2170" cy="698.98" fill="#ADD1B2" rx="22" ry="22" style="stroke:#181818;stroke-width:2.0;"/><path d="M2175.9463,710.2661 Q2174.7842,710.8638 2173.5059,711.1626 Q2172.2275,711.4614 2170.8164,711.4614 Q2165.8027,711.4614 2163.1631,708.1577 Q2160.5234,704.854 2160.5234,698.6118 Q2160.5234,692.353 2163.1631,689.0493 Q2165.8027,685.7456 2170.8164,685.7456 Q2172.2275,685.7456 2173.5225,686.0445 Q2174.8174,686.3433 2175.9463,686.9409 L2175.9463,692.3863 Q2174.6846,691.2241 2173.4976,690.6846 Q2172.3105,690.145 2171.0488,690.145 Q2168.3594,690.145 2166.9897,692.2783 Q2165.6201,694.4116 2165.6201,698.6118 Q2165.6201,702.7954 2166.9897,704.9287 Q2168.3594,707.062 2171.0488,707.062 Q2172.3105,707.062 2173.4976,706.5225 Q2174.6846,705.9829 2175.9463,704.8208 Z " fill="#000000"/><text fill="#000000" font-family="sans-serif" font-size="28" lengthAdjust="spacing" textLength="328" x="2198" y="709.562">SewerIndicationAdapter</text><line style="stroke:#181818;stroke-width:1.0;" x1="2142" x2="2530" y1="730.98" y2="730.98"/><line style="stroke:#181818;stroke-width:1.0;" x1="2142" x2="2530" y1="746.98" y2="746.98"/><ellipse cx="2162" cy="774.4683" fill="#84BE84" rx="6" ry="6" style="stroke:#038048;stroke-width:2.0;"/><text fill="#000000" font-family="sans-serif" font-size="28" lengthAdjust="spacing" textLength="240" x="2180" y="782.0503">void serve(String)</text></g><!--class SewerObservationAdapter--><g id="elem_SewerObservationAdapter"><rect codeLine="44" fill="#F1F1F1" height="128.9766" id="SewerObservationAdapter" rx="5" ry="5" style="stroke:#181818;stroke-width:1.0;" width="422" x="939" y="666.98"/><ellipse cx="969" cy="698.98" fill="#ADD1B2" rx="22" ry="22" style="stroke:#181818;stroke-width:2.0;"/><path d="M974.9463,710.2661 Q973.7842,710.8638 972.5059,711.1626 Q971.2275,711.4614 969.8164,711.4614 Q964.8027,711.4614 962.1631,708.1577 Q959.5234,704.854 959.5234,698.6118 Q959.5234,692.353 962.1631,689.0493 Q964.8027,685.7456 969.8164,685.7456 Q971.2275,685.7456 972.5225,686.0445 Q973.8174,686.3433 974.9463,686.9409 L974.9463,692.3863 Q973.6846,691.2241 972.4976,690.6846 Q971.3105,690.145 970.0488,690.145 Q967.3594,690.145 965.9897,692.2783 Q964.6201,694.4116 964.6201,698.6118 Q964.6201,702.7954 965.9897,704.9287 Q967.3594,707.062 970.0488,707.062 Q971.3105,707.062 972.4976,706.5225 Q973.6846,705.9829 974.9463,704.8208 Z " fill="#000000"/><text fill="#000000" font-family="sans-serif" font-size="28" lengthAdjust="spacing" textLength="358" x="997" y="709.562">SewerObservationAdapter</text><line style="stroke:#181818;stroke-width:1.0;" x1="941" x2="1359" y1="730.98" y2="730.98"/><line style="stroke:#181818;stroke-width:1.0;" x1="941" x2="1359" y1="746.98" y2="746.98"/><ellipse cx="961" cy="774.4683" fill="#84BE84" rx="6" ry="6" style="stroke:#038048;stroke-width:2.0;"/><text fill="#000000" font-family="sans-serif" font-size="28" lengthAdjust="spacing" textLength="356" x="979" y="782.0503">Set&lt;Object&gt; serve(String)</text></g><!--class SewersAdapter--><g id="elem_SewersAdapter"><rect codeLine="47" fill="#F1F1F1" height="161.9531" id="SewersAdapter" rx="5" ry="5" style="stroke:#181818;stroke-width:1.0;" width="430" x="2661" y="3534.66"/><ellipse cx="2764.5" cy="3566.66" fill="#B4A7E5" rx="22" ry="22" style="stroke:#181818;stroke-width:2.0;"/><path d="M2756.3555,3558.1903 L2756.3555,3553.8739 L2771.1143,3553.8739 L2771.1143,3558.1903 L2766.1836,3558.1903 L2766.1836,3574.3436 L2771.1143,3574.3436 L2771.1143,3578.66 L2756.3555,3578.66 L2756.3555,3574.3436 L2761.2861,3574.3436 L2761.2861,3558.1903 Z " fill="#000000"/><text fill="#000000" font-family="sans-serif" font-size="28" font-style="italic" lengthAdjust="spacing" textLength="206" x="2805.5" y="3577.242">SewersAdapter</text><line style="stroke:#181818;stroke-width:1.0;" x1="2663" x2="3089" y1="3598.66" y2="3598.66"/><line style="stroke:#181818;stroke-width:1.0;" x1="2663" x2="3089" y1="3614.66" y2="3614.66"/><ellipse cx="2683" cy="3642.1483" fill="#84BE84" rx="6" ry="6" style="stroke:#038048;stroke-width:2.0;"/><text fill="#000000" font-family="sans-serif" font-size="28" font-style="italic" lengthAdjust="spacing" textLength="378" x="2701" y="3649.7303">Set&lt;Object&gt; observe(UUID)</text><ellipse cx="2683" cy="3675.1248" fill="#84BE84" rx="6" ry="6" style="stroke:#038048;stroke-width:2.0;"/><text fill="#000000" font-family="sans-serif" font-size="28" font-style="italic" lengthAdjust="spacing" textLength="366" x="2701" y="3682.7069">void indicate(UUID, Object)</text></g><!--class SewersAdapterBridge--><g id="elem_SewersAdapterBridge"><rect codeLine="51" fill="#F1F1F1" height="161.9531" id="SewersAdapterBridge" rx="5" ry="5" style="stroke:#181818;stroke-width:1.0;" width="430" x="2661" y="3252.7"/><ellipse cx="2723.4" cy="3284.7" fill="#ADD1B2" rx="22" ry="22" style="stroke:#181818;stroke-width:2.0;"/><path d="M2729.3463,3295.9861 Q2728.1842,3296.5838 2726.9059,3296.8826 Q2725.6275,3297.1814 2724.2164,3297.1814 Q2719.2027,3297.1814 2716.5631,3293.8777 Q2713.9234,3290.574 2713.9234,3284.3318 Q2713.9234,3278.073 2716.5631,3274.7693 Q2719.2027,3271.4656 2724.2164,3271.4656 Q2725.6275,3271.4656 2726.9225,3271.7645 Q2728.2174,3272.0633 2729.3463,3272.6609 L2729.3463,3278.1063 Q2728.0846,3276.9441 2726.8976,3276.4046 Q2725.7105,3275.865 2724.4488,3275.865 Q2721.7594,3275.865 2720.3897,3277.9983 Q2719.0201,3280.1316 2719.0201,3284.3318 Q2719.0201,3288.5154 2720.3897,3290.6487 Q2721.7594,3292.782 2724.4488,3292.782 Q2725.7105,3292.782 2726.8976,3292.2425 Q2728.0846,3291.7029 2729.3463,3290.5408 Z " fill="#000000"/><text fill="#000000" font-family="sans-serif" font-size="28" lengthAdjust="spacing" textLength="294" x="2758.6" y="3295.282">SewersAdapterBridge</text><line style="stroke:#181818;stroke-width:1.0;" x1="2663" x2="3089" y1="3316.7" y2="3316.7"/><line style="stroke:#181818;stroke-width:1.0;" x1="2663" x2="3089" y1="3332.7" y2="3332.7"/><ellipse cx="2683" cy="3360.1883" fill="#84BE84" rx="6" ry="6" style="stroke:#038048;stroke-width:2.0;"/><text fill="#000000" font-family="sans-serif" font-size="28" lengthAdjust="spacing" textLength="378" x="2701" y="3367.7703">Set&lt;Object&gt; observe(UUID)</text><ellipse cx="2683" cy="3393.1648" fill="#84BE84" rx="6" ry="6" style="stroke:#038048;stroke-width:2.0;"/><text fill="#000000" font-family="sans-serif" font-size="28" lengthAdjust="spacing" textLength="366" x="2701" y="3400.7469">void indicate(UUID, Object)</text></g><!--class SewerOverflowIndicationService--><g id="elem_SewerOverflowIndicationService"><rect codeLine="55" fill="#F1F1F1" height="128.9766" id="SewerOverflowIndicationService" rx="5" ry="5" style="stroke:#181818;stroke-width:1.0;" width="500" x="1808" y="1396.94"/><ellipse cx="1838" cy="1428.94" fill="#ADD1B2" rx="22" ry="22" style="stroke:#181818;stroke-width:2.0;"/><path d="M1843.9463,1440.2261 Q1842.7842,1440.8238 1841.5059,1441.1226 Q1840.2275,1441.4214 1838.8164,1441.4214 Q1833.8027,1441.4214 1831.1631,1438.1177 Q1828.5234,1434.814 1828.5234,1428.5718 Q1828.5234,1422.313 1831.1631,1419.0093 Q1833.8027,1415.7056 1838.8164,1415.7056 Q1840.2275,1415.7056 1841.5225,1416.0045 Q1842.8174,1416.3033 1843.9463,1416.9009 L1843.9463,1422.3463 Q1842.6846,1421.1841 1841.4976,1420.6446 Q1840.3105,1420.105 1839.0488,1420.105 Q1836.3594,1420.105 1834.9897,1422.2383 Q1833.6201,1424.3716 1833.6201,1428.5718 Q1833.6201,1432.7554 1834.9897,1434.8887 Q1836.3594,1437.022 1839.0488,1437.022 Q1840.3105,1437.022 1841.4976,1436.4825 Q1842.6846,1435.9429 1843.9463,1434.7808 Z " fill="#000000"/><text fill="#000000" font-family="sans-serif" font-size="28" lengthAdjust="spacing" textLength="436" x="1866" y="1439.522">SewerOverflowIndicationService</text><line style="stroke:#181818;stroke-width:1.0;" x1="1810" x2="2306" y1="1460.94" y2="1460.94"/><line style="stroke:#181818;stroke-width:1.0;" x1="1810" x2="2306" y1="1476.94" y2="1476.94"/><ellipse cx="1830" cy="1504.4283" fill="#84BE84" rx="6" ry="6" style="stroke:#038048;stroke-width:2.0;"/><text fill="#000000" font-family="sans-serif" font-size="28" lengthAdjust="spacing" textLength="240" x="1848" y="1512.0103">void serve(Sewer)</text></g><!--class SewerOverflowIndicationComponent--><g id="elem_SewerOverflowIndicationComponent"><rect codeLine="58" fill="#F1F1F1" height="128.9766" id="SewerOverflowIndicationComponent" rx="5" ry="5" style="stroke:#181818;stroke-width:1.0;" width="566" x="1735" y="1645.92"/><ellipse cx="1765" cy="1677.92" fill="#ADD1B2" rx="22" ry="22" style="stroke:#181818;stroke-width:2.0;"/><path d="M1770.9463,1689.2061 Q1769.7842,1689.8038 1768.5059,1690.1026 Q1767.2275,1690.4014 1765.8164,1690.4014 Q1760.8027,1690.4014 1758.1631,1687.0977 Q1755.5234,1683.794 1755.5234,1677.5518 Q1755.5234,1671.293 1758.1631,1667.9893 Q1760.8027,1664.6856 1765.8164,1664.6856 Q1767.2275,1664.6856 1768.5225,1664.9845 Q1769.8174,1665.2833 1770.9463,1665.8809 L1770.9463,1671.3263 Q1769.6846,1670.1641 1768.4976,1669.6246 Q1767.3105,1669.085 1766.0488,1669.085 Q1763.3594,1669.085 1761.9897,1671.2183 Q1760.6201,1673.3516 1760.6201,1677.5518 Q1760.6201,1681.7354 1761.9897,1683.8687 Q1763.3594,1686.002 1766.0488,1686.002 Q1767.3105,1686.002 1768.4976,1685.4625 Q1769.6846,1684.9229 1770.9463,1683.7608 Z " fill="#000000"/><text fill="#000000" font-family="sans-serif" font-size="28" lengthAdjust="spacing" textLength="502" x="1793" y="1688.502">SewerOverflowIndicationComponent</text><line style="stroke:#181818;stroke-width:1.0;" x1="1737" x2="2299" y1="1709.92" y2="1709.92"/><line style="stroke:#181818;stroke-width:1.0;" x1="1737" x2="2299" y1="1725.92" y2="1725.92"/><ellipse cx="1757" cy="1753.4083" fill="#84BE84" rx="6" ry="6" style="stroke:#038048;stroke-width:2.0;"/><text fill="#000000" font-family="sans-serif" font-size="28" lengthAdjust="spacing" textLength="276" x="1775" y="1760.9903">void execute(Sewer)</text></g><!--class SewerObservationService--><g id="elem_SewerObservationService"><rect codeLine="61" fill="#F1F1F1" height="128.9766" id="SewerObservationService" rx="5" ry="5" style="stroke:#181818;stroke-width:1.0;" width="408" x="1044" y="1396.94"/><ellipse cx="1074" cy="1428.94" fill="#ADD1B2" rx="22" ry="22" style="stroke:#181818;stroke-width:2.0;"/><path d="M1079.9463,1440.2261 Q1078.7842,1440.8238 1077.5059,1441.1226 Q1076.2275,1441.4214 1074.8164,1441.4214 Q1069.8027,1441.4214 1067.1631,1438.1177 Q1064.5234,1434.814 1064.5234,1428.5718 Q1064.5234,1422.313 1067.1631,1419.0093 Q1069.8027,1415.7056 1074.8164,1415.7056 Q1076.2275,1415.7056 1077.5225,1416.0045 Q1078.8174,1416.3033 1079.9463,1416.9009 L1079.9463,1422.3463 Q1078.6846,1421.1841 1077.4976,1420.6446 Q1076.3105,1420.105 1075.0488,1420.105 Q1072.3594,1420.105 1070.9897,1422.2383 Q1069.6201,1424.3716 1069.6201,1428.5718 Q1069.6201,1432.7554 1070.9897,1434.8887 Q1072.3594,1437.022 1075.0488,1437.022 Q1076.3105,1437.022 1077.4976,1436.4825 Q1078.6846,1435.9429 1079.9463,1434.7808 Z " fill="#000000"/><text fill="#000000" font-family="sans-serif" font-size="28" lengthAdjust="spacing" textLength="344" x="1102" y="1439.522">SewerObservationService</text><line style="stroke:#181818;stroke-width:1.0;" x1="1046" x2="1450" y1="1460.94" y2="1460.94"/><line style="stroke:#181818;stroke-width:1.0;" x1="1046" x2="1450" y1="1476.94" y2="1476.94"/><ellipse cx="1066" cy="1504.4283" fill="#84BE84" rx="6" ry="6" style="stroke:#038048;stroke-width:2.0;"/><text fill="#000000" font-family="sans-serif" font-size="28" lengthAdjust="spacing" textLength="350" x="1084" y="1512.0103">Set&lt;Sewer&gt; serve(String)</text></g><!--class SewerObservationComponent--><g id="elem_SewerObservationComponent"><rect codeLine="64" fill="#F1F1F1" height="128.9766" id="SewerObservationComponent" rx="5" ry="5" style="stroke:#181818;stroke-width:1.0;" width="474" x="1051" y="1645.92"/><ellipse cx="1081" cy="1677.92" fill="#ADD1B2" rx="22" ry="22" style="stroke:#181818;stroke-width:2.0;"/><path d="M1086.9463,1689.2061 Q1085.7842,1689.8038 1084.5059,1690.1026 Q1083.2275,1690.4014 1081.8164,1690.4014 Q1076.8027,1690.4014 1074.1631,1687.0977 Q1071.5234,1683.794 1071.5234,1677.5518 Q1071.5234,1671.293 1074.1631,1667.9893 Q1076.8027,1664.6856 1081.8164,1664.6856 Q1083.2275,1664.6856 1084.5225,1664.9845 Q1085.8174,1665.2833 1086.9463,1665.8809 L1086.9463,1671.3263 Q1085.6846,1670.1641 1084.4976,1669.6246 Q1083.3105,1669.085 1082.0488,1669.085 Q1079.3594,1669.085 1077.9897,1671.2183 Q1076.6201,1673.3516 1076.6201,1677.5518 Q1076.6201,1681.7354 1077.9897,1683.8687 Q1079.3594,1686.002 1082.0488,1686.002 Q1083.3105,1686.002 1084.4976,1685.4625 Q1085.6846,1684.9229 1086.9463,1683.7608 Z " fill="#000000"/><text fill="#000000" font-family="sans-serif" font-size="28" lengthAdjust="spacing" textLength="410" x="1109" y="1688.502">SewerObservationComponent</text><line style="stroke:#181818;stroke-width:1.0;" x1="1053" x2="1523" y1="1709.92" y2="1709.92"/><line style="stroke:#181818;stroke-width:1.0;" x1="1053" x2="1523" y1="1725.92" y2="1725.92"/><ellipse cx="1073" cy="1753.4083" fill="#84BE84" rx="6" ry="6" style="stroke:#038048;stroke-width:2.0;"/><text fill="#000000" font-family="sans-serif" font-size="28" lengthAdjust="spacing" textLength="386" x="1091" y="1760.9903">Set&lt;Sewer&gt; execute(String)</text></g><!--class Sewers--><g id="elem_Sewers"><rect codeLine="67" fill="#F1F1F1" height="161.9531" id="Sewers" rx="5" ry="5" style="stroke:#181818;stroke-width:1.0;" width="674" x="1655" y="2161.38"/><ellipse cx="1935.5" cy="2193.38" fill="#B4A7E5" rx="22" ry="22" style="stroke:#181818;stroke-width:2.0;"/><path d="M1927.3555,2184.9103 L1927.3555,2180.5939 L1942.1143,2180.5939 L1942.1143,2184.9103 L1937.1836,2184.9103 L1937.1836,2201.0636 L1942.1143,2201.0636 L1942.1143,2205.38 L1927.3555,2205.38 L1927.3555,2201.0636 L1932.2861,2201.0636 L1932.2861,2184.9103 Z " fill="#000000"/><text fill="#000000" font-family="sans-serif" font-size="28" font-style="italic" lengthAdjust="spacing" textLength="96" x="1976.5" y="2203.962">Sewers</text><line style="stroke:#181818;stroke-width:1.0;" x1="1657" x2="2327" y1="2225.38" y2="2225.38"/><line style="stroke:#181818;stroke-width:1.0;" x1="1657" x2="2327" y1="2241.38" y2="2241.38"/><ellipse cx="1677" cy="2268.8683" fill="#84BE84" rx="6" ry="6" style="stroke:#038048;stroke-width:2.0;"/><text fill="#000000" font-family="sans-serif" font-size="28" font-style="italic" lengthAdjust="spacing" textLength="372" x="1695" y="2276.4503">Set&lt;Sewer&gt; observe(UUID)</text><ellipse cx="1677" cy="2301.8448" fill="#84BE84" rx="6" ry="6" style="stroke:#038048;stroke-width:2.0;"/><text fill="#000000" font-family="sans-serif" font-size="28" font-style="italic" lengthAdjust="spacing" textLength="622" x="1695" y="2309.4269">void indicate(UUID, KeyPerformanceIndicator)</text></g><!--class Sewer--><g id="elem_Sewer"><rect codeLine="71" fill="#F1F1F1" height="194.9297" id="Sewer" rx="5" ry="5" style="stroke:#181818;stroke-width:1.0;" width="512" x="1072" y="2144.88"/><ellipse cx="1278.5" cy="2176.88" fill="#ADD1B2" rx="22" ry="22" style="stroke:#181818;stroke-width:2.0;"/><path d="M1284.4463,2188.1661 Q1283.2842,2188.7638 1282.0059,2189.0626 Q1280.7275,2189.3614 1279.3164,2189.3614 Q1274.3027,2189.3614 1271.6631,2186.0577 Q1269.0234,2182.754 1269.0234,2176.5118 Q1269.0234,2170.253 1271.6631,2166.9493 Q1274.3027,2163.6456 1279.3164,2163.6456 Q1280.7275,2163.6456 1282.0225,2163.9445 Q1283.3174,2164.2433 1284.4463,2164.8409 L1284.4463,2170.2863 Q1283.1846,2169.1241 1281.9976,2168.5846 Q1280.8105,2168.045 1279.5488,2168.045 Q1276.8594,2168.045 1275.4897,2170.1783 Q1274.1201,2172.3116 1274.1201,2176.5118 Q1274.1201,2180.6954 1275.4897,2182.8287 Q1276.8594,2184.962 1279.5488,2184.962 Q1280.8105,2184.962 1281.9976,2184.4225 Q1283.1846,2183.8829 1284.4463,2182.7208 Z " fill="#000000"/><text fill="#000000" font-family="sans-serif" font-size="28" lengthAdjust="spacing" textLength="82" x="1319.5" y="2187.462">Sewer</text><line style="stroke:#181818;stroke-width:1.0;" x1="1074" x2="1582" y1="2208.88" y2="2208.88"/><line style="stroke:#181818;stroke-width:1.0;" x1="1074" x2="1582" y1="2224.88" y2="2224.88"/><ellipse cx="1094" cy="2252.3683" fill="#84BE84" rx="6" ry="6" style="stroke:#038048;stroke-width:2.0;"/><text fill="#000000" font-family="sans-serif" font-size="28" lengthAdjust="spacing" textLength="166" x="1112" y="2259.9503">UUID getId()</text><ellipse cx="1094" cy="2285.3448" fill="#84BE84" rx="6" ry="6" style="stroke:#038048;stroke-width:2.0;"/><text fill="#000000" font-family="sans-serif" font-size="28" lengthAdjust="spacing" textLength="460" x="1112" y="2292.9269">KeyPerformanceIndicator getKpi()</text><ellipse cx="1094" cy="2318.3214" fill="#84BE84" rx="6" ry="6" style="stroke:#038048;stroke-width:2.0;"/><text fill="#000000" font-family="sans-serif" font-size="28" lengthAdjust="spacing" textLength="300" x="1112" y="2325.9034">Problem getProblem()</text></g><!--class KeyPerformanceIndicator--><g id="elem_KeyPerformanceIndicator"><rect codeLine="76" fill="#F1F1F1" height="194.9297" id="KeyPerformanceIndicator" rx="5" ry="5" style="stroke:#181818;stroke-width:1.0;" width="554" x="1037" y="2537.82"/><ellipse cx="1133.5" cy="2569.82" fill="#ADD1B2" rx="22" ry="22" style="stroke:#181818;stroke-width:2.0;"/><path d="M1139.4463,2581.1061 Q1138.2842,2581.7038 1137.0059,2582.0026 Q1135.7275,2582.3014 1134.3164,2582.3014 Q1129.3027,2582.3014 1126.6631,2578.9977 Q1124.0234,2575.694 1124.0234,2569.4518 Q1124.0234,2563.193 1126.6631,2559.8893 Q1129.3027,2556.5856 1134.3164,2556.5856 Q1135.7275,2556.5856 1137.0225,2556.8845 Q1138.3174,2557.1833 1139.4463,2557.7809 L1139.4463,2563.2263 Q1138.1846,2562.0641 1136.9976,2561.5246 Q1135.8105,2560.985 1134.5488,2560.985 Q1131.8594,2560.985 1130.4897,2563.1183 Q1129.1201,2565.2516 1129.1201,2569.4518 Q1129.1201,2573.6354 1130.4897,2575.7687 Q1131.8594,2577.902 1134.5488,2577.902 Q1135.8105,2577.902 1136.9976,2577.3625 Q1138.1846,2576.8229 1139.4463,2575.6608 Z " fill="#000000"/><text fill="#000000" font-family="sans-serif" font-size="28" lengthAdjust="spacing" textLength="344" x="1174.5" y="2580.402">KeyPerformanceIndicator</text><line style="stroke:#181818;stroke-width:1.0;" x1="1039" x2="1589" y1="2601.82" y2="2601.82"/><line style="stroke:#181818;stroke-width:1.0;" x1="1039" x2="1589" y1="2617.82" y2="2617.82"/><ellipse cx="1059" cy="2645.3083" fill="#84BE84" rx="6" ry="6" style="stroke:#038048;stroke-width:2.0;"/><text fill="#000000" font-family="sans-serif" font-size="28" lengthAdjust="spacing" textLength="502" x="1077" y="2652.8903">String getPumpPowerConsumption()</text><ellipse cx="1059" cy="2678.2848" fill="#84BE84" rx="6" ry="6" style="stroke:#038048;stroke-width:2.0;"/><text fill="#000000" font-family="sans-serif" font-size="28" lengthAdjust="spacing" textLength="218" x="1077" y="2685.8669">String getFlow()</text><ellipse cx="1059" cy="2711.2614" fill="#84BE84" rx="6" ry="6" style="stroke:#038048;stroke-width:2.0;"/><text fill="#000000" font-family="sans-serif" font-size="28" lengthAdjust="spacing" textLength="256" x="1077" y="2718.8434">String getRainfall()</text></g><!--class Problem--><g id="elem_Problem"><rect codeLine="81" fill="#F1F1F1" height="161.9531" id="Problem" rx="5" ry="5" style="stroke:#181818;stroke-width:1.0;" width="492" x="1702" y="2554.3"/><ellipse cx="1882.5" cy="2586.3" fill="#ADD1B2" rx="22" ry="22" style="stroke:#181818;stroke-width:2.0;"/><path d="M1888.4463,2597.5861 Q1887.2842,2598.1838 1886.0059,2598.4826 Q1884.7275,2598.7814 1883.3164,2598.7814 Q1878.3027,2598.7814 1875.6631,2595.4777 Q1873.0234,2592.174 1873.0234,2585.9318 Q1873.0234,2579.673 1875.6631,2576.3693 Q1878.3027,2573.0656 1883.3164,2573.0656 Q1884.7275,2573.0656 1886.0225,2573.3645 Q1887.3174,2573.6633 1888.4463,2574.2609 L1888.4463,2579.7063 Q1887.1846,2578.5441 1885.9976,2578.0046 Q1884.8105,2577.465 1883.5488,2577.465 Q1880.8594,2577.465 1879.4897,2579.5983 Q1878.1201,2581.7316 1878.1201,2585.9318 Q1878.1201,2590.1154 1879.4897,2592.2487 Q1880.8594,2594.382 1883.5488,2594.382 Q1884.8105,2594.382 1885.9976,2593.8425 Q1887.1846,2593.3029 1888.4463,2592.1408 Z " fill="#000000"/><text fill="#000000" font-family="sans-serif" font-size="28" lengthAdjust="spacing" textLength="114" x="1923.5" y="2596.882">Problem</text><line style="stroke:#181818;stroke-width:1.0;" x1="1704" x2="2192" y1="2618.3" y2="2618.3"/><line style="stroke:#181818;stroke-width:1.0;" x1="1704" x2="2192" y1="2634.3" y2="2634.3"/><ellipse cx="1724" cy="2661.7883" fill="#84BE84" rx="6" ry="6" style="stroke:#038048;stroke-width:2.0;"/><text fill="#000000" font-family="sans-serif" font-size="28" lengthAdjust="spacing" textLength="254" x="1742" y="2669.3703">String getReason()</text><ellipse cx="1724" cy="2694.7648" fill="#84BE84" rx="6" ry="6" style="stroke:#038048;stroke-width:2.0;"/><text fill="#000000" font-family="sans-serif" font-size="28" lengthAdjust="spacing" textLength="440" x="1742" y="2702.3469">Number getOverflowIndication()</text></g><!--class SewerIndicationUseCase--><g id="elem_SewerIndicationUseCase"><rect codeLine="85" fill="#F1F1F1" height="128.9766" id="SewerIndicationUseCase" rx="5" ry="5" style="stroke:#181818;stroke-width:1.0;" width="398" x="1999" y="1031.96"/><ellipse cx="2029" cy="1063.96" fill="#ADD1B2" rx="22" ry="22" style="stroke:#181818;stroke-width:2.0;"/><path d="M2034.9463,1075.2461 Q2033.7842,1075.8438 2032.5059,1076.1426 Q2031.2275,1076.4414 2029.8164,1076.4414 Q2024.8027,1076.4414 2022.1631,1073.1377 Q2019.5234,1069.834 2019.5234,1063.5918 Q2019.5234,1057.333 2022.1631,1054.0293 Q2024.8027,1050.7256 2029.8164,1050.7256 Q2031.2275,1050.7256 2032.5225,1051.0245 Q2033.8174,1051.3233 2034.9463,1051.9209 L2034.9463,1057.3663 Q2033.6846,1056.2041 2032.4976,1055.6646 Q2031.3105,1055.125 2030.0488,1055.125 Q2027.3594,1055.125 2025.9897,1057.2583 Q2024.6201,1059.3916 2024.6201,1063.5918 Q2024.6201,1067.7754 2025.9897,1069.9087 Q2027.3594,1072.042 2030.0488,1072.042 Q2031.3105,1072.042 2032.4976,1071.5025 Q2033.6846,1070.9629 2034.9463,1069.8008 Z " fill="#000000"/><text fill="#000000" font-family="sans-serif" font-size="28" lengthAdjust="spacing" textLength="334" x="2057" y="1074.542">SewerIndicationUseCase</text><line style="stroke:#181818;stroke-width:1.0;" x1="2001" x2="2395" y1="1095.96" y2="1095.96"/><line style="stroke:#181818;stroke-width:1.0;" x1="2001" x2="2395" y1="1111.96" y2="1111.96"/><ellipse cx="2021" cy="1139.4483" fill="#84BE84" rx="6" ry="6" style="stroke:#038048;stroke-width:2.0;"/><text fill="#000000" font-family="sans-serif" font-size="28" lengthAdjust="spacing" textLength="240" x="2039" y="1147.0303">void serve(String)</text></g><!--class SewerObservationUseCase--><g id="elem_SewerObservationUseCase"><rect codeLine="88" fill="#F1F1F1" height="128.9766" id="SewerObservationUseCase" rx="5" ry="5" style="stroke:#181818;stroke-width:1.0;" width="428" x="994" y="1031.96"/><ellipse cx="1024" cy="1063.96" fill="#ADD1B2" rx="22" ry="22" style="stroke:#181818;stroke-width:2.0;"/><path d="M1029.9463,1075.2461 Q1028.7842,1075.8438 1027.5059,1076.1426 Q1026.2275,1076.4414 1024.8164,1076.4414 Q1019.8027,1076.4414 1017.1631,1073.1377 Q1014.5234,1069.834 1014.5234,1063.5918 Q1014.5234,1057.333 1017.1631,1054.0293 Q1019.8027,1050.7256 1024.8164,1050.7256 Q1026.2275,1050.7256 1027.5225,1051.0245 Q1028.8174,1051.3233 1029.9463,1051.9209 L1029.9463,1057.3663 Q1028.6846,1056.2041 1027.4976,1055.6646 Q1026.3105,1055.125 1025.0488,1055.125 Q1022.3594,1055.125 1020.9897,1057.2583 Q1019.6201,1059.3916 1019.6201,1063.5918 Q1019.6201,1067.7754 1020.9897,1069.9087 Q1022.3594,1072.042 1025.0488,1072.042 Q1026.3105,1072.042 1027.4976,1071.5025 Q1028.6846,1070.9629 1029.9463,1069.8008 Z " fill="#000000"/><text fill="#000000" font-family="sans-serif" font-size="28" lengthAdjust="spacing" textLength="364" x="1052" y="1074.542">SewerObservationUseCase</text><line style="stroke:#181818;stroke-width:1.0;" x1="996" x2="1420" y1="1095.96" y2="1095.96"/><line style="stroke:#181818;stroke-width:1.0;" x1="996" x2="1420" y1="1111.96" y2="1111.96"/><ellipse cx="1016" cy="1139.4483" fill="#84BE84" rx="6" ry="6" style="stroke:#038048;stroke-width:2.0;"/><text fill="#000000" font-family="sans-serif" font-size="28" lengthAdjust="spacing" textLength="350" x="1034" y="1147.0303">Set&lt;Sewer&gt; serve(String)</text></g><!--class SewersUseCase--><g id="elem_SewersUseCase"><rect codeLine="91" fill="#F1F1F1" height="161.9531" id="SewersUseCase" rx="5" ry="5" style="stroke:#181818;stroke-width:1.0;" width="430" x="2661" y="2892.74"/><ellipse cx="2761.5" cy="2924.74" fill="#B4A7E5" rx="22" ry="22" style="stroke:#181818;stroke-width:2.0;"/><path d="M2753.3555,2916.2703 L2753.3555,2911.9539 L2768.1143,2911.9539 L2768.1143,2916.2703 L2763.1836,2916.2703 L2763.1836,2932.4236 L2768.1143,2932.4236 L2768.1143,2936.74 L2753.3555,2936.74 L2753.3555,2932.4236 L2758.2861,2932.4236 L2758.2861,2916.2703 Z " fill="#000000"/><text fill="#000000" font-family="sans-serif" font-size="28" font-style="italic" lengthAdjust="spacing" textLength="212" x="2802.5" y="2935.322">SewersUseCase</text><line style="stroke:#181818;stroke-width:1.0;" x1="2663" x2="3089" y1="2956.74" y2="2956.74"/><line style="stroke:#181818;stroke-width:1.0;" x1="2663" x2="3089" y1="2972.74" y2="2972.74"/><ellipse cx="2683" cy="3000.2283" fill="#84BE84" rx="6" ry="6" style="stroke:#038048;stroke-width:2.0;"/><text fill="#000000" font-family="sans-serif" font-size="28" font-style="italic" lengthAdjust="spacing" textLength="378" x="2701" y="3007.8103">Set&lt;Object&gt; observe(UUID)</text><ellipse cx="2683" cy="3033.2048" fill="#84BE84" rx="6" ry="6" style="stroke:#038048;stroke-width:2.0;"/><text fill="#000000" font-family="sans-serif" font-size="28" font-style="italic" lengthAdjust="spacing" textLength="366" x="2701" y="3040.7869">void indicate(UUID, Object)</text></g><!--class SewersUseCaseBridge--><g id="elem_SewersUseCaseBridge"><rect codeLine="95" fill="#F1F1F1" height="161.9531" id="SewersUseCaseBridge" rx="5" ry="5" style="stroke:#181818;stroke-width:1.0;" width="674" x="2539" y="2554.3"/><ellipse cx="2717.5" cy="2586.3" fill="#ADD1B2" rx="22" ry="22" style="stroke:#181818;stroke-width:2.0;"/><path d="M2723.4463,2597.5861 Q2722.2842,2598.1838 2721.0059,2598.4826 Q2719.7275,2598.7814 2718.3164,2598.7814 Q2713.3027,2598.7814 2710.6631,2595.4777 Q2708.0234,2592.174 2708.0234,2585.9318 Q2708.0234,2579.673 2710.6631,2576.3693 Q2713.3027,2573.0656 2718.3164,2573.0656 Q2719.7275,2573.0656 2721.0225,2573.3645 Q2722.3174,2573.6633 2723.4463,2574.2609 L2723.4463,2579.7063 Q2722.1846,2578.5441 2720.9976,2578.0046 Q2719.8105,2577.465 2718.5488,2577.465 Q2715.8594,2577.465 2714.4897,2579.5983 Q2713.1201,2581.7316 2713.1201,2585.9318 Q2713.1201,2590.1154 2714.4897,2592.2487 Q2715.8594,2594.382 2718.5488,2594.382 Q2719.8105,2594.382 2720.9976,2593.8425 Q2722.1846,2593.3029 2723.4463,2592.1408 Z " fill="#000000"/><text fill="#000000" font-family="sans-serif" font-size="28" lengthAdjust="spacing" textLength="300" x="2758.5" y="2596.882">SewersUseCaseBridge</text><line style="stroke:#181818;stroke-width:1.0;" x1="2541" x2="3211" y1="2618.3" y2="2618.3"/><line style="stroke:#181818;stroke-width:1.0;" x1="2541" x2="3211" y1="2634.3" y2="2634.3"/><ellipse cx="2561" cy="2661.7883" fill="#84BE84" rx="6" ry="6" style="stroke:#038048;stroke-width:2.0;"/><text fill="#000000" font-family="sans-serif" font-size="28" lengthAdjust="spacing" textLength="372" x="2579" y="2669.3703">Set&lt;Sewer&gt; observe(UUID)</text><ellipse cx="2561" cy="2694.7648" fill="#84BE84" rx="6" ry="6" style="stroke:#038048;stroke-width:2.0;"/><text fill="#000000" font-family="sans-serif" font-size="28" lengthAdjust="spacing" textLength="622" x="2579" y="2702.3469">void indicate(UUID, KeyPerformanceIndicator)</text></g><!--class JSONRainfallIndicationDriver--><g id="elem_JSONRainfallIndicationDriver"><rect codeLine="99" fill="#F1F1F1" height="128.9766" id="JSONRainfallIndicationDriver" rx="5" ry="5" style="stroke:#181818;stroke-width:1.0;" width="450" x="3987" y="254"/><ellipse cx="4017" cy="286" fill="#ADD1B2" rx="22" ry="22" style="stroke:#181818;stroke-width:2.0;"/><path d="M4022.9463,297.2861 Q4021.7842,297.8838 4020.5059,298.1826 Q4019.2275,298.4814 4017.8164,298.4814 Q4012.8027,298.4814 4010.1631,295.1777 Q4007.5234,291.874 4007.5234,285.6318 Q4007.5234,279.373 4010.1631,276.0693 Q4012.8027,272.7656 4017.8164,272.7656 Q4019.2275,272.7656 4020.5225,273.0645 Q4021.8174,273.3633 4022.9463,273.9609 L4022.9463,279.4063 Q4021.6846,278.2441 4020.4976,277.7046 Q4019.3105,277.165 4018.0488,277.165 Q4015.3594,277.165 4013.9897,279.2983 Q4012.6201,281.4316 4012.6201,285.6318 Q4012.6201,289.8154 4013.9897,291.9487 Q4015.3594,294.082 4018.0488,294.082 Q4019.3105,294.082 4020.4976,293.5425 Q4021.6846,293.0029 4022.9463,291.8408 Z " fill="#000000"/><text fill="#000000" font-family="sans-serif" font-size="28" lengthAdjust="spacing" textLength="386" x="4045" y="296.582">JSONRainfallIndicationDriver</text><line style="stroke:#181818;stroke-width:1.0;" x1="3989" x2="4435" y1="318" y2="318"/><line style="stroke:#181818;stroke-width:1.0;" x1="3989" x2="4435" y1="334" y2="334"/><ellipse cx="4009" cy="361.4883" fill="#84BE84" rx="6" ry="6" style="stroke:#038048;stroke-width:2.0;"/><text fill="#000000" font-family="sans-serif" font-size="28" lengthAdjust="spacing" textLength="240" x="4027" y="369.0703">void serve(String)</text></g><!--class PdfPumpPowerConsumptionIndicationDriver--><g id="elem_PdfPumpPowerConsumptionIndicationDriver"><rect codeLine="102" fill="#F1F1F1" height="128.9766" id="PdfPumpPowerConsumptionIndicationDriver" rx="5" ry="5" style="stroke:#181818;stroke-width:1.0;" width="674" x="3243" y="254"/><ellipse cx="3273" cy="286" fill="#ADD1B2" rx="22" ry="22" style="stroke:#181818;stroke-width:2.0;"/><path d="M3278.9463,297.2861 Q3277.7842,297.8838 3276.5059,298.1826 Q3275.2275,298.4814 3273.8164,298.4814 Q3268.8027,298.4814 3266.1631,295.1777 Q3263.5234,291.874 3263.5234,285.6318 Q3263.5234,279.373 3266.1631,276.0693 Q3268.8027,272.7656 3273.8164,272.7656 Q3275.2275,272.7656 3276.5225,273.0645 Q3277.8174,273.3633 3278.9463,273.9609 L3278.9463,279.4063 Q3277.6846,278.2441 3276.4976,277.7046 Q3275.3105,277.165 3274.0488,277.165 Q3271.3594,277.165 3269.9897,279.2983 Q3268.6201,281.4316 3268.6201,285.6318 Q3268.6201,289.8154 3269.9897,291.9487 Q3271.3594,294.082 3274.0488,294.082 Q3275.3105,294.082 3276.4976,293.5425 Q3277.6846,293.0029 3278.9463,291.8408 Z " fill="#000000"/><text fill="#000000" font-family="sans-serif" font-size="28" lengthAdjust="spacing" textLength="610" x="3301" y="296.582">PdfPumpPowerConsumptionIndicationDriver</text><line style="stroke:#181818;stroke-width:1.0;" x1="3245" x2="3915" y1="318" y2="318"/><line style="stroke:#181818;stroke-width:1.0;" x1="3245" x2="3915" y1="334" y2="334"/><ellipse cx="3265" cy="361.4883" fill="#84BE84" rx="6" ry="6" style="stroke:#038048;stroke-width:2.0;"/><text fill="#000000" font-family="sans-serif" font-size="28" lengthAdjust="spacing" textLength="240" x="3283" y="369.0703">void serve(String)</text></g><!--class XMLRainfallIndicationDriver--><g id="elem_XMLRainfallIndicationDriver"><rect codeLine="105" fill="#F1F1F1" height="128.9766" id="XMLRainfallIndicationDriver" rx="5" ry="5" style="stroke:#181818;stroke-width:1.0;" width="440" x="2732" y="254"/><ellipse cx="2762" cy="286" fill="#ADD1B2" rx="22" ry="22" style="stroke:#181818;stroke-width:2.0;"/><path d="M2767.9463,297.2861 Q2766.7842,297.8838 2765.5059,298.1826 Q2764.2275,298.4814 2762.8164,298.4814 Q2757.8027,298.4814 2755.1631,295.1777 Q2752.5234,291.874 2752.5234,285.6318 Q2752.5234,279.373 2755.1631,276.0693 Q2757.8027,272.7656 2762.8164,272.7656 Q2764.2275,272.7656 2765.5225,273.0645 Q2766.8174,273.3633 2767.9463,273.9609 L2767.9463,279.4063 Q2766.6846,278.2441 2765.4976,277.7046 Q2764.3105,277.165 2763.0488,277.165 Q2760.3594,277.165 2758.9897,279.2983 Q2757.6201,281.4316 2757.6201,285.6318 Q2757.6201,289.8154 2758.9897,291.9487 Q2760.3594,294.082 2763.0488,294.082 Q2764.3105,294.082 2765.4976,293.5425 Q2766.6846,293.0029 2767.9463,291.8408 Z " fill="#000000"/><text fill="#000000" font-family="sans-serif" font-size="28" lengthAdjust="spacing" textLength="376" x="2790" y="296.582">XMLRainfallIndicationDriver</text><line style="stroke:#181818;stroke-width:1.0;" x1="2734" x2="3170" y1="318" y2="318"/><line style="stroke:#181818;stroke-width:1.0;" x1="2734" x2="3170" y1="334" y2="334"/><ellipse cx="2754" cy="361.4883" fill="#84BE84" rx="6" ry="6" style="stroke:#038048;stroke-width:2.0;"/><text fill="#000000" font-family="sans-serif" font-size="28" lengthAdjust="spacing" textLength="240" x="2772" y="369.0703">void serve(String)</text></g><!--class DynamoSewersDriver--><g id="elem_DynamoSewersDriver"><rect codeLine="108" fill="#F1F1F1" height="161.9531" id="DynamoSewersDriver" rx="5" ry="5" style="stroke:#181818;stroke-width:1.0;" width="430" x="3513" y="4066.6"/><ellipse cx="3577.2" cy="4098.6" fill="#ADD1B2" rx="22" ry="22" style="stroke:#181818;stroke-width:2.0;"/><path d="M3583.1463,4109.8861 Q3581.9842,4110.4838 3580.7059,4110.7826 Q3579.4275,4111.0814 3578.0164,4111.0814 Q3573.0027,4111.0814 3570.3631,4107.7777 Q3567.7234,4104.474 3567.7234,4098.2318 Q3567.7234,4091.973 3570.3631,4088.6693 Q3573.0027,4085.3656 3578.0164,4085.3656 Q3579.4275,4085.3656 3580.7225,4085.6645 Q3582.0174,4085.9633 3583.1463,4086.5609 L3583.1463,4092.0063 Q3581.8846,4090.8441 3580.6976,4090.3046 Q3579.5105,4089.765 3578.2488,4089.765 Q3575.5594,4089.765 3574.1897,4091.8983 Q3572.8201,4094.0316 3572.8201,4098.2318 Q3572.8201,4102.4154 3574.1897,4104.5487 Q3575.5594,4106.682 3578.2488,4106.682 Q3579.5105,4106.682 3580.6976,4106.1425 Q3581.8846,4105.6029 3583.1463,4104.4408 Z " fill="#000000"/><text fill="#000000" font-family="sans-serif" font-size="28" lengthAdjust="spacing" textLength="290" x="3612.8" y="4109.182">DynamoSewersDriver</text><line style="stroke:#181818;stroke-width:1.0;" x1="3515" x2="3941" y1="4130.6" y2="4130.6"/><line style="stroke:#181818;stroke-width:1.0;" x1="3515" x2="3941" y1="4146.6" y2="4146.6"/><ellipse cx="3535" cy="4174.0883" fill="#84BE84" rx="6" ry="6" style="stroke:#038048;stroke-width:2.0;"/><text fill="#000000" font-family="sans-serif" font-size="28" lengthAdjust="spacing" textLength="378" x="3553" y="4181.6703">Set&lt;Object&gt; observe(UUID)</text><ellipse cx="3535" cy="4207.0648" fill="#84BE84" rx="6" ry="6" style="stroke:#038048;stroke-width:2.0;"/><text fill="#000000" font-family="sans-serif" font-size="28" lengthAdjust="spacing" textLength="366" x="3553" y="4214.6469">void indicate(UUID, Object)</text></g><!--class S3SewersDriver--><g id="elem_S3SewersDriver"><rect codeLine="112" fill="#F1F1F1" height="161.9531" id="S3SewersDriver" rx="5" ry="5" style="stroke:#181818;stroke-width:1.0;" width="430" x="2973" y="4066.6"/><ellipse cx="3073.5" cy="4098.6" fill="#ADD1B2" rx="22" ry="22" style="stroke:#181818;stroke-width:2.0;"/><path d="M3079.4463,4109.8861 Q3078.2842,4110.4838 3077.0059,4110.7826 Q3075.7275,4111.0814 3074.3164,4111.0814 Q3069.3027,4111.0814 3066.6631,4107.7777 Q3064.0234,4104.474 3064.0234,4098.2318 Q3064.0234,4091.973 3066.6631,4088.6693 Q3069.3027,4085.3656 3074.3164,4085.3656 Q3075.7275,4085.3656 3077.0225,4085.6645 Q3078.3174,4085.9633 3079.4463,4086.5609 L3079.4463,4092.0063 Q3078.1846,4090.8441 3076.9976,4090.3046 Q3075.8105,4089.765 3074.5488,4089.765 Q3071.8594,4089.765 3070.4897,4091.8983 Q3069.1201,4094.0316 3069.1201,4098.2318 Q3069.1201,4102.4154 3070.4897,4104.5487 Q3071.8594,4106.682 3074.5488,4106.682 Q3075.8105,4106.682 3076.9976,4106.1425 Q3078.1846,4105.6029 3079.4463,4104.4408 Z " fill="#000000"/><text fill="#000000" font-family="sans-serif" font-size="28" lengthAdjust="spacing" textLength="212" x="3114.5" y="4109.182">S3SewersDriver</text><line style="stroke:#181818;stroke-width:1.0;" x1="2975" x2="3401" y1="4130.6" y2="4130.6"/><line style="stroke:#181818;stroke-width:1.0;" x1="2975" x2="3401" y1="4146.6" y2="4146.6"/><ellipse cx="2995" cy="4174.0883" fill="#84BE84" rx="6" ry="6" style="stroke:#038048;stroke-width:2.0;"/><text fill="#000000" font-family="sans-serif" font-size="28" lengthAdjust="spacing" textLength="378" x="3013" y="4181.6703">Set&lt;Object&gt; observe(UUID)</text><ellipse cx="2995" cy="4207.0648" fill="#84BE84" rx="6" ry="6" style="stroke:#038048;stroke-width:2.0;"/><text fill="#000000" font-family="sans-serif" font-size="28" lengthAdjust="spacing" textLength="366" x="3013" y="4214.6469">void indicate(UUID, Object)</text></g><!--class FileSewersDriver--><g id="elem_FileSewersDriver"><rect codeLine="116" fill="#F1F1F1" height="161.9531" id="FileSewersDriver" rx="5" ry="5" style="stroke:#181818;stroke-width:1.0;" width="430" x="2385" y="4066.6"/><ellipse cx="2478.5" cy="4098.6" fill="#ADD1B2" rx="22" ry="22" style="stroke:#181818;stroke-width:2.0;"/><path d="M2484.4463,4109.8861 Q2483.2842,4110.4838 2482.0059,4110.7826 Q2480.7275,4111.0814 2479.3164,4111.0814 Q2474.3027,4111.0814 2471.6631,4107.7777 Q2469.0234,4104.474 2469.0234,4098.2318 Q2469.0234,4091.973 2471.6631,4088.6693 Q2474.3027,4085.3656 2479.3164,4085.3656 Q2480.7275,4085.3656 2482.0225,4085.6645 Q2483.3174,4085.9633 2484.4463,4086.5609 L2484.4463,4092.0063 Q2483.1846,4090.8441 2481.9976,4090.3046 Q2480.8105,4089.765 2479.5488,4089.765 Q2476.8594,4089.765 2475.4897,4091.8983 Q2474.1201,4094.0316 2474.1201,4098.2318 Q2474.1201,4102.4154 2475.4897,4104.5487 Q2476.8594,4106.682 2479.5488,4106.682 Q2480.8105,4106.682 2481.9976,4106.1425 Q2483.1846,4105.6029 2484.4463,4104.4408 Z " fill="#000000"/><text fill="#000000" font-family="sans-serif" font-size="28" lengthAdjust="spacing" textLength="226" x="2519.5" y="4109.182">FileSewersDriver</text><line style="stroke:#181818;stroke-width:1.0;" x1="2387" x2="2813" y1="4130.6" y2="4130.6"/><line style="stroke:#181818;stroke-width:1.0;" x1="2387" x2="2813" y1="4146.6" y2="4146.6"/><ellipse cx="2407" cy="4174.0883" fill="#84BE84" rx="6" ry="6" style="stroke:#038048;stroke-width:2.0;"/><text fill="#000000" font-family="sans-serif" font-size="28" lengthAdjust="spacing" textLength="378" x="2425" y="4181.6703">Set&lt;Object&gt; observe(UUID)</text><ellipse cx="2407" cy="4207.0648" fill="#84BE84" rx="6" ry="6" style="stroke:#038048;stroke-width:2.0;"/><text fill="#000000" font-family="sans-serif" font-size="28" lengthAdjust="spacing" textLength="366" x="2425" y="4214.6469">void indicate(UUID, Object)</text></g><!--class PanacheSewersDriver--><g id="elem_PanacheSewersDriver"><rect codeLine="120" fill="#F1F1F1" height="161.9531" id="PanacheSewersDriver" rx="5" ry="5" style="stroke:#181818;stroke-width:1.0;" width="430" x="1845" y="4066.6"/><ellipse cx="1908.3" cy="4098.6" fill="#ADD1B2" rx="22" ry="22" style="stroke:#181818;stroke-width:2.0;"/><path d="M1914.2463,4109.8861 Q1913.0842,4110.4838 1911.8059,4110.7826 Q1910.5275,4111.0814 1909.1164,4111.0814 Q1904.1027,4111.0814 1901.4631,4107.7777 Q1898.8234,4104.474 1898.8234,4098.2318 Q1898.8234,4091.973 1901.4631,4088.6693 Q1904.1027,4085.3656 1909.1164,4085.3656 Q1910.5275,4085.3656 1911.8225,4085.6645 Q1913.1174,4085.9633 1914.2463,4086.5609 L1914.2463,4092.0063 Q1912.9846,4090.8441 1911.7976,4090.3046 Q1910.6105,4089.765 1909.3488,4089.765 Q1906.6594,4089.765 1905.2897,4091.8983 Q1903.9201,4094.0316 1903.9201,4098.2318 Q1903.9201,4102.4154 1905.2897,4104.5487 Q1906.6594,4106.682 1909.3488,4106.682 Q1910.6105,4106.682 1911.7976,4106.1425 Q1912.9846,4105.6029 1914.2463,4104.4408 Z " fill="#000000"/><text fill="#000000" font-family="sans-serif" font-size="28" lengthAdjust="spacing" textLength="292" x="1943.7" y="4109.182">PanacheSewersDriver</text><line style="stroke:#181818;stroke-width:1.0;" x1="1847" x2="2273" y1="4130.6" y2="4130.6"/><line style="stroke:#181818;stroke-width:1.0;" x1="1847" x2="2273" y1="4146.6" y2="4146.6"/><ellipse cx="1867" cy="4174.0883" fill="#84BE84" rx="6" ry="6" style="stroke:#038048;stroke-width:2.0;"/><text fill="#000000" font-family="sans-serif" font-size="28" lengthAdjust="spacing" textLength="378" x="1885" y="4181.6703">Set&lt;Object&gt; observe(UUID)</text><ellipse cx="1867" cy="4207.0648" fill="#84BE84" rx="6" ry="6" style="stroke:#038048;stroke-width:2.0;"/><text fill="#000000" font-family="sans-serif" font-size="28" lengthAdjust="spacing" textLength="366" x="1885" y="4214.6469">void indicate(UUID, Object)</text></g><!--class FlowIndicationResourceDriver--><g id="elem_FlowIndicationResourceDriver"><rect codeLine="124" fill="#F1F1F1" height="128.9766" id="FlowIndicationResourceDriver" rx="5" ry="5" style="stroke:#181818;stroke-width:1.0;" width="472" x="2100" y="254"/><ellipse cx="2130" cy="286" fill="#ADD1B2" rx="22" ry="22" style="stroke:#181818;stroke-width:2.0;"/><path d="M2135.9463,297.2861 Q2134.7842,297.8838 2133.5059,298.1826 Q2132.2275,298.4814 2130.8164,298.4814 Q2125.8027,298.4814 2123.1631,295.1777 Q2120.5234,291.874 2120.5234,285.6318 Q2120.5234,279.373 2123.1631,276.0693 Q2125.8027,272.7656 2130.8164,272.7656 Q2132.2275,272.7656 2133.5225,273.0645 Q2134.8174,273.3633 2135.9463,273.9609 L2135.9463,279.4063 Q2134.6846,278.2441 2133.4976,277.7046 Q2132.3105,277.165 2131.0488,277.165 Q2128.3594,277.165 2126.9897,279.2983 Q2125.6201,281.4316 2125.6201,285.6318 Q2125.6201,289.8154 2126.9897,291.9487 Q2128.3594,294.082 2131.0488,294.082 Q2132.3105,294.082 2133.4976,293.5425 Q2134.6846,293.0029 2135.9463,291.8408 Z " fill="#000000"/><text fill="#000000" font-family="sans-serif" font-size="28" lengthAdjust="spacing" textLength="408" x="2158" y="296.582">FlowIndicationResourceDriver</text><line style="stroke:#181818;stroke-width:1.0;" x1="2102" x2="2570" y1="318" y2="318"/><line style="stroke:#181818;stroke-width:1.0;" x1="2102" x2="2570" y1="334" y2="334"/><ellipse cx="2122" cy="361.4883" fill="#84BE84" rx="6" ry="6" style="stroke:#038048;stroke-width:2.0;"/><text fill="#000000" font-family="sans-serif" font-size="28" lengthAdjust="spacing" textLength="240" x="2140" y="369.0703">void serve(String)</text></g><!--class PumpPowerConsumptionIndicationResourceDriver--><g id="elem_PumpPowerConsumptionIndicationResourceDriver"><rect codeLine="127" fill="#F1F1F1" height="128.9766" id="PumpPowerConsumptionIndicationResourceDriver" rx="5" ry="5" style="stroke:#181818;stroke-width:1.0;" width="756" x="1274" y="254"/><ellipse cx="1304" cy="286" fill="#ADD1B2" rx="22" ry="22" style="stroke:#181818;stroke-width:2.0;"/><path d="M1309.9463,297.2861 Q1308.7842,297.8838 1307.5059,298.1826 Q1306.2275,298.4814 1304.8164,298.4814 Q1299.8027,298.4814 1297.1631,295.1777 Q1294.5234,291.874 1294.5234,285.6318 Q1294.5234,279.373 1297.1631,276.0693 Q1299.8027,272.7656 1304.8164,272.7656 Q1306.2275,272.7656 1307.5225,273.0645 Q1308.8174,273.3633 1309.9463,273.9609 L1309.9463,279.4063 Q1308.6846,278.2441 1307.4976,277.7046 Q1306.3105,277.165 1305.0488,277.165 Q1302.3594,277.165 1300.9897,279.2983 Q1299.6201,281.4316 1299.6201,285.6318 Q1299.6201,289.8154 1300.9897,291.9487 Q1302.3594,294.082 1305.0488,294.082 Q1306.3105,294.082 1307.4976,293.5425 Q1308.6846,293.0029 1309.9463,291.8408 Z " fill="#000000"/><text fill="#000000" font-family="sans-serif" font-size="28" lengthAdjust="spacing" textLength="692" x="1332" y="296.582">PumpPowerConsumptionIndicationResourceDriver</text><line style="stroke:#181818;stroke-width:1.0;" x1="1276" x2="2028" y1="318" y2="318"/><line style="stroke:#181818;stroke-width:1.0;" x1="1276" x2="2028" y1="334" y2="334"/><ellipse cx="1296" cy="361.4883" fill="#84BE84" rx="6" ry="6" style="stroke:#038048;stroke-width:2.0;"/><text fill="#000000" font-family="sans-serif" font-size="28" lengthAdjust="spacing" textLength="240" x="1314" y="369.0703">void serve(String)</text></g><!--class RainfallIndicationResourceDriver--><g id="elem_RainfallIndicationResourceDriver"><rect codeLine="130" fill="#F1F1F1" height="128.9766" id="RainfallIndicationResourceDriver" rx="5" ry="5" style="stroke:#181818;stroke-width:1.0;" width="510" x="693" y="254"/><ellipse cx="723" cy="286" fill="#ADD1B2" rx="22" ry="22" style="stroke:#181818;stroke-width:2.0;"/><path d="M728.9463,297.2861 Q727.7842,297.8838 726.5059,298.1826 Q725.2275,298.4814 723.8164,298.4814 Q718.8027,298.4814 716.1631,295.1777 Q713.5234,291.874 713.5234,285.6318 Q713.5234,279.373 716.1631,276.0693 Q718.8027,272.7656 723.8164,272.7656 Q725.2275,272.7656 726.5225,273.0645 Q727.8174,273.3633 728.9463,273.9609 L728.9463,279.4063 Q727.6846,278.2441 726.4976,277.7046 Q725.3105,277.165 724.0488,277.165 Q721.3594,277.165 719.9897,279.2983 Q718.6201,281.4316 718.6201,285.6318 Q718.6201,289.8154 719.9897,291.9487 Q721.3594,294.082 724.0488,294.082 Q725.3105,294.082 726.4976,293.5425 Q727.6846,293.0029 728.9463,291.8408 Z " fill="#000000"/><text fill="#000000" font-family="sans-serif" font-size="28" lengthAdjust="spacing" textLength="446" x="751" y="296.582">RainfallIndicationResourceDriver</text><line style="stroke:#181818;stroke-width:1.0;" x1="695" x2="1201" y1="318" y2="318"/><line style="stroke:#181818;stroke-width:1.0;" x1="695" x2="1201" y1="334" y2="334"/><ellipse cx="715" cy="361.4883" fill="#84BE84" rx="6" ry="6" style="stroke:#038048;stroke-width:2.0;"/><text fill="#000000" font-family="sans-serif" font-size="28" lengthAdjust="spacing" textLength="240" x="733" y="369.0703">void serve(String)</text></g><!--class ObservationResourceDriver--><g id="elem_ObservationResourceDriver"><rect codeLine="133" fill="#F1F1F1" height="128.9766" id="ObservationResourceDriver" rx="5" ry="5" style="stroke:#181818;stroke-width:1.0;" width="438" x="141" y="254"/><ellipse cx="171" cy="286" fill="#ADD1B2" rx="22" ry="22" style="stroke:#181818;stroke-width:2.0;"/><path d="M176.9463,297.2861 Q175.7842,297.8838 174.5059,298.1826 Q173.2275,298.4814 171.8164,298.4814 Q166.8027,298.4814 164.1631,295.1777 Q161.5234,291.874 161.5234,285.6318 Q161.5234,279.373 164.1631,276.0693 Q166.8027,272.7656 171.8164,272.7656 Q173.2275,272.7656 174.5225,273.0645 Q175.8174,273.3633 176.9463,273.9609 L176.9463,279.4063 Q175.6846,278.2441 174.4976,277.7046 Q173.3105,277.165 172.0488,277.165 Q169.3594,277.165 167.9897,279.2983 Q166.6201,281.4316 166.6201,285.6318 Q166.6201,289.8154 167.9897,291.9487 Q169.3594,294.082 172.0488,294.082 Q173.3105,294.082 174.4976,293.5425 Q175.6846,293.0029 176.9463,291.8408 Z " fill="#000000"/><text fill="#000000" font-family="sans-serif" font-size="28" lengthAdjust="spacing" textLength="374" x="199" y="296.582">ObservationResourceDriver</text><line style="stroke:#181818;stroke-width:1.0;" x1="143" x2="577" y1="318" y2="318"/><line style="stroke:#181818;stroke-width:1.0;" x1="143" x2="577" y1="334" y2="334"/><ellipse cx="163" cy="361.4883" fill="#84BE84" rx="6" ry="6" style="stroke:#038048;stroke-width:2.0;"/><text fill="#000000" font-family="sans-serif" font-size="28" lengthAdjust="spacing" textLength="264" x="181" y="369.0703">String serve(String)</text></g><!--class PanacheRepository--><g id="elem_PanacheRepository"><rect codeLine="136" fill="#F1F1F1" height="96" id="PanacheRepository" rx="5" ry="5" style="stroke:#181818;stroke-width:1.0;" width="394" x="1863" y="4522.56"/><ellipse cx="1893" cy="4554.56" fill="#B4A7E5" rx="22" ry="22" style="stroke:#181818;stroke-width:2.0;"/><path d="M1884.8555,4546.0903 L1884.8555,4541.7739 L1899.6143,4541.7739 L1899.6143,4546.0903 L1894.6836,4546.0903 L1894.6836,4562.2436 L1899.6143,4562.2436 L1899.6143,4566.56 L1884.8555,4566.56 L1884.8555,4562.2436 L1889.7861,4562.2436 L1889.7861,4546.0903 Z " fill="#000000"/><text fill="#000000" font-family="sans-serif" font-size="28" font-style="italic" lengthAdjust="spacing" textLength="260" x="1921" y="4565.142">PanacheRepository</text><rect fill="#FFFFFF" height="32.2656" style="stroke:#181818;stroke-width:2.0;stroke-dasharray:2.0,2.0;" width="66" x="2197" y="4516.56"/><text fill="#000000" font-family="sans-serif" font-size="24" font-style="italic" lengthAdjust="spacing" textLength="62" x="2199" y="4541.7631">Entity</text><line style="stroke:#181818;stroke-width:1.0;" x1="1865" x2="2255" y1="4586.56" y2="4586.56"/><line style="stroke:#181818;stroke-width:1.0;" x1="1865" x2="2255" y1="4602.56" y2="4602.56"/></g><!--link SewerIndicationAdapter to SewerIndicationUseCase--><g id="link_SewerIndicationAdapter_SewerIndicationUseCase"><path codeLine="138" d="M2268.5,796.72 C2268.5,862.94 2268.5,952.9 2268.5,1019.14 " fill="none" id="SewerIndicationAdapter-to-SewerIndicationUseCase" style="stroke:#181818;stroke-width:2.0;"/><polygon fill="#181818" points="2268.5,1031.14,2276.5,1013.14,2268.5,1021.14,2260.5,1013.14,2268.5,1031.14" style="stroke:#181818;stroke-width:2.0;"/></g><!--link SewerObservationAdapter to SewerObservationUseCase--><g id="link_SewerObservationAdapter_SewerObservationUseCase"><path codeLine="139" d="M1177.5,796.72 C1177.5,862.94 1177.5,952.9 1177.5,1019.14 " fill="none" id="SewerObservationAdapter-to-SewerObservationUseCase" style="stroke:#181818;stroke-width:2.0;"/><polygon fill="#181818" points="1177.5,1031.14,1185.5,1013.14,1177.5,1021.14,1169.5,1013.14,1177.5,1031.14" style="stroke:#181818;stroke-width:2.0;"/></g><!--reverse link SewersUseCase to SewersAdapterBridge--><g id="link_SewersUseCase_SewersAdapterBridge"><path codeLine="140" d="M2876,3091.4 C2876,3150.32 2876,3193.48 2876,3252.32 " fill="none" id="SewersUseCase-backto-SewersAdapterBridge" style="stroke:#181818;stroke-width:2.0;stroke-dasharray:7.0,7.0;"/><polygon fill="none" points="2876,3055.4,2864,3091.4,2888,3091.4,2876,3055.4" style="stroke:#181818;stroke-width:2.0;"/></g><!--link SewersAdapterBridge to SewersAdapter--><g id="link_SewersAdapterBridge_SewersAdapter"><path codeLine="141" d="M2876,3415.22 C2876,3452.64 2876,3484.88 2876,3522.26 " fill="none" id="SewersAdapterBridge-to-SewersAdapter" style="stroke:#181818;stroke-width:2.0;"/><polygon fill="#181818" points="2876,3534.26,2884,3516.26,2876,3524.26,2868,3516.26,2876,3534.26" style="stroke:#181818;stroke-width:2.0;"/></g><!--link SewerOverflowIndicationService to SewerOverflowIndicationComponent--><g id="link_SewerOverflowIndicationService_SewerOverflowIndicationComponent"><path codeLine="142" d="M2054.5,1526.84 C2054.5,1563.44 2054.5,1596.9 2054.5,1633.42 " fill="none" id="SewerOverflowIndicationService-to-SewerOverflowIndicationComponent" style="stroke:#181818;stroke-width:2.0;"/><polygon fill="#181818" points="2054.5,1645.42,2062.5,1627.42,2054.5,1635.42,2046.5,1627.42,2054.5,1645.42" style="stroke:#181818;stroke-width:2.0;"/></g><!--link SewerOverflowIndicationComponent to Sewers--><g id="link_SewerOverflowIndicationComponent_Sewers"><path codeLine="143" d="M2018,1775.62 C2018,1872.74 2018,2043.18 2018,2148.9 " fill="none" id="SewerOverflowIndicationComponent-to-Sewers" style="stroke:#181818;stroke-width:2.0;"/><polygon fill="#181818" points="2018,2160.9,2026,2142.9,2018,2150.9,2010,2142.9,2018,2160.9" style="stroke:#181818;stroke-width:2.0;"/></g><!--link SewerObservationService to SewerObservationComponent--><g id="link_SewerObservationService_SewerObservationComponent"><path codeLine="144" d="M1251.5,1526.84 C1251.5,1563.44 1251.5,1596.9 1251.5,1633.42 " fill="none" id="SewerObservationService-to-SewerObservationComponent" style="stroke:#181818;stroke-width:2.0;"/><polygon fill="#181818" points="1251.5,1645.42,1259.5,1627.42,1251.5,1635.42,1243.5,1627.42,1251.5,1645.42" style="stroke:#181818;stroke-width:2.0;"/></g><!--link SewerObservationComponent to Sewers--><g id="link_SewerObservationComponent_Sewers"><path codeLine="145" d="M1525.94,1710.56 C1615,1710.56 1695,1710.56 1695,1710.56 C1695,1710.56 1695,1999.26 1695,2148.42 " fill="none" id="SewerObservationComponent-to-Sewers" style="stroke:#181818;stroke-width:2.0;"/><polygon fill="#181818" points="1695,2160.42,1703,2142.42,1695,2150.42,1687,2142.42,1695,2160.42" style="stroke:#181818;stroke-width:2.0;"/></g><!--link Sewer to Problem--><g id="link_Sewer_Problem"><path codeLine="146" d="M1584.66,2332.56 C1755.22,2332.56 1948,2332.56 1948,2332.56 C1948,2332.56 1948,2451.7 1948,2541.36 " fill="none" id="Sewer-to-Problem" style="stroke:#181818;stroke-width:2.0;"/><polygon fill="#181818" points="1948,2553.36,1956,2535.36,1948,2543.36,1940,2535.36,1948,2553.36" style="stroke:#181818;stroke-width:2.0;"/></g><!--link Sewer to KeyPerformanceIndicator--><g id="link_Sewer_KeyPerformanceIndicator"><path codeLine="147" d="M1328,2340.5 C1328,2400.5 1328,2465 1328,2525.04 " fill="none" id="Sewer-to-KeyPerformanceIndicator" style="stroke:#181818;stroke-width:2.0;"/><polygon fill="#181818" points="1328,2537.04,1336,2519.04,1328,2527.04,1320,2519.04,1328,2537.04" style="stroke:#181818;stroke-width:2.0;"/></g><!--link SewerIndicationUseCase to SewerOverflowIndicationService--><g id="link_SewerIndicationUseCase_SewerOverflowIndicationService"><path codeLine="148" d="M2153.5,1161.7 C2153.5,1227.92 2153.5,1317.88 2153.5,1384.12 " fill="none" id="SewerIndicationUseCase-to-SewerOverflowIndicationService" style="stroke:#181818;stroke-width:2.0;"/><polygon fill="#181818" points="2153.5,1396.12,2161.5,1378.12,2153.5,1386.12,2145.5,1378.12,2153.5,1396.12" style="stroke:#181818;stroke-width:2.0;"/></g><!--link SewerObservationUseCase to SewerObservationService--><g id="link_SewerObservationUseCase_SewerObservationService"><path codeLine="149" d="M1233,1161.7 C1233,1227.92 1233,1317.88 1233,1384.12 " fill="none" id="SewerObservationUseCase-to-SewerObservationService" style="stroke:#181818;stroke-width:2.0;"/><polygon fill="#181818" points="1233,1396.12,1241,1378.12,1233,1386.12,1225,1378.12,1233,1396.12" style="stroke:#181818;stroke-width:2.0;"/></g><!--reverse link Sewers to SewersUseCaseBridge--><g id="link_Sewers_SewersUseCaseBridge"><path codeLine="150" d="M2365.54,2242.56 C2485.56,2242.56 2555.5,2242.56 2555.5,2242.56 C2555.5,2242.56 2555.5,2438.88 2555.5,2553.92 " fill="none" id="Sewers-backto-SewersUseCaseBridge" style="stroke:#181818;stroke-width:2.0;stroke-dasharray:7.0,7.0;"/><polygon fill="none" points="2329.54,2242.56,2365.54,2254.56,2365.54,2230.56,2329.54,2242.56" style="stroke:#181818;stroke-width:2.0;"/></g><!--link SewersUseCaseBridge to SewersUseCase--><g id="link_SewersUseCaseBridge_SewersUseCase"><path codeLine="151" d="M2876,2717.22 C2876,2770.22 2876,2826.98 2876,2879.96 " fill="none" id="SewersUseCaseBridge-to-SewersUseCase" style="stroke:#181818;stroke-width:2.0;"/><polygon fill="#181818" points="2876,2891.96,2884,2873.96,2876,2881.96,2868,2873.96,2876,2891.96" style="stroke:#181818;stroke-width:2.0;"/></g><!--link JSONRainfallIndicationDriver to SewerIndicationAdapter--><g id="link_JSONRainfallIndicationDriver_SewerIndicationAdapter"><path codeLine="152" d="M4212,383.36 C4212,507.08 4212,764.56 4212,764.56 C4212,764.56 3025.42,764.56 2544.34,764.56 " fill="none" id="JSONRainfallIndicationDriver-to-SewerIndicationAdapter" style="stroke:#181818;stroke-width:2.0;"/><polygon fill="#181818" points="2532.34,764.56,2550.34,772.56,2542.34,764.56,2550.34,756.56,2532.34,764.56" style="stroke:#181818;stroke-width:2.0;"/></g><!--link PdfPumpPowerConsumptionIndicationDriver to SewerIndicationAdapter--><g id="link_PdfPumpPowerConsumptionIndicationDriver_SewerIndicationAdapter"><path codeLine="153" d="M3323,383.2 C3323,499.64 3323,732.56 3323,732.56 C3323,732.56 2832.7,732.56 2544.78,732.56 " fill="none" id="PdfPumpPowerConsumptionIndicationDriver-to-SewerIndicationAdapter" style="stroke:#181818;stroke-width:2.0;"/><polygon fill="#181818" points="2532.78,732.56,2550.78,740.56,2542.78,732.56,2550.78,724.56,2532.78,732.56" style="stroke:#181818;stroke-width:2.0;"/></g><!--link XMLRainfallIndicationDriver to SewerIndicationAdapter--><g id="link_XMLRainfallIndicationDriver_SewerIndicationAdapter"><path codeLine="154" d="M2952,383.3 C2952,492.32 2952,700.56 2952,700.56 C2952,700.56 2724.88,700.56 2544.6,700.56 " fill="none" id="XMLRainfallIndicationDriver-to-SewerIndicationAdapter" style="stroke:#181818;stroke-width:2.0;"/><polygon fill="#181818" points="2532.6,700.56,2550.6,708.56,2542.6,700.56,2550.6,692.56,2532.6,700.56" style="stroke:#181818;stroke-width:2.0;"/></g><!--reverse link SewersAdapter to DynamoSewersDriver--><g id="link_SewersAdapter_DynamoSewersDriver"><path codeLine="155" d="M3127.52,3616.56 C3376.1,3616.56 3715,3616.56 3715,3616.56 C3715,3616.56 3715,3916.82 3715,4065.78 " fill="none" id="SewersAdapter-backto-DynamoSewersDriver" style="stroke:#181818;stroke-width:2.0;stroke-dasharray:7.0,7.0;"/><polygon fill="none" points="3091.52,3616.56,3127.52,3628.56,3127.52,3604.56,3091.52,3616.56" style="stroke:#181818;stroke-width:2.0;"/></g><!--reverse link SewersAdapter to S3SewersDriver--><g id="link_SewersAdapter_S3SewersDriver"><path codeLine="156" d="M3032,3733.58 C3032,3833.84 3032,3966.52 3032,4066.42 " fill="none" id="SewersAdapter-backto-S3SewersDriver" style="stroke:#181818;stroke-width:2.0;stroke-dasharray:7.0,7.0;"/><polygon fill="none" points="3032,3697.58,3020,3733.58,3044,3733.58,3032,3697.58" style="stroke:#181818;stroke-width:2.0;"/></g><!--reverse link SewersAdapter to FileSewersDriver--><g id="link_SewersAdapter_FileSewersDriver"><path codeLine="157" d="M2738,3733.58 C2738,3833.84 2738,3966.52 2738,4066.42 " fill="none" id="SewersAdapter-backto-FileSewersDriver" style="stroke:#181818;stroke-width:2.0;stroke-dasharray:7.0,7.0;"/><polygon fill="none" points="2738,3697.58,2726,3733.58,2750,3733.58,2738,3697.58" style="stroke:#181818;stroke-width:2.0;"/></g><!--reverse link SewersAdapter to PanacheSewersDriver--><g id="link_SewersAdapter_PanacheSewersDriver"><path codeLine="158" d="M2624.6,3616.56 C2438.24,3616.56 2234.5,3616.56 2234.5,3616.56 C2234.5,3616.56 2234.5,3916.82 2234.5,4065.78 " fill="none" id="SewersAdapter-backto-PanacheSewersDriver" style="stroke:#181818;stroke-width:2.0;stroke-dasharray:7.0,7.0;"/><polygon fill="none" points="2660.6,3616.56,2624.6,3604.56,2624.6,3628.56,2660.6,3616.56" style="stroke:#181818;stroke-width:2.0;"/></g><!--link FlowIndicationResourceDriver to SewerIndicationAdapter--><g id="link_FlowIndicationResourceDriver_SewerIndicationAdapter"><path codeLine="159" d="M2401.34,383.94 C2401.34,461.26 2401.34,577.14 2401.34,654.34 " fill="none" id="FlowIndicationResourceDriver-to-SewerIndicationAdapter" style="stroke:#181818;stroke-width:2.0;"/><polygon fill="#181818" points="2401.34,666.34,2409.34,648.34,2401.34,656.34,2393.34,648.34,2401.34,666.34" style="stroke:#181818;stroke-width:2.0;"/></g><!--link PumpPowerConsumptionIndicationResourceDriver to SewerIndicationAdapter--><g id="link_PumpPowerConsumptionIndicationResourceDriver_SewerIndicationAdapter"><path codeLine="160" d="M2014.5,383.2 C2014.5,499.64 2014.5,732.56 2014.5,732.56 C2014.5,732.56 2060.78,732.56 2127.72,732.56 " fill="none" id="PumpPowerConsumptionIndicationResourceDriver-to-SewerIndicationAdapter" style="stroke:#181818;stroke-width:2.0;"/><polygon fill="#181818" points="2139.72,732.56,2121.72,724.56,2129.72,732.56,2121.72,740.56,2139.72,732.56" style="stroke:#181818;stroke-width:2.0;"/></g><!--link RainfallIndicationResourceDriver to SewerIndicationAdapter--><g id="link_RainfallIndicationResourceDriver_SewerIndicationAdapter"><path codeLine="161" d="M1071,383.76 C1071,444.78 1071,526.56 1071,526.56 C1071,526.56 2270.66,526.56 2270.66,526.56 C2270.66,526.56 2270.66,594.1 2270.66,654.08 " fill="none" id="RainfallIndicationResourceDriver-to-SewerIndicationAdapter" style="stroke:#181818;stroke-width:2.0;"/><polygon fill="#181818" points="2270.66,666.08,2278.66,648.08,2270.66,656.08,2262.66,648.08,2270.66,666.08" style="stroke:#181818;stroke-width:2.0;"/></g><!--link ObservationResourceDriver to SewerObservationAdapter--><g id="link_ObservationResourceDriver_SewerObservationAdapter"><path codeLine="162" d="M360,383.2 C360,499.64 360,732.56 360,732.56 C360,732.56 692.28,732.56 926.3,732.56 " fill="none" id="ObservationResourceDriver-to-SewerObservationAdapter" style="stroke:#181818;stroke-width:2.0;"/><polygon fill="#181818" points="938.3,732.56,920.3,724.56,928.3,732.56,920.3,740.56,938.3,732.56" style="stroke:#181818;stroke-width:2.0;"/></g><!--link PanacheSewersDriver to PanacheRepository--><g id="link_PanacheSewersDriver_PanacheRepository"><path codeLine="163" d="M2060,4229.14 C2060,4315.8 2060,4437.98 2060,4509.6 " fill="none" id="PanacheSewersDriver-to-PanacheRepository" style="stroke:#181818;stroke-width:2.0;"/><polygon fill="#181818" points="2060,4521.6,2068,4503.6,2060,4511.6,2052,4503.6,2060,4521.6" style="stroke:#181818;stroke-width:2.0;"/></g><!--SRC=[rLXTRzis57tNhz3a5nTRYQ9fXmOe3BH90wJT6YD6WBqDj4JPd2LH9QLuHfh_FahoXxv5IgISlJdAvRddNbvUNfvVGWfNFZHZXcw3254VEHX6Q0xj3LmXPhhGOyXW6no4a4BVz720ebs8J4AZDJ7OccnDnjSXadmrmcoTwL3yY2Wp8JCT16pYXp3OWP2IABK336qH1GUh2TlibbwCpAVd8m9qO1W9Gu2Z-UJ3MzTTlij3BKaSE93k9A403XniysI08y34mpvI0KsM3D577SZfPzO2p7VwRnio99jPS5euSTrBU7cPHqL1X2Cy01GS4IQkxJhBDogIKKKNsLIR114bdWvdu80z8HG6AwGfoExoKXTZsTT88MQMOmHOzDGMNhfafyqbsEFhFI2PvIR48oOtxst41DUv7JF9VENIG_w8YIvx737PJQwr9bpZ5NvoekyoF_delDObNRZOGoBP2RanvWDUO2D1vFoAoNQDe-9OjsNoE21PDRbvy-djnOS1CPSGWRCBe4-KfxRiXbreTP7kPAS33WVjTOyz18ULatU_Nxx_ybaHwprgDt6AM2I8dvfMIqwIPOAYeM-aiDsTuaSCwIPEpmWcuF1NJUvp6teo16kyH3H8Y1FgrssTONkGCTDQ9EHkioWn2Jvb7SSQ_4G2zS3cas6QlpuIx9Xf1gQBYE9WzSfuBX2wI_CpY55b76q0pXWjKFJnRlaFigDPXHXEtiCkv6qi8yVwKYhLE2YWPJpC9xXa4OLsz9odj0zc-l1mU_sgP9Scyv3_rE8tCrjNpkh1rMUAdHLIIp_3h2QpmboSxXrtxtfaUogY1OV2jZnpeHTPkyzguIRctPIlE4SISBUMpcSawFAUeu_-HNOSDGLmEXyAazrv5Wj9JiedDPY9zWYbIMvwnu96hnNQnnGtzn1B_Uim0wxj8tjUicta6zhDEMr-XK1-L-_BYbIAnjBzqir2oo9Bc9ah5DqwqpI41ew9oRSGPpRpxCcHVDl_dEPYQ42mndXUWYRwMKcbzPFIZlrmJZZO5GaO_vtKNnRRoUQ67_tojtk80nTwNZxUVGgiiLvqu93-Kapt2B935DzZdmyioTTg4vkMw-tqhmU6hZWZI-734DIxa1zSXdFhR9i5RYrjiz9zXdEh7mOAXFJECdjNFMSPmK3AKqrJ7-tNFBykxhuV3kYfuAvJhjQWzpjeW-ukvRdZrZKSnHm5lNJJ_UlFFpIbiGMvczPrAYjazIJ7HaoW05K7okRl2nMqgu87A0Ahedl3TsyeuJhv19I1LH6UPm_oePmRn1DG0wyirOMh-Hun4bCRoOLGhwo0DcY1djNQIfGIbN7LJRpQO9IIxOBl9fWRE0OmgmmpZR25ER5bbDbN-JqA2SFyPjrP8Y8Og2px-2KTKsVSxxEXHVHw_NgcUJmrj4XZ_NcBZgw6QW4AnE3dJCSeg9ofR79RCOsnvR3-fQ50pJBEfwCfYBjMjZ76ajWK122la1dZQt8lTQD4X2vbt0MLcVzLJ3tKD4EpDgIb6ROtO4EpfAIZJJIq94EVS3Da6j3I1aH8zq_zu06cZveaIrTqQZRqAqila7gRudHEklqbAVapE7ZIbHUYpanIJ7mwCqaPjUaCLFkeIkSyKIh4fHV8lrDlEZjd2ILAbgkeicBKdPd4MKMS-Wy0]--></g></svg>