<?xml version="1.0" encoding="us-ascii" standalone="no"?><svg xmlns="http://www.w3.org/2000/svg" xmlns:xlink="http://www.w3.org/1999/xlink" contentStyleType="text/css" height="4514px" preserveAspectRatio="none" style="width:6874px;height:4514px;background:#FFFFFF;" version="1.1" viewBox="0 0 6874 4514" width="6874px" zoomAndPan="magnify"><defs/><g><!--cluster drivers--><g id="cluster_drivers"><path d="M17,12 L529,12 A7.5,7.5 0 0 1 534,17 L548,56.9766 L6855,56.9766 A5,5 0 0 1 6860,61.9766 L6860,4249.64 A5,5 0 0 1 6855,4254.64 L17,4254.64 A5,5 0 0 1 12,4249.64 L12,17 A5,5 0 0 1 17,12 " fill="#87CEEB" style="stroke:#000000;stroke-width:3.0;"/><line style="stroke:#000000;stroke-width:3.0;" x1="12" x2="548" y1="56.9766" y2="56.9766"/><text fill="#000000" font-family="sans-serif" font-size="28" font-weight="bold" lengthAdjust="spacing" textLength="510" x="20" y="43.0703">de.company.prototype.sewer.drivers</text></g><!--cluster adapters--><g id="cluster_adapters"><path d="M65,510.96 L191,510.96 A7.5,7.5 0 0 1 196,515.96 L210,555.9366 L4455,555.9366 A5,5 0 0 1 4460,560.9366 L4460,3707.68 A5,5 0 0 1 4455,3712.68 L65,3712.68 A5,5 0 0 1 60,3707.68 L60,515.96 A5,5 0 0 1 65,510.96 " fill="#82FFB4" style="stroke:#000000;stroke-width:3.0;"/><line style="stroke:#000000;stroke-width:3.0;" x1="60" x2="210" y1="555.9366" y2="555.9366"/><text fill="#000000" font-family="sans-serif" font-size="28" font-weight="bold" lengthAdjust="spacing" textLength="124" x="68" y="542.0303">adapters</text></g><!--cluster boundary--><g id="cluster_boundary"><path d="M2437,596.96 L2693,596.96 A7.5,7.5 0 0 1 2698,601.96 L2712,641.9366 L2883,641.9366 A5,5 0 0 1 2888,646.9366 L2888,822.94 A5,5 0 0 1 2883,827.94 L2437,827.94 A5,5 0 0 1 2432,822.94 L2432,601.96 A5,5 0 0 1 2437,596.96 " fill="#00FF00" style="stroke:#000000;stroke-width:3.0;"/><line style="stroke:#000000;stroke-width:3.0;" x1="2432" x2="2712" y1="641.9366" y2="641.9366"/><text fill="#000000" font-family="sans-serif" font-size="28" font-weight="bold" lengthAdjust="spacing" textLength="254" x="2440" y="628.0303">indicate.boundary</text></g><!--cluster boundary--><g id="cluster_boundary"><path d="M635,596.96 L889,596.96 A7.5,7.5 0 0 1 894,601.96 L908,641.9366 L1113,641.9366 A5,5 0 0 1 1118,646.9366 L1118,822.94 A5,5 0 0 1 1113,827.94 L635,827.94 A5,5 0 0 1 630,822.94 L630,601.96 A5,5 0 0 1 635,596.96 " fill="#00FF00" style="stroke:#000000;stroke-width:3.0;"/><line style="stroke:#000000;stroke-width:3.0;" x1="630" x2="908" y1="641.9366" y2="641.9366"/><text fill="#000000" font-family="sans-serif" font-size="28" font-weight="bold" lengthAdjust="spacing" textLength="252" x="638" y="628.0303">observe.boundary</text></g><!--cluster boundary--><g id="cluster_boundary"><path d="M3925,3050.78 L4167,3050.78 A7.5,7.5 0 0 1 4172,3055.78 L4186,3095.7566 L4407,3095.7566 A5,5 0 0 1 4412,3100.7566 L4412,3659.68 A5,5 0 0 1 4407,3664.68 L3925,3664.68 A5,5 0 0 1 3920,3659.68 L3920,3055.78 A5,5 0 0 1 3925,3050.78 " fill="#00FF00" style="stroke:#000000;stroke-width:3.0;"/><line style="stroke:#000000;stroke-width:3.0;" x1="3920" x2="4186" y1="3095.7566" y2="3095.7566"/><text fill="#000000" font-family="sans-serif" font-size="28" font-weight="bold" lengthAdjust="spacing" textLength="240" x="3928" y="3081.8503">sewers.boundary</text></g><!--cluster use_cases--><g id="cluster_use_cases"><path d="M113,875.94 L257,875.94 A7.5,7.5 0 0 1 262,880.94 L276,920.9166 L4407,920.9166 A5,5 0 0 1 4412,925.9166 L4412,2997.78 A5,5 0 0 1 4407,3002.78 L113,3002.78 A5,5 0 0 1 108,2997.78 L108,880.94 A5,5 0 0 1 113,875.94 " fill="#FF9A99" style="stroke:#000000;stroke-width:3.0;"/><line style="stroke:#000000;stroke-width:3.0;" x1="108" x2="276" y1="920.9166" y2="920.9166"/><text fill="#000000" font-family="sans-serif" font-size="28" font-weight="bold" lengthAdjust="spacing" textLength="142" x="116" y="907.0103">use_cases</text></g><!--cluster entities--><g id="cluster_entities"><path d="M161,1240.92 L273,1240.92 A7.5,7.5 0 0 1 278,1245.92 L292,1285.8966 L3819,1285.8966 A5,5 0 0 1 3824,1290.8966 L3824,2723.82 A5,5 0 0 1 3819,2728.82 L161,2728.82 A5,5 0 0 1 156,2723.82 L156,1245.92 A5,5 0 0 1 161,1240.92 " fill="#FCFDB0" style="stroke:#000000;stroke-width:3.0;"/><line style="stroke:#000000;stroke-width:3.0;" x1="156" x2="292" y1="1285.8966" y2="1285.8966"/><text fill="#000000" font-family="sans-serif" font-size="28" font-weight="bold" lengthAdjust="spacing" textLength="110" x="164" y="1271.9903">entities</text></g><!--cluster boundary--><g id="cluster_boundary"><path d="M1465,1326.92 L1721,1326.92 A7.5,7.5 0 0 1 1726,1331.92 L1740,1371.8966 L3771,1371.8966 A5,5 0 0 1 3776,1376.8966 L3776,2348.86 A5,5 0 0 1 3771,2353.86 L1465,2353.86 A5,5 0 0 1 1460,2348.86 L1460,1331.92 A5,5 0 0 1 1465,1326.92 " fill="#00FF00" style="stroke:#000000;stroke-width:3.0;"/><line style="stroke:#000000;stroke-width:3.0;" x1="1460" x2="1740" y1="1371.8966" y2="1371.8966"/><text fill="#000000" font-family="sans-serif" font-size="28" font-weight="bold" lengthAdjust="spacing" textLength="254" x="1468" y="1357.9903">indicate.boundary</text></g><!--cluster control--><g id="cluster_control"><path d="M1513,1575.9 L1617,1575.9 A7.5,7.5 0 0 1 1622,1580.9 L1636,1620.8766 L3723,1620.8766 A5,5 0 0 1 3728,1625.8766 L3728,2300.86 A5,5 0 0 1 3723,2305.86 L1513,2305.86 A5,5 0 0 1 1508,2300.86 L1508,1580.9 A5,5 0 0 1 1513,1575.9 " fill="#FFA500" style="stroke:#000000;stroke-width:3.0;"/><line style="stroke:#000000;stroke-width:3.0;" x1="1508" x2="1636" y1="1620.8766" y2="1620.8766"/><text fill="#000000" font-family="sans-serif" font-size="28" font-weight="bold" lengthAdjust="spacing" textLength="102" x="1516" y="1606.9703">control</text></g><!--cluster boundary--><g id="cluster_boundary"><path d="M773,1326.92 L1027,1326.92 A7.5,7.5 0 0 1 1032,1331.92 L1046,1371.8966 L1399,1371.8966 A5,5 0 0 1 1404,1376.8966 L1404,1849.88 A5,5 0 0 1 1399,1854.88 L773,1854.88 A5,5 0 0 1 768,1849.88 L768,1331.92 A5,5 0 0 1 773,1326.92 " fill="#00FF00" style="stroke:#000000;stroke-width:3.0;"/><line style="stroke:#000000;stroke-width:3.0;" x1="768" x2="1046" y1="1371.8966" y2="1371.8966"/><text fill="#000000" font-family="sans-serif" font-size="28" font-weight="bold" lengthAdjust="spacing" textLength="252" x="776" y="1357.9903">observe.boundary</text></g><!--cluster control--><g id="cluster_control"><path d="M821,1575.9 L925,1575.9 A7.5,7.5 0 0 1 930,1580.9 L944,1620.8766 L1351,1620.8766 A5,5 0 0 1 1356,1625.8766 L1356,1801.88 A5,5 0 0 1 1351,1806.88 L821,1806.88 A5,5 0 0 1 816,1801.88 L816,1580.9 A5,5 0 0 1 821,1575.9 " fill="#FFA500" style="stroke:#000000;stroke-width:3.0;"/><line style="stroke:#000000;stroke-width:3.0;" x1="816" x2="944" y1="1620.8766" y2="1620.8766"/><text fill="#000000" font-family="sans-serif" font-size="28" font-weight="bold" lengthAdjust="spacing" textLength="102" x="824" y="1606.9703">control</text></g><!--cluster sewer--><g id="cluster_sewer"><path d="M209,1902.88 L295,1902.88 A7.5,7.5 0 0 1 300,1907.88 L314,1947.8566 L1407,1947.8566 A5,5 0 0 1 1412,1952.8566 L1412,2675.82 A5,5 0 0 1 1407,2680.82 L209,2680.82 A5,5 0 0 1 204,2675.82 L204,1907.88 A5,5 0 0 1 209,1902.88 " fill="none" style="stroke:#000000;stroke-width:3.0;"/><line style="stroke:#000000;stroke-width:3.0;" x1="204" x2="314" y1="1947.8566" y2="1947.8566"/><text fill="#000000" font-family="sans-serif" font-size="28" font-weight="bold" lengthAdjust="spacing" textLength="84" x="212" y="1933.9503">sewer</text></g><!--cluster boundary--><g id="cluster_boundary"><path d="M257,1988.88 L393,1988.88 A7.5,7.5 0 0 1 398,1993.88 L412,2033.8566 L1359,2033.8566 A5,5 0 0 1 1364,2038.8566 L1364,2348.86 A5,5 0 0 1 1359,2353.86 L257,2353.86 A5,5 0 0 1 252,2348.86 L252,1993.88 A5,5 0 0 1 257,1988.88 " fill="#00FF00" style="stroke:#000000;stroke-width:3.0;"/><line style="stroke:#000000;stroke-width:3.0;" x1="252" x2="412" y1="2033.8566" y2="2033.8566"/><text fill="#000000" font-family="sans-serif" font-size="28" font-weight="bold" lengthAdjust="spacing" textLength="134" x="260" y="2019.9503">boundary</text></g><!--cluster entity--><g id="cluster_entity"><path d="M305,2074.88 L499,2074.88 A7.5,7.5 0 0 1 504,2079.88 L518,2119.8566 L867,2119.8566 A5,5 0 0 1 872,2124.8566 L872,2300.86 A5,5 0 0 1 867,2305.86 L305,2305.86 A5,5 0 0 1 300,2300.86 L300,2079.88 A5,5 0 0 1 305,2074.88 " fill="#FCFDB0" style="stroke:#000000;stroke-width:3.0;"/><line style="stroke:#000000;stroke-width:3.0;" x1="300" x2="518" y1="2119.8566" y2="2119.8566"/><text fill="#000000" font-family="sans-serif" font-size="28" font-weight="bold" lengthAdjust="spacing" textLength="192" x="308" y="2105.9503">control.entity</text></g><!--cluster entity--><g id="cluster_entity"><path d="M305,2434.82 L691,2434.82 A7.5,7.5 0 0 1 696,2439.82 L710,2479.7966 L767,2479.7966 A5,5 0 0 1 772,2484.7966 L772,2627.82 A5,5 0 0 1 767,2632.82 L305,2632.82 A5,5 0 0 1 300,2627.82 L300,2439.82 A5,5 0 0 1 305,2434.82 " fill="#FCFDB0" style="stroke:#000000;stroke-width:3.0;"/><line style="stroke:#000000;stroke-width:3.0;" x1="300" x2="710" y1="2479.7966" y2="2479.7966"/><text fill="#000000" font-family="sans-serif" font-size="28" font-weight="bold" lengthAdjust="spacing" textLength="384" x="308" y="2465.8903">kpi.boundary.control.entity</text></g><!--cluster entity--><g id="cluster_entity"><path d="M825,2434.82 L1285,2434.82 A7.5,7.5 0 0 1 1290,2439.82 L1304,2479.7966 L1305,2479.7966 A5,5 0 0 1 1310,2484.7966 L1310,2627.82 A5,5 0 0 1 1305,2632.82 L825,2632.82 A5,5 0 0 1 820,2627.82 L820,2439.82 A5,5 0 0 1 825,2434.82 " fill="#FCFDB0" style="stroke:#000000;stroke-width:3.0;"/><line style="stroke:#000000;stroke-width:3.0;" x1="820" x2="1304" y1="2479.7966" y2="2479.7966"/><text fill="#000000" font-family="sans-serif" font-size="28" font-weight="bold" lengthAdjust="spacing" textLength="458" x="828" y="2465.8903">problem.boundary.control.entity</text></g><!--cluster boundary--><g id="cluster_boundary"><path d="M2427,961.94 L2683,961.94 A7.5,7.5 0 0 1 2688,966.94 L2702,1006.9166 L2881,1006.9166 A5,5 0 0 1 2886,1011.9166 L2886,1187.92 A5,5 0 0 1 2881,1192.92 L2427,1192.92 A5,5 0 0 1 2422,1187.92 L2422,966.94 A5,5 0 0 1 2427,961.94 " fill="#00FF00" style="stroke:#000000;stroke-width:3.0;"/><line style="stroke:#000000;stroke-width:3.0;" x1="2422" x2="2702" y1="1006.9166" y2="1006.9166"/><text fill="#000000" font-family="sans-serif" font-size="28" font-weight="bold" lengthAdjust="spacing" textLength="254" x="2430" y="993.0103">indicate.boundary</text></g><!--cluster boundary--><g id="cluster_boundary"><path d="M747,961.94 L1001,961.94 A7.5,7.5 0 0 1 1006,966.94 L1020,1006.9166 L1229,1006.9166 A5,5 0 0 1 1234,1011.9166 L1234,1187.92 A5,5 0 0 1 1229,1192.92 L747,1192.92 A5,5 0 0 1 742,1187.92 L742,966.94 A5,5 0 0 1 747,961.94 " fill="#00FF00" style="stroke:#000000;stroke-width:3.0;"/><line style="stroke:#000000;stroke-width:3.0;" x1="742" x2="1020" y1="1006.9166" y2="1006.9166"/><text fill="#000000" font-family="sans-serif" font-size="28" font-weight="bold" lengthAdjust="spacing" textLength="252" x="750" y="993.0103">observe.boundary</text></g><!--cluster boundary--><g id="cluster_boundary"><path d="M3877,2401.86 L4119,2401.86 A7.5,7.5 0 0 1 4124,2406.86 L4138,2446.8366 L4359,2446.8366 A5,5 0 0 1 4364,2451.8366 L4364,2949.78 A5,5 0 0 1 4359,2954.78 L3877,2954.78 A5,5 0 0 1 3872,2949.78 L3872,2406.86 A5,5 0 0 1 3877,2401.86 " fill="#00FF00" style="stroke:#000000;stroke-width:3.0;"/><line style="stroke:#000000;stroke-width:3.0;" x1="3872" x2="4138" y1="2446.8366" y2="2446.8366"/><text fill="#000000" font-family="sans-serif" font-size="28" font-weight="bold" lengthAdjust="spacing" textLength="240" x="3880" y="2432.9303">sewers.boundary</text></g><!--cluster boundary--><g id="cluster_boundary"><path d="M3171,184 L3481,184 A7.5,7.5 0 0 1 3486,189 L3500,228.9766 L4933,228.9766 A5,5 0 0 1 4938,233.9766 L4938,409.96 A5,5 0 0 1 4933,414.96 L3171,414.96 A5,5 0 0 1 3166,409.96 L3166,189 A5,5 0 0 1 3171,184 " fill="#00FF00" style="stroke:#000000;stroke-width:3.0;"/><line style="stroke:#000000;stroke-width:3.0;" x1="3166" x2="3500" y1="228.9766" y2="228.9766"/><text fill="#000000" font-family="sans-serif" font-size="28" font-weight="bold" lengthAdjust="spacing" textLength="308" x="3174" y="215.0703">file.indicate.boundary</text></g><!--cluster persistence--><g id="cluster_persistence"><path d="M4513,3314.74 L4679,3314.74 A7.5,7.5 0 0 1 4684,3319.74 L4698,3359.7166 L6807,3359.7166 A5,5 0 0 1 6812,3364.7166 L6812,4201.64 A5,5 0 0 1 6807,4206.64 L4513,4206.64 A5,5 0 0 1 4508,4201.64 L4508,3319.74 A5,5 0 0 1 4513,3314.74 " fill="#FFFFFF" style="stroke:#000000;stroke-width:3.0;"/><line style="stroke:#000000;stroke-width:3.0;" x1="4508" x2="4698" y1="3359.7166" y2="3359.7166"/><text fill="#000000" font-family="sans-serif" font-size="28" font-weight="bold" lengthAdjust="spacing" textLength="164" x="4516" y="3345.8103">persistence</text></g><!--cluster aws--><g id="cluster_aws"><path d="M5101,3760.68 L5159,3760.68 A7.5,7.5 0 0 1 5164,3765.68 L5178,3805.6566 L6219,3805.6566 A5,5 0 0 1 6224,3810.6566 L6224,4153.64 A5,5 0 0 1 6219,4158.64 L5101,4158.64 A5,5 0 0 1 5096,4153.64 L5096,3765.68 A5,5 0 0 1 5101,3760.68 " fill="#F0A238" style="stroke:#000000;stroke-width:3.0;"/><line style="stroke:#000000;stroke-width:3.0;" x1="5096" x2="5178" y1="3805.6566" y2="3805.6566"/><text fill="#000000" font-family="sans-serif" font-size="28" font-weight="bold" lengthAdjust="spacing" textLength="56" x="5104" y="3791.7503">aws</text></g><!--cluster boundary--><g id="cluster_boundary"><path d="M5689,3846.68 L6051,3846.68 A7.5,7.5 0 0 1 6056,3851.68 L6070,3891.6566 L6171,3891.6566 A5,5 0 0 1 6176,3896.6566 L6176,4105.64 A5,5 0 0 1 6171,4110.64 L5689,4110.64 A5,5 0 0 1 5684,4105.64 L5684,3851.68 A5,5 0 0 1 5689,3846.68 " fill="#00FF00" style="stroke:#000000;stroke-width:3.0;"/><line style="stroke:#000000;stroke-width:3.0;" x1="5684" x2="6070" y1="3891.6566" y2="3891.6566"/><text fill="#000000" font-family="sans-serif" font-size="28" font-weight="bold" lengthAdjust="spacing" textLength="360" x="5692" y="3877.7503">dynamo.sewers.boundary</text></g><!--cluster boundary--><g id="cluster_boundary"><path d="M5149,3846.68 L5431,3846.68 A7.5,7.5 0 0 1 5436,3851.68 L5450,3891.6566 L5631,3891.6566 A5,5 0 0 1 5636,3896.6566 L5636,4105.64 A5,5 0 0 1 5631,4110.64 L5149,4110.64 A5,5 0 0 1 5144,4105.64 L5144,3851.68 A5,5 0 0 1 5149,3846.68 " fill="#00FF00" style="stroke:#000000;stroke-width:3.0;"/><line style="stroke:#000000;stroke-width:3.0;" x1="5144" x2="5450" y1="3891.6566" y2="3891.6566"/><text fill="#000000" font-family="sans-serif" font-size="28" font-weight="bold" lengthAdjust="spacing" textLength="280" x="5152" y="3877.7503">s3.sewers.boundary</text></g><!--cluster boundary--><g id="cluster_boundary"><path d="M6277,3846.68 L6573,3846.68 A7.5,7.5 0 0 1 6578,3851.68 L6592,3891.6566 L6759,3891.6566 A5,5 0 0 1 6764,3896.6566 L6764,4105.64 A5,5 0 0 1 6759,4110.64 L6277,4110.64 A5,5 0 0 1 6272,4105.64 L6272,3851.68 A5,5 0 0 1 6277,3846.68 " fill="#00FF00" style="stroke:#000000;stroke-width:3.0;"/><line style="stroke:#000000;stroke-width:3.0;" x1="6272" x2="6592" y1="3891.6566" y2="3891.6566"/><text fill="#000000" font-family="sans-serif" font-size="28" font-weight="bold" lengthAdjust="spacing" textLength="294" x="6280" y="3877.7503">file.sewers.boundary</text></g><!--cluster boundary--><g id="cluster_boundary"><path d="M5149,3400.74 L5573,3400.74 A7.5,7.5 0 0 1 5578,3405.74 L5592,3445.7166 L5631,3445.7166 A5,5 0 0 1 5636,3450.7166 L5636,3659.68 A5,5 0 0 1 5631,3664.68 L5149,3664.68 A5,5 0 0 1 5144,3659.68 L5144,3405.74 A5,5 0 0 1 5149,3400.74 " fill="#00FF00" style="stroke:#000000;stroke-width:3.0;"/><line style="stroke:#000000;stroke-width:3.0;" x1="5144" x2="5592" y1="3445.7166" y2="3445.7166"/><text fill="#000000" font-family="sans-serif" font-size="28" font-weight="bold" lengthAdjust="spacing" textLength="422" x="5152" y="3431.8103">orchestrator.sewers.boundary</text></g><!--cluster boundary--><g id="cluster_boundary"><path d="M4561,3846.68 L4925,3846.68 A7.5,7.5 0 0 1 4930,3851.68 L4944,3891.6566 L5043,3891.6566 A5,5 0 0 1 5048,3896.6566 L5048,4105.64 A5,5 0 0 1 5043,4110.64 L4561,4110.64 A5,5 0 0 1 4556,4105.64 L4556,3851.68 A5,5 0 0 1 4561,3846.68 " fill="#00FF00" style="stroke:#000000;stroke-width:3.0;"/><line style="stroke:#000000;stroke-width:3.0;" x1="4556" x2="4944" y1="3891.6566" y2="3891.6566"/><text fill="#000000" font-family="sans-serif" font-size="28" font-weight="bold" lengthAdjust="spacing" textLength="362" x="4564" y="3877.7503">panache.sewers.boundary</text></g><!--cluster rest--><g id="cluster_rest"><path d="M531,98 L589,98 A7.5,7.5 0 0 1 594,103 L608,142.9766 L3113,142.9766 A5,5 0 0 1 3118,147.9766 L3118,457.96 A5,5 0 0 1 3113,462.96 L531,462.96 A5,5 0 0 1 526,457.96 L526,103 A5,5 0 0 1 531,98 " fill="#FFFFFF" style="stroke:#000000;stroke-width:3.0;"/><line style="stroke:#000000;stroke-width:3.0;" x1="526" x2="608" y1="142.9766" y2="142.9766"/><text fill="#000000" font-family="sans-serif" font-size="28" font-weight="bold" lengthAdjust="spacing" textLength="56" x="534" y="129.0703">rest</text></g><!--cluster boundary--><g id="cluster_boundary"><path d="M1131,184 L1387,184 A7.5,7.5 0 0 1 1392,189 L1406,228.9766 L3065,228.9766 A5,5 0 0 1 3070,233.9766 L3070,409.96 A5,5 0 0 1 3065,414.96 L1131,414.96 A5,5 0 0 1 1126,409.96 L1126,189 A5,5 0 0 1 1131,184 " fill="#00FF00" style="stroke:#000000;stroke-width:3.0;"/><line style="stroke:#000000;stroke-width:3.0;" x1="1126" x2="1406" y1="228.9766" y2="228.9766"/><text fill="#000000" font-family="sans-serif" font-size="28" font-weight="bold" lengthAdjust="spacing" textLength="254" x="1134" y="215.0703">indicate.boundary</text></g><!--cluster boundary--><g id="cluster_boundary"><path d="M579,184 L833,184 A7.5,7.5 0 0 1 838,189 L852,228.9766 L1073,228.9766 A5,5 0 0 1 1078,233.9766 L1078,409.96 A5,5 0 0 1 1073,414.96 L579,414.96 A5,5 0 0 1 574,409.96 L574,189 A5,5 0 0 1 579,184 " fill="#00FF00" style="stroke:#000000;stroke-width:3.0;"/><line style="stroke:#000000;stroke-width:3.0;" x1="574" x2="852" y1="228.9766" y2="228.9766"/><text fill="#000000" font-family="sans-serif" font-size="28" font-weight="bold" lengthAdjust="spacing" textLength="252" x="582" y="215.0703">observe.boundary</text></g><!--cluster panache--><g id="cluster_panache"><path d="M4553,4302.64 L5033,4302.64 A7.5,7.5 0 0 1 5038,4307.64 L5052,4347.6166 L5053,4347.6166 A5,5 0 0 1 5058,4352.6166 L5058,4495.64 A5,5 0 0 1 5053,4500.64 L4553,4500.64 A5,5 0 0 1 4548,4495.64 L4548,4307.64 A5,5 0 0 1 4553,4302.64 " fill="#4695EB" style="stroke:#000000;stroke-width:3.0;"/><line style="stroke:#000000;stroke-width:3.0;" x1="4548" x2="5052" y1="4347.6166" y2="4347.6166"/><text fill="#000000" font-family="sans-serif" font-size="28" font-weight="bold" lengthAdjust="spacing" textLength="478" x="4556" y="4333.7103">io.quarkus.hibernate.orm.panache</text></g><!--class SewerIndicationAdapter--><g id="elem_SewerIndicationAdapter"><rect codeLine="42" fill="#F1F1F1" height="128.9766" id="SewerIndicationAdapter" rx="5" ry="5" style="stroke:#181818;stroke-width:1.0;" width="392" x="2464" y="666.96"/><ellipse cx="2494" cy="698.96" fill="#ADD1B2" rx="22" ry="22" style="stroke:#181818;stroke-width:2.0;"/><path d="M2499.9463,710.2461 Q2498.7842,710.8438 2497.5059,711.1426 Q2496.2275,711.4414 2494.8164,711.4414 Q2489.8027,711.4414 2487.1631,708.1377 Q2484.5234,704.834 2484.5234,698.5918 Q2484.5234,692.333 2487.1631,689.0293 Q2489.8027,685.7256 2494.8164,685.7256 Q2496.2275,685.7256 2497.5225,686.0245 Q2498.8174,686.3233 2499.9463,686.9209 L2499.9463,692.3663 Q2498.6846,691.2041 2497.4976,690.6646 Q2496.3105,690.125 2495.0488,690.125 Q2492.3594,690.125 2490.9897,692.2583 Q2489.6201,694.3916 2489.6201,698.5918 Q2489.6201,702.7754 2490.9897,704.9087 Q2492.3594,707.042 2495.0488,707.042 Q2496.3105,707.042 2497.4976,706.5025 Q2498.6846,705.9629 2499.9463,704.8008 Z " fill="#000000"/><text fill="#000000" font-family="sans-serif" font-size="28" lengthAdjust="spacing" textLength="328" x="2522" y="709.542">SewerIndicationAdapter</text><line style="stroke:#181818;stroke-width:1.0;" x1="2466" x2="2854" y1="730.96" y2="730.96"/><line style="stroke:#181818;stroke-width:1.0;" x1="2466" x2="2854" y1="746.96" y2="746.96"/><ellipse cx="2486" cy="774.4483" fill="#84BE84" rx="6" ry="6" style="stroke:#038048;stroke-width:2.0;"/><text fill="#000000" font-family="sans-serif" font-size="28" lengthAdjust="spacing" textLength="240" x="2504" y="782.0303">void serve(String)</text></g><!--class SewerObservationAdapter--><g id="elem_SewerObservationAdapter"><rect codeLine="45" fill="#F1F1F1" height="128.9766" id="SewerObservationAdapter" rx="5" ry="5" style="stroke:#181818;stroke-width:1.0;" width="422" x="663" y="666.96"/><ellipse cx="693" cy="698.96" fill="#ADD1B2" rx="22" ry="22" style="stroke:#181818;stroke-width:2.0;"/><path d="M698.9463,710.2461 Q697.7842,710.8438 696.5059,711.1426 Q695.2275,711.4414 693.8164,711.4414 Q688.8027,711.4414 686.1631,708.1377 Q683.5234,704.834 683.5234,698.5918 Q683.5234,692.333 686.1631,689.0293 Q688.8027,685.7256 693.8164,685.7256 Q695.2275,685.7256 696.5225,686.0245 Q697.8174,686.3233 698.9463,686.9209 L698.9463,692.3663 Q697.6846,691.2041 696.4976,690.6646 Q695.3105,690.125 694.0488,690.125 Q691.3594,690.125 689.9897,692.2583 Q688.6201,694.3916 688.6201,698.5918 Q688.6201,702.7754 689.9897,704.9087 Q691.3594,707.042 694.0488,707.042 Q695.3105,707.042 696.4976,706.5025 Q697.6846,705.9629 698.9463,704.8008 Z " fill="#000000"/><text fill="#000000" font-family="sans-serif" font-size="28" lengthAdjust="spacing" textLength="358" x="721" y="709.542">SewerObservationAdapter</text><line style="stroke:#181818;stroke-width:1.0;" x1="665" x2="1083" y1="730.96" y2="730.96"/><line style="stroke:#181818;stroke-width:1.0;" x1="665" x2="1083" y1="746.96" y2="746.96"/><ellipse cx="685" cy="774.4483" fill="#84BE84" rx="6" ry="6" style="stroke:#038048;stroke-width:2.0;"/><text fill="#000000" font-family="sans-serif" font-size="28" lengthAdjust="spacing" textLength="356" x="703" y="782.0303">Set&lt;Object&gt; serve(String)</text></g><!--class SewersAdapter--><g id="elem_SewersAdapter"><rect codeLine="48" fill="#F1F1F1" height="161.9531" id="SewersAdapter" rx="5" ry="5" style="stroke:#181818;stroke-width:1.0;" width="430" x="3951" y="3470.74"/><ellipse cx="4054.5" cy="3502.74" fill="#B4A7E5" rx="22" ry="22" style="stroke:#181818;stroke-width:2.0;"/><path d="M4046.3555,3494.2703 L4046.3555,3489.9539 L4061.1143,3489.9539 L4061.1143,3494.2703 L4056.1836,3494.2703 L4056.1836,3510.4236 L4061.1143,3510.4236 L4061.1143,3514.74 L4046.3555,3514.74 L4046.3555,3510.4236 L4051.2861,3510.4236 L4051.2861,3494.2703 Z " fill="#000000"/><text fill="#000000" font-family="sans-serif" font-size="28" font-style="italic" lengthAdjust="spacing" textLength="206" x="4095.5" y="3513.322">SewersAdapter</text><line style="stroke:#181818;stroke-width:1.0;" x1="3953" x2="4379" y1="3534.74" y2="3534.74"/><line style="stroke:#181818;stroke-width:1.0;" x1="3953" x2="4379" y1="3550.74" y2="3550.74"/><ellipse cx="3973" cy="3578.2283" fill="#84BE84" rx="6" ry="6" style="stroke:#038048;stroke-width:2.0;"/><text fill="#000000" font-family="sans-serif" font-size="28" font-style="italic" lengthAdjust="spacing" textLength="378" x="3991" y="3585.8103">Set&lt;Object&gt; observe(UUID)</text><ellipse cx="3973" cy="3611.2048" fill="#84BE84" rx="6" ry="6" style="stroke:#038048;stroke-width:2.0;"/><text fill="#000000" font-family="sans-serif" font-size="28" font-style="italic" lengthAdjust="spacing" textLength="366" x="3991" y="3618.7869">void indicate(UUID, Object)</text></g><!--class SewersAdapterBridge--><g id="elem_SewersAdapterBridge"><rect codeLine="52" fill="#F1F1F1" height="161.9531" id="SewersAdapterBridge" rx="5" ry="5" style="stroke:#181818;stroke-width:1.0;" width="430" x="3951" y="3120.78"/><ellipse cx="4013.4" cy="3152.78" fill="#ADD1B2" rx="22" ry="22" style="stroke:#181818;stroke-width:2.0;"/><path d="M4019.3463,3164.0661 Q4018.1842,3164.6638 4016.9059,3164.9626 Q4015.6275,3165.2614 4014.2164,3165.2614 Q4009.2027,3165.2614 4006.5631,3161.9577 Q4003.9234,3158.654 4003.9234,3152.4118 Q4003.9234,3146.153 4006.5631,3142.8493 Q4009.2027,3139.5456 4014.2164,3139.5456 Q4015.6275,3139.5456 4016.9225,3139.8445 Q4018.2174,3140.1433 4019.3463,3140.7409 L4019.3463,3146.1863 Q4018.0846,3145.0241 4016.8976,3144.4846 Q4015.7105,3143.945 4014.4488,3143.945 Q4011.7594,3143.945 4010.3897,3146.0783 Q4009.0201,3148.2116 4009.0201,3152.4118 Q4009.0201,3156.5954 4010.3897,3158.7287 Q4011.7594,3160.862 4014.4488,3160.862 Q4015.7105,3160.862 4016.8976,3160.3225 Q4018.0846,3159.7829 4019.3463,3158.6208 Z " fill="#000000"/><text fill="#000000" font-family="sans-serif" font-size="28" lengthAdjust="spacing" textLength="294" x="4048.6" y="3163.362">SewersAdapterBridge</text><line style="stroke:#181818;stroke-width:1.0;" x1="3953" x2="4379" y1="3184.78" y2="3184.78"/><line style="stroke:#181818;stroke-width:1.0;" x1="3953" x2="4379" y1="3200.78" y2="3200.78"/><ellipse cx="3973" cy="3228.2683" fill="#84BE84" rx="6" ry="6" style="stroke:#038048;stroke-width:2.0;"/><text fill="#000000" font-family="sans-serif" font-size="28" lengthAdjust="spacing" textLength="378" x="3991" y="3235.8503">Set&lt;Object&gt; observe(UUID)</text><ellipse cx="3973" cy="3261.2448" fill="#84BE84" rx="6" ry="6" style="stroke:#038048;stroke-width:2.0;"/><text fill="#000000" font-family="sans-serif" font-size="28" lengthAdjust="spacing" textLength="366" x="3991" y="3268.8269">void indicate(UUID, Object)</text></g><!--class SewerOverflowIndicationService--><g id="elem_SewerOverflowIndicationService"><rect codeLine="56" fill="#F1F1F1" height="128.9766" id="SewerOverflowIndicationService" rx="5" ry="5" style="stroke:#181818;stroke-width:1.0;" width="500" x="2380" y="1396.92"/><ellipse cx="2410" cy="1428.92" fill="#ADD1B2" rx="22" ry="22" style="stroke:#181818;stroke-width:2.0;"/><path d="M2415.9463,1440.2061 Q2414.7842,1440.8038 2413.5059,1441.1026 Q2412.2275,1441.4014 2410.8164,1441.4014 Q2405.8027,1441.4014 2403.1631,1438.0977 Q2400.5234,1434.794 2400.5234,1428.5518 Q2400.5234,1422.293 2403.1631,1418.9893 Q2405.8027,1415.6856 2410.8164,1415.6856 Q2412.2275,1415.6856 2413.5225,1415.9845 Q2414.8174,1416.2833 2415.9463,1416.8809 L2415.9463,1422.3263 Q2414.6846,1421.1641 2413.4976,1420.6246 Q2412.3105,1420.085 2411.0488,1420.085 Q2408.3594,1420.085 2406.9897,1422.2183 Q2405.6201,1424.3516 2405.6201,1428.5518 Q2405.6201,1432.7354 2406.9897,1434.8687 Q2408.3594,1437.002 2411.0488,1437.002 Q2412.3105,1437.002 2413.4976,1436.4625 Q2414.6846,1435.9229 2415.9463,1434.7608 Z " fill="#000000"/><text fill="#000000" font-family="sans-serif" font-size="28" lengthAdjust="spacing" textLength="436" x="2438" y="1439.502">SewerOverflowIndicationService</text><line style="stroke:#181818;stroke-width:1.0;" x1="2382" x2="2878" y1="1460.92" y2="1460.92"/><line style="stroke:#181818;stroke-width:1.0;" x1="2382" x2="2878" y1="1476.92" y2="1476.92"/><ellipse cx="2402" cy="1504.4083" fill="#84BE84" rx="6" ry="6" style="stroke:#038048;stroke-width:2.0;"/><text fill="#000000" font-family="sans-serif" font-size="28" lengthAdjust="spacing" textLength="440" x="2420" y="1511.9903">void serve(Map&lt;String, String&gt;)</text></g><!--class FlowIndicationComponent--><g id="elem_FlowIndicationComponent"><rect codeLine="59" fill="#F1F1F1" height="128.9766" id="FlowIndicationComponent" rx="5" ry="5" style="stroke:#181818;stroke-width:1.0;" width="672" x="3024" y="2144.88"/><ellipse cx="3170.5" cy="2176.88" fill="#ADD1B2" rx="22" ry="22" style="stroke:#181818;stroke-width:2.0;"/><path d="M3176.4463,2188.1661 Q3175.2842,2188.7638 3174.0059,2189.0626 Q3172.7275,2189.3614 3171.3164,2189.3614 Q3166.3027,2189.3614 3163.6631,2186.0577 Q3161.0234,2182.754 3161.0234,2176.5118 Q3161.0234,2170.253 3163.6631,2166.9493 Q3166.3027,2163.6456 3171.3164,2163.6456 Q3172.7275,2163.6456 3174.0225,2163.9445 Q3175.3174,2164.2433 3176.4463,2164.8409 L3176.4463,2170.2863 Q3175.1846,2169.1241 3173.9976,2168.5846 Q3172.8105,2168.045 3171.5488,2168.045 Q3168.8594,2168.045 3167.4897,2170.1783 Q3166.1201,2172.3116 3166.1201,2176.5118 Q3166.1201,2180.6954 3167.4897,2182.8287 Q3168.8594,2184.962 3171.5488,2184.962 Q3172.8105,2184.962 3173.9976,2184.4225 Q3175.1846,2183.8829 3176.4463,2182.7208 Z " fill="#000000"/><text fill="#000000" font-family="sans-serif" font-size="28" lengthAdjust="spacing" textLength="362" x="3211.5" y="2187.462">FlowIndicationComponent</text><line style="stroke:#181818;stroke-width:1.0;" x1="3026" x2="3694" y1="2208.88" y2="2208.88"/><line style="stroke:#181818;stroke-width:1.0;" x1="3026" x2="3694" y1="2224.88" y2="2224.88"/><ellipse cx="3046" cy="2252.3683" fill="#84BE84" rx="6" ry="6" style="stroke:#038048;stroke-width:2.0;"/><text fill="#000000" font-family="sans-serif" font-size="28" lengthAdjust="spacing" textLength="620" x="3064" y="2259.9503">void execute(Map&lt;String, ? extends Object&gt;)</text></g><!--class PumpIndicationComponent--><g id="elem_PumpIndicationComponent"><rect codeLine="62" fill="#F1F1F1" height="128.9766" id="PumpIndicationComponent" rx="5" ry="5" style="stroke:#181818;stroke-width:1.0;" width="672" x="1540" y="2144.88"/><ellipse cx="1679.5" cy="2176.88" fill="#ADD1B2" rx="22" ry="22" style="stroke:#181818;stroke-width:2.0;"/><path d="M1685.4463,2188.1661 Q1684.2842,2188.7638 1683.0059,2189.0626 Q1681.7275,2189.3614 1680.3164,2189.3614 Q1675.3027,2189.3614 1672.6631,2186.0577 Q1670.0234,2182.754 1670.0234,2176.5118 Q1670.0234,2170.253 1672.6631,2166.9493 Q1675.3027,2163.6456 1680.3164,2163.6456 Q1681.7275,2163.6456 1683.0225,2163.9445 Q1684.3174,2164.2433 1685.4463,2164.8409 L1685.4463,2170.2863 Q1684.1846,2169.1241 1682.9976,2168.5846 Q1681.8105,2168.045 1680.5488,2168.045 Q1677.8594,2168.045 1676.4897,2170.1783 Q1675.1201,2172.3116 1675.1201,2176.5118 Q1675.1201,2180.6954 1676.4897,2182.8287 Q1677.8594,2184.962 1680.5488,2184.962 Q1681.8105,2184.962 1682.9976,2184.4225 Q1684.1846,2183.8829 1685.4463,2182.7208 Z " fill="#000000"/><text fill="#000000" font-family="sans-serif" font-size="28" lengthAdjust="spacing" textLength="376" x="1720.5" y="2187.462">PumpIndicationComponent</text><line style="stroke:#181818;stroke-width:1.0;" x1="1542" x2="2210" y1="2208.88" y2="2208.88"/><line style="stroke:#181818;stroke-width:1.0;" x1="1542" x2="2210" y1="2224.88" y2="2224.88"/><ellipse cx="1562" cy="2252.3683" fill="#84BE84" rx="6" ry="6" style="stroke:#038048;stroke-width:2.0;"/><text fill="#000000" font-family="sans-serif" font-size="28" lengthAdjust="spacing" textLength="620" x="1580" y="2259.9503">void execute(Map&lt;String, ? extends Object&gt;)</text></g><!--class RainIndicationComponent--><g id="elem_RainIndicationComponent"><rect codeLine="65" fill="#F1F1F1" height="128.9766" id="RainIndicationComponent" rx="5" ry="5" style="stroke:#181818;stroke-width:1.0;" width="672" x="2282" y="2144.88"/><ellipse cx="2430.5" cy="2176.88" fill="#ADD1B2" rx="22" ry="22" style="stroke:#181818;stroke-width:2.0;"/><path d="M2436.4463,2188.1661 Q2435.2842,2188.7638 2434.0059,2189.0626 Q2432.7275,2189.3614 2431.3164,2189.3614 Q2426.3027,2189.3614 2423.6631,2186.0577 Q2421.0234,2182.754 2421.0234,2176.5118 Q2421.0234,2170.253 2423.6631,2166.9493 Q2426.3027,2163.6456 2431.3164,2163.6456 Q2432.7275,2163.6456 2434.0225,2163.9445 Q2435.3174,2164.2433 2436.4463,2164.8409 L2436.4463,2170.2863 Q2435.1846,2169.1241 2433.9976,2168.5846 Q2432.8105,2168.045 2431.5488,2168.045 Q2428.8594,2168.045 2427.4897,2170.1783 Q2426.1201,2172.3116 2426.1201,2176.5118 Q2426.1201,2180.6954 2427.4897,2182.8287 Q2428.8594,2184.962 2431.5488,2184.962 Q2432.8105,2184.962 2433.9976,2184.4225 Q2435.1846,2183.8829 2436.4463,2182.7208 Z " fill="#000000"/><text fill="#000000" font-family="sans-serif" font-size="28" lengthAdjust="spacing" textLength="358" x="2471.5" y="2187.462">RainIndicationComponent</text><line style="stroke:#181818;stroke-width:1.0;" x1="2284" x2="2952" y1="2208.88" y2="2208.88"/><line style="stroke:#181818;stroke-width:1.0;" x1="2284" x2="2952" y1="2224.88" y2="2224.88"/><ellipse cx="2304" cy="2252.3683" fill="#84BE84" rx="6" ry="6" style="stroke:#038048;stroke-width:2.0;"/><text fill="#000000" font-family="sans-serif" font-size="28" lengthAdjust="spacing" textLength="620" x="2322" y="2259.9503">void execute(Map&lt;String, ? extends Object&gt;)</text></g><!--class SewerOverflowIndicationComponent--><g id="elem_SewerOverflowIndicationComponent"><rect codeLine="68" fill="#F1F1F1" height="128.9766" id="SewerOverflowIndicationComponent" rx="5" ry="5" style="stroke:#181818;stroke-width:1.0;" width="672" x="2282" y="1645.9"/><ellipse cx="2359.7" cy="1677.9" fill="#ADD1B2" rx="22" ry="22" style="stroke:#181818;stroke-width:2.0;"/><path d="M2365.6463,1689.1861 Q2364.4842,1689.7838 2363.2059,1690.0826 Q2361.9275,1690.3814 2360.5164,1690.3814 Q2355.5027,1690.3814 2352.8631,1687.0777 Q2350.2234,1683.774 2350.2234,1677.5318 Q2350.2234,1671.273 2352.8631,1667.9693 Q2355.5027,1664.6656 2360.5164,1664.6656 Q2361.9275,1664.6656 2363.2225,1664.9645 Q2364.5174,1665.2633 2365.6463,1665.8609 L2365.6463,1671.3063 Q2364.3846,1670.1441 2363.1976,1669.6046 Q2362.0105,1669.065 2360.7488,1669.065 Q2358.0594,1669.065 2356.6897,1671.1983 Q2355.3201,1673.3316 2355.3201,1677.5318 Q2355.3201,1681.7154 2356.6897,1683.8487 Q2358.0594,1685.982 2360.7488,1685.982 Q2362.0105,1685.982 2363.1976,1685.4425 Q2364.3846,1684.9029 2365.6463,1683.7408 Z " fill="#000000"/><text fill="#000000" font-family="sans-serif" font-size="28" lengthAdjust="spacing" textLength="502" x="2398.3" y="1688.482">SewerOverflowIndicationComponent</text><line style="stroke:#181818;stroke-width:1.0;" x1="2284" x2="2952" y1="1709.9" y2="1709.9"/><line style="stroke:#181818;stroke-width:1.0;" x1="2284" x2="2952" y1="1725.9" y2="1725.9"/><ellipse cx="2304" cy="1753.3883" fill="#84BE84" rx="6" ry="6" style="stroke:#038048;stroke-width:2.0;"/><text fill="#000000" font-family="sans-serif" font-size="28" lengthAdjust="spacing" textLength="620" x="2322" y="1760.9703">void execute(Map&lt;String, ? extends Object&gt;)</text></g><!--class SewerObservationService--><g id="elem_SewerObservationService"><rect codeLine="71" fill="#F1F1F1" height="128.9766" id="SewerObservationService" rx="5" ry="5" style="stroke:#181818;stroke-width:1.0;" width="408" x="840" y="1396.92"/><ellipse cx="870" cy="1428.92" fill="#ADD1B2" rx="22" ry="22" style="stroke:#181818;stroke-width:2.0;"/><path d="M875.9463,1440.2061 Q874.7842,1440.8038 873.5059,1441.1026 Q872.2275,1441.4014 870.8164,1441.4014 Q865.8027,1441.4014 863.1631,1438.0977 Q860.5234,1434.794 860.5234,1428.5518 Q860.5234,1422.293 863.1631,1418.9893 Q865.8027,1415.6856 870.8164,1415.6856 Q872.2275,1415.6856 873.5225,1415.9845 Q874.8174,1416.2833 875.9463,1416.8809 L875.9463,1422.3263 Q874.6846,1421.1641 873.4976,1420.6246 Q872.3105,1420.085 871.0488,1420.085 Q868.3594,1420.085 866.9897,1422.2183 Q865.6201,1424.3516 865.6201,1428.5518 Q865.6201,1432.7354 866.9897,1434.8687 Q868.3594,1437.002 871.0488,1437.002 Q872.3105,1437.002 873.4976,1436.4625 Q874.6846,1435.9229 875.9463,1434.7608 Z " fill="#000000"/><text fill="#000000" font-family="sans-serif" font-size="28" lengthAdjust="spacing" textLength="344" x="898" y="1439.502">SewerObservationService</text><line style="stroke:#181818;stroke-width:1.0;" x1="842" x2="1246" y1="1460.92" y2="1460.92"/><line style="stroke:#181818;stroke-width:1.0;" x1="842" x2="1246" y1="1476.92" y2="1476.92"/><ellipse cx="862" cy="1504.4083" fill="#84BE84" rx="6" ry="6" style="stroke:#038048;stroke-width:2.0;"/><text fill="#000000" font-family="sans-serif" font-size="28" lengthAdjust="spacing" textLength="350" x="880" y="1511.9903">Set&lt;Sewer&gt; serve(String)</text></g><!--class SewerObservationComponent--><g id="elem_SewerObservationComponent"><rect codeLine="74" fill="#F1F1F1" height="128.9766" id="SewerObservationComponent" rx="5" ry="5" style="stroke:#181818;stroke-width:1.0;" width="474" x="849" y="1645.9"/><ellipse cx="879" cy="1677.9" fill="#ADD1B2" rx="22" ry="22" style="stroke:#181818;stroke-width:2.0;"/><path d="M884.9463,1689.1861 Q883.7842,1689.7838 882.5059,1690.0826 Q881.2275,1690.3814 879.8164,1690.3814 Q874.8027,1690.3814 872.1631,1687.0777 Q869.5234,1683.774 869.5234,1677.5318 Q869.5234,1671.273 872.1631,1667.9693 Q874.8027,1664.6656 879.8164,1664.6656 Q881.2275,1664.6656 882.5225,1664.9645 Q883.8174,1665.2633 884.9463,1665.8609 L884.9463,1671.3063 Q883.6846,1670.1441 882.4976,1669.6046 Q881.3105,1669.065 880.0488,1669.065 Q877.3594,1669.065 875.9897,1671.1983 Q874.6201,1673.3316 874.6201,1677.5318 Q874.6201,1681.7154 875.9897,1683.8487 Q877.3594,1685.982 880.0488,1685.982 Q881.3105,1685.982 882.4976,1685.4425 Q883.6846,1684.9029 884.9463,1683.7408 Z " fill="#000000"/><text fill="#000000" font-family="sans-serif" font-size="28" lengthAdjust="spacing" textLength="410" x="907" y="1688.482">SewerObservationComponent</text><line style="stroke:#181818;stroke-width:1.0;" x1="851" x2="1321" y1="1709.9" y2="1709.9"/><line style="stroke:#181818;stroke-width:1.0;" x1="851" x2="1321" y1="1725.9" y2="1725.9"/><ellipse cx="871" cy="1753.3883" fill="#84BE84" rx="6" ry="6" style="stroke:#038048;stroke-width:2.0;"/><text fill="#000000" font-family="sans-serif" font-size="28" lengthAdjust="spacing" textLength="386" x="889" y="1760.9703">Set&lt;Sewer&gt; execute(String)</text></g><!--class Sewers--><g id="elem_Sewers"><rect codeLine="77" fill="#F1F1F1" height="161.9531" id="Sewers" rx="5" ry="5" style="stroke:#181818;stroke-width:1.0;" width="424" x="908" y="2128.38"/><ellipse cx="1063.5" cy="2160.38" fill="#B4A7E5" rx="22" ry="22" style="stroke:#181818;stroke-width:2.0;"/><path d="M1055.3555,2151.9103 L1055.3555,2147.5939 L1070.1143,2147.5939 L1070.1143,2151.9103 L1065.1836,2151.9103 L1065.1836,2168.0636 L1070.1143,2168.0636 L1070.1143,2172.38 L1055.3555,2172.38 L1055.3555,2168.0636 L1060.2861,2168.0636 L1060.2861,2151.9103 Z " fill="#000000"/><text fill="#000000" font-family="sans-serif" font-size="28" font-style="italic" lengthAdjust="spacing" textLength="96" x="1104.5" y="2170.962">Sewers</text><line style="stroke:#181818;stroke-width:1.0;" x1="910" x2="1330" y1="2192.38" y2="2192.38"/><line style="stroke:#181818;stroke-width:1.0;" x1="910" x2="1330" y1="2208.38" y2="2208.38"/><ellipse cx="930" cy="2235.8683" fill="#84BE84" rx="6" ry="6" style="stroke:#038048;stroke-width:2.0;"/><text fill="#000000" font-family="sans-serif" font-size="28" font-style="italic" lengthAdjust="spacing" textLength="372" x="948" y="2243.4503">Set&lt;Sewer&gt; observe(UUID)</text><ellipse cx="930" cy="2268.8448" fill="#84BE84" rx="6" ry="6" style="stroke:#038048;stroke-width:2.0;"/><text fill="#000000" font-family="sans-serif" font-size="28" font-style="italic" lengthAdjust="spacing" textLength="276" x="948" y="2276.4269">void indicate(Sewer)</text></g><!--class Sewer--><g id="elem_Sewer"><rect codeLine="81" fill="#F1F1F1" height="128.9766" id="Sewer" rx="5" ry="5" style="stroke:#181818;stroke-width:1.0;" width="506" x="333" y="2144.88"/><ellipse cx="536.5" cy="2176.88" fill="#ADD1B2" rx="22" ry="22" style="stroke:#181818;stroke-width:2.0;"/><path d="M542.4463,2188.1661 Q541.2842,2188.7638 540.0059,2189.0626 Q538.7275,2189.3614 537.3164,2189.3614 Q532.3027,2189.3614 529.6631,2186.0577 Q527.0234,2182.754 527.0234,2176.5118 Q527.0234,2170.253 529.6631,2166.9493 Q532.3027,2163.6456 537.3164,2163.6456 Q538.7275,2163.6456 540.0225,2163.9445 Q541.3174,2164.2433 542.4463,2164.8409 L542.4463,2170.2863 Q541.1846,2169.1241 539.9976,2168.5846 Q538.8105,2168.045 537.5488,2168.045 Q534.8594,2168.045 533.4897,2170.1783 Q532.1201,2172.3116 532.1201,2176.5118 Q532.1201,2180.6954 533.4897,2182.8287 Q534.8594,2184.962 537.5488,2184.962 Q538.8105,2184.962 539.9976,2184.4225 Q541.1846,2183.8829 542.4463,2182.7208 Z " fill="#000000"/><text fill="#000000" font-family="sans-serif" font-size="28" lengthAdjust="spacing" textLength="82" x="577.5" y="2187.462">Sewer</text><line style="stroke:#181818;stroke-width:1.0;" x1="335" x2="837" y1="2208.88" y2="2208.88"/><line style="stroke:#181818;stroke-width:1.0;" x1="335" x2="837" y1="2224.88" y2="2224.88"/><ellipse cx="355" cy="2252.3683" fill="#84BE84" rx="6" ry="6" style="stroke:#038048;stroke-width:2.0;"/><text fill="#000000" font-family="sans-serif" font-size="28" lengthAdjust="spacing" textLength="454" x="373" y="2259.9503">void setProblems(Set&lt;Problem&gt;)</text></g><!--class KeyPerformanceIndicator--><g id="elem_KeyPerformanceIndicator"><rect codeLine="84" fill="#F1F1F1" height="96" id="KeyPerformanceIndicator" rx="5" ry="5" style="stroke:#181818;stroke-width:1.0;" width="408" x="332" y="2504.82"/><ellipse cx="362" cy="2536.82" fill="#ADD1B2" rx="22" ry="22" style="stroke:#181818;stroke-width:2.0;"/><path d="M367.9463,2548.1061 Q366.7842,2548.7038 365.5059,2549.0026 Q364.2275,2549.3014 362.8164,2549.3014 Q357.8027,2549.3014 355.1631,2545.9977 Q352.5234,2542.694 352.5234,2536.4518 Q352.5234,2530.193 355.1631,2526.8893 Q357.8027,2523.5856 362.8164,2523.5856 Q364.2275,2523.5856 365.5225,2523.8845 Q366.8174,2524.1833 367.9463,2524.7809 L367.9463,2530.2263 Q366.6846,2529.0641 365.4976,2528.5246 Q364.3105,2527.985 363.0488,2527.985 Q360.3594,2527.985 358.9897,2530.1183 Q357.6201,2532.2516 357.6201,2536.4518 Q357.6201,2540.6354 358.9897,2542.7687 Q360.3594,2544.902 363.0488,2544.902 Q364.3105,2544.902 365.4976,2544.3625 Q366.6846,2543.8229 367.9463,2542.6608 Z " fill="#000000"/><text fill="#000000" font-family="sans-serif" font-size="28" lengthAdjust="spacing" textLength="344" x="390" y="2547.402">KeyPerformanceIndicator</text><line style="stroke:#181818;stroke-width:1.0;" x1="334" x2="738" y1="2568.82" y2="2568.82"/><line style="stroke:#181818;stroke-width:1.0;" x1="334" x2="738" y1="2584.82" y2="2584.82"/></g><!--class Problem--><g id="elem_Problem"><rect codeLine="86" fill="#F1F1F1" height="96" id="Problem" rx="5" ry="5" style="stroke:#181818;stroke-width:1.0;" width="178" x="851" y="2504.82"/><ellipse cx="881" cy="2536.82" fill="#ADD1B2" rx="22" ry="22" style="stroke:#181818;stroke-width:2.0;"/><path d="M886.9463,2548.1061 Q885.7842,2548.7038 884.5059,2549.0026 Q883.2275,2549.3014 881.8164,2549.3014 Q876.8027,2549.3014 874.1631,2545.9977 Q871.5234,2542.694 871.5234,2536.4518 Q871.5234,2530.193 874.1631,2526.8893 Q876.8027,2523.5856 881.8164,2523.5856 Q883.2275,2523.5856 884.5225,2523.8845 Q885.8174,2524.1833 886.9463,2524.7809 L886.9463,2530.2263 Q885.6846,2529.0641 884.4976,2528.5246 Q883.3105,2527.985 882.0488,2527.985 Q879.3594,2527.985 877.9897,2530.1183 Q876.6201,2532.2516 876.6201,2536.4518 Q876.6201,2540.6354 877.9897,2542.7687 Q879.3594,2544.902 882.0488,2544.902 Q883.3105,2544.902 884.4976,2544.3625 Q885.6846,2543.8229 886.9463,2542.6608 Z " fill="#000000"/><text fill="#000000" font-family="sans-serif" font-size="28" lengthAdjust="spacing" textLength="114" x="909" y="2547.402">Problem</text><line style="stroke:#181818;stroke-width:1.0;" x1="853" x2="1027" y1="2568.82" y2="2568.82"/><line style="stroke:#181818;stroke-width:1.0;" x1="853" x2="1027" y1="2584.82" y2="2584.82"/></g><!--class SewerIndicationUseCase--><g id="elem_SewerIndicationUseCase"><rect codeLine="88" fill="#F1F1F1" height="128.9766" id="SewerIndicationUseCase" rx="5" ry="5" style="stroke:#181818;stroke-width:1.0;" width="398" x="2455" y="1031.94"/><ellipse cx="2485" cy="1063.94" fill="#ADD1B2" rx="22" ry="22" style="stroke:#181818;stroke-width:2.0;"/><path d="M2490.9463,1075.2261 Q2489.7842,1075.8238 2488.5059,1076.1226 Q2487.2275,1076.4214 2485.8164,1076.4214 Q2480.8027,1076.4214 2478.1631,1073.1177 Q2475.5234,1069.814 2475.5234,1063.5718 Q2475.5234,1057.313 2478.1631,1054.0093 Q2480.8027,1050.7056 2485.8164,1050.7056 Q2487.2275,1050.7056 2488.5225,1051.0045 Q2489.8174,1051.3033 2490.9463,1051.9009 L2490.9463,1057.3463 Q2489.6846,1056.1841 2488.4976,1055.6446 Q2487.3105,1055.105 2486.0488,1055.105 Q2483.3594,1055.105 2481.9897,1057.2383 Q2480.6201,1059.3716 2480.6201,1063.5718 Q2480.6201,1067.7554 2481.9897,1069.8887 Q2483.3594,1072.022 2486.0488,1072.022 Q2487.3105,1072.022 2488.4976,1071.4825 Q2489.6846,1070.9429 2490.9463,1069.7808 Z " fill="#000000"/><text fill="#000000" font-family="sans-serif" font-size="28" lengthAdjust="spacing" textLength="334" x="2513" y="1074.522">SewerIndicationUseCase</text><line style="stroke:#181818;stroke-width:1.0;" x1="2457" x2="2851" y1="1095.94" y2="1095.94"/><line style="stroke:#181818;stroke-width:1.0;" x1="2457" x2="2851" y1="1111.94" y2="1111.94"/><ellipse cx="2477" cy="1139.4283" fill="#84BE84" rx="6" ry="6" style="stroke:#038048;stroke-width:2.0;"/><text fill="#000000" font-family="sans-serif" font-size="28" lengthAdjust="spacing" textLength="240" x="2495" y="1147.0103">void serve(String)</text></g><!--class SewerObservationUseCase--><g id="elem_SewerObservationUseCase"><rect codeLine="91" fill="#F1F1F1" height="128.9766" id="SewerObservationUseCase" rx="5" ry="5" style="stroke:#181818;stroke-width:1.0;" width="428" x="774" y="1031.94"/><ellipse cx="804" cy="1063.94" fill="#ADD1B2" rx="22" ry="22" style="stroke:#181818;stroke-width:2.0;"/><path d="M809.9463,1075.2261 Q808.7842,1075.8238 807.5059,1076.1226 Q806.2275,1076.4214 804.8164,1076.4214 Q799.8027,1076.4214 797.1631,1073.1177 Q794.5234,1069.814 794.5234,1063.5718 Q794.5234,1057.313 797.1631,1054.0093 Q799.8027,1050.7056 804.8164,1050.7056 Q806.2275,1050.7056 807.5225,1051.0045 Q808.8174,1051.3033 809.9463,1051.9009 L809.9463,1057.3463 Q808.6846,1056.1841 807.4976,1055.6446 Q806.3105,1055.105 805.0488,1055.105 Q802.3594,1055.105 800.9897,1057.2383 Q799.6201,1059.3716 799.6201,1063.5718 Q799.6201,1067.7554 800.9897,1069.8887 Q802.3594,1072.022 805.0488,1072.022 Q806.3105,1072.022 807.4976,1071.4825 Q808.6846,1070.9429 809.9463,1069.7808 Z " fill="#000000"/><text fill="#000000" font-family="sans-serif" font-size="28" lengthAdjust="spacing" textLength="364" x="832" y="1074.522">SewerObservationUseCase</text><line style="stroke:#181818;stroke-width:1.0;" x1="776" x2="1200" y1="1095.94" y2="1095.94"/><line style="stroke:#181818;stroke-width:1.0;" x1="776" x2="1200" y1="1111.94" y2="1111.94"/><ellipse cx="796" cy="1139.4283" fill="#84BE84" rx="6" ry="6" style="stroke:#038048;stroke-width:2.0;"/><text fill="#000000" font-family="sans-serif" font-size="28" lengthAdjust="spacing" textLength="350" x="814" y="1147.0103">Set&lt;Sewer&gt; serve(String)</text></g><!--class SewersUseCase--><g id="elem_SewersUseCase"><rect codeLine="94" fill="#F1F1F1" height="161.9531" id="SewersUseCase" rx="5" ry="5" style="stroke:#181818;stroke-width:1.0;" width="430" x="3903" y="2760.82"/><ellipse cx="4003.5" cy="2792.82" fill="#B4A7E5" rx="22" ry="22" style="stroke:#181818;stroke-width:2.0;"/><path d="M3995.3555,2784.3503 L3995.3555,2780.0339 L4010.1143,2780.0339 L4010.1143,2784.3503 L4005.1836,2784.3503 L4005.1836,2800.5036 L4010.1143,2800.5036 L4010.1143,2804.82 L3995.3555,2804.82 L3995.3555,2800.5036 L4000.2861,2800.5036 L4000.2861,2784.3503 Z " fill="#000000"/><text fill="#000000" font-family="sans-serif" font-size="28" font-style="italic" lengthAdjust="spacing" textLength="212" x="4044.5" y="2803.402">SewersUseCase</text><line style="stroke:#181818;stroke-width:1.0;" x1="3905" x2="4331" y1="2824.82" y2="2824.82"/><line style="stroke:#181818;stroke-width:1.0;" x1="3905" x2="4331" y1="2840.82" y2="2840.82"/><ellipse cx="3925" cy="2868.3083" fill="#84BE84" rx="6" ry="6" style="stroke:#038048;stroke-width:2.0;"/><text fill="#000000" font-family="sans-serif" font-size="28" font-style="italic" lengthAdjust="spacing" textLength="378" x="3943" y="2875.8903">Set&lt;Object&gt; observe(UUID)</text><ellipse cx="3925" cy="2901.2848" fill="#84BE84" rx="6" ry="6" style="stroke:#038048;stroke-width:2.0;"/><text fill="#000000" font-family="sans-serif" font-size="28" font-style="italic" lengthAdjust="spacing" textLength="366" x="3943" y="2908.8669">void indicate(UUID, Object)</text></g><!--class SewersUseCaseBridge--><g id="elem_SewersUseCaseBridge"><rect codeLine="98" fill="#F1F1F1" height="161.9531" id="SewersUseCaseBridge" rx="5" ry="5" style="stroke:#181818;stroke-width:1.0;" width="424" x="3904" y="2471.86"/><ellipse cx="3961" cy="2503.86" fill="#ADD1B2" rx="22" ry="22" style="stroke:#181818;stroke-width:2.0;"/><path d="M3966.9463,2515.1461 Q3965.7842,2515.7438 3964.5059,2516.0426 Q3963.2275,2516.3414 3961.8164,2516.3414 Q3956.8027,2516.3414 3954.1631,2513.0377 Q3951.5234,2509.734 3951.5234,2503.4918 Q3951.5234,2497.233 3954.1631,2493.9293 Q3956.8027,2490.6256 3961.8164,2490.6256 Q3963.2275,2490.6256 3964.5225,2490.9245 Q3965.8174,2491.2233 3966.9463,2491.8209 L3966.9463,2497.2663 Q3965.6846,2496.1041 3964.4976,2495.5646 Q3963.3105,2495.025 3962.0488,2495.025 Q3959.3594,2495.025 3957.9897,2497.1583 Q3956.6201,2499.2916 3956.6201,2503.4918 Q3956.6201,2507.6754 3957.9897,2509.8087 Q3959.3594,2511.942 3962.0488,2511.942 Q3963.3105,2511.942 3964.4976,2511.4025 Q3965.6846,2510.8629 3966.9463,2509.7008 Z " fill="#000000"/><text fill="#000000" font-family="sans-serif" font-size="28" lengthAdjust="spacing" textLength="300" x="3995" y="2514.442">SewersUseCaseBridge</text><line style="stroke:#181818;stroke-width:1.0;" x1="3906" x2="4326" y1="2535.86" y2="2535.86"/><line style="stroke:#181818;stroke-width:1.0;" x1="3906" x2="4326" y1="2551.86" y2="2551.86"/><ellipse cx="3926" cy="2579.3483" fill="#84BE84" rx="6" ry="6" style="stroke:#038048;stroke-width:2.0;"/><text fill="#000000" font-family="sans-serif" font-size="28" lengthAdjust="spacing" textLength="372" x="3944" y="2586.9303">Set&lt;Sewer&gt; observe(UUID)</text><ellipse cx="3926" cy="2612.3248" fill="#84BE84" rx="6" ry="6" style="stroke:#038048;stroke-width:2.0;"/><text fill="#000000" font-family="sans-serif" font-size="28" lengthAdjust="spacing" textLength="276" x="3944" y="2619.9069">void indicate(Sewer)</text></g><!--class JSONRainfallIndicationDriver--><g id="elem_JSONRainfallIndicationDriver"><rect codeLine="102" fill="#F1F1F1" height="128.9766" id="JSONRainfallIndicationDriver" rx="5" ry="5" style="stroke:#181818;stroke-width:1.0;" width="450" x="3199" y="254"/><ellipse cx="3229" cy="286" fill="#ADD1B2" rx="22" ry="22" style="stroke:#181818;stroke-width:2.0;"/><path d="M3234.9463,297.2861 Q3233.7842,297.8838 3232.5059,298.1826 Q3231.2275,298.4814 3229.8164,298.4814 Q3224.8027,298.4814 3222.1631,295.1777 Q3219.5234,291.874 3219.5234,285.6318 Q3219.5234,279.373 3222.1631,276.0693 Q3224.8027,272.7656 3229.8164,272.7656 Q3231.2275,272.7656 3232.5225,273.0645 Q3233.8174,273.3633 3234.9463,273.9609 L3234.9463,279.4063 Q3233.6846,278.2441 3232.4976,277.7046 Q3231.3105,277.165 3230.0488,277.165 Q3227.3594,277.165 3225.9897,279.2983 Q3224.6201,281.4316 3224.6201,285.6318 Q3224.6201,289.8154 3225.9897,291.9487 Q3227.3594,294.082 3230.0488,294.082 Q3231.3105,294.082 3232.4976,293.5425 Q3233.6846,293.0029 3234.9463,291.8408 Z " fill="#000000"/><text fill="#000000" font-family="sans-serif" font-size="28" lengthAdjust="spacing" textLength="386" x="3257" y="296.582">JSONRainfallIndicationDriver</text><line style="stroke:#181818;stroke-width:1.0;" x1="3201" x2="3647" y1="318" y2="318"/><line style="stroke:#181818;stroke-width:1.0;" x1="3201" x2="3647" y1="334" y2="334"/><ellipse cx="3221" cy="361.4883" fill="#84BE84" rx="6" ry="6" style="stroke:#038048;stroke-width:2.0;"/><text fill="#000000" font-family="sans-serif" font-size="28" lengthAdjust="spacing" textLength="240" x="3239" y="369.0703">void serve(String)</text></g><!--class PdfPumpPowerConsumptionIndicationDriver--><g id="elem_PdfPumpPowerConsumptionIndicationDriver"><rect codeLine="105" fill="#F1F1F1" height="128.9766" id="PdfPumpPowerConsumptionIndicationDriver" rx="5" ry="5" style="stroke:#181818;stroke-width:1.0;" width="674" x="4231" y="254"/><ellipse cx="4261" cy="286" fill="#ADD1B2" rx="22" ry="22" style="stroke:#181818;stroke-width:2.0;"/><path d="M4266.9463,297.2861 Q4265.7842,297.8838 4264.5059,298.1826 Q4263.2275,298.4814 4261.8164,298.4814 Q4256.8027,298.4814 4254.1631,295.1777 Q4251.5234,291.874 4251.5234,285.6318 Q4251.5234,279.373 4254.1631,276.0693 Q4256.8027,272.7656 4261.8164,272.7656 Q4263.2275,272.7656 4264.5225,273.0645 Q4265.8174,273.3633 4266.9463,273.9609 L4266.9463,279.4063 Q4265.6846,278.2441 4264.4976,277.7046 Q4263.3105,277.165 4262.0488,277.165 Q4259.3594,277.165 4257.9897,279.2983 Q4256.6201,281.4316 4256.6201,285.6318 Q4256.6201,289.8154 4257.9897,291.9487 Q4259.3594,294.082 4262.0488,294.082 Q4263.3105,294.082 4264.4976,293.5425 Q4265.6846,293.0029 4266.9463,291.8408 Z " fill="#000000"/><text fill="#000000" font-family="sans-serif" font-size="28" lengthAdjust="spacing" textLength="610" x="4289" y="296.582">PdfPumpPowerConsumptionIndicationDriver</text><line style="stroke:#181818;stroke-width:1.0;" x1="4233" x2="4903" y1="318" y2="318"/><line style="stroke:#181818;stroke-width:1.0;" x1="4233" x2="4903" y1="334" y2="334"/><ellipse cx="4253" cy="361.4883" fill="#84BE84" rx="6" ry="6" style="stroke:#038048;stroke-width:2.0;"/><text fill="#000000" font-family="sans-serif" font-size="28" lengthAdjust="spacing" textLength="240" x="4271" y="369.0703">void serve(String)</text></g><!--class XMLRainfallIndicationDriver--><g id="elem_XMLRainfallIndicationDriver"><rect codeLine="108" fill="#F1F1F1" height="128.9766" id="XMLRainfallIndicationDriver" rx="5" ry="5" style="stroke:#181818;stroke-width:1.0;" width="440" x="3720" y="254"/><ellipse cx="3750" cy="286" fill="#ADD1B2" rx="22" ry="22" style="stroke:#181818;stroke-width:2.0;"/><path d="M3755.9463,297.2861 Q3754.7842,297.8838 3753.5059,298.1826 Q3752.2275,298.4814 3750.8164,298.4814 Q3745.8027,298.4814 3743.1631,295.1777 Q3740.5234,291.874 3740.5234,285.6318 Q3740.5234,279.373 3743.1631,276.0693 Q3745.8027,272.7656 3750.8164,272.7656 Q3752.2275,272.7656 3753.5225,273.0645 Q3754.8174,273.3633 3755.9463,273.9609 L3755.9463,279.4063 Q3754.6846,278.2441 3753.4976,277.7046 Q3752.3105,277.165 3751.0488,277.165 Q3748.3594,277.165 3746.9897,279.2983 Q3745.6201,281.4316 3745.6201,285.6318 Q3745.6201,289.8154 3746.9897,291.9487 Q3748.3594,294.082 3751.0488,294.082 Q3752.3105,294.082 3753.4976,293.5425 Q3754.6846,293.0029 3755.9463,291.8408 Z " fill="#000000"/><text fill="#000000" font-family="sans-serif" font-size="28" lengthAdjust="spacing" textLength="376" x="3778" y="296.582">XMLRainfallIndicationDriver</text><line style="stroke:#181818;stroke-width:1.0;" x1="3722" x2="4158" y1="318" y2="318"/><line style="stroke:#181818;stroke-width:1.0;" x1="3722" x2="4158" y1="334" y2="334"/><ellipse cx="3742" cy="361.4883" fill="#84BE84" rx="6" ry="6" style="stroke:#038048;stroke-width:2.0;"/><text fill="#000000" font-family="sans-serif" font-size="28" lengthAdjust="spacing" textLength="240" x="3760" y="369.0703">void serve(String)</text></g><!--class DynamoSewersDriver--><g id="elem_DynamoSewersDriver"><rect codeLine="111" fill="#F1F1F1" height="161.9531" id="DynamoSewersDriver" rx="5" ry="5" style="stroke:#181818;stroke-width:1.0;" width="430" x="5715" y="3916.68"/><ellipse cx="5779.2" cy="3948.68" fill="#ADD1B2" rx="22" ry="22" style="stroke:#181818;stroke-width:2.0;"/><path d="M5785.1463,3959.9661 Q5783.9842,3960.5638 5782.7059,3960.8626 Q5781.4275,3961.1614 5780.0164,3961.1614 Q5775.0027,3961.1614 5772.3631,3957.8577 Q5769.7234,3954.554 5769.7234,3948.3118 Q5769.7234,3942.053 5772.3631,3938.7493 Q5775.0027,3935.4456 5780.0164,3935.4456 Q5781.4275,3935.4456 5782.7225,3935.7445 Q5784.0174,3936.0433 5785.1463,3936.6409 L5785.1463,3942.0863 Q5783.8846,3940.9241 5782.6976,3940.3846 Q5781.5105,3939.845 5780.2488,3939.845 Q5777.5594,3939.845 5776.1897,3941.9783 Q5774.8201,3944.1116 5774.8201,3948.3118 Q5774.8201,3952.4954 5776.1897,3954.6287 Q5777.5594,3956.762 5780.2488,3956.762 Q5781.5105,3956.762 5782.6976,3956.2225 Q5783.8846,3955.6829 5785.1463,3954.5208 Z " fill="#000000"/><text fill="#000000" font-family="sans-serif" font-size="28" lengthAdjust="spacing" textLength="290" x="5814.8" y="3959.262">DynamoSewersDriver</text><line style="stroke:#181818;stroke-width:1.0;" x1="5717" x2="6143" y1="3980.68" y2="3980.68"/><line style="stroke:#181818;stroke-width:1.0;" x1="5717" x2="6143" y1="3996.68" y2="3996.68"/><ellipse cx="5737" cy="4024.1683" fill="#84BE84" rx="6" ry="6" style="stroke:#038048;stroke-width:2.0;"/><text fill="#000000" font-family="sans-serif" font-size="28" lengthAdjust="spacing" textLength="378" x="5755" y="4031.7503">Set&lt;Object&gt; observe(UUID)</text><ellipse cx="5737" cy="4057.1448" fill="#84BE84" rx="6" ry="6" style="stroke:#038048;stroke-width:2.0;"/><text fill="#000000" font-family="sans-serif" font-size="28" lengthAdjust="spacing" textLength="366" x="5755" y="4064.7269">void indicate(UUID, Object)</text></g><!--class S3SewersDriver--><g id="elem_S3SewersDriver"><rect codeLine="115" fill="#F1F1F1" height="161.9531" id="S3SewersDriver" rx="5" ry="5" style="stroke:#181818;stroke-width:1.0;" width="430" x="5175" y="3916.68"/><ellipse cx="5275.5" cy="3948.68" fill="#ADD1B2" rx="22" ry="22" style="stroke:#181818;stroke-width:2.0;"/><path d="M5281.4463,3959.9661 Q5280.2842,3960.5638 5279.0059,3960.8626 Q5277.7275,3961.1614 5276.3164,3961.1614 Q5271.3027,3961.1614 5268.6631,3957.8577 Q5266.0234,3954.554 5266.0234,3948.3118 Q5266.0234,3942.053 5268.6631,3938.7493 Q5271.3027,3935.4456 5276.3164,3935.4456 Q5277.7275,3935.4456 5279.0225,3935.7445 Q5280.3174,3936.0433 5281.4463,3936.6409 L5281.4463,3942.0863 Q5280.1846,3940.9241 5278.9976,3940.3846 Q5277.8105,3939.845 5276.5488,3939.845 Q5273.8594,3939.845 5272.4897,3941.9783 Q5271.1201,3944.1116 5271.1201,3948.3118 Q5271.1201,3952.4954 5272.4897,3954.6287 Q5273.8594,3956.762 5276.5488,3956.762 Q5277.8105,3956.762 5278.9976,3956.2225 Q5280.1846,3955.6829 5281.4463,3954.5208 Z " fill="#000000"/><text fill="#000000" font-family="sans-serif" font-size="28" lengthAdjust="spacing" textLength="212" x="5316.5" y="3959.262">S3SewersDriver</text><line style="stroke:#181818;stroke-width:1.0;" x1="5177" x2="5603" y1="3980.68" y2="3980.68"/><line style="stroke:#181818;stroke-width:1.0;" x1="5177" x2="5603" y1="3996.68" y2="3996.68"/><ellipse cx="5197" cy="4024.1683" fill="#84BE84" rx="6" ry="6" style="stroke:#038048;stroke-width:2.0;"/><text fill="#000000" font-family="sans-serif" font-size="28" lengthAdjust="spacing" textLength="378" x="5215" y="4031.7503">Set&lt;Object&gt; observe(UUID)</text><ellipse cx="5197" cy="4057.1448" fill="#84BE84" rx="6" ry="6" style="stroke:#038048;stroke-width:2.0;"/><text fill="#000000" font-family="sans-serif" font-size="28" lengthAdjust="spacing" textLength="366" x="5215" y="4064.7269">void indicate(UUID, Object)</text></g><!--class FileSewersDriver--><g id="elem_FileSewersDriver"><rect codeLine="119" fill="#F1F1F1" height="161.9531" id="FileSewersDriver" rx="5" ry="5" style="stroke:#181818;stroke-width:1.0;" width="430" x="6303" y="3916.68"/><ellipse cx="6396.5" cy="3948.68" fill="#ADD1B2" rx="22" ry="22" style="stroke:#181818;stroke-width:2.0;"/><path d="M6402.4463,3959.9661 Q6401.2842,3960.5638 6400.0059,3960.8626 Q6398.7275,3961.1614 6397.3164,3961.1614 Q6392.3027,3961.1614 6389.6631,3957.8577 Q6387.0234,3954.554 6387.0234,3948.3118 Q6387.0234,3942.053 6389.6631,3938.7493 Q6392.3027,3935.4456 6397.3164,3935.4456 Q6398.7275,3935.4456 6400.0225,3935.7445 Q6401.3174,3936.0433 6402.4463,3936.6409 L6402.4463,3942.0863 Q6401.1846,3940.9241 6399.9976,3940.3846 Q6398.8105,3939.845 6397.5488,3939.845 Q6394.8594,3939.845 6393.4897,3941.9783 Q6392.1201,3944.1116 6392.1201,3948.3118 Q6392.1201,3952.4954 6393.4897,3954.6287 Q6394.8594,3956.762 6397.5488,3956.762 Q6398.8105,3956.762 6399.9976,3956.2225 Q6401.1846,3955.6829 6402.4463,3954.5208 Z " fill="#000000"/><text fill="#000000" font-family="sans-serif" font-size="28" lengthAdjust="spacing" textLength="226" x="6437.5" y="3959.262">FileSewersDriver</text><line style="stroke:#181818;stroke-width:1.0;" x1="6305" x2="6731" y1="3980.68" y2="3980.68"/><line style="stroke:#181818;stroke-width:1.0;" x1="6305" x2="6731" y1="3996.68" y2="3996.68"/><ellipse cx="6325" cy="4024.1683" fill="#84BE84" rx="6" ry="6" style="stroke:#038048;stroke-width:2.0;"/><text fill="#000000" font-family="sans-serif" font-size="28" lengthAdjust="spacing" textLength="378" x="6343" y="4031.7503">Set&lt;Object&gt; observe(UUID)</text><ellipse cx="6325" cy="4057.1448" fill="#84BE84" rx="6" ry="6" style="stroke:#038048;stroke-width:2.0;"/><text fill="#000000" font-family="sans-serif" font-size="28" lengthAdjust="spacing" textLength="366" x="6343" y="4064.7269">void indicate(UUID, Object)</text></g><!--class SewersDriverOrchestrator--><g id="elem_SewersDriverOrchestrator"><rect codeLine="123" fill="#F1F1F1" height="161.9531" id="SewersDriverOrchestrator" rx="5" ry="5" style="stroke:#181818;stroke-width:1.0;" width="430" x="5175" y="3470.74"/><ellipse cx="5211.3" cy="3502.74" fill="#ADD1B2" rx="22" ry="22" style="stroke:#181818;stroke-width:2.0;"/><path d="M5217.2463,3514.0261 Q5216.0842,3514.6238 5214.8059,3514.9226 Q5213.5275,3515.2214 5212.1164,3515.2214 Q5207.1027,3515.2214 5204.4631,3511.9177 Q5201.8234,3508.614 5201.8234,3502.3718 Q5201.8234,3496.113 5204.4631,3492.8093 Q5207.1027,3489.5056 5212.1164,3489.5056 Q5213.5275,3489.5056 5214.8225,3489.8045 Q5216.1174,3490.1033 5217.2463,3490.7009 L5217.2463,3496.1463 Q5215.9846,3494.9841 5214.7976,3494.4446 Q5213.6105,3493.905 5212.3488,3493.905 Q5209.6594,3493.905 5208.2897,3496.0383 Q5206.9201,3498.1716 5206.9201,3502.3718 Q5206.9201,3506.5554 5208.2897,3508.6887 Q5209.6594,3510.822 5212.3488,3510.822 Q5213.6105,3510.822 5214.7976,3510.2825 Q5215.9846,3509.7429 5217.2463,3508.5808 Z " fill="#000000"/><text fill="#000000" font-family="sans-serif" font-size="28" lengthAdjust="spacing" textLength="352" x="5240.7" y="3513.322">SewersDriverOrchestrator</text><line style="stroke:#181818;stroke-width:1.0;" x1="5177" x2="5603" y1="3534.74" y2="3534.74"/><line style="stroke:#181818;stroke-width:1.0;" x1="5177" x2="5603" y1="3550.74" y2="3550.74"/><ellipse cx="5197" cy="3578.2283" fill="#84BE84" rx="6" ry="6" style="stroke:#038048;stroke-width:2.0;"/><text fill="#000000" font-family="sans-serif" font-size="28" lengthAdjust="spacing" textLength="378" x="5215" y="3585.8103">Set&lt;Object&gt; observe(UUID)</text><ellipse cx="5197" cy="3611.2048" fill="#84BE84" rx="6" ry="6" style="stroke:#038048;stroke-width:2.0;"/><text fill="#000000" font-family="sans-serif" font-size="28" lengthAdjust="spacing" textLength="366" x="5215" y="3618.7869">void indicate(UUID, Object)</text></g><!--class PanacheSewersDriver--><g id="elem_PanacheSewersDriver"><rect codeLine="127" fill="#F1F1F1" height="161.9531" id="PanacheSewersDriver" rx="5" ry="5" style="stroke:#181818;stroke-width:1.0;" width="430" x="4587" y="3916.68"/><ellipse cx="4650.3" cy="3948.68" fill="#ADD1B2" rx="22" ry="22" style="stroke:#181818;stroke-width:2.0;"/><path d="M4656.2463,3959.9661 Q4655.0842,3960.5638 4653.8059,3960.8626 Q4652.5275,3961.1614 4651.1164,3961.1614 Q4646.1027,3961.1614 4643.4631,3957.8577 Q4640.8234,3954.554 4640.8234,3948.3118 Q4640.8234,3942.053 4643.4631,3938.7493 Q4646.1027,3935.4456 4651.1164,3935.4456 Q4652.5275,3935.4456 4653.8225,3935.7445 Q4655.1174,3936.0433 4656.2463,3936.6409 L4656.2463,3942.0863 Q4654.9846,3940.9241 4653.7976,3940.3846 Q4652.6105,3939.845 4651.3488,3939.845 Q4648.6594,3939.845 4647.2897,3941.9783 Q4645.9201,3944.1116 4645.9201,3948.3118 Q4645.9201,3952.4954 4647.2897,3954.6287 Q4648.6594,3956.762 4651.3488,3956.762 Q4652.6105,3956.762 4653.7976,3956.2225 Q4654.9846,3955.6829 4656.2463,3954.5208 Z " fill="#000000"/><text fill="#000000" font-family="sans-serif" font-size="28" lengthAdjust="spacing" textLength="292" x="4685.7" y="3959.262">PanacheSewersDriver</text><line style="stroke:#181818;stroke-width:1.0;" x1="4589" x2="5015" y1="3980.68" y2="3980.68"/><line style="stroke:#181818;stroke-width:1.0;" x1="4589" x2="5015" y1="3996.68" y2="3996.68"/><ellipse cx="4609" cy="4024.1683" fill="#84BE84" rx="6" ry="6" style="stroke:#038048;stroke-width:2.0;"/><text fill="#000000" font-family="sans-serif" font-size="28" lengthAdjust="spacing" textLength="378" x="4627" y="4031.7503">Set&lt;Object&gt; observe(UUID)</text><ellipse cx="4609" cy="4057.1448" fill="#84BE84" rx="6" ry="6" style="stroke:#038048;stroke-width:2.0;"/><text fill="#000000" font-family="sans-serif" font-size="28" lengthAdjust="spacing" textLength="366" x="4627" y="4064.7269">void indicate(UUID, Object)</text></g><!--class FlowIndicationResourceDriver--><g id="elem_FlowIndicationResourceDriver"><rect codeLine="131" fill="#F1F1F1" height="128.9766" id="FlowIndicationResourceDriver" rx="5" ry="5" style="stroke:#181818;stroke-width:1.0;" width="472" x="1158" y="254"/><ellipse cx="1188" cy="286" fill="#ADD1B2" rx="22" ry="22" style="stroke:#181818;stroke-width:2.0;"/><path d="M1193.9463,297.2861 Q1192.7842,297.8838 1191.5059,298.1826 Q1190.2275,298.4814 1188.8164,298.4814 Q1183.8027,298.4814 1181.1631,295.1777 Q1178.5234,291.874 1178.5234,285.6318 Q1178.5234,279.373 1181.1631,276.0693 Q1183.8027,272.7656 1188.8164,272.7656 Q1190.2275,272.7656 1191.5225,273.0645 Q1192.8174,273.3633 1193.9463,273.9609 L1193.9463,279.4063 Q1192.6846,278.2441 1191.4976,277.7046 Q1190.3105,277.165 1189.0488,277.165 Q1186.3594,277.165 1184.9897,279.2983 Q1183.6201,281.4316 1183.6201,285.6318 Q1183.6201,289.8154 1184.9897,291.9487 Q1186.3594,294.082 1189.0488,294.082 Q1190.3105,294.082 1191.4976,293.5425 Q1192.6846,293.0029 1193.9463,291.8408 Z " fill="#000000"/><text fill="#000000" font-family="sans-serif" font-size="28" lengthAdjust="spacing" textLength="408" x="1216" y="296.582">FlowIndicationResourceDriver</text><line style="stroke:#181818;stroke-width:1.0;" x1="1160" x2="1628" y1="318" y2="318"/><line style="stroke:#181818;stroke-width:1.0;" x1="1160" x2="1628" y1="334" y2="334"/><ellipse cx="1180" cy="361.4883" fill="#84BE84" rx="6" ry="6" style="stroke:#038048;stroke-width:2.0;"/><text fill="#000000" font-family="sans-serif" font-size="28" lengthAdjust="spacing" textLength="240" x="1198" y="369.0703">void serve(String)</text></g><!--class PumpPowerConsumptionIndicationResourceDriver--><g id="elem_PumpPowerConsumptionIndicationResourceDriver"><rect codeLine="134" fill="#F1F1F1" height="128.9766" id="PumpPowerConsumptionIndicationResourceDriver" rx="5" ry="5" style="stroke:#181818;stroke-width:1.0;" width="756" x="2282" y="254"/><ellipse cx="2312" cy="286" fill="#ADD1B2" rx="22" ry="22" style="stroke:#181818;stroke-width:2.0;"/><path d="M2317.9463,297.2861 Q2316.7842,297.8838 2315.5059,298.1826 Q2314.2275,298.4814 2312.8164,298.4814 Q2307.8027,298.4814 2305.1631,295.1777 Q2302.5234,291.874 2302.5234,285.6318 Q2302.5234,279.373 2305.1631,276.0693 Q2307.8027,272.7656 2312.8164,272.7656 Q2314.2275,272.7656 2315.5225,273.0645 Q2316.8174,273.3633 2317.9463,273.9609 L2317.9463,279.4063 Q2316.6846,278.2441 2315.4976,277.7046 Q2314.3105,277.165 2313.0488,277.165 Q2310.3594,277.165 2308.9897,279.2983 Q2307.6201,281.4316 2307.6201,285.6318 Q2307.6201,289.8154 2308.9897,291.9487 Q2310.3594,294.082 2313.0488,294.082 Q2314.3105,294.082 2315.4976,293.5425 Q2316.6846,293.0029 2317.9463,291.8408 Z " fill="#000000"/><text fill="#000000" font-family="sans-serif" font-size="28" lengthAdjust="spacing" textLength="692" x="2340" y="296.582">PumpPowerConsumptionIndicationResourceDriver</text><line style="stroke:#181818;stroke-width:1.0;" x1="2284" x2="3036" y1="318" y2="318"/><line style="stroke:#181818;stroke-width:1.0;" x1="2284" x2="3036" y1="334" y2="334"/><ellipse cx="2304" cy="361.4883" fill="#84BE84" rx="6" ry="6" style="stroke:#038048;stroke-width:2.0;"/><text fill="#000000" font-family="sans-serif" font-size="28" lengthAdjust="spacing" textLength="240" x="2322" y="369.0703">void serve(String)</text></g><!--class RainfallIndicationResourceDriver--><g id="elem_RainfallIndicationResourceDriver"><rect codeLine="137" fill="#F1F1F1" height="128.9766" id="RainfallIndicationResourceDriver" rx="5" ry="5" style="stroke:#181818;stroke-width:1.0;" width="510" x="1701" y="254"/><ellipse cx="1731" cy="286" fill="#ADD1B2" rx="22" ry="22" style="stroke:#181818;stroke-width:2.0;"/><path d="M1736.9463,297.2861 Q1735.7842,297.8838 1734.5059,298.1826 Q1733.2275,298.4814 1731.8164,298.4814 Q1726.8027,298.4814 1724.1631,295.1777 Q1721.5234,291.874 1721.5234,285.6318 Q1721.5234,279.373 1724.1631,276.0693 Q1726.8027,272.7656 1731.8164,272.7656 Q1733.2275,272.7656 1734.5225,273.0645 Q1735.8174,273.3633 1736.9463,273.9609 L1736.9463,279.4063 Q1735.6846,278.2441 1734.4976,277.7046 Q1733.3105,277.165 1732.0488,277.165 Q1729.3594,277.165 1727.9897,279.2983 Q1726.6201,281.4316 1726.6201,285.6318 Q1726.6201,289.8154 1727.9897,291.9487 Q1729.3594,294.082 1732.0488,294.082 Q1733.3105,294.082 1734.4976,293.5425 Q1735.6846,293.0029 1736.9463,291.8408 Z " fill="#000000"/><text fill="#000000" font-family="sans-serif" font-size="28" lengthAdjust="spacing" textLength="446" x="1759" y="296.582">RainfallIndicationResourceDriver</text><line style="stroke:#181818;stroke-width:1.0;" x1="1703" x2="2209" y1="318" y2="318"/><line style="stroke:#181818;stroke-width:1.0;" x1="1703" x2="2209" y1="334" y2="334"/><ellipse cx="1723" cy="361.4883" fill="#84BE84" rx="6" ry="6" style="stroke:#038048;stroke-width:2.0;"/><text fill="#000000" font-family="sans-serif" font-size="28" lengthAdjust="spacing" textLength="240" x="1741" y="369.0703">void serve(String)</text></g><!--class ObservationResourceDriver--><g id="elem_ObservationResourceDriver"><rect codeLine="140" fill="#F1F1F1" height="128.9766" id="ObservationResourceDriver" rx="5" ry="5" style="stroke:#181818;stroke-width:1.0;" width="438" x="607" y="254"/><ellipse cx="637" cy="286" fill="#ADD1B2" rx="22" ry="22" style="stroke:#181818;stroke-width:2.0;"/><path d="M642.9463,297.2861 Q641.7842,297.8838 640.5059,298.1826 Q639.2275,298.4814 637.8164,298.4814 Q632.8027,298.4814 630.1631,295.1777 Q627.5234,291.874 627.5234,285.6318 Q627.5234,279.373 630.1631,276.0693 Q632.8027,272.7656 637.8164,272.7656 Q639.2275,272.7656 640.5225,273.0645 Q641.8174,273.3633 642.9463,273.9609 L642.9463,279.4063 Q641.6846,278.2441 640.4976,277.7046 Q639.3105,277.165 638.0488,277.165 Q635.3594,277.165 633.9897,279.2983 Q632.6201,281.4316 632.6201,285.6318 Q632.6201,289.8154 633.9897,291.9487 Q635.3594,294.082 638.0488,294.082 Q639.3105,294.082 640.4976,293.5425 Q641.6846,293.0029 642.9463,291.8408 Z " fill="#000000"/><text fill="#000000" font-family="sans-serif" font-size="28" lengthAdjust="spacing" textLength="374" x="665" y="296.582">ObservationResourceDriver</text><line style="stroke:#181818;stroke-width:1.0;" x1="609" x2="1043" y1="318" y2="318"/><line style="stroke:#181818;stroke-width:1.0;" x1="609" x2="1043" y1="334" y2="334"/><ellipse cx="629" cy="361.4883" fill="#84BE84" rx="6" ry="6" style="stroke:#038048;stroke-width:2.0;"/><text fill="#000000" font-family="sans-serif" font-size="28" lengthAdjust="spacing" textLength="264" x="647" y="369.0703">String serve(String)</text></g><!--class PanacheRepository--><g id="elem_PanacheRepository"><rect codeLine="143" fill="#F1F1F1" height="96" id="PanacheRepository" rx="5" ry="5" style="stroke:#181818;stroke-width:1.0;" width="394" x="4605" y="4372.64"/><ellipse cx="4635" cy="4404.64" fill="#B4A7E5" rx="22" ry="22" style="stroke:#181818;stroke-width:2.0;"/><path d="M4626.8555,4396.1703 L4626.8555,4391.8539 L4641.6143,4391.8539 L4641.6143,4396.1703 L4636.6836,4396.1703 L4636.6836,4412.3236 L4641.6143,4412.3236 L4641.6143,4416.64 L4626.8555,4416.64 L4626.8555,4412.3236 L4631.7861,4412.3236 L4631.7861,4396.1703 Z " fill="#000000"/><text fill="#000000" font-family="sans-serif" font-size="28" font-style="italic" lengthAdjust="spacing" textLength="260" x="4663" y="4415.222">PanacheRepository</text><rect fill="#FFFFFF" height="32.2656" style="stroke:#181818;stroke-width:2.0;stroke-dasharray:2.0,2.0;" width="66" x="4939" y="4366.64"/><text fill="#000000" font-family="sans-serif" font-size="24" font-style="italic" lengthAdjust="spacing" textLength="62" x="4941" y="4391.8431">Entity</text><line style="stroke:#181818;stroke-width:1.0;" x1="4607" x2="4997" y1="4436.64" y2="4436.64"/><line style="stroke:#181818;stroke-width:1.0;" x1="4607" x2="4997" y1="4452.64" y2="4452.64"/></g><!--link SewerIndicationAdapter to SewerIndicationUseCase--><g id="link_SewerIndicationAdapter_SewerIndicationUseCase"><path codeLine="145" d="M2658.5,796.7 C2658.5,862.94 2658.5,952.88 2658.5,1019.14 " fill="none" id="SewerIndicationAdapter-to-SewerIndicationUseCase" style="stroke:#181818;stroke-width:2.0;"/><polygon fill="#181818" points="2658.5,1031.14,2666.5,1013.14,2658.5,1021.14,2650.5,1013.14,2658.5,1031.14" style="stroke:#181818;stroke-width:2.0;"/></g><!--link SewerObservationAdapter to SewerObservationUseCase--><g id="link_SewerObservationAdapter_SewerObservationUseCase"><path codeLine="146" d="M929.5,796.7 C929.5,862.94 929.5,952.88 929.5,1019.14 " fill="none" id="SewerObservationAdapter-to-SewerObservationUseCase" style="stroke:#181818;stroke-width:2.0;"/><polygon fill="#181818" points="929.5,1031.14,937.5,1013.14,929.5,1021.14,921.5,1013.14,929.5,1031.14" style="stroke:#181818;stroke-width:2.0;"/></g><!--reverse link SewersUseCase to SewersAdapterBridge--><g id="link_SewersUseCase_SewersAdapterBridge"><path codeLine="147" d="M4142,2959.48 C4142,3018.4 4142,3061.56 4142,3120.4 " fill="none" id="SewersUseCase-backto-SewersAdapterBridge" style="stroke:#181818;stroke-width:2.0;stroke-dasharray:7.0,7.0;"/><polygon fill="none" points="4142,2923.48,4130,2959.48,4154,2959.48,4142,2923.48" style="stroke:#181818;stroke-width:2.0;"/></g><!--link SewersAdapterBridge to SewersAdapter--><g id="link_SewersAdapterBridge_SewersAdapter"><path codeLine="148" d="M4166,3282.92 C4166,3339.06 4166,3401.48 4166,3457.78 " fill="none" id="SewersAdapterBridge-to-SewersAdapter" style="stroke:#181818;stroke-width:2.0;"/><polygon fill="#181818" points="4166,3469.78,4174,3451.78,4166,3459.78,4158,3451.78,4166,3469.78" style="stroke:#181818;stroke-width:2.0;"/></g><!--link SewerOverflowIndicationService to SewerOverflowIndicationComponent--><g id="link_SewerOverflowIndicationService_SewerOverflowIndicationComponent"><path codeLine="149" d="M2630,1526.82 C2630,1563.42 2630,1596.88 2630,1633.4 " fill="none" id="SewerOverflowIndicationService-to-SewerOverflowIndicationComponent" style="stroke:#181818;stroke-width:2.0;"/><polygon fill="#181818" points="2630,1645.4,2638,1627.4,2630,1635.4,2622,1627.4,2630,1645.4" style="stroke:#181818;stroke-width:2.0;"/></g><!--link SewerOverflowIndicationComponent to Sewers--><g id="link_SewerOverflowIndicationComponent_Sewers"><path codeLine="150" d="M2506,1775.12 C2506,1894.36 2506,2136.64 2506,2136.64 C2506,2136.64 1733.3,2136.64 1344.76,2136.64 " fill="none" id="SewerOverflowIndicationComponent-to-Sewers" style="stroke:#181818;stroke-width:2.0;"/><polygon fill="#181818" points="1332.76,2136.64,1350.76,2144.64,1342.76,2136.64,1350.76,2128.64,1332.76,2136.64" style="stroke:#181818;stroke-width:2.0;"/></g><!--link SewerOverflowIndicationComponent to RainIndicationComponent--><g id="link_SewerOverflowIndicationComponent_RainIndicationComponent"><path codeLine="151" d="M2730,1775.62 C2730,1871.24 2730,2036.48 2730,2132.12 " fill="none" id="SewerOverflowIndicationComponent-to-RainIndicationComponent" style="stroke:#181818;stroke-width:2.0;"/><polygon fill="#181818" points="2730,2144.12,2738,2126.12,2730,2134.12,2722,2126.12,2730,2144.12" style="stroke:#181818;stroke-width:2.0;"/></g><!--link SewerOverflowIndicationComponent to PumpIndicationComponent--><g id="link_SewerOverflowIndicationComponent_PumpIndicationComponent"><path codeLine="152" d="M2281.1,1710.64 C2082.98,1710.64 1871,1710.64 1871,1710.64 C1871,1710.64 1871,1996.98 1871,2132.16 " fill="none" id="SewerOverflowIndicationComponent-to-PumpIndicationComponent" style="stroke:#181818;stroke-width:2.0;"/><polygon fill="#181818" points="1871,2144.16,1879,2126.16,1871,2134.16,1863,2126.16,1871,2144.16" style="stroke:#181818;stroke-width:2.0;"/></g><!--link SewerOverflowIndicationComponent to FlowIndicationComponent--><g id="link_SewerOverflowIndicationComponent_FlowIndicationComponent"><path codeLine="153" d="M2954.28,1710.64 C2999.68,1710.64 3031,1710.64 3031,1710.64 C3031,1710.64 3031,1996.98 3031,2132.16 " fill="none" id="SewerOverflowIndicationComponent-to-FlowIndicationComponent" style="stroke:#181818;stroke-width:2.0;"/><polygon fill="#181818" points="3031,2144.16,3039,2126.16,3031,2134.16,3023,2126.16,3031,2144.16" style="stroke:#181818;stroke-width:2.0;"/></g><!--link SewerObservationService to SewerObservationComponent--><g id="link_SewerObservationService_SewerObservationComponent"><path codeLine="154" d="M1048.5,1526.82 C1048.5,1563.42 1048.5,1596.88 1048.5,1633.4 " fill="none" id="SewerObservationService-to-SewerObservationComponent" style="stroke:#181818;stroke-width:2.0;"/><polygon fill="#181818" points="1048.5,1645.4,1056.5,1627.4,1048.5,1635.4,1040.5,1627.4,1048.5,1645.4" style="stroke:#181818;stroke-width:2.0;"/></g><!--link SewerObservationComponent to Sewers--><g id="link_SewerObservationComponent_Sewers"><path codeLine="155" d="M1115.5,1775.62 C1115.5,1865.96 1115.5,2017.14 1115.5,2115.54 " fill="none" id="SewerObservationComponent-to-Sewers" style="stroke:#181818;stroke-width:2.0;"/><polygon fill="#181818" points="1115.5,2127.54,1123.5,2109.54,1115.5,2117.54,1107.5,2109.54,1115.5,2127.54" style="stroke:#181818;stroke-width:2.0;"/></g><!--link Sewer to Problem--><g id="link_Sewer_Problem"><path codeLine="156" d="M839.92,2210.64 C863.92,2210.64 879.5,2210.64 879.5,2210.64 C879.5,2210.64 879.5,2398.2 879.5,2492.52 " fill="none" id="Sewer-to-Problem" style="stroke:#181818;stroke-width:2.0;"/><polygon fill="#181818" points="879.5,2504.52,887.5,2486.52,879.5,2494.52,871.5,2486.52,879.5,2504.52" style="stroke:#181818;stroke-width:2.0;"/></g><!--link Sewer to KeyPerformanceIndicator--><g id="link_Sewer_KeyPerformanceIndicator"><path codeLine="157" d="M536.5,2274.78 C536.5,2341.72 536.5,2432.24 536.5,2492.28 " fill="none" id="Sewer-to-KeyPerformanceIndicator" style="stroke:#181818;stroke-width:2.0;"/><polygon fill="#181818" points="536.5,2504.28,544.5,2486.28,536.5,2494.28,528.5,2486.28,536.5,2504.28" style="stroke:#181818;stroke-width:2.0;"/></g><!--link SewerIndicationUseCase to SewerOverflowIndicationService--><g id="link_SewerIndicationUseCase_SewerOverflowIndicationService"><path codeLine="158" d="M2654,1161.68 C2654,1227.92 2654,1317.86 2654,1384.1 " fill="none" id="SewerIndicationUseCase-to-SewerOverflowIndicationService" style="stroke:#181818;stroke-width:2.0;"/><polygon fill="#181818" points="2654,1396.1,2662,1378.1,2654,1386.1,2646,1378.1,2654,1396.1" style="stroke:#181818;stroke-width:2.0;"/></g><!--link SewerObservationUseCase to SewerObservationService--><g id="link_SewerObservationUseCase_SewerObservationService"><path codeLine="159" d="M1021,1161.68 C1021,1227.92 1021,1317.86 1021,1384.1 " fill="none" id="SewerObservationUseCase-to-SewerObservationService" style="stroke:#181818;stroke-width:2.0;"/><polygon fill="#181818" points="1021,1396.1,1029,1378.1,1021,1386.1,1013,1378.1,1021,1396.1" style="stroke:#181818;stroke-width:2.0;"/></g><!--reverse link Sewers to SewersUseCaseBridge--><g id="link_Sewers_SewersUseCaseBridge"><path codeLine="160" d="M1368.94,2282.64 C2040.24,2282.64 4032,2282.64 4032,2282.64 C4032,2282.64 4032,2391.5 4032,2471.02 " fill="none" id="Sewers-backto-SewersUseCaseBridge" style="stroke:#181818;stroke-width:2.0;stroke-dasharray:7.0,7.0;"/><polygon fill="none" points="1332.94,2282.64,1368.94,2294.64,1368.94,2270.64,1332.94,2282.64" style="stroke:#181818;stroke-width:2.0;"/></g><!--link SewersUseCaseBridge to SewersUseCase--><g id="link_SewersUseCaseBridge_SewersUseCase"><path codeLine="161" d="M4116,2634.1 C4116,2673.5 4116,2708.7 4116,2748.14 " fill="none" id="SewersUseCaseBridge-to-SewersUseCase" style="stroke:#181818;stroke-width:2.0;"/><polygon fill="#181818" points="4116,2760.14,4124,2742.14,4116,2750.14,4108,2742.14,4116,2760.14" style="stroke:#181818;stroke-width:2.0;"/></g><!--link JSONRainfallIndicationDriver to SewerIndicationAdapter--><g id="link_JSONRainfallIndicationDriver_SewerIndicationAdapter"><path codeLine="162" d="M3424,383.3 C3424,492.34 3424,700.64 3424,700.64 C3424,700.64 3095.12,700.64 2868.74,700.64 " fill="none" id="JSONRainfallIndicationDriver-to-SewerIndicationAdapter" style="stroke:#181818;stroke-width:2.0;"/><polygon fill="#181818" points="2856.74,700.64,2874.74,708.64,2866.74,700.64,2874.74,692.64,2856.74,700.64" style="stroke:#181818;stroke-width:2.0;"/></g><!--link PdfPumpPowerConsumptionIndicationDriver to SewerIndicationAdapter--><g id="link_PdfPumpPowerConsumptionIndicationDriver_SewerIndicationAdapter"><path codeLine="163" d="M4279.5,383.36 C4279.5,507.1 4279.5,764.64 4279.5,764.64 C4279.5,764.64 3300.56,764.64 2868.96,764.64 " fill="none" id="PdfPumpPowerConsumptionIndicationDriver-to-SewerIndicationAdapter" style="stroke:#181818;stroke-width:2.0;"/><polygon fill="#181818" points="2856.96,764.64,2874.96,772.64,2866.96,764.64,2874.96,756.64,2856.96,764.64" style="stroke:#181818;stroke-width:2.0;"/></g><!--link XMLRainfallIndicationDriver to SewerIndicationAdapter--><g id="link_XMLRainfallIndicationDriver_SewerIndicationAdapter"><path codeLine="164" d="M3811.5,383.2 C3811.5,499.68 3811.5,732.64 3811.5,732.64 C3811.5,732.64 3197.52,732.64 2868.64,732.64 " fill="none" id="XMLRainfallIndicationDriver-to-SewerIndicationAdapter" style="stroke:#181818;stroke-width:2.0;"/><polygon fill="#181818" points="2856.64,732.64,2874.64,740.64,2866.64,732.64,2874.64,724.64,2856.64,732.64" style="stroke:#181818;stroke-width:2.0;"/></g><!--reverse link SewersAdapter to DynamoSewersDriver--><g id="link_SewersAdapter_DynamoSewersDriver"><path codeLine="165" d="M4094.34,3669 C4094.34,3748.8 4094.34,3822.64 4094.34,3822.64 C4094.34,3822.64 5858.34,3822.64 5858.34,3822.64 C5858.34,3822.64 5858.34,3870.24 5858.34,3915.78 " fill="none" id="SewersAdapter-backto-DynamoSewersDriver" style="stroke:#181818;stroke-width:2.0;stroke-dasharray:7.0,7.0;"/><polygon fill="none" points="4094.34,3633,4082.34,3669,4106.34,3669,4094.34,3633" style="stroke:#181818;stroke-width:2.0;"/></g><!--reverse link SewersAdapter to S3SewersDriver--><g id="link_SewersAdapter_S3SewersDriver"><path codeLine="166" d="M4417.7,3526.64 C4692.42,3526.64 5096,3526.64 5096,3526.64 C5096,3526.64 5096,3998.64 5096,3998.64 C5096,3998.64 5129.56,3998.64 5174.02,3998.64 " fill="none" id="SewersAdapter-backto-S3SewersDriver" style="stroke:#181818;stroke-width:2.0;stroke-dasharray:7.0,7.0;"/><polygon fill="none" points="4381.7,3526.64,4417.7,3538.64,4417.7,3514.64,4381.7,3526.64" style="stroke:#181818;stroke-width:2.0;"/></g><!--reverse link SewersAdapter to FileSewersDriver--><g id="link_SewersAdapter_FileSewersDriver"><path codeLine="167" d="M4237.66,3669.44 C4237.66,3715.8 4237.66,3728.64 4237.66,3728.64 C4237.66,3728.64 6446.34,3728.64 6446.34,3728.64 C6446.34,3728.64 6446.34,3837.04 6446.34,3916.22 " fill="none" id="SewersAdapter-backto-FileSewersDriver" style="stroke:#181818;stroke-width:2.0;stroke-dasharray:7.0,7.0;"/><polygon fill="none" points="4237.66,3633.44,4225.66,3669.44,4249.66,3669.44,4237.66,3633.44" style="stroke:#181818;stroke-width:2.0;"/></g><!--reverse link SewersAdapter to SewersDriverOrchestrator--><g id="link_SewersAdapter_SewersDriverOrchestrator"><path codeLine="168" d="M4417.3,3498.64 C4640.42,3498.64 4951.12,3498.64 5174.36,3498.64 " fill="none" id="SewersAdapter-backto-SewersDriverOrchestrator" style="stroke:#181818;stroke-width:2.0;stroke-dasharray:7.0,7.0;"/><polygon fill="none" points="4381.3,3498.64,4417.3,3510.64,4417.3,3486.64,4381.3,3498.64" style="stroke:#181818;stroke-width:2.0;"/></g><!--link SewersDriverOrchestrator to DynamoSewersDriver--><g id="link_SewersDriverOrchestrator_DynamoSewersDriver"><path codeLine="169" d="M5605.66,3580.64 C5781.76,3580.64 6001.66,3580.64 6001.66,3580.64 C6001.66,3580.64 6001.66,3782.9 6001.66,3904.26 " fill="none" id="SewersDriverOrchestrator-to-DynamoSewersDriver" style="stroke:#181818;stroke-width:2.0;"/><polygon fill="#181818" points="6001.66,3916.26,6009.66,3898.26,6001.66,3906.26,5993.66,3898.26,6001.66,3916.26" style="stroke:#181818;stroke-width:2.0;"/></g><!--link SewersDriverOrchestrator to PanacheSewersDriver--><g id="link_SewersDriverOrchestrator_PanacheSewersDriver"><path codeLine="170" d="M5174.24,3606.64 C5067.42,3606.64 4961,3606.64 4961,3606.64 C4961,3606.64 4961,3789.04 4961,3903.7 " fill="none" id="SewersDriverOrchestrator-to-PanacheSewersDriver" style="stroke:#181818;stroke-width:2.0;"/><polygon fill="#181818" points="4961,3915.7,4969,3897.7,4961,3905.7,4953,3897.7,4961,3915.7" style="stroke:#181818;stroke-width:2.0;"/></g><!--link SewersDriverOrchestrator to FileSewersDriver--><g id="link_SewersDriverOrchestrator_FileSewersDriver"><path codeLine="171" d="M5605.86,3526.64 C5951.26,3526.64 6589.66,3526.64 6589.66,3526.64 C6589.66,3526.64 6589.66,3769.34 6589.66,3904.16 " fill="none" id="SewersDriverOrchestrator-to-FileSewersDriver" style="stroke:#181818;stroke-width:2.0;"/><polygon fill="#181818" points="6589.66,3916.16,6597.66,3898.16,6589.66,3906.16,6581.66,3898.16,6589.66,3916.16" style="stroke:#181818;stroke-width:2.0;"/></g><!--link SewersDriverOrchestrator to S3SewersDriver--><g id="link_SewersDriverOrchestrator_S3SewersDriver"><path codeLine="172" d="M5390,3633.5 C5390,3713.96 5390,3824.1 5390,3904.38 " fill="none" id="SewersDriverOrchestrator-to-S3SewersDriver" style="stroke:#181818;stroke-width:2.0;"/><polygon fill="#181818" points="5390,3916.38,5398,3898.38,5390,3906.38,5382,3898.38,5390,3916.38" style="stroke:#181818;stroke-width:2.0;"/></g><!--reverse link SewersAdapter to PanacheSewersDriver--><g id="link_SewersAdapter_PanacheSewersDriver"><path codeLine="173" d="M4417.18,3552.64 C4600.7,3552.64 4799,3552.64 4799,3552.64 C4799,3552.64 4799,3787.56 4799,3916.04 " fill="none" id="SewersAdapter-backto-PanacheSewersDriver" style="stroke:#181818;stroke-width:2.0;stroke-dasharray:7.0,7.0;"/><polygon fill="none" points="4381.18,3552.64,4417.18,3564.64,4417.18,3540.64,4381.18,3552.64" style="stroke:#181818;stroke-width:2.0;"/></g><!--link PanacheSewersDriver to SewersAdapter--><g id="link_PanacheSewersDriver_SewersAdapter"><path codeLine="174" d="M4693,3916.26 C4693,3794.9 4693,3580.64 4693,3580.64 C4693,3580.64 4539.4,3580.64 4393.88,3580.64 " fill="none" id="PanacheSewersDriver-to-SewersAdapter" style="stroke:#181818;stroke-width:2.0;"/><polygon fill="#181818" points="4381.88,3580.64,4399.88,3588.64,4391.88,3580.64,4399.88,3572.64,4381.88,3580.64" style="stroke:#181818;stroke-width:2.0;"/></g><!--link FlowIndicationResourceDriver to SewerIndicationAdapter--><g id="link_FlowIndicationResourceDriver_SewerIndicationAdapter"><path codeLine="175" d="M1585,383.78 C1585,505.46 1585,754.64 1585,754.64 C1585,754.64 2141.24,754.64 2451.46,754.64 " fill="none" id="FlowIndicationResourceDriver-to-SewerIndicationAdapter" style="stroke:#181818;stroke-width:2.0;"/><polygon fill="#181818" points="2463.46,754.64,2445.46,746.64,2453.46,754.64,2445.46,762.64,2463.46,754.64" style="stroke:#181818;stroke-width:2.0;"/></g><!--link PumpPowerConsumptionIndicationResourceDriver to SewerIndicationAdapter--><g id="link_PumpPowerConsumptionIndicationResourceDriver_SewerIndicationAdapter"><path codeLine="176" d="M2660,383.92 C2660,461.24 2660,577.12 2660,654.32 " fill="none" id="PumpPowerConsumptionIndicationResourceDriver-to-SewerIndicationAdapter" style="stroke:#181818;stroke-width:2.0;"/><polygon fill="#181818" points="2660,666.32,2668,648.32,2660,656.32,2652,648.32,2660,666.32" style="stroke:#181818;stroke-width:2.0;"/></g><!--link RainfallIndicationResourceDriver to SewerIndicationAdapter--><g id="link_RainfallIndicationResourceDriver_SewerIndicationAdapter"><path codeLine="177" d="M2041,383.24 C2041,494.62 2041,710.64 2041,710.64 C2041,710.64 2270.04,710.64 2451.3,710.64 " fill="none" id="RainfallIndicationResourceDriver-to-SewerIndicationAdapter" style="stroke:#181818;stroke-width:2.0;"/><polygon fill="#181818" points="2463.3,710.64,2445.3,702.64,2453.3,710.64,2445.3,718.64,2463.3,710.64" style="stroke:#181818;stroke-width:2.0;"/></g><!--link ObservationResourceDriver to SewerObservationAdapter--><g id="link_ObservationResourceDriver_SewerObservationAdapter"><path codeLine="178" d="M854,383.92 C854,461.24 854,577.12 854,654.32 " fill="none" id="ObservationResourceDriver-to-SewerObservationAdapter" style="stroke:#181818;stroke-width:2.0;"/><polygon fill="#181818" points="854,666.32,862,648.32,854,656.32,846,648.32,854,666.32" style="stroke:#181818;stroke-width:2.0;"/></g><!--link PanacheSewersDriver to PanacheRepository--><g id="link_PanacheSewersDriver_PanacheRepository"><path codeLine="179" d="M4802,4079.22 C4802,4165.88 4802,4288.06 4802,4359.68 " fill="none" id="PanacheSewersDriver-to-PanacheRepository" style="stroke:#181818;stroke-width:2.0;"/><polygon fill="#181818" points="4802,4371.68,4810,4353.68,4802,4361.68,4794,4353.68,4802,4371.68" style="stroke:#181818;stroke-width:2.0;"/></g><!--SRC=[tLbTRzis57tNhr3bbnHhYQBfXWO8NBH90sHTPoD6WBqDj4JPh6LH8-LuHfR_Fkh3iRv5IgJiz2cnG9vpxXLvUNdqAg1miORcXg5RFqHqZHmCGpI5zWek43DTw35ai1Ns0qZXslImZy9TW4n2moKns99iJSRd8H8zDO9adkbG_80eCo4p7GHiiWwWlmC19M4y3Z2qHHJiHutOQZVtDiXyV7f6W0uCGc48y3nyzF6zwyu_PA7cPECxaEuaeG3s7MppP81dW967rqW5D9apH1zq8CUFMGCmVzD_sv0XsSo2myIHwrx0YuiiAl937E8UeE0POUJQhZD_fo8PPNIHbseJFwJ4qq46zjWZGg6_G9g2R5zUwc8iSWqKOZ9oY03pJ4tXnLDssYX1YgztWoGZLm4UCBbPjW4JN4KxP9BvpBc7rWCckiWuOBBhgBKcNECHVY3HTvWVE5gFTKaA5tj893i17unvW-VRI10vEsEqNU8mtzPjcJmEY6QDRjvzVd_-iKVC1KJWx7ou9ifJMwHXvrefuZUfau1GUubOI658Q3iHXuLyV0UU_SpHXzykVltwHP7w5BLTEEKn2kB7GyjhMr9bXAAXGCMmxINfdmsagqsy6J41-ryLkS-yqCD0iCHpHFr8EA7hgbTds1vapBHcaRZR94fC_Cz9QRDwtyL0DR3vQ9ZcBmy4EsQSWRDPIB6_U6qyvGHDulpqKbJgUsk04qKp55vEvZ-G7OvBmd1qyNOXhvU9EDPLKc6DWnnQeiDyXFDeBzlXKrPI6ipP_VtjzUl2k3YP-_p78zwOoRnYLlTKNoXs5aYj_0IpdCoISd6v4qxlUcHxM4Gp3eLjUUL2LxzcpjB2_Gw3osIDl36Jl-DC03SvZ2ikbFYSsz9vQGKrf1dfw5zaRyAy-4_yAQ_53ajVGpQCwMOT31v63McFCEuWzWSFeuQqHnWrAtIWUDhOUmTsACqAztdhCP3Rtr7bYWUCHOydfSclysf0BMj9zZxr3SUNfTu1IO0hZx1Kb_W95ayePjpIxTea8UIgV3XDhiJiB8eZ_P5Tjj_GRifJopiio5lPT4iGXLeR311GGyuZE5JlHB8rb4S0KiAiXa8RUC_G5KUs55e6e9f2ljFihwsrsEIqDHIRqfxjhwswUyi9qjjyfbGTcq_1G8fjQ5trQIuvlyycVqR7jmizxx2mhcDDLYy71pH1jo_PgUD6tT6KSAOhuZF-VpHTiKP1bdQvVtt_GrCQ6v3RPLt7nbAoRkJKY5bKe4oWx69qha9ssV82UM1LSc_us-ihkCf00qLWfHVF57EICTOinSOSg2DI5SWqiNpw9h_6dWCLyChMJEvwSOSOsL0RoOLGxTs19cY1ujjO4vKAbQ5g5rwkb4h5ji6t2ynqI3sKbRglMjXqgSOocdglT9NVeO0mp3VdpXAnMK5fskNNk3yUnusn5blrxTknvdxQq6A-TjSjsciRgYrEi07_ZNNqhigLoYQt4TCOsd3jlZGKc5d6yMmq1N5NkZClEoHfd_Ld3RV67VzPmxtHip-5RM45mScxkiRmFlAfLXqHqrQPTa5_yqN5rC53DZGxireAHdCtOMWsT7MKYPgIPEYpJVkqjbhAW8ZexgdltOrtyNXbvOfU0GtzVky9Ic_oWOyfjxjHBBy7Ur_RvEtX8uiKiuIFBBAR_ViYHGlkjCwRucIZaB37JpO6eSrqqkkejLuP6hzw77d3oaWTt0_iyXdccAUsYgyn9wY_zGFDqJLBVBgHrIhwASAesp6bhpd_0m00]--></g></svg>